<?xml version="1.0" encoding="UTF-8" standalone="no"?>
<!-- Generator: Adobe Illustrator 25.1.0, SVG Export Plug-In . SVG Version: 6.00 Build 0)  -->

<svg
   version="1.1"
   x="0px"
   y="0px"
   viewBox="0 0 300 150"
   xml:space="preserve"
   id="svg234"
   sodipodi:docname="Demenagements_interieur.svg"
   inkscape:version="1.1 (c68e22c387, 2021-05-23)"
   width="300"
   height="150"
   xmlns:inkscape="http://www.inkscape.org/namespaces/inkscape"
   xmlns:sodipodi="http://sodipodi.sourceforge.net/DTD/sodipodi-0.dtd"
   xmlns="http://www.w3.org/2000/svg"
   xmlns:svg="http://www.w3.org/2000/svg"><defs
   id="defs238">
	
	
	

		
		
		
		
	
			
			
			
			
			
			
		
			
			
			
			
			
			
			
		
			
			
			
			
			
			
		
			
			
		
				
				
				
				
				
				
				
				
				
				
			
				
				
				
				
				
				
				
				
			</defs><sodipodi:namedview
   id="namedview236"
   pagecolor="#505050"
   bordercolor="#eeeeee"
   borderopacity="1"
   inkscape:pageshadow="0"
   inkscape:pageopacity="0"
   inkscape:pagecheckerboard="0"
   showgrid="false"
   inkscape:zoom="1.0295475"
   inkscape:cx="268.07894"
   inkscape:cy="248.16728"
   inkscape:window-width="1920"
   inkscape:window-height="1001"
   inkscape:window-x="-9"
   inkscape:window-y="-9"
   inkscape:window-maximized="1"
   inkscape:current-layer="svg234"
   borderlayer="true"
   width="300px" />
<style
   type="text/css"
   id="style2">
	.st0{fill:#FFFFFF;}
	.st1{fill:#CAEDFF;}
	.st2{fill:#74C6F7;}
	.st3{fill:#4597C9;}
	.st4{fill:#D6D6D6;}
	.st5{fill:#B6BEC1;}
	.st6{fill:#3D6B50;}
	.st7{fill:#1D3D2A;}
	.st8{fill:#29543B;}
	.st9{fill:#C1A286;}
	.st10{fill:#332B22;}
	.st11{fill:#5A6F75;}
	.st12{fill:#AD8666;}
	.st13{fill:#262626;}
	.st14{fill:#8A999E;}
	.st15{fill:#FF1542;}
	.st16{fill:#161616;}
	.st17{fill:#FF9E5C;}
	.st18{fill:#2B3D89;}
	.st19{fill:#ED6F37;}
	.st20{fill:#001D56;}
	.st21{fill:#2D82E8;}
	.st22{opacity:0.5;fill:#73B9FF;}
	.st23{fill:#D6162D;}
	.st24{fill:#AA0E28;}
	.st25{font-family:'Sacramento-Regular';}
	.st26{font-size:48px;}
	.st27{font-family:'FugazOne-Regular';}
	.st28{font-size:60px;}
	.st29{font-size:18px;}
</style>
<g
   id="BACKGROUND">
</g>
<rect
   class="st0"
   width="301.48389"
   height="158.25966"
   id="rect5"
   x="-1.9426011"
   y="-2.1000483"
   style="stroke-width:0.356699" /><path
   class="st1"
   d="m 300.34526,37.991329 c 0,0 -6.99443,-19.029612 -33.04264,-19.029612 -26.04821,0 -32.23868,13.521908 -32.23868,13.521908 0,0 -22.91277,-17.743382 -43.65487,5.507704 0,0 -1.56771,-6.332211 -15.91835,-8.409967 -14.35063,-2.044777 -17.60665,8.409967 -17.60665,8.409967 0,0 -1.76871,-13.620849 -32.23868,-13.620849 -30.469977,0 -37.866382,35.717626 -37.866382,35.717626 0,0 -4.421764,-16.622053 -25.807022,-17.248678 -21.385258,-0.626625 -31.314128,18.402987 -31.314128,18.402987 0,0 -9.245506,-11.510112 -31.796502,-11.510112 V 100.78576 H 300.34526 Z"
   id="path7"
   style="stroke-width:0.364107" /><polygon
   class="st2"
   points="639.3,254 730.9,247.9 750,265 0,244.6 0,173.9 91.5,206.6 113.9,228.2 161.7,216.5 231.8,245.5 397.3,195.5 482.5,213.1 508,224.6 534.8,250.6 610.3,245.5 "
   id="polygon9"
   transform="matrix(0.40197853,0,0,0.32980264,-1.942601,-8.7417047)" /><polygon
   class="st3"
   points="0,272.1 0,224.5 33.7,213.3 51.2,225 83.2,225 92.6,238.6 120.6,234.2 133.4,248.2 156.6,230.8 178.7,234.2 188,272.1 "
   id="polygon11"
   style="fill:#29543b;fill-opacity:1"
   transform="matrix(0.40197853,0,0,0.32980264,-1.942601,-8.7417047)" /><polygon
   class="st4"
   points="750,265 750,272.1 0,272.1 0,244.6 "
   id="polygon13"
   transform="matrix(0.40197853,0,0,0.32980264,-1.942601,-8.7417047)" /><path
   class="st1"
   d="M 19.182256,35.226333 100.51694,33.20426 c 0,0 -13.977598,-4.075256 -22.412462,-6.500799 0,0 -0.726062,-9.003322 -10.065531,-9.340151 -9.339468,-0.336829 -10.960399,7.403695 -10.960399,7.403695 0,0 -1.227787,-11.573123 -12.854043,-11.263191 -9.535933,0.252995 -10.773366,8.305394 -10.773366,8.305394 0,0 -15.330461,-1.581408 -14.268883,13.417125 z"
   id="path15"
   style="stroke-width:0.358237" /><polygon
   class="st5"
   points="0,272.1 0,244.6 133.4,248.2 130.2,256.7 99.2,259.6 109.1,272.1 "
   id="polygon17"
   transform="matrix(0.40197853,0,0,0.32980264,-1.942601,-8.7417047)" /><polygon
   class="st3"
   points="750,248.7 750,265 573.4,260.2 592,253.9 599.2,258.3 631.3,247.1 642.5,247.1 649.9,256.8 673.9,258.3 697.9,241 718.1,237.2 726,253 "
   id="polygon19"
   style="fill:#29543b;fill-opacity:1"
   transform="matrix(0.40197853,0,0,0.32980264,-1.942601,-8.7417047)" /><polygon
   class="st6"
   points="750,286.3 750,272.1 0,272.1 0,346.3 "
   id="polygon23"
   transform="matrix(0.40197853,0,0,0.32980264,-1.942601,-8.7417047)" /><polygon
   class="st7"
   points="750,286.3 0,346.3 0,329.9 "
   id="polygon25"
   transform="matrix(0.40197853,0,0,0.32980264,-1.942601,-8.7417047)" /><polygon
   class="st8"
   points="166.4,320.2 0,329.9 0,272.1 93.2,272.1 70,295 133.1,295 "
   id="polygon29"
   transform="matrix(0.40197853,0,0,0.32980264,-1.942601,-8.7417047)" /><polygon
   class="st8"
   points="631.3,279.2 615.9,294.1 552.6,297.8 555.1,286.3 570.7,282.7 555.1,272.1 577.4,272.1 599.3,279.2 "
   id="polygon31"
   transform="matrix(0.40197853,0,0,0.32980264,-1.942601,-8.7417047)" /><polygon
   class="st8"
   points="702.7,272.1 740.4,278.4 716.7,288.3 750,286.3 750,272.1 "
   id="polygon33"
   transform="matrix(0.40197853,0,0,0.32980264,-1.942601,-8.7417047)" /><polygon
   class="st9"
   points="0,346.3 750,286.3 750,453.8 711.8,500 0,500 "
   id="polygon37"
   style="fill:#5a6f75;fill-opacity:1"
   transform="matrix(0.40197853,0,0,0.32980264,-1.942601,-8.7417047)" /><polygon
   class="st8"
   points="683.3,500 750,435.9 750,500 "
   id="polygon27"
   transform="matrix(0.55512866,0,0,0.44288237,-116.80519,-65.281569)" /><polygon
   class="st11"
   points="526.7,393.2 287.9,500 215.1,500 505,393.2 "
   id="polygon41"
   style="fill:#d6d6d6;fill-opacity:1"
   transform="matrix(0.40197853,0,0,0.32980264,-1.942601,-8.7417047)" /><polygon
   class="st4"
   points="700.5,323.6 688.5,322.7 610.3,351.8 628.1,352.7 "
   id="polygon43"
   transform="matrix(0.40197853,0,0,0.32980264,-1.942601,-8.7417047)" /><polygon
   class="st4"
   points="750,299.4 750,297.1 740.4,301 746.7,301 "
   id="polygon47"
   transform="matrix(0.40197853,0,0,0.32980264,-1.942601,-8.7417047)" /><g
   id="g207"
   transform="matrix(1.2926764,0,0,1.1314412,-108.52426,-59.07427)">
		<polygon
   points="424,371.2 476.4,362.7 476.4,343.6 424,348.5 "
   id="polygon53"
   transform="matrix(0.40197853,0,0,0.32980264,48.703014,27.265858)" /><polygon
   class="st13"
   points="513.1,343.3 356.5,368.9 356.5,317.6 520.6,325.8 "
   id="polygon55"
   transform="matrix(0.40197853,0,0,0.32980264,48.703014,27.265858)" /><polygon
   points="356.5,349.2 356.5,316.6 547.9,317.2 544.9,329.6 391.3,349.2 "
   id="polygon57"
   transform="matrix(0.40197853,0,0,0.32980264,48.703014,27.265858)" /><g
   id="g69"
   transform="matrix(0.40197853,0,0,0.32980264,48.703014,27.265858)">
					<path
   d="m 502.8,357.4 c 0,-3.9 -0.4,-7.6 -1,-10.8 V 335 h -25.2 c -4.3,0 -7.7,10 -7.7,22.4 0,12.4 3.5,22.4 7.7,22.4 h 25.2 v -11.5 c 0.6,-3.3 1,-7 1,-10.9 z"
   id="path59" />
					<ellipse
   class="st13"
   cx="501.79999"
   cy="357.39999"
   rx="7.6999998"
   ry="22.4"
   id="ellipse61" />
					<path
   class="st5"
   d="m 506.7,357.4 c 0,7.8 -2.2,14.1 -4.9,14.1 -2.7,0 -4.9,-6.3 -4.9,-14.1 0,-7.8 2.2,-14.1 4.9,-14.1 2.7,0 4.9,6.3 4.9,14.1 z"
   id="path63" />
					<path
   class="st14"
   d="m 505.7,357.4 c 0,3.8 -1.2,6.9 -2.8,6.9 -1.5,0 -2.8,-3.1 -2.8,-6.9 0,-3.8 1.2,-6.9 2.8,-6.9 1.6,0 2.8,3.1 2.8,6.9 z"
   id="path65" />
					<path
   class="st5"
   d="m 508.5,357.4 c 0,3.8 -1.2,6.9 -2.8,6.9 -1.5,0 -2.8,-3.1 -2.8,-6.9 0,-3.8 1.2,-6.9 2.8,-6.9 1.5,0 2.8,3.1 2.8,6.9 z"
   id="path67" />
				</g><path
   class="st11"
   d="m 228.70901,142.26804 c -0.1608,0 -0.32159,0.033 -0.52258,0.033 l -17.40567,0.89046 v 9.8611 l 18.16943,-3.23206 c 2.57267,-0.066 4.54236,-1.81392 4.46196,-3.89167 -0.0402,-2.11074 -2.17068,-3.72677 -4.70314,-3.66081 z"
   id="path71"
   style="fill:#808080;stroke-width:0.364107" /><path
   class="st14"
   d="m 216.85064,148.13852 c 0,2.70438 -2.69326,4.91406 -6.02968,4.91406 -3.33642,0 -6.02968,-2.20968 -6.02968,-4.91406 0,-2.70438 2.69326,-4.91406 6.02968,-4.91406 3.33642,-0.033 6.02968,2.1767 6.02968,4.91406 z"
   id="path73"
   style="stroke-width:0.364107" /><g
   id="g77"
   transform="matrix(0.40197853,0,0,0.32980264,48.703014,27.265858)">
					<polygon
   class="st5"
   points="388.1,366.2 485.9,349.2 484,356 386.8,375.5 "
   id="polygon75" />
				</g><g
   id="g81"
   transform="matrix(0.40197853,0,0,0.32980264,48.703014,27.265858)">
					<path
   class="st5"
   d="m 397.6,368.3 c -0.3,0 -0.5,-0.2 -0.5,-0.5 V 335 c 0,-0.3 0.2,-0.5 0.5,-0.5 0.3,0 0.5,0.2 0.5,0.5 v 32.8 c 0,0.3 -0.2,0.5 -0.5,0.5 z"
   id="path79" />
				</g><g
   id="g85"
   transform="matrix(0.40197853,0,0,0.32980264,48.703014,27.265858)">
					<path
   class="st5"
   d="m 440,360.9 c -0.3,0 -0.5,-0.2 -0.5,-0.5 v -28.3 c 0,-0.3 0.2,-0.5 0.5,-0.5 0.3,0 0.5,0.2 0.5,0.5 v 28.3 c 0,0.3 -0.2,0.5 -0.5,0.5 z"
   id="path83" />
				</g><g
   id="g89"
   transform="matrix(0.40197853,0,0,0.32980264,48.703014,27.265858)">
					<path
   class="st5"
   d="m 478.7,354.2 c -0.3,0 -0.5,-0.2 -0.5,-0.5 v -24.6 c 0,-0.3 0.2,-0.5 0.5,-0.5 0.3,0 0.5,0.2 0.5,0.5 v 24.6 c 0,0.2 -0.2,0.5 -0.5,0.5 z"
   id="path87" />
				</g><polygon
   class="st5"
   points="391.3,335.9 554.3,323.1 554.3,194.3 391.3,132.5 "
   id="polygon93"
   transform="matrix(0.40197853,0,0,0.32980264,48.703014,27.265858)" /><polygon
   class="st14"
   points="238,147.2 238,335.9 391.3,335.9 391.3,132.5 "
   id="polygon97"
   transform="matrix(0.40197853,0,0,0.32980264,48.703014,27.265858)" /><g
   id="g101"
   transform="matrix(0.40197853,0,0,0.32980264,48.703014,27.265858)">
					<path
   class="st14"
   d="m 397.6,141.7 150.3,56.9 V 317.2 L 397.6,329 V 141.7 m -6.3,-9.2 v 203.4 l 163,-12.8 V 194.3 Z"
   id="path99" />
				</g><g
   id="g105"
   transform="matrix(0.40197853,0,0,0.32980264,48.703014,27.265858)">
					<path
   class="st5"
   d="M 238,147.2 V 336 H 391.3 V 132.5 Z M 384.9,329.6 H 244.3 V 153 l 140.6,-13.4 z"
   id="path103" />
				</g><rect
   x="144.3739"
   y="101.47145"
   class="st11"
   width="61.62331"
   height="36.575111"
   id="rect107"
   style="stroke-width:0.364107" /><polygon
   class="st14"
   points="244.3,329.6 384.9,329.6 384.9,225 391.3,225 391.3,335.9 238,335.9 238,225 244.3,225 "
   id="polygon109"
   transform="matrix(0.40197853,0,0,0.32980264,48.703014,27.265858)" /><polygon
   class="st11"
   points="554.3,256.4 554.3,323.1 391.3,335.9 391.3,225 397.6,252.5 397.6,329.1 547.9,317.2 547.9,257.6 "
   id="polygon111"
   transform="matrix(0.40197853,0,0,0.32980264,48.703014,27.265858)" />
		<g
   id="g205">
			<g
   id="g119"
   transform="matrix(0.40197853,0,0,0.32980264,48.703014,27.265858)">
				<path
   d="m 196.7,280.3 c -0.3,0 -0.6,-0.1 -0.9,-0.3 l -8.7,-6.4 c -0.4,-0.3 -0.6,-0.7 -0.6,-1.2 v -57.5 c 0,-0.5 0.2,-0.9 0.6,-1.2 0.4,-0.3 0.9,-0.4 1.3,-0.2 l 12.9,4.4 c 0.8,0.3 1.2,1.1 0.9,1.9 -0.3,0.8 -1.1,1.2 -1.9,0.9 l -10.9,-3.8 v 54.7 l 8.1,6 c 0.7,0.5 0.8,1.4 0.3,2.1 -0.2,0.3 -0.7,0.6 -1.1,0.6 z"
   id="path117" />
			</g>
			<path
   class="st13"
   d="m 125.19953,115.94979 h -3.05503 c -1.16574,0 -2.09029,-0.75855 -2.09029,-1.71498 v -12.2027 c 0,-0.95642 0.92455,-1.71497 2.09029,-1.71497 h 3.05503 c 1.16574,0 2.09029,0.75855 2.09029,1.71497 v 12.2027 c 0,0.92345 -0.92455,1.71498 -2.09029,1.71498 z"
   id="path121"
   style="stroke-width:0.364107" />
			<path
   class="st15"
   d="m 196.43013,94.578572 -6.15027,-2.539476 -46.38833,1.253246 c -2.17068,0 -4.22077,0.95643 -5.26591,2.53948 z"
   id="path123"
   style="fill:#ff6600;fill-opacity:1;stroke-width:0.364107" />
			<path
   d="m 196.34973,138.04656 1.44713,1.48411 h 2.69325 c 0,0 3.05504,8.64083 1.00495,17.67743 h -16.36053 v -19.16154 z"
   id="path125"
   style="stroke-width:0.364107" />
			<g
   id="g137"
   transform="matrix(0.40197853,0,0,0.32980264,48.703014,27.265858)">
				<path
   d="m 358.3,379.2 c 0,-5.1 -0.7,-9.9 -1.8,-14.1 v -15 h -12.6 c -7.9,0 -14.4,13 -14.4,29 0,16 6.4,29 14.4,29 h 12.6 v -15 c 1.2,-4 1.8,-8.8 1.8,-13.9 z"
   id="path127" />
				<ellipse
   class="st13"
   cx="356.5"
   cy="379.20001"
   rx="14.4"
   ry="29"
   id="ellipse129" />
				<path
   class="st5"
   d="m 365.6,379.2 c 0,10.1 -4.1,18.3 -9.1,18.3 -5,0 -9.1,-8.2 -9.1,-18.3 0,-10.1 4.1,-18.3 9.1,-18.3 5,0 9.1,8.2 9.1,18.3 z"
   id="path131" />
				<path
   class="st14"
   d="m 361.6,379.2 c 0,5.7 -2.3,10.3 -5.1,10.3 -2.8,0 -5.1,-4.6 -5.1,-10.3 0,-5.7 2.3,-10.3 5.1,-10.3 2.8,0 5.1,4.6 5.1,10.3 z"
   id="path133" />
				<path
   class="st5"
   d="m 366.8,379.2 c 0,5.7 -2.3,10.3 -5.1,10.3 -2.8,0 -5.1,-4.6 -5.1,-10.3 0,-5.7 2.3,-10.3 5.1,-10.3 2.8,0 5.1,4.6 5.1,10.3 z"
   id="path135" />
			</g>
			<g
   id="g143"
   transform="matrix(0.40197853,0,0,0.32980264,48.703014,27.265858)">
				<path
   class="st16"
   d="m 233.9,365 c 0,-5.1 -0.7,-9.9 -1.8,-14.1 v -15 h -12.6 c -7.9,0 -14.4,13 -14.4,29 0,16 6.4,29 14.4,29 h 12.6 v -15 c 1.1,-4 1.8,-8.8 1.8,-13.9 z"
   id="path139" />
				<ellipse
   cx="232.10001"
   cy="365"
   rx="14.4"
   ry="29"
   id="ellipse141" />
			</g>
			<polygon
   class="st13"
   points="173.6,346.7 173.6,379.2 311.7,389.7 311.7,352 305.3,350.3 305.3,310.1 183,310.1 183.8,344.7 "
   id="polygon145"
   transform="matrix(0.40197853,0,0,0.32980264,48.703014,27.265858)" />
			<polygon
   class="st16"
   points="305.3,350.3 305.3,310.1 183,310.1 183.8,344.7 "
   id="polygon147"
   transform="matrix(0.40197853,0,0,0.32980264,48.703014,27.265858)" />
			<polygon
   class="st13"
   points="277,339 277,310.1 188,308.7 188,334.4 "
   id="polygon149"
   transform="matrix(0.40197853,0,0,0.32980264,48.703014,27.265858)" />
			<path
   class="st17"
   d="m 120.2552,117.73072 -2.61286,3.29803 v 13.78575 0 c 0,1.51709 1.48732,2.77034 3.37662,2.77034 h 3.29622 c 1.76871,0 3.17563,-1.18729 3.17563,-2.60544 v -3.03419 c 0,-0.89046 0.88435,-1.58305 1.9697,-1.58305 l 23.83732,0.52769 c 1.36673,0.033 2.49227,0.95642 2.49227,2.11073 v 2.47352 c 0,1.97882 1.8893,3.59485 4.30117,3.66081 l 13.94865,0.46172 3.33643,-43.467978 4.30117,-2.93525 -48.47861,1.64902 c -2.25108,0.0989 -4.14038,1.38517 -4.70315,3.1661 v 0 z"
   id="path151"
   style="fill:#ff7f2a;stroke-width:0.364107" />
			<polygon
   class="st18"
   points="310.5,274.3 314.6,216.2 200.9,219.2 182.9,274.3 "
   id="polygon153"
   transform="matrix(0.40197853,0,0,0.32980264,48.703014,27.265858)" />
			<path
   class="st19"
   d="m 173.99973,139.53067 h 8.48174 l 3.09524,-3.46292 c 2.21088,-2.5065 5.6679,-4.08956 9.44649,-4.38638 l 4.94434,-0.36278 V 97.843622 c 0,-1.64901 -1.52752,-3.06716 -3.53741,-3.26505 l -14.79281,-1.45113 c -2.21088,-0.23086 -4.18058,1.12133 -4.30117,2.93525 z"
   id="path155"
   style="stroke-width:0.364107" />
			<path
   class="st18"
   d="m 179.26565,99.954362 -1.52752,19.491328 c -0.0804,1.22027 1.08534,2.24266 2.53246,2.24266 h 1.64811 l 5.78849,-4.88108 V 98.536212 l -5.5875,-0.56067 c -1.44712,-0.0989 -2.73345,0.79153 -2.85404,1.97882 z"
   id="path157"
   style="stroke-width:0.364107" />
			<path
   class="st16"
   d="m 173.99973,155.78994 12.26034,-1.41815 v -9.8611 l 3.33642,-1.74795 c 0,0 0.76376,-4.65022 6.79344,-4.6832 l 2.53247,-0.89046 v -5.70559 l -8.07977,0.52768 c -1.12554,0.066 -2.13049,0.52769 -2.77365,1.28623 l -5.54731,6.23327 h -11.05441 v 3.26505 l 2.57266,0.52768 v 12.46654 z"
   id="path159"
   style="stroke-width:0.364107" />
			<polygon
   points="305.3,340.4 305.3,350.3 311.7,352 311.7,365 333.2,363.9 332.7,340.4 "
   id="polygon161"
   transform="matrix(0.40197853,0,0,0.32980264,48.703014,27.265858)" />
			<polygon
   class="st20"
   points="198.5,265.4 311.2,265.4 310.5,274.3 182.9,274.3 "
   id="polygon163"
   transform="matrix(0.40197853,0,0,0.32980264,48.703014,27.265858)" />
			<polygon
   class="st14"
   points="214.2,373.9 214.2,379.2 173.6,379.2 173.6,357.6 182.9,360.9 185.3,368.9 "
   id="polygon165"
   transform="matrix(0.40197853,0,0,0.32980264,48.703014,27.265858)" />
			<polygon
   class="st14"
   points="294,370.5 296.9,365 311.7,360.9 311.7,389.7 255.3,380.9 255.3,376.4 "
   id="polygon167"
   transform="matrix(0.40197853,0,0,0.32980264,48.703014,27.265858)" />
			<polygon
   class="st21"
   points="210.7,225 238,225 233.9,265.4 198.5,265.4 "
   id="polygon169"
   transform="matrix(0.40197853,0,0,0.32980264,48.703014,27.265858)" />
			<ellipse
   class="st5"
   cx="125.36031"
   cy="147.347"
   id="circle171"
   style="fill:#ececec;stroke-width:0.364107"
   rx="1.7285078"
   ry="1.4181514" />
			<path
   class="st5"
   d="m 163.86987,147.64382 c 0,0.79153 -0.76376,1.41815 -1.72851,1.41815 -0.96475,0 -1.72851,-0.62662 -1.72851,-1.41815 0,-0.79153 0.76376,-1.41815 1.72851,-1.41815 0.92455,0 1.72851,0.62662 1.72851,1.41815 z"
   id="path173"
   style="fill:#ececec;fill-opacity:1;stroke-width:0.364107" />
			<polygon
   class="st22"
   points="244.1,218.1 279.7,217.1 221.7,274.3 193.9,274.3 "
   id="polygon175"
   transform="matrix(0.40197853,0,0,0.32980264,48.703014,27.265858)" />
			<path
   class="st22"
   d="m 185.97869,98.404292 -6.99443,23.020218 c -0.80396,-0.39576 -1.28633,-1.12133 -1.24613,-1.91286 l 0.80395,-10.28984 4.54236,-11.048388 z"
   id="path177"
   style="stroke-width:0.364107" />
			<polygon
   class="st11"
   points="173.6,379.2 173.6,368.4 185.3,368.9 214.2,373.9 214.2,379.2 "
   id="polygon179"
   style="fill:#4d4d4d"
   transform="matrix(0.40197853,0,0,0.32980264,48.703014,27.265858)" />
			<polygon
   class="st11"
   points="255.3,380.9 255.3,376.4 294,370.5 311.7,378 311.7,389.7 "
   id="polygon181"
   style="fill:#4d4d4d"
   transform="matrix(0.40197853,0,0,0.32980264,48.703014,27.265858)" />
			<path
   class="st20"
   d="m 187.74739,98.569192 v 18.271058 l -5.78849,4.88108 h -1.64811 c -0.36178,0 -0.72356,-0.066 -1.04514,-0.19788 l 6.99442,-5.1779 V 98.437272 Z"
   id="path183"
   style="stroke-width:0.364107" />
			<path
   class="st19"
   d="m 120.53658,121.68835 h 52.13662 c 0,0 -35.37411,6.39817 -52.13662,0 z"
   id="path185"
   style="stroke-width:0.364107" />
			<polygon
   class="st23"
   points="360.8,317 353.2,310.1 351.3,202.1 362.7,203.5 "
   id="polygon187"
   style="fill:#ff7f2a"
   transform="matrix(0.40197853,0,0,0.32980264,48.703014,27.265858)" />
			<path
   class="st24"
   d="m 190.27986,92.039096 c 0,0 3.658,1.681996 3.49721,4.320416 -0.16079,2.63842 0,35.453778 0,35.453778 l 6.19047,-0.42874 V 96.062692 c 0,0 0.28139,-3.23207 -3.6982,-3.42995 z"
   id="path189"
   style="fill:#ff6600;stroke-width:0.364107" />
			<g
   id="g193"
   transform="matrix(0.40197853,0,0,0.32980264,48.703014,27.265858)">
				<path
   class="st16"
   d="m 332.6,290.9 c -0.6,0 -1.1,-0.3 -1.4,-0.8 -0.5,-0.8 -0.2,-1.8 0.6,-2.2 l 10.1,-5.9 v -72.2 l -8.4,2.7 c -0.8,0.3 -1.8,-0.2 -2,-1 -0.3,-0.8 0.2,-1.8 1,-2 L 343,206 c 0.5,-0.2 1,-0.1 1.4,0.2 0.4,0.3 0.7,0.8 0.7,1.3 v 75.4 c 0,0.6 -0.3,1.1 -0.8,1.4 l -10.9,6.4 c -0.3,0.1 -0.6,0.2 -0.8,0.2 z"
   id="path191" />
			</g>
			<path
   class="st13"
   d="m 188.47095,116.37853 h -3.33642 c -1.24613,0 -2.29128,-0.82451 -2.29128,-1.87988 v -13.32402 c 0,-1.02239 1.00495,-1.879878 2.29128,-1.879878 h 3.33642 c 1.24614,0 2.29128,0.824508 2.29128,1.879878 v 13.32402 c -0.0402,1.05537 -1.04514,1.87988 -2.29128,1.87988 z"
   id="path195"
   style="stroke-width:0.364107" />
			<path
   class="st16"
   d="m 190.72203,109.18883 v 5.30982 c 0,1.02239 -1.00494,1.87988 -2.29127,1.87988 h -3.33643 c -1.24613,0 -2.29127,-0.82451 -2.29127,-1.87988 v -6.66201 z"
   id="path197"
   style="stroke-width:0.364107" />
			<polygon
   class="st16"
   points="353.2,310.1 343.9,315.9 343.9,306.7 353.2,301.3 "
   id="polygon199"
   transform="matrix(0.40197853,0,0,0.32980264,48.703014,27.265858)" />
			<polygon
   class="st19"
   points="302.2,331.6 277.8,331.6 295.6,323.8 305.3,297.6 "
   id="polygon201"
   style="fill:#ffeeaa"
   transform="matrix(0.40197853,0,0,0.32980264,48.703014,27.265858)" />
			<polygon
   class="st19"
   points="177.5,327.4 188,327.4 180.8,321.4 177.5,297.6 "
   id="polygon203"
   style="fill:#ffeeaa"
   transform="matrix(0.40197853,0,0,0.32980264,48.703014,27.265858)" />
		</g>
	</g>
</svg>
