<?xml version="1.0" encoding="UTF-8" standalone="no"?>
<!-- Generator: Adobe Illustrator 25.1.0, SVG Export Plug-In . SVG Version: 6.00 Build 0)  -->

<svg
   version="1.1"
   id="Layer_1"
   x="0px"
   y="0px"
   viewBox="0 0 300 150"
   enable-background="new 0 0 450 500"
   xml:space="preserve"
   sodipodi:docname="desinfectation.svg"
   width="300"
   height="150"
   inkscape:version="1.1 (c68e22c387, 2021-05-23)"
   xmlns:inkscape="http://www.inkscape.org/namespaces/inkscape"
   xmlns:sodipodi="http://sodipodi.sourceforge.net/DTD/sodipodi-0.dtd"
   xmlns="http://www.w3.org/2000/svg"
   xmlns:svg="http://www.w3.org/2000/svg"><defs
   id="defs1886">
	
	
	
	
	
	
	
	
		
	
	
	
	
	
		
	
	
	
	
	
	
	
	
	
	
	
	
	
	
	
	
	
	
	
</defs><sodipodi:namedview
   id="namedview1884"
   pagecolor="#505050"
   bordercolor="#eeeeee"
   borderopacity="1"
   inkscape:pageshadow="0"
   inkscape:pageopacity="0"
   inkscape:pagecheckerboard="0"
   showgrid="false"
   width="300px"
   inkscape:zoom="2.912"
   inkscape:cx="188.01511"
   inkscape:cy="67.479396"
   inkscape:window-width="1920"
   inkscape:window-height="1001"
   inkscape:window-x="-9"
   inkscape:window-y="-9"
   inkscape:window-maximized="1"
   inkscape:current-layer="Layer_1"
   height="150px" />



<path
   style="fill:#d5f6ff;stroke:none;stroke-width:1px;stroke-linecap:butt;stroke-linejoin:miter;stroke-opacity:1"
   d="M 0.68681319,0 -0.68681319,149.72527 H 300.13736 V 0.68681319 Z"
   id="path27662" /><path
   class="st989"
   d="m 250.38543,19.984467 h -5.6585 V 4.9169671 c -0.083,-0.0572 -0.17794,-0.11448 -0.26098,-0.186019 h -1.68449 v -0.0143 h -9.8223 v 0.0143 h -0.0119 v 2.260839 h 0.0119 v 1.55969 h -0.0119 v 2.2608499 h 0.0119 v 1.55969 h -0.0119 v 2.260841 h 0.0119 v 0.0143 l -1.04391,-0.0143 V 2.8135271 h -11.02043 v 1.50245 h -0.0119 v 2.26085 h 0.0119 v 1.988961 h -0.0119 v 2.2608489 h 0.0119 v 1.55969 h -0.0119 v 2.26084 h 0.0119 v 1.44522 h -0.0119 v 2.26084 h 0.0119 v 1.44523 h -0.0119 v 2.260839 h 0.0119 v 1.35936 h -0.0119 v 1.43092 h 0.0119 v 0.1574 h -12.42021 v 12.93544 h -4.63831 v 3.26248 h -5.00605 v -5.60917 h -9.00376 v -15.23922 h -1.41166 v -1.516769 h -0.20167 v 1.516769 h -1.16254 v 0 h -5.83643 v -1.516769 h -0.20167 v 1.516769 h -1.51842 v 7.66969 l -7.55652,-0.0429 v 4.73632 h -6.40585 V 3.4717771 H 145.00931 V 34.794446 125.0707 h 106.49121 z"
   id="path22301-5"
   style="fill:#93a7ac;stroke-width:0.130286" /><g
   id="g29375"
   transform="matrix(0.51990341,0,0,0.9405932,349.65321,90.770901)"><path
     d="m -117.28199,-96.111398 h -1.82169 c -3.07711,-1.99e-4 -6.11934,0.742382 -8.92473,2.178204 -2.8054,1.43602 -5.31018,3.53269 -7.34894,6.151189 -3.62361,-1.076109 -7.4279,-1.076109 -11.05155,0 -2.03876,-2.618499 -4.54359,-4.715169 -7.34895,-6.151189 -2.80538,-1.435822 -5.84758,-2.178403 -8.92468,-2.178204 h -1.8217 c -3.06649,6.3e-4 -6.09657,0.738596 -8.89438,2.165283 -2.79626,1.426714 -5.29653,3.50976 -7.33377,6.112414 -4.27795,-1.353955 -8.84424,-0.868836 -12.82768,1.362361 -4.19439,-4.443238 -9.71865,-6.909125 -15.45394,-6.898124 -8.72886,0 -19.52233,6.1738 -20.43315,20.107939 l -47.68248,0.68984 h -32.74471 c -3.35798,0 -6.57779,1.515345 -8.95207,4.21252 -2.37424,2.697293 -3.70863,6.355509 -3.70863,10.16995 v 98.918631 h 227.072502 v -112.09392 c -0.0052,-6.564941 -2.302947,-12.859262 -6.389582,-17.499806 -4.08813,-4.64053 -9.63058,-7.247088 -15.40987,-7.247088 z"
     fill="#77b590"
     id="path11-10"
     style="stroke-width:1.61801" /><path
     d="m -270.02451,-66.80236 h -38.28976 c -3.79129,0 -7.42658,1.369719 -10.10723,3.807681 -2.68061,2.43813 -4.18719,5.744811 -4.18719,9.192694 v 89.443606 h 38.28978 v -89.459222 c 0.006,-3.445226 1.51344,-6.747815 4.19231,-9.182558 2.68064,-2.43466 6.31423,-3.802201 10.10209,-3.802201 z"
     fill="#3c6448"
     id="path13-4"
     style="stroke-width:1.63454" /><path
     d="m -207.84861,-70.948972 0.19029,-3.705885 2.97889,0.126123 c 4.00893,0.170255 7.77964,1.781702 10.48252,4.480431 2.70293,2.698716 4.11693,6.263377 3.93012,9.910053 l -0.1385,2.709318 -4.10837,-0.174382 c -3.7107,-0.15732 -7.20031,-1.648567 -9.70097,-4.145618 -2.5007,-2.496991 -3.80839,-5.795296 -3.6353,-9.169144 z"
     fill="#548e6b"
     id="path15-72"
     style="stroke-width:1.63454" /><path
     d="m -160.03949,4.3020009 3.56334,-1.8705514 1.49115,2.3490424 c 2.00705,3.1612791 2.55037,6.9195421 1.51168,10.4455371 -1.03866,3.52595 -3.5753,6.531311 -7.05123,8.356689 l -2.58289,1.356104 -2.05675,-3.239145 c -1.85625,-2.925849 -2.36011,-6.401947 -1.39859,-9.664555 0.96152,-3.2625391 3.30789,-6.0434398 6.52329,-7.7331211 z"
     fill="#3c6448"
     id="path17-3"
     style="stroke-width:1.63454" /><path
     d="m -193.1617,-80.635676 2.6892,-2.831051 2.25556,1.77299 c 3.03886,2.386197 4.9088,5.772214 5.20187,9.412919 0.29345,3.640908 -1.01811,7.238081 -3.6404,10.00078 l -1.93854,2.040757 -3.1142,-2.445441 c -2.80749,-2.206129 -4.53859,-5.335951 -4.81112,-8.701649 -0.27272,-3.365926 0.93413,-6.692556 3.35763,-9.249305 z"
     fill="#77b590"
     id="path19-78"
     style="stroke-width:1.63454" /><path
     d="m -303.73585,-17.557965 0.57914,-3.703813 2.95141,0.382354 c 1.96759,0.254518 3.86156,0.859217 5.57207,1.779429 1.71058,0.920113 3.20508,2.137718 4.398,3.583136 1.19467,1.445487 2.06193,3.090524 2.55726,4.841174 0.49361,1.75084 0.60308,3.572916 0.32388,5.363208 l -0.41976,2.6842381 -4.07235,-0.5267036 c -3.67644,-0.475439 -6.99465,-2.2602759 -9.22449,-4.9618291 -2.22989,-2.7008944 -3.18968,-6.0968794 -2.66523,-9.4408454 z"
     fill="#77b590"
     id="path21-47"
     style="stroke-width:1.63454" /><path
     d="m -254.51447,15.392813 -0.68045,-3.68967 2.94287,-0.448933 c 3.95756,-0.603275 8.01787,0.249218 11.28645,2.367804 3.2685,2.119938 5.47605,5.332624 6.13934,8.933458 l 0.49362,2.674857 -4.05694,0.618855 c -3.66269,0.557921 -7.41972,-0.230947 -10.44311,-2.191639 -3.02514,-1.960993 -5.06814,-4.933601 -5.68178,-8.264732 z"
     fill="#3c6448"
     id="path23-09"
     style="stroke-width:1.63454" /><path
     d="m -139.65025,-81.228612 3.56328,-1.870551 1.49117,2.348958 c 2.00361,3.156722 2.54866,6.907492 1.51512,10.429432 -1.03182,3.521953 -3.55991,6.527446 -7.02546,8.357156 l -2.58295,1.356126 -2.05676,-3.239815 c -1.8545,-2.920522 -2.35841,-6.390385 -1.4037,-9.648748 0.95634,-3.258529 3.29247,-6.039274 6.4993,-7.732558 z"
     fill="#77b590"
     id="path25-22"
     style="stroke-width:1.63454" /><path
     d="m -296.72917,11.240197 4.0809,-0.473682 0.37899,2.690472 c 0.25392,1.792616 0.11647,3.613315 -0.401,5.357623 -0.51955,1.744223 -1.41231,3.379423 -2.62579,4.810423 -1.21351,1.430961 -2.7252,2.631263 -4.44943,3.530652 -1.72421,0.90099 -3.62499,1.482416 -5.59602,1.713135 l -2.95836,0.344659 -0.52277,-3.709939 c -0.2346,-1.658521 -0.10953,-3.343621 0.37051,-4.958527 0.48134,-1.613351 1.30606,-3.126937 2.42868,-4.450335 1.12262,-1.325013 2.52296,-2.434852 4.1169,-3.267266 1.59573,-0.833933 3.35422,-1.371715 5.1779,-1.586797 z"
     fill="#3c6448"
     id="path27-0"
     style="stroke-width:1.63454" /><path
     d="m -107.23079,0.08073235 3.56334,-1.87054815 1.49117,2.34911201 c 2.00697,3.16127909 2.550346,6.91792699 1.51168,10.44392179 -1.03868,3.527566 -3.5753,6.532926 -7.05123,8.358235 l -2.58295,1.356173 -2.05677,-3.239157 c -1.85619,-2.925833 -2.36008,-6.402004 -1.39857,-9.664543 0.96156,-3.2625388 3.30795,-6.0434521 6.52333,-7.73319365 z"
     fill="#77b590"
     id="path29-80"
     style="stroke-width:1.63454" /><path
     d="m -160.05661,-72.140371 3.56326,-1.870551 1.49116,2.348958 c 2.00707,3.161376 2.55037,6.918392 1.51171,10.444521 -1.03861,3.525998 -3.57532,6.532436 -7.0512,8.357635 l -2.58295,1.356149 -2.05675,-3.23997 c -1.85616,-2.925069 -2.3601,-6.401167 -1.39858,-9.663705 0.96152,-3.262539 3.30799,-6.044229 6.52335,-7.733037 z"
     fill="#548e6b"
     id="path31-4"
     style="stroke-width:1.63454" /><path
     d="m -109.3098,-51.935266 3.94895,-1.084912 0.86552,2.603801 c 1.16381,3.504446 0.74905,7.285969 -1.15179,10.512513 -1.90243,3.226532 -5.13498,5.6341 -8.98796,6.692639 l -2.84685,0.782084 -1.1929,-3.591464 c -1.0764,-3.23997 -0.6942,-6.735861 1.06087,-9.719851 1.75684,-2.98399 4.74257,-5.212161 8.30416,-6.19481 z"
     fill="#548e6b"
     id="path33-00"
     style="stroke-width:1.63454" /><path
     d="m -138.63902,-39.985868 3.74497,-1.547883 1.23403,2.469241 c 1.65915,3.318576 1.8014,7.09974 0.39776,10.514117 -1.40202,3.414247 -4.23865,6.182952 -7.88249,7.698551 l -2.7149,1.122222 -1.70195,-3.405835 c -0.76105,-1.522656 -1.18437,-3.166568 -1.24778,-4.838049 -0.0647,-1.671482 0.23834,-3.33765 0.88443,-4.903614 0.64584,-1.565856 1.62478,-3.000719 2.87945,-4.222619 1.25629,-1.221961 2.76459,-2.207135 4.43739,-2.899103 z"
     fill="#548e6b"
     id="path35-62"
     style="stroke-width:1.63454" /><path
     d="m -229.27129,9.0781255 3.56157,-1.8705482 1.49115,2.349112 c 2.00709,3.1612097 2.55037,6.9179267 1.5117,10.4438747 -1.03868,3.527613 -3.57532,6.532926 -7.05117,8.358282 l -2.50757,1.317164 -2.05671,-3.239144 c -1.85109,-2.913416 -2.35669,-6.373909 -1.41059,-9.627139 0.94612,-3.251648 3.26852,-6.030956 6.46162,-7.7316015 z"
     fill="#3c6448"
     id="path37-8"
     style="stroke-width:1.63454" /><path
     d="m -146.54207,-21.107943 h -0.87411 c -1.41577,-0.08484 -2.80062,-0.423602 -4.07067,-0.997141 -1.27177,-0.573238 -2.40639,-1.369717 -3.33882,-2.343356 -0.93235,-0.97346 -1.64363,-2.105147 -2.0927,-3.329585 -0.4489,-1.224426 -0.62704,-2.517609 -0.52471,-3.805036 v -0.794984 c 1.52537,0.0931 3.01485,0.458351 4.38429,1.075255 1.36943,0.616664 2.59317,1.472747 3.59927,2.51932 1.0044,1.046621 1.77398,2.263113 2.26416,3.580096 0.48842,1.316863 0.68732,2.708553 0.58432,4.095431 z"
     fill="#548e6b"
     id="path39-1"
     style="stroke-width:1.63454" /><path
     d="m -214.08561,-34.15039 3.74493,-1.547871 1.23405,2.46929 c 1.65739,3.316039 1.80139,7.094103 0.401,10.506733 -1.40027,3.412546 -4.23004,6.181277 -7.87043,7.699507 l -2.71492,1.122199 -1.70203,-3.405989 c -1.53395,-3.067514 -1.66762,-6.562649 -0.3718,-9.719694 1.29403,-3.157009 3.91123,-5.718868 7.2792,-7.124175 z"
     fill="#548e6b"
     id="path41-7"
     style="stroke-width:1.63454" /><path
     d="m -223.10449,-13.547806 h -0.87413 c -2.84685,-0.17614 -5.50179,-1.373415 -7.37859,-3.329105 -1.87679,-1.955499 -2.82286,-4.509306 -2.63095,-7.099202 v -0.794994 c 1.52544,0.0931 3.01492,0.458364 4.38435,1.075256 1.36944,0.616651 2.59317,1.472747 3.59927,2.519318 1.0044,1.046585 1.774,2.26304 2.26417,3.579916 0.48846,1.317044 0.68731,2.708747 0.58431,4.09559 z"
     fill="#548e6b"
     id="path43-1"
     style="stroke-width:1.63454" /><path
     d="m -302.52922,32.561387 0.20536,-0.779452 c 0.68045,-2.518973 2.43381,-4.688821 4.87274,-6.032504 2.43896,-1.34526 5.36641,-1.753651 8.13614,-1.137944 l 0.85702,0.186756 c -0.36017,1.353048 -1.00955,2.628152 -1.91105,3.752013 -0.9033,1.123921 -2.03967,2.074764 -3.34741,2.79964 -1.30771,0.723246 -2.75774,1.206464 -4.27117,1.420036 -1.51169,0.2121 -3.05597,0.152594 -4.54196,-0.177913 z"
     fill="#3c6448"
     id="path45-5"
     style="stroke-width:1.63454" /><path
     d="m -96.000747,36.004381 c 0,-6.98304 -2.294944,-13.678251 -6.379693,-18.615292 -4.08477,-4.93704 -9.62417,-7.7108583 -15.40169,-7.7108583 h -1.82017 c -3.07457,0 -6.11428,0.7883203 -8.91735,2.3154643 -2.80307,1.52713 -5.30578,3.756394 -7.34284,6.539365 -3.62062,-1.143971 -7.42174,-1.143971 -11.04239,0 -2.03709,-2.782971 -4.53983,-5.012235 -7.34287,-6.539365 -2.80305,-1.527144 -5.84273,-2.3154643 -8.91729,-2.3154643 h -1.82018 c -3.06395,0 -6.09152,0.7846483 -8.887,2.3026433 -2.79395,1.516138 -5.29215,3.730768 -7.3277,6.497174 -4.27441,-1.439076 -8.83692,-0.923989 -12.81705,1.448301 -2.54972,-2.87643 -5.61524,-5.003026 -8.95673,-6.21303 -3.34155,-1.208142 -6.86964,-1.468457 -10.30824,-0.758989 -3.43861,0.709537 -6.6952,2.370491 -9.51495,4.85278 -2.81973,2.480449 -5.12835,5.716215 -6.74373,9.452455 -4.83409,-3.798614 -10.70715,-5.158906 -16.36035,-3.787581 -5.65314,1.369436 -10.63736,5.362336 -13.88481,11.120724 h -50.44907 c -2.71358,-0.01266 -5.35741,1.032159 -7.54314,2.977268 -2.18421,1.943307 -3.79502,4.685941 -4.59135,7.820887 h 226.368593 z"
     fill="#3c6448"
     id="path47-6"
     style="stroke-width:1.66756" /><g
     fill="#548e6b"
     id="g57"
     transform="matrix(1.713956,0,0,1.5587944,-680.19943,-161.91384)"><path
       d="m 237.45,111.23 0.31,-0.73 c 1.02,-2.331 1.119,-4.962 0.276,-7.363 -0.842,-2.402 -2.563,-4.3942 -4.816,-5.577 l -0.68,-0.33 c -1.105,2.5218 -1.212,5.369 -0.301,7.967 0.911,2.598 2.773,4.754 5.211,6.033 z"
       id="path49-81" /><path
       d="M 239.52,111.47 H 240 c 1.485,-0.114 2.866,-0.803 3.85,-1.92 0.573,-0.648 1.011,-1.403 1.289,-2.222 0.278,-0.819 0.391,-1.685 0.331,-2.548 v -0.51 c -0.846,0.066 -1.67,0.305 -2.42,0.703 -0.75,0.397 -1.41,0.944 -1.94,1.607 -1.125,1.373 -1.693,3.118 -1.59,4.89 z"
       id="path51-8" /><path
       d="m 237.424,70.0211 1.002,-2.181 1.581,0.7263 c 2.128,0.9775 3.78,2.7603 4.594,4.9563 0.814,2.196 0.722,4.6252 -0.256,6.7533 l -0.726,1.5812 -2.181,-1.0017 c -1.969,-0.9044 -3.498,-2.554 -4.251,-4.5859 -0.753,-2.0318 -0.668,-4.2795 0.237,-6.2485 z"
       id="path53-61" /><path
       d="m 242.1,83.47 -0.41,0.31 c -1.329,1.0015 -3.001,1.4345 -4.65,1.2038 -1.648,-0.2306 -3.137,-1.106 -4.14,-2.4338 l -0.31,-0.41 c 0.712,-0.5371 1.522,-0.9288 2.385,-1.1526 0.864,-0.2239 1.762,-0.2755 2.645,-0.152 0.884,0.1235 1.734,0.4197 2.502,0.8718 0.769,0.452 1.441,1.051 1.978,1.7628 z"
       id="path55-89" /></g><path
     d="m -194.20038,9.53505 h 0.58301 c 1.82537,-0.129546 3.52219,-0.901172 4.73054,-2.151157 0.70271,-0.724551 1.2409,-1.568919 1.58197,-2.484103 0.34073,-0.915197 0.48,-1.882864 0.40617,-2.846966 V 1.476055 c -1.04206,0.07431 -2.05499,0.342292 -2.97716,0.787337 -0.92379,0.444807 -1.7362,1.057833 -2.38748,1.800274 -1.37807,1.538047 -2.06876,3.491068 -1.93679,5.471384 z"
     fill="#3c6448"
     id="path85-1"
     style="stroke-width:1.63454" /></g><path
   class="st989"
   d="m 105.95876,25.635687 h -5.6585 v -15.0675 c -0.083,-0.0572 -0.17794,-0.11448 -0.26098,-0.18602 h -1.68449 v -0.0143 h -9.822303 v 0.0143 h -0.0119 v 2.26084 h 0.0119 v 1.55969 h -0.0119 v 2.26085 h 0.0119 v 1.55969 h -0.0119 v 2.26084 h 0.0119 v 0.0143 l -1.04391,-0.0143 V 8.4647465 h -11.02043 v 1.50245 h -0.0119 v 2.2608505 h 0.0119 v 1.98896 h -0.0119 v 2.26085 h 0.0119 v 1.55969 h -0.0119 v 2.26084 h 0.0119 v 1.44522 h -0.0119 v 2.26084 h 0.0119 v 1.44523 h -0.0119 v 2.26084 h 0.0119 v 1.35936 h -0.0119 v 1.43092 h 0.0119 v 0.1574 h -12.42021 v 12.93544 h -4.63831 v 3.26248 h -5.00605 v -5.60917 h -9.00376 v -15.23922 h -1.41166 v -1.51677 h -0.20167 v 1.51677 h -1.16254 v 0 h -5.83643 v -1.51677 h -0.20167 v 1.51677 h -1.51842 v 7.66969 l -7.55652,-0.0429 v 4.73632 h -6.40585 V 9.1229965 H 0.5826367 V 40.445667 130.72192 H 107.07385 Z"
   id="path22301"
   style="fill:#93a7ac;stroke-width:0.130286" /><path
   style="fill:#217844;stroke:none;stroke-width:1px;stroke-linecap:butt;stroke-linejoin:miter;stroke-opacity:1"
   d="M -0.68681319,149.72527 -4.4642857,125 299.45055,101.30495 l 0.68681,48.42032 z"
   id="path27234" /><g
   id="g366"
   transform="matrix(0.37332598,0,0,0.39300464,-93.713148,102.1751)">
	<g
   id="g302">
		<g
   id="g298">
			<polygon
   fill="#fed0a9"
   points="361.277,44.896 351.535,44.896 345.431,50.426 367.381,50.426 "
   id="polygon254" />
			<rect
   x="345.42999"
   y="50.429001"
   fill="#a93939"
   width="21.952"
   height="50.200001"
   id="rect256" />
			<path
   fill="#d3996a"
   d="m 368.039,50.662 c 0,0.52 -0.421,0.941 -0.941,0.941 h -21.384 c -0.52,0 -0.941,-0.421 -0.941,-0.941 v 0 c 0,-0.52 0.422,-0.941 0.941,-0.941 h 21.384 c 0.52,0 0.941,0.421 0.941,0.941 z"
   id="path258" />
			<rect
   x="345.431"
   y="64.310997"
   fill="#fed0a9"
   width="21.950001"
   height="22.122"
   id="rect260" />
			
				<circle
   transform="rotate(-22.631324,356.39821,75.372304)"
   fill="#ffffff"
   cx="356.40601"
   cy="75.372002"
   id="ellipse262"
   r="9.0019999" />
			<path
   fill="#d3996a"
   d="m 368.013,100.63 c 0,0.518 -0.423,0.941 -0.941,0.941 h -21.391 c -0.518,0 -0.941,-0.423 -0.941,-0.941 0,-0.432 0.294,-0.795 0.691,-0.907 0.078,-0.026 0.164,-0.035 0.25,-0.035 h 21.391 c 0.112,0 0.216,0.017 0.311,0.06 0.371,0.122 0.63,0.476 0.63,0.882 z"
   id="path264" />
			<g
   id="g292">
				<g
   id="g282">
					<g
   id="g272">
						<path
   fill="#3c3c3b"
   d="m 356.011,74.525 h -3.916 v -2.902 c 0,-0.174 0.141,-0.315 0.315,-0.315 0.174,0 0.315,0.141 0.315,0.315 v 2.273 h 3.287 c 0.174,0 0.315,0.141 0.315,0.315 -10e-4,0.173 -0.142,0.314 -0.316,0.314 z"
   id="path266" />
						<path
   fill="#3c3c3b"
   d="m 352.41,81.329 c -0.174,0 -0.315,-0.141 -0.315,-0.315 v -2.902 h 3.916 c 0.174,0 0.315,0.141 0.315,0.315 0,0.174 -0.141,0.315 -0.315,0.315 h -3.287 v 2.273 c 0,0.173 -0.14,0.314 -0.314,0.314 z"
   id="path268" />
						<path
   fill="#3c3c3b"
   d="m 355.731,76.702 h -4.965 c -0.174,0 -0.315,-0.141 -0.315,-0.315 0,-0.174 0.141,-0.315 0.315,-0.315 h 4.336 v -2.16 c 0,-0.174 0.141,-0.315 0.315,-0.315 0.174,0 0.315,0.141 0.315,0.315 v 2.79 z"
   id="path270" />
					</g>
					<g
   id="g280">
						<path
   fill="#3c3c3b"
   d="m 360.402,81.329 c -0.174,0 -0.315,-0.141 -0.315,-0.315 V 78.741 H 356.8 c -0.174,0 -0.315,-0.141 -0.315,-0.315 0,-0.174 0.141,-0.315 0.315,-0.315 h 3.916 v 2.902 c 10e-4,0.175 -0.14,0.316 -0.314,0.316 z"
   id="path274" />
						<path
   fill="#3c3c3b"
   d="m 360.717,74.525 h -3.916 c -0.174,0 -0.315,-0.141 -0.315,-0.315 0,-0.174 0.141,-0.315 0.315,-0.315 h 3.287 v -2.273 c 0,-0.174 0.141,-0.315 0.315,-0.315 0.174,0 0.315,0.141 0.315,0.315 v 2.903 z"
   id="path276" />
						<path
   fill="#3c3c3b"
   d="m 357.395,79.039 c -0.174,0 -0.315,-0.141 -0.315,-0.315 v -2.789 h 4.965 c 0.174,0 0.315,0.141 0.315,0.315 0,0.174 -0.141,0.315 -0.315,0.315 h -4.336 v 2.16 c 10e-4,0.173 -0.14,0.314 -0.314,0.314 z"
   id="path278" />
					</g>
				</g>
				<path
   fill="#3c3c3b"
   d="m 357.043,72.406 c -0.116,0 -0.21,-0.094 -0.21,-0.21 v -2.571 c 0,-0.116 0.094,-0.21 0.21,-0.21 0.116,0 0.21,0.094 0.21,0.21 v 2.571 c 0,0.116 -0.094,0.21 -0.21,0.21 z"
   id="path284" />
				<path
   fill="#3c3c3b"
   d="m 355.802,72.406 c -0.116,0 -0.21,-0.094 -0.21,-0.21 v -2.571 c 0,-0.116 0.094,-0.21 0.21,-0.21 0.116,0 0.21,0.094 0.21,0.21 v 2.571 c -10e-4,0.116 -0.095,0.21 -0.21,0.21 z"
   id="path286" />
				<path
   fill="#3c3c3b"
   d="m 356.714,74.677 h -0.616 c -0.577,0 -1.044,-0.467 -1.044,-1.044 v -1.678 c 0,-0.577 0.467,-1.044 1.044,-1.044 h 0.616 c 0.576,0 1.044,0.468 1.044,1.044 v 1.678 c 0,0.577 -0.467,1.044 -1.044,1.044 z"
   id="path288" />
				<path
   fill="#3c3c3b"
   d="m 357.002,79.815 h -1.191 c -1.115,0 -2.019,-0.904 -2.019,-2.019 v -3.245 c 0,-1.115 0.904,-2.019 2.019,-2.019 h 1.191 c 1.115,0 2.019,0.904 2.019,2.019 v 3.245 c 0,1.115 -0.904,2.019 -2.019,2.019 z"
   id="path290" />
			</g>
			<rect
   x="353.10199"
   y="35.365002"
   fill="#669898"
   width="6.6090002"
   height="9.5310001"
   id="rect294" />
			<path
   fill="#407e7e"
   d="m 358.383,40.13 c 0,1.092 -0.885,1.977 -1.977,1.977 -1.092,0 -1.977,-0.885 -1.977,-1.977 0,-1.092 0.885,-1.977 1.977,-1.977 1.092,0 1.977,0.886 1.977,1.977 z"
   id="path296" />
		</g>
		<path
   opacity="0.1"
   fill="#1d1d1b"
   d="m 368.013,100.63 c 0,0.518 -0.423,0.941 -0.941,0.941 h -21.391 c -0.518,0 -0.941,-0.423 -0.941,-0.941 0,-0.432 0.294,-0.795 0.691,-0.907 v -9.43 c 5.959,4.033 16.304,4.016 21.952,-0.035 v 9.491 c 0.371,0.121 0.63,0.475 0.63,0.881 z"
   id="path300" />
	</g>
	<g
   id="g364">
		<g
   id="g360">
			<g
   id="g326">
				<g
   id="g324">
					<path
   fill="#d3996a"
   d="m 418.572,47.955 0.013,-0.031 c 0.237,-0.563 0.152,-1.217 -0.219,-1.702 -6.509,-8.515 -11.772,-14.14 -10.427,-23.046 h -7.576 c 0.313,9.58 7.204,17.992 15.494,25.385 0.876,0.78 2.26,0.474 2.715,-0.606 z"
   id="path304" />
					<rect
   x="407.39099"
   y="20.046"
   fill="#d3996a"
   width="5.5440001"
   height="4.1719999"
   id="rect306" />
					<g
   id="g314">
						<path
   fill="#407e7e"
   d="m 410.225,85.301 c 0.009,3.808 -0.285,7.591 -0.941,11.296 -0.518,2.884 -3.048,4.974 -5.967,4.974 h -24.932 c -2.936,0 -5.449,-2.09 -5.967,-4.974 -0.32,-1.753 -0.544,-3.523 -0.699,-5.302 -0.181,-2.09 -0.259,-4.197 -0.242,-6.322 0.078,-15.674 5.13,-31.979 10.337,-46.979 0.432,-1.269 1.632,-2.107 2.962,-2.107 h 12.151 c 1.33,0 2.513,0.838 2.962,2.107 2.159,6.244 4.292,12.712 6.062,19.258 2.504,9.309 4.266,18.783 4.274,28.049 z"
   id="path308" />
						<path
   fill="#669898"
   d="m 403.312,90.34 c 1.15,-14.38 -3.056,-30.058 -7.821,-44.412 -0.66,-1.988 -2.513,-3.332 -4.608,-3.332 h -0.07 c -2.095,0 -3.949,1.344 -4.609,3.332 -4.764,14.353 -8.971,30.032 -7.821,44.412 0.203,2.545 2.291,4.525 4.844,4.525 h 15.241 c 2.552,0 4.64,-1.98 4.844,-4.525 z"
   id="path310" />
						<rect
   x="384.87399"
   y="34.210999"
   fill="#d3996a"
   width="11.945"
   height="1.6720001"
   id="rect312" />
					</g>
					<rect
   x="383.48401"
   y="30.313"
   fill="#237f9e"
   width="14.73"
   height="2.187"
   id="rect316" />
					<path
   fill="#fed0a9"
   d="m 386.409,19.196 h 5.446 3.421 13.926 v 5.943 l -7.405,1.586 c -2.09,0.447 -3.583,2.294 -3.583,4.431 v 3.058 h -14.73 V 22.002 c 0,0 0,-0.013 0,-0.026 0,-1.568 1.371,-2.78 2.925,-2.78 z"
   id="path318" />
					<path
   fill="#fed0a9"
   d="m 410.026,25.791 h 3.795 c 1.118,0 2.024,-0.906 2.024,-2.024 V 20.43 c 0,-1.118 -0.906,-2.024 -2.024,-2.024 h -3.795 z"
   id="path320" />
					<path
   fill="#d3996a"
   d="m 402.407,23.201 c 0,0.827 0.67,1.497 1.497,1.497 0.827,0 1.497,-0.67 1.497,-1.497 0,-0.826 -0.67,-1.497 -1.497,-1.497 -0.827,10e-4 -1.497,0.671 -1.497,1.497 z"
   id="path322" />
				</g>
			</g>
			<g
   id="g358">
				<circle
   fill="#ffffff"
   cx="390.84698"
   cy="75.150002"
   r="9.4770002"
   id="circle328" />
				<g
   id="g356">
					<path
   fill="#3c3c3b"
   d="m 392.394,70.919 c 0,0.855 -0.693,1.548 -1.547,1.548 -0.855,0 -1.547,-0.693 -1.547,-1.548 0,-0.855 0.693,-1.547 1.547,-1.547 0.854,0 1.547,0.693 1.547,1.547 z"
   id="path330" />
					<ellipse
   fill="#3c3c3b"
   cx="390.84698"
   cy="75.038002"
   rx="1.5470001"
   ry="3.618"
   id="ellipse332" />
					<rect
   x="390.62799"
   y="68.263"
   fill="#3c3c3b"
   width="0.43799999"
   height="2.161"
   id="rect334" />
					<g
   id="g340">
						<path
   fill="#3c3c3b"
   d="m 390.846,72.96 c -0.069,-0.121 -0.155,-0.225 -0.276,-0.311 -0.173,-0.121 -0.371,-0.181 -0.605,-0.181 -0.069,0 -0.138,0.009 -0.216,0.017 -0.026,0.069 -0.061,0.155 -0.086,0.233 0,0.009 -0.009,0.026 -0.009,0.035 -0.017,0.043 -0.035,0.086 -0.052,0.138 -0.009,0.026 -0.017,0.061 -0.026,0.095 -0.026,0.069 -0.043,0.138 -0.061,0.216 -0.017,0.017 -0.017,0.043 -0.026,0.069 0.181,-0.069 0.337,-0.104 0.475,-0.104 0.086,0 0.155,0.017 0.199,0.052 0.052,0.035 0.095,0.095 0.121,0.19 v 0.009 c 0.095,0.276 0.086,0.812 -0.13,1.589 v 0.009 c 0,0.009 0.009,0.009 0,0.017 -0.026,0.095 -0.06,0.199 -0.095,0.302 -0.009,0.035 -0.017,0.061 -0.035,0.095 -0.138,0.44 -0.319,0.907 -0.535,1.365 -0.069,0.155 -0.147,0.32 -0.224,0.475 l 0.276,-0.276 c 0.009,0.026 0.017,0.043 0.017,0.069 0.017,0.035 0.026,0.069 0.034,0.104 0.009,0.035 0.017,0.061 0.026,0.086 0.017,0.035 0.026,0.06 0.035,0.086 0.017,0.052 0.034,0.104 0.052,0.147 0.026,0.06 0.052,0.112 0.069,0.164 0.017,0.026 0.026,0.052 0.035,0.069 l 0.017,-0.017 c 0.181,-0.345 0.354,-0.708 0.501,-1.071 0.155,-0.371 0.285,-0.734 0.397,-1.088 0.043,-0.13 0.078,-0.268 0.121,-0.406 0,-0.009 0,-0.017 0,-0.017 -0.206,-0.778 -0.301,-1.633 10e-4,-2.16 z m 0,0 c -0.069,-0.121 -0.155,-0.225 -0.276,-0.311 -0.173,-0.121 -0.371,-0.181 -0.605,-0.181 -0.069,0 -0.138,0.009 -0.216,0.017 -0.13,0.017 -0.268,0.052 -0.406,0.104 -0.268,0.086 -0.553,0.233 -0.846,0.414 -1.278,0.777 -2.703,2.263 -3.498,3.394 -1.295,1.848 -1.269,3.152 0.086,4.093 0.466,0.328 0.907,0.484 1.347,0.484 0.458,0 0.907,-0.173 1.356,-0.527 0.242,-0.173 0.475,-0.406 0.708,-0.691 0.155,-0.181 0.311,-0.38 0.458,-0.596 0.302,-0.432 0.596,-0.915 0.855,-1.434 v -0.009 l 0.017,-0.017 c 0.181,-0.345 0.354,-0.708 0.501,-1.071 0.155,-0.371 0.285,-0.734 0.397,-1.088 0.043,-0.13 0.078,-0.268 0.121,-0.406 0,-0.009 0,-0.017 0,-0.017 0.209,-0.776 0.304,-1.631 10e-4,-2.158 z m -0.691,2.047 v 0.009 c 0,0.009 0.009,0.009 0,0.017 -0.026,0.095 -0.06,0.199 -0.095,0.302 -0.009,0.035 -0.017,0.061 -0.035,0.095 -0.138,0.44 -0.319,0.907 -0.535,1.365 -0.069,0.155 -0.147,0.32 -0.224,0.475 -0.268,0.535 -0.57,1.045 -0.881,1.494 -0.199,0.285 -0.397,0.527 -0.587,0.734 -0.484,0.518 -0.933,0.777 -1.365,0.777 -0.294,0 -0.596,-0.112 -0.95,-0.363 -0.682,-0.475 -1.287,-1.149 0.086,-3.118 1.045,-1.503 2.694,-2.979 3.774,-3.454 0.052,-0.026 0.104,-0.052 0.147,-0.069 0.181,-0.069 0.337,-0.104 0.475,-0.104 0.086,0 0.155,0.017 0.199,0.052 0.052,0.035 0.095,0.095 0.121,0.19 v 0.009 c 0.095,0.277 0.086,0.812 -0.13,1.589 z m -0.034,-2.107 -0.458,-0.181 c 0,0.009 -0.009,0.026 -0.009,0.035 -0.017,0.043 -0.035,0.086 -0.052,0.138 -0.009,0.026 -0.017,0.061 -0.026,0.095 -0.026,0.069 -0.043,0.138 -0.061,0.216 -0.017,0.017 -0.017,0.043 -0.026,0.069 0.181,-0.069 0.337,-0.104 0.475,-0.104 0.086,0 0.155,0.017 0.199,0.052 0.052,0.035 0.095,0.095 0.121,0.19 0.017,-0.017 0.026,-0.035 0.035,-0.052 0.07,-0.182 -0.017,-0.389 -0.198,-0.458 z m 0.112,3.679 c -0.043,-0.017 -0.078,-0.017 -0.121,-0.017 -0.086,0 -0.164,0.026 -0.233,0.095 l -0.337,0.337 c 0.009,0.026 0.017,0.043 0.017,0.069 0.017,0.035 0.026,0.069 0.034,0.104 0.009,0.035 0.017,0.061 0.026,0.086 0.017,0.035 0.026,0.06 0.035,0.086 0.017,0.052 0.034,0.104 0.052,0.147 0.026,0.06 0.052,0.112 0.069,0.164 0.017,0.026 0.026,0.052 0.035,0.069 l 0.017,-0.017 c 0.181,-0.345 0.354,-0.708 0.501,-1.071 -0.026,-0.026 -0.06,-0.043 -0.095,-0.052 z m 0.613,-3.619 c -0.069,-0.121 -0.155,-0.225 -0.276,-0.311 -0.173,-0.121 -0.371,-0.181 -0.605,-0.181 -0.069,0 -0.138,0.009 -0.216,0.017 -0.026,0.069 -0.061,0.155 -0.086,0.233 l 0.458,0.181 c 0.181,0.069 0.268,0.276 0.199,0.458 -0.009,0.017 -0.017,0.035 -0.035,0.052 v 0.009 c 0.095,0.276 0.086,0.812 -0.13,1.589 v 0.009 c 0,0.009 0.009,0.009 0,0.017 -0.026,0.095 -0.06,0.199 -0.095,0.302 -0.009,0.035 -0.017,0.061 -0.035,0.095 -0.138,0.44 -0.319,0.907 -0.535,1.365 0.017,0.069 0.035,0.13 0.052,0.199 l 0.337,-0.337 c 0.069,-0.069 0.147,-0.095 0.233,-0.095 0.043,0 0.078,0 0.121,0.017 0.035,0.009 0.069,0.026 0.095,0.052 0.155,-0.371 0.285,-0.734 0.397,-1.088 0.043,-0.13 0.078,-0.268 0.121,-0.406 0,-0.009 0,-0.017 0,-0.017 -0.207,-0.778 -0.302,-1.633 0,-2.16 z m 0,0 c -0.302,0.527 -0.207,1.382 0,2.159 0.208,-0.777 0.303,-1.632 0,-2.159 z"
   id="path336" />
						<path
   fill="#3c3c3b"
   d="m 391.632,75.335 c -0.035,-0.112 -0.069,-0.216 -0.095,-0.319 -0.017,0.043 -0.026,0.078 -0.026,0.121 0,0.035 0.009,0.069 0.017,0.104 0.009,0.026 0.017,0.043 0.026,0.06 0.017,0.043 0.052,0.078 0.086,0.112 0,0 0,0 0.009,0.009 0.009,0 0.009,0.009 0.017,0.009 -0.017,-0.035 -0.025,-0.061 -0.034,-0.096 z m -0.786,-0.216 c 0.207,-0.777 0.302,-1.632 0,-2.159 -0.302,0.527 -0.207,1.382 0,2.159 z m 5.847,1.278 c -0.794,-1.131 -2.219,-2.617 -3.497,-3.394 -0.294,-0.181 -0.579,-0.328 -0.846,-0.414 -0.138,-0.052 -0.276,-0.086 -0.406,-0.104 -0.078,-0.009 -0.147,-0.017 -0.216,-0.017 -0.233,0 -0.432,0.06 -0.596,0.181 -0.121,0.086 -0.216,0.19 -0.285,0.311 -0.302,0.527 -0.207,1.382 0,2.159 0,0 0,0.009 0,0.017 0.043,0.138 0.078,0.276 0.121,0.406 0.112,0.354 0.242,0.717 0.397,1.088 0.155,0.363 0.319,0.725 0.509,1.079 l 0.009,0.009 v 0.009 c 0.268,0.518 0.553,1.002 0.855,1.434 0.155,0.216 0.302,0.414 0.458,0.596 0.233,0.285 0.475,0.518 0.708,0.691 0.449,0.354 0.898,0.527 1.356,0.527 0.44,0 0.881,-0.155 1.347,-0.484 1.355,-0.941 1.381,-2.245 0.086,-4.094 z m -0.484,3.515 c -0.354,0.25 -0.656,0.363 -0.95,0.363 -0.432,0 -0.881,-0.259 -1.365,-0.777 -0.19,-0.207 -0.389,-0.449 -0.587,-0.734 -0.311,-0.449 -0.604,-0.959 -0.881,-1.494 -0.078,-0.155 -0.155,-0.319 -0.225,-0.475 -0.216,-0.458 -0.397,-0.924 -0.535,-1.365 -0.017,-0.035 -0.026,-0.061 -0.035,-0.095 -0.035,-0.112 -0.069,-0.216 -0.095,-0.319 v -0.009 c -0.216,-0.786 -0.225,-1.321 -0.13,-1.598 0.026,-0.095 0.069,-0.156 0.121,-0.19 0.052,-0.035 0.112,-0.052 0.199,-0.052 0.138,0 0.294,0.035 0.475,0.104 0.043,0.017 0.095,0.043 0.147,0.069 1.079,0.475 2.729,1.952 3.774,3.454 1.374,1.97 0.769,2.643 0.087,3.118 z m -4.577,-4.577 c -0.035,-0.112 -0.069,-0.216 -0.095,-0.319 -0.017,0.043 -0.026,0.078 -0.026,0.121 0,0.035 0.009,0.069 0.017,0.104 0.009,0.026 0.017,0.043 0.026,0.06 0.017,0.043 0.052,0.078 0.086,0.112 0,0 0,0 0.009,0.009 0.009,0 0.009,0.009 0.017,0.009 -0.017,-0.035 -0.025,-0.061 -0.034,-0.096 z"
   id="path338" />
					</g>
					<g
   id="g354">
						<path
   fill="#3c3c3b"
   d="m 389.992,73.576 c -0.043,0 -0.088,-0.008 -0.13,-0.025 l -2.728,-1.094 -1.173,-2.701 c -0.077,-0.178 0.004,-0.384 0.182,-0.461 0.178,-0.077 0.384,0.004 0.461,0.182 l 1.059,2.437 2.46,0.987 c 0.18,0.072 0.267,0.276 0.195,0.455 -0.056,0.136 -0.187,0.22 -0.326,0.22 z"
   id="path342" />
						<path
   fill="#3c3c3b"
   d="m 386.042,79.025 c -0.049,0 -0.099,-0.01 -0.146,-0.032 -0.176,-0.081 -0.253,-0.289 -0.172,-0.465 l 1.229,-2.676 2.75,-1.038 c 0.182,-0.069 0.383,0.023 0.452,0.204 0.068,0.181 -0.023,0.383 -0.204,0.452 l -2.481,0.936 -1.108,2.415 c -0.06,0.128 -0.187,0.204 -0.32,0.204 z"
   id="path344" />
						<path
   fill="#3c3c3b"
   d="m 388.137,82.037 c -10e-4,0 -10e-4,0 -0.002,0 -0.194,-0.001 -0.35,-0.158 -0.349,-0.352 l 0.014,-2.945 2.076,-2.08 c 0.137,-0.138 0.359,-0.137 0.496,-10e-4 0.137,0.137 0.137,0.359 10e-4,0.495 l -1.872,1.877 -0.013,2.657 c -0.002,0.194 -0.159,0.349 -0.351,0.349 z"
   id="path346" />
						<path
   fill="#3c3c3b"
   d="m 391.702,73.576 c -0.139,0 -0.27,-0.083 -0.325,-0.22 -0.072,-0.18 0.015,-0.383 0.195,-0.455 l 2.46,-0.987 1.059,-2.437 c 0.077,-0.178 0.282,-0.26 0.461,-0.182 0.178,0.077 0.259,0.283 0.182,0.461 l -1.173,2.701 -2.728,1.094 c -0.044,0.017 -0.088,0.025 -0.131,0.025 z"
   id="path348" />
						<path
   fill="#3c3c3b"
   d="m 395.651,79.025 c -0.133,0 -0.26,-0.076 -0.319,-0.204 l -1.108,-2.415 -2.48,-0.936 c -0.181,-0.068 -0.272,-0.271 -0.204,-0.452 0.068,-0.181 0.27,-0.273 0.452,-0.204 l 2.749,1.038 1.229,2.676 c 0.081,0.176 0.003,0.384 -0.173,0.465 -0.047,0.021 -0.097,0.032 -0.146,0.032 z"
   id="path350" />
						<path
   fill="#3c3c3b"
   d="m 393.557,82.037 c -0.193,0 -0.349,-0.156 -0.35,-0.349 l -0.013,-2.657 -1.873,-1.877 c -0.137,-0.137 -0.137,-0.359 10e-4,-0.495 0.137,-0.136 0.359,-0.137 0.495,10e-4 l 2.076,2.08 0.014,2.945 c 0.001,0.194 -0.155,0.351 -0.349,0.352 0,0 -10e-4,0 -10e-4,0 z"
   id="path352" />
					</g>
				</g>
			</g>
		</g>
		<path
   opacity="0.1"
   fill="#1d1d1b"
   d="m 410.225,85.301 c 0.009,3.808 -0.285,7.591 -0.941,11.296 -0.518,2.884 -3.048,4.974 -5.967,4.974 h -24.932 c -2.936,0 -5.449,-2.09 -5.967,-4.974 -0.32,-1.753 -0.544,-3.523 -0.699,-5.302 -0.181,-2.09 -0.259,-4.197 -0.242,-6.322 2.133,1.58 4.422,2.841 6.805,3.809 7.928,3.247 16.961,3.23 25.13,0.052 2.357,-0.916 4.646,-2.091 6.813,-3.533 z"
   id="path362" />
	</g>
</g>




<g
   id="g26815"
   transform="matrix(1.0932526,0,0,1.0522849,-84.019199,-8.7709734)"><path
     fill="#3c3c3b"
     d="m 162.17399,89.819202 c 0.3458,0 0.69162,-0.0074 1.03864,-0.02507 7.92923,-0.393505 15.84139,-4.89499 21.16489,-12.041242 4.37739,-5.876894 6.32925,-12.459746 5.49761,-18.536225 l -1.47456,0.176774 c 0.78537,5.733195 -1.0776,11.970483 -5.2419,17.562256 -5.06292,6.797273 -12.54892,11.076346 -20.02397,11.447007 -8.41749,0.43224 -16.45631,-4.666844 -18.30833,-11.57588 -2.02248,-7.545416 3.11349,-14.93459 6.35483,-18.667383 0.95828,-1.102844 2.42309,-2.544411 4.0328,-2.387023 l 0.15829,-1.384545 c -2.34637,-0.236078 -4.16917,1.53965 -5.34419,2.8934 -3.41789,3.934656 -8.8254,11.75037 -6.64462,19.884271 1.94334,7.244336 10.07591,12.653627 18.79051,12.653627 z"
     id="path758"
     style="stroke-width:1.17842" /><g
     id="g774"
     transform="matrix(-1.2176326,0,0,1.1404804,377.22128,-241.37402)">
		<path
   fill="#407e7e"
   d="m 158.161,262.511 c -2.022,0.062 -3.449,0.599 -4.24,1.594 -0.845,1.063 -0.623,2.243 -0.613,2.293 l 0.681,-0.133 c -0.007,-0.038 -0.166,-0.93 0.483,-1.737 0.66,-0.822 1.909,-1.267 3.711,-1.322 z"
   id="path760" />
		<path
   fill="#669898"
   d="m 148.613,265.204 -0.617,-1.135 -22.284,12.124 c -0.376,0.205 -0.691,0.505 -0.914,0.871 l -3.239,5.322 1.104,0.672 3.238,-5.322 c 0.105,-0.172 0.253,-0.313 0.429,-0.409 z"
   id="path762" />
		<path
   fill="#669898"
   d="m 152.603,267.225 0.41,-1.163 1.758,0.208 c 0.261,0.031 0.525,-0.02 0.755,-0.146 l 2.124,-1.155 c 0.581,-0.316 0.796,-1.043 0.48,-1.624 l -1.288,-2.368 0.473,-0.257 1.374,2.525 c 0.449,0.825 0.144,1.857 -0.681,2.306 l -2.362,1.285 c -0.284,0.155 -0.599,0.245 -0.921,0.264 z"
   id="path764" />
		
			<rect
   x="152.938"
   y="259.76999"
   transform="matrix(0.8784,-0.4779,0.4779,0.8784,-105.8485,105.8252)"
   fill="#d3996a"
   width="4.1950002"
   height="2.296"
   id="rect766" />
		<path
   fill="#d3996a"
   d="m 149.251,266.036 c -0.214,0.116 -0.482,0.037 -0.599,-0.177 l -1.109,-2.038 c -0.117,-0.214 -0.037,-0.482 0.177,-0.599 l 0.463,-0.252 1.531,2.813 z"
   id="path768" />
		<path
   fill="#fed0a9"
   d="m 150.789,267.978 -1.012,-1.86 -1.531,-2.813 -0.064,-0.117 c -0.206,-0.378 -0.066,-0.851 0.312,-1.057 l 3.156,-1.717 c 0.378,-0.206 0.852,-0.066 1.057,0.312 l 0.064,0.117 1.098,2.017 0.034,0.063 c 0.067,0.124 0.1,0.263 0.094,0.404 l -0.14,3.437 c -0.011,0.274 -0.165,0.522 -0.406,0.653 l -1.606,0.874 c -0.377,0.205 -0.85,0.065 -1.056,-0.313 z"
   id="path770" />
		<polygon
   fill="#407e7e"
   points="122.069,285.271 122.732,282.967 121.589,282.283 119.872,283.957 "
   id="polygon772"
   style="fill:#a93939;fill-opacity:1" />
	</g><path
     fill="#386e6e"
     d="m 161.82453,107.26626 c 0.14733,0.53717 0.30562,0.97055 0.4627,1.30814 0.0646,0.75385 0.6283,1.31611 1.48917,1.68905 1.38687,0.61471 3.53235,0.73675 5.511,0.38092 2.25627,-0.40715 4.28971,-1.43701 4.73415,-3.10895 v -0.01 l 0.10228,-2.45089 0.23135,-5.291823 0.20335,-4.694218 0.74885,-17.234943 c 0.12907,-1.108545 -12.21895,-5.728633 -12.3675,-5.555281 -1.06421,3.307392 -1.60241,5.028378 -0.83164,8.153293 -1.52691,7.873877 -1.24564,23.184822 -0.28371,26.813842 z"
     id="path776"
     style="fill:#178066;fill-opacity:1;stroke-width:1.17842" /><g
     id="g782"
     transform="matrix(-1.2176326,0,0,1.1404804,377.22128,-241.37402)">
		<path
   fill="#3c3c3b"
   d="m 184.067,337.742 -4.078,0.714 -2.681,0.471 -3.235,0.57 -5.543,-0.091 c 0,0 -0.531,-2.164 0.661,-3.22 1.245,-1.086 2.4,-0.281 3.911,-1.033 0.615,-0.311 1.192,-0.714 1.678,-1.299 0.235,-0.288 0.486,-0.547 0.744,-0.752 0.463,-0.387 0.972,-0.676 1.488,-0.866 0.721,-0.289 1.473,-0.403 2.202,-0.44 1.033,-0.046 2.005,0.083 2.779,0.19 0.319,0.053 1.268,0.964 1.883,4.647 z"
   id="path778"
   style="fill:#1a1a1a" />
		<polygon
   fill="#3c3c3b"
   points="181.994,331.986 182.472,333.649 179.473,334.066 177.552,334.34 175.904,334.575 175.524,333.102 174.848,330.467 174.279,328.242 175.699,327.786 178.873,326.761 180.339,326.29 181.09,328.888 "
   id="polygon780"
   style="fill:#1a1a1a;fill-opacity:1" />
	</g><path
     fill="#386e6e"
     d="m 154.99118,132.01811 c 0.028,0.52805 0.70257,1.14277 1.72904,1.69704 0.72083,0.40715 1.59997,0.77096 2.56068,1.08231 0.98871,0.32048 2.05292,0.5634 3.06112,0.67517 0.70258,0.0776 1.37715,0.10377 1.97866,0.0433 1.33087,-0.1209 2.35733,-0.63297 2.62522,-1.69705 l 7.07322,-26.28465 v -0.01 l 0.056,-0.19045 c 0.10107,-0.67518 0.12056,-1.44613 0.0463,-2.26043 -0.24109,-3.36898 -1.89585,-7.465593 -4.59534,-8.2799 -0.18508,-0.06047 -0.37016,-0.09585 -0.55524,-0.120899 l -0.13881,-0.02618 c -1.46116,-0.181325 -2.75551,0.805186 -3.80024,2.303776 -1.61822,2.311763 -2.69096,5.802763 -3.03312,8.019863 -0.0646,0.0958 -0.1108,0.19045 -0.17533,0.29424 -2.87484,5.18006 -5.55606,14.50805 -6.83214,24.75299 z"
     id="path784"
     style="fill:#178066;fill-opacity:1;stroke-width:1.17842" /><path
     fill="#ffc990"
     d="m 186.24415,37.184886 c -3.68822,1.922849 -5.34541,-3.96659 -6.83458,-6.388971 l 2.16739,-6.528111 9.11763,3.72709 z"
     id="path786"
     style="fill:#a05a2c;fill-opacity:1;stroke-width:1.17842" /><g
     id="g792"
     transform="matrix(-1.2176326,0,0,1.1404804,377.22128,-241.37402)">
		<path
   fill="#ffc990"
   d="m 151.516,239.628 c 0.416,0.455 0.971,0.738 1.647,0.619 l 1.473,-0.28 c 0.47,-0.128 0.988,-0.403 1.481,-0.79 0.006,0.001 0.006,0.001 0.003,-0.002 1.341,-1.076 5.148,-4.674 5.089,-5.752 -0.064,-1.191 0.952,-3.11 0.846,-4.676 -1.258,-6.845 -5.459,-5.811 -8.011,-5.421 -2.044,0.404 -3.869,1.691 -4.632,3.959 -0.228,0.67 -0.362,1.432 -0.379,2.285 -0.009,0.441 0.015,0.895 0.067,1.385 0.224,0.423 0.462,0.768 0.462,0.768 l -0.104,0.385 -0.464,1.714 c -0.101,0.442 0.223,0.869 0.68,0.902 l 0.684,0.082 c 0.08,0.457 0.302,3.059 0.302,3.059 0.113,0.599 0.403,1.283 0.856,1.763 z"
   id="path788"
   style="fill:#a05a2c;fill-opacity:1" />
		<path
   fill="#3c3c3b"
   d="m 161.302,235.038 c -4.493,1.715 -2.686,-3.996 -2.686,-3.996 0,0 -0.792,1.831 -1.097,2.356 -0.757,0.105 -0.757,0.105 -1.449,0.156 -1.156,-5.807 -0.418,-8.603 -6.66,-6.266 -5.016,-1.246 2.258,-4.473 5.193,-4.888 3.449,-0.487 6.739,0.969 7.558,4.355 0.476,1.97 0.846,3.056 -0.859,8.283 z"
   id="path790"
   style="fill:#454837;fill-opacity:1" />
	</g><rect
     x="-223.5977"
     y="18.357697"
     transform="matrix(-0.97261988,-0.23240176,-0.26279308,0.96485222,0,0)"
     fill="#3c3c3b"
     width="8.4468203"
     height="1.7547269"
     id="rect794"
     style="stroke-width:1.17875" /><path
     fill="#407e7e"
     d="m 167.18455,47.698975 6.05042,21.975916 -4.78043,2.457737 -9.86161,-20.170536 c -0.95705,-1.647996 -1.13849,-3.663225 -0.22648,-5.33403 0.65143,-1.194081 1.6986,-2.147522 3.00269,-2.405273 l 0.0962,-0.01824 c 2.60938,-0.514356 5.17007,1.050383 5.71922,3.494435 z"
     id="path796"
     style="stroke-width:1.17842" /><path
     fill="#407e7e"
     d="m 173.77316,32.697096 -14.42043,12.618275 5.39412,8.30726 15.7866,-13.329936 c 2.10529,-1.605798 4.7098,-5.602042 2.38656,-8.083725 0,0.0012 -3.85137,-4.035019 -9.14685,0.488126 z"
     id="path798"
     style="stroke-width:1.17842" /><path
     fill="#407e7e"
     d="m 163.7143,68.503618 c 0.9814,0.52234 1.97013,1.002481 2.95153,1.42788 1.72539,0.766404 3.47269,1.385684 5.25043,1.811082 0.14125,0.0422 0.2752,0.06957 0.41644,0.10492 1.70225,0.37636 3.42763,0.571382 5.19077,0.536026 1.51716,-0.0068 3.05625,-0.201865 4.62578,-0.585065 0.0596,-0.10492 0.11933,-0.215551 0.17899,-0.334161 0.81094,-1.560176 1.86663,-4.387427 2.9004,-7.38233 0.25326,-0.70367 0.4907,-1.421034 0.72814,-2.131554 0.22283,-0.668319 0.44687,-1.336642 0.65509,-1.984435 0.46879,-1.42104 0.89253,-2.757682 1.24929,-3.900442 0.0451,-0.152823 0.0962,-0.299946 0.14125,-0.439086 0.22282,-0.696832 0.40913,-1.302429 0.54306,-1.78257 v -0.0137 c 0.23014,-0.759561 0.35677,-1.21233 0.35677,-1.226016 0.0378,-0.145984 0.0669,-0.28512 0.0962,-0.432242 1.99326,-9.033747 -1.4502,-17.404871 -1.4502,-17.404871 l -0.69162,-0.37636 0.007,-0.654637 c 0,-0.06957 0,-0.132292 -0.0146,-0.201864 -0.0377,-1.024151 -0.61734,-1.950221 -1.50256,-2.548974 l -4.97525,-3.022273 -1.08613,2.006105 c -0.2971,0.04904 -0.59542,0.111768 -0.88521,0.174495 -0.7732,0.188179 -1.50256,0.45277 -2.19417,0.793774 -1.33088,0.64095 -2.5059,1.546492 -3.56158,2.653897 -1.8362,1.929693 -3.25716,4.471824 -4.37982,7.326448 -2.46815,6.281764 -3.44225,14.05528 -3.9634,20.072455 -0.11202,1.246545 -0.1936,2.402991 -0.27519,3.468201 -0.11932,1.620621 -0.21552,2.99376 -0.3117,4.045282 z"
     id="path800"
     style="fill:#178066;fill-opacity:1;stroke-width:1.17842" /><path
     fill="#407e7e"
     d="m 163.46834,82.739091 c 1.21884,1.609222 3.21941,2.869456 6.34994,3.420309 l 2.78108,-1.275066 h 0.007 l 8.29086,-3.795515 2.56555,-1.176973 -1.31626,-8.121363 -3.95608,-0.703679 -8.49908,-1.517976 -5.97857,-1.072054 c 0,0 -0.16316,0.347849 -0.40182,0.947739 -0.51263,1.322959 -1.37592,3.88676 -1.53179,6.63075 -0.14002,2.303771 0.21674,4.735281 1.68887,6.663828 z"
     id="path802"
     style="fill:#178066;fill-opacity:1;stroke-width:1.17842" /><rect
     x="-176.29155"
     y="46.01952"
     transform="matrix(-0.99059397,-0.13683416,-0.15553848,0.98782983,0,0)"
     fill="#407e7e"
     width="0.84636521"
     height="4.6178246"
     id="rect804"
     style="stroke-width:1.17853" /><path
     opacity="0.1"
     fill="#1d1d1b"
     d="m 163.46834,82.739091 c 1.21884,1.609222 3.21941,2.869456 6.34994,3.420309 0.0889,0.278274 0.17048,0.571372 0.26058,0.856496 0.0292,0.09006 0.0597,0.174486 0.0816,0.264586 1.26391,4.137664 2.75063,8.684761 4.19353,12.501945 1.50256,4.039583 2.96006,7.278553 4.00844,8.392793 -0.6697,2.31974 -1.08612,5.57922 -1.24929,9.33939 -0.23744,5.33517 0.0292,11.67281 0.79512,17.80175 0.16315,0.52234 0.9814,0.96827 2.14911,1.30243 l -0.25326,2.13839 c -0.37868,0.11178 -1.31626,1.32297 -1.27121,5.58608 v 1.27393 h 4.55151 l -0.56499,-5.00102 -0.27518,-2.49308 -0.12663,-1.10057 c -0.63196,-1.63658 -1.14579,-3.27318 -1.53909,-4.90976 -1.80697,-7.47357 -1.17502,-14.9882 1.98595,-22.53818 0.40183,-0.98879 0.86209,-1.98442 1.36132,-2.97437 -1.9336,-1.63658 -3.63585,-3.38493 -5.08605,-5.2519 -3.69551,-4.729577 -5.82271,-10.197036 -6.23184,-16.465119 h -0.007 c -1.07882,0.0696 -2.14912,0.01364 -3.20481,-0.145973 -2.00788,-0.305644 -3.98653,-1.001345 -5.92744,-1.998127 z"
     id="path872"
     style="fill:#178066;fill-opacity:1;stroke-width:1.17842" /><path
     fill="#407e7e"
     d="m 167.07496,75.823224 c 0.007,0.04904 0.0219,0.111763 0.0292,0.167645 0.0889,0.5155 0.25327,1.219175 0.46149,2.082521 0.42373,1.719843 1.06299,4.04642 1.82887,6.664971 0.13394,0.466449 0.2752,0.939757 0.42374,1.421039 0.0889,0.278274 0.17048,0.571372 0.26058,0.856496 0.0292,0.09006 0.0596,0.174486 0.0816,0.264586 1.2639,4.137664 2.75063,8.684761 4.19352,12.501945 1.50256,4.039593 2.96007,7.278553 4.00845,8.392803 0.34215,0.81429 1.32357,1.26707 2.57285,1.39253 0.50532,0.049 1.0557,0.0559 1.62799,0.006 0.23012,-0.0206 0.46878,-0.0491 0.71353,-0.0833 3.24254,-0.46646 6.84065,-2.30491 6.69941,-4.74326 0,-0.049 -0.007,-0.0901 -0.0146,-0.13229 -0.37138,-4.61097 -1.71809,-9.96667 -3.48,-15.656522 -0.007,0 -0.007,-0.0065 -0.007,-0.0065 -0.91445,-2.945858 -1.9409,-5.97612 -3.01121,-9.04059 -0.14124,-0.410577 -0.28979,-0.822288 -0.43104,-1.232855 l -0.75859,-2.591182 c -0.11202,-0.564532 -1.97743,0.145992 -3.74055,-0.975109 -4.50525,-2.876291 -11.47254,0.557702 -11.45793,0.710524 z"
     id="path806"
     style="fill:#178066;fill-opacity:1;stroke-width:1.17842" /><g
     id="g812"
     transform="matrix(-1.2176326,0,0,1.1404804,377.22128,-241.37402)">
		
		<polygon
   fill="#3c3c3b"
   points="155.187,328.283 161.276,327.428 161.453,327.409 161.49,327.397 161.49,327.409 161.496,327.458 161.496,327.483 161.923,331.434 162.131,333.309 162.314,335.019 159.902,334.939 159.804,334.933 158.931,334.903 155.688,334.805 155.566,333.278 155.432,331.483 "
   id="polygon810"
   style="fill:#1a1a1a;fill-opacity:1" /><path
   fill="#3c3c3b"
   d="m 163.175,338.207 v 1.117 h -15.768 c 0,0 -0.751,-2.388 0.611,-3.212 1.991,-1.209 4.696,-0.507 6.687,-2.229 0.281,-0.244 0.568,-0.446 0.861,-0.604 0.892,-0.513 1.826,-0.702 2.736,-0.715 0.537,-0.006 1.063,0.055 1.563,0.141 0.085,0.012 0.177,0.03 0.263,0.049 0.745,0.147 1.429,0.366 2.003,0.556 0.311,0.096 1.081,1.159 1.044,4.897 z"
   id="path808"
   style="fill:#1a1a1a;fill-opacity:1" />
	</g><path
     fill="#407e7e"
     d="m 177.90946,135.31752 c 0.16316,0.52235 0.98141,0.96827 2.14911,1.30243 0.61004,0.16765 1.30896,0.30679 2.06024,0.40373 0.55767,0.0764 1.12996,0.11861 1.70225,0.13914 1.49403,0.049 2.99659,-0.0901 4.14117,-0.48699 1.21154,-0.41057 2.02248,-1.11424 2.02248,-2.17946 l 0.21553,-28.57017 c -0.0451,-0.41741 -0.11933,-0.84965 -0.23744,-1.30927 -0.89984,-3.62216 -4.05229,-8.267346 -7.3545,-7.975373 l -0.14125,0.01364 c -1.91168,0.167645 -3.03434,2.2285 -3.62855,4.694213 -0.0219,0.0969 -0.045,0.20187 -0.067,0.30679 v 0.006 c -0.0377,0.1745 -0.0743,0.35469 -0.11202,0.52919 -0.3945,2.12472 -0.44565,4.4091 -0.2971,5.98296 -0.66969,2.31974 -1.08612,5.57923 -1.24928,9.33939 -0.23744,5.33516 0.0304,11.67396 0.79632,17.8029 z"
     id="path814"
     style="fill:#178066;fill-opacity:1;stroke-width:1.17842" /><path
     fill="#3c3c3b"
     d="m 171.72388,71.671873 c 6.02241,0 12.27495,-1.146185 14.74066,-8.163559 3.56644,-10.475313 5.40507,-18.921712 2.79812,-26.129546 -1.52813,-4.10573 -3.84163,-5.41158 -5.51344,-5.787939 -1.59388,-0.35583 -4.14482,-0.200724 -7.24004,2.580906 l 2.05902,2.010668 c 1.17379,-1.054943 2.90648,-2.235341 4.48697,-1.882933 1.34426,0.302228 2.54972,1.716422 3.39354,3.983699 2.34273,6.476788 0.56985,14.425936 -2.81395,24.366362 -1.64259,4.675972 -5.11771,6.378709 -12.80706,6.227022 l -0.0572,2.786194 c 0.31657,0.0056 0.6356,0.0091 0.9534,0.0091 z"
     id="path816"
     style="stroke-width:1.17842" /><path
     fill="#226666"
     d="m 212.54623,68.407816 c 0.27396,1.059508 0.42008,1.21005 1.32234,1.673086 1.54031,0.791494 2.04928,1.009324 3.71865,1.772306 -0.92296,0.531465 -1.36131,1.311552 -2.43404,1.459814 -1.10561,0.152826 -2.22096,-0.127732 -3.29735,-0.407152 -1.21155,-0.313631 -2.44014,-0.634106 -3.50922,-1.253386 -1.22859,-0.712802 -2.17104,-1.775729 -3.09157,-2.820408 -0.16438,-0.18704 -0.33607,-0.388905 -0.36285,-0.630686 -0.0292,-0.26459 0.1242,-0.514357 0.29223,-0.728765 0.92418,-1.174697 2.42309,-1.828192 3.9159,-2.242186 0.85356,-0.236081 1.75948,-0.411713 2.63009,-0.234938 2.00179,0.404869 3.57497,2.288942 5.51466,2.905944 0.34946,0.110624 0.75981,0.201865 0.92905,0.509793 0.15342,0.279419 0.0207,0.643232 -0.23987,0.840535 -0.26057,0.197301 -0.6149,0.253185 -0.94975,0.232657 -0.70866,-0.04334 -1.34914,-0.386622 -1.9957,-0.663759 -0.64535,-0.275998 -1.77166,-0.629546 -2.44257,-0.412855 z"
     id="path818"
     style="fill:#ff7f2a;fill-opacity:1;stroke-width:1.17842" /><path
     fill="#407e7e"
     d="m 179.52281,58.905336 0.0378,0.293102 c 0.007,0.0901 0.0292,0.181335 0.045,0.26459 0.067,0.299948 0.15586,0.598754 0.27518,0.891857 0.70622,1.755201 2.417,2.988059 4.36521,3.433988 l 0.98141,0.293101 12.93126,3.871931 8.64762,2.58433 1.27852,-4.965653 -8.45524,-4.185562 -10.13557,-5.021536 -1.49404,-0.737892 -1.33817,-0.661476 c -1.21886,-0.668323 -2.63253,-0.78009 -3.88912,-0.410573 -1.10074,0.320476 -2.08946,1.010464 -2.72141,2.026631 l -0.0451,0.07642 c -0.42374,0.666041 -0.56499,1.452971 -0.4834,2.246747 z"
     id="path820"
     style="fill:#178066;fill-opacity:1;stroke-width:1.17842" /><path
     fill="#407e7e"
     d="m 177.06563,41.135509 2.53268,18.33094 10.35109,0.741313 -2.35368,-19.785053 c -0.1656,-2.53757 -2.11138,-6.850865 -5.61816,-6.530389 -9e-4,0 -5.74721,0.575942 -4.91193,7.243189 z"
     id="path822"
     style="fill:#178066;fill-opacity:1;stroke-width:1.17842" /><path
     fill="#226666"
     d="m 198.00891,68.629071 8.79739,1.908025 c 0.98872,-1.665104 1.55371,-3.315378 1.27852,-4.965653 l -8.4248,-4.317858 -0.0292,0.132293 -1.27121,5.676173 -0.20091,0.891854 z"
     id="path824"
     style="fill:#ff7f2a;fill-opacity:1;stroke-width:1.17842" /><path
     fill="#407e7e"
     d="m 195.72707,25.046753 -8.96177,2.002683 c -0.69406,3.700859 0.79023,5.408158 7.11097,7.279686 l 3.35092,-4.304173 z"
     id="path826"
     style="fill:#178066;fill-opacity:1;stroke-width:1.17842" /><polygon
     fill="#a93939"
     points="148.086,238.33 150.378,241.472 149.527,241.742 147.691,239.315 "
     id="polygon828"
     transform="matrix(-1.2176326,0,0,1.1404804,377.22128,-241.37402)" /><polygon
     fill="#3c3c3b"
     points="160.596,224.012 161.487,225.112 156.186,235.804 154.586,235.36 "
     id="polygon830"
     transform="matrix(-1.2176326,0,0,1.1404804,377.22128,-241.37402)" /><path
     fill="#3c3c3b"
     d="m 190.41698,20.415261 v 2.104187 l -11.25215,-1.517979 c -0.067,-0.799477 -0.0159,-1.289883 0.11811,-2.063129 z"
     id="path832"
     style="stroke-width:1.17842" /><g
     id="g846"
     transform="matrix(-1.2176326,0,0,1.1404804,377.22128,-241.37402)">
		<path
   opacity="0.5"
   fill="#fed0a9"
   d="m 150.341,233.955 c 0.384,0.068 0.789,0.042 1.172,-0.089 l 0.168,-0.058 0.21,-0.068 0.61,-0.21 c 0.016,-0.005 0.032,-0.01 0.042,-0.021 0.452,-0.168 0.736,-0.615 0.704,-1.099 l -0.137,-2.15 c -0.047,-0.783 -0.61,-1.388 -1.309,-1.561 -0.226,-0.053 -0.463,-0.063 -0.699,-0.016 -0.053,0.005 -0.1,0.016 -0.153,0.032 -0.021,0.005 -0.042,0.011 -0.058,0.016 -0.562,0.153 -1.051,0.3 -1.477,0.447 -0.615,0.205 -1.104,0.405 -1.483,0.583 l 0.289,2.255 c 0.068,0.531 0.357,1.009 0.799,1.309 l 0.389,0.258 c 0.286,0.193 0.601,0.319 0.933,0.372 z"
   id="path834" />
		<g
   id="g840">
			<path
   fill="#3c3c3b"
   d="m 153.953,230.206 c -0.084,-1.346 -1.204,-2.397 -2.55,-2.397 -0.058,0 -0.11,0 -0.163,0.005 -0.174,0.01 -0.347,0.042 -0.515,0.084 -0.831,0.226 -1.693,0.473 -2.397,0.72 -0.026,0.01 -0.053,0.021 -0.079,0.037 0,0.099 0.005,0.201 0.008,0.303 0.051,-0.034 0.101,-0.069 0.16,-0.091 0.674,-0.24 1.518,-0.48 2.379,-0.714 0.151,-0.041 0.305,-0.067 0.459,-0.076 1.262,-0.08 2.355,0.882 2.435,2.145 l 0.137,2.149 c 0.048,0.76 -0.418,1.458 -1.139,1.705 l -0.99,0.339 c -0.249,0.085 -0.507,0.137 -0.769,0.153 -0.651,0.041 -1.307,-0.137 -1.847,-0.503 v 0 c -0.073,-0.052 -0.133,-0.117 -0.198,-0.177 l -0.005,0.345 c 0.016,0.021 0.032,0.032 0.053,0.047 0.531,0.357 1.173,0.557 1.814,0.557 0.068,0 0.131,-0.005 0.2,-0.005 0.284,-0.021 0.568,-0.079 0.836,-0.168 l 0.994,-0.342 c 0.494,-0.168 0.883,-0.526 1.109,-0.967 0.152,-0.3 0.226,-0.647 0.205,-0.999 z"
   id="path836" />
			<path
   fill="#407e7e"
   d="m 149.082,234.065 c 0.54,0.366 1.196,0.545 1.847,0.503 0.262,-0.017 0.521,-0.068 0.769,-0.153 l 0.99,-0.339 c 0.721,-0.247 1.187,-0.945 1.139,-1.705 l -0.137,-2.149 c -0.081,-1.263 -1.173,-2.226 -2.435,-2.145 -0.154,0.01 -0.309,0.035 -0.459,0.076 -0.861,0.234 -1.705,0.474 -2.379,0.714 -0.06,0.021 -0.109,0.057 -0.16,0.091 -0.243,0.16 -0.387,0.441 -0.356,0.741 l 0.297,2.844 c 0.054,0.521 0.306,0.994 0.687,1.346 0.064,0.06 0.124,0.124 0.197,0.176 z m -0.86,-2.05 -0.289,-2.255 c 0.379,-0.179 0.867,-0.378 1.483,-0.583 0.426,-0.147 0.915,-0.294 1.477,-0.447 0.016,-0.005 0.037,-0.01 0.058,-0.016 0.053,-0.016 0.1,-0.026 0.153,-0.032 0.237,-0.047 0.473,-0.037 0.699,0.016 0.699,0.173 1.262,0.778 1.309,1.561 l 0.137,2.15 c 0.032,0.484 -0.252,0.931 -0.704,1.099 -0.011,0.011 -0.026,0.016 -0.042,0.021 l -0.61,0.21 -0.21,0.068 -0.168,0.058 c -0.384,0.132 -0.789,0.158 -1.172,0.089 -0.331,-0.052 -0.647,-0.179 -0.931,-0.373 l -0.389,-0.258 c -0.443,-0.299 -0.733,-0.777 -0.801,-1.308 z"
   id="path838"
   style="fill:#178066;fill-opacity:1" />
		</g>
		<path
   opacity="0.5"
   fill="#ffffff"
   d="m 151.103,228.947 0.788,4.55 0.61,-0.189 c 0.016,-0.005 0.032,-0.01 0.042,-0.019 l -0.741,-4.327 c -0.226,-0.048 -0.462,-0.058 -0.699,-0.015 z"
   id="path842" />
		<path
   opacity="0.5"
   fill="#ffffff"
   d="m 149.415,229.391 0.925,4.299 c 0.384,0.061 0.789,0.038 1.172,-0.081 l 0.168,-0.052 -0.789,-4.569 c -0.561,0.139 -1.05,0.271 -1.476,0.403 z"
   id="path844" />
	</g><path
     fill="#ffc990"
     d="m 183.0442,22.506903 c -0.19481,1.230578 0.68918,2.804441 1.54762,2.923051 0.85843,0.11861 0.92175,-0.891856 1.12875,-2.120153 0.13759,-0.812021 0.5394,-1.938816 -0.36164,-2.326581 -0.78781,-0.338721 -2.0298,-0.281697 -2.31473,1.523683 z"
     id="path848"
     style="fill:#a05a2c;stroke-width:1.17842" /><g
     id="g866"
     transform="matrix(-1.2176326,0,0,1.1404804,377.22128,-241.37402)">
		<path
   fill="#a96c39"
   d="m 155.503,241.071 c -0.647,1.279 -2.504,1.647 -4.138,0.821 -1.634,-0.827 -2.438,-2.54 -1.79,-3.82 0.647,-1.279 2.504,-1.647 4.138,-0.821 1.634,0.827 2.437,2.54 1.79,3.82 z m -5.625,-2.846 c -0.563,1.112 0.173,2.621 1.641,3.363 1.467,0.742 3.119,0.441 3.681,-0.671 0.563,-1.112 -0.173,-2.621 -1.641,-3.363 -1.467,-0.742 -3.119,-0.441 -3.681,0.671 z"
   id="path850" />
		<g
   id="g856">
			
				<rect
   x="151.394"
   y="237.123"
   transform="matrix(0.4514,-0.8923,0.8923,0.4514,-130.9165,267.5975)"
   fill="#d3996a"
   width="1.5779999"
   height="6.3039999"
   id="rect852" />
			<path
   fill="#d3996a"
   d="m 153.636,237.402 c 1.553,0.786 2.321,2.394 1.715,3.592 -0.606,1.198 -2.356,1.532 -3.91,0.746 -1.553,-0.786 -2.321,-2.394 -1.715,-3.592 0.606,-1.197 2.357,-1.531 3.91,-0.746 z"
   id="path854" />
		</g>
		<path
   fill="#fed0a9"
   d="m 152.924,238.81 c 1.553,0.786 2.321,2.394 1.715,3.592 -0.606,1.198 -2.356,1.532 -3.91,0.746 -1.553,-0.786 -2.321,-2.394 -1.715,-3.592 0.606,-1.198 2.356,-1.531 3.91,-0.746 z"
   id="path858" />
		<path
   fill="#a96c39"
   d="m 154.791,242.479 c -0.647,1.279 -2.504,1.647 -4.138,0.821 -1.634,-0.827 -2.438,-2.54 -1.79,-3.82 0.647,-1.279 2.504,-1.647 4.138,-0.821 1.634,0.827 2.437,2.54 1.79,3.82 z m -5.626,-2.846 c -0.563,1.112 0.173,2.621 1.641,3.363 1.467,0.742 3.119,0.441 3.682,-0.671 0.563,-1.112 -0.173,-2.621 -1.641,-3.363 -1.467,-0.742 -3.119,-0.441 -3.682,0.671 z"
   id="path860" />
		<path
   opacity="0.5"
   fill="#634e42"
   d="m 153.481,242.59 c -0.643,0.473 -1.622,0.493 -2.495,0.052 -1.166,-0.591 -1.738,-1.816 -1.274,-2.732 0.108,-0.213 0.263,-0.395 0.461,-0.541 0.643,-0.472 1.622,-0.493 2.495,-0.052 1.166,0.59 1.738,1.816 1.274,2.732 -0.108,0.213 -0.263,0.395 -0.461,0.541 z m -3.127,-2.975 c -0.159,0.117 -0.284,0.262 -0.37,0.432 -0.388,0.766 0.123,1.808 1.14,2.322 0.759,0.384 1.633,0.374 2.176,-0.025 0.159,-0.117 0.284,-0.262 0.37,-0.432 0.387,-0.766 -0.124,-1.808 -1.14,-2.322 -0.759,-0.384 -1.634,-0.374 -2.176,0.025 z"
   id="path862" />
		<path
   opacity="0.5"
   fill="#634e42"
   d="m 152.652,241.802 c -0.326,0.24 -0.82,0.252 -1.257,0.032 -0.588,-0.298 -0.873,-0.923 -0.635,-1.394 0.234,-0.465 0.924,-0.605 1.499,-0.315 0.588,0.298 0.873,0.923 0.635,1.394 -0.057,0.111 -0.138,0.207 -0.242,0.283 z m -1.47,-1.4 c -0.065,0.048 -0.115,0.106 -0.15,0.174 -0.162,0.321 0.063,0.762 0.501,0.983 0.423,0.214 0.931,0.133 1.089,-0.179 0.162,-0.321 -0.063,-0.762 -0.501,-0.984 -0.331,-0.165 -0.708,-0.164 -0.939,0.006 z"
   id="path864" />
	</g><path
     opacity="0.1"
     fill="#1d1d1b"
     d="m 171.88583,71.860052 0.44565,-0.0137 9.99432,-0.3832 c 0.81095,-1.560175 1.86663,-4.387429 2.9004,-7.382328 l 12.93126,3.871929 -0.14855,0.675164 8.79739,1.908023 -8.44793,-3.475043 -12.40402,-5.112772 -1.12996,-0.466458 c -0.19361,-0.564538 -0.37868,-1.121091 -0.55768,-1.685629 -0.56498,-1.748358 -1.06299,-3.496713 -1.49404,-5.245072 -1.55369,-6.261235 -2.27575,-12.537299 -2.18687,-18.839594 l -2.71409,11.275931 -5.95666,24.752986 z"
     id="path868"
     style="stroke-width:1.17842" /><path
     opacity="0.1"
     fill="#1d1d1b"
     d="m 161.78069,76.074129 c 1.69495,0.773246 3.51774,1.553332 5.78498,1.999261 2.11137,0.417417 4.60264,0.55655 7.74049,0.145982 2.02979,-0.04222 3.8745,1.086873 5.59136,2.869447 1.97744,2.02663 3.79293,4.902917 5.57676,7.863616 -0.91444,-2.945867 -1.94091,-5.976119 -3.01121,-9.040589 l -1.31626,-8.121363 -3.95608,-0.703679 -8.49908,-1.517976 -6.38039,-0.125454 c -0.51141,1.324098 -1.37471,3.886756 -1.53057,6.630755 z"
     id="path870"
     style="fill:#178066;fill-opacity:1;stroke-width:1.17842" /><g
     id="g1006"
     transform="matrix(-1.2176326,0,0,1.1404804,377.22128,-241.37402)">
		<g
   id="g886">
			<g
   id="g880">
				<path
   fill="#407e7e"
   d="m 187,271.503 c -0.014,-0.102 -0.03,-0.204 -0.05,-0.305 l -6.331,-32.249 c -0.574,-2.922 -3.408,-4.826 -6.33,-4.252 -2.922,0.574 -4.826,3.408 -4.252,6.33 l 6.331,32.249 c 0.02,0.102 0.043,0.202 0.069,0.302 z"
   id="path874" />
				
					<rect
   x="171.263"
   y="244.119"
   transform="matrix(0.9813,-0.1926,0.1926,0.9813,-44.2457,38.6555)"
   fill="#7f1515"
   width="10.806"
   height="5.4910002"
   id="rect876" />
				
					<rect
   x="173.48801"
   y="249.394"
   transform="matrix(0.9813,-0.1926,0.1926,0.9813,-46.3904,39.2999)"
   fill="#d3996a"
   width="10.806"
   height="17.604"
   id="rect878" />
			</g>
			
				<rect
   x="172.90199"
   y="232.57001"
   transform="matrix(0.9813,-0.1926,0.1926,0.9813,-41.7714,37.9248)"
   fill="#3c3c3b"
   width="2.4630001"
   height="2.3840001"
   id="rect882" />
			<path
   fill="#7f1515"
   d="m 186.928,272.67 -10.007,1.965 c -0.455,0.089 -0.897,-0.207 -0.986,-0.662 l -0.003,-0.017 c -0.089,-0.455 0.207,-0.897 0.662,-0.986 l 10.007,-1.964 c 0.455,-0.089 0.897,0.207 0.986,0.662 l 0.003,0.017 c 0.09,0.454 -0.206,0.895 -0.662,0.985 z"
   id="path884" />
		</g>
		<g
   id="g934">
			
				<rect
   x="169.59801"
   y="231.492"
   transform="matrix(0.9813,-0.1927,0.1927,0.9813,-41.7052,37.1444)"
   fill="#3c3c3b"
   width="0.98699999"
   height="2.9400001"
   id="rect888" />
			<path
   fill="#3c3c3b"
   d="m 167.053,229.759 c -0.251,-1.279 0.585,-2.524 1.865,-2.775 1.279,-0.251 2.524,0.585 2.775,1.865 0.251,1.279 -0.585,2.524 -1.865,2.775 -1.279,0.25 -2.524,-0.586 -2.775,-1.865 z m 0.415,-0.081 c 0.206,1.05 1.229,1.737 2.279,1.531 1.051,-0.206 1.737,-1.229 1.531,-2.279 -0.206,-1.05 -1.229,-1.738 -2.279,-1.531 -1.051,0.206 -1.738,1.228 -1.531,2.279 z"
   id="path890" />
			<g
   id="g898">
				<path
   fill="#a93939"
   d="m 169.131,227.999 c -0.005,0.001 -0.009,0.002 -0.014,0.003 -0.465,0.091 -0.846,0.424 -1,0.872 -0.036,0.104 -0.058,0.211 -0.067,0.318 l 0.505,0.042 c 0.005,-0.066 0.019,-0.132 0.041,-0.197 0.095,-0.277 0.33,-0.483 0.618,-0.539 0.003,-10e-4 0.006,-10e-4 0.008,-0.002 z"
   id="path892" />
				<path
   fill="#d3996a"
   d="m 168.051,229.185 c -0.032,0.356 0.081,0.715 0.322,0.991 0.312,0.357 0.79,0.521 1.256,0.43 0.465,-0.091 0.846,-0.424 1,-0.872 0.153,-0.449 0.056,-0.945 -0.256,-1.302 -0.312,-0.357 -0.79,-0.521 -1.256,-0.43 l 0.098,0.497 c 0.288,-0.056 0.583,0.045 0.776,0.266 0.193,0.221 0.253,0.527 0.158,0.805 -0.095,0.277 -0.33,0.483 -0.618,0.539 -0.288,0.057 -0.583,-0.045 -0.776,-0.265 -0.149,-0.171 -0.219,-0.393 -0.199,-0.613 z"
   id="path894" />
				<path
   fill="#407e7e"
   d="m 170.536,228.665 c -0.045,-0.083 -0.1,-0.161 -0.163,-0.234 -0.312,-0.357 -0.79,-0.521 -1.256,-0.43 l 0.098,0.497 c 0.288,-0.056 0.583,0.045 0.776,0.266 0.039,0.045 0.073,0.093 0.101,0.145 z"
   id="path896" />
			</g>
			<g
   id="g912">
				<g
   id="g904">
					<path
   fill="#3c3c3b"
   d="m 170.936,228.857 c -0.072,0.014 -0.118,0.083 -0.104,0.155 0.014,0.072 0.084,0.118 0.155,0.104 0.072,-0.014 0.118,-0.083 0.104,-0.155 -0.014,-0.071 -0.083,-0.118 -0.155,-0.104 z"
   id="path900" />
					<path
   fill="#3c3c3b"
   d="m 167.757,229.482 c -0.072,0.014 -0.118,0.083 -0.104,0.155 0.014,0.072 0.083,0.118 0.155,0.104 0.072,-0.014 0.118,-0.083 0.104,-0.155 -0.014,-0.072 -0.084,-0.118 -0.155,-0.104 z"
   id="path902" />
				</g>
				<g
   id="g910">
					<path
   fill="#3c3c3b"
   d="m 168.93,227.735 c 0.014,0.072 0.084,0.118 0.155,0.104 0.072,-0.014 0.118,-0.083 0.104,-0.155 -0.014,-0.072 -0.083,-0.118 -0.155,-0.104 -0.071,0.014 -0.118,0.083 -0.104,0.155 z"
   id="path906" />
					<path
   fill="#3c3c3b"
   d="m 169.555,230.914 c 0.014,0.072 0.083,0.118 0.155,0.104 0.071,-0.014 0.118,-0.083 0.104,-0.155 -0.014,-0.072 -0.083,-0.118 -0.155,-0.104 -0.072,0.014 -0.118,0.084 -0.104,0.155 z"
   id="path908" />
				</g>
			</g>
			<g
   id="g926">
				<g
   id="g918">
					<path
   fill="#3c3c3b"
   d="m 170.791,230.093 c -0.06,-0.041 -0.143,-0.025 -0.183,0.036 -0.041,0.061 -0.025,0.143 0.036,0.183 0.061,0.041 0.143,0.025 0.183,-0.036 0.04,-0.06 0.024,-0.142 -0.036,-0.183 z"
   id="path914" />
					<path
   fill="#3c3c3b"
   d="m 168.101,228.286 c -0.061,-0.041 -0.143,-0.025 -0.183,0.036 -0.041,0.061 -0.025,0.143 0.036,0.183 0.061,0.041 0.143,0.025 0.183,-0.036 0.041,-0.06 0.024,-0.142 -0.036,-0.183 z"
   id="path916" />
				</g>
				<g
   id="g924">
					<path
   fill="#3c3c3b"
   d="m 170.166,227.881 c -0.041,0.061 -0.024,0.143 0.036,0.183 0.061,0.041 0.143,0.024 0.183,-0.036 0.041,-0.061 0.025,-0.143 -0.036,-0.183 -0.06,-0.041 -0.142,-0.025 -0.183,0.036 z"
   id="path920" />
					<path
   fill="#3c3c3b"
   d="m 168.359,230.57 c -0.041,0.061 -0.025,0.143 0.036,0.183 0.06,0.041 0.143,0.025 0.183,-0.036 0.041,-0.061 0.025,-0.143 -0.036,-0.183 -0.06,-0.04 -0.142,-0.024 -0.183,0.036 z"
   id="path922" />
				</g>
			</g>
			<g
   id="g932">
				<path
   fill="#3c3c3b"
   d="m 169.04,229.571 c 0.148,0.184 0.417,0.213 0.601,0.064 0.184,-0.148 0.212,-0.417 0.064,-0.6 -0.148,-0.184 -0.417,-0.212 -0.6,-0.064 -0.184,0.148 -0.212,0.417 -0.065,0.6 z"
   id="path928" />
				<polygon
   fill="#3c3c3b"
   points="169.233,229.366 169.464,229.18 168.353,228.039 "
   id="polygon930" />
			</g>
		</g>
		<g
   id="g950">
			<g
   id="g946">
				<g
   id="g942">
					<path
   fill="#669898"
   d="m 179.561,272.963 c -0.014,-0.102 -0.03,-0.203 -0.05,-0.305 l -6.331,-32.249 c -0.574,-2.922 -3.408,-4.826 -6.329,-4.252 -2.922,0.574 -4.826,3.407 -4.252,6.329 l 6.331,32.249 c 0.02,0.102 0.043,0.202 0.069,0.302 z"
   id="path936" />
					
						<rect
   x="163.825"
   y="245.58"
   transform="matrix(0.9813,-0.1927,0.1927,0.9813,-44.6708,37.2545)"
   fill="#a93939"
   width="10.806"
   height="5.4910002"
   id="rect938" />
					
						<rect
   x="166.049"
   y="250.854"
   transform="matrix(0.9813,-0.1926,0.1926,0.9813,-46.8108,37.894)"
   fill="#fed0a9"
   width="10.806"
   height="17.604"
   id="rect940" />
				</g>
				
					<rect
   x="165.464"
   y="234.03"
   transform="matrix(0.9813,-0.1926,0.1926,0.9813,-42.1917,36.5188)"
   fill="#3c3c3b"
   width="2.4630001"
   height="2.3840001"
   id="rect944" />
			</g>
			<path
   fill="#a93939"
   d="m 179.49,274.13 -10.007,1.965 c -0.455,0.089 -0.897,-0.207 -0.986,-0.662 l -0.003,-0.017 c -0.089,-0.455 0.207,-0.897 0.662,-0.986 l 10.007,-1.965 c 0.455,-0.089 0.897,0.207 0.986,0.662 l 0.003,0.017 c 0.09,0.455 -0.207,0.897 -0.662,0.986 z"
   id="path948" />
		</g>
		
			<rect
   x="162.24699"
   y="241.375"
   transform="matrix(0.9813,-0.1926,0.1926,0.9813,-43.5235,37.6754)"
   fill="#3c3c3b"
   width="19.458"
   height="2.5450001"
   id="rect952" />
		
			<rect
   x="167.57001"
   y="268.491"
   transform="matrix(0.9813,-0.1926,0.1926,0.9813,-48.6477,39.2091)"
   fill="#3c3c3b"
   width="19.458"
   height="2.5450001"
   id="rect954" />
		<polygon
   fill="#3c3c3b"
   points="160.893,240.966 167.661,275.299 169.092,275.019 162.497,241.428 "
   id="polygon956" />
		
			<rect
   x="164.032"
   y="232.116"
   transform="matrix(0.9813,-0.1926,0.1926,0.9813,-41.7046,37.0732)"
   fill="#3c3c3b"
   width="11.504"
   height="1.744"
   id="rect958" />
		
			<rect
   x="162.479"
   y="232.84599"
   transform="matrix(0.9813,-0.1927,0.1927,0.9813,-42.0706,35.8515)"
   fill="#3c3c3b"
   width="1.677"
   height="2.823"
   id="rect960" />
		
			<rect
   x="175.315"
   y="230.242"
   transform="matrix(0.9813,-0.1927,0.1927,0.9813,-41.3284,38.2755)"
   fill="#3c3c3b"
   width="1.677"
   height="2.823"
   id="rect962" />
		<g
   id="g974">
			
				<rect
   x="168.45599"
   y="259.79099"
   transform="matrix(0.9813,-0.1926,0.1926,0.9813,-46.8906,37.9575)"
   fill="#3c3c3b"
   width="6.5900002"
   height="0.64499998"
   id="rect964" />
			
				<rect
   x="168.715"
   y="261.10999"
   transform="matrix(0.9813,-0.1926,0.1926,0.9813,-47.1424,38.0346)"
   fill="#3c3c3b"
   width="6.5900002"
   height="0.64499998"
   id="rect966" />
			
				<rect
   x="169.711"
   y="262.35699"
   transform="matrix(0.9813,-0.1926,0.1926,0.9813,-47.3702,38.1774)"
   fill="#3c3c3b"
   width="5.8470001"
   height="0.64499998"
   id="rect968" />
			
				<rect
   x="170.903"
   y="264.60699"
   transform="matrix(0.9813,-0.1927,0.1927,0.9813,-47.7915,38.3808)"
   fill="#3c3c3b"
   width="5.1030002"
   height="0.64499998"
   id="rect970" />
			
				<rect
   x="169.689"
   y="266.069"
   transform="matrix(0.9813,-0.1926,0.1926,0.9813,-48.0768,38.3124)"
   fill="#3c3c3b"
   width="6.5900002"
   height="0.64499998"
   id="rect972" />
		</g>
		<path
   fill="#ffffff"
   d="m 167.202,256.037 c 0.37,1.882 2.195,3.109 4.078,2.739 1.882,-0.37 3.109,-2.195 2.739,-4.078 -0.37,-1.882 -2.195,-3.109 -4.078,-2.739 -1.882,0.37 -3.109,2.196 -2.739,4.078 z"
   id="path976" />
		<g
   id="g1004">
			<g
   id="g994">
				<g
   id="g984">
					<path
   fill="#3c3c3b"
   d="m 170.697,255.018 1.483,-0.291 -0.216,-1.099 c -0.013,-0.066 -0.077,-0.109 -0.143,-0.096 -0.066,0.013 -0.109,0.077 -0.096,0.143 l 0.169,0.861 -1.244,0.244 c -0.066,0.013 -0.109,0.077 -0.096,0.143 0.013,0.065 0.077,0.108 0.143,0.095 z"
   id="path978" />
					<path
   fill="#3c3c3b"
   d="m 172.566,257.327 c 0.066,-0.013 0.109,-0.077 0.096,-0.142 l -0.216,-1.099 -1.483,0.291 c -0.066,0.013 -0.109,0.077 -0.096,0.142 0.013,0.066 0.077,0.109 0.143,0.096 l 1.245,-0.244 0.169,0.861 c 0.013,0.065 0.077,0.108 0.142,0.095 z"
   id="path980" />
					<path
   fill="#3c3c3b"
   d="m 170.965,255.822 1.88,-0.369 c 0.066,-0.013 0.109,-0.077 0.096,-0.143 -0.013,-0.066 -0.077,-0.109 -0.143,-0.096 l -1.642,0.322 -0.161,-0.818 c -0.013,-0.066 -0.077,-0.109 -0.143,-0.096 -0.066,0.013 -0.109,0.077 -0.096,0.143 z"
   id="path982" />
				</g>
				<g
   id="g992">
					<path
   fill="#3c3c3b"
   d="m 169.54,257.921 c 0.066,-0.013 0.109,-0.077 0.096,-0.143 l -0.169,-0.861 1.245,-0.244 c 0.066,-0.013 0.109,-0.077 0.096,-0.143 -0.013,-0.066 -0.077,-0.109 -0.143,-0.096 l -1.483,0.291 0.216,1.099 c 0.012,0.067 0.076,0.11 0.142,0.097 z"
   id="path986" />
					<path
   fill="#3c3c3b"
   d="m 168.915,255.368 1.483,-0.291 c 0.066,-0.013 0.109,-0.077 0.096,-0.143 -0.013,-0.066 -0.077,-0.109 -0.143,-0.096 l -1.245,0.244 -0.169,-0.861 c -0.013,-0.066 -0.077,-0.109 -0.143,-0.096 -0.066,0.013 -0.109,0.077 -0.096,0.143 z"
   id="path988" />
					<path
   fill="#3c3c3b"
   d="m 170.508,256.83 c 0.066,-0.013 0.109,-0.077 0.096,-0.143 l -0.207,-1.056 -1.88,0.369 c -0.066,0.013 -0.109,0.077 -0.096,0.143 0.013,0.066 0.077,0.109 0.143,0.096 l 1.642,-0.322 0.161,0.818 c 0.012,0.065 0.076,0.108 0.141,0.095 z"
   id="path990" />
				</g>
			</g>
			<path
   fill="#3c3c3b"
   d="m 170.149,254.292 c 0.044,-0.009 0.072,-0.051 0.064,-0.095 l -0.191,-0.973 c -0.009,-0.044 -0.051,-0.072 -0.095,-0.064 -0.044,0.009 -0.072,0.051 -0.064,0.095 l 0.191,0.973 c 0.008,0.044 0.051,0.073 0.095,0.064 z"
   id="path996" />
			<path
   fill="#3c3c3b"
   d="m 170.619,254.2 c 0.044,-0.009 0.072,-0.051 0.064,-0.095 l -0.191,-0.973 c -0.009,-0.044 -0.051,-0.072 -0.095,-0.064 -0.044,0.009 -0.072,0.051 -0.064,0.095 l 0.191,0.973 c 0.008,0.044 0.051,0.073 0.095,0.064 z"
   id="path998" />
			<path
   fill="#3c3c3b"
   d="m 170.442,255.128 0.233,-0.046 c 0.218,-0.043 0.361,-0.255 0.318,-0.473 l -0.125,-0.635 c -0.043,-0.218 -0.255,-0.361 -0.473,-0.318 l -0.233,0.046 c -0.218,0.043 -0.361,0.255 -0.318,0.473 l 0.125,0.635 c 0.043,0.218 0.255,0.361 0.473,0.318 z"
   id="path1000" />
			<path
   fill="#3c3c3b"
   d="m 170.715,257.095 0.451,-0.089 c 0.422,-0.083 0.697,-0.493 0.615,-0.915 l -0.241,-1.229 c -0.083,-0.422 -0.492,-0.697 -0.915,-0.614 l -0.451,0.089 c -0.422,0.083 -0.697,0.492 -0.615,0.915 l 0.241,1.229 c 0.083,0.422 0.493,0.697 0.915,0.614 z"
   id="path1002" />
		</g>
	</g></g>






</svg>
