<?xml version="1.0" encoding="UTF-8" standalone="no"?>
<!-- Generator: Adobe Illustrator 25.1.0, SVG Export Plug-In . SVG Version: 6.00 Build 0)  -->

<svg
   version="1.1"
   id="Layer_1"
   x="0px"
   y="0px"
   viewBox="0 0 350 150"
   xml:space="preserve"
   sodipodi:docname="electricien.svg"
   inkscape:version="1.1 (c68e22c387, 2021-05-23)"
   width="350"
   height="150"
   xmlns:inkscape="http://www.inkscape.org/namespaces/inkscape"
   xmlns:sodipodi="http://sodipodi.sourceforge.net/DTD/sodipodi-0.dtd"
   xmlns="http://www.w3.org/2000/svg"
   xmlns:svg="http://www.w3.org/2000/svg"><defs
   id="defs1067">
	
	

		
		
		
		
	
		
		
	
				
				
			
					
					
				
						
						
					
							
							
							
						
							
							
							
							
						
								
								
								
								
								
								
								
								
								
								
							
									
									
									
									
									
								</defs><sodipodi:namedview
   id="namedview1065"
   pagecolor="#505050"
   bordercolor="#eeeeee"
   borderopacity="1"
   inkscape:pageshadow="0"
   inkscape:pageopacity="0"
   inkscape:pagecheckerboard="0"
   showgrid="false"
   inkscape:zoom="1.0253048"
   inkscape:cx="369.15851"
   inkscape:cy="190.675"
   inkscape:window-width="1920"
   inkscape:window-height="1001"
   inkscape:window-x="-9"
   inkscape:window-y="-9"
   inkscape:window-maximized="1"
   inkscape:current-layer="g1058"
   width="350px"
   borderlayer="true" />
<style
   type="text/css"
   id="style2">
	.st0{fill:#FFFFFF;}
	.st1{fill:#59968A;}
	.st2{fill:#FFF1DC;}
	.st3{fill:#6ABAAB;}
	.st4{fill:#566768;}
	.st5{opacity:0.5;fill:#4D5159;}
	.st6{fill:#A4A9BC;}
	.st7{fill:#797D8C;}
	.st8{fill:#DFE6F4;}
	.st9{fill:#4D5159;}
	.st10{fill:#F4A514;}
	.st11{fill:#1C1D21;}
	.st12{fill:#C8CFDF;}
	.st13{fill:#878D99;}
	.st14{fill:#435C6D;}
	.st15{fill:#394F5B;}
	.st16{fill:#131414;}
	.st17{fill:#282A2B;}
	.st18{fill:#75DB75;}
	.st19{fill:#FF1717;}
	.st20{fill:#091E96;}
	.st21{fill:#FFEF5C;}
	.st22{fill:#3F4142;}
	.st23{fill:#616566;}
	.st24{fill:#AE4647;}
	.st25{fill:#F9644E;}
	.st26{fill:#A5A246;}
	.st27{fill:#FFFF8D;}
	.st28{fill:#424547;}
	.st29{fill:#252728;}
	.st30{fill:#5A5E60;}
	.st31{fill:#3683FF;}
	.st32{fill:#2D3535;}
	.st33{fill:#FF7110;}
	.st34{opacity:0.6;}
	.st35{fill:#39414E;}
	.st36{fill:#1A1E23;}
	.st37{fill:#FC9568;}
	.st38{fill:#EF7950;}
	.st39{fill:#09191E;}
	.st40{fill:#FDC33D;}
	.st41{fill:#161719;}
	.st42{fill:#F22A2A;}
	.st43{fill:#B9BCBA;}
	.st44{fill:#0FA6E4;}
	.st45{fill:#2EC2FF;}
	.st46{fill:#050F11;}
	.st47{fill:#06090A;}
	.st48{fill:#2B1615;}
	.st49{fill:#686666;}
	.st50{opacity:0.8;}
	.st51{fill:#CECECE;}
	.st52{opacity:0.4;}
	.st53{fill:#FF541F;}
	.st54{fill:#D83D13;}
	.st55{fill:#0679B2;}
	.st56{fill:#0E4459;}
	.st57{fill:#0EA3DD;}
	.st58{fill:#6D462B;}
	.st59{opacity:0.5;fill:#6D462B;}
	.st60{fill:#8B5D39;}
	.st61{fill:#AD6D42;}
	.st62{opacity:0.5;}
</style>


<g
   id="g1058"
   transform="translate(857.16803,-87.52741)">
			
			<rect
   style="opacity:0.990228;fill:#f2f2f2;fill-opacity:1;stroke-width:0.0514508;stroke-linecap:round;stroke-linejoin:round;stroke-opacity:0.0203252;paint-order:stroke fill markers"
   id="rect3443"
   width="382.41339"
   height="123.49281"
   x="-857.72742"
   y="80.968102" /><rect
   style="opacity:0.990228;fill:#334881;fill-opacity:1;stroke-width:0.0496234;stroke-linecap:round;stroke-linejoin:round;stroke-opacity:0.0203252;paint-order:stroke fill markers"
   id="rect3441"
   width="382.41345"
   height="100.35504"
   x="-857.72742"
   y="204.46091" /><rect
   style="opacity:0.990228;fill:#ffffa8;fill-opacity:1;stroke-width:0.0542977;stroke-linecap:round;stroke-linejoin:round;stroke-opacity:0.0203252;paint-order:stroke fill markers"
   id="rect5453"
   width="382.41345"
   height="8.1299515"
   x="-857.72742"
   y="204.46091" /><g
   id="g758"
   transform="matrix(0.30351337,0,0,0.24791466,-845.04822,76.125496)">
			<polygon
   class="st5"
   points="673.4,566.6 682.3,566.6 795.5,566.6 805.8,566.6 805.8,108.3 795.5,108.3 682.3,108.3 673.4,108.3 672,108.3 449.8,108.3 439.5,108.3 326.3,108.3 316,108.3 316,566.6 326.3,566.6 439.5,566.6 449.8,566.6 672,566.6 "
   id="polygon18" />
			<g
   id="g750">
				<g
   id="g66">
					<g
   id="g26">
						<rect
   x="334.20001"
   y="108.3"
   class="st6"
   width="143.8"
   height="458.20001"
   id="rect20" />
						<rect
   x="466.89999"
   y="108.3"
   class="st7"
   width="11.1"
   height="458.20001"
   id="rect22" />
						<rect
   x="334.20001"
   y="108.3"
   class="st8"
   width="11.1"
   height="458.20001"
   id="rect24" />
					</g>
					<g
   id="g52">
						<g
   id="g32">
							<path
   class="st9"
   d="m 451.1,255.7 c 0,4.4 -3.5,7.9 -7.9,7.9 h -71.1 c -4.4,0 -7.9,-3.5 -7.9,-7.9 v -3.2 c 0,-4.4 3.5,-7.9 7.9,-7.9 h 71.1 c 4.4,0 7.9,3.5 7.9,7.9 z"
   id="path28" />
							<path
   class="st6"
   d="m 451.1,247.4 c 0,4.4 -3.5,7.9 -7.9,7.9 h -71.1 c -4.4,0 -7.9,-3.5 -7.9,-7.9 v -3.2 c 0,-4.4 3.5,-7.9 7.9,-7.9 h 71.1 c 4.4,0 7.9,3.5 7.9,7.9 z"
   id="path30" />
						</g>
						<g
   id="g38">
							<path
   class="st9"
   d="m 451.1,296.8 c 0,4.4 -3.5,7.9 -7.9,7.9 h -71.1 c -4.4,0 -7.9,-3.5 -7.9,-7.9 v -3.2 c 0,-4.4 3.5,-7.9 7.9,-7.9 h 71.1 c 4.4,0 7.9,3.5 7.9,7.9 z"
   id="path34" />
							<path
   class="st6"
   d="m 451.1,288.5 c 0,4.4 -3.5,7.9 -7.9,7.9 h -71.1 c -4.4,0 -7.9,-3.5 -7.9,-7.9 v -3.2 c 0,-4.4 3.5,-7.9 7.9,-7.9 h 71.1 c 4.4,0 7.9,3.5 7.9,7.9 z"
   id="path36" />
						</g>
						<g
   id="g44">
							<path
   class="st9"
   d="m 451.1,336.7 c 0,4.4 -3.5,7.9 -7.9,7.9 h -71.1 c -4.4,0 -7.9,-3.5 -7.9,-7.9 v -3.2 c 0,-4.4 3.5,-7.9 7.9,-7.9 h 71.1 c 4.4,0 7.9,3.5 7.9,7.9 z"
   id="path40" />
							<path
   class="st6"
   d="m 451.1,328.4 c 0,4.4 -3.5,7.9 -7.9,7.9 h -71.1 c -4.4,0 -7.9,-3.5 -7.9,-7.9 v -3.2 c 0,-4.4 3.5,-7.9 7.9,-7.9 h 71.1 c 4.4,0 7.9,3.5 7.9,7.9 z"
   id="path42" />
						</g>
						<g
   id="g50">
							<path
   class="st9"
   d="m 451.1,378.1 c 0,4.4 -3.5,7.9 -7.9,7.9 h -71.1 c -4.4,0 -7.9,-3.5 -7.9,-7.9 V 375 c 0,-4.4 3.5,-7.9 7.9,-7.9 h 71.1 c 4.4,0 7.9,3.5 7.9,7.9 z"
   id="path46" />
							<path
   class="st6"
   d="m 451.1,369.9 c 0,4.4 -3.5,7.9 -7.9,7.9 h -71.1 c -4.4,0 -7.9,-3.5 -7.9,-7.9 v -3.2 c 0,-4.4 3.5,-7.9 7.9,-7.9 h 71.1 c 4.4,0 7.9,3.5 7.9,7.9 z"
   id="path48" />
						</g>
					</g>
					<rect
   x="345.79999"
   y="430.29999"
   class="st7"
   width="130.39999"
   height="8.3000002"
   id="rect54" />
					<g
   id="g64">
						<g
   id="g60">
							<polygon
   class="st10"
   points="408.4,140.4 444.8,203.4 372,203.4 "
   id="polygon56" />
							<path
   class="st11"
   d="m 447.2,204.8 h -77.6 l 38.8,-67.2 z M 374.4,202 h 68 l -34,-58.9 z"
   id="path58" />
						</g>
						<polygon
   class="st11"
   points="402.2,177.7 410.5,177.7 407.9,196.6 415.9,174.8 407,174.8 408.1,154.9 "
   id="polygon62" />
					</g>
				</g>
				<g
   id="g104">
					<g
   id="g74">
						<rect
   x="716.59998"
   y="108.3"
   class="st6"
   width="143.8"
   height="458.20001"
   id="rect68" />
						<rect
   x="716.59998"
   y="108.3"
   class="st7"
   width="11.1"
   height="458.20001"
   id="rect70" />
						<rect
   x="849.29999"
   y="108.3"
   class="st8"
   width="11.1"
   height="458.20001"
   id="rect72" />
					</g>
					<g
   id="g100">
						<g
   id="g80">
							<path
   class="st9"
   d="m 743.4,255.7 c 0,4.4 3.5,7.9 7.9,7.9 h 71.1 c 4.4,0 7.9,-3.5 7.9,-7.9 v -3.2 c 0,-4.4 -3.5,-7.9 -7.9,-7.9 h -71.1 c -4.4,0 -7.9,3.5 -7.9,7.9 z"
   id="path76" />
							<path
   class="st6"
   d="m 743.4,247.4 c 0,4.4 3.5,7.9 7.9,7.9 h 71.1 c 4.4,0 7.9,-3.5 7.9,-7.9 v -3.2 c 0,-4.4 -3.5,-7.9 -7.9,-7.9 h -71.1 c -4.4,0 -7.9,3.5 -7.9,7.9 z"
   id="path78" />
						</g>
						<g
   id="g86">
							<path
   class="st9"
   d="m 743.4,296.8 c 0,4.4 3.5,7.9 7.9,7.9 h 71.1 c 4.4,0 7.9,-3.5 7.9,-7.9 v -3.2 c 0,-4.4 -3.5,-7.9 -7.9,-7.9 h -71.1 c -4.4,0 -7.9,3.5 -7.9,7.9 z"
   id="path82" />
							<path
   class="st6"
   d="m 743.4,288.5 c 0,4.4 3.5,7.9 7.9,7.9 h 71.1 c 4.4,0 7.9,-3.5 7.9,-7.9 v -3.2 c 0,-4.4 -3.5,-7.9 -7.9,-7.9 h -71.1 c -4.4,0 -7.9,3.5 -7.9,7.9 z"
   id="path84" />
						</g>
						<g
   id="g92">
							<path
   class="st9"
   d="m 743.4,336.7 c 0,4.4 3.5,7.9 7.9,7.9 h 71.1 c 4.4,0 7.9,-3.5 7.9,-7.9 v -3.2 c 0,-4.4 -3.5,-7.9 -7.9,-7.9 h -71.1 c -4.4,0 -7.9,3.5 -7.9,7.9 z"
   id="path88" />
							<path
   class="st6"
   d="m 743.4,328.4 c 0,4.4 3.5,7.9 7.9,7.9 h 71.1 c 4.4,0 7.9,-3.5 7.9,-7.9 v -3.2 c 0,-4.4 -3.5,-7.9 -7.9,-7.9 h -71.1 c -4.4,0 -7.9,3.5 -7.9,7.9 z"
   id="path90" />
						</g>
						<g
   id="g98">
							<path
   class="st9"
   d="m 743.4,378.1 c 0,4.4 3.5,7.9 7.9,7.9 h 71.1 c 4.4,0 7.9,-3.5 7.9,-7.9 V 375 c 0,-4.4 -3.5,-7.9 -7.9,-7.9 h -71.1 c -4.4,0 -7.9,3.5 -7.9,7.9 z"
   id="path94" />
							<path
   class="st6"
   d="m 743.4,369.9 c 0,4.4 3.5,7.9 7.9,7.9 h 71.1 c 4.4,0 7.9,-3.5 7.9,-7.9 v -3.2 c 0,-4.4 -3.5,-7.9 -7.9,-7.9 h -71.1 c -4.4,0 -7.9,3.5 -7.9,7.9 z"
   id="path96" />
						</g>
					</g>
					<rect
   x="718.29999"
   y="430.29999"
   class="st7"
   width="130.39999"
   height="8.3000002"
   id="rect102" />
				</g>
				<g
   id="g748">
					<polygon
   class="st12"
   points="703.9,548.9 492.2,548.9 492.2,126 669.2,126 669.2,125.7 703.9,125.7 "
   id="polygon106" />
					<rect
   x="492.20001"
   y="126"
   class="st13"
   width="211.7"
   height="422.89999"
   id="rect108" />
					<rect
   x="669.20001"
   y="125.7"
   class="st9"
   width="34.799999"
   height="423.20001"
   id="rect110" />
					<polygon
   class="st5"
   points="703.9,126 670.7,154.1 492.2,154.1 492.2,126 "
   id="polygon112" />
					<g
   id="g126">
						<g
   id="g118">
							<path
   class="st14"
   d="m 559.1,150.6 c -19.6,0 -39.2,0 -58.9,0 -5,0 -10.1,0 -15.1,0 -3.2,0 -5.9,2.7 -5.9,5.9 0,15.3 0,30.6 0,45.9 0,24.1 0,48.1 0,72.2 0,5.1 0,10.2 0,15.3 0,3.2 2.7,5.9 5.9,5.9 19.6,0 39.2,0 58.9,0 4.2,0 8.3,0 12.5,0 0.8,0 1.7,0 2.5,0 4.7,0 8.8,-2.3 11.5,-6 2.2,-3.1 2.5,-6.6 2.5,-10.2 0,-3.2 0,-6.3 0,-9.5 0,-23.9 0,-47.8 0,-71.7 0,-9.1 0,-18.2 0,-27.3 0,-2.1 0,-4.1 0,-6.2 -0.1,-7.8 -6,-14 -13.9,-14.3 -3.2,-0.1 -5.9,2.8 -5.9,5.9 0,3.3 2.7,5.8 5.9,5.9 1.7,0.1 -1.1,-0.3 0.5,0.1 1.5,0.4 -0.9,-0.5 0.5,0.2 1.4,0.7 -0.7,-0.7 0.4,0.3 1.1,1.1 -0.5,-0.9 0.3,0.4 0.8,1.3 -0.3,-1 0.2,0.5 0.5,1.5 0,-1.1 0.1,0.5 0,0 0,0.1 0,0.1 0,0.5 0,1.1 0,1.6 0,2.9 0,5.8 0,8.7 0,10.7 0,21.5 0,32.2 0,22.8 0,45.5 0,68.3 0,2.1 0,4.2 0,6.4 0,0.1 0,0.2 0,0.4 0,1.7 0.3,-1 -0.1,0.5 -0.4,1.5 0.5,-0.9 -0.2,0.5 -0.4,0.6 -0.4,0.6 0,0 -0.2,0.3 -0.5,0.5 -0.7,0.7 0.9,-0.9 -0.2,0.1 -0.5,0.2 1.1,-0.6 -0.3,0 -0.5,0.1 0.9,-0.2 0.4,-0.1 -0.1,-0.1 -0.2,0 -0.5,0 -0.7,0 -9,0 -17.9,0 -26.9,0 -15.5,0 -30.9,0 -46.4,0 2,2 4,4 5.9,5.9 0,-15.3 0,-30.6 0,-45.9 0,-24.1 0,-48.1 0,-72.2 0,-5.1 0,-10.2 0,-15.3 -2,2 -4,3.9 -5.9,5.9 19.6,0 39.2,0 58.9,0 5,0 10.1,0 15.1,0 7.7,0 7.7,-11.8 0.1,-11.8 z"
   id="path114" />
							<path
   class="st15"
   d="m 581.2,304.4 c -0.1,1.7 0.3,-1.1 -0.1,0.5 -0.4,1.5 0.5,-0.9 -0.2,0.5 -0.7,1.4 0.7,-0.7 -0.3,0.4 -1.1,1.1 0.9,-0.5 -0.4,0.3 -1.3,0.8 1,-0.3 -0.5,0.2 -1.5,0.5 1.1,0 -0.5,0.1 0,0 -0.1,0 -0.1,0 -0.8,0 -1.7,0 -2.5,0 -4.1,0 -8.3,0 -12.4,0 -12.5,0 -25.1,0 -37.6,0 -7.4,0 -14.8,0 -22.3,0 -1.7,0 1,0.3 -0.5,-0.1 -1.5,-0.4 0.9,0.5 -0.5,-0.2 -1.4,-0.7 0.7,0.7 -0.4,-0.3 -1.1,-1.1 0.5,0.9 -0.3,-0.4 -0.8,-1.3 0.3,1 -0.2,-0.5 -0.4,-1.4 -0.1,1 -0.1,-0.6 0,-0.5 0,-0.9 0,-1.4 0,-2.8 0,-5.5 0,-8.3 0,-23.5 0,-47 0,-70.6 0,-10 0,-20 0,-30 0,-2.3 0,-4.5 0,-6.8 0,-0.2 0,-0.3 0,-0.5 0,0 0,0 0,-0.1 0,-1.7 -0.3,1.1 0.1,-0.5 0.2,-0.7 0.2,-0.7 0,0 0.2,-0.3 0.3,-0.6 0.5,-0.9 -0.7,1.1 0.2,-0.1 0.4,-0.3 -0.9,0.9 0.2,-0.1 0.5,-0.2 -1.1,0.6 0.3,0 0.5,-0.1 -0.5,0.1 -0.9,0.1 0,0.1 0.2,0 0.3,0 0.5,0 20.9,0 41.9,0 62.8,0 3.5,0 7,0 10.5,0 0.3,0 0.6,0 0.9,0 0.1,0 0.1,0 0.2,0 0,0 0,0 0,0 0.7,0 0.7,0 0,-0.1 0.3,0.1 0.7,0.2 1,0.3 -1.2,-0.4 0.2,0.2 0.4,0.3 -1.1,-0.7 0.1,0.2 0.3,0.4 -0.9,-0.9 0.1,0.2 0.2,0.5 -0.6,-1.1 0,0.3 0.1,0.5 -0.3,-1.1 -0.1,-0.1 -0.1,0.2 0,6 0,12 0,18 0,24.5 0,49 0,73.5 0.1,8.7 0.1,17.4 0.1,26.1 0,7.6 11.9,7.6 11.9,0 0,-16.5 0,-33.1 0,-49.6 0,-21.5 0,-43 0,-64.5 0,-2.1 0.1,-4.2 -0.3,-6.3 -1,-6.2 -6.4,-10.5 -12.5,-11.1 -0.8,-0.1 -1.6,-0.1 -2.5,-0.1 -9.5,0 -19,0 -28.4,0 -12,0 -24,0 -36,0 -2.9,0 -5.8,0 -8.7,0 -7.7,0 -14.2,6.1 -14.2,13.9 0,17.5 0,35.1 0,52.6 0,20.8 0,41.6 0,62.4 0,3.5 0.2,6.8 2.2,9.9 2.5,4 7.1,6.4 11.8,6.4 0.8,0 1.6,0 2.4,0 10.2,0 20.3,0 30.5,0 11,0 21.9,0 32.9,0 2.8,0 5.6,0 8.4,0 8,0 14.2,-5.8 14.5,-13.8 0.1,-3.2 -2.8,-5.9 -5.9,-5.9 -3.5,0.2 -6,2.9 -6.1,6.1 z"
   id="path116" />
						</g>
						<g
   id="g124">
							<path
   class="st15"
   d="m 667.3,150.6 c -19.6,0 -39.2,0 -58.9,0 -5,0 -10.1,0 -15.1,0 -3.2,0 -5.9,2.7 -5.9,5.9 0,15.3 0,30.6 0,45.9 0,24.1 0,48.1 0,72.2 0,5.1 0,10.2 0,15.3 0,3.2 2.7,5.9 5.9,5.9 19.6,0 39.2,0 58.9,0 4.2,0 8.3,0 12.5,0 0.8,0 1.7,0 2.5,0 4.7,0 8.8,-2.3 11.5,-6 2.2,-3.1 2.5,-6.6 2.5,-10.2 0,-3.2 0,-6.3 0,-9.5 0,-23.9 0,-47.8 0,-71.7 0,-9.1 0,-18.2 0,-27.3 0,-2.1 0,-4.1 0,-6.2 -0.1,-7.8 -5.9,-14 -13.9,-14.3 -3.2,-0.1 -5.9,2.8 -5.9,5.9 0,3.3 2.7,5.8 5.9,5.9 1.7,0.1 -1.1,-0.3 0.5,0.1 1.5,0.4 -0.9,-0.5 0.5,0.2 1.4,0.7 -0.7,-0.7 0.4,0.3 1.1,1.1 -0.5,-0.9 0.3,0.4 0.8,1.3 -0.3,-1 0.2,0.5 0.5,1.5 0,-1.1 0.1,0.5 0,0 0,0.1 0,0.1 0,0.5 0,1.1 0,1.6 0,2.9 0,5.8 0,8.7 0,10.7 0,21.5 0,32.2 0,22.8 0,45.5 0,68.3 0,2.1 0,4.2 0,6.4 0,0.1 0,0.2 0,0.4 0,1.7 0.3,-1 -0.1,0.5 -0.4,1.5 0.5,-0.9 -0.2,0.5 -0.4,0.6 -0.4,0.6 0,0 -0.2,0.3 -0.5,0.5 -0.7,0.7 0.9,-0.9 -0.2,0.1 -0.5,0.2 1.1,-0.6 -0.3,0 -0.5,0.1 0.9,-0.2 0.4,-0.1 -0.1,-0.1 -0.2,0 -0.5,0 -0.7,0 -9,0 -17.9,0 -26.9,0 -15.5,0 -30.9,0 -46.4,0 2,2 4,4 5.9,5.9 0,-15.3 0,-30.6 0,-45.9 0,-24.1 0,-48.1 0,-72.2 0,-5.1 0,-10.2 0,-15.3 -2,2 -4,3.9 -5.9,5.9 19.6,0 39.2,0 58.9,0 5,0 10.1,0 15.1,0 7.8,0 7.8,-11.8 0.1,-11.8 z"
   id="path120" />
							<path
   class="st14"
   d="m 689.4,304.4 c -0.1,1.7 0.3,-1.1 -0.1,0.5 -0.4,1.5 0.5,-0.9 -0.2,0.5 -0.7,1.4 0.7,-0.7 -0.3,0.4 -1.1,1.1 0.9,-0.5 -0.4,0.3 -1.3,0.8 1,-0.3 -0.5,0.2 -1.5,0.5 1.1,0 -0.5,0.1 0,0 -0.1,0 -0.1,0 -0.8,0 -1.7,0 -2.5,0 -4.1,0 -8.3,0 -12.4,0 -12.5,0 -25.1,0 -37.6,0 -7.4,0 -14.8,0 -22.3,0 -1.7,0 1,0.3 -0.5,-0.1 -1.5,-0.4 0.9,0.5 -0.5,-0.2 -1.4,-0.7 0.7,0.7 -0.4,-0.3 -1.1,-1.1 0.5,0.9 -0.3,-0.4 -0.8,-1.3 0.3,1 -0.2,-0.5 -0.4,-1.4 -0.1,1 -0.1,-0.6 0,-0.5 0,-0.9 0,-1.4 0,-2.8 0,-5.5 0,-8.3 0,-23.5 0,-47 0,-70.6 0,-10 0,-20 0,-30 0,-2.3 0,-4.5 0,-6.8 0,-0.2 0,-0.3 0,-0.5 0,0 0,0 0,-0.1 0,-1.7 -0.3,1.1 0.1,-0.5 0.2,-0.7 0.2,-0.7 0,0 0.2,-0.3 0.3,-0.6 0.5,-0.9 -0.7,1.1 0.2,-0.1 0.4,-0.3 -0.9,0.9 0.2,-0.1 0.5,-0.2 -1.1,0.6 0.3,0 0.5,-0.1 -0.5,0.1 -0.9,0.1 0,0.1 0.2,0 0.3,0 0.5,0 20.9,0 41.9,0 62.8,0 3.5,0 7,0 10.5,0 0.3,0 0.6,0 0.9,0 0.1,0 0.1,0 0.2,0 0,0 0,0 0,0 0.7,0 0.7,0 0,-0.1 0.3,0.1 0.7,0.2 1,0.3 -1.2,-0.4 0.2,0.2 0.4,0.3 -1,-0.7 0.1,0.2 0.3,0.4 -0.9,-0.9 0.1,0.2 0.2,0.5 -0.6,-1.1 0,0.3 0.1,0.5 -0.3,-1.1 0,-0.1 0,0.2 0,6 0,12 0,18 0,24.5 0,49 0,73.5 0,8.7 0,17.4 0,26.1 0,7.6 11.9,7.6 11.9,0 0,-16.5 0,-33.1 0,-49.6 0,-21.5 0,-43 0,-64.5 0,-2.1 0.1,-4.2 -0.3,-6.3 -1,-6.2 -6.4,-10.5 -12.5,-11.1 -0.8,-0.1 -1.6,-0.1 -2.5,-0.1 -9.5,0 -19,0 -28.5,0 -12,0 -24,0 -36,0 -2.9,0 -5.8,0 -8.7,0 -7.7,0 -14.2,6.1 -14.2,13.9 0,17.5 0,35.1 0,52.6 0,20.8 0,41.6 0,62.4 0,3.5 0.2,6.8 2.2,9.9 2.5,4 7.1,6.4 11.8,6.4 0.8,0 1.6,0 2.4,0 10.2,0 20.3,0 30.5,0 11,0 21.9,0 32.9,0 2.8,0 5.6,0 8.4,0 8,0 14.2,-5.8 14.5,-13.8 0.1,-3.2 -2.8,-5.9 -5.9,-5.9 -3.4,0.2 -5.9,2.9 -6,6.1 z"
   id="path122" />
						</g>
					</g>
					<g
   id="g132">
						<rect
   x="532.90002"
   y="196.8"
   class="st16"
   width="94.800003"
   height="352"
   id="rect128" />
						<rect
   x="542.29999"
   y="196.8"
   class="st17"
   width="94.800003"
   height="352"
   id="rect130" />
					</g>
					<path
   class="st0"
   d="m 530.4,557.2 c -0.4,0 -0.7,0 -1.1,0 -5.4,-0.5 -10,-4.2 -13.5,-10.8 -6.2,-11.7 -7.2,-28.4 -8,-41.8 -0.1,-1.3 -0.1,-2.5 -0.2,-3.7 -1.2,-18.7 -1.6,-38 3.2,-52.4 l 2.2,0.8 c -4.7,14 -4.3,33 -3.1,51.5 0.1,1.2 0.1,2.5 0.2,3.7 0.8,13.2 1.7,29.6 7.7,40.9 3.1,5.8 7.1,9.1 11.6,9.5 4.7,0.4 9.7,-2.4 14,-8 10.3,-13.2 12.3,-35.7 13.8,-52.1 v -0.2 c 1.6,-17.9 2.4,-33.9 2.4,-48.9 h 2.4 c 0,15 -0.8,31.1 -2.4,49.1 v 0.2 c -1.5,16.7 -3.5,39.5 -14.3,53.3 -4.4,5.8 -9.7,8.9 -14.9,8.9 z"
   id="path134" />
					<g
   id="g146">
						<path
   class="st18"
   d="m 638.4,470 -1.9,-3.5 c 20.3,-11.3 20.3,-27.3 20.3,-45.9 v -32.4 c 0,-51.5 0,-147.4 0,-158.7 0,-8.6 -0.4,-17.4 -5.6,-22 -3.2,-2.9 -8.1,-3.9 -14.8,-3.1 l -0.5,-3.9 c 7.8,-0.9 13.8,0.4 17.8,4.1 6.4,5.7 6.9,15.4 6.9,24.9 0,11.3 0,107.2 0,158.7 v 32.4 c 0,9.5 0,18.4 -2.8,26.9 -3,9.6 -9.4,16.9 -19.4,22.5 z"
   id="path136" />
						<path
   class="st19"
   d="m 638.4,491.1 -1.9,-3.5 c 20.3,-11.3 20.3,-27.3 20.3,-45.9 v -32.4 c 0,-51.5 0,-147.4 0,-158.7 0,-8.6 -0.4,-17.4 -5.6,-22 -3.2,-2.9 -8.1,-3.9 -14.8,-3.1 l -0.5,-3.9 c 7.8,-0.9 13.8,0.4 17.8,4.1 6.4,5.7 6.9,15.4 6.9,24.9 0,11.3 0,107.2 0,158.7 v 32.4 c 0,9.5 0,18.4 -2.8,26.9 -3,9.6 -9.4,16.9 -19.4,22.5 z"
   id="path138" />
						<path
   class="st20"
   d="m 637.5,542.9 -0.4,-4.7 c 20.4,-11.8 25.6,-31 25.6,-50.4 v -33.7 c 0,-53.7 0,-153.8 0,-165.5 0,-9.1 -0.4,-18.4 -5.8,-23.2 -3.2,-2.8 -8,-3.8 -14.5,-3 l -0.5,-3.9 c 7.6,-0.9 13.6,0.4 17.6,4 6.6,5.8 7.1,16.1 7.1,26.1 0,11.7 0,111.8 0,165.5 v 33.7 c 0,9.9 0,19.2 -2.7,28 -3.1,9.8 -16.3,21.2 -26.4,27.1 z"
   id="path140" />
						<path
   class="st21"
   d="m 632.8,556.7 -1.9,-3.5 c 20.3,-11.3 20.3,-27.3 20.3,-45.9 v -32.4 c 0,-51.5 0,-147.4 0,-158.7 0,-8.6 -0.4,-17.4 -5.6,-22 -3.2,-2.9 -8,-3.9 -14.8,-3.1 l -0.5,-3.9 c 7.8,-0.9 13.8,0.4 17.8,4.1 6.4,5.7 6.9,15.4 6.9,24.9 0,11.3 0,107.2 0,158.7 v 32.4 c 0,9.5 0,18.4 -2.8,26.9 -2.9,9.6 -9.3,16.9 -19.4,22.5 z"
   id="path142" />
						<path
   class="st0"
   d="m 637.2,502.3 -1.2,-2.1 c 20.7,-11.5 20.7,-28.5 20.7,-46.6 v -32.4 c 0,-51.5 0,-147.4 0,-158.7 0,-8.8 -0.4,-17.7 -5.8,-22.5 -3.4,-3 -8.4,-4.1 -15.4,-3.3 l -0.3,-2.4 c 7.7,-0.9 13.3,0.4 17.2,3.9 6.1,5.5 6.6,15 6.6,24.3 0,11.3 0,107.2 0,158.7 v 32.4 c 0.1,18.8 0.1,36.5 -21.8,48.7 z"
   id="path144" />
					</g>
					<path
   class="st0"
   d="m 623.7,546.9 c -0.4,0 -0.7,0 -1.1,0 -5.4,-0.5 -10,-4.2 -13.5,-10.8 -6.2,-11.7 -7.2,-28.4 -8,-41.8 -0.1,-1.3 -0.1,-2.5 -0.2,-3.7 -1.2,-18.7 -1.6,-38 3.2,-52.4 l 2.2,0.8 c -4.7,14 -4.3,33 -3.1,51.5 0.1,1.2 0.1,2.5 0.2,3.7 0.8,13.2 1.7,29.6 7.7,40.9 3.1,5.8 7.1,9.1 11.6,9.5 4.7,0.4 9.7,-2.4 14,-8 10.3,-13.2 12.3,-35.7 13.8,-52.1 v -0.2 c 1.6,-17.9 2.4,-33.9 2.4,-48.9 h 2.4 c 0,15 -0.8,31.1 -2.4,49.1 v 0.2 c -1.5,16.7 -3.5,39.5 -14.3,53.3 -4.4,5.8 -9.7,8.9 -14.9,8.9 z"
   id="path148" />
					<path
   class="st0"
   d="m 533.6,544.6 c -0.4,0 -0.9,0 -1.3,-0.1 -5.3,-0.5 -9.9,-3.8 -13.3,-9.6 -6.2,-10.5 -7.2,-25.4 -8,-37.4 -0.1,-1.1 -0.1,-2.2 -0.2,-3.3 -1.2,-16.7 -1.6,-34 3.2,-46.9 l 2.2,0.8 c -5.3,14.2 -3.8,35.6 -3.1,45.9 0.1,1.1 0.1,2.2 0.2,3.3 0.8,11.7 1.7,26.3 7.7,36.4 3,5.1 7,8.1 11.5,8.5 4.8,0.4 9.9,-2.1 14.2,-7.1 10.3,-11.8 12.3,-31.8 13.7,-46.4 v -0.2 c 1.6,-16 2.4,-30.3 2.4,-43.6 h 2.4 c 0,13.4 -0.8,27.8 -2.4,43.8 v 0.2 c -1.5,14.9 -3.5,35.4 -14.3,47.7 -4.5,5.2 -9.7,8 -14.9,8 z"
   id="path150" />
					<g
   id="g394">
						<g
   id="g172">
							<g
   id="g156">
								<path
   class="st22"
   d="m 577,199 v 12.7 c 0,4 -3.2,7.2 -7.2,7.2 h -62.6 c -4,0 -7.2,-3.2 -7.2,-7.2 V 199 c 0,-4 3.2,-7.2 7.2,-7.2 h 62.6 c 3.9,0 7.2,3.2 7.2,7.2 z"
   id="path152" />
								<path
   class="st23"
   d="m 577,199 v 12.7 c 0,4 -3.2,7.2 -7.2,7.2 H 518 c -4,0 -7.2,-3.2 -7.2,-7.2 V 199 c 0,-4 3.2,-7.2 7.2,-7.2 h 51.7 c 4,0 7.3,3.2 7.3,7.2 z"
   id="path154" />
							</g>
							<g
   id="g170">
								<rect
   x="520.70001"
   y="199.3"
   class="st22"
   width="46.299999"
   height="10.1"
   id="rect158" />
								<polygon
   class="st5"
   points="540.3,209.4 534.8,214.2 529.7,214.2 529.7,209.4 "
   id="polygon160" />
								<rect
   x="563"
   y="199.3"
   class="st12"
   width="4"
   height="10.1"
   id="rect162" />
								<g
   id="g168">
									<rect
   x="529.70001"
   y="199.3"
   class="st24"
   width="7.1999998"
   height="10.1"
   id="rect164" />
									<rect
   x="533"
   y="199.3"
   class="st25"
   width="7.1999998"
   height="10.1"
   id="rect166" />
								</g>
							</g>
						</g>
						<g
   id="g194">
							<g
   id="g178">
								<path
   class="st22"
   d="m 577,229.2 v 12.7 c 0,4 -3.2,7.2 -7.2,7.2 h -62.6 c -4,0 -7.2,-3.2 -7.2,-7.2 v -12.7 c 0,-4 3.2,-7.2 7.2,-7.2 h 62.6 c 3.9,0 7.2,3.2 7.2,7.2 z"
   id="path174" />
								<path
   class="st23"
   d="m 577,229.2 v 12.7 c 0,4 -3.2,7.2 -7.2,7.2 H 518 c -4,0 -7.2,-3.2 -7.2,-7.2 v -12.7 c 0,-4 3.2,-7.2 7.2,-7.2 h 51.7 c 4,0 7.3,3.2 7.3,7.2 z"
   id="path176" />
							</g>
							<g
   id="g192">
								<rect
   x="520.70001"
   y="229.60001"
   class="st22"
   width="46.299999"
   height="10.1"
   id="rect180" />
								<polygon
   class="st5"
   points="540.3,239.6 534.8,244.4 529.7,244.4 529.7,239.6 "
   id="polygon182" />
								<rect
   x="563"
   y="229.60001"
   class="st12"
   width="4"
   height="10.1"
   id="rect184" />
								<g
   id="g190">
									<rect
   x="529.70001"
   y="229.60001"
   class="st24"
   width="7.1999998"
   height="10.1"
   id="rect186" />
									<rect
   x="533"
   y="229.60001"
   class="st25"
   width="7.1999998"
   height="10.1"
   id="rect188" />
								</g>
							</g>
						</g>
						<g
   id="g216">
							<g
   id="g200">
								<path
   class="st22"
   d="m 577,259.4 v 12.7 c 0,4 -3.2,7.2 -7.2,7.2 h -62.6 c -4,0 -7.2,-3.2 -7.2,-7.2 v -12.7 c 0,-4 3.2,-7.2 7.2,-7.2 h 62.6 c 3.9,0 7.2,3.2 7.2,7.2 z"
   id="path196" />
								<path
   class="st23"
   d="m 577,259.4 v 12.7 c 0,4 -3.2,7.2 -7.2,7.2 H 518 c -4,0 -7.2,-3.2 -7.2,-7.2 v -12.7 c 0,-4 3.2,-7.2 7.2,-7.2 h 51.7 c 4,0 7.3,3.2 7.3,7.2 z"
   id="path198" />
							</g>
							<g
   id="g214">
								<rect
   x="520.70001"
   y="259.79999"
   class="st22"
   width="46.299999"
   height="10.1"
   id="rect202" />
								<polygon
   class="st5"
   points="553.5,269.8 548.1,274.7 542.9,274.7 542.9,269.8 "
   id="polygon204" />
								<rect
   x="563"
   y="259.79999"
   class="st12"
   width="4"
   height="10.1"
   id="rect206" />
								<g
   id="g212">
									<rect
   x="543"
   y="259.79999"
   class="st26"
   width="7.1999998"
   height="10.1"
   id="rect208" />
									<rect
   x="546.29999"
   y="259.79999"
   class="st27"
   width="7.1999998"
   height="10.1"
   id="rect210" />
								</g>
							</g>
						</g>
						<g
   id="g238">
							<g
   id="g222">
								<path
   class="st22"
   d="m 577,289.6 v 12.7 c 0,4 -3.2,7.2 -7.2,7.2 h -62.6 c -4,0 -7.2,-3.2 -7.2,-7.2 v -12.7 c 0,-4 3.2,-7.2 7.2,-7.2 h 62.6 c 3.9,0 7.2,3.2 7.2,7.2 z"
   id="path218" />
								<path
   class="st23"
   d="m 577,289.6 v 12.7 c 0,4 -3.2,7.2 -7.2,7.2 H 518 c -4,0 -7.2,-3.2 -7.2,-7.2 v -12.7 c 0,-4 3.2,-7.2 7.2,-7.2 h 51.7 c 4,0 7.3,3.2 7.3,7.2 z"
   id="path220" />
							</g>
							<g
   id="g236">
								<rect
   x="520.70001"
   y="290"
   class="st22"
   width="46.299999"
   height="10.1"
   id="rect224" />
								<polygon
   class="st5"
   points="540.3,300.1 534.8,304.9 529.7,304.9 529.7,300.1 "
   id="polygon226" />
								<rect
   x="563"
   y="290"
   class="st12"
   width="4"
   height="10.1"
   id="rect228" />
								<g
   id="g234">
									<rect
   x="529.70001"
   y="290"
   class="st24"
   width="7.1999998"
   height="10.1"
   id="rect230" />
									<rect
   x="533"
   y="290"
   class="st25"
   width="7.1999998"
   height="10.1"
   id="rect232" />
								</g>
							</g>
						</g>
						<g
   id="g260">
							<g
   id="g244">
								<path
   class="st22"
   d="m 577,319.9 v 12.7 c 0,4 -3.2,7.2 -7.2,7.2 h -62.6 c -4,0 -7.2,-3.2 -7.2,-7.2 v -12.7 c 0,-4 3.2,-7.2 7.2,-7.2 h 62.6 c 3.9,-0.1 7.2,3.2 7.2,7.2 z"
   id="path240" />
								<path
   class="st23"
   d="m 577,319.9 v 12.7 c 0,4 -3.2,7.2 -7.2,7.2 H 518 c -4,0 -7.2,-3.2 -7.2,-7.2 v -12.7 c 0,-4 3.2,-7.2 7.2,-7.2 h 51.7 c 4,-0.1 7.3,3.2 7.3,7.2 z"
   id="path242" />
							</g>
							<g
   id="g258">
								<rect
   x="520.70001"
   y="320.20001"
   class="st22"
   width="46.299999"
   height="10.1"
   id="rect246" />
								<polygon
   class="st5"
   points="540.3,330.3 534.8,335.1 529.7,335.1 529.7,330.3 "
   id="polygon248" />
								<rect
   x="563"
   y="320.20001"
   class="st12"
   width="4"
   height="10.1"
   id="rect250" />
								<g
   id="g256">
									<rect
   x="529.70001"
   y="320.20001"
   class="st24"
   width="7.1999998"
   height="10.1"
   id="rect252" />
									<rect
   x="533"
   y="320.20001"
   class="st25"
   width="7.1999998"
   height="10.1"
   id="rect254" />
								</g>
							</g>
						</g>
						<g
   id="g282">
							<g
   id="g266">
								<path
   class="st22"
   d="m 577,350.1 v 12.7 c 0,4 -3.2,7.2 -7.2,7.2 h -62.6 c -4,0 -7.2,-3.2 -7.2,-7.2 v -12.7 c 0,-4 3.2,-7.2 7.2,-7.2 h 62.6 c 3.9,-0.1 7.2,3.2 7.2,7.2 z"
   id="path262" />
								<path
   class="st23"
   d="m 577,350.1 v 12.7 c 0,4 -3.2,7.2 -7.2,7.2 H 518 c -4,0 -7.2,-3.2 -7.2,-7.2 v -12.7 c 0,-4 3.2,-7.2 7.2,-7.2 h 51.7 c 4,-0.1 7.3,3.2 7.3,7.2 z"
   id="path264" />
							</g>
							<g
   id="g280">
								<rect
   x="520.70001"
   y="350.39999"
   class="st22"
   width="46.299999"
   height="10.1"
   id="rect268" />
								<polygon
   class="st5"
   points="555.6,360.5 550.2,365.3 545,365.3 545,360.5 "
   id="polygon270" />
								<rect
   x="563"
   y="350.39999"
   class="st12"
   width="4"
   height="10.1"
   id="rect272" />
								<g
   id="g278">
									<rect
   x="545.09998"
   y="350.39999"
   class="st26"
   width="7.1999998"
   height="10.1"
   id="rect274" />
									<rect
   x="548.40002"
   y="350.39999"
   class="st27"
   width="7.1999998"
   height="10.1"
   id="rect276" />
								</g>
							</g>
						</g>
						<g
   id="g304">
							<g
   id="g288">
								<path
   class="st22"
   d="M 577,380.3 V 393 c 0,4 -3.2,7.2 -7.2,7.2 h -62.6 c -4,0 -7.2,-3.2 -7.2,-7.2 v -12.7 c 0,-4 3.2,-7.2 7.2,-7.2 h 62.6 c 3.9,0 7.2,3.2 7.2,7.2 z"
   id="path284" />
								<path
   class="st23"
   d="M 577,380.3 V 393 c 0,4 -3.2,7.2 -7.2,7.2 H 518 c -4,0 -7.2,-3.2 -7.2,-7.2 v -12.7 c 0,-4 3.2,-7.2 7.2,-7.2 h 51.7 c 4,0 7.3,3.2 7.3,7.2 z"
   id="path286" />
							</g>
							<g
   id="g302">
								<rect
   x="520.70001"
   y="380.60001"
   class="st22"
   width="46.299999"
   height="10.1"
   id="rect290" />
								<polygon
   class="st5"
   points="540.3,390.7 534.8,395.5 529.7,395.5 529.7,390.7 "
   id="polygon292" />
								<rect
   x="563"
   y="380.60001"
   class="st12"
   width="4"
   height="10.1"
   id="rect294" />
								<g
   id="g300">
									<rect
   x="529.70001"
   y="380.60001"
   class="st24"
   width="7.1999998"
   height="10.1"
   id="rect296" />
									<rect
   x="533"
   y="380.60001"
   class="st25"
   width="7.1999998"
   height="10.1"
   id="rect298" />
								</g>
							</g>
						</g>
						<g
   id="g326">
							<g
   id="g310">
								<path
   class="st22"
   d="m 577,410.5 v 12.7 c 0,4 -3.2,7.2 -7.2,7.2 h -62.6 c -4,0 -7.2,-3.2 -7.2,-7.2 v -12.7 c 0,-4 3.2,-7.2 7.2,-7.2 h 62.6 c 3.9,0 7.2,3.2 7.2,7.2 z"
   id="path306" />
								<path
   class="st23"
   d="m 577,410.5 v 12.7 c 0,4 -3.2,7.2 -7.2,7.2 H 518 c -4,0 -7.2,-3.2 -7.2,-7.2 v -12.7 c 0,-4 3.2,-7.2 7.2,-7.2 h 51.7 c 4,0 7.3,3.2 7.3,7.2 z"
   id="path308" />
							</g>
							<g
   id="g324">
								<rect
   x="520.70001"
   y="410.89999"
   class="st22"
   width="46.299999"
   height="10.1"
   id="rect312" />
								<polygon
   class="st5"
   points="540.3,420.9 534.8,425.8 529.7,425.8 529.7,420.9 "
   id="polygon314" />
								<rect
   x="563"
   y="410.89999"
   class="st12"
   width="4"
   height="10.1"
   id="rect316" />
								<g
   id="g322">
									<rect
   x="529.70001"
   y="410.89999"
   class="st24"
   width="7.1999998"
   height="10.1"
   id="rect318" />
									<rect
   x="533"
   y="410.89999"
   class="st25"
   width="7.1999998"
   height="10.1"
   id="rect320" />
								</g>
							</g>
						</g>
						<g
   id="g348">
							<g
   id="g332">
								<path
   class="st22"
   d="m 577,440.7 v 12.7 c 0,4 -3.2,7.2 -7.2,7.2 h -62.6 c -4,0 -7.2,-3.2 -7.2,-7.2 v -12.7 c 0,-4 3.2,-7.2 7.2,-7.2 h 62.6 c 3.9,0 7.2,3.2 7.2,7.2 z"
   id="path328" />
								<path
   class="st23"
   d="m 577,440.7 v 12.7 c 0,4 -3.2,7.2 -7.2,7.2 H 518 c -4,0 -7.2,-3.2 -7.2,-7.2 v -12.7 c 0,-4 3.2,-7.2 7.2,-7.2 h 51.7 c 4,0 7.3,3.2 7.3,7.2 z"
   id="path330" />
							</g>
							<g
   id="g346">
								<rect
   x="520.70001"
   y="441.10001"
   class="st22"
   width="46.299999"
   height="10.1"
   id="rect334" />
								<polygon
   class="st5"
   points="540.3,451.2 534.8,456 529.7,456 529.7,451.2 "
   id="polygon336" />
								<rect
   x="563"
   y="441.10001"
   class="st12"
   width="4"
   height="10.1"
   id="rect338" />
								<g
   id="g344">
									<rect
   x="529.70001"
   y="441.10001"
   class="st24"
   width="7.1999998"
   height="10.1"
   id="rect340" />
									<rect
   x="533"
   y="441.10001"
   class="st25"
   width="7.1999998"
   height="10.1"
   id="rect342" />
								</g>
							</g>
						</g>
						<g
   id="g370">
							<g
   id="g354">
								<path
   class="st22"
   d="m 577,471 v 12.7 c 0,4 -3.2,7.2 -7.2,7.2 h -62.6 c -4,0 -7.2,-3.2 -7.2,-7.2 V 471 c 0,-4 3.2,-7.2 7.2,-7.2 h 62.6 c 3.9,-0.1 7.2,3.2 7.2,7.2 z"
   id="path350" />
								<path
   class="st23"
   d="m 577,471 v 12.7 c 0,4 -3.2,7.2 -7.2,7.2 H 518 c -4,0 -7.2,-3.2 -7.2,-7.2 V 471 c 0,-4 3.2,-7.2 7.2,-7.2 h 51.7 c 4,-0.1 7.3,3.2 7.3,7.2 z"
   id="path352" />
							</g>
							<g
   id="g368">
								<rect
   x="520.70001"
   y="471.29999"
   class="st22"
   width="46.299999"
   height="10.1"
   id="rect356" />
								<polygon
   class="st5"
   points="554.2,481.4 548.8,486.2 543.6,486.2 543.6,481.4 "
   id="polygon358" />
								<rect
   x="563"
   y="471.29999"
   class="st12"
   width="4"
   height="10.1"
   id="rect360" />
								<g
   id="g366">
									<rect
   x="543.70001"
   y="471.29999"
   class="st26"
   width="7.1999998"
   height="10.1"
   id="rect362" />
									<rect
   x="547"
   y="471.29999"
   class="st27"
   width="7.1999998"
   height="10.1"
   id="rect364" />
								</g>
							</g>
						</g>
						<g
   id="g392">
							<g
   id="g376">
								<path
   class="st22"
   d="m 577,501.2 v 12.7 c 0,4 -3.2,7.2 -7.2,7.2 h -62.6 c -4,0 -7.2,-3.2 -7.2,-7.2 v -12.7 c 0,-4 3.2,-7.2 7.2,-7.2 h 62.6 c 3.9,-0.1 7.2,3.2 7.2,7.2 z"
   id="path372" />
								<path
   class="st23"
   d="m 577,501.2 v 12.7 c 0,4 -3.2,7.2 -7.2,7.2 H 518 c -4,0 -7.2,-3.2 -7.2,-7.2 v -12.7 c 0,-4 3.2,-7.2 7.2,-7.2 h 51.7 c 4,-0.1 7.3,3.2 7.3,7.2 z"
   id="path374" />
							</g>
							<g
   id="g390">
								<rect
   x="520.70001"
   y="501.5"
   class="st22"
   width="46.299999"
   height="10.1"
   id="rect378" />
								<polygon
   class="st5"
   points="540.3,511.6 534.8,516.4 529.7,516.4 529.7,511.6 "
   id="polygon380" />
								<rect
   x="563"
   y="501.5"
   class="st12"
   width="4"
   height="10.1"
   id="rect382" />
								<g
   id="g388">
									<rect
   x="529.70001"
   y="501.5"
   class="st24"
   width="7.1999998"
   height="10.1"
   id="rect384" />
									<rect
   x="533"
   y="501.5"
   class="st25"
   width="7.1999998"
   height="10.1"
   id="rect386" />
								</g>
							</g>
						</g>
					</g>
					<g
   id="g640">
						<g
   id="g416">
							<g
   id="g400">
								<path
   class="st22"
   d="m 648.9,199 v 12.7 c 0,4 -2.6,7.2 -5.7,7.2 h -49.7 c -3.2,0 -5.8,-3.2 -5.8,-7.2 V 199 c 0,-4 2.6,-7.2 5.8,-7.2 h 49.7 c 3.1,0 5.7,3.2 5.7,7.2 z"
   id="path396" />
								<path
   class="st23"
   d="m 648.9,199 v 12.7 c 0,4 -2.6,7.2 -5.7,7.2 H 602 c -3.2,0 -5.8,-3.2 -5.8,-7.2 V 199 c 0,-4 2.6,-7.2 5.8,-7.2 h 41.1 c 3.2,0 5.8,3.2 5.8,7.2 z"
   id="path398" />
							</g>
							<g
   id="g414">
								<rect
   x="604.09998"
   y="199.3"
   class="st22"
   width="36.799999"
   height="10.1"
   id="rect402" />
								<polygon
   class="st5"
   points="619.7,209.4 615.4,214.2 611.3,214.2 611.3,209.4 "
   id="polygon404" />
								<rect
   x="637.79999"
   y="199.3"
   class="st12"
   width="3.2"
   height="10.1"
   id="rect406" />
								<g
   id="g412">
									<rect
   x="611.29999"
   y="199.3"
   class="st24"
   width="5.6999998"
   height="10.1"
   id="rect408" />
									<rect
   x="613.90002"
   y="199.3"
   class="st25"
   width="5.6999998"
   height="10.1"
   id="rect410" />
								</g>
							</g>
						</g>
						<g
   id="g438">
							<g
   id="g422">
								<path
   class="st22"
   d="m 648.9,229.2 v 12.7 c 0,4 -2.6,7.2 -5.7,7.2 h -49.7 c -3.2,0 -5.8,-3.2 -5.8,-7.2 v -12.7 c 0,-4 2.6,-7.2 5.8,-7.2 h 49.7 c 3.1,0 5.7,3.2 5.7,7.2 z"
   id="path418" />
								<path
   class="st23"
   d="m 648.9,229.2 v 12.7 c 0,4 -2.6,7.2 -5.7,7.2 H 602 c -3.2,0 -5.8,-3.2 -5.8,-7.2 v -12.7 c 0,-4 2.6,-7.2 5.8,-7.2 h 41.1 c 3.2,0 5.8,3.2 5.8,7.2 z"
   id="path420" />
							</g>
							<g
   id="g436">
								<rect
   x="604.09998"
   y="229.60001"
   class="st22"
   width="36.799999"
   height="10.1"
   id="rect424" />
								<polygon
   class="st5"
   points="619.7,239.6 615.4,244.4 611.3,244.4 611.3,239.6 "
   id="polygon426" />
								<rect
   x="637.79999"
   y="229.60001"
   class="st12"
   width="3.2"
   height="10.1"
   id="rect428" />
								<g
   id="g434">
									<rect
   x="611.29999"
   y="229.60001"
   class="st24"
   width="5.6999998"
   height="10.1"
   id="rect430" />
									<rect
   x="613.90002"
   y="229.60001"
   class="st25"
   width="5.6999998"
   height="10.1"
   id="rect432" />
								</g>
							</g>
						</g>
						<g
   id="g460">
							<g
   id="g444">
								<path
   class="st22"
   d="m 648.9,259.4 v 12.7 c 0,4 -2.6,7.2 -5.7,7.2 h -49.7 c -3.2,0 -5.8,-3.2 -5.8,-7.2 v -12.7 c 0,-4 2.6,-7.2 5.8,-7.2 h 49.7 c 3.1,0 5.7,3.2 5.7,7.2 z"
   id="path440" />
								<path
   class="st23"
   d="m 648.9,259.4 v 12.7 c 0,4 -2.6,7.2 -5.7,7.2 H 602 c -3.2,0 -5.8,-3.2 -5.8,-7.2 v -12.7 c 0,-4 2.6,-7.2 5.8,-7.2 h 41.1 c 3.2,0 5.8,3.2 5.8,7.2 z"
   id="path442" />
							</g>
							<g
   id="g458">
								<rect
   x="604.09998"
   y="259.79999"
   class="st22"
   width="36.799999"
   height="10.1"
   id="rect446" />
								<polygon
   class="st5"
   points="619.7,269.8 615.4,274.7 611.3,274.7 611.3,269.8 "
   id="polygon448" />
								<rect
   x="637.79999"
   y="259.79999"
   class="st12"
   width="3.2"
   height="10.1"
   id="rect450" />
								<g
   id="g456">
									<rect
   x="611.29999"
   y="259.79999"
   class="st24"
   width="5.6999998"
   height="10.1"
   id="rect452" />
									<rect
   x="613.90002"
   y="259.79999"
   class="st25"
   width="5.6999998"
   height="10.1"
   id="rect454" />
								</g>
							</g>
						</g>
						<g
   id="g482">
							<g
   id="g466">
								<path
   class="st22"
   d="m 648.9,289.6 v 12.7 c 0,4 -2.6,7.2 -5.7,7.2 h -49.7 c -3.2,0 -5.8,-3.2 -5.8,-7.2 v -12.7 c 0,-4 2.6,-7.2 5.8,-7.2 h 49.7 c 3.1,0 5.7,3.2 5.7,7.2 z"
   id="path462" />
								<path
   class="st23"
   d="m 648.9,289.6 v 12.7 c 0,4 -2.6,7.2 -5.7,7.2 H 602 c -3.2,0 -5.8,-3.2 -5.8,-7.2 v -12.7 c 0,-4 2.6,-7.2 5.8,-7.2 h 41.1 c 3.2,0 5.8,3.2 5.8,7.2 z"
   id="path464" />
							</g>
							<g
   id="g480">
								<rect
   x="604.09998"
   y="290"
   class="st22"
   width="36.799999"
   height="10.1"
   id="rect468" />
								<polygon
   class="st5"
   points="619.7,300.1 615.4,304.9 611.3,304.9 611.3,300.1 "
   id="polygon470" />
								<rect
   x="637.79999"
   y="290"
   class="st12"
   width="3.2"
   height="10.1"
   id="rect472" />
								<g
   id="g478">
									<rect
   x="611.29999"
   y="290"
   class="st24"
   width="5.6999998"
   height="10.1"
   id="rect474" />
									<rect
   x="613.90002"
   y="290"
   class="st25"
   width="5.6999998"
   height="10.1"
   id="rect476" />
								</g>
							</g>
						</g>
						<g
   id="g504">
							<g
   id="g488">
								<path
   class="st22"
   d="m 648.9,319.9 v 12.7 c 0,4 -2.6,7.2 -5.7,7.2 h -49.7 c -3.2,0 -5.8,-3.2 -5.8,-7.2 v -12.7 c 0,-4 2.6,-7.2 5.8,-7.2 h 49.7 c 3.1,-0.1 5.7,3.2 5.7,7.2 z"
   id="path484" />
								<path
   class="st23"
   d="m 648.9,319.9 v 12.7 c 0,4 -2.6,7.2 -5.7,7.2 H 602 c -3.2,0 -5.8,-3.2 -5.8,-7.2 v -12.7 c 0,-4 2.6,-7.2 5.8,-7.2 h 41.1 c 3.2,-0.1 5.8,3.2 5.8,7.2 z"
   id="path486" />
							</g>
							<g
   id="g502">
								<rect
   x="604.09998"
   y="320.20001"
   class="st22"
   width="36.799999"
   height="10.1"
   id="rect490" />
								<polygon
   class="st5"
   points="633,330.3 628.7,335.1 624.5,335.1 624.5,330.3 "
   id="polygon492" />
								<rect
   x="637.79999"
   y="320.20001"
   class="st12"
   width="3.2"
   height="10.1"
   id="rect494" />
								<g
   id="g500">
									<rect
   x="624.59998"
   y="320.20001"
   class="st26"
   width="5.6999998"
   height="10.1"
   id="rect496" />
									<rect
   x="627.20001"
   y="320.20001"
   class="st27"
   width="5.6999998"
   height="10.1"
   id="rect498" />
								</g>
							</g>
						</g>
						<g
   id="g526">
							<g
   id="g510">
								<path
   class="st22"
   d="m 648.9,350.1 v 12.7 c 0,4 -2.6,7.2 -5.7,7.2 h -49.7 c -3.2,0 -5.8,-3.2 -5.8,-7.2 v -12.7 c 0,-4 2.6,-7.2 5.8,-7.2 h 49.7 c 3.1,-0.1 5.7,3.2 5.7,7.2 z"
   id="path506" />
								<path
   class="st23"
   d="m 648.9,350.1 v 12.7 c 0,4 -2.6,7.2 -5.7,7.2 H 602 c -3.2,0 -5.8,-3.2 -5.8,-7.2 v -12.7 c 0,-4 2.6,-7.2 5.8,-7.2 h 41.1 c 3.2,-0.1 5.8,3.2 5.8,7.2 z"
   id="path508" />
							</g>
							<g
   id="g524">
								<rect
   x="604.09998"
   y="350.39999"
   class="st22"
   width="36.799999"
   height="10.1"
   id="rect512" />
								<polygon
   class="st5"
   points="619.7,360.5 615.4,365.3 611.3,365.3 611.3,360.5 "
   id="polygon514" />
								<rect
   x="637.79999"
   y="350.39999"
   class="st12"
   width="3.2"
   height="10.1"
   id="rect516" />
								<g
   id="g522">
									<rect
   x="611.29999"
   y="350.39999"
   class="st24"
   width="5.6999998"
   height="10.1"
   id="rect518" />
									<rect
   x="613.90002"
   y="350.39999"
   class="st25"
   width="5.6999998"
   height="10.1"
   id="rect520" />
								</g>
							</g>
						</g>
						<g
   id="g548">
							<g
   id="g532">
								<path
   class="st22"
   d="M 648.9,380.3 V 393 c 0,4 -2.6,7.2 -5.7,7.2 h -49.7 c -3.2,0 -5.8,-3.2 -5.8,-7.2 v -12.7 c 0,-4 2.6,-7.2 5.8,-7.2 h 49.7 c 3.1,0 5.7,3.2 5.7,7.2 z"
   id="path528" />
								<path
   class="st23"
   d="M 648.9,380.3 V 393 c 0,4 -2.6,7.2 -5.7,7.2 H 602 c -3.2,0 -5.8,-3.2 -5.8,-7.2 v -12.7 c 0,-4 2.6,-7.2 5.8,-7.2 h 41.1 c 3.2,0 5.8,3.2 5.8,7.2 z"
   id="path530" />
							</g>
							<g
   id="g546">
								<rect
   x="604.09998"
   y="380.60001"
   class="st22"
   width="36.799999"
   height="10.1"
   id="rect534" />
								<polygon
   class="st5"
   points="619.7,390.7 615.4,395.5 611.3,395.5 611.3,390.7 "
   id="polygon536" />
								<rect
   x="637.79999"
   y="380.60001"
   class="st12"
   width="3.2"
   height="10.1"
   id="rect538" />
								<g
   id="g544">
									<rect
   x="611.29999"
   y="380.60001"
   class="st24"
   width="5.6999998"
   height="10.1"
   id="rect540" />
									<rect
   x="613.90002"
   y="380.60001"
   class="st25"
   width="5.6999998"
   height="10.1"
   id="rect542" />
								</g>
							</g>
						</g>
						<g
   id="g570">
							<g
   id="g554">
								<path
   class="st22"
   d="m 648.9,410.5 v 12.7 c 0,4 -2.6,7.2 -5.7,7.2 h -49.7 c -3.2,0 -5.8,-3.2 -5.8,-7.2 v -12.7 c 0,-4 2.6,-7.2 5.8,-7.2 h 49.7 c 3.1,0 5.7,3.2 5.7,7.2 z"
   id="path550" />
								<path
   class="st23"
   d="m 648.9,410.5 v 12.7 c 0,4 -2.6,7.2 -5.7,7.2 H 602 c -3.2,0 -5.8,-3.2 -5.8,-7.2 v -12.7 c 0,-4 2.6,-7.2 5.8,-7.2 h 41.1 c 3.2,0 5.8,3.2 5.8,7.2 z"
   id="path552" />
							</g>
							<g
   id="g568">
								<rect
   x="604.09998"
   y="410.89999"
   class="st22"
   width="36.799999"
   height="10.1"
   id="rect556" />
								<polygon
   class="st5"
   points="619.7,420.9 615.4,425.8 611.3,425.8 611.3,420.9 "
   id="polygon558" />
								<rect
   x="637.79999"
   y="410.89999"
   class="st12"
   width="3.2"
   height="10.1"
   id="rect560" />
								<g
   id="g566">
									<rect
   x="611.29999"
   y="410.89999"
   class="st24"
   width="5.6999998"
   height="10.1"
   id="rect562" />
									<rect
   x="613.90002"
   y="410.89999"
   class="st25"
   width="5.6999998"
   height="10.1"
   id="rect564" />
								</g>
							</g>
						</g>
						<g
   id="g594">
							<g
   id="g576">
								<path
   class="st22"
   d="m 648.9,440.7 v 12.7 c 0,4 -2.6,7.2 -5.7,7.2 h -49.7 c -3.2,0 -5.8,-3.2 -5.8,-7.2 v -12.7 c 0,-4 2.6,-7.2 5.8,-7.2 h 49.7 c 3.1,0 5.7,3.2 5.7,7.2 z"
   id="path572" />
								<path
   class="st23"
   d="m 648.9,440.7 v 12.7 c 0,4 -2.6,7.2 -5.7,7.2 H 602 c -3.2,0 -5.8,-3.2 -5.8,-7.2 v -12.7 c 0,-4 2.6,-7.2 5.8,-7.2 h 41.1 c 3.2,0 5.8,3.2 5.8,7.2 z"
   id="path574" />
							</g>
							<g
   id="g592">
								<rect
   x="604.09998"
   y="441.10001"
   class="st22"
   width="36.799999"
   height="10.1"
   id="rect578" />
								<rect
   x="637.79999"
   y="441.10001"
   class="st12"
   width="3.2"
   height="10.1"
   id="rect580" />
								<g
   id="g590">
									<polygon
   class="st5"
   points="632.3,451.2 628,456 623.8,456 623.8,451.2 "
   id="polygon582" />
									<g
   id="g588">
										<rect
   x="623.90002"
   y="441.10001"
   class="st26"
   width="5.6999998"
   height="10.1"
   id="rect584" />
										<rect
   x="626.5"
   y="441.10001"
   class="st27"
   width="5.6999998"
   height="10.1"
   id="rect586" />
									</g>
								</g>
							</g>
						</g>
						<g
   id="g616">
							<g
   id="g600">
								<path
   class="st22"
   d="m 648.9,471 v 12.7 c 0,4 -2.6,7.2 -5.7,7.2 h -49.7 c -3.2,0 -5.8,-3.2 -5.8,-7.2 V 471 c 0,-4 2.6,-7.2 5.8,-7.2 h 49.7 c 3.1,-0.1 5.7,3.2 5.7,7.2 z"
   id="path596" />
								<path
   class="st23"
   d="m 648.9,471 v 12.7 c 0,4 -2.6,7.2 -5.7,7.2 H 602 c -3.2,0 -5.8,-3.2 -5.8,-7.2 V 471 c 0,-4 2.6,-7.2 5.8,-7.2 h 41.1 c 3.2,-0.1 5.8,3.2 5.8,7.2 z"
   id="path598" />
							</g>
							<g
   id="g614">
								<rect
   x="604.09998"
   y="471.29999"
   class="st22"
   width="36.799999"
   height="10.1"
   id="rect602" />
								<polygon
   class="st5"
   points="619.7,481.4 615.4,486.2 611.3,486.2 611.3,481.4 "
   id="polygon604" />
								<rect
   x="637.79999"
   y="471.29999"
   class="st12"
   width="3.2"
   height="10.1"
   id="rect606" />
								<g
   id="g612">
									<rect
   x="611.29999"
   y="471.29999"
   class="st24"
   width="5.6999998"
   height="10.1"
   id="rect608" />
									<rect
   x="613.90002"
   y="471.29999"
   class="st25"
   width="5.6999998"
   height="10.1"
   id="rect610" />
								</g>
							</g>
						</g>
						<g
   id="g638">
							<g
   id="g622">
								<path
   class="st22"
   d="m 648.9,501.2 v 12.7 c 0,4 -2.6,7.2 -5.7,7.2 h -49.7 c -3.2,0 -5.8,-3.2 -5.8,-7.2 v -12.7 c 0,-4 2.6,-7.2 5.8,-7.2 h 49.7 c 3.1,-0.1 5.7,3.2 5.7,7.2 z"
   id="path618" />
								<path
   class="st23"
   d="m 648.9,501.2 v 12.7 c 0,4 -2.6,7.2 -5.7,7.2 H 602 c -3.2,0 -5.8,-3.2 -5.8,-7.2 v -12.7 c 0,-4 2.6,-7.2 5.8,-7.2 h 41.1 c 3.2,-0.1 5.8,3.2 5.8,7.2 z"
   id="path620" />
							</g>
							<g
   id="g636">
								<rect
   x="604.09998"
   y="501.5"
   class="st22"
   width="36.799999"
   height="10.1"
   id="rect624" />
								<polygon
   class="st5"
   points="619.7,511.6 615.4,516.4 611.3,516.4 611.3,511.6 "
   id="polygon626" />
								<rect
   x="637.79999"
   y="501.5"
   class="st12"
   width="3.2"
   height="10.1"
   id="rect628" />
								<g
   id="g634">
									<rect
   x="611.29999"
   y="501.5"
   class="st24"
   width="5.6999998"
   height="10.1"
   id="rect630" />
									<rect
   x="613.90002"
   y="501.5"
   class="st25"
   width="5.6999998"
   height="10.1"
   id="rect632" />
								</g>
							</g>
						</g>
					</g>
					<g
   id="g726">
						<g
   id="g654">
							<path
   class="st28"
   d="m 679.7,266.9 c 0,1.2 -1,2.2 -2.2,2.2 h -15.2 c -1.2,0 -2.2,-1 -2.2,-2.2 v -17.8 c 0,-1.2 1,-2.2 2.2,-2.2 h 15.2 c 1.2,0 2.2,1 2.2,2.2 z"
   id="path642" />
							<path
   class="st0"
   d="m 686.2,266.9 c 0,1.2 -1,2.2 -2.2,2.2 h -15.2 c -1.2,0 -2.2,-1 -2.2,-2.2 v -17.8 c 0,-1.2 1,-2.2 2.2,-2.2 H 684 c 1.2,0 2.2,1 2.2,2.2 z"
   id="path644" />
							<g
   id="g652">
								<path
   class="st29"
   d="m 682,258.3 c 0,2.9 -2.3,5.2 -5.2,5.2 -2.9,0 -5.2,-2.3 -5.2,-5.2 0,-2.9 2.3,-5.2 5.2,-5.2 2.9,0 5.2,2.3 5.2,5.2 z"
   id="path646" />
								<path
   class="st28"
   d="m 684,258.1 c 0.1,2.9 -2.1,5.3 -5,5.4 -2.9,0.1 -5.3,-2.1 -5.4,-5 -0.1,-2.9 2.1,-5.3 5,-5.4 2.9,-0.1 5.3,2.1 5.4,5 z"
   id="path648" />
								<path
   class="st30"
   d="m 682.2,258.2 c 0.1,1.4 -1.1,2.6 -2.5,2.7 -1.4,0.1 -2.6,-1.1 -2.7,-2.5 -0.1,-1.4 1.1,-2.6 2.5,-2.7 1.5,-0.1 2.7,1 2.7,2.5 z"
   id="path650" />
							</g>
						</g>
						<g
   id="g668">
							<path
   class="st28"
   d="m 679.7,295.6 c 0,1.2 -1,2.2 -2.2,2.2 h -15.2 c -1.2,0 -2.2,-1 -2.2,-2.2 v -17.8 c 0,-1.2 1,-2.2 2.2,-2.2 h 15.2 c 1.2,0 2.2,1 2.2,2.2 z"
   id="path656" />
							<path
   class="st0"
   d="m 686.2,295.6 c 0,1.2 -1,2.2 -2.2,2.2 h -15.2 c -1.2,0 -2.2,-1 -2.2,-2.2 v -17.8 c 0,-1.2 1,-2.2 2.2,-2.2 H 684 c 1.2,0 2.2,1 2.2,2.2 z"
   id="path658" />
							<g
   id="g666">
								<path
   class="st29"
   d="m 682,286.9 c 0,2.9 -2.3,5.2 -5.2,5.2 -2.9,0 -5.2,-2.3 -5.2,-5.2 0,-2.9 2.3,-5.2 5.2,-5.2 2.9,0 5.2,2.4 5.2,5.2 z"
   id="path660" />
								<path
   class="st28"
   d="m 684,286.7 c 0.1,2.9 -2.1,5.3 -5,5.4 -2.9,0.1 -5.3,-2.1 -5.4,-5 -0.1,-2.9 2.1,-5.3 5,-5.4 2.9,-0.1 5.3,2.2 5.4,5 z"
   id="path662" />
								<path
   class="st30"
   d="m 682.2,286.8 c 0.1,1.4 -1.1,2.6 -2.5,2.7 -1.4,0.1 -2.6,-1.1 -2.7,-2.5 -0.1,-1.4 1.1,-2.6 2.5,-2.7 1.5,0 2.7,1.1 2.7,2.5 z"
   id="path664" />
							</g>
						</g>
						<g
   id="g682">
							<path
   class="st28"
   d="m 679.7,324.2 c 0,1.2 -1,2.2 -2.2,2.2 h -15.2 c -1.2,0 -2.2,-1 -2.2,-2.2 v -17.8 c 0,-1.2 1,-2.2 2.2,-2.2 h 15.2 c 1.2,0 2.2,1 2.2,2.2 z"
   id="path670" />
							<path
   class="st12"
   d="m 686.2,324.2 c 0,1.2 -1,2.2 -2.2,2.2 h -15.2 c -1.2,0 -2.2,-1 -2.2,-2.2 v -17.8 c 0,-1.2 1,-2.2 2.2,-2.2 H 684 c 1.2,0 2.2,1 2.2,2.2 z"
   id="path672" />
							<g
   id="g680">
								<path
   class="st29"
   d="m 682,315.6 c 0,2.9 -2.3,5.2 -5.2,5.2 -2.9,0 -5.2,-2.3 -5.2,-5.2 0,-2.9 2.3,-5.2 5.2,-5.2 2.9,0 5.2,2.3 5.2,5.2 z"
   id="path674" />
								<path
   class="st28"
   d="m 684,315.4 c 0.1,2.9 -2.1,5.3 -5,5.4 -2.9,0.1 -5.3,-2.1 -5.4,-5 -0.1,-2.9 2.1,-5.3 5,-5.4 2.9,-0.1 5.3,2.1 5.4,5 z"
   id="path676" />
								<path
   class="st30"
   d="m 682.2,315.5 c 0.1,1.4 -1.1,2.6 -2.5,2.7 -1.4,0.1 -2.6,-1.1 -2.7,-2.5 -0.1,-1.4 1.1,-2.6 2.5,-2.7 1.5,-0.1 2.7,1.1 2.7,2.5 z"
   id="path678" />
							</g>
						</g>
						<g
   id="g696">
							<path
   class="st28"
   d="m 679.7,352.9 c 0,1.2 -1,2.2 -2.2,2.2 h -15.2 c -1.2,0 -2.2,-1 -2.2,-2.2 V 335 c 0,-1.2 1,-2.2 2.2,-2.2 h 15.2 c 1.2,0 2.2,1 2.2,2.2 z"
   id="path684" />
							<path
   class="st0"
   d="m 686.2,352.9 c 0,1.2 -1,2.2 -2.2,2.2 h -15.2 c -1.2,0 -2.2,-1 -2.2,-2.2 V 335 c 0,-1.2 1,-2.2 2.2,-2.2 H 684 c 1.2,0 2.2,1 2.2,2.2 z"
   id="path686" />
							<g
   id="g694">
								<path
   class="st29"
   d="m 682,344.2 c 0,2.9 -2.3,5.2 -5.2,5.2 -2.9,0 -5.2,-2.3 -5.2,-5.2 0,-2.9 2.3,-5.2 5.2,-5.2 2.9,0 5.2,2.4 5.2,5.2 z"
   id="path688" />
								<path
   class="st28"
   d="m 684,344 c 0.1,2.9 -2.1,5.3 -5,5.4 -2.9,0.1 -5.3,-2.1 -5.4,-5 -0.1,-2.9 2.1,-5.3 5,-5.4 2.9,-0.1 5.3,2.2 5.4,5 z"
   id="path690" />
								<path
   class="st30"
   d="m 682.2,344.1 c 0.1,1.4 -1.1,2.6 -2.5,2.7 -1.4,0.1 -2.6,-1.1 -2.7,-2.5 -0.1,-1.4 1.1,-2.6 2.5,-2.7 1.5,0 2.7,1.1 2.7,2.5 z"
   id="path692" />
							</g>
						</g>
						<g
   id="g710">
							<path
   class="st28"
   d="m 679.7,381.5 c 0,1.2 -1,2.2 -2.2,2.2 h -15.2 c -1.2,0 -2.2,-1 -2.2,-2.2 v -17.8 c 0,-1.2 1,-2.2 2.2,-2.2 h 15.2 c 1.2,0 2.2,1 2.2,2.2 z"
   id="path698" />
							<path
   class="st12"
   d="m 686.2,381.5 c 0,1.2 -1,2.2 -2.2,2.2 h -15.2 c -1.2,0 -2.2,-1 -2.2,-2.2 v -17.8 c 0,-1.2 1,-2.2 2.2,-2.2 H 684 c 1.2,0 2.2,1 2.2,2.2 z"
   id="path700" />
							<g
   id="g708">
								<path
   class="st29"
   d="m 682,372.9 c 0,2.9 -2.3,5.2 -5.2,5.2 -2.9,0 -5.2,-2.3 -5.2,-5.2 0,-2.9 2.3,-5.2 5.2,-5.2 2.9,0 5.2,2.3 5.2,5.2 z"
   id="path702" />
								<path
   class="st28"
   d="m 684,372.7 c 0.1,2.9 -2.1,5.3 -5,5.4 -2.9,0.1 -5.3,-2.1 -5.4,-5 -0.1,-2.9 2.1,-5.3 5,-5.4 2.9,-0.1 5.3,2.1 5.4,5 z"
   id="path704" />
								<path
   class="st30"
   d="m 682.2,372.8 c 0.1,1.4 -1.1,2.6 -2.5,2.7 -1.4,0.1 -2.6,-1.1 -2.7,-2.5 -0.1,-1.4 1.1,-2.6 2.5,-2.7 1.5,-0.1 2.7,1.1 2.7,2.5 z"
   id="path706" />
							</g>
						</g>
						<g
   id="g724">
							<path
   class="st28"
   d="m 679.7,410.2 c 0,1.2 -1,2.2 -2.2,2.2 h -15.2 c -1.2,0 -2.2,-1 -2.2,-2.2 v -17.8 c 0,-1.2 1,-2.2 2.2,-2.2 h 15.2 c 1.2,0 2.2,1 2.2,2.2 z"
   id="path712" />
							<path
   class="st0"
   d="m 686.2,410.2 c 0,1.2 -1,2.2 -2.2,2.2 h -15.2 c -1.2,0 -2.2,-1 -2.2,-2.2 v -17.8 c 0,-1.2 1,-2.2 2.2,-2.2 H 684 c 1.2,0 2.2,1 2.2,2.2 z"
   id="path714" />
							<g
   id="g722">
								<path
   class="st29"
   d="m 682,401.5 c 0,2.9 -2.3,5.2 -5.2,5.2 -2.9,0 -5.2,-2.3 -5.2,-5.2 0,-2.9 2.3,-5.2 5.2,-5.2 2.9,0 5.2,2.4 5.2,5.2 z"
   id="path716" />
								<path
   class="st28"
   d="m 684,401.3 c 0.1,2.9 -2.1,5.3 -5,5.4 -2.9,0.1 -5.3,-2.1 -5.4,-5 -0.1,-2.9 2.1,-5.3 5,-5.4 2.9,-0.1 5.3,2.2 5.4,5 z"
   id="path718" />
								<path
   class="st30"
   d="m 682.2,401.4 c 0.1,1.4 -1.1,2.6 -2.5,2.7 -1.4,0.1 -2.6,-1.1 -2.7,-2.5 -0.1,-1.4 1.1,-2.6 2.5,-2.7 1.5,0 2.7,1.1 2.7,2.5 z"
   id="path720" />
							</g>
						</g>
					</g>
					<g
   id="g744">
						<path
   class="st31"
   d="m 504,388.9 c -5.9,0 -10.8,-1.7 -14.5,-4.9 -5.1,-4.5 -7.6,-11.9 -7.1,-21.3 0.7,-14.1 8.2,-26.8 23.6,-40.1 l 2.6,3 C 494,338.1 487,350 486.4,362.9 c -0.4,8.2 1.6,14.5 5.8,18.2 3.9,3.5 9.9,4.7 17.2,3.5 l 0.7,3.9 c -2.3,0.2 -4.3,0.4 -6.1,0.4 z"
   id="path728" />
						<path
   class="st18"
   d="m 503.2,476.6 c -5.9,0 -10.8,-1.7 -14.5,-4.9 -5.1,-4.5 -7.6,-11.9 -7.1,-21.3 0.7,-14.1 8.2,-26.8 23.6,-40.1 l 2.6,3 c -14.6,12.5 -21.6,24.4 -22.2,37.3 -0.4,8.2 1.6,14.5 5.8,18.2 3.9,3.5 9.9,4.7 17.2,3.5 l 0.7,3.9 c -2.3,0.2 -4.3,0.4 -6.1,0.4 z"
   id="path730" />
						<path
   class="st19"
   d="m 502.4,514.5 c -5.9,0 -10.8,-1.7 -14.5,-4.9 -5.1,-4.5 -7.6,-11.9 -7.1,-21.3 0.7,-14.1 8.2,-26.8 23.6,-40.1 l 2.6,3 c -14.6,12.5 -21.6,24.4 -22.2,37.3 -0.4,8.2 1.6,14.5 5.8,18.2 3.9,3.5 9.9,4.7 17.2,3.5 l 0.7,3.9 c -2.3,0.2 -4.2,0.4 -6.1,0.4 z"
   id="path732" />
						<path
   class="st18"
   d="m 504.7,326.5 c -5.9,0 -10.8,-1.7 -14.5,-4.9 -5.1,-4.5 -7.6,-11.9 -7.1,-21.3 0.7,-14.1 8.2,-26.8 23.6,-40.1 l 2.6,3 c -14.6,12.6 -21.6,24.4 -22.2,37.3 -0.4,8.2 1.6,14.5 5.8,18.2 3.9,3.5 9.9,4.7 17.2,3.5 l 0.7,3.9 c -2.2,0.2 -4.2,0.4 -6.1,0.4 z"
   id="path734" />
						<path
   class="st19"
   d="m 503.2,360.4 c -5.9,0 -10.8,-1.7 -14.5,-4.9 -5.1,-4.5 -7.6,-11.9 -7.1,-21.3 0.7,-14.1 8.2,-26.8 23.6,-40.1 l 2.6,3 c -14.6,12.6 -21.6,24.4 -22.2,37.3 -0.4,8.2 1.6,14.5 5.8,18.2 3.9,3.5 9.9,4.7 17.2,3.5 l 0.7,3.9 c -2.3,0.3 -4.3,0.4 -6.1,0.4 z"
   id="path736" />
						<path
   class="st0"
   d="m 504,267.2 c -5.9,0 -10.8,-1.7 -14.5,-4.9 -5.1,-4.5 -7.6,-11.9 -7.1,-21.3 0.7,-14.1 8.2,-26.8 23.6,-40.1 l 2.6,3 c -14.6,12.5 -21.6,24.4 -22.2,37.3 -0.4,8.2 1.6,14.5 5.8,18.2 3.9,3.5 9.9,4.7 17.2,3.5 l 0.7,3.9 c -2.3,0.2 -4.3,0.4 -6.1,0.4 z"
   id="path738" />
						<path
   class="st31"
   d="m 504,296.5 c -5.9,0 -10.8,-1.7 -14.5,-4.9 -5.1,-4.5 -7.6,-11.9 -7.1,-21.3 0.7,-14.1 8.2,-26.8 23.6,-40.1 l 2.6,3 c -14.6,12.6 -21.6,24.4 -22.2,37.3 -0.4,8.2 1.6,14.5 5.8,18.2 3.9,3.5 9.9,4.7 17.2,3.5 l 0.7,3.9 c -2.3,0.2 -4.3,0.4 -6.1,0.4 z"
   id="path740" />
						<path
   class="st21"
   d="m 501.6,449.7 c -5.9,0 -10.8,-1.7 -14.5,-4.9 -5.1,-4.5 -7.6,-11.9 -7.1,-21.3 0.7,-14.1 8.2,-26.8 23.6,-40.1 l 2.6,3 c -14.6,12.5 -21.6,24.4 -22.2,37.3 -0.4,8.2 1.6,14.5 5.8,18.2 3.9,3.5 9.9,4.7 17.2,3.5 l 0.7,3.9 c -2.3,0.3 -4.2,0.4 -6.1,0.4 z"
   id="path742" />
					</g>
					<path
   class="st8"
   d="M 703.9,548.9 H 492.2 V 126 h 177 v -0.3 H 704 V 548.9 Z M 478,108.3 V 566.5 H 718.2 V 108.3 Z"
   id="path746" />
				</g>
			</g>
			<polygon
   class="st5"
   points="467,588.3 698,588.3 719,567.3 467,567.3 "
   id="polygon752" />
			<polygon
   class="st5"
   points="609.6,588.3 840.6,588.3 861.6,567.3 609.6,567.3 "
   id="polygon754" />
			<polygon
   class="st5"
   points="316,588.3 547,588.3 568,567.3 316,567.3 "
   id="polygon756" />
		</g><path
   style="fill:#ac9393;fill-opacity:1;stroke:none;stroke-width:0.276425px;stroke-linecap:butt;stroke-linejoin:miter;stroke-opacity:1"
   d="m -475.31402,263.65168 -381.84578,14.15021 -0.56762,27.01406 h 382.4134 z"
   id="path6194"
   sodipodi:nodetypes="ccccc" /><g
   id="g800"
   transform="matrix(0.31045253,0,0,0.24612802,-868.43331,75.236538)">
				<path
   class="st32"
   d="m 634.5,902.6 c 0,2.9 -60.9,5.2 -136,5.2 -75.1,0 -136,-2.3 -136,-5.2 0,-2.9 60.9,-5.2 136,-5.2 75.1,-0.1 136,2.3 136,5.2 z"
   id="path760" />
				<g
   id="g798">
					<g
   id="g770">
						<path
   class="st33"
   d="m 614.9,788.1 v 72.3 c 0,3.3 -3.3,6 -7.4,6 H 446 c -4.1,0 -7.4,-2.7 -7.4,-6 v -72.3 c 0,-3.3 3.3,-6 7.4,-6 h 161.5 c 4.1,0 7.4,2.7 7.4,6 z"
   id="path762" />
						<g
   class="st34"
   id="g766">
							<path
   class="st33"
   d="m 599.4,804.4 v 60.3 c 0,2.8 -2.7,5 -6.1,5 H 458.7 c -3.4,0 -6.1,-2.2 -6.1,-5 v -60.3 c 0,-2.8 2.7,-5 6.1,-5 h 134.6 c 3.4,0 6.1,2.3 6.1,5 z"
   id="path764" />
						</g>
						<path
   class="st35"
   d="m 614.9,790.9 v -2.8 c 0,-3.3 -3.3,-6 -7.4,-6 H 446 c -4.1,0 -7.4,2.7 -7.4,6 v 2.8 z"
   id="path768" />
					</g>
					<g
   id="g786">
						<path
   class="st36"
   d="m 615,866.4 v -15.5 c 0,-1.7 -3.3,-3.1 -7.4,-3.1 H 445.8 c -4.1,0 -7.4,1.4 -7.4,3.1 v 15.5 z"
   id="path772" />
						<path
   class="st35"
   d="m 615,859.1 v 36.7 c 0,3 -3.3,5.4 -7.4,5.4 H 445.8 c -4.1,0 -7.4,-2.4 -7.4,-5.4 v -36.7 c 0,-3 3.3,-5.4 7.4,-5.4 h 161.8 c 4.1,0 7.4,2.4 7.4,5.4 z"
   id="path774" />
						<g
   id="g780">
							<path
   class="st33"
   d="m 465,887.6 v 13.6 h -19.1 c -4.1,0 -7.4,-2.4 -7.4,-5.4 v -15.6 h 19.1 c 4.1,0 7.4,3.3 7.4,7.4 z"
   id="path776" />
							<path
   class="st33"
   d="m 615,880.2 v 15.6 c 0,3 -3.3,5.4 -7.4,5.4 h -19.1 v -13.6 c 0,-4.1 3.3,-7.4 7.4,-7.4 z"
   id="path778" />
						</g>
						<rect
   x="466"
   y="842.79999"
   class="st36"
   width="44.700001"
   height="7.6999998"
   id="rect782" />
						<rect
   x="546.40002"
   y="842.09998"
   class="st36"
   width="44.700001"
   height="7.6999998"
   id="rect784" />
					</g>
					<g
   id="g796">
						<g
   id="g792">
							<path
   class="st36"
   d="m 515.4,879.7 c 0,3.7 -3,6.6 -6.6,6.6 h -9.9 c -3.7,0 -6.6,-3 -6.6,-6.6 v 0 c 0,-3.7 3,-6.6 6.6,-6.6 h 9.9 c 3.6,0 6.6,2.9 6.6,6.6 z"
   id="path788" />
							<path
   class="st36"
   d="m 567.2,879.7 c 0,3.7 -3,6.6 -6.6,6.6 h -9.9 c -3.7,0 -6.6,-3 -6.6,-6.6 v 0 c 0,-3.7 3,-6.6 6.6,-6.6 h 9.9 c 3.7,0 6.6,2.9 6.6,6.6 z"
   id="path790" />
						</g>
						<path
   class="st33"
   d="m 559.6,879.7 c 0,1.9 -1.5,3.4 -3.4,3.4 h -52.9 c -1.9,0 -3.4,-1.5 -3.4,-3.4 v 0 c 0,-1.9 1.5,-3.4 3.4,-3.4 h 52.9 c 1.8,0 3.4,1.5 3.4,3.4 z"
   id="path794" />
					</g>
				</g>
			</g><g
   id="g25005"
   transform="matrix(0.28077659,0,0,0.22468035,-833.13137,103.41949)"><path
     class="st32"
     d="m 1013.6552,864.84828 c 0,2.9 -102.50003,5.2 -228.90003,5.2 -126.4,0 -228.9,-2.3 -228.9,-5.2 0,-2.9 102.5,-5.2 228.9,-5.2 126.4,0 228.90003,2.3 228.90003,5.2 z"
     id="path802" /><g
     id="g908"
     transform="translate(121.05517,-64.351724)">
						<g
   id="g808">
							<path
   class="st37"
   d="m 709.2,295.7 4.9,23.8 3.4,16.8 c -8,16.5 -46.5,-13.4 -55.6,-20.3 -11.2,-8.4 -22.1,-17.9 -32.6,-27.4 -1.2,-1.1 -2.5,-2.2 -3.7,-3.3 -2.8,-2.6 -5.4,-4.8 -7.3,-7 0.1,-0.4 0.2,-0.9 0.3,-1.3 0.5,-2.3 1.1,-4.5 1.8,-6.7 0.2,-0.7 0.5,-1.5 0.7,-2.2 0.1,-0.2 0.1,-0.3 0.2,-0.5 0.1,-0.2 0.2,-0.5 0.4,-1.1 0.5,-1.2 1,-2.5 1.6,-3.7 13.3,5.5 26.6,12.6 41.1,15.7 15.9,3.7 34.3,6.3 44.8,17.2 z"
   id="path804"
   style="fill:#a05a2c;fill-opacity:1" />
							<path
   class="st38"
   d="m 714,319.5 3.4,16.8 c -8,16.5 -46.5,-13.4 -55.6,-20.3 -11.2,-8.4 -22.1,-17.9 -32.6,-27.4 l 0.4,-1.2 c 5.1,5.4 12,10 18.5,13.9 7.5,4.6 13.9,9.9 22,13.7 6.8,3.2 12.7,8.5 20.2,9.9 7.9,1.5 17,-0.9 23.7,-5.4 z"
   id="path806" />
						</g>
						<g
   id="g882">
							<path
   class="st39"
   d="m 643,246.9 c -1.7,-4.9 -15.9,-17.8 -19,-11.3 -2.7,5.8 6.5,8.3 7.3,11.9 0.7,3.7 -18.7,11.1 -20,15 -3.4,10 16.6,27.2 27.5,28.9 l 13.4,-15.8 c -7,-5.5 -6.9,-21.7 -9.2,-28.7 z"
   id="path810" />
							<g
   id="g868">
								<g
   id="g816">
									<path
   class="st40"
   d="m 601.8,279.1 c -1.3,0 -2.3,-1.2 -2.3,-2.7 v -52.8 c 0,-1.5 1,-2.7 2.3,-2.7 h 30.5 c 1.3,0 2.3,1.2 2.3,2.7 v 52.8 c 0,1.5 -1,2.7 -2.3,2.7 z"
   id="path812" />
									<rect
   x="601.79999"
   y="223.60001"
   class="st17"
   width="30.5"
   height="52.799999"
   id="rect814" />
								</g>
								<g
   id="g850">
									<path
   class="st41"
   d="m 628,254.9 c 0,6 -4.9,10.9 -10.9,10.9 -6,0 -10.9,-4.9 -10.9,-10.9 0,-6 4.9,-10.9 10.9,-10.9 6,0 10.9,4.8 10.9,10.9 z"
   id="path818" />
									<path
   class="st42"
   d="m 627.2,254.9 c 0,5.6 -4.5,10.2 -10.2,10.2 -5.6,0 -10.2,-4.6 -10.2,-10.2 0,-5.6 4.5,-10.2 10.2,-10.2 5.7,0 10.2,4.6 10.2,10.2 z"
   id="path820" />
									<g
   id="g826">
										<path
   class="st41"
   d="m 615.2,264.5 c -0.2,0 -0.4,-0.2 -0.4,-0.4 v -18.4 c 0,-0.2 0.2,-0.4 0.4,-0.4 h 3.7 c 0.2,0 0.4,0.2 0.4,0.4 V 264 c 0,0.2 -0.2,0.4 -0.4,0.4 h -3.7 z"
   id="path822" />
										<rect
   x="616.79999"
   y="245.39999"
   class="st0"
   width="0.60000002"
   height="2.9000001"
   id="rect824" />
									</g>
									<g
   id="g848">
										<path
   class="st41"
   d="m 618.1,242.1 c 0,0.6 -0.5,1 -1,1 -0.6,0 -1,-0.5 -1,-1 0,-0.6 0.5,-1 1,-1 0.5,0 1,0.5 1,1 z"
   id="path828" />
										<path
   class="st41"
   d="m 610.4,244 c 0.3,0.5 0.2,1.1 -0.2,1.4 -0.5,0.3 -1.1,0.2 -1.4,-0.2 -0.3,-0.5 -0.2,-1.1 0.2,-1.4 0.4,-0.4 1.1,-0.3 1.4,0.2 z"
   id="path830" />
										<path
   class="st41"
   d="m 605.3,250 c 0.5,0.2 0.8,0.7 0.7,1.3 -0.2,0.5 -0.7,0.8 -1.3,0.7 -0.5,-0.2 -0.8,-0.7 -0.7,-1.3 0.2,-0.6 0.7,-0.9 1.3,-0.7 z"
   id="path832" />
										<path
   class="st41"
   d="m 604.6,257.8 c 0.5,-0.2 1.1,0.1 1.3,0.7 0.2,0.5 -0.1,1.1 -0.7,1.3 -0.5,0.2 -1.1,-0.1 -1.3,-0.7 -0.1,-0.5 0.2,-1.1 0.7,-1.3 z"
   id="path834" />
										<path
   class="st41"
   d="m 608.8,264.6 c 0.3,-0.5 1,-0.6 1.4,-0.2 0.5,0.3 0.6,1 0.2,1.4 -0.3,0.5 -1,0.6 -1.4,0.2 -0.5,-0.3 -0.6,-1 -0.2,-1.4 z"
   id="path836" />
										<path
   class="st41"
   d="m 616.1,267.6 c 0,-0.6 0.5,-1 1,-1 0.6,0 1,0.5 1,1 0,0.6 -0.5,1 -1,1 -0.6,0 -1,-0.4 -1,-1 z"
   id="path838" />
										<path
   class="st41"
   d="m 623.7,265.8 c -0.3,-0.5 -0.2,-1.1 0.2,-1.4 0.5,-0.3 1.1,-0.2 1.4,0.2 0.3,0.5 0.2,1.1 -0.2,1.4 -0.4,0.3 -1,0.2 -1.4,-0.2 z"
   id="path840" />
										<path
   class="st41"
   d="m 628.9,259.8 c -0.5,-0.2 -0.8,-0.7 -0.7,-1.3 0.2,-0.5 0.7,-0.8 1.3,-0.7 0.5,0.2 0.8,0.7 0.7,1.3 -0.2,0.6 -0.8,0.8 -1.3,0.7 z"
   id="path842" />
										<path
   class="st41"
   d="m 629.5,251.9 c -0.5,0.2 -1.1,-0.1 -1.3,-0.7 -0.2,-0.5 0.1,-1.1 0.7,-1.3 0.5,-0.2 1.1,0.1 1.3,0.7 0.1,0.6 -0.2,1.1 -0.7,1.3 z"
   id="path844" />
										<path
   class="st41"
   d="m 625.4,245.2 c -0.3,0.5 -1,0.6 -1.4,0.2 -0.5,-0.3 -0.6,-1 -0.2,-1.4 0.3,-0.5 1,-0.6 1.4,-0.2 0.4,0.3 0.5,0.9 0.2,1.4 z"
   id="path846" />
									</g>
								</g>
								<g
   id="g866">
									<rect
   x="603.70001"
   y="225.10001"
   class="st43"
   width="26.799999"
   height="10.4"
   id="rect852" />
									<g
   id="g864">
										<path
   class="st41"
   d="m 606,229.6 h 3.7 c 0,0 0.1,0 0.1,0.1 v 1 c 0,0.1 0,0.1 -0.1,0.1 H 606 c 0,0 -0.1,0 -0.1,-0.1 l 0.1,-1.1 c 0,0.1 0,0 0,0 z"
   id="path854" />
										<path
   class="st41"
   d="m 611.1,226.4 h 2.2 c 0,0 0.1,0 0.1,0.1 v 1 h 0.7 c 0,0 0.1,0 0.1,0.1 v 2.1 c 0,0.1 0,0.1 -0.1,0.1 h -0.7 v 1 c 0,0.1 0,0.1 -0.1,0.1 h -0.7 v 1 c 0,0.1 0,0.1 -0.1,0.1 h -0.7 v 1 h 2.2 c 0,0 0.1,0 0.1,0.1 v 1 c 0,0.1 0,0.1 -0.1,0.1 h -3.6 c 0,0 -0.1,0 -0.1,-0.1 v -1 c 0,-0.1 0,-0.1 0.1,-0.1 h 0.7 v -1 c 0,-0.1 0,-0.1 0.1,-0.1 h 0.7 v -1 c 0,-0.1 0,-0.1 0.1,-0.1 h 0.7 v -1 c 0,-0.1 0,-0.1 0.1,-0.1 h 0.7 v -2.1 h -2.2 v 1 c 0,0.1 0,0.1 -0.1,0.1 h -0.7 c 0,0 -0.1,0 -0.1,-0.1 v -1 c 0,-0.1 0,-0.1 0.1,-0.1 h 0.7 l -0.1,-1.1 c 0,0 0,0 0,0 z"
   id="path856" />
										<path
   class="st41"
   d="m 616.9,226.3 h 0.7 c 0,0 0.1,0 0.1,0.1 v 4.4 h 0.7 c 0,0 0.1,0 0.1,0.1 v 1 c 0,0.1 0,0.1 -0.1,0.1 h -0.7 v 2.1 c 0,0.1 0,0.1 -0.1,0.1 h -0.7 c 0,0 -0.1,0 -0.1,-0.1 V 232 h -2.2 c 0,0 -0.1,0 -0.1,-0.1 v -2.1 c 0,-0.1 0,-0.1 0.1,-0.1 h 0.7 v -1 c 0,-0.1 0,-0.1 0.1,-0.1 h 0.7 v -1 c 0,-0.1 0,-0.1 0.1,-0.1 h 0.7 v -1.2 c -0.1,0 0,0 0,0 z m -0.7,2.3 v 1 c 0,0.1 0,0.1 -0.1,0.1 h -0.7 v 1 h 1.4 v -2.1 z"
   id="path858" />
										<path
   class="st41"
   d="m 620.5,226.3 h 1.4 c 0,0 0.1,0 0.1,0.1 v 1 c 0,0.1 0,0.1 -0.1,0.1 h -1.4 v 1 c 0,0.1 0,0.1 -0.1,0.1 h -0.7 v 1 h 2.2 c 0,0 0.1,0 0.1,0.1 v 1 h 0.7 c 0,0 0.1,0 0.1,0.1 v 2.1 c 0,0.1 0,0.1 -0.1,0.1 H 622 v 1 c 0,0.1 0,0.1 -0.1,0.1 h -2.2 c 0,0 -0.1,0 -0.1,-0.1 v -1 H 619 c 0,0 -0.1,0 -0.1,-0.1 v -4.4 c 0,-0.1 0,-0.1 0.1,-0.1 h 0.7 v -1 c 0,-0.1 0,-0.1 0.1,-0.1 h 0.7 v -1 c -0.1,0 -0.1,0 0,0 z m -0.8,4.6 v 2.1 h 2.2 v -2.1 z"
   id="path860" />
										<path
   class="st41"
   d="m 624.1,226.4 h 2.2 c 0,0 0.1,0 0.1,0.1 v 1 h 0.7 c 0,0 0.1,0 0.1,0.1 v 2.1 c 0,0.1 0,0.1 -0.1,0.1 h -0.7 v 1 c 0,0.1 0,0.1 -0.1,0.1 h -0.7 v 1 c 0,0.1 0,0.1 -0.1,0.1 h -0.7 v 1 h 2.2 c 0,0 0.1,0 0.1,0.1 v 1 c 0,0.1 0,0.1 -0.1,0.1 h -3.6 c 0,0 -0.1,0 -0.1,-0.1 v -1 c 0,-0.1 0,-0.1 0.1,-0.1 h 0.7 v -1 c 0,-0.1 0,-0.1 0.1,-0.1 h 0.7 v -1 c 0,-0.1 0,-0.1 0.1,-0.1 h 0.7 v -1 c 0,-0.1 0,-0.1 0.1,-0.1 h 0.7 v -2.1 h -2.2 v 1 c 0,0.1 0,0.1 -0.1,0.1 h -0.7 c 0,0 -0.1,0 -0.1,-0.1 v -1 c 0,-0.1 0,-0.1 0.1,-0.1 h 0.7 l -0.1,-1.1 c -0.1,0 -0.1,0 0,0 z"
   id="path862" />
									</g>
								</g>
							</g>
							<path
   class="st39"
   d="m 636.1,237.5 c -1.9,-3 -4.2,-9 -6.5,-3.3 -2.7,6.7 1.5,18.7 9.1,20.6 l 5.1,-4 c 0,-6.4 -6,-10.5 -7.7,-13.3 z"
   id="path870" />
							<g
   id="g880">
								<path
   class="st39"
   d="m 606.2,243 c -1.5,-4.2 -8.1,0.1 -9.8,0 0,0 -10.2,5.6 -2.4,8.4 2.3,0.8 6,-1.3 7.9,-2.1 1.7,-0.7 5.4,-3 4.3,-6.3 z"
   id="path872" />
								<path
   class="st39"
   d="m 605.6,248.2 c -2.2,-1.8 -6.9,1.6 -8.8,1.7 0,0 -13.3,6.6 -5,9.2 2.5,0.8 7.3,-2.7 9.6,-4.1 2.2,-1.3 7,-4.5 4.2,-6.8 z"
   id="path874" />
								<path
   class="st39"
   d="m 605.1,254.1 c -2.4,-1.6 -6.8,2.1 -8.7,2.4 0,0 -12.8,7.6 -4.3,9.6 2.5,0.6 7,-3.3 9.3,-4.9 2.2,-1.4 6.8,-5.1 3.7,-7.1 z"
   id="path876" />
								<path
   class="st39"
   d="m 605.9,263.3 c -1.8,-1.9 -5.7,0.4 -7.3,0.3 0,0 -11.1,4.1 -4.3,7.7 2,1 6.1,-1.4 8.1,-2.4 1.8,-0.8 5.8,-3.1 3.5,-5.6 z"
   id="path878" />
							</g>
						</g>
						<g
   id="g906">
							<g
   id="g888">
								<path
   class="st37"
   d="m 623.5,300.8 -1.9,18.5 -0.5,6.8 c -9.8,16.6 -36.8,-11.8 -45.1,-20.7 -10.2,-10.9 -26,-20.9 -35.4,-32.8 l -3.3,-4.2 c -2.5,-3.2 -4.8,-6 -6.5,-8.8 0.1,-0.4 0.3,-0.9 0.4,-1.3 0.7,-2.4 1.6,-4.7 2.5,-6.9 0.3,-0.8 0.6,-1.5 1,-2.3 0.1,-0.2 0.2,-0.3 0.2,-0.5 0.1,-0.2 0.3,-0.5 0.6,-1.1 0.6,-1.3 1.3,-2.5 2,-3.7 12.6,8 25.1,21.8 39.2,27.5 15.6,6.4 37.6,16 46.8,29.5 z"
   id="path884"
   sodipodi:nodetypes="cccccccccsccccc"
   style="fill:#a05a2c" />
								
							</g>
							<path
   class="st42"
   d="m 577.7,275.6 c -0.2,0 -0.4,0.1 -0.7,0.1 -4.5,0.3 -9.2,-2.3 -12.4,-6.8 -3.3,-4.6 -4.5,-9.8 -5.6,-14.8 -0.6,-2.9 -1.3,-5.9 -2.4,-8.7 -2.2,-5.9 -5.6,-8.5 -9.5,-11.6 -1.5,-1.1 -2.9,-2.3 -4.5,-3.7 l 0.9,-1.2 c 1.5,1.4 3,2.5 4.4,3.7 4,3.1 7.7,6.1 10.1,12.4 1.1,3 1.8,6 2.5,9 1.1,5.1 2.2,9.8 5.3,14.2 2.9,4.1 7.2,6.4 11.2,6.1 2.4,-0.2 5.7,-1.3 8,-6 2,-4 1.7,-8.5 1.4,-13.3 -0.3,-4.5 -0.6,-9.2 1.1,-13.6 0.8,-2 1.5,-4 3.3,-5.5 l 0.9,1.2 c -1.4,1.3 -2.1,3 -2.8,4.9 -1.6,4.1 -1.3,8.6 -1,12.9 0.3,4.8 0.6,9.7 -1.6,14.2 -2,3.7 -5,6 -8.6,6.5 z"
   id="path890" />
							<path
   class="st39"
   d="m 541.4,226.7 c -2.1,-3.5 -3.9,-12.5 -8.7,-7.2 -3.3,3.7 0,10.9 1.3,14.9 l 12.4,17.7 c 0.5,-0.4 -0.3,-10.7 -0.4,-13.3 -0.2,-5.6 -1.9,-7.6 -4.6,-12.1 z"
   id="path892" />
							<g
   id="g900">
								<polygon
   class="st44"
   points="544.9,235.6 523.4,223.5 526,217.8 547.5,229.8 "
   id="polygon894" />
								<polygon
   class="st45"
   points="523,224.6 520.9,223.4 524.4,215.5 526.5,216.7 "
   id="polygon896" />
								<polygon
   class="st43"
   points="508.9,210.2 523.2,218.3 522.1,220.7 507.8,212.6 505.8,210 "
   id="polygon898" />
							</g>
							<path
   class="st39"
   d="m 558.1,256.3 c -3.3,8.3 -9.6,15.9 -14.9,21.9 0,0 -12.2,-7.6 -23.2,-21.7 -4.7,-6 -11.1,-15.9 -10.9,-20.6 0.1,-3.6 5.5,-12.6 7.2,-15.3 1.8,-2.8 -0.3,-11.9 2.4,-13.7 6.3,-4.1 7.2,5.3 10.1,13.1 0.9,2.5 2.3,4.3 3.7,6 2.6,2.9 5.5,5.3 7,9.5 2.4,6.5 14,15.9 18.6,20.8 z"
   id="path902" />
							<path
   class="st46"
   d="m 523,218.9 -5.1,-8 c -1.9,0.3 -4.3,-1.3 -5.6,2.1 -0.8,2.1 -0.1,5.4 -1.1,5.2 -1.9,-0.2 -5.5,2.5 -3,8.5 -3.7,6 1.3,16.3 6.5,22.6 0.8,-5.2 1.4,-13.1 4.3,-17.2 2.3,-3.4 6.4,-8.6 4,-13.2 z"
   id="path904" />
						</g>
					</g><g
     id="g912"
     style="fill:#a05a2c"
     transform="translate(129.65517,-56.551724)">
								<path
   class="st37"
   d="M 719.1,845 H 692 c 5.1,11.7 -0.8,55.9 8.4,65.3 12.3,12.6 16.9,-52.5 18.7,-65.3 0,0.1 0.1,-0.1 0,0 z"
   id="path910"
   style="fill:#a05a2c" />
							</g><g
     id="g916"
     style="fill:#a05a2c"
     transform="translate(129.65517,-56.551724)">
								<path
   class="st37"
   d="m 809.5,845 h -22 c 4.1,11.7 -5.1,56.4 6.8,65.3 12.1,9.1 13.6,-52.5 15.2,-65.3 -0.1,0.1 0,-0.1 0,0 z"
   id="path914"
   style="fill:#a05a2c" />
							</g><g
     id="g922"
     transform="translate(129.65517,-56.551724)">
								<path
   class="st0"
   d="m 719.7,921.6 c -13.6,1.4 -46.3,1.7 -57.4,-1.7 v -4.2 c 7.3,4.6 42.3,3.9 57.3,2.3 0.8,4.9 0.1,3.6 0.1,3.6 z"
   id="path918" />
								<path
   class="st47"
   d="m 719.6,918 c -14.9,1.6 -49.9,2.3 -57.3,-2.3 v -0.4 c 0.1,-0.1 0.3,-0.3 0.4,-0.4 3.7,-3.8 13.3,-8.9 19.7,-11.8 5.4,-2.5 10.5,-10.4 12.4,-11.6 1.8,10.8 6.1,8.7 11.6,4 5.1,-4.4 7.2,-4.7 8.7,3.3 0.2,1.2 0.9,5.9 2.2,10.2 1,3.3 1.9,6.7 2.3,8.9 0,0.1 0,0.1 0,0.1 z"
   id="path920" />
							</g><g
     id="g928"
     transform="translate(129.65517,-56.551724)">
								<path
   class="st0"
   d="m 812.5,919.3 c -10.6,1.3 -35.9,1.4 -44.5,-2.2 l 0.1,-4.2 c 5.6,4.7 32.7,4.2 44.3,2.7 0.6,4.9 0.1,3.7 0.1,3.7 z"
   id="path924" />
								<path
   class="st47"
   d="m 812.4,915.6 c -11.6,1.5 -38.7,1.9 -44.3,-2.7 v -0.4 c 0.1,-0.1 0.2,-0.3 0.3,-0.4 2.9,-3.8 15,-11.2 15.4,-11.6 3,-3.1 3.1,-7.8 4.6,-8.9 2.9,14.8 4.2,6.1 11,1.8 4.7,-3 6,-1.6 8.8,3.8 0.5,1 1.6,5.1 2.6,9.4 0.7,3.3 1.4,6.7 1.7,8.9 -0.1,0.1 -0.1,0.1 -0.1,0.1 z"
   id="path926" />
							</g><g
     id="g980"
     transform="translate(129.65517,-56.551724)">
									<path
   class="st37"
   d="m 673.7,225 c -0.6,2.5 1.9,4 4.6,5 -1.1,10.9 -0.4,21.9 -0.7,23.8 0,0 0,0 0,0 0,0.2 -0.1,0.4 -0.1,0.6 0,0.1 0,0.2 0,0.3 -0.1,0.7 0,1.5 0.2,2.2 0.3,0.8 0.8,1.5 1.6,2.2 3.6,2.6 8.6,3.4 13.6,3.1 0.8,0 1.6,-0.1 2.4,-0.2 0.6,-0.1 1.1,-0.2 1.6,-0.3 1.9,-0.3 3.6,-0.8 5.2,-1.4 2.4,-0.9 4.4,-2.1 5.6,-3.3 0.5,-0.5 0.9,-1 1.2,-1.5 0,0 0,0 0,-0.1 0,0.3 0,0.5 -0.1,0.8 0,0.1 0,0.3 0,0.5 0,0.1 0,0.1 0,0.2 0,0.2 0,0.4 0,0.6 0,0.1 0,0.1 0,0.2 v 0 c 0,0.2 0,0.3 0,0.5 0,0.2 0,0.5 -0.1,0.7 0,0.2 0,0.5 -0.1,0.7 -0.1,0.7 -0.1,1.4 -0.2,2.2 -0.1,1.2 -0.2,2.4 -0.4,3.6 0,0.4 -0.1,0.7 -0.1,1.1 -0.2,2.2 -0.5,4.4 -0.7,6.6 0,0.2 0,0.4 -0.1,0.6 -0.2,1.6 -0.3,3.1 -0.5,4.6 -0.2,2 -0.4,3.8 -0.6,5.3 -0.4,3 -0.6,5 -0.6,5.1 0,0 0.1,0 0.1,0 2.9,1.2 7.6,2.2 13,2.9 9.9,1.3 22.2,1.5 31.3,0.4 v 0 c 3.6,-0.5 6.7,-1.2 8.8,-2.1 0.8,-0.3 1.4,-0.7 1.9,-1.1 0,0 0,0 0.1,0 0.1,-0.1 0.2,-0.1 0.3,-0.2 -0.8,-1.9 -0.9,-6 -0.8,-11.2 0,-0.6 0,-1.1 0.1,-1.7 0,-0.9 0.1,-1.8 0.1,-2.7 0.2,-3.1 0.5,-6.5 0.8,-9.8 0.6,-6.6 1.4,-13.3 2,-18.5 v 0 c 0.3,-2.8 0.6,-5.1 0.8,-6.8 0.1,-1.3 0.3,-2.4 0.4,-3.3 1.7,-11.2 4.4,-22.2 6.7,-33.4 3.5,-17.1 -67.8,-22.8 -67.8,-22.8 -5.9,3.4 -8.5,9.2 -10.8,15.7 0,0.1 -0.1,0.2 -0.1,0.3 -0.7,2 -1.4,4 -2.2,6.1 -0.1,0.2 -0.2,0.5 -0.3,0.7 -0.1,0.2 -0.2,0.4 -0.2,0.6 0,0 0,0 0,0 0,0.1 -0.1,0.1 -0.1,0.2 -0.3,0.7 -0.6,1.4 -0.9,2.2 -0.1,0.3 -0.3,0.6 -0.4,0.9 -0.1,0.2 -0.5,0.8 -1.1,1.6 -0.9,1.3 -2.4,3.3 -4,5.4 -3.7,5 -8.1,10.8 -8.4,11.1 -0.5,0.5 -0.8,1.2 -1,1.8 z"
   id="path932"
   style="fill:#a05a2c;fill-opacity:1" />
									
									<path
   class="st38"
   d="m 677.5,254.7 c -0.1,0.7 0,1.5 0.2,2.2 0.3,0.8 0.8,1.5 1.6,2.2 3.6,2.6 8.6,3.4 13.6,3.1 0.8,0 1.6,-0.1 2.4,-0.2 0.6,-0.1 1.1,-0.2 1.6,-0.3 1.9,-0.3 3.6,-0.8 5.2,-1.4 2.4,-0.9 4.4,-2.1 5.6,-3.3 0.5,-0.5 0.9,-1 1.2,-1.5 0,0 0,0 0,-0.1 1.3,-3 2.5,-6 4.6,-8.6 l -0.4,-8.6 c -2.3,2.3 -4.5,6.8 -6.8,9.8 -3,3.8 -6.8,6 -11.2,7.6 -5.2,1.8 -12.5,2.1 -17.6,-0.9 z"
   id="path938"
   style="fill:#784421" />
									
									<g
   id="g950">
										<path
   class="st48"
   d="m 709.4,204 c 1.2,5 -0.9,8.6 -0.4,13.4 0.5,5.1 2,11.1 2.4,16.1 2.4,1 4.6,2.7 6.8,3.7 0.5,-4.2 2.2,-8.2 3.5,-12.1 8.1,3.8 9.2,32.3 11.8,40.4 6.8,1.4 21.9,4.2 29.6,-0.9 0.8,-5.4 1.8,-11.8 3,-18.3 0.5,-2.7 1,-5.3 1.6,-8 1.3,-6.2 2.8,-12.1 4.4,-17.2 3.4,-10.5 6.8,-28.1 3.1,-38.6 l -67.4,-6.2 c -2.6,8.3 -0.5,18.7 1.6,27.7 z"
   id="path946"
   style="fill:#454837;fill-opacity:1" />
										<path
   class="st48"
   d="m 776.3,182.7 -1.1,-0.1 c 0,-0.1 0,-0.1 -0.1,-0.2 0.3,-0.8 0.5,0.2 1.2,0.3 z"
   id="path948" />
									</g>
									<path
   class="st49"
   d="m 713.4,190.5 c -0.5,15.1 7.1,32 14.9,42.2 6.9,9 19,13 30.8,13.7 2.3,0.1 4.7,0.1 6.9,0 0.5,-2.7 1,-5.3 1.6,-8 -12.3,1.2 -26.5,-1.8 -33.2,-10.5 -8.2,-10.7 -13.6,-25.9 -13.3,-37.1 z"
   id="path952" />
									<g
   id="g960">
										<g
   id="g956">
											<path
   class="st37"
   d="m 727.8,224.5 c -4.7,-7 -11.9,-5.7 -13.6,5 0,0 -2.8,8.8 -0.2,11.7 3.2,3.5 8.7,1.3 11.4,-1.5 3.6,-3.7 5.9,-9.9 2.4,-15.2 z"
   id="path954"
   style="fill:#a05a2c;fill-opacity:1" />
										</g>
										<path
   class="st38"
   d="m 716.7,237.4 c 8.3,0 -0.1,-8.6 1.9,-11.9 3.2,-5 10.9,-0.5 9.2,4.9 -0.8,-2.9 -3.5,-5.9 -6.4,-3 3.1,1.6 2.5,7.2 1.1,9.8 -1.7,3.4 -7.1,3.3 -6.2,-0.6 l 0.3,0.1 c 0,0.2 -0.2,0.4 0.1,0.7 z"
   id="path958"
   style="fill:#784421" />
									</g>
									<g
   id="g976">
										<path
   class="st40"
   d="m 673.6,185.4 c 0.8,7 27.1,23.5 46.6,33.9 8.7,4.7 22.2,9 31.8,10.1 6.8,0.8 18,1.1 23,-3.5 0,0 2.7,-5.7 3.6,-10.3 1.8,-9.1 2.7,-17 2.2,-24.2 -0.1,-2 -0.4,-3.9 -0.8,-5.8 -1.6,-7.7 -5.8,-14.1 -11.4,-19.2 -2.5,-2.3 -5.2,-4.3 -8.1,-6 -10.3,-6.3 -22.7,-9.5 -32.5,-9.4 -10.2,0.2 -18.5,2.3 -26.3,10.9 -3.7,4.1 -8.6,10.9 -10.3,15.8 -0.2,0.7 -0.6,1.3 -1.1,1.8 -1.9,1.9 -5.3,2.2 -8.6,2.5 -0.1,0 -0.1,0 -0.1,0 -4.2,0.3 -8,0.5 -8,3.4 z"
   id="path962"
   style="fill:#ff7f2a" />
										<g
   class="st50"
   id="g966">
											<path
   class="st51"
   d="m 673.6,185.4 c 0.8,7 27.1,23.5 46.6,33.9 8.7,4.7 22.2,9 31.8,10.1 6.8,0.8 18,1.1 23,-3.5 0,0 2.7,-5.7 3.6,-10.3 2.3,-11.6 3.2,-21.3 1.4,-30 -1.6,-7.7 -5.8,-14.1 -11.4,-19.2 1.6,9.6 1.3,19.6 -0.4,28.3 -0.7,3.8 -1.9,8.3 -4.1,11.6 -2,2.8 -5.1,3.8 -8.2,5.1 -6,2.6 -12.5,2.5 -18.9,1.3 -12.1,-2.3 -24.6,-8.3 -35.1,-14.7 -6,-3.6 -12.1,-7.8 -17.2,-12.7 -1.1,-1 -2.1,-2.1 -3.1,-3.3 -4.2,0.3 -8,0.5 -8,3.4 z"
   id="path964"
   style="fill:#ff7f2a" />
										</g>
										<g
   class="st52"
   id="g970">
											<path
   class="st40"
   d="m 690.2,179.5 c 6.7,5.9 16.5,10.7 22.5,13 2.2,-14.9 13.9,-27.2 28.4,-31.5 6.5,-1.9 12.8,-1.9 19.3,-0.6 -10.3,-6.3 -22.7,-9.5 -32.5,-9.4 -10.2,0.2 -18.5,2.3 -26.3,10.9 -3.7,4.1 -8.6,10.9 -10.3,15.8 -0.2,0.7 -0.6,1.3 -1.1,1.8 z"
   id="path968"
   style="fill:#ff7f2a" />
										</g>
										<g
   class="st50"
   id="g974">
											<path
   class="st51"
   d="m 673.6,185.4 c 0.8,7 27.1,23.5 46.6,33.9 8.7,4.7 22.2,9 31.8,10.1 6.8,0.8 18,1.1 23,-3.5 0,0 2.7,-5.7 3.6,-10.3 1.8,-9.1 2.7,-17 2.2,-24.2 -0.7,-0.3 -1.5,-0.6 -2.3,-0.9 -8,-2.4 -14.5,0.3 -19.5,7 -5.1,7 -5,11.4 -15,10.9 -8.8,-0.5 -16.6,-2.5 -24.9,-5.2 -9.4,-3 -18.8,-6.9 -26.8,-12.9 -3.4,-2.5 -7.1,-5.3 -10.6,-8.5 -0.1,0 -0.1,0 -0.1,0 -4.2,0.5 -8,0.7 -8,3.6 z"
   id="path972"
   style="fill:#ff6600" />
										</g>
									</g>
									<path
   class="st48"
   d="m 678.1,230.2 3.6,0.4 c 7.3,1.6 12.6,4.6 9.4,16.5 0.1,-8.3 -8.7,-5.2 -13.2,-6.8 -4.5,-1.5 -1,-8 0.2,-10.1 z"
   id="path978"
   style="fill:#454837;fill-opacity:1" />
								</g><path
     class="st53"
     d="m 737.35517,273.24828 c 0.4,3.9 1,-12.1 1.6,-8.1 3.6,6.5 44,13 53.8,14.9 9.6,24.4 12.2,89.8 12.8,129.1 0.3,19.5 0.1,37.5 0,50.6 35,11.5 57,14.8 95.4,0 0.1,-80.6 46.8,-173.8 16.7,-236.1 -0.3,-0.7 -0.7,-1.4 -1,-2 -1,-1.8 -4.7,-6.6 -9.6,-9.6 -5,-3.1 -11.1,-4.4 -16.8,0.6 -15.8,14.1 -36.7,8.9 -56.4,8.6 -5.3,-0.1 -10.4,0.2 -15.4,1.3 -2.6,0.6 -5.1,1.1 -7.6,1.5 -25.7,4.8 -50.2,5.5 -70.3,4.4 -4.7,15.8 -4.8,30.1 -3.2,44.8 z"
     id="path982"
     sodipodi:nodetypes="ccccccccccccccc"
     style="fill:#ff7f2a" /><path
     class="st55"
     d="m 801.35517,351.04828 c 1.3,17.6 3.6,39.8 2,54.1 -0.7,6 -1.2,15.1 -1.3,24.9 -0.1,3.8 -0.1,7.7 0,11.6 0,1.5 0,2.9 0.1,4.4 0,0.2 0,0.4 0,0.6 0.2,6.8 0.5,13.4 1.1,18.8 0.1,0.6 0.1,1.3 0.2,1.9 0.2,1.3 0.5,2.6 1,3.7 2,4.5 6.7,7.4 13.1,9.2 9.2,2.6 21.9,2.8 35.3,1.7 22.9,-1.7 47.8,-7.1 60.8,-10.3 1.5,-0.4 2.9,-0.7 4,-1 0.1,0 0.1,0 0.2,-0.1 -0.1,-0.2 -0.1,-0.5 -0.2,-0.7 -1.8,-8.3 -2.8,-16.4 -3.3,-24.8 -0.1,-2.4 -0.2,-4.7 -0.3,-7.2 -0.1,-3.7 -0.1,-7.4 0,-11.3 0.2,-9.1 0.8,-18.6 1.6,-29.1 1.4,-17.8 11,-85.3 11,-85.3 -5.8,-21.5 -9.5,-27.7 -13.1,-43.9 -16.6,-0.9 -30.3,0.7 -48.5,1.3 -1.7,0.1 -3.3,0.1 -5,0.1 -1.4,0 -2.9,0.1 -4.3,0.1 -1.4,0 -2.8,0.1 -4.3,0.1 0,0 0,0.1 0,0.1 2.3,8.4 3.2,18.6 2.3,28.6 -2.4,26.6 -17.4,52 -53,39.5 0,3.9 0.3,8.3 0.6,13 z"
     id="path986"
     style="fill:#178066;fill-opacity:1" /><path
     class="st55"
     d="m 810.85517,223.84828 c 7.8,2.2 15,6.6 21.2,13.1 1.2,1.2 2.3,2.6 3.4,3.9 7,8.9 12.5,18.9 15.9,29.1 0,0 0,0.1 0,0.1 2.7,8.2 4.2,16.5 4.1,24.3 h 2.2 l 5.8,0.1 5,0.1 c 0.1,-8.1 -1.1,-16.5 -3.5,-24.8 -3.7,-12.9 -10.3,-25.6 -19.2,-36.9 -0.7,-0.9 -1.4,-1.7 -2.1,-2.5 -3,-3.5 -6.3,-6.6 -9.7,-9.2 -3.8,-0.1 -7.6,0.1 -11.3,0.6 v 0 c -1.3,0.2 -2.6,0.4 -3.9,0.7 -0.1,0 -0.1,0 -0.2,0 -2.7,0.5 -5.2,1 -7.7,1.4 z"
     id="path988"
     style="fill:#178066;fill-opacity:1" /><path
     class="st55"
     d="m 901.75517,287.24828 13,-1.1 c -1.6,-18.2 -2,-33.9 0.8,-51.3 0.6,-3.7 1.3,-7.4 2.1,-11.3 -0.3,-0.7 -0.7,-1.4 -1,-2 -1,-1.8 -4.7,-6.6 -9.6,-9.6 -0.3,1.2 -0.6,2.4 -0.9,3.6 l -0.4,1.9 c -0.7,3.1 -1.4,6 -1.9,9 -4.2,21.3 -3.9,40.1 -2.1,60.8 z"
     id="path990"
     style="fill:#178066;fill-opacity:1" /><path
     class="st55"
     d="m 917.65517,469.84828 v 0 c 0,0.3 0,0.5 -0.1,0.8 -0.1,1.7 -0.3,3.3 -0.5,4.7 0,0.3 -0.1,0.6 -0.2,0.9 0,0 0,0 0,0 -0.4,2.1 -0.9,4 -1.5,5.7 -4.9,14.1 -16.7,15.9 -27.1,20.6 -7.5,3.4 -14.2,8.2 -17.2,20.1 -1,4.3 -1.6,9.5 -1.5,15.8 0,1.6 0.1,3.3 0.2,5.1 0,0.7 0.1,1.4 0.1,2 0.3,5.9 0.3,11.9 0.1,17.9 -1,32.6 -7.9,66.1 -10,88 -2.8,28.7 4.6,48.9 5.7,77.6 0.9,23.2 -10,76.2 -14.5,100 h -35.7 c -1.3,-20.8 -1.3,-61.1 -1.3,-103.1 0,-26 -0.1,-52.8 -0.4,-76 0,-1.8 -0.1,-3.6 -0.1,-5.4 -0.2,-8.2 -0.3,-15.9 -0.6,-22.9 -0.3,-9.1 -0.7,-17.1 -1.3,-23.4 -0.1,-1.7 -0.3,-3.7 -0.5,-6 -0.1,-1 -0.2,-2 -0.2,-3.1 -0.7,-8.9 -1.5,-21.1 -2.3,-34.7 -0.3,-4.6 -0.6,-9.3 -0.9,-14.1 -0.3,-5.4 -0.6,-10.9 -0.9,-16.4 0,-0.3 0,-0.6 -0.1,-0.8 -0.1,-1.3 -0.1,-2.6 -0.2,-4 0,-0.4 0,-0.7 -0.1,-1.1 -0.6,-10.7 -1.1,-21.3 -1.6,-31.3 0,-0.4 0,-0.7 0,-1.1 0,-0.9 -0.1,-1.8 -0.1,-2.7 0,-0.4 0,-0.8 0,-1.1 -0.2,-3.7 -0.3,-7.3 -0.5,-10.8 v 0 c -0.2,-5.8 -0.4,-11.1 -0.6,-15.7 -0.2,-5.2 -0.2,-9.5 -0.2,-12.8 0,-0.4 0,-0.8 0,-1.1 h 1.1 0.9 l 12.7,-0.4 26.1,-0.8 37.1,-1.2 11.9,-0.4 2.6,-0.1 6.1,-0.2 12.1,-0.4 v 0 h 0.5 c 0.2,0.9 0.4,1.9 0.5,2.8 0.1,0.8 0.3,1.5 0.4,2.2 0.1,0.7 0.2,1.3 0.3,2 0.7,4.2 1.2,8 1.5,11.6 0.4,5 0.5,9.4 0.3,13.3 z"
     id="path994"
     style="fill:#178066;fill-opacity:1" /><path
     class="st55"
     d="m 869.15517,558.84828 c 13.5,67.2 34.5,220 45,270.3 h 35 c -0.3,-21.5 0.7,-79.3 -2.5,-114.9 -0.6,-6.2 -1.3,-11.8 -2.1,-16.4 -6.6,-34.9 -17.7,-58.5 -20.4,-94.1 -2.5,-32.7 -1.4,-87.2 -10.8,-133.6 -7.2,-35.2 -71.1,-40.9 -71.1,-40.9 9.1,46.1 20,98.1 24.2,116.7 0.8,3.9 1.7,8.2 2.7,12.9 z"
     id="path996"
     style="fill:#178066;fill-opacity:1" /><g
     id="g1000"
     transform="translate(129.65517,-56.551724)">
									<path
   class="st56"
   d="m 721.6,885.8 c 4.5,-23.9 15.5,-76.8 14.5,-100 -1.1,-28.7 -8.5,-48.9 -5.7,-77.6 2.6,-26.4 12,-69.8 9.8,-107.9 -0.5,-8.7 0.1,-15.5 1.4,-20.9 0,-5.5 0.4,-7.1 1.9,-11.4 4.1,-12.1 10.5,-13.4 20.7,-17.8 9.4,-4 19.9,-9.9 23.1,-17.2 0,0 0,0 0,0 1.3,-7.5 -2.1,0.9 -22,10.7 -17.5,8.5 -41.4,6.9 -58.9,5.5 -2.6,-0.2 31.6,6.5 30.4,21 -7.2,87.4 -23,153.4 -14,188.3 7.2,27.9 -24,44.7 -38.2,24.3 0.1,42.1 0.1,82.3 1.3,103.1 h 35.7 z"
   id="path998"
   style="fill:#176666;fill-opacity:1" />
								</g><path
     class="st56"
     d="m 869.85517,549.14828 c -0.2,3.2 -0.5,6.5 -0.7,9.7 13.5,67.2 34.5,220 45,270.3 h 35 c -0.3,-21.5 0.7,-79.3 -2.5,-114.9 -4.8,2.8 -10.2,4.6 -15.8,5 -15.2,1.2 -18.1,-7.6 -23.7,-19.7 -15.4,-33 -17.8,-67 -21,-102.5 -1.6,-18.5 -2.1,-37.3 -2.2,-55.6 0,-8.3 1.4,-17.1 2.2,-25.3 0.5,-5.9 4.3,-22.2 3.3,-23.7 l -17.4,5.5 c -7.6,13.6 -1.2,35.6 -2.2,51.2 z"
     id="path1002"
     style="fill:#176666;fill-opacity:1" /><g
     id="g1010"
     transform="translate(129.65517,-56.551724)">
									<path
   class="st56"
   d="m 678.8,645.6 37.4,1.5 c -4,18.9 -5.8,42.3 -6.7,60.9 -10.3,-1 -16.5,-1.9 -27.1,-1.3 -2.3,-18.6 -4.6,-45 -3.6,-61.1 z"
   id="path1006"
   style="fill:#176666;fill-opacity:1" />
									<path
   class="st55"
   d="m 674.3,678.3 c -0.8,-11 -1.1,-21.7 -0.6,-29.8 l 37.4,1.5 c -1.9,8.8 -3.2,18.5 -4.3,28.3 z"
   id="path1008"
   style="fill:#178066;fill-opacity:1" />
								</g><path
     class="st57"
     d="m 903.75517,226.34828 c 3.7,1.1 6.9,3.3 9.7,6.2 0.7,0.8 1.4,1.5 2.1,2.3 0.6,-3.7 1.3,-7.4 2.1,-11.3 -0.3,-0.7 -0.7,-1.4 -1,-2 -1,-1.8 -4.7,-6.6 -9.6,-9.6 -0.3,1.2 -0.6,2.4 -0.9,3.6 l -0.4,1.9 c -0.8,3 -1.4,5.9 -2,8.9 z"
     id="path1012"
     style="fill:#176666;fill-opacity:1" /><path
     class="st57"
     d="m 810.85517,223.84828 c 7.8,2.2 15,6.6 21.2,13.1 2.7,-2.2 5.8,-4.2 8.7,-5.6 0.9,-0.5 1.9,-0.8 2.9,-1.1 -3,-3.5 -6.3,-6.6 -9.7,-9.2 -3.8,-0.1 -7.6,0.1 -11.3,0.6 v 0 c -1.3,0.2 -2.6,0.4 -3.9,0.7 -0.1,0 -0.1,0 -0.2,0 -2.7,0.6 -5.2,1.1 -7.7,1.5 z"
     id="path1014"
     style="fill:#176666;fill-opacity:1" /><path
     class="st57"
     d="m 801.35517,351.04828 c 1.3,17.6 3.6,39.8 2,54.1 -0.7,6 -1.2,15.1 -1.3,24.9 -0.1,3.8 -0.1,7.7 0,11.6 0,1.5 0,2.9 0.1,4.4 1.4,-9.2 3.7,-18.1 5.5,-27.5 2.2,-11.3 3.8,-23.2 5.1,-34.9 1.2,-10.6 1.5,-22.5 10,-30 8.8,-7.8 16.1,-10.3 22.6,-20.9 6.6,-10.7 7,-21.1 9.6,-32.7 l -1.1,-1.5 c -2.4,26.6 -17.4,52 -53,39.5 -0.1,3.9 0.2,8.3 0.5,13 z"
     id="path1018"
     style="fill:#176666;fill-opacity:1" /><g
     id="g1048"
     transform="translate(129.65517,-56.551724)">
								<g
   id="g1024">
									<path
   class="st58"
   d="m 787.7,513 c -0.6,0.3 -1.2,0.7 -1.8,1 -2,1.1 -4,2.1 -5.9,3.1 -0.8,0.4 -1.5,0.7 -2.2,1.1 -2.5,1.2 -5.1,2.2 -7.8,3.2 -2.3,0.8 -4.6,1.4 -6.9,2 -13.2,3.2 -27.4,3.5 -40,2.8 -0.8,0 -1.7,-0.1 -2.5,-0.1 -0.9,-0.1 -1.7,-0.1 -2.5,-0.2 H 718 c -3.7,-0.3 -7.5,-0.7 -11.3,-1.4 -4.4,-0.8 -8.8,-1.9 -13.1,-3.3 -0.7,-0.2 -1.3,-0.4 -2,-0.7 -1,-0.3 -1.9,-0.7 -2.9,-1 -3.3,-1.3 -6.4,-2.7 -9.3,-4.3 -1.2,-0.7 -2.4,-1.4 -3.5,-2.1 -0.6,-0.4 -1.1,-0.8 -1.7,-1.1 0,0 0,0 0,0 -0.5,-0.4 -1,-0.7 -1.5,-1.1 -1,-0.8 -1.9,-1.5 -2.8,-2.4 -1.2,-5.6 -1.2,-9.9 0.8,-15.3 0.4,-1.1 0.9,-2.2 1.4,-3.4 -0.1,1.1 0,2.1 0.3,3.1 0.2,0.8 0.5,1.6 1,2.5 0.1,0.2 0.2,0.4 0.3,0.6 0.4,0.7 0.9,1.4 1.5,2.1 0.3,0.4 0.6,0.7 0.9,1.1 1.2,1.3 2.6,2.6 4.2,3.8 3.7,2.8 8.4,5.1 13.4,6.9 7.6,2.8 16.2,4.5 24.1,5.2 0.2,0 0.5,0 0.7,0.1 0.1,0 0.2,0 0.4,0 13.6,1 30.3,-0.4 45.2,-5.6 1.8,-0.6 3.5,-1.3 5.2,-2 0,0 0.1,0 0.1,-0.1 0.5,-0.2 1,-0.5 1.6,-0.7 0.3,-0.1 0.5,-0.2 0.8,-0.4 4.7,-2.2 9.1,-4.9 13,-8.2 0.3,-0.2 0.6,-0.5 0.9,-0.7 0.1,0.8 0.3,1.5 0.4,2.2 0.1,0.7 0.2,1.3 0.3,2 0.5,3.9 1,7.8 1.3,11.3 z"
   id="path1020" />
									<path
   class="st59"
   d="m 787.7,513 c -0.6,0.3 -1.2,0.7 -1.8,1 -2,1.1 -4,2.1 -5.9,3.1 -0.8,0.4 -1.5,0.7 -2.2,1.1 -2.5,1.2 -5.1,2.2 -7.8,3.2 -2.3,0.8 -4.6,1.4 -6.9,2 -13.2,3.2 -27.4,3.5 -40,2.8 -0.8,0 -1.7,-0.1 -2.5,-0.1 -0.9,-0.1 -1.7,-0.1 -2.5,-0.2 H 718 c -3.7,-0.3 -7.5,-0.7 -11.3,-1.4 -4.4,-0.8 -8.8,-1.9 -13.1,-3.3 -0.7,-0.2 -1.3,-0.4 -2,-0.7 -1,-0.3 -1.9,-0.7 -2.9,-1 -3.3,-1.3 -6.4,-2.7 -9.3,-4.3 -1.2,-0.7 -2.4,-1.4 -3.5,-2.1 -0.6,-0.4 -1.1,-0.8 -1.7,-1.1 0,0 0,0 0,0 -0.5,-0.4 -1,-0.7 -1.5,-1.1 -1,-0.8 -1.9,-1.5 -2.8,-2.4 -1.2,-5.6 -1.2,-9.9 0.8,-15.3 0.2,-0.5 0.5,-1.1 0.8,-1.7 -0.1,1.7 0.2,3.3 1,5 0.1,0.2 0.2,0.4 0.3,0.6 0.2,0.3 0.4,0.7 0.6,1 0.2,0.4 0.5,0.8 0.8,1.1 0.6,0.8 1.3,1.6 2,2.3 1.1,1.1 2.3,2.2 3.6,3.2 3.8,2.8 8.5,5.1 13.6,7 7.7,2.8 16.4,4.6 24.4,5.2 0.4,0 0.7,0.1 1.1,0.1 0,0 0.1,0 0.1,0 13.6,1 30.2,-0.3 45.1,-5.4 1.9,-0.6 3.7,-1.3 5.5,-2.1 0.1,-0.1 0.3,-0.1 0.4,-0.2 0.6,-0.2 1.1,-0.5 1.7,-0.8 0.3,-0.2 0.6,-0.3 1,-0.5 4.4,-2.1 8.5,-4.6 12.2,-7.5 0.4,-0.3 0.8,-0.6 1.2,-1 0.1,0.7 0.2,1.3 0.3,2 0.5,4.1 1,8 1.3,11.5 z"
   id="path1022" />
								</g>
								<g
   id="g1030">
									<path
   class="st60"
   d="m 682.2,542.6 c 4.3,1.2 9.4,0.9 13.6,1.5 -1.3,-5.9 -2.9,-13.8 -2.4,-21 0.3,-3.8 1.1,-7.4 3,-10.5 -1.1,-0.2 -2.2,-0.4 -3.2,-0.7 -3.8,-0.9 -7.4,-2.1 -10.5,-3.8 -2.1,3.1 -3.3,6.5 -4.1,10.1 -0.9,4 -1.1,8.2 -1.2,12.5 0,0.7 0,1.3 0,2 -0.1,5.9 -0.5,8.4 4.8,9.9 z"
   id="path1026" />
									<path
   class="st59"
   d="m 682.2,542.6 c 4.3,1.2 9.4,0.9 13.6,1.5 -1.3,-5.9 -2.9,-13.8 -2.4,-21 0.3,-3.8 1.1,-7.4 3,-10.5 -1.1,-0.2 -2.2,-0.4 -3.2,-0.7 -0.7,2.1 -1.2,4.4 -1.4,6.7 -0.3,4 0,8.3 -1.5,11.9 -2.8,7.1 -8.4,4.4 -12.9,0.2 0,0.7 0,1.3 0,2 -0.1,5.9 -0.5,8.4 4.8,9.9 z"
   id="path1028" />
								</g>
								<g
   id="g1046">
									<path
   class="st60"
   d="m 661.4,591.9 c 1,5 2.8,9.4 5.4,12.2 9.6,10.3 34.6,12.1 42.5,-0.8 6.6,-10.6 8.9,-39.9 3.2,-51.6 -1.8,-3.7 -4.7,-6.6 -8.3,-8.8 -10.6,-6.3 -26.8,-6.3 -36.7,-3 0,0 -4.6,4.1 -4.9,6 -1,7.2 -4.5,30.1 -1.2,46 z"
   id="path1032" />
									<path
   class="st59"
   d="m 661.4,591.9 c 1,5 2.8,9.4 5.4,12.2 9.6,10.3 34.6,12.1 42.5,-0.8 6.6,-10.6 8.9,-39.9 3.2,-51.6 -1.8,-3.7 -4.7,-6.6 -8.3,-8.8 0.3,2.1 0.5,4.2 0.9,6.3 1.7,8.7 2.8,18.5 0.5,27.3 -5.3,21.6 -27.6,24.9 -44.2,15.4 z"
   id="path1034" />
									<g
   id="g1044">
										<path
   class="st58"
   d="m 661.8,576.2 c 1.7,1.1 4,2 6.6,2.7 0,0 0,0 0.1,0 11.3,3.1 28.7,2.7 35.1,-3.1 6.5,-5.9 8.7,-22.1 3.2,-28.6 -3.1,-3.6 -9.5,-5.8 -16.8,-6.9 -9.3,-1.4 -20,-1 -27.2,0.4 0,0 -4.5,2.3 -4.8,3.3 -1.8,5.2 -7.1,25.6 3.8,32.2 z"
   id="path1036" />
										<path
   class="st61"
   d="m 702.7,548.5 c -2,-2.2 -5.5,-3.7 -9.3,-4.6 0,0 0,0 0,0 -0.5,-0.1 -1.1,-0.3 -1.6,-0.4 -3.7,-0.8 -7.6,-1.1 -10.6,-1.2 -1.6,-0.1 -2.9,-0.1 -3.9,-0.1 -0.6,0 -1.3,0 -1.9,0 -3.9,0.1 -7.6,0.4 -10.7,1 h -0.1 -0.1 c -1.5,0.7 -4.1,2 -4.4,2.9 -1,2.8 -4.8,15.5 0,22.7 v 0 c 0.9,1.3 2.1,2.5 3.6,3.4 3,1.7 7.8,2.9 13.3,3.4 1.9,0.2 3.8,0.3 5.7,0.3 0,0 0,0 0,0 2.3,0 4.4,-0.1 6.4,-0.4 4.8,-0.6 8.6,-1.9 10.8,-3.7 3,-2.6 5.2,-7.7 5.5,-13 0.3,-4.4 -0.7,-8.1 -2.7,-10.3 z m 1.7,10.2 c -0.3,5.1 -2.3,9.9 -5.1,12.3 -1.8,1.5 -4.8,2.6 -8.6,3.2 -2.4,0.4 -5,0.6 -7.9,0.6 v 0 c -2,0 -3.9,-0.1 -5.8,-0.3 -5.2,-0.5 -9.8,-1.7 -12.7,-3.3 -1.9,-1.1 -3.2,-2.7 -4,-4.5 -3.3,-7.3 0.3,-18.7 0.9,-20.3 0.1,-0.3 0.9,-0.8 2,-1.4 0.6,-0.3 1.2,-0.6 1.8,-0.9 3,-0.5 6.7,-0.8 10.5,-0.9 0.6,0 1.2,0 1.9,0 5.8,0 11,0.5 15.1,1.5 4.4,1 7.7,2.5 9.5,4.5 1.7,2 2.6,5.5 2.4,9.5 z"
   id="path1038" />
										<g
   class="st62"
   id="g1042">
											<path
   class="st58"
   d="m 668.5,578.9 c 11.3,3.1 28.7,2.7 35.1,-3.1 6.5,-5.9 8.7,-22.1 3.2,-28.6 -3.1,-3.6 -9.5,-5.8 -16.8,-6.9 4.6,7.4 8,15.6 5.8,24.4 -3.5,13.9 -15.5,16.6 -27.3,14.2 z"
   id="path1040" />
										</g>
									</g>
								</g>
							</g></g>
		</g></svg>
