<?xml version="1.0" encoding="UTF-8" standalone="no"?>
<!-- Generator: Adobe Illustrator 25.1.0, SVG Export Plug-In . SVG Version: 6.00 Build 0)  -->

<svg
   version="1.1"
   x="0px"
   y="0px"
   viewBox="0 0 300 150"
   xml:space="preserve"
   id="svg482"
   sodipodi:docname="encombran.svg"
   width="300"
   height="150"
   inkscape:version="1.1 (c68e22c387, 2021-05-23)"
   xmlns:inkscape="http://www.inkscape.org/namespaces/inkscape"
   xmlns:sodipodi="http://sodipodi.sourceforge.net/DTD/sodipodi-0.dtd"
   xmlns:xlink="http://www.w3.org/1999/xlink"
   xmlns="http://www.w3.org/2000/svg"
   xmlns:svg="http://www.w3.org/2000/svg"><defs
   id="defs486"><linearGradient
   inkscape:collect="always"
   id="linearGradient50604"><stop
     style="stop-color:#ffaaaa;stop-opacity:1"
     offset="0"
     id="stop50600" /><stop
     style="stop-color:#ececec;stop-opacity:1"
     offset="1"
     id="stop50602" /></linearGradient><inkscape:path-effect
   effect="spiro"
   id="path-effect2064"
   is_visible="true"
   lpeversion="1" /><inkscape:path-effect
   effect="spiro"
   id="path-effect2060"
   is_visible="true"
   lpeversion="1" /><inkscape:path-effect
   effect="spiro"
   id="path-effect2056"
   is_visible="true"
   lpeversion="1" />
	
	
	

		
		
		
	
		
		
		
	<linearGradient
   inkscape:collect="always"
   xlink:href="#linearGradient50604"
   id="linearGradient50606"
   x1="353.55115"
   y1="-67.890862"
   x2="342.68948"
   y2="174.33844"
   gradientUnits="userSpaceOnUse" /></defs><sodipodi:namedview
   id="namedview484"
   pagecolor="#505050"
   bordercolor="#eeeeee"
   borderopacity="1"
   inkscape:pageshadow="0"
   inkscape:pageopacity="0"
   inkscape:pagecheckerboard="0"
   showgrid="false"
   width="300px"
   inkscape:zoom="2.0590949"
   inkscape:cx="211.50069"
   inkscape:cy="35.209644"
   inkscape:window-width="1920"
   inkscape:window-height="1001"
   inkscape:window-x="-9"
   inkscape:window-y="-9"
   inkscape:window-maximized="1"
   inkscape:current-layer="svg482" />
<style
   type="text/css"
   id="style2">
	.st0{fill:#FCFEFD;}
	.st1{fill:#B9C6F3;}
	.st2{fill:none;stroke:#D6DCF3;stroke-linecap:round;stroke-linejoin:round;stroke-miterlimit:10;}
	.st3{fill:#E8AD75;}
	.st4{fill:#C79463;}
	.st5{fill:#FDFFFE;}
	.st6{fill:#8C3769;}
	.st7{fill:none;stroke:#A13F78;stroke-linecap:round;stroke-linejoin:round;stroke-miterlimit:10;}
	.st8{fill:none;stroke:#4C2E6D;stroke-linecap:round;stroke-linejoin:round;stroke-miterlimit:10;}
	.st9{fill:#F8BD86;}
	.st10{fill:#4192C9;}
	.st11{fill:#2D7EB5;}
	.st12{fill:#4C2E6D;}
	.st13{fill:#F8C463;}
	.st14{fill:#5F9E82;}
	.st15{fill:#87C699;}
	.st16{fill:#E35D76;}
	.st17{fill:#D14A67;}
	.st18{fill:#9059BA;}
	.st19{fill:#D49F6C;}
	.st20{fill:#7B40A9;}
	.st21{fill:none;stroke:#F8D188;stroke-linecap:round;stroke-linejoin:round;stroke-miterlimit:10;}
	.st22{fill:#E8614E;}
	.st23{fill:#5767BF;}
	.st24{fill:#CF5046;}
	.st25{fill:#EDB458;}
</style>
<g
   id="BACKGROUND"
   transform="matrix(0.41071687,0,0,0.30554528,-3.8852013,-9.9629121e-6)"
   style="fill-opacity:1;fill:url(#linearGradient50606)">
	<rect
   class="st0"
   width="750"
   height="500"
   id="rect4"
   x="0"
   y="0"
   style="fill-opacity:1;fill:url(#linearGradient50606)" />
</g>
<g
   id="g113"
   transform="matrix(0.47436837,0,0,0.46257989,-50.591679,-32.474124)">
			
			<g
   id="g111"
   transform="translate(-231.13412,-23.980252)">
				<path
   class="st6"
   d="m 434.4,275.3 h -62.1 c -8.7,0 -15.8,7.1 -15.8,15.8 v 18.2 c 0,8.7 7.1,15.8 15.8,15.8 h 62.1 c 8.7,0 15.8,-7.1 15.8,-15.8 v -18.2 c 0,-8.7 -7.1,-15.8 -15.8,-15.8 z"
   id="path49" />
				<g
   id="g107">
					<g
   id="g77">
						<line
   class="st7"
   x1="372.29999"
   y1="324.5"
   x2="400.39999"
   y2="275.79999"
   id="line51" />
						<line
   class="st7"
   x1="365.20001"
   y1="322.79999"
   x2="392.29999"
   y2="275.79999"
   id="line53" />
						<line
   class="st7"
   x1="380.29999"
   y1="324.5"
   x2="408.5"
   y2="275.79999"
   id="line55" />
						<line
   class="st7"
   x1="388.39999"
   y1="324.5"
   x2="416.5"
   y2="275.79999"
   id="line57" />
						<line
   class="st7"
   x1="396.39999"
   y1="324.5"
   x2="424.60001"
   y2="275.79999"
   id="line59" />
						<line
   class="st7"
   x1="404.5"
   y1="324.5"
   x2="432.60001"
   y2="275.79999"
   id="line61" />
						<line
   class="st7"
   x1="412.5"
   y1="324.5"
   x2="440"
   y2="276.89999"
   id="line63" />
						<line
   class="st7"
   x1="420.60001"
   y1="324.5"
   x2="445.79999"
   y2="280.89999"
   id="line65" />
						<line
   class="st7"
   x1="428.60001"
   y1="324.5"
   x2="449.5"
   y2="288.5"
   id="line67" />
						<line
   class="st7"
   x1="436.79999"
   y1="324.29999"
   x2="449.70001"
   y2="302"
   id="line69" />
						<line
   class="st7"
   x1="359.79999"
   y1="318.20001"
   x2="384.29999"
   y2="275.79999"
   id="line71" />
						<line
   class="st7"
   x1="356.89999"
   y1="309.20001"
   x2="376.20001"
   y2="275.79999"
   id="line73" />
						<line
   class="st7"
   x1="357"
   y1="295.20001"
   x2="367.79999"
   y2="276.39999"
   id="line75" />
					</g>
					<g
   id="g105">
						<line
   class="st7"
   x1="434.39999"
   y1="324.5"
   x2="406.20001"
   y2="275.79999"
   id="line79" />
						<line
   class="st7"
   x1="441.39999"
   y1="322.79999"
   x2="414.29999"
   y2="275.79999"
   id="line81" />
						<line
   class="st7"
   x1="426.29999"
   y1="324.5"
   x2="398.20001"
   y2="275.79999"
   id="line83" />
						<line
   class="st7"
   x1="418.20001"
   y1="324.5"
   x2="390.10001"
   y2="275.79999"
   id="line85" />
						<line
   class="st7"
   x1="410.20001"
   y1="324.5"
   x2="382"
   y2="275.79999"
   id="line87" />
						<line
   class="st7"
   x1="402.10001"
   y1="324.5"
   x2="374"
   y2="275.79999"
   id="line89" />
						<line
   class="st7"
   x1="394.10001"
   y1="324.5"
   x2="366.60001"
   y2="276.89999"
   id="line91" />
						<line
   class="st7"
   x1="386"
   y1="324.5"
   x2="360.79999"
   y2="280.89999"
   id="line93" />
						<line
   class="st7"
   x1="378"
   y1="324.5"
   x2="357.10001"
   y2="288.5"
   id="line95" />
						<line
   class="st7"
   x1="369.79999"
   y1="324.29999"
   x2="356.89999"
   y2="302"
   id="line97" />
						<line
   class="st7"
   x1="446.79999"
   y1="318.20001"
   x2="422.29999"
   y2="275.79999"
   id="line99" />
						<line
   class="st7"
   x1="449.70001"
   y1="309.20001"
   x2="430.39999"
   y2="275.79999"
   id="line101" />
						<line
   class="st7"
   x1="449.60001"
   y1="295.20001"
   x2="438.79999"
   y2="276.39999"
   id="line103" />
					</g>
				</g>
				<path
   class="st8"
   d="m 449.7,296 c 0,0 -12.4,4.2 -46.4,4.2 -34,0 -46.4,-4.2 -46.4,-4.2"
   id="path109" />
			</g>
		</g><g
   id="g213"
   transform="matrix(0.45665887,0,0,0.52411023,-303.72984,-140.66521)">
			
			<g
   id="g173"
   transform="translate(165.79652,237.8678)">
				<path
   class="st10"
   d="m 585,270.3 h -66 c -3.3,0 -6.1,-2.7 -6.1,-6.1 v -26.4 c 0,-3.3 2.7,-6.1 6.1,-6.1 h 66 z"
   id="path137" />
				<path
   class="st11"
   d="m 585,270.3 h 31.9 c 3.3,0 6.1,-2.7 6.1,-6.1 v -26.4 c 0,-3.3 -2.7,-6.1 -6.1,-6.1 H 585 Z"
   id="path139" />
				<polyline
   class="st8"
   points="512.9,250 585,250 623,250     "
   id="polyline141" />
				<g
   id="g147">
					<path
   class="st12"
   d="m 594.9,245.6 h 0.7 c 0.7,0 1.3,0.6 1.3,1.3 v 6.3 c 0,0.7 -0.6,1.3 -1.3,1.3 h -0.7 c -0.7,0 -1.3,-0.6 -1.3,-1.3 v -6.3 c 0,-0.7 0.6,-1.3 1.3,-1.3 z"
   id="path143" />
					<path
   class="st12"
   d="m 613.1,245.6 h -0.7 c -0.7,0 -1.3,0.6 -1.3,1.3 v 6.3 c 0,0.7 0.6,1.3 1.3,1.3 h 0.7 c 0.7,0 1.3,-0.6 1.3,-1.3 v -6.3 c -0.1,-0.7 -0.6,-1.3 -1.3,-1.3 z"
   id="path145" />
				</g>
				<rect
   x="550.29999"
   y="236.7"
   class="st0"
   width="8.8000002"
   height="7.4000001"
   id="rect149" />
				<path
   class="st13"
   d="m 546.8,260 c 0,-2.6 -2.1,-4.6 -4.6,-4.6 -2.5,0 -4.6,2.1 -4.6,4.6 0,2.6 2.1,4.6 4.6,4.6 2.5,0 4.6,-2 4.6,-4.6 z"
   id="path151" />
				<path
   class="st8"
   d="m 576.3,270.3 v 0 c 0,-4.8 3.9,-8.6 8.6,-8.6 v 0"
   id="path153" />
				<path
   class="st8"
   d="m 584.9,240.4 v 0 c -4.8,0 -8.6,-3.9 -8.6,-8.6 v 0"
   id="path155" />
				<path
   class="st8"
   d="m 593.6,231.8 v 0 c 0,4.8 -3.9,8.6 -8.6,8.6 v 0"
   id="path157" />
				<path
   class="st8"
   d="m 585,261.7 v 0 c 4.8,0 8.6,3.9 8.6,8.6 v 0"
   id="path159" />
				<g
   id="g165">
					<path
   class="st8"
   d="m 614.3,231.8 c 0,4.8 3.9,8.6 8.6,8.6"
   id="path161" />
					<path
   class="st8"
   d="m 623,261.7 c -4.8,0 -8.6,3.9 -8.6,8.6"
   id="path163" />
				</g>
				<g
   id="g171">
					<path
   class="st8"
   d="m 512.9,240.4 c 4.8,0 8.6,-3.9 8.6,-8.6"
   id="path167" />
					<path
   class="st8"
   d="m 521.6,270.3 c 0,-4.8 -3.9,-8.6 -8.6,-8.6"
   id="path169" />
				</g>
			</g>
			
		</g><g
   id="g401"
   transform="matrix(0.26515937,0.34937999,-0.26452949,0.35021192,142.46139,-84.766261)">
			<path
   class="st18"
   d="m 278.7,265.5 -140,140 -76.9,-76.9 c -10.3,-10.3 -10.3,-26.9 0,-37.2 L 164.6,188.6 c 10.3,-10.3 26.9,-10.3 37.2,0 z"
   id="path217" />
			<path
   class="st18"
   d="m 418.8,125.5 -140,140 -76.9,-76.9 c -10.3,-10.3 -10.3,-26.9 0,-37.2 L 304.6,48.6 c 10.3,-10.3 26.9,-10.3 37.2,0 z"
   id="path219" />
			<g
   id="g241">
				<g
   id="g229">
					
						<rect
   x="209.2"
   y="184.2"
   transform="matrix(0.7071,-0.7071,0.7071,0.7071,-89.5213,234.2136)"
   class="st4"
   width="57.5"
   height="81.900002"
   id="rect221" />
					<polygon
   class="st19"
   points="222,209.2 287.2,233.8 246.6,274.5 "
   id="polygon223" />
					<polygon
   class="st3"
   points="241.8,229 229.3,175.9 188.7,216.5 "
   id="polygon225" />
					<polygon
   class="st5"
   points="230.2,206.3 231.2,211.5 227.1,210.7 228.4,214.3 223.8,213.8 224.7,217.6 220.5,217.8 242.7,240 242.3,235.6 246.6,236.7 245.4,232.5 249.8,233.5 248.2,229.2 253.6,229.7 "
   id="polygon227" />
				</g>
				<g
   id="g239">
					
						<rect
   x="237.2"
   y="112.9"
   transform="matrix(0.7071,-0.7071,0.7071,0.7071,-18.2417,263.7387)"
   class="st9"
   width="144.10001"
   height="81.900002"
   id="rect231" />
					<polygon
   class="st5"
   points="339.1,120.8 344.5,122.7 342.6,118.5 347.8,119.3 316.8,88.4 305.8,99.4 336.8,130.4 336.2,125 341.2,126 "
   id="polygon233" />
					<polygon
   class="st5"
   points="280.9,179 286.3,180.9 284.4,176.7 289.6,177.6 258.6,146.6 247.6,157.6 278.6,188.6 278,183.2 283,184.2 "
   id="polygon235" />
					
						<rect
   x="330.79999"
   y="129.7"
   transform="matrix(0.7071,-0.7071,0.7071,0.7071,3.3136,291.9511)"
   class="st0"
   width="46.599998"
   height="24.6"
   id="rect237" />
				</g>
			</g>
			<g
   id="g265">
				
					<rect
   x="105.2"
   y="298.60001"
   transform="matrix(0.7071,-0.7071,0.7071,0.7071,-209.2041,181.5494)"
   class="st11"
   width="18.6"
   height="89.400002"
   id="rect243" />
				<g
   id="g263">
					
						<rect
   x="100.2"
   y="241.5"
   transform="matrix(0.7071,-0.7071,0.7071,0.7071,-152.1239,205.1928)"
   class="st10"
   width="142.8"
   height="89.400002"
   id="rect245" />
					
						<rect
   x="99.800003"
   y="278.70001"
   transform="matrix(0.7071,-0.7071,0.7071,0.7071,-149.4414,198.7207)"
   class="st11"
   width="130.7"
   height="2.2"
   id="rect247" />
					
						<rect
   x="134.39999"
   y="313.20001"
   transform="matrix(0.7071,-0.7071,0.7071,0.7071,-163.7601,233.2907)"
   class="st11"
   width="130.7"
   height="2.2"
   id="rect249" />
					
						<rect
   x="118.5"
   y="277"
   transform="matrix(0.7071,-0.7071,0.7071,0.7071,-157.1666,217.3671)"
   class="st8"
   width="130.7"
   height="42.799999"
   id="rect251" />
					
						<rect
   x="89"
   y="254.8"
   transform="matrix(0.7071,-0.7071,0.7071,0.7071,-144.9645,187.9086)"
   class="st8"
   width="130.7"
   height="28.4"
   id="rect253" />
					<circle
   class="st8"
   cx="119.8"
   cy="295.60001"
   r="2.9000001"
   id="circle255" />
					<path
   class="st8"
   d="m 146.1,317.9 c -1.1,-1.1 -2.9,-1.1 -4.1,0 -1.1,1.1 -1.1,2.9 0,4.1 1.1,1.1 2.9,1.1 4.1,0 1.2,-1.1 1.2,-3 0,-4.1 z"
   id="path257" />
					<circle
   class="st8"
   cx="205.3"
   cy="258.70001"
   r="2.9000001"
   id="circle259" />
					<circle
   class="st8"
   cx="181"
   cy="234.39999"
   r="2.9000001"
   id="circle261" />
				</g>
			</g>
			<path
   class="st20"
   d="m 371.6,112.7 30,30 -245.7,245.6 -30,-30 c -8.3,-8.3 -21.7,-8.3 -30,0 l -10.5,10.5 c -8.3,8.3 -8.3,21.7 0,30 l 58.5,58.5 c 9.1,9.1 23.7,9.1 32.8,0 L 470.4,163.6 c 9.1,-9.1 9.1,-23.7 0,-32.8 L 411.9,72.3 c -8.3,-8.3 -21.7,-8.3 -30,0 l -10.5,10.5 c -8,8.2 -8,21.6 0.2,29.9 z"
   id="path267" />
			<g
   id="g279">
				<path
   class="st20"
   d="M 146.7,374.3 259.1,261.9 c 4.4,-4.4 11.7,-4.4 16.1,0 l 13.3,13.3 c 4.4,4.4 4.4,11.7 0,16.1 L 176.1,403.7 c -4.4,4.4 -11.7,4.4 -16.1,0 l -13.3,-13.3 c -4.4,-4.4 -4.4,-11.6 0,-16.1 z"
   id="path269" />
				<path
   class="st20"
   d="M 275.2,245.8 387.6,133.4 c 4.4,-4.4 11.7,-4.4 16.1,0 l 13.3,13.3 c 4.4,4.4 4.4,11.7 0,16.1 L 304.6,275.2 c -4.4,4.4 -11.7,4.4 -16.1,0 l -13.3,-13.3 c -4.4,-4.4 -4.4,-11.6 0,-16.1 z"
   id="path271" />
				<g
   id="g277">
					<path
   class="st8"
   d="M 146.7,374.3 259.1,261.9 c 4.4,-4.4 11.7,-4.4 16.1,0 l 13.3,13.3 c 4.4,4.4 4.4,11.7 0,16.1 L 176.1,403.7 c -4.4,4.4 -11.7,4.4 -16.1,0 l -13.3,-13.3 c -4.4,-4.4 -4.4,-11.6 0,-16.1 z"
   id="path273" />
					<path
   class="st8"
   d="M 275.2,245.8 387.6,133.4 c 4.4,-4.4 11.7,-4.4 16.1,0 l 13.3,13.3 c 4.4,4.4 4.4,11.7 0,16.1 L 304.6,275.2 c -4.4,4.4 -11.7,4.4 -16.1,0 l -13.3,-13.3 c -4.4,-4.4 -4.4,-11.6 0,-16.1 z"
   id="path275" />
				</g>
			</g>
			<g
   id="g285">
				
					<rect
   x="178.8"
   y="448.39999"
   transform="matrix(0.7071,-0.7071,0.7071,0.7071,-266.6954,266.5964)"
   class="st12"
   width="19.4"
   height="13.6"
   id="rect281" />
				
					<rect
   x="458.79999"
   y="168.39999"
   transform="matrix(-0.7071,0.7071,-0.7071,-0.7071,923.6567,-32.1954)"
   class="st12"
   width="19.4"
   height="13.6"
   id="rect283" />
			</g>
			<g
   id="g301">
				
					<rect
   x="269.79999"
   y="85.699997"
   transform="matrix(-0.7071,0.7071,-0.7071,-0.7071,577.1901,-50.2066)"
   class="st10"
   width="58.299999"
   height="17.4"
   id="rect287" />
				
					<rect
   x="268.10001"
   y="110.6"
   transform="matrix(-0.7071,0.7071,-0.7071,-0.7071,552.3229,9.8251)"
   class="st11"
   width="12"
   height="17.4"
   id="rect289" />
				<path
   class="st10"
   d="m 265.3,102 38.2,-38.2 c 1.7,-1.7 4.4,-1.7 6.1,0 l 3.9,3.9 -41.3,41.3 z"
   id="path291" />
				<path
   class="st11"
   d="m 272.2,108.9 -8.5,8.5 -3.9,-3.9 c -1.7,-1.7 -1.7,-4.4 0,-6.1 l 5.4,-5.4 z"
   id="path293" />
				<path
   class="st12"
   d="m 300.5,75 -0.9,0.9 c -0.3,0.3 -0.3,0.9 0,1.2 l 4.4,4.4 c 0.3,0.3 0.9,0.3 1.2,0 l 0.9,-0.9 c 0.3,-0.3 0.3,-0.9 0,-1.2 L 301.7,75 c -0.3,-0.4 -0.9,-0.4 -1.2,0 z"
   id="path295" />
				<path
   class="st12"
   d="m 279.5,96 0.9,-0.9 c 0.3,-0.3 0.9,-0.3 1.2,0 l 4.4,4.4 c 0.3,0.3 0.3,0.9 0,1.2 l -0.9,0.9 c -0.3,0.3 -0.9,0.3 -1.2,0 l -4.4,-4.4 c -0.3,-0.4 -0.3,-0.9 0,-1.2 z"
   id="path297" />
				<line
   class="st8"
   x1="263.70001"
   y1="117.4"
   x2="313.5"
   y2="67.699997"
   id="line299" />
			</g>
			<g
   id="g365">
				<path
   class="st13"
   d="M 271.6,112 258.7,99.1 c -6.2,-6.2 -16.2,-6.2 -22.3,0 L 192.5,143 c -6.2,6.2 -6.2,16.2 0,22.3 l 12.9,12.9 c 3.1,3.1 7.1,4.6 11.2,4.6 4,0 8.1,-1.5 11.2,-4.6 l 43.9,-43.9 c 6.1,-6.2 6.1,-16.2 -0.1,-22.3 z"
   id="path303" />
				<g
   id="g361">
					<g
   id="g331">
						<line
   class="st21"
   x1="227.3"
   y1="177.89999"
   x2="212.7"
   y2="123.5"
   id="line305" />
						<line
   class="st21"
   x1="221.10001"
   y1="181.7"
   x2="207.10001"
   y2="129.2"
   id="line307" />
						<line
   class="st21"
   x1="233"
   y1="172.2"
   x2="218.39999"
   y2="117.8"
   id="line309" />
						<line
   class="st21"
   x1="238.7"
   y1="166.5"
   x2="224.10001"
   y2="112.1"
   id="line311" />
						<line
   class="st21"
   x1="244.39999"
   y1="160.8"
   x2="229.8"
   y2="106.4"
   id="line313" />
						<line
   class="st21"
   x1="250.10001"
   y1="155.10001"
   x2="235.5"
   y2="100.7"
   id="line315" />
						<line
   class="st21"
   x1="255.8"
   y1="149.39999"
   x2="241.5"
   y2="96.199997"
   id="line317" />
						<line
   class="st21"
   x1="261.5"
   y1="143.7"
   x2="248.39999"
   y2="95"
   id="line319" />
						<line
   class="st21"
   x1="267.20001"
   y1="138"
   x2="256.39999"
   y2="97.800003"
   id="line321" />
						<line
   class="st21"
   x1="272.89999"
   y1="132.3"
   x2="266.20001"
   y2="107.2"
   id="line323" />
						<line
   class="st21"
   x1="214"
   y1="182.2"
   x2="201.39999"
   y2="134.89999"
   id="line325" />
						<line
   class="st21"
   x1="205.7"
   y1="177.89999"
   x2="195.7"
   y2="140.60001"
   id="line327" />
						<line
   class="st21"
   x1="195.8"
   y1="168"
   x2="190.2"
   y2="147"
   id="line329" />
					</g>
					<g
   id="g359">
						<line
   class="st21"
   x1="271.20001"
   y1="134"
   x2="216.89999"
   y2="119.4"
   id="line333" />
						<line
   class="st21"
   x1="275"
   y1="127.8"
   x2="222.5"
   y2="113.7"
   id="line335" />
						<line
   class="st21"
   x1="265.5"
   y1="139.7"
   x2="211.2"
   y2="125.1"
   id="line337" />
						<line
   class="st21"
   x1="259.79999"
   y1="145.39999"
   x2="205.5"
   y2="130.8"
   id="line339" />
						<line
   class="st21"
   x1="254.10001"
   y1="151.10001"
   x2="199.8"
   y2="136.5"
   id="line341" />
						<line
   class="st21"
   x1="248.5"
   y1="156.7"
   x2="194.10001"
   y2="142.2"
   id="line343" />
						<line
   class="st21"
   x1="242.8"
   y1="162.39999"
   x2="189.60001"
   y2="148.2"
   id="line345" />
						<line
   class="st21"
   x1="237.10001"
   y1="168.10001"
   x2="188.39999"
   y2="155.10001"
   id="line347" />
						<line
   class="st21"
   x1="231.39999"
   y1="173.8"
   x2="191.10001"
   y2="163.10001"
   id="line349" />
						<line
   class="st21"
   x1="225.7"
   y1="179.5"
   x2="200.60001"
   y2="172.8"
   id="line351" />
						<line
   class="st21"
   x1="275.5"
   y1="120.7"
   x2="228.2"
   y2="108"
   id="line353" />
						<line
   class="st21"
   x1="271.20001"
   y1="112.3"
   x2="233.89999"
   y2="102.3"
   id="line355" />
						<line
   class="st21"
   x1="261.29999"
   y1="102.4"
   x2="240.39999"
   y2="96.800003"
   id="line357" />
					</g>
				</g>
				<path
   class="st8"
   d="m 261.9,102.9 c 0,0 -5.8,11.7 -29.8,35.7 -24,24 -35.7,29.8 -35.7,29.8"
   id="path363" />
			</g>
			<g
   id="g389">
				<g
   id="g371">
					
						<rect
   x="81.599998"
   y="251.5"
   transform="matrix(0.7071,-0.7071,0.7071,0.7071,-165.1645,145.6082)"
   class="st3"
   width="23.200001"
   height="41.400002"
   id="rect367" />
					<polygon
   class="st5"
   points="89.7,270.2 92.9,270.5 92,267.5 95.2,268.2 81.5,254.6 73.7,262.3 87.7,276.3 87.4,272.8 90.4,273.5 "
   id="polygon369" />
				</g>
				<g
   id="g387">
					
						<rect
   x="91"
   y="218.2"
   transform="matrix(0.7071,-0.7071,0.7071,0.7071,-131.8678,159.4004)"
   class="st9"
   width="71"
   height="41.400002"
   id="rect373" />
					
						<rect
   x="107.8"
   y="228.89999"
   transform="matrix(0.7071,-0.7071,0.7071,0.7071,-131.5651,157.8702)"
   class="st0"
   width="34"
   height="17.700001"
   id="rect375" />
					<g
   id="g385">
						
							<rect
   x="117.5"
   y="250.60001"
   transform="rotate(90,119.3871,256.3705)"
   class="st5"
   width="3.8"
   height="11.5"
   id="rect377" />
						
							<rect
   x="129.2"
   y="213.60001"
   transform="rotate(90,131.16105,219.30195)"
   class="st5"
   width="3.8"
   height="11.5"
   id="rect379" />
						<rect
   x="104.1"
   y="239.3"
   class="st5"
   width="3.8"
   height="11.5"
   id="rect381" />
						<rect
   x="140.7"
   y="227.39999"
   class="st5"
   width="3.8"
   height="11.5"
   id="rect383" />
					</g>
				</g>
			</g>
			<path
   class="st12"
   d="m 264.5,371.5 c -0.5,0 -1,-0.2 -1.4,-0.6 L 206.7,314.5 130.4,264.8 91.5,245.3 c -1,-0.5 -1.4,-1.7 -0.9,-2.7 0.5,-1 1.7,-1.4 2.7,-0.9 l 39,19.6 c 0.1,0 0.1,0.1 0.2,0.1 l 76.6,49.8 c 0.1,0.1 0.2,0.2 0.3,0.3 l 56.5,56.5 c 0.8,0.8 0.8,2 0,2.8 -0.3,0.5 -0.8,0.7 -1.4,0.7 z"
   id="path391" />
			<path
   class="st12"
   d="m 283,353.1 c -0.5,0 -1,-0.2 -1.4,-0.6 L 225.2,296.1 148.9,246.4 110,226.9 c -1,-0.5 -1.4,-1.7 -0.9,-2.7 0.5,-1 1.7,-1.4 2.7,-0.9 l 39,19.6 c 0.1,0 0.1,0.1 0.2,0.1 l 76.6,49.8 c 0.1,0.1 0.2,0.2 0.3,0.3 l 56.5,56.5 c 0.8,0.8 0.8,2 0,2.8 -0.4,0.5 -0.9,0.7 -1.4,0.7 z"
   id="path393" />
			<path
   class="st12"
   d="m 373.7,262.4 c -0.5,0 -1,-0.2 -1.4,-0.6 l -56.3,-56.3 -72.6,-43 -42.2,-26.8 c -0.9,-0.6 -1.2,-1.8 -0.6,-2.8 0.6,-0.9 1.8,-1.2 2.8,-0.6 l 42.2,26.8 72.7,43.1 c 0.1,0.1 0.3,0.2 0.4,0.3 l 56.5,56.5 c 0.8,0.8 0.8,2 0,2.8 -0.5,0.4 -1,0.6 -1.5,0.6 z"
   id="path395" />
			<path
   class="st12"
   d="m 395.4,240.7 c -0.5,0 -1,-0.2 -1.4,-0.6 l -56.3,-56.3 -72.6,-43 -42.2,-26.8 c -0.9,-0.6 -1.2,-1.8 -0.6,-2.8 0.6,-0.9 1.8,-1.2 2.8,-0.6 l 42.2,26.8 72.7,43.1 c 0.1,0.1 0.3,0.2 0.4,0.3 l 56.5,56.5 c 0.8,0.8 0.8,2 0,2.8 -0.4,0.4 -1,0.6 -1.5,0.6 z"
   id="path397" />
			<path
   class="st12"
   d="m 440,196.1 c -0.5,0 -1,-0.2 -1.4,-0.6 L 383.3,138 315.5,90.6 278,76.4 c -1,-0.4 -1.6,-1.5 -1.2,-2.6 0.4,-1 1.5,-1.6 2.6,-1.2 l 37.7,14.3 c 0.2,0.1 0.3,0.1 0.4,0.2 l 68.2,47.7 c 0.1,0.1 0.2,0.2 0.3,0.3 l 55.4,57.6 c 0.8,0.8 0.7,2.1 -0.1,2.8 -0.3,0.4 -0.8,0.6 -1.3,0.6 z"
   id="path399" />
		</g><path
   d="m 102.58801,78.972471 1.4491,-0.09392 1.57557,0.625079 c 0,0 1.33123,1.605952 1.6245,1.701393 0.29326,0.09547 2.74099,0.439496 2.74099,0.439496 l -4.04757,1.036035 -2.68703,-0.184734 c 0,0 -2.60077,1.167297 -2.65733,1.238744 -0.42295,-0.06071 -0.828966,-0.161466 -1.21586,-0.301208 z"
   fill="#dccac1"
   id="path99-0-6"
   style="fill:#4c2e6d;fill-opacity:1;stroke-width:0.41969" /><path
   d="m 71.504877,73.896753 1.552469,1.094124 -0.233593,1.574493 -0.09708,1.142821 0.577421,1.652354 1.278101,1.931653 -0.962188,0.878169 -0.06273,0.797969 0.893461,1.743267 -0.334135,0.723753 -2.004658,-0.572133 -1.10596,0.212547 c 0,0 -0.649309,-1.107333 -0.772231,-1.30872 -0.12301,-0.201352 -0.01966,-1.759035 -0.748764,-2.201544 -0.729121,-0.442483 -1.837957,-2.213187 -2.360754,-2.000832 -0.46299,0.107653 -0.941433,0.0855 -1.388457,-0.06255 l -0.573707,-1.585365 -1.456082,-1.283964 0.996782,-1.746131 4.882911,-0.808341 z"
   fill="#fff1d9"
   id="path97-5"
   style="stroke-width:0.500439" /><path
   d="m 69.805406,74.456543 1.079135,1.231176 0.769108,1.853968 c 0,0 0.05071,2.330257 0.20548,2.660523 0.15475,0.330275 1.698147,2.766126 1.698147,2.766126 L 70.113013,80.077764 68.31151,77.540513 c 0,0 -2.491921,-1.501872 -2.571728,-1.501898 -0.265984,-0.421818 -0.497706,-0.856803 -0.694209,-1.302317 z"
   fill="#dccac1"
   id="path99-0"
   style="stroke-width:0.41969" /><path
   d="m 130.96861,38.760926 -1.44581,1.308501 0.37141,1.531228 0.19759,1.121761 -0.42757,1.724205 -1.09908,2.101626 1.03378,0.735457 0.13295,0.783988 -0.73356,1.859593 0.39604,0.671551 1.94136,-0.854288 1.11777,0.05353 c 0,0 0.54722,-1.192885 0.65155,-1.410513 0.10442,-0.217619 -0.13609,-1.750713 0.54922,-2.294358 0.68537,-0.543628 1.63052,-2.461195 2.16879,-2.324694 0.4696,0.041 0.94304,-0.04923 1.37414,-0.260054 l 0.4298,-1.657128 1.33328,-1.483406 -1.14498,-1.592986 -4.92355,-0.107154 z"
   fill="#fff1d9"
   id="path97"
   style="stroke-width:0.500439" /><path
   d="m 132.8769,38.658161 -1.05737,1.752964 -0.7091,2.592544 c 0,0 0.0538,3.208128 -0.0907,3.670934 -0.14462,0.462833 -1.62613,3.898426 -1.62613,3.898426 l 3.42216,-4.165768 1.7432,-3.589298 c 0,0 2.50278,-2.203103 2.58512,-2.207536 0.25524,-0.594883 0.47452,-1.205981 0.65695,-1.829624 z"
   fill="#dccac1"
   id="path99"
   style="stroke-width:0.500439" />
<path
   style="fill:#fff1d9;fill-opacity:1;stroke:none;stroke-width:0.465005px;stroke-linecap:butt;stroke-linejoin:miter;stroke-opacity:1"
   d="m 132.62501,131.87485 -1.41737,-7.01636 5.10255,-1.97898 2.69302,-4.49766 5.2443,0.53972 5.38605,1.97898 -6.80342,0.71963 5.10256,2.8785 -5.95299,4.31776 -5.38604,6.11683 z"
   id="path19965" /><path
   style="fill:#dccac1;fill-opacity:1;stroke:none;stroke-width:0.465005px;stroke-linecap:butt;stroke-linejoin:miter;stroke-opacity:1"
   d="m 135.17629,125.62309 2.76389,-1.66413 2.33866,-4.27279 0.74414,3.32828 2.19693,1.79907 1.34652,-0.40479 -1.8426,2.1139 -3.47258,4.00292 -3.57887,2.87851 1.02759,-3.1034 -4.88995,-4.31775 z"
   id="path20107"
   sodipodi:nodetypes="cccccccccccc" /><path
   d="m 245.70309,140.39886 h 43.90752 c 0.81192,-0.0732 1.56978,-0.49523 2.11831,-1.18175 0.54974,-0.6865 0.84873,-1.58396 0.83721,-2.51288 l 3.70305,-76.526262 h -57.21317 l 3.70307,76.526262 c -0.0131,0.92628 0.28643,1.82242 0.8326,2.50896 0.54622,0.6852 1.30065,1.1097 2.11141,1.18567 z"
   fill="#ff6a6c"
   id="path19-2"
   style="fill:#4192c9;fill-opacity:1;stroke-width:1.22747" /><path
   d="m 238.504,48.635474 0.55201,11.542494 h 57.21317 l 0.55202,-11.542494 z"
   fill="#e55158"
   id="path21-5"
   style="fill:#4c2e6d;fill-opacity:1;stroke-width:1.22747" /><path
   d="m 297.3732,43.01488 h -59.8697 c -1.40992,0 -2.55302,1.302153 -2.55302,2.908561 V 51.3606 c 0,1.606409 1.1431,2.908522 2.55302,2.908522 h 59.8697 c 1.40991,0 2.55301,-1.302113 2.55301,-2.908522 v -5.437159 c 0,-1.606408 -1.1431,-2.908561 -2.55301,-2.908561 z"
   fill="#ff6a6c"
   id="path23-3"
   style="fill:#4192c9;fill-opacity:1;stroke-width:1.22747" /><g
   fill="#e55158"
   id="g37"
   transform="matrix(1.1500131,0,0,1.3101575,-79.980621,-17.488164)"
   style="fill:#4c2e6d;fill-opacity:1"><path
     d="m 287.56,54.76 h -0.99 c -0.42,0 -0.76,0.3403 -0.76,0.76 v 8.2 c 0,0.4197 0.34,0.76 0.76,0.76 h 0.99 c 0.42,0 0.76,-0.3403 0.76,-0.76 v -8.2 c 0,-0.4197 -0.34,-0.76 -0.76,-0.76 z"
     id="path25-2"
     style="fill:#4c2e6d;fill-opacity:1" /><path
     d="m 295.27,54.76 h -0.99 c -0.42,0 -0.76,0.3403 -0.76,0.76 v 8.2 c 0,0.4197 0.34,0.76 0.76,0.76 h 0.99 c 0.42,0 0.76,-0.3403 0.76,-0.76 v -8.2 c 0,-0.4197 -0.34,-0.76 -0.76,-0.76 z"
     id="path27-2"
     style="fill:#4c2e6d;fill-opacity:1" /><path
     d="m 302.98,54.76 h -0.99 c -0.42,0 -0.76,0.3403 -0.76,0.76 v 8.2 c 0,0.4197 0.34,0.76 0.76,0.76 h 0.99 c 0.42,0 0.76,-0.3403 0.76,-0.76 v -8.2 c 0,-0.4197 -0.34,-0.76 -0.76,-0.76 z"
     id="path29-4"
     style="fill:#4c2e6d;fill-opacity:1" /><path
     d="m 310.7,54.76 h -0.99 c -0.42,0 -0.76,0.3403 -0.76,0.76 v 8.2 c 0,0.4197 0.34,0.76 0.76,0.76 h 0.99 c 0.42,0 0.76,-0.3403 0.76,-0.76 v -8.2 c 0,-0.4197 -0.34,-0.76 -0.76,-0.76 z"
     id="path31-0"
     style="fill:#4c2e6d;fill-opacity:1" /><path
     d="m 318.41,54.76 h -0.99 c -0.42,0 -0.76,0.3403 -0.76,0.76 v 8.2 c 0,0.4197 0.34,0.76 0.76,0.76 h 0.99 c 0.42,0 0.76,-0.3403 0.76,-0.76 v -8.2 c 0,-0.4197 -0.34,-0.76 -0.76,-0.76 z"
     id="path33-2"
     style="fill:#4c2e6d;fill-opacity:1" /><path
     d="m 324.22,43.58 h -43.48 v 3.16 h 43.48 z"
     id="path35-24"
     style="fill:#4c2e6d;fill-opacity:1" /></g><path
   d="m 246.96809,30.581506 h 41.82602 c 1.08558,0 2.12752,0.491221 2.89455,1.366097 0.76825,0.874633 1.19947,2.06098 1.19947,3.298023 v 4.362876 h -50.01407 v -4.375946 c 0.003,-1.234663 0.43584,-2.417739 1.2029,-3.289563 0.76822,-0.871895 1.80781,-1.361487 2.89113,-1.361487 z"
   fill="#ff6a6c"
   id="path39-4"
   style="fill:#4191c8;fill-opacity:1;stroke-width:1.22747" /><path
   d="M 279.53648,33.987892 H 253.4657 c -0.42553,0 -0.77052,0.393172 -0.77052,0.87785 v 1.650772 c 0,0.48478 0.34511,0.877803 0.77052,0.877803 h 26.07078 c 0.42553,0 0.77051,-0.393164 0.77051,-0.877803 v -1.650772 c 0,-0.48478 -0.34512,-0.87785 -0.77051,-0.87785 z"
   fill="#e55158"
   id="path41-3"
   style="fill:#4c2e6d;fill-opacity:1;stroke-width:1.22747" /><path
   d="m 270.85391,84.939867 c 1.52491,0 2.76001,-1.407745 2.76001,-3.14438 0,-1.736582 -1.2351,-3.144374 -2.76001,-3.144374 -1.52381,0 -2.76004,1.407792 -2.76004,3.144374 0,1.736635 1.23623,3.14438 2.76004,3.14438 z"
   fill="#ffb3b7"
   id="path43-4"
   style="fill:#56bcd9;fill-opacity:1;stroke-width:1.22747" /><path
   d="m 275.24696,88.477319 c -0.0439,-0.625604 -0.2934,-1.209278 -0.69809,-1.634433 -0.40466,-0.425358 -0.93611,-0.660327 -1.48695,-0.658338 h -3.57657 c -0.51176,0.0016 -1.01772,0.117276 -1.48924,0.342164 -0.47151,0.224809 -0.89933,0.553818 -1.25926,0.967923 l -2.12753,2.463113 h -3.03604 c -0.21735,0 -0.43248,0.04954 -0.63369,0.143657 -0.20122,0.09511 -0.38422,0.233731 -0.53705,0.408996 -0.15429,0.175296 -0.276,0.383287 -0.35901,0.611994 -0.0838,0.228769 -0.1265,0.474379 -0.1265,0.722017 0,0.247598 0.0436,0.493207 0.1265,0.722023 0.0831,0.228793 0.20472,0.436746 0.35901,0.611979 0.153,0.175296 0.336,0.313952 0.53705,0.409027 0.20126,0.09511 0.4164,0.143657 0.63369,0.143657 h 3.24306 c 0.8786,-0.0016 1.7296,-0.344151 2.41501,-0.96952 l 0.4945,-0.458533 0.41423,15.892225 c 0.003,0.16441 0.0621,0.32138 0.16559,0.43626 0.1034,0.11478 0.24165,0.17925 0.38641,0.17925 h 4.38153 c 0.14039,2.8e-4 0.276,-0.0603 0.37816,-0.16984 0.10252,-0.10943 0.16427,-0.25948 0.17341,-0.41942 l 0.51753,-9.459331 h 0.5865 c 0.43929,0 0.8602,-0.19857 1.17072,-0.552621 0.31034,-0.35355 0.48527,-0.833666 0.48527,-1.334003 0,0 -0.0218,-0.117895 -1.13845,-8.398113 z"
   fill="#ffb3b7"
   id="path45-4"
   style="fill:#56bcd9;fill-opacity:1;stroke-width:1.22747" /><path
   d="m 265.98933,96.141724 -1.08101,-0.222822 c -0.0713,-0.01487 -0.14474,-0.01487 -0.21734,0.0047 -0.0713,0.01972 -0.13822,0.05103 -0.19776,0.09847 -0.0599,0.04953 -0.11167,0.107924 -0.15082,0.178262 -0.0391,0.06981 -0.0656,0.148564 -0.0783,0.230264 l -1.54105,9.865472 h -2.53002 l -1.50649,-9.852403 c -0.0131,-0.08178 -0.0392,-0.160436 -0.0783,-0.230256 -0.0391,-0.07035 -0.0908,-0.130713 -0.15082,-0.17827 -0.06,-0.04954 -0.12648,-0.08067 -0.19777,-0.09847 -0.0713,-0.01973 -0.14605,-0.01973 -0.21733,-0.0047 l -1.08101,0.222822 c -0.0726,0.01479 -0.1404,0.04453 -0.20255,0.08915 -0.0607,0.04453 -0.11469,0.102946 -0.15647,0.170835 -0.0436,0.06832 -0.0714,0.145119 -0.0862,0.226304 -0.0172,0.08117 -0.0172,0.165381 -0.003,0.247081 l 1.66755,10.900537 c 0.0538,0.2872 0.19081,0.54499 0.38859,0.73276 0.19908,0.18766 0.44622,0.29414 0.70378,0.30206 h 4.41606 c 0.25774,-0.01 0.50488,-0.11441 0.70382,-0.30206 0.19777,-0.18766 0.33468,-0.44566 0.38857,-0.73276 l 1.66751,-10.900537 c 0.0131,-0.08365 0.0131,-0.169849 -9.5e-4,-0.253522 -0.0131,-0.08365 -0.0449,-0.162422 -0.0888,-0.232252 -0.0436,-0.06981 -0.0977,-0.129249 -0.16083,-0.173808 -0.0644,-0.04453 -0.13561,-0.07434 -0.20948,-0.08714 z"
   fill="#ffb3b7"
   id="path47-7"
   style="fill:#56bcd9;fill-opacity:1;stroke-width:1.22747" /><path
   d="m 260.21564,98.839452 c 0.0391,0.123372 0.11006,0.230749 0.20776,0.306517 0.0977,0.07568 0.21473,0.115891 0.33513,0.114405 h 0.17691 l 2.54881,-0.918606 c 0.0709,-0.02465 0.13563,-0.06637 0.19126,-0.119882 0.057,-0.0529 0.10253,-0.117903 0.13562,-0.190142 0.0305,-0.07231 0.0516,-0.15102 0.057,-0.231242 0.004,-0.08029 -0.004,-0.160943 -0.0305,-0.237197 l -0.8496,-2.755897 c -0.0218,-0.0763 -0.0613,-0.146607 -0.11086,-0.207491 -0.0484,-0.06042 -0.10864,-0.10992 -0.17561,-0.145551 -0.0661,-0.03475 -0.13909,-0.0565 -0.21341,-0.0619 -0.0742,-0.0047 -0.14863,0.0047 -0.2195,0.02974 l -2.54883,0.918607 c -0.0709,0.02465 -0.13562,0.06683 -0.19125,0.119881 -0.0564,0.0529 -0.10263,0.117894 -0.1356,0.190165 -0.0305,0.07231 -0.0522,0.151021 -0.057,0.231243 -0.004,0.08029 0.004,0.160928 0.0305,0.237174 z"
   fill="#ffb3b7"
   id="path49-9"
   style="fill:#56bcd9;fill-opacity:1;stroke-width:1.227" /></svg>
