<?xml version="1.0" encoding="UTF-8" standalone="no"?>
<!-- Generator: Adobe Illustrator 25.1.0, SVG Export Plug-In . SVG Version: 6.00 Build 0)  -->

<svg
   version="1.1"
   id="Layer_1"
   x="0px"
   y="0px"
   viewBox="0 0 300 150"
   xml:space="preserve"
   sodipodi:docname="imprimante.svg"
   width="300"
   height="150"
   inkscape:version="1.1 (c68e22c387, 2021-05-23)"
   xmlns:inkscape="http://www.inkscape.org/namespaces/inkscape"
   xmlns:sodipodi="http://sodipodi.sourceforge.net/DTD/sodipodi-0.dtd"
   xmlns="http://www.w3.org/2000/svg"
   xmlns:svg="http://www.w3.org/2000/svg"><defs
   id="defs1179"><linearGradient
     id="SVGID_1_"
     gradientUnits="userSpaceOnUse"
     x1="358.29901"
     y1="295.79532"
     x2="376"
     y2="-9.094947e-13"
     gradientTransform="matrix(0.40352866,0,0,0.37200868,-302.82568,-152.27196)"><stop
       offset="0"
       style="stop-color:#88CBDB"
       id="stop4" /><stop
       offset="1"
       style="stop-color:#FFFFFF"
       id="stop6" /></linearGradient></defs><sodipodi:namedview
   id="namedview1177"
   pagecolor="#505050"
   bordercolor="#eeeeee"
   borderopacity="1"
   inkscape:pageshadow="0"
   inkscape:pageopacity="0"
   inkscape:pagecheckerboard="0"
   showgrid="false"
   width="300px"
   borderlayer="true"
   inkscape:zoom="1.82"
   inkscape:cx="118.13187"
   inkscape:cy="65.659341"
   inkscape:window-width="1920"
   inkscape:window-height="1001"
   inkscape:window-x="-9"
   inkscape:window-y="-9"
   inkscape:window-maximized="1"
   inkscape:current-layer="Layer_1" />
<style
   type="text/css"
   id="style2">
	.st0{fill:#4D4D4D;}
	.st1{opacity:0.3;fill:#4D4D4D;}
	.st2{fill:#43485C;}
	.st3{fill:#1A1A1A;}
	.st4{fill:#333333;}
	.st5{opacity:0.4;fill:#43485C;}
	.st6{opacity:0.2;fill:#4D4D4D;}
	.st7{opacity:0.3;}
	.st8{fill:#595959;}
	.st9{opacity:0.6;}
	.st10{opacity:0.3;fill:#47588E;}
	.st11{fill:#3C3C3C;}
	.st12{fill:#232322;}
	.st13{fill:#9D9D9B;}
	.st14{opacity:0.7;fill:#3C3C3C;}
	.st15{opacity:0.3;fill:#3C3C3C;}
	.st16{opacity:0.6;fill:#9D9D9B;}
	.st17{opacity:0.7;fill:#9D9D9B;}
	.st18{opacity:0.2;fill:#232322;}
	.st19{opacity:0.2;fill:#9D9D9B;}
	.st20{opacity:0.6;fill:#494949;}
	.st21{fill:#ADADAD;}
	.st22{fill:#494E53;}
	.st23{fill:#262624;}
	.st24{fill:#444443;}
	.st25{fill:#2B2B28;}
	.st26{opacity:0.4;fill:#2B2B28;}
	.st27{fill:#353533;}
	.st28{opacity:0.5;fill:#2B2B28;}
	.st29{fill:#2D2D2D;}
	.st30{opacity:0.27;fill:#2B2B28;}
	.st31{opacity:0.4;fill:#444443;}
	.st32{opacity:0.2;fill:#444443;}
	.st33{fill:#4C4C4C;}
	.st34{fill:#AEB2AD;}
	.st35{opacity:0.7;fill:#AEB2AD;}
	.st36{opacity:0.4;fill:#AEB2AD;}
	.st37{opacity:0.7;}
	.st38{fill:#EFEFEF;}
	.st39{opacity:0.36;fill:#AEB2AD;}
	.st40{opacity:0.1;fill:#FFFFFF;}
	.st41{fill:#BCBCBC;}
	.st42{opacity:0.4;}
	.st43{fill:#F2F4F2;}
	.st44{fill:#D4D6D6;}
	.st45{fill:#7B7D81;}
	.st46{fill:#404142;}
	.st47{fill:#666666;}
	.st48{fill:#2F2F30;}
	.st49{fill:#BEC6C6;}
	.st50{opacity:0.7;fill:#BEC6C6;}
	.st51{opacity:0.9;fill:#404142;}
	.st52{opacity:0.3;fill:#404142;}
	.st53{opacity:0.2;fill:#404142;}
	.st54{opacity:0.1;fill:#404142;}
	.st55{opacity:0.3;fill:#F2F2F2;}
	.st56{opacity:0.2;}
	.st57{fill:#E2E2E2;}
	.st58{fill:#686868;}
	.st59{fill:#5ADBF9;}
	.st60{fill:#313234;}
	.st61{opacity:0.4;fill:#686868;}
	.st62{opacity:0.6;fill:#686868;}
	.st63{opacity:0.1;}
	.st64{fill:#CECAC8;}
	.st65{fill:#50CEE2;}
	.st66{opacity:0.5;fill:#F2F2F2;}
	.st67{opacity:0.2;fill:#686868;}
	.st68{fill:#777777;}
	.st69{fill:#EAEAEA;}
	.st70{fill:#808080;}
	.st71{fill:#445C59;}
	.st72{opacity:0.5;fill:#445C59;}
	.st73{fill:#AEDFDF;}
	.st74{opacity:0.7;fill:#AEDFDF;}
	.st75{fill:#B9EAE9;}
	.st76{fill:#EDF4F4;}
	.st77{fill:#ACAFAF;}
	.st78{fill:#CBD1D1;}
	.st79{opacity:0.5;fill:#4F5B5B;}
	.st80{opacity:0.9;fill:#808080;}
	.st81{opacity:0.7;fill:#ACAFAF;}
	.st82{opacity:0.5;fill:#ACAFAF;}
	.st83{opacity:0.4;fill:#ACAFAF;}
	.st84{opacity:0.3;fill:#ACAFAF;}
	.st85{fill:#C1C2C2;}
	.st86{fill:#C7C8CC;}
	.st87{fill:#2B2B2B;}
	.st88{fill:#494949;}
	.st89{fill:#999999;}
	.st90{fill:#A2A4AA;}
	.st91{opacity:0.2;fill:#494E53;}
	.st92{opacity:0.7;fill:#2B2B2B;}
	.st93{opacity:0.6;fill:#C7C8CC;}
	.st94{opacity:0.5;fill:#494E53;}
	.st95{opacity:0.4;fill:#494E53;}
	.st96{opacity:0.1;fill:#494E53;}
	.st97{opacity:0.3;fill:#494E53;}
</style>




<rect
   class="st0"
   width="303.45355"
   height="152.89557"
   id="rect9"
   style="fill:url(#SVGID_1_);stroke-width:0.387448"
   x="-302.82568"
   y="-152.27196"
   transform="scale(-1)" /><g
   id="g542"
   transform="matrix(4.8038883,0,0,5.8866219,137.96491,-208.13756)">
	<path
   class="st44"
   d="m 31.8,42.6 v 8.9 c 0,0.4 -0.3,0.6 -0.6,0.6 H 9 c -0.4,0 -0.6,-0.3 -0.6,-0.6 v -8.9 0 0 l 0.8,-1.5 c 0.2,-0.4 0.6,-0.6 1,-0.6 h 19.6 c 0.4,0 0.8,0.2 1,0.6 z"
   id="path376" />
	<path
   class="st45"
   d="M 31.8,42.6 H 8.4 c 0,0 0,0 0,0 l 0.8,-1.5 c 0.2,-0.4 0.6,-0.6 1,-0.6 h 19.6 c 0.4,0 0.8,0.2 1,0.6 z"
   id="path378" />
	<rect
   x="9.1999998"
   y="52.099998"
   class="st46"
   width="21.5"
   height="1.4"
   id="rect380" />
	<g
   id="g384">
		<path
   class="st47"
   d="m 30.8,52.2 h -14 v -1.7 c 0,-0.7 0.6,-1.3 1.3,-1.3 h 11.5 c 0.7,0 1.3,0.6 1.3,1.3 v 1.7 z M 16.9,52.1 h 13.8 v -1.6 c 0,-0.7 -0.5,-1.2 -1.2,-1.2 H 18 c -0.7,0 -1.2,0.5 -1.2,1.2 v 1.6 z"
   id="path382" />
	</g>
	
		<rect
   x="16.799999"
   y="44.299999"
   transform="rotate(180,23.78365,45.2204)"
   class="st48"
   width="13.9"
   height="1.8"
   id="rect386" />
	<path
   class="st49"
   d="m 27.7,51.7 h -7.8 v 0 c 0,-0.8 0.6,-1.5 1.5,-1.5 h 4.9 c 0.7,0.1 1.4,0.7 1.4,1.5 z"
   id="path388" />
	<path
   class="st0"
   d="m 14.6,44.6 v 3 c 0,0.6 -0.5,1.1 -1.1,1.1 H 8.4 v -4 h 6.2 z"
   id="path390" />
	<rect
   x="9.3999996"
   y="45.799999"
   class="st3"
   width="4"
   height="1.8"
   id="rect392" />
	<g
   id="g396">
		<rect
   x="8.3999996"
   y="44.099998"
   width="23.4"
   height="0.5"
   id="rect394" />
	</g>
	<path
   class="st50"
   d="m 27,50.3 h -6.5 c -0.4,0 -0.7,0.3 -0.7,0.7 v 0.8 H 20 v -0.6 c 0,-0.4 0.3,-0.6 0.6,-0.6 h 6.2 c 0.4,0 0.6,0.3 0.6,0.6 v 0.6 h 0.1 V 51 C 27.7,50.6 27.4,50.3 27,50.3 Z"
   id="path398" />
	<g
   id="g402">
		
			<rect
   x="20.9"
   y="40.400002"
   transform="matrix(0.9613,-0.2755,0.2755,0.9613,-10.6297,7.3738)"
   class="st0"
   width="0.1"
   height="2.2"
   id="rect400" />
	</g>
	<path
   class="st44"
   d="m 30.9,41.1 c -0.2,-0.4 -0.6,-0.6 -1,-0.6 h -0.2 c 0.4,0 0.8,0.2 1,0.6 l 0.8,1.5 v 8.7 c 0,0.3 -0.3,0.6 -0.6,0.6 H 9.3 C 9,51.9 8.7,51.6 8.7,51.3 v -8.7 0 l 0.8,-1.4 c 0.2,-0.4 0.6,-0.6 1,-0.6 h -0.2 c -0.4,0 -0.8,0.2 -1,0.6 l -0.8,1.5 v 0 8.9 c 0,0.4 0.3,0.6 0.6,0.6 h 22.1 c 0.4,0 0.6,-0.3 0.6,-0.6 v -8.9 z"
   id="path404" />
	<rect
   x="16.799999"
   y="45.5"
   class="st51"
   width="13.9"
   height="0.60000002"
   id="rect406" />
	<polygon
   class="st51"
   points="17.2,46 17.2,44.3 16.8,44.3 16.8,46.1 30.8,46.1 30.8,44.3 30.4,44.3 30.4,46 "
   id="polygon408" />
	<path
   class="st52"
   d="m 28.7,42.3 c -0.1,0 -0.2,0.1 -0.3,0.1 h -7.2 l -0.5,-1.6 h 2.8 c 0.6,0.7 1.4,1.1 2.3,1.4 1,0.1 1.9,0.1 2.9,0.1 z"
   id="path410" />
	<g
   id="g414">
		<path
   class="st47"
   d="m 21.2,42.4 v -0.1 h 8.4 c 0.1,0 0.2,-0.1 0.3,-0.1 0.1,-0.1 0.1,-0.2 0,-0.3 0,-0.1 -0.1,-0.1 -0.1,-0.2 -0.1,-0.3 -0.2,-0.7 -0.3,-0.8 0,-0.1 -0.1,-0.1 -0.2,-0.1 l -8.5,0.1 v -0.1 l 8.5,-0.1 c 0.1,0 0.3,0.1 0.3,0.2 0.1,0.1 0.2,0.5 0.3,0.8 0,0.1 0.1,0.2 0.1,0.2 0,0.1 0,0.3 0,0.4 -0.1,0.1 -0.2,0.2 -0.3,0.2 z"
   id="path412" />
	</g>
	<path
   class="st52"
   d="m 30.8,52.1 v 1.4 h -4 c -0.1,0 -0.1,0 -0.2,-0.1 -1.9,-0.7 -4.1,-0.8 -6.1,-0.8 -2.1,0 -4.2,-0.1 -6.3,-0.1 -0.9,0 -1.9,0 -2.8,0 -0.7,0 -1.6,0.1 -2.1,-0.4 V 52 h 21.5 z"
   id="path416" />
	<path
   class="st53"
   d="m 14.6,44.6 v 2.6 c 0,0 0,0.1 -0.1,0.1 C 14.4,47 14.2,46.6 14.1,46.3 14,46.1 13.9,45.9 13.8,45.7 13.5,45.3 13,45.2 12.5,45.1 11.9,45 11.2,45 10.6,45 10,45 9,45.2 8.4,44.9 v -0.3 z"
   id="path418" />
	<path
   class="st44"
   d="M 29.6,49.1 H 17.9 c -0.7,0 -1.3,0.6 -1.3,1.3 v 1.8 h 14.3 v -1.8 c 0,-0.7 -0.6,-1.3 -1.3,-1.3 z m 1.2,3 h -14 v -1.7 c 0,-0.7 0.6,-1.2 1.2,-1.2 h 11.5 c 0.7,0 1.2,0.6 1.2,1.2 v 1.7 z"
   id="path420" />
	<path
   class="st54"
   d="m 19.5,44.2 c -0.1,0.2 -0.4,0.2 -0.7,0.2 -3.3,-0.1 -6.6,0.3 -9.9,0 -0.1,0 -0.3,0 -0.4,-0.1 v -1.8 0 c 0.2,0 0.3,0 0.4,0.1 0.3,0.1 0.5,0.2 0.8,0.3 1.2,0.4 2.4,0.7 3.6,0.8 1.6,0.2 3.3,0.2 4.9,0.3 0.4,0.1 0.9,0.1 1.3,0.2 z"
   id="path422" />
	<path
   class="st52"
   d="m 8.5,42.6 0.7,-1.3 c 0.2,-0.4 0.6,-0.6 1,-0.6 h 19.6 c 0.4,0 0.8,0.2 1,0.6 l 0.7,1.3 h 0.1 l -0.8,-1.5 c -0.2,-0.4 -0.6,-0.6 -1,-0.6 H 10.3 c -0.4,0 -0.8,0.2 -1,0.6 l -0.8,1.5 c -0.1,0 -0.1,0 0,0 z"
   id="path424" />
	<polygon
   class="st55"
   points="9.8,47.6 10.8,45.8 11,45.8 9.9,47.6 "
   id="polygon426" />
	<polygon
   class="st55"
   points="10.2,47.6 11.3,45.8 11.5,45.8 10.4,47.6 "
   id="polygon428" />
	<polygon
   class="st55"
   points="10.5,47.6 11.6,45.8 11.7,45.8 10.6,47.6 "
   id="polygon430" />
	<path
   d="m 9.4,45.8 v 1.8 h 4 v -1.8 z m 3.8,1.6 H 9.5 v -1.6 h 3.6 v 1.6 z"
   id="path432" />
	<g
   class="st7"
   id="g438">
		<rect
   x="9.1999998"
   y="52.099998"
   class="st46"
   width="0.89999998"
   height="1.4"
   id="rect434" />
		<rect
   x="29.799999"
   y="52.099998"
   class="st46"
   width="0.89999998"
   height="1.4"
   id="rect436" />
	</g>
	<rect
   x="8.3999996"
   y="42.599998"
   class="st44"
   width="23.4"
   height="0.30000001"
   id="rect440" />
	<g
   class="st56"
   id="g444">
		<path
   class="st46"
   d="m 8.7,49.7 c -0.1,0.6 -0.2,1.2 0,1.7 0.2,0.4 0.7,0.5 1.1,0.5 0,0 0,0 0,0 -0.5,-0.1 -1,-0.1 -1.1,-0.7 -0.1,-0.5 -0.1,-1 0,-1.5 0,0 0,0 0,0 z"
   id="path442" />
	</g>
	<g
   class="st56"
   id="g448">
		<path
   class="st46"
   d="m 24.2,50.4 c 0.6,0 1.2,0.1 1.7,0.1 0.3,0 0.6,-0.1 0.9,0 0.6,0.2 0.7,0.6 0.7,1.2 0,0.1 0.1,0.1 0.1,0 0,-0.5 0.1,-1.2 -0.6,-1.3 -0.5,-0.1 -1,0 -1.4,0 -0.4,0 -0.9,-0.1 -1.4,0 0,0 0,0 0,0 z"
   id="path446" />
	</g>
	<g
   class="st56"
   id="g452">
		<path
   class="st46"
   d="m 21.1,50.4 c -0.4,-0.1 -1,0 -1.1,0.5 0,0.2 -0.2,1.1 0.3,0.9 0,0 0,-0.1 0,-0.1 -0.2,0 -0.1,-0.7 -0.1,-0.8 0.1,-0.5 0.6,-0.4 0.9,-0.5 0,0 0,0 0,0 z"
   id="path450" />
	</g>
	<g
   class="st56"
   id="g456">
		<path
   class="st46"
   d="m 17.3,52.6 c 1.5,0.1 3.1,0.1 4.6,0.1 1.6,0 3,0.1 4.4,0.7 0.1,0 0.1,-0.1 0,-0.1 -1.2,-0.8 -2.8,-0.7 -4.1,-0.7 -1.6,0 -3.3,0 -4.9,0 0,0 0,0 0,0 z"
   id="path454" />
	</g>
	<g
   class="st56"
   id="g460">
		<path
   class="st46"
   d="m 27,52.6 c 0,0 0,0 0,0 -0.1,0 -0.1,0 -0.1,0.1 0,0.1 0.1,0.1 0.1,0.1 0,0 0,0 0,0 0.1,-0.1 0.1,-0.1 0,-0.2 z"
   id="path458" />
	</g>
	<g
   class="st56"
   id="g464">
		<path
   class="st46"
   d="m 27.2,53.1 c 0,-0.1 0,-0.1 0,0 0,-0.1 0,-0.1 0,-0.1 0,0 -0.1,0 -0.1,0 -0.1,0 -0.1,0.1 0,0.1 0,0.1 0,0 0.1,0 z"
   id="path462" />
	</g>
	<g
   class="st56"
   id="g468">
		<path
   class="st46"
   d="m 27.7,52.8 c 0,0 0,0 0,0 0.1,-0.1 0,-0.2 -0.1,-0.1 0,0 0,0 0,0 -0.2,0 -0.1,0.2 0.1,0.1 z"
   id="path466" />
	</g>
	<g
   class="st56"
   id="g472">
		<path
   class="st46"
   d="m 28.4,52.8 c 0.1,0 0.1,-0.2 0,-0.2 -0.1,0 -0.1,0.2 0,0.2 z"
   id="path470" />
	</g>
	<g
   class="st56"
   id="g476">
		<path
   class="st46"
   d="m 11.2,44.9 c 0.7,0.1 1.5,0.1 2.1,0.5 0.7,0.5 0.9,1.2 1.1,2 0,0 0.1,0 0.1,0 0,-0.7 -0.3,-1.5 -0.9,-1.9 -0.7,-0.6 -1.5,-0.6 -2.4,-0.6 0,0 0,0 0,0 z"
   id="path474" />
	</g>
	<g
   class="st56"
   id="g480">
		<path
   class="st46"
   d="m 14.4,45.9 c 0.1,0 0.1,-0.2 0,-0.2 -0.2,0 -0.2,0.2 0,0.2 z"
   id="path478" />
	</g>
	<g
   class="st56"
   id="g484">
		<path
   class="st46"
   d="m 14.3,45.3 c 0,0 0,0 0,0 -0.1,-0.1 -0.2,-0.1 -0.2,0 0,0.1 0.1,0.1 0.2,0 0,0.1 0,0.1 0,0 0,0 0,0 0,0 z"
   id="path482" />
	</g>
	<g
   class="st56"
   id="g488">
		<path
   class="st46"
   d="m 13.8,45.2 c 0,0 0,0 0,0 0,0 0,0 0,0 0,0 0,0 0,0 0,0.1 0.1,0.1 0.1,0 0.1,-0.1 0,-0.1 -0.1,0 z"
   id="path486" />
	</g>
	<g
   class="st56"
   id="g492">
		<path
   class="st46"
   d="m 8.7,46.5 c 0,0.6 -0.1,1.2 0,1.8 0,0.3 0.3,0.3 0.6,0.3 0,0 0,-0.1 0,-0.1 C 9,48.4 8.9,48.4 8.8,48.1 c 0,-0.2 0,-0.3 0,-0.5 -0.1,-0.3 -0.1,-0.7 -0.1,-1.1 0,0 0,0 0,0 z"
   id="path490" />
	</g>
	<g
   class="st56"
   id="g496">
		<path
   class="st46"
   d="m 10.5,48.6 c 0.9,0.2 1.9,0.1 2.8,0 0.6,-0.1 1.1,-0.3 1.3,-0.9 0,0 0,0 0,0 -0.2,0.4 -0.4,0.7 -0.8,0.8 -0.4,0.1 -0.8,0.1 -1.2,0.1 -0.8,0 -1.5,-0.1 -2.1,0 0,0 0,0 0,0 z"
   id="path494" />
	</g>
	<g
   class="st56"
   id="g500">
		<path
   class="st46"
   d="m 23.6,40.7 c 0.4,1.1 1.9,1.5 2.9,1.5 0,0 0,0 0,0 -1.1,-0.3 -2.2,-0.5 -2.9,-1.5 0,0 0,0 0,0 z"
   id="path498" />
	</g>
	<g
   class="st56"
   id="g504">
		<path
   class="st46"
   d="m 20.7,40.7 c 0.1,0.6 0.2,1.1 0.5,1.6 0,0 0.1,0.1 0.1,0.1 1.3,-0.1 2.7,0.1 4,0.1 0,0 0,-0.1 0,-0.1 -0.8,-0.1 -1.7,-0.1 -2.6,-0.1 -0.4,0 -0.9,0.1 -1.3,-0.1 -0.3,-0.2 -0.4,-1.1 -0.7,-1.5 0.1,0 0,0 0,0 z"
   id="path502" />
	</g>
	<g
   class="st56"
   id="g508">
		<path
   class="st46"
   d="m 29.5,40.8 c 0.1,0.5 0.6,1.2 0,1.5 0,0 0,0.1 0,0.1 0.2,0 0.4,-0.2 0.4,-0.4 0,-0.2 -0.1,-0.4 -0.2,-0.6 0,-0.2 -0.1,-0.4 -0.2,-0.6 0,0 0,0 0,0 z"
   id="path506" />
	</g>
	<g
   class="st56"
   id="g512">
		<path
   class="st46"
   d="m 29.6,42.9 c 0.3,0.1 0.6,0 0.9,0 0.2,0 0.4,0 0.6,0 0.3,0.1 0.4,0.3 0.4,0.6 0,0 0.1,0 0.1,0 0,-0.3 0,-0.6 -0.4,-0.7 -0.5,0 -1,0.1 -1.6,0.1 0,0 0,0 0,0 z"
   id="path510" />
	</g>
	<g
   class="st56"
   id="g516">
		<path
   class="st46"
   d="m 31.6,42.8 c 0,0 0,0 0,0 0,-0.1 -0.1,-0.1 -0.1,-0.1 0,0 0,0.1 0,0.1 0,0.1 0,0.1 0.1,0 0,0.1 0,0.1 0,0 z"
   id="path514" />
	</g>
	<g
   class="st56"
   id="g520">
		<path
   class="st46"
   d="m 31.3,42.6 c 0,0 0,0 0,0 -0.1,0 -0.1,0.2 0,0.1 0,0 0,0 0,0 0.1,0 0.1,-0.1 0,-0.1 z"
   id="path518" />
	</g>
	<g
   class="st56"
   id="g524">
		<path
   class="st46"
   d="m 31.1,42.7 c 0,0 0,0 0,0 -0.1,0 -0.1,0.1 0,0.1 0,0 0,0 0,0 0.1,0 0.1,-0.1 0,-0.1 z"
   id="path522" />
	</g>
	<g
   class="st56"
   id="g528">
		<path
   class="st46"
   d="M 9.8,40.8 C 9.6,41 9.4,41.2 9.3,41.5 9.2,41.7 9,42 8.9,42.2 c -0.1,0.5 0.4,0.4 0.7,0.4 0,0 0,0 0,-0.1 -0.2,-0.1 -0.4,0 -0.5,-0.2 -0.1,-0.2 0.1,-0.4 0.1,-0.6 0.2,-0.3 0.4,-0.6 0.6,-0.9 0,0 0,0 0,0 z"
   id="path526" />
	</g>
	<g
   id="g532">
		<path
   class="st57"
   d="m 17,50.9 c 0.1,-0.3 0.1,-0.6 0.2,-0.8 0.2,-0.3 0.7,-0.4 1,-0.5 0.5,-0.1 1.1,-0.1 1.6,-0.1 1.1,0 2.2,0.1 3.2,0 0,0 0,0 0,0 -0.7,-0.1 -1.4,0 -2.1,-0.1 -0.7,-0.1 -1.5,-0.2 -2.2,-0.1 -0.8,0 -2,0.4 -1.7,1.6 0,0 0,0 0,0 z"
   id="path530" />
	</g>
	<g
   id="g536">
		<path
   class="st57"
   d="m 9,48.8 c -0.3,0.6 -0.5,1.7 -0.1,2.4 0.2,0.3 0.5,0.4 0.8,0.5 0.5,0.2 1,0.2 1.5,0.2 0,0 0,0 0,0 C 10.8,51.8 10.4,51.7 10,51.5 9.6,51.3 9.5,51.1 9.4,50.7 9.2,50.1 9.3,49.5 9,48.8 c 0.1,0 0,0 0,0 z"
   id="path534" />
	</g>
	<g
   id="g540">
		<path
   class="st57"
   d="m 24.8,43.1 c 1.1,0.1 2.3,0.1 3.5,0.1 0.6,0 1.1,0 1.7,0 0.3,0 0.6,0 0.9,0 0.4,0.1 0.4,0.4 0.5,0.7 0,0.1 0.1,0.1 0.2,0 0.1,-0.3 0.1,-0.7 -0.2,-1 -0.4,-0.3 -1.3,-0.1 -1.8,-0.1 -1.6,0 -3.3,0 -4.8,0.3 -0.1,-0.1 -0.1,0 0,0 z"
   id="path538" />
	</g>
</g>



<g
   id="g1174"
   transform="matrix(5.4891166,0,0,5.2819247,-203.12099,-331.91254)">
	<path
   d="M 50.7,67.3 56.9,65 c 0.1,0 0.2,0 0.2,0.1 0,0.1 0,0.2 -0.1,0.2 v 0 l -6.1,2.5 c -0.2,0.1 -0.3,0 -0.4,-0.2 -0.1,-0.1 0,-0.2 0.2,-0.3 -0.1,0 -0.1,0 0,0 z"
   id="path978" />
	<path
   class="st86"
   d="M 57,72 V 88.2 C 57,88.6 56.7,89 56.2,89 H 51.5 V 88.8 H 45.4 V 89 H 40.8 C 40.4,89 40,88.7 40,88.2 V 72 Z"
   id="path980" />
	<path
   class="st87"
   d="m 56.9,72.4 h -17 c -0.4,0 -0.7,-0.4 -0.6,-0.8 0,0 0,0 0,-0.1 l 0.8,-2.2 h 16.7 l 0.8,2.2 c 0,0 0,0 0,0.1 0,0.4 -0.3,0.8 -0.7,0.8 z"
   id="path982" />
	<path
   class="st88"
   d="m 57.5,71.6 c -0.1,0.3 -0.3,0.5 -0.6,0.5 h -17 c -0.3,0 -0.5,-0.2 -0.6,-0.5 0,0 0,0 0,-0.1 l 0.3,-0.9 0.4,-1.2 h 16.7 l 0.5,1.3 0.3,0.9 c 0,0 0,0 0,0 z"
   id="path984" />
	<polygon
   class="st87"
   points="48.7,65.7 51.3,67.7 56.7,67.7 56.7,69.4 40,69.4 40,65.7 "
   id="polygon986" />
	<rect
   x="41.400002"
   y="73.199997"
   class="st22"
   width="14.1"
   height="3.7"
   id="rect988" />
	<g
   id="g992">
		<path
   class="st89"
   d="M 55.5,84.8 H 41.4 c 0,0 -0.1,0 -0.1,-0.1 v -7.4 c 0,0 0,-0.1 0.1,-0.1 h 14.1 c 0,0 0.1,0 0.1,0.1 l -0.1,7.5 c 0.1,-0.1 0.1,0 0,0 z m -14,-0.2 h 14 v -7.3 h -14 z"
   id="path990" />
	</g>
	<rect
   x="44.799999"
   y="77.199997"
   class="st90"
   width="7.3000002"
   height="1.2"
   id="rect994" />
	<path
   class="st91"
   d="m 41.9,78 c 0,0.1 0,0.3 0.1,0.4 0.1,0.1 0.2,0.1 0.3,0.1 1,0.2 1.9,0.3 2.9,0.3 1.2,0 2.3,-0.2 3.5,-0.3 1.2,-0.1 2.4,-0.1 3.7,0 0.4,0 0.8,0 1,-0.3 0.2,-0.2 0.2,-0.5 0.4,-0.8 0.1,-0.1 0.2,-0.2 0.3,-0.4 0,-0.2 -0.2,-0.4 -0.4,-0.5 C 53,76.1 52.2,76 51.4,76 c -0.8,0 -1.6,0 -2.3,0.1 -1.2,0 -2.4,0 -3.6,0 -1,0 -2,0.1 -3.1,0.2 -0.4,0 -0.4,0.2 -0.3,0.5 0.1,0.5 -0.1,0.7 -0.2,1.2 z"
   id="path996" />
	<path
   class="st22"
   d="m 51.5,88.1 v 0.5 h -6.1 v -0.5 c 0,-0.3 0.2,-0.5 0.5,-0.5 H 51 c 0.3,0 0.5,0.2 0.5,0.5 z"
   id="path998" />
	<g
   id="g1002">
		<path
   class="st4"
   d="m 41.5,76.8 c 0,0 -0.1,0 0,0 -0.1,0 -0.1,-0.1 0,0 l 1.4,-1.4 v -2.2 c 0,0 0,-0.1 0.1,-0.1 0,0 0.1,0 0.1,0.1 v 2.3 c 0,0 0,0 0,0 l -1.6,1.3 c 0,0 0,0 0,0 z"
   id="path1000" />
	</g>
	<g
   id="g1006">
		<path
   class="st4"
   d="m 55.5,76.8 c 0,0 -0.1,0 0,0 L 54,75.5 c 0,0 0,0 0,0 v -2.2 c 0,0 0,-0.1 0.1,-0.1 0,0 0.1,0 0.1,0.1 v 2.2 l 1.3,1.3 c 0,0 0,0 0,0 0,0 0,0 0,0 z"
   id="path1004" />
	</g>
	<g
   id="g1010">
		<path
   class="st4"
   d="M 54,75.6 H 43 c 0,0 -0.1,0 -0.1,-0.1 0,0 0,-0.1 0.1,-0.1 h 11 c 0,0 0,0.1 0,0.2 0,-0.1 0,0 0,0 z"
   id="path1008" />
	</g>
	<g
   id="g1014">
		<path
   class="st89"
   d="M 56.9,84.8 H 40.1 c 0,0 -0.1,0 -0.1,-0.1 0,0 0,-0.1 0.1,-0.1 h 16.8 c 0,0 0.1,0 0,0.2 0.1,-0.1 0,0 0,0 z"
   id="path1012" />
	</g>
	<polygon
   class="st87"
   points="41.1,70 46.2,70 46.3,70.5 40.9,70.5 "
   id="polygon1016" />
	<polygon
   class="st87"
   points="50.6,71.5 50.8,69.9 55.9,69.9 56.4,71.5 "
   id="polygon1018" />
	<polygon
   class="st87"
   points="40.5,70.7 46.8,70.7 46.9,71.2 40.3,71.2 "
   id="polygon1020" />
	<polygon
   class="st92"
   points="40.3,69.2 40.3,65.7 40,65.7 40,69.4 56.7,69.4 56.7,67.7 56.4,67.7 56.4,69.2 "
   id="polygon1022" />
	<path
   class="st93"
   d="m 56.7,72 v 15.8 c 0,0.4 -0.3,0.8 -0.7,0.8 h -4.6 v -0.2 h -5.9 v 0.2 H 41 c -0.4,0 -0.7,-0.3 -0.7,-0.8 V 72 H 40 v 16.2 c 0,0.4 0.3,0.8 0.8,0.8 h 4.6 v -0.2 h 6.1 V 89 h 4.7 C 56.6,89 57,88.7 57,88.2 V 72 Z"
   id="path1024" />
	<path
   class="st94"
   d="m 55.5,76.8 v 0 H 41.4 v -0.1 c 0,0 0,0 0,0 0.1,-0.1 0.2,-0.2 0.4,-0.3 0.5,-0.4 0.8,-1.1 0.8,-1.8 0,-0.3 -0.1,-0.6 -0.3,-0.8 -0.1,-0.2 -0.5,-0.4 -0.6,-0.6 0,0 0.1,0 0.1,0 h 13.6 c -0.4,0.5 -0.5,1.2 -0.5,1.8 -0.1,0.6 0.2,1.3 0.6,1.8 z"
   id="path1026" />
	<path
   class="st95"
   d="M 57.1,70.7 C 56.8,70.4 56.4,70.3 55.9,70.2 55.3,70.1 54.7,70 54.2,70 c -0.9,-0.1 -1.9,-0.1 -2.8,0 -3.5,0 -6.9,0 -10.4,0 -0.3,0 -0.5,0 -0.8,0.1 -0.3,0.1 -0.5,0.3 -0.6,0.5 0,0 0,0 0,0 L 40,69.4 h 16.7 z"
   id="path1028" />
	<path
   class="st95"
   d="m 56.7,68.6 v 0.8 H 40 v -3.7 h 0.9 c 0.2,1 1,1.8 1.9,2.3 1.1,0.6 2.3,0.8 3.6,0.8 2.7,0.1 5.4,-0.3 8,0 0.7,0.1 1.6,0.2 2.3,-0.2 z"
   id="path1030" />
	<path
   class="st38"
   d="M 54,77.9 51.6,78 c 0,0 -0.2,0 -1.7,0 -1.5,0 -8,0.5 -8,0.1 0.1,-0.2 0.4,-0.7 0.8,-1.2 0.5,-0.6 1,-1.3 1.2,-1.5 0,0 0.1,-0.1 0.2,-0.1 h 8.6 c 0.1,0 0.2,0 0.2,0.1 z"
   id="path1032" />
	<path
   class="st96"
   d="m 57,84.4 v 0.4 c 0,0 0,0 0,0 -4.7,0.3 -9.5,0.4 -14.3,0.3 -0.9,0 -1.7,-0.1 -2.6,-0.3 0,0 0,0 -0.1,0 v -0.3 c 0,0 0,0 0,0 0.1,0 0.2,0 0.3,0 0.4,-0.1 0.5,-0.5 0.6,-0.9 0.2,-0.8 0.3,-1.7 0.2,-2.5 l 0.1,-0.4 c 0,0.7 0.1,1.3 0.2,2 0.1,0.3 0.2,0.7 0.4,0.9 0.3,0.3 0.7,0.5 1,0.6 1,0.2 2,0.2 3,0.2 2.3,-0.1 4.7,-0.1 7,0 0.7,0 1.4,0 1.9,-0.5 0.3,-0.3 0.4,-0.8 0.5,-1.3 -0.1,0.4 -0.1,0.8 0,1.2 0.1,0.4 0.4,0.7 0.8,0.7 0.6,0 0.8,-0.1 1,-0.1 -0.1,0 0,0 0,0 z"
   id="path1034" />
	<path
   class="st97"
   d="m 54,77.9 c -0.1,0 -0.1,0 -0.1,-0.1 -0.2,-0.2 -0.3,-0.5 -0.4,-0.7 -0.3,-0.5 -0.7,-0.8 -1.2,-0.9 -0.3,-0.1 -0.6,-0.1 -0.9,-0.1 -2.1,0 -4.1,0 -6.2,0.2 -0.6,0 -1.1,0.1 -1.7,0.2 -0.3,0.1 -0.7,0.2 -0.8,0.5 v -0.1 c 0.5,-0.6 1,-1.3 1.2,-1.5 0,0 0.1,-0.1 0.2,-0.1 h 8.6 c 0.1,0 0.2,0 0.2,0.1 z"
   id="path1036" />
	<g
   class="st7"
   id="g1044">
		<path
   class="st22"
   d="m 42.1,78.2 c 0.1,-0.2 0.4,-0.7 0.7,-1.2 0.5,-0.6 1,-1.3 1.2,-1.5 0,0 0.1,-0.1 0.2,-0.1 H 44 c -0.1,0 -0.1,0 -0.2,0.1 -0.2,0.2 -0.7,0.9 -1.2,1.5 -0.4,0.5 -0.7,0.9 -0.8,1.2 0,0.1 0.6,0.1 1.3,0.1 -0.6,0 -1,0 -1,-0.1 z"
   id="path1038" />
		<path
   class="st22"
   d="m 54,77.9 -1.2,-2.4 c 0,-0.1 -0.1,-0.1 -0.2,-0.1 h -0.2 c 0.1,0 0.1,0 0.2,0.1 l 1.1,2.4 v 0 L 51.5,78 c 0.1,0 0.1,0 0.1,0 z"
   id="path1040" />
		<path
   class="st22"
   d="m 47.9,78.1 c 0.8,0 1.6,-0.1 2,-0.1 0,0 0,0 -0.1,0 -0.4,0 -1.1,0.1 -1.9,0.1 z"
   id="path1042" />
	</g>
	<g
   class="st7"
   id="g1048">
		<path
   class="st22"
   d="m 43,76.6 c 0.5,0 1,-0.2 1.5,-0.3 0.5,0 1,-0.1 1.4,-0.1 1.1,-0.1 2.1,-0.2 3.2,-0.3 0,0 0,0 0,0 -1.1,0.1 -2.2,0.2 -3.3,0.3 -0.5,0 -1,0 -1.5,0.1 -0.5,0 -0.9,0.2 -1.3,0.3 -0.1,0 -0.1,0 0,0 z"
   id="path1046" />
	</g>
	<g
   class="st7"
   id="g1052">
		<path
   class="st22"
   d="m 51,75.7 c 0.1,0 0.1,-0.2 0,-0.2 -0.1,0 -0.1,0.2 0,0.2 z"
   id="path1050" />
	</g>
	<g
   class="st7"
   id="g1056">
		<path
   class="st22"
   d="m 50.8,75.8 c 0.1,0 0.1,0 0,0 0.1,0 0.1,0 0,0 0.1,0 0.1,0 0,0 0.1,-0.1 0,-0.2 -0.1,-0.1 0,0.1 0.1,0.1 0.1,0.1 z"
   id="path1054" />
	</g>
	<g
   class="st7"
   id="g1060">
		<path
   class="st22"
   d="m 51.2,75.9 c 0,-0.1 0.1,-0.1 0,0 0.1,-0.1 0.1,-0.1 0.1,-0.1 0,0 0,0 -0.1,0 0,-0.1 -0.1,-0.1 0,0.1 -0.1,-0.1 0,0 0,0 z"
   id="path1058" />
	</g>
	<g
   class="st7"
   id="g1064">
		<path
   class="st22"
   d="m 51.9,75.9 c 0.1,0 0.1,0 0,0 0.1,0 0.2,0 0,0 0.1,0 0.1,0 0,0 0,-0.1 0,0 0,0 z"
   id="path1062" />
	</g>
	<g
   class="st7"
   id="g1068">
		<path
   class="st22"
   d="m 54.1,73.3 c -0.1,0.6 -0.2,1.3 -0.1,1.9 0.1,0.5 0.6,0.8 1,1 0,0 0,0 0,0 -0.4,-0.5 -0.8,-0.8 -0.9,-1.4 0,-0.5 0.1,-1 0,-1.5 0,0 0,0 0,0 z"
   id="path1066" />
	</g>
	<g
   class="st7"
   id="g1072">
		<path
   class="st22"
   d="m 42.7,73.4 c 0,0.6 0.2,1.2 0.2,1.7 0,0.6 -0.6,0.9 -1,1.3 0,0 0,0.1 0,0.1 0.4,-0.2 0.9,-0.6 1.1,-1.1 0.1,-0.2 0,-0.6 -0.1,-0.8 0,-0.4 -0.1,-0.8 -0.2,-1.2 0,0 0,0 0,0 z"
   id="path1070" />
	</g>
	<g
   class="st56"
   id="g1076">
		<path
   class="st22"
   d="m 41.7,83.2 c 0.7,1.2 2.1,1.3 3.4,1.3 0,0 0,0 0,0 -1.3,-0.2 -2.6,-0.2 -3.4,-1.3 0,0 0,0 0,0 z"
   id="path1074" />
	</g>
	<g
   class="st56"
   id="g1080">
		<path
   class="st22"
   d="m 54.7,84.2 c 0.9,-0.2 0.9,-1.5 0.9,-2.2 0,0 0,0 0,0 -0.2,0.7 -0.1,1.7 -0.9,2.2 -0.1,0 -0.1,0 0,0 z"
   id="path1078" />
	</g>
	<g
   class="st56"
   id="g1084">
		<path
   class="st22"
   d="m 40.3,87.7 c -0.1,0.8 0.9,0.9 1.5,0.9 1.1,0 2.3,0 3.5,-0.2 0,0 0,-0.1 0,-0.1 -0.8,0.1 -1.5,0.1 -2.3,0.1 -0.8,0.1 -2.6,0.3 -2.7,-0.7 0,0 0,0 0,0 z"
   id="path1082" />
	</g>
	<g
   class="st56"
   id="g1088">
		<path
   class="st22"
   d="m 41,84.8 c 0.6,0.1 1.2,0.1 1.8,0 0,0 0,0 0,0 -0.5,-0.1 -1.2,-0.1 -1.8,0 0,0 0,0 0,0 z"
   id="path1086" />
	</g>
	<g
   class="st56"
   id="g1092">
		<path
   class="st22"
   d="m 42.1,84.4 c 0,0 0,0.1 0,0.1 0.1,0.1 0.2,0.1 0.2,-0.1 0,-0.1 -0.1,-0.1 -0.2,0 z"
   id="path1090" />
	</g>
	<g
   class="st56"
   id="g1096">
		<path
   class="st22"
   d="m 41.4,84.3 c 0,0 -0.1,0 0,0 -0.1,0 -0.1,0 -0.1,0 0,0 0,0 0,0 0,0 0,0.1 0.1,0.1 0,0 0,0 0,0 0.1,0 0.1,-0.1 0,-0.1 z"
   id="path1094" />
	</g>
	<g
   class="st56"
   id="g1100">
		<path
   class="st22"
   d="m 41.4,84.2 c 0,0 0,0 0,0 0.1,-0.1 0,-0.1 0,-0.1 -0.1,0 -0.1,0 0,0.1 -0.1,0 -0.1,0 0,0 z"
   id="path1098" />
	</g>
	<g
   class="st56"
   id="g1104">
		<path
   class="st22"
   d="m 53.9,75.5 c 0.2,0.3 0.5,0.5 0.7,0.7 0.2,0.2 0.4,0.4 0.6,0.6 0.1,0 0.1,0 0.1,-0.1 -0.2,-0.2 -0.5,-0.4 -0.7,-0.7 -0.3,-0.1 -0.5,-0.3 -0.7,-0.5 0,0 -0.1,0 0,0 z"
   id="path1102" />
	</g>
	<g
   class="st56"
   id="g1108">
		<path
   class="st22"
   d="m 42,76.5 c 0.2,-0.1 0.4,-0.2 0.5,-0.4 0.2,-0.2 0.4,-0.4 0.6,-0.6 0,-0.1 0,-0.1 -0.1,-0.1 -0.2,0.1 -0.4,0.3 -0.5,0.5 -0.2,0.2 -0.4,0.4 -0.5,0.6 -0.1,0 -0.1,0.1 0,0 z"
   id="path1106" />
	</g>
	<g
   class="st56"
   id="g1112">
		<path
   class="st22"
   d="m 39.8,70.4 c 0.4,-0.5 1.1,-0.3 1.7,-0.3 0.5,0 0.9,0 1.4,0 1,0 1.9,0 2.9,-0.1 0,0 0,-0.1 0,-0.1 -1.2,0 -2.4,0 -3.7,0.1 -0.7,0 -1.8,-0.4 -2.3,0.4 0,0 0,0 0,0 z"
   id="path1110" />
	</g>
	<g
   class="st56"
   id="g1116">
		<path
   class="st22"
   d="m 46.1,69.6 c 0,0 0,0 0,0 0,0.1 0,0.1 0,0.1 0,0 0,0 0,0 0.1,0 0.2,0 0.2,-0.1 0,-0.1 -0.1,-0.1 -0.2,0 z"
   id="path1114" />
	</g>
	<g
   class="st56"
   id="g1120">
		<path
   class="st22"
   d="m 45.6,69.5 c 0,0 -0.1,0 0,0 -0.1,0.1 0,0.2 0,0.2 0,0 0,0 0,0 0.1,-0.1 0,-0.3 0,-0.2 z"
   id="path1118" />
	</g>
	<g
   class="st56"
   id="g1124">
		<path
   class="st22"
   d="m 45.4,69.8 c 0.1,0 0.1,0 0.1,-0.1 0,0 0,-0.1 0,-0.1 0,0 0,0 0,0 0,0 0,0 0,0 -0.2,0 -0.2,0.2 -0.1,0.2 z"
   id="path1122" />
	</g>
	<g
   class="st56"
   id="g1128">
		<path
   class="st22"
   d="m 52.2,69.9 c 0.7,0.1 1.4,0.1 2.2,0.2 0.8,0.1 1.7,0 2.4,0.6 0,0 0.1,0 0,0 C 56.5,70 55.7,70 55.1,70 c -1,-0.1 -1.9,-0.2 -2.9,-0.1 0,0 0,0 0,0 z"
   id="path1126" />
	</g>
	<g
   class="st56"
   id="g1132">
		<path
   class="st22"
   d="m 56.2,69.7 c 0.2,0 0.2,-0.3 0,-0.3 -0.2,0 -0.2,0.3 0,0.3 z"
   id="path1130" />
	</g>
	<g
   class="st56"
   id="g1136">
		<path
   class="st22"
   d="m 56.6,70 c 0,0 0,0 0,0 0,0 0,0 0,0 0.1,0 0.1,0 0,0 0.2,-0.1 0.1,-0.2 0,-0.2 -0.1,0.1 -0.1,0.2 0,0.2 z"
   id="path1134" />
	</g>
	<g
   class="st56"
   id="g1140">
		<path
   class="st22"
   d="m 56.6,70 c 0,0 0,0 0,0 -0.1,0 -0.1,0 0,0 -0.1,0.1 -0.1,0.1 0,0 -0.1,0.1 0,0.2 0,0.1 0.1,0 0.1,-0.1 0,-0.1 z"
   id="path1138" />
	</g>
	<g
   class="st56"
   id="g1144">
		<path
   class="st22"
   d="m 56.4,67.9 c 0,0.1 0,0.2 0,0.3 0,0.1 0,0.3 0,0.3 -0.1,0.1 -0.2,0.1 -0.3,0.2 -0.1,0 -0.2,0 -0.3,0.1 -0.1,0 -0.1,0.1 0,0.1 0.2,0.1 0.5,0.1 0.7,-0.1 0.1,-0.1 0.1,-0.2 0,-0.3 0,-0.3 0,-0.4 -0.1,-0.6 0,0 0,0 0,0 z"
   id="path1142" />
	</g>
	<g
   class="st56"
   id="g1148">
		<path
   class="st22"
   d="m 42.2,67.6 c 0.5,0.4 1,0.7 1.6,0.9 0.8,0.2 1.5,0.4 2.3,0.4 0.1,0 0.1,-0.1 0,-0.1 -0.7,-0.2 -1.4,-0.2 -2.1,-0.4 -0.3,-0.1 -0.6,-0.1 -0.9,-0.2 -0.2,-0.2 -0.6,-0.4 -0.9,-0.6 0,0 0,0 0,0 z"
   id="path1146" />
	</g>
	<g
   class="st56"
   id="g1152">
		<path
   class="st22"
   d="m 45.8,68.3 c 0.2,0 0.2,-0.3 0,-0.3 -0.2,0 -0.2,0.3 0,0.3 z"
   id="path1150" />
	</g>
	<g
   class="st56"
   id="g1156">
		<path
   class="st22"
   d="m 45.2,68.2 c 0.1,0 0.1,-0.2 0,-0.2 -0.1,0 -0.1,0.2 0,0.2 z"
   id="path1154" />
	</g>
	<g
   class="st56"
   id="g1160">
		<path
   class="st22"
   d="m 43.2,68.6 c 0,0 0,0.1 0,0.1 0,0 0,0 0,-0.1 0,0.1 0,0.1 0,0.1 0,0 0,0.1 0.1,0.1 0,0 0,0 0.1,0 0,0 0,0 0,0 0,0 0.1,0 0.1,0 0,0 0,0 -0.1,0 0.1,0 0.1,0 0.1,-0.1 0.1,-0.1 0,-0.2 0,-0.2 -0.1,0 -0.3,0 -0.3,0.1 z"
   id="path1158" />
	</g>
	<g
   class="st56"
   id="g1164">
		<path
   class="st22"
   d="m 42.6,68.7 c 0,0 0,0 0,0 -0.1,-0.1 0,0 0,0 0,0 0,0 0,0 0,-0.1 -0.1,-0.1 -0.1,-0.1 0,0 -0.1,0 -0.1,0 -0.1,0.1 0,0.2 0.1,0.2 0,0 0,0 0.1,-0.1 0,0.1 0,0 0,0 z"
   id="path1162" />
	</g>
	<polygon
   class="st22"
   points="51.1,71.5 51.8,71.5 53.3,69.9 52.7,69.9 "
   id="polygon1166" />
	<polygon
   class="st22"
   points="52.1,71.5 52.5,71.5 54,69.9 53.7,69.9 "
   id="polygon1168" />
	<polygon
   class="st22"
   points="52.9,71.5 54.5,69.9 54.2,69.9 52.7,71.5 "
   id="polygon1170" />
	<path
   d="m 55.9,69.9 h -5.1 l -0.1,1.6 h 5.7 z M 51,70 h 4.6 l 0.4,1.4 h -5.1 z"
   id="path1172" />
</g>
<g
   id="g2765"
   transform="matrix(0,0.69719359,-0.89970182,0,284.157,10.583625)"><polygon
     class="st0"
     points="186.1,301.9 186.1,362.2 182.7,362.2 182.7,301.9 183.4,298.7 185.5,298.7 "
     id="polygon28-8"
     style="fill:#d8dadc"
     transform="matrix(1.2124502,0,0,0.93086984,-67.86721,-247.71352)" /><polygon
     class="st1"
     points="184.4,362.2 184.4,298.7 185.5,298.7 186.1,301.9 186.1,362.2 "
     id="polygon30-2"
     style="opacity:0.3;fill:#98989c"
     transform="matrix(1.2124502,0,0,0.93086984,-67.86721,-247.71352)" /><polygon
     class="st2"
     points="185.5,301.9 185.5,362.2 183.4,362.2 183.4,301.9 183.8,298.7 185,298.7 "
     id="polygon32"
     style="fill:#6d6d6e"
     transform="matrix(1.2124502,0,0,0.93086984,-67.86721,-247.71352)" /><polygon
     class="st1"
     points="184.7,298.7 184.4,302 184.1,298.7 "
     id="polygon34"
     style="opacity:0.3;fill:#98989c"
     transform="matrix(1.2124502,0,0,0.93086984,-67.86721,-247.71352)" /><path
     class="st3"
     d="m 148.31267,92.891783 c -1.09121,4.933609 -1.09121,11.915127 -1.09121,19.548267 0,27.46066 0,27.46066 8.6084,27.46066 8.6084,0 8.6084,0 8.6084,-27.46066 0,-7.63314 0,-14.614658 -1.09121,-19.548267 z"
     id="path36"
     style="fill:#f28e00;stroke-width:1.06237" /><path
     class="st4"
     d="m 150.13134,92.891783 c -0.72747,4.933609 -0.72747,11.915127 -0.72747,19.548267 0,27.46066 0,27.46066 5.57727,27.46066 5.57727,0 5.57727,0 5.57727,-27.46066 0,-7.63314 0,-14.614658 -0.72747,-19.548267 z"
     id="path38-6"
     style="fill:#f7af2c;stroke-width:1.06237" /><path
     class="st5"
     d="m 161.52838,92.891783 c 0.60622,4.933609 0.60622,11.915127 0.60622,19.548267 0,27.46066 0,27.46066 -5.21353,27.46066 -5.21354,0 -5.21354,0 -5.21354,-27.46066 0,-7.63314 0,-14.614658 0.60623,-19.548267 z"
     id="path40-5"
     style="fill:#db7505;stroke-width:1.06237" /><path
     class="st3"
     d="m 152.31376,92.891783 c -0.48499,4.933609 -0.48499,11.915127 -0.48499,19.548267 0,27.46066 0,27.46066 4.00109,27.46066 4.00108,0 4.00108,0 4.00108,-27.46066 0,-7.63314 0,-14.614658 -0.48497,-19.548267 z"
     id="path42"
     style="fill:#f28e00;stroke-width:1.06237" /><path
     class="st4"
     d="m 163.58954,92.891783 h -15.64061 c -1.45494,0 -2.54614,-0.93087 -2.54614,-1.954826 v -1.675569 c 0,-1.117038 1.21245,-1.954826 2.54614,-1.954826 h 15.64061 c 1.45494,0 2.54615,0.930871 2.54615,1.954826 v 1.582477 c 0,1.210138 -1.09121,2.047918 -2.54615,2.047918 z"
     id="path44"
     style="fill:#f7af2c;stroke-width:1.06237" /><path
     class="st3"
     d="m 161.64962,92.891783 h -11.88201 c -1.09121,0 -1.93992,-0.93087 -1.93992,-1.954826 v -1.675569 c 0,-1.117038 0.84871,-1.954826 1.93992,-1.954826 h 11.88201 c 1.09121,0 1.93992,0.930871 1.93992,1.954826 v 1.582477 c 0.12124,1.210138 -0.84871,2.047918 -1.93992,2.047918 z"
     id="path46"
     style="fill:#f28e00;stroke-width:1.06237" /><path
     class="st4"
     d="m 157.89103,92.891783 h -4.12233 c -0.36374,0 -0.72747,-0.93087 -0.72747,-1.954826 v -1.675569 c 0,-1.117038 0.36373,-1.954826 0.72747,-1.954826 h 4.12233 c 0.36373,0 0.72747,0.930871 0.72747,1.954826 v 1.582477 c 0,1.210138 -0.36374,2.047918 -0.72747,2.047918 z"
     id="path48-9"
     style="fill:#f7af2c;stroke-width:1.06237" /></g><g
   id="g2816"
   transform="matrix(0,0.83725219,-0.98513358,0,255.69662,18.965695)"><path
     class="st0"
     d="m 138.27375,21.05009 v 5.174864 c 0,0.161715 0,0.323429 0.0864,0.485144 l 0.86418,1.698002 c 0.17284,0.404287 0.25925,0.808573 0.25925,1.212859 v 42.20749 h 2.93822 V 29.701816 c 0,-0.485143 0.0864,-0.889429 0.34567,-1.293716 l 0.86417,-1.617145 c 0.0865,-0.161714 0.17284,-0.323429 0.17284,-0.566001 V 21.05009 Z"
     id="path4"
     style="fill:#d8dadc;stroke-width:0.835909" /><path
     class="st1"
     d="m 141.03912,21.05009 v 50.778359 h 1.38269 V 29.701816 c 0,-0.485143 0.0864,-0.889429 0.34567,-1.293716 l 0.86418,-1.617145 c 0.0865,-0.161714 0.17283,-0.323429 0.17283,-0.566001 V 21.05009 Z"
     id="path6"
     style="opacity:0.3;fill:#98989c;stroke-width:0.835909" /><path
     class="st2"
     d="m 138.27375,21.05009 v 5.255721 c 0,0.161715 0.0864,0.32343 0.17284,0.404287 l 1.29627,1.859717 c 0.25925,0.323429 0.34567,0.646858 0.34567,1.051144 v 42.288348 h 1.81477 V 29.701816 c 0,-0.404286 0.17284,-0.808572 0.34567,-1.051144 l 1.38269,-1.859717 c 0.0865,-0.161714 0.17283,-0.242572 0.17283,-0.404286 v -5.255722 h -5.53074 z"
     id="path8"
     style="fill:#6d6d6e;stroke-width:0.835909" /><path
     class="st1"
     d="m 143.80449,21.93952 c 0,0 -0.43208,2.668288 -2.85179,2.668288 -2.4197,0 -2.67895,-2.668288 -2.67895,-2.668288 v -0.970288 h 5.53074 z"
     id="path10"
     style="opacity:0.3;fill:#98989c;stroke-width:0.835909" /><path
     class="st3"
     d="m 135.76763,74.82017 c -0.77775,4.285431 -0.77775,10.349724 -0.77775,16.980024 0,23.852886 0,23.852886 6.13566,23.852886 6.13566,0 6.13566,0 6.13566,-23.852886 0,-6.6303 0,-12.694593 -0.77775,-16.980024 z"
     id="path12"
     style="fill:#f28e00;stroke-width:0.835909" /><path
     class="st4"
     d="m 137.0639,74.82017 c -0.5185,4.285431 -0.5185,10.349724 -0.5185,16.980024 0,23.852886 0,23.852886 3.97522,23.852886 3.97521,0 3.97521,0 3.97521,-23.852886 0,-6.6303 0,-12.694593 -0.5185,-16.980024 z"
     id="path14"
     style="fill:#f7af2c;stroke-width:0.835909" /><path
     class="st5"
     d="m 145.18718,74.82017 c 0.43208,4.285431 0.43208,10.349724 0.43208,16.980024 0,23.852886 0,23.852886 -3.71596,23.852886 -3.71596,0 -3.71596,0 -3.71596,-23.852886 0,-6.6303 0,-12.694593 0.43208,-16.980024 z"
     id="path16"
     style="fill:#db7505;stroke-width:0.835909" /><path
     class="st3"
     d="m 138.61942,74.82017 c -0.34567,4.285431 -0.34567,10.349724 -0.34567,16.980024 0,23.852886 0,23.852886 2.85179,23.852886 2.85179,0 2.85179,0 2.85179,-23.852886 0,-6.6303 0,-12.694593 -0.34567,-16.980024 z"
     id="path18"
     style="fill:#f28e00;stroke-width:0.835909" /><path
     class="st4"
     d="m 146.65628,74.82017 h -11.1479 c -1.03701,0 -1.81477,-0.808573 -1.81477,-1.698005 v -1.374574 c 0,-0.97029 0.86418,-1.697999 1.81477,-1.697999 h 11.1479 c 1.03701,0 1.81477,0.808567 1.81477,1.697999 v 1.374574 c 0,0.889432 -0.77776,1.698005 -1.81477,1.698005 z"
     id="path20"
     style="fill:#f7af2c;stroke-width:0.835909" /><path
     class="st3"
     d="m 145.2736,74.82017 h -8.46895 c -0.77776,0 -1.38269,-0.808573 -1.38269,-1.698005 v -1.374574 c 0,-0.97029 0.60493,-1.697999 1.38269,-1.697999 h 8.46895 c 0.77775,0 1.38268,0.808567 1.38268,1.697999 v 1.374574 c 0.0864,0.889432 -0.60493,1.698005 -1.38268,1.698005 z"
     id="path22"
     style="fill:#f28e00;stroke-width:0.835909" /><path
     class="st4"
     d="m 142.59464,74.82017 h -2.9382 c -0.25926,0 -0.51851,-0.808573 -0.51851,-1.698005 v -1.374574 c 0,-0.97029 0.25925,-1.697999 0.51851,-1.697999 h 2.9382 c 0.25925,0 0.51851,0.808567 0.51851,1.697999 v 1.374574 c 0,0.889432 -0.25926,1.698005 -0.51851,1.698005 z"
     id="path24-1"
     style="fill:#f7af2c;stroke-width:0.835909" /></g></svg>
