<?xml version="1.0" encoding="UTF-8" standalone="no"?>
<!-- Generator: Adobe Illustrator 25.1.0, SVG Export Plug-In . SVG Version: 6.00 Build 0)  -->

<svg
   version="1.1"
   x="0px"
   y="0px"
   viewBox="0 0 350 150"
   enable-background="new 0 0 850 500"
   xml:space="preserve"
   id="svg390"
   sodipodi:docname="informatique_PF.svg"
   inkscape:version="1.1 (c68e22c387, 2021-05-23)"
   width="350"
   height="150"
   xmlns:inkscape="http://www.inkscape.org/namespaces/inkscape"
   xmlns:sodipodi="http://sodipodi.sourceforge.net/DTD/sodipodi-0.dtd"
   xmlns="http://www.w3.org/2000/svg"
   xmlns:svg="http://www.w3.org/2000/svg"><defs
   id="defs394"><inkscape:path-effect
   effect="bspline"
   id="path-effect29694"
   is_visible="true"
   lpeversion="1"
   weight="33.333333"
   steps="2"
   helper_size="0"
   apply_no_weight="true"
   apply_with_weight="true"
   only_selected="false" /><inkscape:path-effect
   effect="spiro"
   id="path-effect29657"
   is_visible="true"
   lpeversion="1" />
	

		
		
	
			
			
		
			
			
			
			
			
			
			
			
			
		</defs><sodipodi:namedview
   id="namedview392"
   pagecolor="#505050"
   bordercolor="#eeeeee"
   borderopacity="1"
   inkscape:pageshadow="0"
   inkscape:pageopacity="0"
   inkscape:pagecheckerboard="0"
   showgrid="false"
   inkscape:zoom="2.0590949"
   inkscape:cx="306.20249"
   inkscape:cy="87.174222"
   inkscape:window-width="1920"
   inkscape:window-height="1001"
   inkscape:window-x="-9"
   inkscape:window-y="-9"
   inkscape:window-maximized="1"
   inkscape:current-layer="g33151"
   width="350px"
   borderlayer="true" />
<g
   id="BACKGROUND">
</g>

<g
   id="g32492"><g
     id="g33151"><rect
       fill="#c2cbd7"
       width="392.51746"
       height="180.44212"
       id="rect3"
       x="-14.492332"
       y="-11.374426"
       style="stroke-width:0.408229" /><rect
       style="opacity:1;fill:#6f918a;fill-opacity:1;stroke:none;stroke-width:2.24502;stroke-linecap:round;stroke-linejoin:round;paint-order:stroke fill markers"
       id="rect31860"
       width="859.59271"
       height="100.27473"
       x="1059.3633"
       y="490.76923" /><g
       id="g33"
       transform="translate(369.50549,323.97582)">
				<g
   id="g13">
					<path
   fill="#2c3451"
   d="m 799.913,426.339 h -9.003 l -0.066,-0.293 -7.691,-34.263 h 12.529 z m -8.403,-0.75 h 7.556 l -4.048,-33.056 H 784.09 Z"
   id="path9" />
					<path
   fill="#2c3451"
   d="m 690.283,426.339 h -9.003 l 4.232,-34.556 h 12.529 z m -8.155,-0.75 h 7.556 l 7.42,-33.056 h -10.928 z"
   id="path11" />
				</g>
				<g
   id="g19">
					<path
   fill="#ffffff"
   d="m 781.312,426.339 h -6.396 l -5.31,-34.556 h 8.81 l 0.029,0.344 z m -5.752,-0.75 h 4.936 l -2.77,-33.056 h -7.245 z"
   id="path15" />
					<path
   fill="#ffffff"
   d="m 706.278,426.339 h -6.396 l 2.896,-34.556 h 8.81 z m -5.58,-0.75 h 4.935 l 5.079,-33.056 h -7.245 z"
   id="path17" />
				</g>
				<path
   fill="#758fb3"
   d="m 796.531,315.818 7.612,-75.872 c 0.574,-5.718 -4.226,-10.448 -9.749,-9.638 -39.978,5.869 -68.382,5.878 -107.615,0.028 -5.513,-0.822 -10.302,3.938 -9.729,9.648 l 7.608,75.834 c 0.097,0.964 0.04,1.931 -0.17,2.875 -0.921,4.141 -3.56,15.951 -3.859,16.721 -0.209,0.539 1.574,5.931 3.121,10.398 1.251,3.614 4.629,5.976 8.351,5.85 l 48.212,-1.639 c 0.188,-0.006 0.377,-0.006 0.565,0 l 48.212,1.639 c 3.722,0.127 7.099,-2.236 8.351,-5.85 1.547,-4.468 3.33,-9.859 3.12,-10.398 -0.299,-0.77 -2.938,-12.58 -3.859,-16.721 -0.211,-0.944 -0.268,-1.911 -0.171,-2.875 z"
   id="path21" />
				<path
   fill="#657faa"
   d="m 679.893,310.05 9.718,7.573 c 2.251,1.858 2.496,2.945 2.766,6.06 l 3.167,24.73 h -14.668 z"
   id="path23" />
				<path
   fill="#657faa"
   d="m 801.307,310.05 -9.718,7.573 c -2.251,1.858 -2.496,2.945 -2.766,6.06 l -3.167,24.73 14.668,1.114 z"
   id="path25" />
				<path
   fill="#343a55"
   d="m 809.185,309.416 h -5.9 c -1.645,0 -3.057,1.17 -3.362,2.786 l -4.57,36.432 c -0.306,1.616 -3.202,-1.623 -4.846,-1.623 h -99.818 c -1.645,0 -4.541,4.095 -4.846,2.479 l -4.57,-37.287 c -0.306,-1.616 -1.718,-2.786 -3.362,-2.786 h -5.9 c -1.89,0 -3.422,1.532 -3.422,3.422 l 6.593,78.402 c 0,4.29 3.477,7.767 7.767,7.767 h 116.457 c 4.257,0 7.708,-3.451 7.708,-7.708 l 5.494,-78.462 c -10e-4,-1.89 -1.533,-3.422 -3.423,-3.422 z"
   id="path27" />
				<path
   fill="#91aece"
   d="M 791.751,375.347 H 689.442 c -1.981,0 -3.601,-1.62 -3.601,-3.601 V 349.49 c 0,-1.981 1.62,-3.601 3.601,-3.601 34.103,-2.494 68.206,-2.494 102.309,0 1.98,0 3.601,1.62 3.601,3.601 v 22.257 c 0,1.98 -1.62,3.6 -3.601,3.6 z"
   id="path29" />
				<rect
   x="689.638"
   y="348.03799"
   fill="#2c3451"
   width="101.918"
   height="0.75"
   id="rect31" />
			</g><g
       id="g87"
       transform="matrix(0.50913688,0,0,0.4713499,-79.874476,-25.524299)">
				<g
   id="g65">
					<path
   fill="#2c3451"
   d="M 473.453,176.413 H 415.145 V 95.656 h 58.308 z m -57.557,-0.75 h 56.808 V 96.406 h -56.808 z"
   id="path55" />
					<rect
   x="423.53699"
   y="104.725"
   fill="#ffffff"
   width="41.523998"
   height="62.618999"
   id="rect57" />
					<path
   fill="#edd9ca"
   d="m 451.968,147.545 c -0.207,-7.616 -3.149,-16.434 -10.847,-19.469 -1.916,-0.755 -4.406,-1.094 -6.307,-0.148 -1.818,0.905 -3.249,2.663 -4.086,4.481 -3.225,7.003 -1.668,15.678 3.283,21.457 2.899,3.383 7.343,6.617 11.963,6.701 0.893,0.016 1.803,-0.096 2.615,-0.467 3.146,-1.436 3.184,-6.684 3.34,-9.609 0.051,-0.964 0.066,-1.95 0.039,-2.946 z"
   id="path59" />
					<path
   fill="#d8e1ea"
   d="m 456.125,113.136 c -1.619,-2.007 -4.56,-2.546 -6.967,-3 -3.336,-0.63 -6.693,-1.171 -10.089,-1.32 -2.222,-0.097 -4.795,-0.167 -6.345,1.733 -0.848,1.039 -1.377,2.742 -0.751,4.006 0.715,1.443 2.414,1.957 3.824,2.389 1.826,0.559 3.693,0.983 5.577,1.291 3.784,0.619 7.634,0.772 11.462,0.622 1.443,-0.056 3.18,-0.46 3.922,-1.84 0.513,-0.953 0.395,-2.161 -0.12,-3.112 -0.151,-0.278 -0.323,-0.533 -0.513,-0.769 z"
   id="path61" />
					<path
   fill="#c8ccc6"
   d="m 460.563,123.902 c -1.69,-1.425 -4.935,-1.675 -6.703,-0.24 -2.13,1.729 -1.451,4.955 0.84,6.124 1.425,0.728 3.358,1.089 4.929,0.728 1.276,-0.293 1.68,-1.33 2.074,-2.463 0.206,-0.591 0.348,-1.222 0.252,-1.84 -0.139,-0.89 -0.679,-1.707 -1.392,-2.309 z"
   id="path63" />
				</g>
				<g
   id="g85">
					<rect
   x="506.98499"
   y="144.681"
   fill="#ffffff"
   width="48.546001"
   height="50.167999"
   id="rect67" />
					
						<rect
   x="530.88"
   y="130.22501"
   transform="matrix(0.3393,-0.9407,0.9407,0.3393,201.3248,604.8628)"
   fill="#c2cbd7"
   width="0.74900001"
   height="57.773998"
   id="rect69" />
					<path
   fill="#c2cbd7"
   d="m 507.685,187.21 c -5.982,0 -10.85,-4.867 -10.85,-10.85 0,-5.982 4.867,-10.85 10.85,-10.85 5.982,0 10.85,4.867 10.85,10.85 -10e-4,5.982 -4.868,10.85 -10.85,10.85 z m 0,-20.95 c -5.569,0 -10.1,4.531 -10.1,10.1 0,5.569 4.53,10.1 10.1,10.1 5.569,0 10.1,-4.531 10.1,-10.1 -10e-4,-5.569 -4.531,-10.1 -10.1,-10.1 z"
   id="path71" />
					<path
   fill="#c2cbd7"
   d="m 533.697,182.277 c -2.648,0 -4.804,-2.155 -4.804,-4.804 0,-2.648 2.155,-4.803 4.804,-4.803 2.648,0 4.803,2.155 4.803,4.803 0,2.65 -2.154,4.804 -4.803,4.804 z m 0,-8.857 c -2.235,0 -4.054,1.818 -4.054,4.053 0,2.235 1.818,4.054 4.054,4.054 2.234,0 4.053,-1.818 4.053,-4.054 0,-2.234 -1.818,-4.053 -4.053,-4.053 z"
   id="path73" />
					<path
   fill="#c2cbd7"
   d="m 560.131,155.7 c -11.095,0 -20.12,-9.025 -20.12,-20.12 0,-11.094 9.025,-20.12 20.12,-20.12 11.094,0 20.119,9.025 20.119,20.12 0,11.095 -9.025,20.12 -20.119,20.12 z m 0,-39.489 c -10.681,0 -19.37,8.689 -19.37,19.37 0,10.681 8.689,19.37 19.37,19.37 10.681,0 19.369,-8.689 19.369,-19.37 0,-10.681 -8.688,-19.37 -19.369,-19.37 z"
   id="path75" />
					
						<rect
   x="522.14001"
   y="189.297"
   transform="matrix(0.9126,-0.4088,0.4088,0.9126,-30.2549,237.8093)"
   fill="#c2cbd7"
   width="37.951"
   height="0.75"
   id="rect77" />
					
						<rect
   x="528.62701"
   y="134.761"
   transform="matrix(0.853,-0.5219,0.5219,0.853,-10.567,300.9424)"
   fill="#c2cbd7"
   width="0.75099999"
   height="68.942001"
   id="rect79" />
					
						<rect
   x="499.73499"
   y="161.326"
   transform="matrix(0.8252,-0.5649,0.5649,0.8252,1.579,328.5046)"
   fill="#c2cbd7"
   width="63.556"
   height="0.75"
   id="rect81" />
					<path
   fill="#2c3451"
   d="m 562.548,202.189 h -62.579 v -64.848 h 62.579 z m -61.829,-0.75 h 61.079 v -63.348 h -61.079 z"
   id="path83" />
				</g>
			</g><g
       id="g147"
       transform="matrix(0.5296305,0,0,0.46709981,-94.835034,-32.243441)">
				<path
   fill="#ffffff"
   d="M 815.381,161.547 H 619.72 V 89.373 h 195.661 z m -189.661,-6 H 809.381 V 95.373 H 625.72 Z"
   id="path89" />
				<rect
   x="795.42401"
   y="104.941"
   fill="#c49b68"
   width="13.958"
   height="50.605999"
   id="rect91" />
				
					<rect
   x="628.93903"
   y="115.181"
   transform="matrix(-0.9862,0.1658,-0.1658,-0.9862,1282.4468,163.0166)"
   fill="#c49b68"
   width="10.959"
   height="39.733002"
   id="rect93" />
				
					<rect
   x="638.95398"
   y="101.603"
   transform="matrix(-0.9862,0.1658,-0.1658,-0.9862,1295.8179,148.8804)"
   fill="#758fb3"
   width="5.4790001"
   height="53.862999"
   id="rect95" />
				
					<rect
   x="660.11603"
   y="101.759"
   transform="matrix(-0.9862,0.1658,-0.1658,-0.9862,1336.009,145.8387)"
   fill="#ffffff"
   width="3.6010001"
   height="53.862999"
   id="rect97" />
				
					<rect
   x="654.49402"
   y="101.603"
   transform="matrix(-0.9862,0.1658,-0.1658,-0.9862,1326.6823,146.3035)"
   fill="#c49b68"
   width="5.4790001"
   height="53.862999"
   id="rect99" />
				
					<rect
   x="663.85602"
   y="101.603"
   transform="matrix(-0.9862,0.1658,-0.1658,-0.9862,1345.2761,144.7511)"
   fill="#c49b68"
   width="5.4790001"
   height="53.862999"
   id="rect101" />
				
					<rect
   x="645.04797"
   y="108.081"
   transform="matrix(-0.9862,0.1658,-0.1658,-0.9862,1312.9481,153.4973)"
   fill="#343a55"
   width="10.035"
   height="46.959"
   id="rect103" />
				<rect
   x="782.72198"
   y="110.09"
   fill="#c49b68"
   width="6.9790001"
   height="45.457001"
   id="rect105" />
				
					<rect
   x="720.87201"
   y="111.016"
   transform="rotate(90,723.2947,141.4915)"
   fill="#c49b68"
   width="4.8449998"
   height="60.951"
   id="rect107" />
				
					<rect
   x="725.15503"
   y="104.311"
   transform="rotate(90,726.3662,137.8575)"
   fill="#ffffff"
   width="2.4230001"
   height="67.093002"
   id="rect109" />
				<rect
   x="764.10999"
   y="104.941"
   fill="#758fb3"
   width="6.9790001"
   height="50.605999"
   id="rect111" />
				
					<rect
   x="725.30603"
   y="109.953"
   transform="rotate(90,730.2716,131.6808)"
   fill="#758fb3"
   width="9.9309998"
   height="43.456001"
   id="rect113" />
				<rect
   x="771.08899"
   y="106.137"
   fill="#ffffff"
   width="11.633"
   height="49.410999"
   id="rect115" />
				
					<rect
   x="721.289"
   y="119.995"
   transform="rotate(90,727.1056,149.7308)"
   fill="#343a55"
   width="11.633"
   height="59.472"
   id="rect117" />
				<rect
   x="789.70099"
   y="101.022"
   fill="#343a55"
   width="5.723"
   height="54.525002"
   id="rect119" />
				<g
   id="g133">
					<g
   id="g125">
						<rect
   x="702.901"
   y="143.914"
   fill="#ffffff"
   width="0.75"
   height="11.633"
   id="rect121" />
						<rect
   x="706.84497"
   y="143.914"
   fill="#ffffff"
   width="0.75"
   height="11.633"
   id="rect123" />
					</g>
					<g
   id="g131">
						<rect
   x="746.61603"
   y="143.914"
   fill="#ffffff"
   width="0.75"
   height="11.633"
   id="rect127" />
						<rect
   x="750.56"
   y="143.914"
   fill="#ffffff"
   width="0.75"
   height="11.633"
   id="rect129" />
					</g>
				</g>
				<rect
   x="795.42401"
   y="110.438"
   fill="#2c3451"
   width="13.957"
   height="0.75"
   id="rect135" />
				<rect
   x="795.42401"
   y="150.013"
   fill="#2c3451"
   width="13.957"
   height="0.75"
   id="rect137" />
				<rect
   x="795.42401"
   y="112.822"
   fill="#2c3451"
   width="13.957"
   height="0.75"
   id="rect139" />
				<rect
   x="795.42401"
   y="147.63"
   fill="#2c3451"
   width="13.957"
   height="0.75"
   id="rect141" />
				
					<rect
   x="626.52301"
   y="120.308"
   transform="matrix(0.986,-0.1667,0.1667,0.986,-11.2752,107.066)"
   fill="#2c3451"
   width="10.959"
   height="0.75"
   id="rect143" />
				
					<rect
   x="631.39001"
   y="149.25101"
   transform="matrix(0.986,-0.1667,0.1667,0.986,-16.0327,108.2826)"
   fill="#2c3451"
   width="10.958"
   height="0.75"
   id="rect145" />
			</g><g
       id="g171"
       transform="matrix(0.3281039,0,0,0.30387487,0.97631524,24.792489)">
				<g
   id="g155">
					<polygon
   fill="#758fb3"
   points="80.172,425.964 76.255,425.964 75.159,193.284 81.293,193.284 "
   id="polygon149" />
					<polygon
   fill="#343a55"
   points="46.926,425.964 68.833,200.09 78.226,200.09 87.62,200.09 109.526,425.964 113.557,425.964 93.193,189.962 82.173,189.962 74.28,189.962 63.26,189.962 42.895,425.964 "
   id="polygon151" />
					<path
   fill="#ffffff"
   d="m 80.301,195.04 c 0,1.146 -0.929,2.074 -2.075,2.074 -1.146,0 -2.074,-0.929 -2.074,-2.074 0,-1.146 0.929,-2.074 2.074,-2.074 1.146,-0.001 2.075,0.928 2.075,2.074 z"
   id="path153" />
				</g>
				<g
   id="g169">
					<rect
   x="73.434998"
   y="138.00999"
   fill="#ffffff"
   width="9.5819998"
   height="51.952"
   id="rect157" />
					<g
   id="g163">
						<polygon
   fill="#d19e66"
   points="33.249,117.622 25.12,168.481 131.333,168.481 123.203,117.622 "
   id="polygon159" />
						<rect
   x="32.490002"
   y="121.998"
   fill="#2c3451"
   width="91.472"
   height="0.75"
   id="rect161" />
					</g>
					<rect
   x="109.766"
   y="168.481"
   fill="#ffffff"
   width="0.75"
   height="75.013"
   id="rect165" />
					<path
   fill="#343a55"
   d="m 110.141,250.579 v 0 c -0.509,0 -0.926,-0.416 -0.926,-0.925 v -7.404 c 0,-0.509 0.416,-0.926 0.926,-0.926 v 0 c 0.509,0 0.925,0.417 0.925,0.926 v 7.404 c 0,0.509 -0.416,0.925 -0.925,0.925 z"
   id="path167" />
				</g>
			</g><g
       id="g311"
       transform="matrix(0.31483614,0,0,0.32486129,9.2513719,-10.839028)">
				<g
   id="g205">
					<path
   fill="#ffffff"
   d="m 338.391,339.652 h -3.878 c -0.833,0 -1.515,-0.682 -1.515,-1.515 v -9.174 c 0,-0.833 0.682,-1.515 1.515,-1.515 h 3.878 c 0.833,0 1.515,0.682 1.515,1.515 v 9.174 c 0,0.833 -0.682,1.515 -1.515,1.515 z"
   id="path173" />
					<path
   fill="#ffffff"
   d="M 333.938,403.366 H 186.835 c -1.106,0 -2.003,-0.897 -2.003,-2.003 V 320.86 c 0,-1.106 0.897,-2.003 2.003,-2.003 h 147.102 c 1.106,0 2.003,0.897 2.003,2.003 v 80.503 c 10e-4,1.107 -0.896,2.003 -2.002,2.003 z"
   id="path175" />
					<rect
   x="184.82201"
   y="322.10101"
   fill="#2c3451"
   width="151.129"
   height="0.75"
   id="rect177" />
					<g
   id="g201">
						<path
   fill="#c2cbd7"
   d="m 199.69,397.472 c -1.192,0 -2.162,-0.971 -2.162,-2.163 V 329.72 c 0,-1.192 0.97,-2.162 2.162,-2.162 1.192,0 2.162,0.97 2.162,2.162 v 65.589 c 0,1.192 -0.969,2.163 -2.162,2.163 z m 0,-69.164 c -0.778,0 -1.412,0.634 -1.412,1.412 v 65.589 c 0,0.779 0.634,1.413 1.412,1.413 0.778,0 1.412,-0.634 1.412,-1.413 V 329.72 c 0,-0.779 -0.633,-1.412 -1.412,-1.412 z"
   id="path179" />
						<path
   fill="#c2cbd7"
   d="m 211.829,397.472 c -1.192,0 -2.162,-0.971 -2.162,-2.163 V 329.72 c 0,-1.192 0.97,-2.162 2.162,-2.162 1.192,0 2.163,0.97 2.163,2.162 v 65.589 c 0,1.192 -0.971,2.163 -2.163,2.163 z m 0,-69.164 c -0.778,0 -1.412,0.634 -1.412,1.412 v 65.589 c 0,0.779 0.634,1.413 1.412,1.413 0.779,0 1.413,-0.634 1.413,-1.413 V 329.72 c 0,-0.779 -0.634,-1.412 -1.413,-1.412 z"
   id="path181" />
						<path
   fill="#c2cbd7"
   d="m 223.969,397.472 c -1.192,0 -2.162,-0.971 -2.162,-2.163 V 329.72 c 0,-1.192 0.97,-2.162 2.162,-2.162 1.192,0 2.162,0.97 2.162,2.162 v 65.589 c 0,1.192 -0.97,2.163 -2.162,2.163 z m 0,-69.164 c -0.778,0 -1.412,0.634 -1.412,1.412 v 65.589 c 0,0.779 0.634,1.413 1.412,1.413 0.778,0 1.412,-0.634 1.412,-1.413 V 329.72 c 0,-0.779 -0.634,-1.412 -1.412,-1.412 z"
   id="path183" />
						<path
   fill="#c2cbd7"
   d="m 236.108,397.472 c -1.192,0 -2.162,-0.971 -2.162,-2.163 V 329.72 c 0,-1.192 0.97,-2.162 2.162,-2.162 1.192,0 2.162,0.97 2.162,2.162 v 65.589 c 0,1.192 -0.969,2.163 -2.162,2.163 z m 0,-69.164 c -0.778,0 -1.412,0.634 -1.412,1.412 v 65.589 c 0,0.779 0.634,1.413 1.412,1.413 0.778,0 1.412,-0.634 1.412,-1.413 V 329.72 c 0,-0.779 -0.633,-1.412 -1.412,-1.412 z"
   id="path185" />
						<path
   fill="#c2cbd7"
   d="m 248.247,397.472 c -1.192,0 -2.162,-0.971 -2.162,-2.163 V 329.72 c 0,-1.192 0.97,-2.162 2.162,-2.162 1.192,0 2.162,0.97 2.162,2.162 v 65.589 c 0,1.192 -0.97,2.163 -2.162,2.163 z m 0,-69.164 c -0.778,0 -1.412,0.634 -1.412,1.412 v 65.589 c 0,0.779 0.634,1.413 1.412,1.413 0.778,0 1.412,-0.634 1.412,-1.413 V 329.72 c 0,-0.779 -0.634,-1.412 -1.412,-1.412 z"
   id="path187" />
						<path
   fill="#c2cbd7"
   d="m 260.387,397.472 c -1.192,0 -2.162,-0.971 -2.162,-2.163 V 329.72 c 0,-1.192 0.97,-2.162 2.162,-2.162 1.192,0 2.162,0.97 2.162,2.162 v 65.589 c 0,1.192 -0.97,2.163 -2.162,2.163 z m 0,-69.164 c -0.778,0 -1.412,0.634 -1.412,1.412 v 65.589 c 0,0.779 0.634,1.413 1.412,1.413 0.778,0 1.412,-0.634 1.412,-1.413 V 329.72 c 0,-0.779 -0.634,-1.412 -1.412,-1.412 z"
   id="path189" />
						<path
   fill="#c2cbd7"
   d="m 272.525,397.472 c -1.192,0 -2.162,-0.971 -2.162,-2.163 V 329.72 c 0,-1.192 0.97,-2.162 2.162,-2.162 1.192,0 2.163,0.97 2.163,2.162 v 65.589 c 0,1.192 -0.97,2.163 -2.163,2.163 z m 0,-69.164 c -0.778,0 -1.412,0.634 -1.412,1.412 v 65.589 c 0,0.779 0.634,1.413 1.412,1.413 0.779,0 1.413,-0.634 1.413,-1.413 V 329.72 c 0,-0.779 -0.633,-1.412 -1.413,-1.412 z"
   id="path191" />
						<path
   fill="#c2cbd7"
   d="m 284.665,397.472 c -1.192,0 -2.162,-0.971 -2.162,-2.163 V 329.72 c 0,-1.192 0.97,-2.162 2.162,-2.162 1.192,0 2.162,0.97 2.162,2.162 v 65.589 c 0,1.192 -0.97,2.163 -2.162,2.163 z m 0,-69.164 c -0.778,0 -1.412,0.634 -1.412,1.412 v 65.589 c 0,0.779 0.634,1.413 1.412,1.413 0.778,0 1.412,-0.634 1.412,-1.413 V 329.72 c 0,-0.779 -0.634,-1.412 -1.412,-1.412 z"
   id="path193" />
						<path
   fill="#c2cbd7"
   d="m 296.805,397.472 c -1.192,0 -2.163,-0.971 -2.163,-2.163 V 329.72 c 0,-1.192 0.971,-2.162 2.163,-2.162 1.192,0 2.162,0.97 2.162,2.162 v 65.589 c 0,1.192 -0.97,2.163 -2.162,2.163 z m 0,-69.164 c -0.779,0 -1.413,0.634 -1.413,1.412 v 65.589 c 0,0.779 0.634,1.413 1.413,1.413 0.778,0 1.412,-0.634 1.412,-1.413 V 329.72 c 0,-0.779 -0.634,-1.412 -1.412,-1.412 z"
   id="path195" />
						<path
   fill="#c2cbd7"
   d="m 308.943,397.472 c -1.192,0 -2.162,-0.971 -2.162,-2.163 V 329.72 c 0,-1.192 0.97,-2.162 2.162,-2.162 1.192,0 2.162,0.97 2.162,2.162 v 65.589 c 0,1.192 -0.969,2.163 -2.162,2.163 z m 0,-69.164 c -0.778,0 -1.412,0.634 -1.412,1.412 v 65.589 c 0,0.779 0.634,1.413 1.412,1.413 0.778,0 1.412,-0.634 1.412,-1.413 V 329.72 c 0,-0.779 -0.633,-1.412 -1.412,-1.412 z"
   id="path197" />
						<path
   fill="#c2cbd7"
   d="m 321.083,397.472 c -1.192,0 -2.162,-0.971 -2.162,-2.163 V 329.72 c 0,-1.192 0.97,-2.162 2.162,-2.162 1.192,0 2.162,0.97 2.162,2.162 v 65.589 c 0,1.192 -0.97,2.163 -2.162,2.163 z m 0,-69.164 c -0.778,0 -1.412,0.634 -1.412,1.412 v 65.589 c 0,0.779 0.634,1.413 1.412,1.413 0.778,0 1.412,-0.634 1.412,-1.413 V 329.72 c 0,-0.779 -0.634,-1.412 -1.412,-1.412 z"
   id="path199" />
					</g>
					<rect
   x="335.57101"
   y="327.44699"
   fill="#c2cbd7"
   width="0.75"
   height="12.204"
   id="rect203" />
				</g>
				<g
   id="g309">
					<g
   id="g277">
						<rect
   x="151.961"
   y="63.139"
   fill="#ffffff"
   width="216.119"
   height="229.161"
   id="rect207" />
						<g
   id="g227">
							<g
   id="g217">
								<path
   fill="#dae5ef"
   d="m 287.398,121.885 c -1.004,-2.088 -3.12,-3.541 -5.592,-3.541 -1.445,0 -2.759,0.513 -3.815,1.34 -0.597,-4.894 -4.759,-8.687 -9.814,-8.687 -4.026,0 -7.483,2.408 -9.028,5.859 -1.479,-1.486 -3.527,-2.407 -5.789,-2.407 -1.21,0 -2.355,0.27 -3.388,0.742 -1.081,-6.271 -6.533,-11.046 -13.113,-11.046 -1.505,0 -2.947,0.261 -4.297,0.722 -2.873,-6.436 -9.317,-10.928 -16.82,-10.928 -7.315,0 -13.615,4.274 -16.59,10.451 -2.3,-1.55 -5.07,-2.455 -8.051,-2.455 -7.421,0 -13.527,5.605 -14.331,12.812 -0.688,-0.188 -1.41,-0.297 -2.158,-0.297 -4.264,0 -7.761,3.268 -8.132,7.436 h 120.918 z"
   id="path209" />
								<path
   fill="#ffffff"
   d="m 206.434,113.305 c -2.492,-5.749 -7.416,-8.56 -7.466,-8.588 l 0.366,-0.654 c 0.211,0.118 5.19,2.954 7.787,8.944 z"
   id="path211" />
								<path
   fill="#ffffff"
   d="m 227.833,107.97 -0.482,-0.573 c 0.089,-0.075 2.212,-1.849 5.085,-2.882 l 0.254,0.706 c -2.743,0.985 -4.836,2.732 -4.857,2.749 z"
   id="path213" />
								<path
   fill="#ffffff"
   d="m 247.506,117.563 -0.564,-0.494 c 0.051,-0.058 1.257,-1.424 2.865,-2.214 l 0.33,0.673 c -1.47,0.722 -2.619,2.022 -2.631,2.035 z"
   id="path215" />
							</g>
							<g
   id="g225">
								<path
   fill="#dae5ef"
   d="m 368.08,140.369 c -13.415,0.061 -24.924,8.109 -30.066,19.628 -2.425,-0.827 -5.015,-1.296 -7.719,-1.296 -11.822,0 -21.616,8.579 -23.559,19.846 -1.856,-0.848 -3.912,-1.333 -6.086,-1.333 -4.065,0 -7.744,1.654 -10.402,4.325 -2.777,-6.2 -8.988,-10.526 -16.221,-10.526 -9.082,0 -16.559,6.814 -17.632,15.607 -1.898,-1.486 -4.257,-2.407 -6.854,-2.407 -4.441,0 -8.243,2.61 -10.047,6.361 H 368.08 Z"
   id="path219" />
								<path
   fill="#ffffff"
   d="m 346.703,165.343 c -0.038,-0.032 -3.836,-3.202 -8.816,-4.993 l 0.254,-0.706 c 5.112,1.839 8.887,4.992 9.045,5.126 z"
   id="path221" />
								<path
   fill="#ffffff"
   d="m 311.391,182.611 c -0.021,-0.024 -2.122,-2.403 -4.82,-3.728 l 0.33,-0.673 c 2.837,1.393 4.966,3.805 5.055,3.907 z"
   id="path223" />
							</g>
						</g>
						<g
   id="g237">
							<path
   fill="#dae5ef"
   d="m 220.491,292.368 c -2.042,-5.569 -4.92,-10.735 -8.498,-15.332 -5.607,-7.704 -4.503,-15.113 -3.133,-18.638 1.953,-5.023 3.026,-10.485 3.026,-16.2 0,-10.783 -3.811,-20.673 -10.157,-28.403 -4.099,-5.556 -3.574,-13.115 -2.307,-16.46 1.439,-3.799 2.228,-7.918 2.228,-12.223 0,-19.097 -15.481,-34.577 -34.577,-34.577 -5.419,0 -10.545,1.249 -15.111,3.471 v 138.362 z"
   id="path229" />
							<rect
   x="162.342"
   y="165.295"
   fill="#bacbd8"
   width="1"
   height="127.073"
   id="rect231" />
							
								<rect
   x="159.59801"
   y="193.30901"
   transform="matrix(0.7427,-0.6696,0.6696,0.7427,-85.4696,165.1633)"
   fill="#bacbd8"
   width="25.212999"
   height="1.001"
   id="rect233" />
							
								<rect
   x="157.774"
   y="274.57501"
   transform="matrix(0.7423,-0.6701,0.6701,0.7423,-138.5859,189.8066)"
   fill="#bacbd8"
   width="39.391998"
   height="1"
   id="rect235" />
						</g>
						<path
   fill="#2c3451"
   d="M 375.522,300.168 H 144.52 V 55.271 H 375.523 V 300.168 Z M 145.27,299.418 H 374.773 V 56.021 H 145.27 Z"
   id="path239" />
						<g
   id="g245">
							<rect
   x="190.914"
   y="60.112"
   fill="#c2cbd7"
   width="0.75"
   height="236.147"
   id="rect241" />
							<rect
   x="328.24701"
   y="60.112"
   fill="#c2cbd7"
   width="0.75"
   height="236.147"
   id="rect243" />
						</g>
						<g
   id="g253">
							<path
   fill="#2c3451"
   d="m 395.526,49.541 c -1.876,0 -3.402,-1.526 -3.402,-3.403 0,-1.876 1.526,-3.402 3.402,-3.402 1.876,0 3.402,1.526 3.402,3.402 10e-4,1.877 -1.526,3.403 -3.402,3.403 z m 0,-6.055 c -1.463,0 -2.652,1.19 -2.652,2.652 0,1.463 1.189,2.653 2.652,2.653 1.463,0 2.652,-1.19 2.652,-2.653 10e-4,-1.462 -1.189,-2.652 -2.652,-2.652 z"
   id="path247" />
							<path
   fill="#2c3451"
   d="m 124.162,49.541 c -1.876,0 -3.402,-1.526 -3.402,-3.403 0,-1.876 1.526,-3.402 3.402,-3.402 1.876,0 3.402,1.526 3.402,3.402 0,1.877 -1.526,3.403 -3.402,3.403 z m 0,-6.055 c -1.463,0 -2.652,1.19 -2.652,2.652 0,1.463 1.189,2.653 2.652,2.653 1.463,0 2.652,-1.19 2.652,-2.653 0,-1.462 -1.189,-2.652 -2.652,-2.652 z"
   id="path249" />
							<rect
   x="127.189"
   y="45.763"
   fill="#2c3451"
   width="265.31"
   height="0.75"
   id="rect251" />
						</g>
						<g
   id="g275">
							<g
   id="g269">
								<rect
   x="140.647"
   y="46.138"
   fill="#2c3451"
   width="0.75"
   height="3.987"
   id="rect255" />
								<rect
   x="186.797"
   y="46.138"
   fill="#2c3451"
   width="0.75"
   height="3.987"
   id="rect257" />
								<rect
   x="209.871"
   y="46.138"
   fill="#2c3451"
   width="0.75"
   height="3.987"
   id="rect259" />
								<rect
   x="232.94501"
   y="46.138"
   fill="#2c3451"
   width="0.75"
   height="3.987"
   id="rect261" />
								<rect
   x="357.34201"
   y="46.138"
   fill="#2c3451"
   width="0.75"
   height="3.987"
   id="rect263" />
								<rect
   x="380.41599"
   y="46.138"
   fill="#2c3451"
   width="0.75"
   height="3.987"
   id="rect265" />
								<rect
   x="163.72301"
   y="46.138"
   fill="#2c3451"
   width="0.75"
   height="3.987"
   id="rect267" />
							</g>
							<rect
   x="354.04599"
   y="50.125"
   opacity="0.2"
   fill="#343a55"
   width="29.649"
   height="327.41101"
   id="rect271" />
							<rect
   x="137.916"
   y="50.125"
   opacity="0.2"
   fill="#343a55"
   width="98.511002"
   height="327.41101"
   id="rect273" />
						</g>
					</g>
					<g
   id="g307">
						<g
   id="g297">
							<path
   fill="#607e55"
   d="m 280.358,259.475 c 0,0 -6.255,-9.887 -18.556,-11.357 0,0 19.149,-8.256 28.723,11.383 z"
   id="path279" />
							<path
   fill="#607e55"
   d="m 302.7,259.475 c 0,0 6.511,-21.314 29.106,-28.974 0,0 -13.406,11.471 -15.896,28.974 z"
   id="path281" />
							<path
   fill="#607e55"
   d="m 286.139,259.47 c 0,0 -9.226,-22.177 2.006,-60.118 0,0 16.246,26.976 20.257,60.148 z"
   id="path283" />
							<path
   fill="#607e55"
   d="m 282.574,259.475 c 0.628,-7.899 -2.591,-15.944 -7.065,-24.038 9.464,6.369 16.744,14.15 20.766,24.038 z"
   id="path285" />
							<path
   fill="#607e55"
   d="m 299.211,259.475 c -0.095,-13.525 8.37,-35.23 15.95,-46.112 l -2.418,46.112 z"
   id="path287" />
							<path
   fill="#2c3451"
   d="m 290.189,258.37 c -3.019,-6.084 -8.903,-9.023 -8.963,-9.052 l 0.33,-0.674 c 0.25,0.123 6.17,3.073 9.305,9.392 z"
   id="path289" />
							<path
   fill="#2c3451"
   d="m 299.348,258.223 c -0.51,-9.799 4.038,-21.317 4.084,-21.432 l 0.697,0.278 c -0.046,0.114 -4.533,11.482 -4.033,21.115 z"
   id="path291" />
							<path
   fill="#2c3451"
   d="m 295.914,258.308 c -2.821,-9.751 -13.283,-16.954 -13.389,-17.026 l 0.422,-0.62 c 0.107,0.073 10.79,7.423 13.688,17.437 z"
   id="path293" />
							
								<rect
   x="305.108"
   y="249.713"
   transform="matrix(0.0522,-0.9986,0.9986,0.0522,47.1376,549.8407)"
   fill="#2c3451"
   width="16.254"
   height="0.74900001"
   id="rect295" />
						</g>
						<g
   id="g305">
							<path
   fill="#c49b68"
   d="m 279.625,259.218 v 24.516 c 0,4.711 3.854,8.565 8.565,8.565 h 19.318 c 4.711,0 8.566,-3.854 8.566,-8.565 v -24.516 z"
   id="path299" />
							<rect
   x="277.96899"
   y="258.203"
   fill="#c49b68"
   width="39.759998"
   height="9.0909996"
   id="rect301" />
							<rect
   x="279.625"
   y="266.91901"
   fill="#2c3451"
   width="36.449001"
   height="0.75"
   id="rect303" />
						</g>
					</g>
				</g>
			</g><rect
       x="20.187"
       y="425.38898"
       fill="#2c3451"
       width="809.625"
       height="0.75"
       id="rect383" /><g
       sodipodi:type="inkscape:box3d"
       id="g4333"
       style="fill:#4a4a4a;fill-opacity:1;stroke:#fef2f2;stroke-width:1.94646;stroke-linejoin:round;stroke-opacity:1"
       inkscape:perspectiveID="#perspective4331"
       inkscape:corner0="-0.30599677 : 0.0033632516 : 0 : 1"
       inkscape:corner7="-0.35992748 : -0.0052160079 : 0.28936434 : 1"><path
         sodipodi:type="inkscape:box3dside"
         id="path4345"
         style="fill:#4a4a4a;fill-opacity:1;fill-rule:evenodd;stroke:none;stroke-width:1.86158;stroke-linejoin:round"
         inkscape:box3dsidetype="11"
         points="145.04088,-69.051427 145.04088,-68.333796 144.71604,-68.388068 144.71604,-69.066343 "
         d="m 144.71604,-69.066343 0.32484,0.01492 v 0.717631 l -0.32484,-0.05427 z" /><path
         sodipodi:type="inkscape:box3dside"
         id="path4335"
         style="fill:#4a4a4a;fill-opacity:1;fill-rule:evenodd;stroke:none;stroke-width:1.89277;stroke-linejoin:round"
         inkscape:box3dsidetype="6"
         points="144.14237,-67.998085 144.71604,-68.388068 144.71604,-69.066343 144.14237,-68.959166 "
         d="m 144.14237,-68.959166 v 0.961081 l 0.57367,-0.389983 v -0.678275 z" /><path
         sodipodi:type="inkscape:box3dside"
         id="path4343"
         style="fill:#4a4a4a;fill-opacity:1;fill-rule:evenodd;stroke:none;stroke-width:1.92695;stroke-linejoin:round"
         inkscape:box3dsidetype="13"
         points="144.56572,-67.886418 145.04088,-68.333796 144.71604,-68.388068 144.14237,-67.998085 "
         d="m 144.14237,-67.998085 0.42335,0.111667 0.47516,-0.447378 -0.32484,-0.05427 z" /><path
         sodipodi:type="inkscape:box3dside"
         id="path4337"
         style="fill:#4a4a4a;fill-opacity:1;fill-rule:evenodd;stroke:none;stroke-width:2.00137;stroke-linejoin:round"
         inkscape:box3dsidetype="5"
         points="144.56572,-68.928477 145.04088,-69.051427 144.71604,-69.066343 144.14237,-68.959166 "
         d="m 144.14237,-68.959166 0.42335,0.03069 0.47516,-0.12295 -0.32484,-0.01492 z" /><path
         sodipodi:type="inkscape:box3dside"
         id="path4341"
         style="fill:#4a4a4a;fill-opacity:1;fill-rule:evenodd;stroke:none;stroke-width:1.92695;stroke-linejoin:round"
         inkscape:box3dsidetype="14"
         points="144.56572,-67.886418 145.04088,-68.333796 145.04088,-69.051427 144.56572,-68.928477 "
         d="m 144.56572,-68.928477 v 1.042059 l 0.47516,-0.447378 v -0.717631 z" /><path
         sodipodi:type="inkscape:box3dside"
         id="path4339"
         style="fill:#333333;fill-opacity:1;fill-rule:evenodd;stroke:none;stroke-width:1.92695;stroke-linejoin:round"
         inkscape:box3dsidetype="3"
         points="144.56572,-68.928477 144.56572,-67.886418 144.14237,-67.998085 144.14237,-68.959166 "
         d="m 144.14237,-68.959166 0.42335,0.03069 v 1.042059 l -0.42335,-0.111667 z" /></g><g
       id="g31836"
       transform="matrix(0.36854311,0,0,0.39176912,312.13458,-11.546989)"><path
         d="m -324.11467,281.07952 v 17.92928 h 3.88605 v 2.37382 h -70.80296 c -3.05398,0 -5.98213,-1.05008 -8.14122,-2.9198 -2.15908,-1.86972 -3.37166,-4.4055 -3.37166,-7.05021 v -2.79271 c 0,-2.64471 1.21258,-5.18052 3.37166,-7.05023 2.15909,-1.86974 5.08724,-2.9198 8.14122,-2.9198 h 70.80296 v 2.37381 z"
         fill="#2c367c"
         id="path11-3"
         style="stroke-width:1.50054" /><path
         d="m -324.11467,281.07952 v 17.92928 h -64.49819 c -3.13141,0.0434 -6.16279,-0.95513 -8.46543,-2.79272 -0.53816,-0.44541 -1.00931,-0.94673 -1.40276,-1.49411 -0.79633,-1.07519 -1.22066,-2.32491 -1.22552,-3.60262 v -2.17831 c 0.005,-1.27768 0.42889,-2.52741 1.22552,-3.60262 0.39304,-0.54728 0.86419,-1.04865 1.40276,-1.49408 2.30264,-1.83762 5.33402,-2.83741 8.46543,-2.79273 z"
         fill="#ffffff"
         id="path13"
         style="stroke-width:1.50054" /><g
         fill="#859dc5"
         opacity="0.5"
         id="g21"
         transform="matrix(-1.6124554,0,0,1.3963597,48.08844,-174.35721)"><path
           d="m 230.83,328.15 v 1.07 h 46.09 c -0.244,-0.392 -0.536,-0.751 -0.87,-1.07 z"
           opacity="0.5"
           id="path15-8" /><path
           d="m 277.69,332.05 h -46.86 v 1.07 h 46.86 z"
           opacity="0.5"
           id="path17-4" /><path
           d="M 230.83,335.95 V 337 H 276 c 0.334,-0.319 0.626,-0.678 0.87,-1.07 z"
           opacity="0.5"
           id="path19" /></g><path
         d="m -401.39966,265.00744 h 8.35255 v 13.71222 h -8.35255 z"
         fill="#2c367c"
         id="path25-6"
         style="stroke-width:1.50054" /><path
         d="m -389.49968,265.00744 h 2.49926 v 13.71222 h -2.49926 z"
         fill="#2c367c"
         id="path27-2"
         style="stroke-width:1.50054" /><path
         d="m -469.50977,301.17316 v 4.88725 c 0,0.76384 0.34986,1.49551 0.97234,2.03451 0.62361,0.53893 1.46887,0.84203 2.34937,0.84203 h 439.70044 c 0.8807,0 1.72587,-0.30293 2.34876,-0.84203 0.62267,-0.53891 0.97295,-1.2707 0.97295,-2.03451 v -4.88725 c 0,-0.76236 -0.34985,-1.4941 -0.97295,-2.0331 -0.62268,-0.5404 -1.46783,-0.84348 -2.34876,-0.84348 h -439.79725 c -0.8807,0 -1.7253,0.30301 -2.34928,0.84348 -0.62268,0.539 -0.97231,1.2707 -0.97231,2.0331 z"
         fill="#ff6b6b"
         id="path89-5"
         style="fill:#28170b;stroke-width:1.50054" /><path
         d="m -469.50977,301.17316 v 1.04726 h 446.35994 v -1.04726 c 0.005,-0.63251 -0.23059,-1.24836 -0.67041,-1.75382 -0.43982,-0.50555 -1.06022,-0.8699 -1.76416,-1.0389 h -441.50636 c -0.70174,0.17167 -1.31736,0.5376 -1.75435,1.04307 -0.43718,0.50414 -0.67039,1.11848 -0.664,1.74965 z"
         fill="#ffffff"
         id="path91"
         style="stroke-width:1.50054" /><path
         d="m -456.51338,308.93693 2.69288,5.18047 h 417.12607 l 2.69279,-5.18047 z"
         fill="#533a71"
         id="path93"
         style="fill:#1a1a1a;stroke-width:1.50054" /><path
         d="m -64.78344,311.19902 21.26828,162.1872 c 0.10661,0.81412 0.55567,1.56533 1.25987,2.11129 0.70439,0.54451 1.61631,0.84759 2.56172,0.849 h 1.61244 c 0.52999,0 1.05433,-0.0964 1.53991,-0.27938 0.48583,-0.18448 0.92226,-0.45386 1.28235,-0.79034 0.35993,-0.33664 0.63653,-0.73439 0.81093,-1.16734 0.17437,-0.43426 0.24423,-0.89365 0.20486,-1.35169 L -48.65842,311.19895 Z"
         fill="#533a71"
         id="path95"
         style="fill:#502d16;stroke-width:1.50054" /><path
         d="m -150.45313,298.29664 20.47811,-97.50779 c 0.13665,-0.64653 0.10842,-1.31119 -0.0829,-1.94794 -0.1938,-0.63529 -0.54458,-1.22739 -1.03192,-1.73288 -0.48497,-0.50405 -1.09483,-0.91042 -1.7818,-1.18969 -0.68875,-0.27782 -1.43831,-0.42169 -2.19774,-0.42169 H -274.0149 c -1.18834,0 -2.33799,0.35467 -3.26037,1.00259 -0.92235,0.64934 -1.55927,1.55136 -1.80271,2.55812 l -24.34802,99.23928 z"
         fill="#533a71"
         id="path99"
         style="fill:#333333;stroke-width:1.50054" /><path
         d="m -157.11259,297.40297 20.1234,-95.80423 c 0.13236,-0.63529 0.10187,-1.28883 -0.0919,-1.91301 -0.19199,-0.62416 -0.53825,-1.20365 -1.0174,-1.69939 -0.47754,-0.49568 -1.07556,-0.89365 -1.75112,-1.16735 -0.67586,-0.27372 -1.41252,-0.41463 -2.15743,-0.41463 h -136.52685 c -1.16582,0 -2.29776,0.34623 -3.20394,0.98163 -0.9083,0.63529 -1.53512,1.52203 -1.77859,2.50926 l -23.91303,97.50779 z"
         fill="#ffffff"
         id="path101"
         style="stroke-width:1.50054" /><path
         d="m -308.69957,298.29664 h 152.44155 l 0.16172,-0.74003 20.12343,-95.80425 c 0.1615,-0.76517 0.12581,-1.55138 -0.103,-2.30261 -0.22861,-0.75121 -0.6465,-1.4508 -1.22218,-2.04705 -0.57403,-0.59766 -1.29477,-1.0766 -2.10746,-1.40614 -0.8128,-0.3295 -1.69951,-0.49987 -2.59765,-0.49987 H -278.5299 c -1.4012,0.004 -2.7589,0.4203 -3.84885,1.18271 -1.09007,0.76104 -1.84959,1.82225 -2.14945,3.00637 z m 150.7323,-1.78733 h -148.16848 l 23.67085,-96.4326 c 0.1947,-0.78754 0.69338,-1.49272 1.41573,-2.00098 0.72103,-0.50824 1.62052,-0.78754 2.55087,-0.79173 h 136.49442 c 0.59964,-0.001 1.19319,0.11329 1.73662,0.33377 0.54372,0.22066 1.02228,0.54328 1.40443,0.94394 0.38211,0.3994 0.65768,0.86851 0.8063,1.37263 0.14863,0.50273 0.16624,1.02911 0.0556,1.53879 z"
         fill="#533a71"
         id="path103"
         style="fill:#000000;stroke-width:1.50054" /><path
         d="m -375.5036,290.4491 h 216.58506 c 3.2249,0 5.75647,1.75944 5.75647,3.92378 0,2.16436 -2.57999,3.92376 -5.75647,3.92376 H -375.5036 c -3.22491,0 -5.75649,-1.7594 -5.75649,-3.92376 0,-2.17831 2.57999,-3.92378 5.75649,-3.92378 z"
         fill="#533a71"
         id="path105"
         style="fill:#333333;stroke-width:1.50054" /><path
         d="m -207.03428,210.74491 -17.01139,67.84912 c -0.12581,0.50125 -0.44545,0.95089 -0.90462,1.27347 -0.46108,0.32261 -1.03513,0.49856 -1.62694,0.49988 h -63.305 c -0.39494,10e-4 -0.78703,-0.0755 -1.14323,-0.22337 -0.35446,-0.14931 -0.66759,-0.36723 -0.91108,-0.63679 -0.24517,-0.26944 -0.41421,-0.5837 -0.49683,-0.91877 -0.0829,-0.33516 -0.0734,-0.68133 0.0181,-1.01375 l 17.73662,-67.84912 c 0.13033,-0.4957 0.45272,-0.93837 0.91291,-1.25535 0.46108,-0.31834 1.03037,-0.49001 1.61897,-0.49001 h 62.57936 c 0.39209,0 0.77874,0.0755 1.13194,0.22343 0.3536,0.1465 0.664,0.36158 0.9074,0.62842 0.24346,0.26527 0.4142,0.57665 0.49956,0.90755 0.0829,0.33091 0.0829,0.67445 -0.009,1.0054 z"
         fill="#b6d4ff"
         id="path107"
         style="fill:#ac9d93;stroke-width:1.50054" /><path
         d="m -196.40811,230.58718 h 41.74638 c 0.5951,-10e-4 1.17069,-0.18013 1.63184,-0.50555 0.4592,-0.32539 0.77684,-0.77786 0.90003,-1.28185 l 4.36979,-18.08285 c 0.0829,-0.32672 0.0734,-0.66468 -0.0181,-0.98864 -0.0919,-0.32391 -0.26276,-0.627 -0.50427,-0.88665 -0.24349,-0.25823 -0.54817,-0.46773 -0.89637,-0.61298 -0.34719,-0.1439 -0.72743,-0.21927 -1.11263,-0.22066 h -41.66585 c -0.59332,-0.001 -1.16896,0.17449 -1.63017,0.49715 -0.4611,0.32247 -0.77883,0.77346 -0.90096,1.27629 l -4.45033,18.08283 c -0.0829,0.32811 -0.0734,0.66755 0.0113,0.99283 0.0917,0.32672 0.26082,0.63128 0.50514,0.8923 0.24151,0.26109 0.54815,0.472 0.89819,0.61569 0.34805,0.1452 0.73006,0.2219 1.11744,0.2219 z"
         fill="#5ecccd"
         id="path109"
         style="fill:#ffe680;stroke-width:1.50054" /><path
         d="m -200.2297,246.14263 h 41.79487 c 0.59511,-0.001 1.17061,-0.18014 1.63017,-0.50553 0.4611,-0.32533 0.77874,-0.77778 0.90096,-1.28185 l 0.91915,-3.78414 c 0.0829,-0.32679 0.0734,-0.66327 -0.0181,-0.98862 -0.0917,-0.32392 -0.26276,-0.62702 -0.50429,-0.88668 -0.24346,-0.25829 -0.54814,-0.46779 -0.89635,-0.61298 -0.34617,-0.14389 -0.72745,-0.21918 -1.11265,-0.22066 h -41.7948 c -0.59152,0.001 -1.16582,0.17732 -1.62696,0.49987 -0.4592,0.32255 -0.77872,0.7723 -0.90463,1.27351 l -0.93531,3.78412 c -0.0829,0.32959 -0.0734,0.66885 0.009,0.99702 0.0917,0.32678 0.26278,0.63251 0.50788,0.89362 0.24347,0.26109 0.55275,0.472 0.90462,0.6157 0.34983,0.14389 0.73375,0.21779 1.12229,0.21638 z"
         fill="#ffd7e2"
         id="path111"
         style="fill:#ff8080;stroke-width:1.50054" /><path
         d="m -208.6628,280.35343 h 41.92382 c 0.59511,-10e-4 1.17061,-0.18014 1.63184,-0.50555 0.4592,-0.32531 0.77685,-0.77778 0.90004,-1.28185 l 5.48234,-22.7048 c 0.0829,-0.32672 0.0734,-0.66466 -0.0181,-0.98862 -0.0917,-0.32394 -0.26276,-0.62693 -0.50512,-0.88665 -0.24349,-0.25831 -0.54824,-0.4679 -0.89638,-0.61292 -0.34721,-0.14389 -0.72744,-0.21909 -1.11265,-0.22065 h -41.92402 c -0.59152,0.001 -1.16573,0.17731 -1.62696,0.49988 -0.4592,0.3226 -0.77872,0.77237 -0.90462,1.27349 l -5.59521,22.70478 c -0.0829,0.33657 -0.0829,0.68419 0.0181,1.01796 0.0955,0.33238 0.27735,0.64367 0.53175,0.90625 0.25611,0.26265 0.57762,0.472 0.94008,0.61012 0.36273,0.13803 0.75764,0.20227 1.15453,0.18838 z"
         fill="#ffd7e2"
         id="path113"
         style="fill:#918a6f;stroke-width:1.50054" /><path
         d="m -176.97811,311.19902 -21.25214,162.20115 c -0.10661,0.81404 -0.55472,1.56533 -1.25931,2.11132 -0.70447,0.54448 -1.61732,0.84759 -2.56216,0.849 h -1.61247 c -0.53082,0 -1.0546,-0.0948 -1.53989,-0.27939 -0.48497,-0.18447 -0.92235,-0.45385 -1.28191,-0.79033 -0.36104,-0.33655 -0.63642,-0.73448 -0.81093,-1.16735 -0.17551,-0.43434 -0.24517,-0.89364 -0.20487,-1.35168 l 14.4153,-161.55883 z"
         fill="#533a71"
         id="path115"
         style="fill:#502d16;stroke-width:1.50054" /><path
         d="m -315.47191,311.19902 21.25222,162.1872 c 0.10661,0.81412 0.55475,1.56533 1.25931,2.11129 0.70439,0.54451 1.61732,0.84759 2.56217,0.849 h 1.61246 c 0.53073,0 1.0546,-0.0964 1.53989,-0.27938 0.48499,-0.18448 0.92237,-0.45386 1.28192,-0.79034 0.36103,-0.33664 0.63737,-0.73439 0.81093,-1.16734 0.17527,-0.43426 0.24518,-0.89365 0.20486,-1.35169 l -14.41518,-161.55881 z"
         fill="#3d2c56"
         id="path117"
         style="fill:#502d16;stroke-width:1.50054" /><path
         d="m -128.07229,279.30617 h 67.73926 l 15.38276,-39.30753 h -67.73924 z"
         fill="#ff6b6b"
         id="path121"
         style="fill:#241c1c;stroke-width:1.50054" /><path
         d="m -108.31973,263.12235 h -49.98615 c -3.99883,0 -7.83327,1.37541 -10.65987,3.82462 -2.82822,2.44783 -4.41651,5.76837 -4.41651,9.23135 v 17.55224 c 0,0.6143 0.14072,1.2232 0.41147,1.79013 0.27089,0.56697 0.66956,1.08357 1.17061,1.51785 0.50146,0.43434 1.09813,0.77909 1.75277,1.01375 0.65479,0.23458 1.35768,0.35616 2.06715,0.35616 h 59.66085 c 0.70908,0 1.41168,-0.12132 2.06717,-0.35616 0.6557,-0.23461 1.25074,-0.57945 1.75239,-1.01375 0.50146,-0.43433 0.89913,-0.95092 1.17097,-1.51785 0.27089,-0.56688 0.41149,-1.17574 0.41149,-1.79013 v -25.93042 c 0,-1.23994 -0.56942,-2.43104 -1.58215,-3.30798 -1.0132,-0.87695 -2.38696,-1.36981 -3.81969,-1.36981 z"
         fill="#fcbed2"
         id="path123"
         style="fill:#c8b7b7;stroke-width:1.50054" /><path
         d="m -88.85739,263.12235 h -56.95191 c -3.99892,0 -7.83327,1.37541 -10.65996,3.82462 -2.82822,2.44783 -4.41652,5.76837 -4.41652,9.23135 v 17.55224 c 0,0.6143 0.14072,1.2232 0.41148,1.79013 0.27089,0.56697 0.66955,1.08357 1.1707,1.51785 0.50146,0.43434 1.09805,0.77909 1.7527,1.01375 0.65479,0.23458 1.35768,0.35616 2.06715,0.35616 h 66.62668 c 0.70917,0 1.41168,-0.12132 2.06717,-0.35616 0.65478,-0.23461 1.25077,-0.57945 1.75241,-1.01375 0.50144,-0.43433 0.89911,-0.95092 1.17095,-1.51785 0.27089,-0.56688 0.41149,-1.17574 0.41149,-1.79013 v -25.93042 c 0,-1.23994 -0.56951,-2.43104 -1.58215,-3.30798 -1.01317,-0.87695 -2.38696,-1.36981 -3.81967,-1.36981 z"
         fill="#533a71"
         id="path125"
         style="fill:#241c1c;stroke-width:1.50054" /><path
         d="m -43.33774,263.12235 h -49.98615 c -3.98175,0.0174 -7.79349,1.40055 -10.60281,3.84418 -2.80959,2.44363 -4.3888,5.7502 -4.39303,9.19782 v 17.55223 c 0,1.24137 0.56848,2.43107 1.58215,3.30798 1.01291,0.87689 2.38694,1.36983 3.81956,1.36983 h 59.66094 c 1.43262,0 2.80647,-0.49283 3.81956,-1.36983 1.0129,-0.87687 1.58213,-2.06661 1.58213,-3.30798 v -25.91644 c 0,-1.23994 -0.56941,-2.43104 -1.58213,-3.30798 -1.01309,-0.87695 -2.38694,-1.36981 -3.81956,-1.36981 z"
         fill="#fcbed2"
         id="path127"
         style="fill:#c8b7b7;stroke-width:1.50054" /><path
         d="m -41.70922,263.12235 h -39.10201 c -3.99856,0 -7.83327,1.37541 -10.66077,3.82462 -2.82723,2.44783 -4.41568,5.76837 -4.41568,9.23135 v 17.55224 c 0,0.6143 0.13959,1.2232 0.41147,1.79013 0.27087,0.56697 0.66956,1.08357 1.17097,1.51785 0.50146,0.43434 1.09693,0.77909 1.75241,1.01375 0.65479,0.23458 1.35768,0.35616 2.06715,0.35616 h 48.77678 c 0.70908,0 1.4118,-0.12132 2.06717,-0.35616 0.65478,-0.23461 1.25077,-0.57945 1.7525,-1.01375 0.50139,-0.43433 0.89911,-0.95092 1.17088,-1.51785 0.27089,-0.56688 0.41147,-1.17574 0.41147,-1.79013 v -25.93042 c 0,-1.23994 -0.5694,-2.43104 -1.58203,-3.30798 -1.0132,-0.87695 -2.38723,-1.36981 -3.81967,-1.36981 z"
         fill="#ff6b6b"
         id="path129"
         style="fill:#483737;stroke-width:1.50054" /><path
         d="m -116.64003,263.12235 h 55.53296 l 8.8202,-21.11296 h -55.5169 z"
         fill="#fff8fa"
         id="path131"
         style="stroke-width:1.50054" /><path
         d="m -155.00036,286.53929 h 41.82712 c 1.01523,0 1.8382,0.71217 1.8382,1.59186 v 3.18373 c 0,0.8796 -0.82288,1.59183 -1.8382,1.59183 h -41.82712 c -1.01584,0 -1.83818,-0.71199 -1.83818,-1.59183 v -3.18373 c 0,-0.87969 0.82195,-1.59186 1.83818,-1.59186 z"
         fill="#3d2c56"
         id="path133"
         style="fill:#483737;stroke-width:1.50054" /><path
         d="m -183.20216,298.39439 h 45.40681 l 26.46031,-7.80565 h -45.40669 z"
         fill="#ffffff"
         id="path135"
         style="stroke-width:1.50054" /><path
         d="m -273.48352,454.29797 c 3.41353,0.14801 6.81586,0.45945 10.19074,0.93555 0,0 18.65606,9.20203 25.79925,10.89159 7.14318,1.68963 19.51074,3.57469 22.12287,7.69395 2.61224,4.11926 0,5.22241 0,5.22241 0,0 -68.96467,1.27069 -69.60965,0 -0.64489,-1.2707 2.28967,-19.89814 2.28967,-19.89814 z"
         fill="#3d2c56"
         id="path161"
         style="fill:#000000;stroke-width:1.50054" /><path
         d="m -266.06628,442.83388 2.33808,12.56721 c 0,0 -7.22373,6.08814 -11.01309,6.8701 -2.25256,0.4692 -4.60029,0.4692 -6.85287,0 l -7.5786,-21.72735 z"
         fill="#fb919f"
         id="path163"
         style="fill:#a05a2c;fill-opacity:1;stroke-width:1.50054" /><path
         d="m -372.26255,453.23673 7.82042,1.91302 c 5.46619,3.40154 11.23562,6.42187 17.2533,9.03446 7.82033,3.12784 19.86541,5.38993 21.26819,8.68534 1.40288,3.29544 2.61225,5.20843 0,5.90662 -2.61213,0.69814 -58.19349,0 -58.19349,0 0,0 -3.01522,0 -3.80532,-1.91302 -0.78984,-1.91301 2.95073,-15.35994 2.95073,-15.35994 z"
         fill="#3d2c56"
         id="path165"
         style="fill:#000000;stroke-width:1.50054" /><path
         d="m -359.55637,443.50411 -4.83736,11.64564 c 0,0 -7.41733,6.42328 -12.23858,6.42328 h -8.288 l 4.09564,-21.01524 z"
         fill="#c66f7e"
         id="path167-3"
         style="fill:#a05a2c;stroke-width:1.50054" /><path
         d="m -324.77573,364.44224 -27.83098,82.94376 -32.36201,-1.61978 13.64139,-77.38626 z"
         fill="#0078fa"
         id="path169"
         style="fill:#24221c;stroke-width:1.50054" /><path
         d="m -458.81913,351.69344 c 0,0 1.06415,19.00447 23.00969,21.78322 21.94552,2.77877 117.45125,-4.39852 117.45125,-4.39852 0,0 1.87041,16.21173 7.49797,29.19788 5.62744,12.98617 18.46256,47.47624 18.46256,47.47624 h 32.10404 c 0,0 -11.28723,-98.47129 -19.80097,-105.42519 -8.51383,-6.95387 -30.76563,-9.20201 -30.76563,-9.20201 l -35.71593,-4.39851 -35.71586,3.47692 z"
         fill="#1c8ff7"
         id="path171"
         style="fill:#24221c;stroke-width:1.50054" /><path
         d="m -382.29201,332.92637 c 4.83413,2.66985 10.39544,4.19188 16.12457,4.4125 9.09425,0.22336 15.25383,-2.09454 25.94437,-4.4125 10.69061,-2.31795 19.26881,-3.23954 24.34806,-2.55533 l 5.07925,0.69805 -55.5168,-12.73478 -16.12458,7.17728 z"
         fill="#0078fa"
         id="path173-5"
         style="fill:#24221c;stroke-width:1.50054" /><path
         d="m -394.22425,221.02211 c 0,0 11.93224,5.0967 13.5447,23.62641 1.61244,18.52968 -1.33832,41.89077 3.22488,53.74587 2.71059,7.05163 6.50785,13.75416 11.28723,19.92607 0,0 -9.15883,9.77451 -16.12457,14.59196 -6.96585,4.81743 -20.67169,4.39853 -20.67169,4.39853 0,0 -18.91417,-25.94436 -19.44619,-26.87994 -0.53175,-0.93553 -12.30307,-37.70171 -12.30307,-37.70171 0,0 -0.27455,-36.83596 0.2736,-37.99495 0.54817,-1.15898 17.54353,-11.81321 19.60746,-12.05059 2.06392,-0.23739 20.60723,-1.66165 20.60723,-1.66165 z"
         fill="#e28100"
         id="path175-4"
         style="fill:#178066;fill-opacity:1;stroke-width:1.50054" /><path
         d="m -454.65901,205.45268 -7.49787,0.9216 c 0,0 -19.80106,7.17729 -24.47713,17.37071 -4.67615,10.19342 -0.53175,35.32792 6.15958,52.25179 6.69169,16.92391 9.90042,62.09614 14.51211,71.82876 4.6116,9.73262 14.1735,14.36853 21.94554,14.82933 7.77202,0.46084 37.73137,-10.43079 47.08362,-18.52968 4.49715,-4.11088 9.42486,-7.85034 14.72178,-11.17088 -7.31898,-3.71711 -12.90454,-9.53713 -15.78596,-16.44911 -4.83732,-11.5898 1.33832,-17.37074 0.80623,-28.26232 -0.53177,-10.89161 -10.43264,-23.62642 -10.43264,-23.62642 0,0 -10.75501,-43.09167 13.48021,-43.55247 l -17.49521,-8.92273 z"
         fill="#ffb942"
         id="path177"
         style="fill:#178066;fill-opacity:1;stroke-width:1.50054" /><path
         d="m -452.96593,169.58021 c 0.0965,-1.52203 0.16172,-2.93236 0.25808,-4.4544 2.03001,5.41904 16.50214,3.92643 27.16978,-2.72288 10.20575,-17.32768 6.28369,-9.9216 7.8468,-31.00451 2.75732,3.36523 12.19579,27.47171 12.19579,27.47171 7.19269,-3.65627 -1.00498,0.60677 -3.88543,2.34588 l 1.01587,8.86689 -2.27353,5.58543 -3.11201,3.42109 -6.59499,0.20944 c 0,0 -4.67609,9.85831 -5.03087,10.26324 -1.31735,1.27208 -2.80563,2.40175 -4.43424,3.36523 l -8.98139,0.78199 -11.85148,-0.78199 -1.01586,-2.54138 c 0,0 -14.20576,-11.03125 -14.93138,-23.37508 1.9608,1.18831 4.17626,2.02752 6.51436,2.46879 2.47884,0.31085 5.00794,0.42065 7.1105,0.10049 z"
         fill="#3d2c56"
         id="path179-2"
         style="fill:#454837;fill-opacity:1;stroke-width:1.50054"
         sodipodi:nodetypes="ccccccccccccccccccc" /><path
         d="m -411.79998,201.98972 -1.01584,2.66705 c -3.12489,-0.53333 -6.28697,-0.88809 -9.46512,-1.06124 -1.37053,0.20944 -2.0317,4.4544 -2.0317,4.4544 0,0 -18.62383,-5.75302 -23.23544,-6.07418 -4.61167,-0.32123 -5.80486,-0.46074 -5.80486,-0.46074 l 1.61244,-11.10106 c 0,0 8.86851,3.11388 15.86658,0.82387 6.9981,-2.29002 11.07755,-9.48129 11.07755,-9.48129 z"
         fill="#c66f7e"
         id="path183-0"
         style="fill:#a05a2c;stroke-width:1.50054" /><path
         d="m -405.01146,161.22998 c 0,0 1.49957,8.76914 0.7742,10.98934 -0.72546,2.22023 -2.33808,5.08275 -2.45095,6.43722 -0.11293,1.35448 1.9833,5.75302 1.74139,8.92275 -0.24152,3.16973 -3.88596,15.8766 -6.5949,17.00766 -2.70894,1.13105 -9.33607,-5.34807 -11.56128,-9.02048 -2.22519,-3.67244 -1.43509,-11.67357 -2.33808,-13.06993 -0.90279,-1.39635 -5.33722,-5.96245 -3.41838,-9.07634 1.91881,-3.11389 5.62744,-3.57469 7.30446,-1.96888 1.67692,1.60583 2.09614,6.89803 3.83767,7.16333 1.74136,0.26528 3.7086,-1.60581 4.07944,-4.18908 0.37102,-2.58327 3.41841,-3.89583 3.83765,-6.26964 0.41884,-2.37382 -0.35444,-6.01832 0.41884,-6.89804 1.17546,-0.93275 2.48151,-1.73426 3.88594,-2.38776 z"
         fill="#fb919f"
         id="path185-1"
         style="fill:#a05a2c;fill-opacity:1;stroke-width:1.50054" /><path
         d="m -413.89615,212.11333 c -3.41518,-2.91561 -7.28508,-5.40113 -11.4968,-7.38674 -6.70779,-3.08596 -25.63809,-6.61876 -27.97607,-5.58546 -2.33808,1.03331 -5.692,7.77775 -5.692,7.77775 z"
         fill="#ffffff"
         id="path187-9"
         style="fill:#ff6600;stroke-width:1.50054" /><path
         d="m -495.84113,380.34678 h 45.0036 c 2.47832,-0.004 4.85516,-0.8574 6.60787,-2.37661 1.75277,-1.51785 2.73961,-3.57469 2.74437,-5.7223 V 328.1927 c -0.005,-2.14619 -0.9916,-4.20442 -2.74437,-5.72227 -1.75271,-1.51785 -4.12955,-2.37242 -6.60787,-2.37659 h -37.7798 c -1.67058,0.002 -3.31039,0.39241 -4.74706,1.12825 -1.43831,0.73726 -2.62186,1.79432 -3.42812,3.06083 l -18.07563,28.03888 c -1.85273,2.87234 -2.80729,6.11328 -2.76699,9.40309 0.0418,3.28983 1.07389,6.51263 2.99756,9.35004 1.92367,2.83739 4.66965,5.18888 7.96719,6.82262 3.29747,1.63374 7.03025,2.49251 10.82925,2.49109 z m 45.0036,-53.60627 c 0.4271,0 0.83858,0.14649 1.14003,0.40899 0.30296,0.26256 0.47209,0.61723 0.47209,0.98721 v 44.04117 c 0,0.37004 -0.16895,0.72612 -0.47209,0.98723 -0.30118,0.26259 -0.71268,0.40899 -1.14003,0.40899 h -45.0036 c -2.45573,-10e-4 -4.86801,-0.55844 -6.99964,-1.61544 -2.1301,-1.05844 -3.90546,-2.57767 -5.15029,-4.41249 -1.24481,-1.83341 -1.91396,-3.91541 -1.94463,-6.04207 -0.0273,-2.12663 0.58214,-4.22397 1.77536,-6.08254 l 18.07569,-27.92718 c 0.14049,-0.22901 0.35274,-0.4203 0.61252,-0.55015 0.25806,-0.13108 0.55472,-0.19706 0.85509,-0.1899 z"
         fill="#3d2c56"
         id="path189-9"
         style="fill:#808080;stroke-width:1.50054" /><path
         d="m -491.9874,380.34678 h 45.052 c 2.47842,-0.004 4.85517,-0.8574 6.60785,-2.37661 1.75277,-1.51785 2.73961,-3.57469 2.74438,-5.7223 V 328.1927 c -0.005,-2.14619 -0.99161,-4.20442 -2.74438,-5.72227 -1.75268,-1.51785 -4.12943,-2.37242 -6.60785,-2.37659 h -37.77979 c -1.67049,0.002 -3.3104,0.39241 -4.74706,1.12825 -1.43831,0.73726 -2.62184,1.79432 -3.42814,3.06083 l -18.07566,28.03888 c -1.85266,2.87234 -2.80724,6.11328 -2.76695,9.40309 0.0418,3.28983 1.07392,6.51263 2.99756,9.35004 1.92369,2.83739 4.66965,5.18888 7.96722,6.82262 3.29745,1.63374 7.03029,2.49251 10.8292,2.49109 z m 45.052,-53.60627 c 0.42711,0 0.83858,0.14649 1.14003,0.40899 0.30296,0.26256 0.47201,0.61723 0.47201,0.98721 v 44.04117 c 0,0.37004 -0.16896,0.72612 -0.47201,0.98723 -0.3012,0.26259 -0.71267,0.40899 -1.14003,0.40899 h -45.00362 c -2.45573,-10e-4 -4.86801,-0.55844 -6.99962,-1.61544 -2.13007,-1.05844 -3.90701,-2.57767 -5.15024,-4.41249 -1.24485,-1.83341 -1.914,-3.91541 -1.94458,-6.04207 -0.0273,-2.12663 0.58214,-4.22397 1.77527,-6.08254 l 18.01119,-27.92718 c 0.14072,-0.22901 0.35275,-0.4203 0.61253,-0.55015 0.25808,-0.13108 0.55472,-0.19706 0.85508,-0.1899 z"
         fill="#533a71"
         id="path191-2"
         style="fill:#999999;stroke-width:1.50054" /><path
         d="m -420.0235,369.53894 h 30.84627 c 2.03494,0 3.98765,0.69954 5.42752,1.94653 1.43832,1.24695 2.2478,2.93653 2.2478,4.70014 0,1.7622 -0.80914,3.45319 -2.2478,4.70014 -1.43987,1.24556 -3.39258,1.94655 -5.42752,1.94655 H -499.8723 c -2.3784,0 -4.72615,-0.45943 -6.8723,-1.34331 -2.14778,-0.88527 -4.03922,-2.17554 -5.53716,-3.77438 -1.4996,-1.59884 -2.56705,-3.46574 -3.12656,-5.46815 -0.5579,-2.00097 -0.59504,-4.08575 -0.1048,-6.10066 l 0.7417,-1.60583 h 95.77992 c -0.38672,1.70356 -0.74202,3.37919 -1.03202,4.99897 z"
         fill="#ff6b6b"
         id="path193-1"
         style="fill:#000000;stroke-width:1.50054" /><path
         d="m -505.66107,341.22076 -21.99385,-80.54204 h 95.60249 c 6.17573,22.77462 20.81679,76.79978 20.81679,78.12634 -0.31132,1.41729 -0.72555,2.81645 -1.24158,4.18908 h -92.82905 c -0.0273,-0.6033 -0.1432,-1.19949 -0.35446,-1.77338 z"
         fill="#ff6b6b"
         id="path195-0"
         style="fill:#313131;fill-opacity:1;stroke-width:1.50054" /><path
         d="m -418.9754,364.55393 h -95.77987 l 9.30388,-19.99587 c 0.1222,-0.52784 0.17257,-1.06684 0.14524,-1.60581 h 92.81292 c -1.64469,4.92913 -4.57937,13.46091 -6.48203,21.60168 z"
         fill="#fcbed2"
         id="path197-1"
         style="fill:#212121;fill-opacity:1;stroke-width:1.50054" /><path
         d="m -528.09029,259.031 c -0.30963,-0.83637 -0.42419,-1.7189 -0.33703,-2.59442 0.0856,-0.87555 0.37247,-1.72728 0.84165,-2.50647 0.46918,-0.77916 1.11258,-1.47036 1.89139,-2.03309 0.78046,-0.5627 1.68181,-0.98582 2.65089,-1.24415 1.48507,-0.40348 3.07818,-0.40348 4.56324,0 h 83.71874 l 2.70892,9.96999 h -95.58637 z"
         fill="#fcbed2"
         id="path199-4"
         style="fill:#000000;stroke-width:1.50054" /><path
         d="m -411.57422,382.79039 h 91.50688 c 2.03491,0 3.98753,-0.69953 5.42752,-1.94652 1.43829,-1.24695 2.24771,-2.93795 2.24771,-4.70015 0,-1.76222 -0.80915,-3.45321 -2.24771,-4.70016 -1.43999,-1.24554 -3.39261,-1.9465 -5.42752,-1.9465 h -82.83189 c -1.14159,0 -2.27032,-0.22059 -3.30233,-0.645 -1.03035,-0.4244 -1.93976,-1.04446 -2.65889,-1.81246 -0.72103,-0.76794 -1.23349,-1.66586 -1.50278,-2.62657 -0.26727,-0.9621 -0.28564,-1.96326 -0.0461,-2.93093 l 9.09418,-17.63603 c 0.26721,-1.11293 0.20103,-2.2663 -0.1938,-3.35128 l -23.63889,-85.48523 c -0.30025,-0.83915 -0.7871,-1.61976 -1.43666,-2.29562 -0.65027,-0.67442 -1.44796,-1.23158 -2.34772,-1.63791 -0.90004,-0.40628 -1.88338,-0.65491 -2.89436,-0.72883 -1.01099,-0.0755 -2.03004,0.0239 -2.99596,0.29186 -0.96908,0.25988 -1.87041,0.68133 -2.65087,1.24417 -0.77883,0.5627 -1.42216,1.25392 -1.89136,2.0331 -0.46937,0.77916 -0.75587,1.63094 -0.84217,2.50647 -0.0917,0.87556 0.0273,1.75801 0.33705,2.59442 l 22.44533,82.18974 c 0.39491,1.08498 0.46109,2.23836 0.1938,3.35125 l -10.04554,21.6017 c -0.47849,2.01634 -0.4335,4.09832 0.13394,6.09788 0.56762,1.9982 1.64302,3.86236 3.14747,5.45561 1.50445,1.59324 3.40067,2.87509 5.55013,3.75341 2.14933,0.87828 4.49706,1.33072 6.87381,1.32375 z"
         fill="#fcbed2"
         id="path201"
         style="fill:#000000;stroke-width:1.50054" /><path
         d="m -399.86777,380.34678 h 45.00362 c 2.47832,-0.004 4.85507,-0.8574 6.60787,-2.37661 1.75268,-1.51785 2.7395,-3.57469 2.74438,-5.7223 V 328.1927 c -0.005,-2.14619 -0.9917,-4.20442 -2.74438,-5.72227 -1.7528,-1.51785 -4.12955,-2.37242 -6.60787,-2.37659 h -37.77987 c -1.67048,0.002 -3.31032,0.39241 -4.74708,1.12825 -1.43831,0.73726 -2.62186,1.79432 -3.42805,3.06083 l -18.07561,28.03888 c -1.8527,2.87234 -2.80731,6.11328 -2.76699,9.40309 0.0461,3.28983 1.07389,6.51263 2.9976,9.35004 1.9236,2.83739 4.66963,5.18888 7.96708,6.82262 3.29754,1.63374 7.03032,2.49251 10.8293,2.49109 z m 45.00362,-53.60627 c 0.4271,0 0.83851,0.14649 1.14003,0.40899 0.30296,0.26256 0.47209,0.61723 0.47209,0.98721 v 44.04117 c 0,0.37004 -0.16895,0.72612 -0.47209,0.98723 -0.30118,0.26259 -0.71268,0.40899 -1.14003,0.40899 h -45.00362 c -2.4558,-10e-4 -4.86799,-0.55859 -6.99973,-1.61557 -2.13005,-1.05844 -3.90532,-2.57767 -5.15013,-4.41249 -1.24483,-1.83343 -1.91396,-3.91541 -1.94466,-6.04204 -0.0273,-2.12666 0.58215,-4.224 1.7753,-6.08254 l 18.07561,-27.92723 c 0.14072,-0.22901 0.35275,-0.4203 0.61255,-0.55024 0.25806,-0.13108 0.55472,-0.19706 0.85506,-0.1899 z"
         fill="#3d2c56"
         id="path203"
         style="fill:#808080;stroke-width:1.50054" /><path
         d="m -396.03019,380.34678 h 45.00369 c 2.47834,-0.004 4.85509,-0.8574 6.60787,-2.37661 1.75268,-1.51785 2.73952,-3.57469 2.74437,-5.7223 V 328.1927 c -0.005,-2.14619 -0.99169,-4.20442 -2.74437,-5.72227 -1.75278,-1.51785 -4.12953,-2.37242 -6.60787,-2.37659 h -37.8605 c -1.67049,0.002 -3.31031,0.39241 -4.74708,1.12825 -1.4383,0.73726 -2.62176,1.79432 -3.42803,3.06083 l -18.07564,28.03888 c -1.8527,2.87234 -2.80731,6.11328 -2.76699,9.40309 0.0461,3.28983 1.07391,6.51263 2.9976,9.35004 1.92361,2.83739 4.66966,5.18888 7.96708,6.82262 3.29748,1.63374 7.03032,2.49251 10.82932,2.49109 z m 45.00369,-53.60627 c 0.4271,0 0.83857,0.14649 1.14002,0.40899 0.30297,0.26256 0.4721,0.61723 0.4721,0.98721 v 44.04117 c 0,0.37004 -0.16895,0.72612 -0.4721,0.98723 -0.30117,0.26259 -0.71258,0.40899 -1.14002,0.40899 h -45.00369 c -2.45571,-10e-4 -4.86795,-0.55859 -6.99964,-1.61557 -2.13008,-1.05844 -3.90535,-2.57767 -5.15015,-4.41249 -1.24481,-1.83343 -1.91396,-3.91541 -1.94463,-6.04204 -0.0273,-2.12666 0.58214,-4.224 1.77527,-6.08254 l 18.07563,-27.92723 c 0.14072,-0.22901 0.35361,-0.4203 0.61262,-0.55024 0.25806,-0.13108 0.55472,-0.19706 0.854,-0.1899 z"
         fill="#533a71"
         id="path205"
         style="fill:#999999;stroke-width:1.50054" /><path
         d="m -403.06042,312.59539 h 69.99669 c 1.07712,0 1.95107,0.75685 1.95107,1.68958 v 4.66384 c 0,0.93282 -0.87436,1.6896 -1.95107,1.6896 h -69.99669 c -1.07718,0 -1.95104,-0.75687 -1.95104,-1.6896 v -4.66384 c 0,-0.93273 0.87426,-1.68958 1.95104,-1.68958 z"
         fill="#ff6b6b"
         id="path207"
         style="fill:#000000;stroke-width:1.50054" /><path
         d="m -440.1469,382.84623 h 46.66447 v 9.55112 h -46.66447 z"
         fill="#533a71"
         id="path209-1"
         style="fill:#999999;stroke-width:1.50054" /><path
         d="m -440.16307,382.84623 h 23.33224 v 9.55112 h -23.33224 z"
         fill="#3d2c56"
         id="path211-1"
         style="fill:#808080;stroke-width:1.50054" /><path
         d="m -426.1669,390.31677 h 17.93042 v 35.73286 h -17.93042 z"
         fill="#533a71"
         id="path213-0"
         style="fill:#b3b3b3;stroke-width:1.50054" /><path
         d="m -426.1669,390.31677 h 8.96521 v 35.73286 h -8.96521 z"
         fill="#3d2c56"
         id="path215-8"
         style="fill:#999999;stroke-width:1.50054" /><path
         d="m -428.74689,426.06358 h 23.83212 v 24.52007 h -23.83212 z"
         fill="#533a71"
         id="path217"
         style="fill:#b3b3b3;stroke-width:1.50054" /><path
         d="m -428.74689,426.06358 h 11.91606 v 24.52007 h -11.91606 z"
         fill="#3d2c56"
         id="path219-1"
         style="fill:#999999;stroke-width:1.50054" /><path
         d="m -351.80052,450.56969 h -130.85074 c -1.13359,0 -2.22033,0.38961 -3.02172,1.08357 -0.80188,0.69413 -1.25125,1.63515 -1.25125,2.61678 v 8.76916 h 139.41285 v -8.76916 c 0,-0.48732 -0.11113,-0.96906 -0.32781,-1.41869 -0.2139,-0.45116 -0.53177,-0.85879 -0.93034,-1.20226 -0.39858,-0.34501 -0.8707,-0.61726 -1.39156,-0.80149 -0.51888,-0.18578 -1.07712,-0.27947 -1.63982,-0.27784 z"
         fill="#3d2c56"
         id="path221-4"
         style="fill:#1a1a1a;stroke-width:1.50054" /><path
         d="m -351.42957,476.75145 c -5.20994,0 -9.43288,-3.65708 -9.43288,-8.16871 0,-4.51163 4.22294,-8.16872 9.43288,-8.16872 5.20976,0 9.43277,3.65709 9.43277,8.16872 0,4.51163 -4.22301,8.16871 -9.43277,8.16871 z"
         fill="#3d2c56"
         id="path223-0"
         style="fill:#000000;stroke-width:1.50054" /><path
         d="m -351.42957,472.67407 c -2.60901,0 -4.72456,-1.83202 -4.72456,-4.09133 0,-2.25931 2.11555,-4.09132 4.72456,-4.09132 2.6089,0 4.72447,1.83201 4.72447,4.09132 0,2.25931 -2.11557,4.09133 -4.72447,4.09133 z"
         fill="#ffffff"
         id="path225"
         style="stroke-width:1.50054" /><path
         d="m -481.94179,476.75145 c -5.20985,0 -9.43286,-3.65708 -9.43286,-8.16871 0,-4.51163 4.22301,-8.16872 9.43286,-8.16872 5.20987,0 9.43288,3.65709 9.43288,8.16872 0,4.51163 -4.22301,8.16871 -9.43288,8.16871 z"
         fill="#3d2c56"
         id="path227"
         style="fill:#000000;stroke-width:1.50054" /><path
         d="m -481.94179,472.67407 c -2.6089,0 -4.72445,-1.83202 -4.72445,-4.09133 0,-2.25931 2.11555,-4.09132 4.72445,-4.09132 2.60892,0 4.72449,1.83201 4.72449,4.09132 0,2.25931 -2.11557,4.09133 -4.72449,4.09133 z"
         fill="#ffffff"
         id="path229-3"
         style="stroke-width:1.50054" /><path
         d="m -416.68573,476.75145 c -5.20985,0 -9.43286,-3.65708 -9.43286,-8.16871 0,-4.51163 4.22301,-8.16872 9.43286,-8.16872 5.20985,0 9.43286,3.65709 9.43286,8.16872 0,4.51163 -4.22301,8.16871 -9.43286,8.16871 z"
         fill="#3d2c56"
         id="path231"
         style="fill:#000000;stroke-width:1.50054" /><path
         d="m -416.68573,472.67407 c -2.60892,0 -4.72447,-1.83202 -4.72447,-4.09133 0,-2.25931 2.11555,-4.09132 4.72447,-4.09132 2.60902,0 4.7245,1.83201 4.7245,4.09132 0,2.25931 -2.11548,4.09133 -4.7245,4.09133 z"
         fill="#ffffff"
         id="path233"
         style="stroke-width:1.50054" /><path
         d="m -236.71949,280.61875 c 0,0 1.61235,2.10849 0,3.12784 -1.61255,1.01935 -8.7718,-0.27947 -11.15828,-0.39094 -2.38639,-0.11177 -19.68808,-2.79275 -19.68808,-2.79275 0,0 11.70648,-6.84214 15.06039,-8.18265 3.35386,-1.34049 6.62714,2.38777 6.62714,2.38777 z"
         fill="#c66f7e"
         id="path235"
         style="stroke-width:1.50054" /><path
         d="m -356.87968,263.34577 16.36639,8.50384 76.26913,4.81742 c 0,0 13.33499,-3.78412 16.6083,-4.02151 3.27328,-0.23738 20.70392,7.8615 20.88127,10.44479 0.17731,2.58325 -6.90127,0.7261 -6.90127,0.7261 l -9.41671,-3.00216 c -3.97478,3.32892 -9.04594,5.50446 -14.51214,6.22777 -5.30498,0.902 -10.8067,0.22335 -15.6086,-1.92697 0,0 -66.32031,7.42863 -78.0751,5.92057 -11.75479,-1.50808 -25.68636,-12.21816 -25.68636,-12.21816 z"
         fill="#fb919f"
         id="path237"
         style="fill:#a05a2c;fill-opacity:1;stroke-width:1.50054" /><path
         d="m -396.3688,221.94368 c -21.30053,5.01295 -15.06032,22.55125 -6.5949,36.94769 8.4654,14.39648 24.9286,25.6232 24.9286,25.6232 0,0 14.73778,-2.59722 19.51063,-10.89161 4.77288,-8.29436 3.8215,-13.09785 3.8215,-13.09785 0,0 -30.52372,-41.20656 -41.66583,-38.58143 z"
         fill="#ffffff"
         id="path239-2"
         style="fill:#ff7f2a;stroke-width:1.50054" /><g
         id="g31288"
         transform="matrix(0.96006341,0,0,1,131.82598,-26.338976)"><path
           d="m -593.29835,153.16633 c 6.56208,-0.56757 13.72529,0.30576 19.42911,3.5996 4.30781,2.48767 10.45877,10.16501 9.68907,11.35045 -1.43859,2.05207 32.36839,11.54126 30.04807,13.04945 -3.52175,2.43233 -25.38318,1.94303 -29.73198,3.46279 -20.85408,15.35477 -39.87606,27.24713 -56.80852,17.04218 -7.1772,-4.3256 -5.27925,-20.83602 -4.86043,-24.66544 0.35406,-3.23731 1.37675,-8.77885 3.71776,-13.24345 3.95449,-7.54173 18.41407,-9.72176 28.51692,-10.59558 z"
           fill="#533a71"
           id="path181-0"
           style="fill:#178066;fill-opacity:1;stroke-width:1.34273"
           sodipodi:nodetypes="aacccassa" /><path
           style="fill:#17805f;fill-opacity:1;stroke:none;stroke-width:1px;stroke-linecap:butt;stroke-linejoin:miter;stroke-opacity:1"
           d="m -561.64091,169.38542 c 2.91954,0.60108 8.76132,1.8038 13.62433,2.97676 4.863,1.17297 9.1791,2.4424 11.2274,3.83993 2.04831,1.39753 3.00551,4.09509 3.1151,4.56116 0.10959,0.46606 -0.15146,0.72711 -5.33068,-1.33312 -5.17922,-2.06022 -15.36652,-6.35262 -20.4611,-8.49922 -5.09458,-2.14659 -5.09458,-2.14659 -2.17505,-1.54551 z"
           id="path29692"
           inkscape:path-effect="#path-effect29694"
           inkscape:original-d="m -564.56044,168.78434 c 5.83891,1.20292 11.73072,2.16266 17.51373,3.60577 3.89294,1.14569 8.72956,0.64533 11.67583,3.43406 0.63058,1.77527 1.58778,4.47283 1.88874,5.32281 -0.0814,0.0833 -0.3424,0.3444 -0.51511,0.51511 -10.18694,-4.29167 -20.37424,-8.58407 -30.56319,-12.87775 10e-4,0.001 10e-4,0.001 0,0 z"
           sodipodi:nodetypes="caaaccc" /></g></g></g></g></svg>
