<?xml version="1.0" encoding="UTF-8" standalone="no"?>
<!-- Generator: Adobe Illustrator 25.1.0, SVG Export Plug-In . SVG Version: 6.00 Build 0)  -->

<svg
   version="1.1"
   id="_x31_"
   x="0px"
   y="0px"
   viewBox="0 0 300 150"
   xml:space="preserve"
   sodipodi:docname="lessive_machine.svg"
   width="300"
   height="150"
   inkscape:version="1.1 (c68e22c387, 2021-05-23)"
   inkscape:export-filename="C:\Users\Elvis Caleb\Desktop\sous_menage\lessive_machine.png"
   inkscape:export-xdpi="274.28601"
   inkscape:export-ydpi="274.28601"
   xmlns:inkscape="http://www.inkscape.org/namespaces/inkscape"
   xmlns:sodipodi="http://sodipodi.sourceforge.net/DTD/sodipodi-0.dtd"
   xmlns="http://www.w3.org/2000/svg"
   xmlns:svg="http://www.w3.org/2000/svg"><defs
   id="defs637">
	
	
	
	
	
	
	
	
	
	
	
	
	
	
	
	
</defs><sodipodi:namedview
   id="namedview635"
   pagecolor="#505050"
   bordercolor="#eeeeee"
   borderopacity="1"
   inkscape:pageshadow="0"
   inkscape:pageopacity="0"
   inkscape:pagecheckerboard="0"
   showgrid="false"
   width="300px"
   inkscape:zoom="1.9157895"
   inkscape:cx="268.81868"
   inkscape:cy="72.293956"
   inkscape:window-width="1920"
   inkscape:window-height="1001"
   inkscape:window-x="-9"
   inkscape:window-y="-9"
   inkscape:window-maximized="1"
   inkscape:current-layer="_x31_" />
<style
   type="text/css"
   id="style2">
	.st0{fill:#E4F0F8;}
	.st1{fill:#C9DEF2;}
	.st2{fill:#D1D3E6;}
	.st3{fill:#FFFFFF;}
	.st4{fill:#A5CCB5;}
	.st5{fill:#8DB8A2;}
	.st6{fill:#81A699;}
	.st7{fill:#C1C3D4;}
	.st8{fill:#9A9DB5;}
	.st9{fill:#50525D;}
	.st10{fill:#72679E;}
	.st11{fill:#877ABB;}
	.st12{fill:#A898E9;}
	.st13{fill:#ACB0C6;}
	.st14{fill:#DCDEEA;}
	.st15{fill:#A668AB;}
	.st16{fill:#D683CB;}
	.st17{fill:#FF9EF1;}
	.st18{fill:#FA99EC;}
	.st19{fill:#8BABC4;}
	.st20{fill:#A3C4D9;}
	.st21{fill:#B3D2E6;}
	.st22{fill:#CDE7F7;}
	.st23{fill:#FFBA7D;}
	.st24{fill:#DEA266;}
	.st25{fill:#FFD1A3;}
	.st26{fill:#CCEDFF;}
	.st27{fill:#E9E8EA;}
	.st28{opacity:0.5;fill:#FFFFFF;}
	.st29{fill:#A8A6AB;}
	.st30{fill:#FBF8FF;}
	.st31{fill:#BDBAC0;}
	.st32{fill:#F2EFF6;}
	.st33{fill:#2D2F38;}
	.st34{fill:#353742;}
	.st35{fill:#7A7D8B;}
	.st36{fill:#CF865E;}
	.st37{fill:#E4E1E8;}
</style>

<rect
   style="opacity:0.990228;fill:#e4f0f8;fill-opacity:1;stroke:#38295c;stroke-width:0.534572;stroke-linecap:round;stroke-linejoin:round;stroke-dasharray:3.20744, 1.06914;paint-order:stroke fill markers"
   id="rect2645"
   width="309.67786"
   height="158.07565"
   x="-2.5355825"
   y="-2.3070557" /><g
   id="g1019"
   transform="matrix(0.66528769,0,0,0.59956204,-178.67345,-42.380235)">
		<path
   class="st7"
   d="m 432.3,302.7 c -1.3,0 -2.4,-1.1 -2.4,-2.4 v -202 c 0,-1.3 1.1,-2.4 2.4,-2.4 1.3,0 2.4,1.1 2.4,2.4 v 202 c 0,1.3 -1.1,2.4 -2.4,2.4 z"
   id="path695" />
		<path
   class="st8"
   d="m 432.3,95.8 c -0.4,0 -0.8,0.1 -1.2,0.3 0.8,0.4 1.3,1.2 1.3,2.1 v 202 c 0,0.9 -0.5,1.7 -1.3,2.1 0.3,0.2 0.7,0.3 1.2,0.3 1.3,0 2.4,-1.1 2.4,-2.4 v -202 c 0,-1.3 -1.1,-2.4 -2.4,-2.4 z"
   id="path697" />
		<path
   class="st7"
   d="M 432.3,100.7 H 287.4 c -1.3,0 -2.4,-1.1 -2.4,-2.4 0,-1.3 1.1,-2.4 2.4,-2.4 h 144.9 c 1.3,0 2.4,1.1 2.4,2.4 0,1.3 -1.1,2.4 -2.4,2.4 z"
   id="path699" />
		<g
   id="g717">
			<g
   id="g707">
				<path
   class="st9"
   d="m 276.4,306.9 c -2.6,2.5 -3,6.1 -0.5,9.1 1.8,2.2 5.7,3.9 9.4,0.9 3.4,-2.8 3.1,-6.7 0.5,-9.6 -2.8,-2.9 -6.7,-2.9 -9.4,-0.4 z"
   id="path701" />
				<path
   class="st7"
   d="m 278.3,309 c -1.5,1.5 -1.7,3.5 -0.3,5.2 1,1.3 3.3,2.3 5.4,0.5 2,-1.6 1.8,-3.8 0.3,-5.5 -1.6,-1.6 -3.8,-1.6 -5.4,-0.2 z"
   id="path703" />
				<path
   class="st8"
   d="m 281.2,313.4 c -1,0 -1.9,-0.8 -1.9,-1.9 v -11.7 c 0,-1 0.8,-1.9 1.9,-1.9 1,0 1.9,0.8 1.9,1.9 v 11.7 c 0,1 -0.9,1.9 -1.9,1.9 z"
   id="path705" />
			</g>
			<g
   id="g715">
				<path
   class="st9"
   d="m 434.2,306.9 c -2.6,2.5 -3,6.1 -0.5,9.1 1.8,2.2 5.7,3.9 9.4,0.9 3.4,-2.8 3.1,-6.7 0.5,-9.6 -2.9,-2.9 -6.8,-2.9 -9.4,-0.4 z"
   id="path709" />
				<path
   class="st7"
   d="m 436.1,309 c -1.5,1.5 -1.7,3.5 -0.3,5.2 1,1.3 3.3,2.3 5.4,0.5 2,-1.6 1.8,-3.8 0.3,-5.5 -1.7,-1.6 -3.9,-1.6 -5.4,-0.2 z"
   id="path711" />
				<path
   class="st8"
   d="m 438.9,313.4 c -1,0 -1.9,-0.8 -1.9,-1.9 v -11.7 c 0,-1 0.8,-1.9 1.9,-1.9 1,0 1.9,0.8 1.9,1.9 v 11.7 c 0,1 -0.8,1.9 -1.9,1.9 z"
   id="path713" />
			</g>
		</g>
		<g
   id="g997">
			<g
   id="g765">
				<g
   id="g761">
					<path
   class="st10"
   d="m 392.2,114.4 c 0,0 14,2.1 21.9,2.6 7.8,0.5 22.1,-2.4 22.1,-2.4 0,0 -7.1,10.5 -22.3,10.2 -15.3,-0.1 -21.7,-10.4 -21.7,-10.4 z"
   id="path719" />
					<g
   id="g725">
						<path
   class="st9"
   d="m 413.5,109.8 c -0.4,0 -0.8,-0.3 -0.8,-0.8 v -5.5 c 0,-0.3 0.2,-0.6 0.5,-0.7 3.5,-1.4 4.4,-4 4,-5.9 -0.4,-1.9 -1.8,-3.1 -3.7,-3.1 -1.7,0 -3,1.1 -3.6,2.1 -0.4,0.8 -0.4,1.6 0,2.2 0.2,0.3 0.1,0.8 -0.2,1.1 -0.3,0.2 -0.8,0.1 -1.1,-0.2 -0.7,-1.1 -0.7,-2.5 0,-3.8 0.9,-1.8 2.9,-2.9 4.9,-2.9 2.6,0 4.7,1.7 5.2,4.3 0.4,2.3 -0.5,5.6 -4.5,7.4 v 5 c 0,0.4 -0.3,0.8 -0.7,0.8 z"
   id="path721" />
						<path
   class="st9"
   d="m 413.7,123.9 c -8.3,0 -16.1,-0.2 -21.8,-0.4 -10.6,-0.5 -10.6,-1.3 -10.6,-2.1 0,-0.6 0,-2.5 32.1,-13.1 0.1,0 0.2,0 0.2,0 h 0.2 c 0.1,0 0.2,0 0.2,0 32.1,10.6 32.1,12.5 32.1,13.1 0,0.8 0,2.5 -32.4,2.5 z m -30.4,-2.7 c 7,1.7 53.8,1.7 60.8,0 -3.2,-1.9 -17.4,-7.1 -30.4,-11.4 -13,4.3 -27.2,9.4 -30.4,11.4 z"
   id="path723" />
					</g>
					<g
   id="g759">
						<path
   class="st11"
   d="m 392.2,114.4 c 0,0 9.5,5.5 20.9,5.9 11.4,0.5 23.1,-5.7 23.1,-5.7 0,0 11.2,3.3 14,6.4 2.9,3.1 3.6,32.1 3.6,49.7 0,17.6 1.4,33 0.7,38.8 l -5.5,2.1 -0.2,5.9 c 0,0 -16.9,2.6 -35.4,2.9 -18.5,0.2 -33,-2.6 -33,-2.6 l -0.2,-6.7 c 0,0 -5.2,-0.5 -8.1,-1 0,0 -1.2,-20 0.5,-43.7 1,-14.7 2.6,-39.9 4.3,-45.4 0.6,-2.4 15.3,-6.6 15.3,-6.6 z"
   id="path727" />
						<path
   class="st10"
   d="m 391.7,197.4 c -0.2,-12.6 0.7,-43.7 -1.2,-42.8 -1.9,1 -2.4,30.9 -2.9,40.7 -0.5,9.7 -1.7,16.4 -1.7,16.4 -1.9,0 -5.9,-0.5 -5.9,-0.5 l 0.2,6.7 c 0,0 4.6,0.9 12,1.7 -0.1,-5.3 -0.3,-14.1 -0.5,-22.2 z"
   id="path729" />
						<path
   class="st10"
   d="m 440,191.9 c -0.2,-10.9 0.2,-37.6 -1.2,-38 -1.4,-0.5 -0.7,28.3 -0.7,45.9 0,8.3 0.1,14.7 0.1,19.1 6.4,-0.7 10.6,-1.3 10.6,-1.3 l 0.2,-5.9 c -2.6,1 -8.3,1.4 -8.3,1.4 0,0 -0.5,-10.2 -0.7,-21.2 z"
   id="path731" />
						<path
   class="st10"
   d="m 421.6,199.8 c -0.1,0 -0.1,0 -0.2,0 -8,-2.6 -15.4,-7 -21.4,-12.8 -0.2,-0.2 -0.2,-0.6 0,-0.8 0.2,-0.2 0.6,-0.2 0.8,0 5.9,5.7 13.2,10 21,12.6 0.3,0.1 0.5,0.4 0.4,0.7 -0.1,0.2 -0.3,0.3 -0.6,0.3 z"
   id="path733" />
						<path
   class="st10"
   d="m 418.9,203.6 c 0,0 -0.1,0 -0.1,0 -3.8,-1 -10.6,-5.7 -10.9,-5.9 -0.3,-0.2 -0.3,-0.5 -0.2,-0.8 0.2,-0.3 0.5,-0.3 0.8,-0.2 0.1,0 7,4.7 10.6,5.7 0.3,0.1 0.5,0.4 0.4,0.7 -0.1,0.4 -0.3,0.5 -0.6,0.5 z"
   id="path735" />
						<path
   class="st10"
   d="m 422.1,129.6 c -0.3,0 -0.6,-0.2 -0.6,-0.6 0,-0.3 0.2,-0.6 0.6,-0.6 2.8,0 5.5,-0.8 8,-2.2 0.3,-0.2 0.6,-0.1 0.8,0.2 0.2,0.3 0.1,0.6 -0.2,0.8 -2.7,1.6 -5.6,2.4 -8.6,2.4 0,0 0,0 0,0 z"
   id="path737" />
						<path
   class="st10"
   d="m 375.1,183 c 0,0 0,0 0,0 -0.3,0 -0.6,-0.3 -0.6,-0.6 0.1,-1.3 0.1,-2.8 0.1,-4.2 0.1,-2.8 0.1,-5.8 0.4,-7.9 0,-0.3 0.3,-0.5 0.6,-0.5 0.3,0 0.5,0.3 0.5,0.6 -0.2,2.1 -0.3,5 -0.4,7.8 0,1.4 -0.1,2.9 -0.1,4.2 0.1,0.4 -0.2,0.6 -0.5,0.6 z"
   id="path739" />
						<path
   class="st10"
   d="m 450.7,175.1 c -0.3,0 -0.6,-0.2 -0.6,-0.6 l -0.3,-12.4 c 0,-0.3 0.2,-0.6 0.6,-0.6 0.3,0 0.6,0.2 0.6,0.6 l 0.3,12.4 c 0,0.3 -0.3,0.6 -0.6,0.6 0,0 0,0 0,0 z"
   id="path741" />
						<g
   id="g745">
							<path
   class="st10"
   d="m 405.3,125.8 c 3,0.5 6,0.8 9,0.8 10.6,0 20.7,-3.3 28.2,-9.4 0.1,-0.1 0.1,-0.2 0.1,-0.2 -0.4,-0.2 -0.8,-0.3 -1.1,-0.4 -1.5,1.2 -3.1,2.3 -4.8,3.2 l -3.8,-3.5 c -0.4,0.2 -0.8,0.3 -1.2,0.5 l 3.9,3.6 c -1.5,0.8 -3.1,1.5 -4.7,2.1 l -3.2,-4.3 c -0.4,0.1 -0.8,0.2 -1.2,0.4 l 3.3,4.4 c -2.3,0.8 -4.6,1.4 -7,1.8 l -0.8,-5.1 c -0.4,0.1 -0.7,0.1 -1.1,0.2 l 0.8,5 c -0.6,0.1 -1.3,0.2 -1.9,0.3 l -1,-5 c -0.4,0 -0.8,0.1 -1.1,0.1 l 1,5 c -2,0.2 -4.1,0.2 -6.2,0.2 l 0.5,-5 c -0.4,0 -0.8,0 -1.1,-0.1 l -0.5,5 c -1.9,-0.1 -3.9,-0.3 -5.8,-0.7 -0.2,0 -0.5,-0.1 -0.7,-0.1 l 2.3,-4.8 c -0.4,-0.1 -0.8,-0.2 -1.2,-0.2 l -2.3,4.8 c -0.7,-0.2 -1.5,-0.3 -2.2,-0.5 l 2.6,-4.7 c -0.4,-0.1 -0.8,-0.2 -1.1,-0.3 l -2.6,4.7 c -1.4,-0.4 -2.7,-0.8 -4.1,-1.3 l 3.3,-4.5 c -0.4,-0.1 -0.8,-0.3 -1.1,-0.4 l -3.3,4.5 c -1.7,-0.7 -3.5,-1.4 -5.1,-2.3 l 5.9,-3.2 c -0.5,-0.2 -0.9,-0.4 -1.3,-0.6 l -5.8,3.1 c -1.2,-0.7 -2.4,-1.4 -3.6,-2.1 -0.4,0.1 -0.8,0.3 -1.2,0.4 0,0.1 0.1,0.2 0.2,0.3 6.3,4 13.6,6.9 21,8.3 z"
   id="path743" />
						</g>
						<path
   class="st10"
   d="m 454.7,202.8 c -4.9,2.4 -10.3,3.8 -15.7,4.2 -0.3,0 -0.6,0.3 -0.5,0.6 0,0.3 0.3,0.5 0.6,0.5 0,0 0,0 0,0 1.4,-0.1 2.8,-0.3 4.2,-0.5 l 0.3,7.2 c 0,0.3 0.3,0.5 0.6,0.5 0,0 0,0 0,0 0.3,0 0.6,-0.3 0.5,-0.6 l -0.3,-7.4 c 1,-0.2 2.1,-0.4 3.1,-0.7 l 0.8,7 c 0,0.3 0.3,0.5 0.6,0.5 0,0 0,0 0.1,0 0,0 0,0 0.1,0 l 0.1,-2.6 h 0.1 l -0.6,-5.2 c 1,-0.3 2.1,-0.6 3.1,-1 l -0.1,5.2 1.1,-0.4 0.1,-5.3 c 0.7,-0.3 1.3,-0.6 2,-0.9 -0.2,-0.2 -0.2,-0.6 -0.2,-1.1 z"
   id="path747" />
						<g
   id="g751">
							<path
   class="st10"
   d="m 382.4,205.9 -0.9,6.6 c 0,0.3 0.2,0.6 0.5,0.6 0,0 0.1,0 0.1,0 0.3,0 0.5,-0.2 0.6,-0.5 l 0.9,-6.7 c 1.2,0.1 2.4,0.1 3.5,0.1 0.8,0 1.5,0 2.1,-0.1 0.3,0 0.5,-0.3 0.5,-0.6 0,-0.3 -0.3,-0.5 -0.6,-0.5 -4.4,0.3 -12.8,-0.7 -17.3,-1.6 0,0.4 0,0.8 0,1.2 0.7,0.1 1.5,0.3 2.2,0.4 l 0.1,5.6 c 0.4,0 0.8,0.1 1.1,0.1 l -0.1,-5.6 c 0.9,0.1 1.9,0.3 2.9,0.4 l -0.4,5.5 c 0.4,0 0.8,0.1 1.1,0.1 l 0.4,-5.5 c 1.2,0.3 2.3,0.4 3.3,0.5 z"
   id="path749" />
						</g>
						<path
   class="st10"
   d="m 388.5,211.3 v 1.1 c 2.3,0.3 4.7,0.6 7,0.9 l -0.1,6.5 c 0.4,0 0.8,0.1 1.1,0.1 l 0.1,-6.5 c 1.5,0.2 3.1,0.2 4.7,0.4 l 0.6,6.5 c 0.4,0 0.8,0 1.2,0.1 l -0.6,-6.5 c 0.6,0 1.2,0.1 1.9,0.1 0,1.2 0,2.4 0,3.5 0,0.9 0,1.9 0,2.8 0.4,0 0.8,0 1.1,0 0,-1 0,-2 0,-2.9 0,-1.1 0,-2.2 0,-3.4 1.7,0.1 3.5,0.1 5.2,0.2 l 0.4,6.3 c 0.4,0 0.8,0 1.1,0 l -0.4,-6.2 c 1.1,0 2.1,0.1 3.2,0.1 0.2,0 0.5,0 0.7,0 l 0.1,6.1 c 0.4,0 0.8,0 1.1,0 l -0.1,-6.1 c 0.5,0 1,0 1.5,0 l 0.3,6.1 c 0.4,0 0.8,0 1.1,0 l -0.3,-6.1 c 1.9,0 3.7,-0.1 5.6,-0.2 l 0.6,6 c 0.4,0 0.8,0 1.1,-0.1 l -0.6,-6 c 0.7,0 1.4,-0.1 2.2,-0.1 l 0.2,6 c 0.4,0 0.8,-0.1 1.1,-0.1 l -0.2,-6 c 1.6,-0.1 3.2,-0.3 4.8,-0.4 l -0.1,6 c 0.4,0 0.8,-0.1 1.1,-0.1 l 0.1,-6 c 1.3,-0.1 2.6,-0.3 3.9,-0.4 v -1.1 c -17.3,1.9 -34.2,1.8 -50.7,-0.6 z"
   id="path753" />
						<path
   class="st12"
   d="m 372,210.4 c -0.3,0 -0.6,-0.2 -0.6,-0.5 0,-0.2 -1.2,-19.9 0.5,-43.4 l 0.3,-4.9 c 1,-15 2.5,-35.6 4,-40.6 0.8,-2.7 13.3,-6.3 15.8,-7 0.3,-0.1 0.6,0.1 0.7,0.4 0.1,0.3 -0.1,0.6 -0.4,0.7 -7.1,2 -14.6,4.9 -15.1,6.3 -1.5,4.8 -2.9,25.4 -3.9,40.3 l -0.3,4.9 c -1.6,23.5 -0.5,43.1 -0.5,43.3 0.1,0.3 -0.1,0.5 -0.5,0.5 0,0 0,0 0,0 z"
   id="path755" />
						<path
   class="st12"
   d="m 440.7,213.1 c -0.3,0 -0.6,-0.2 -0.6,-0.5 0,-0.1 -0.5,-9.8 -0.7,-20.6 -0.1,-3.6 -0.1,-7.8 -0.2,-12.3 -0.1,-9 -0.2,-19.2 -0.6,-25.7 0,-0.3 0.2,-0.6 0.5,-0.6 0.3,0 0.6,0.2 0.6,0.5 0.4,6.5 0.5,16.8 0.6,25.8 0,4.4 0.1,8.7 0.2,12.3 0.2,10.8 0.7,20.5 0.7,20.6 0.1,0.2 -0.1,0.5 -0.5,0.5 0,0 0,0 0,0 z"
   id="path757" />
					</g>
				</g>
				<path
   class="st7"
   d="m 412.2,100.7 h -6 c -1.3,0 -2.4,-1.1 -2.4,-2.4 0,-1.3 1.1,-2.4 2.4,-2.4 h 6 c 1.3,0 2.4,1.1 2.4,2.4 0,1.3 -1,2.4 -2.4,2.4 z"
   id="path763" />
			</g>
			<g
   id="g833">
				<g
   id="g829">
					<g
   id="g771">
						<path
   class="st13"
   d="m 378.3,110.6 c 0,0 8,-2.3 13,-2.1 6,0.2 13.4,2.1 13.4,2.1 l 1.9,64.9 1.4,68.7 c 0,0 -19.7,1.2 -31.6,-0.5 z"
   id="path767" />
						<path
   class="st8"
   d="m 383.5,207.3 c 0,-13 -0.2,-42.7 -0.2,-54.5 -0.2,-17.4 -1,-35.6 -1.3,-43.1 -2.1,0.5 -3.7,0.9 -3.7,0.9 l -1.9,133.1 c 2.2,0.3 4.7,0.5 7.4,0.7 -0.1,-5.6 -0.3,-25.9 -0.3,-37.1 z"
   id="path769" />
					</g>
					<g
   id="g777">
						<path
   class="st9"
   d="m 391.2,109.8 c -0.4,0 -0.8,-0.3 -0.8,-0.8 v -5.5 c 0,-0.3 0.2,-0.6 0.5,-0.7 3.5,-1.4 4.4,-4 4,-5.9 -0.4,-1.9 -1.8,-3.1 -3.7,-3.1 -1.7,0 -3,1.1 -3.6,2.1 -0.4,0.8 -0.4,1.6 0,2.2 0.2,0.3 0.1,0.8 -0.2,1.1 -0.3,0.2 -0.8,0.1 -1.1,-0.2 -0.7,-1.1 -0.7,-2.5 0,-3.8 0.9,-1.8 2.9,-2.9 4.9,-2.9 2.6,0 4.7,1.7 5.2,4.3 0.4,2.3 -0.5,5.6 -4.5,7.4 v 5 c 0.1,0.4 -0.3,0.8 -0.7,0.8 z"
   id="path773" />
						<path
   class="st9"
   d="m 391.5,123.9 c -8.3,0 -16.1,-0.2 -21.8,-0.4 -10.6,-0.5 -10.6,-1.3 -10.6,-2.1 0,-0.6 0,-2.5 32.1,-13.1 0.1,0 0.2,0 0.2,0 h 0.2 c 0.1,0 0.2,0 0.2,0 32.1,10.6 32.1,12.5 32.1,13.1 0,0.8 0,2.5 -32.4,2.5 z m -30.4,-2.7 c 7,1.7 53.8,1.7 60.8,0 -3.2,-1.9 -17.4,-7.1 -30.4,-11.4 -13,4.3 -27.2,9.4 -30.4,11.4 z"
   id="path775" />
					</g>
					<g
   id="g827">
						<path
   class="st7"
   d="m 379.7,155.8 c 0,11.4 0.2,40.2 0.2,52.8 0,12.6 0.2,37.3 0.2,37.3 0,0 -14.3,-1.2 -19.7,-3.3 0,0 0,-18.8 -0.2,-34.7 -0.2,-15.9 1,-84.4 1,-84.4 l 13.3,-4.5 z"
   id="path779" />
						<path
   class="st7"
   d="m 404.2,154.6 c 0,11.4 0.1,26.2 -0.1,39.9 -0.1,12.6 0.8,51.3 0.8,51.3 0,0 14.3,-1.2 19.7,-3.3 0,0 0,-18.8 0.2,-34.7 0.2,-15.9 -1.2,-88.2 -1.2,-88.2 l -13.3,-4.5 z"
   id="path781" />
						<path
   class="st13"
   d="m 412,189.9 c -0.2,16.8 -0.6,23.1 0,23.9 0.6,0.8 9.7,1.6 9.7,1.6 0,0 0.1,18.9 0.1,27.9 1,-0.3 2,-0.5 2.8,-0.8 0,0 0,-18.8 0.2,-34.7 0.1,-8.4 -0.2,-32.4 -0.6,-53.2 l -10.5,-2.1 c -1.3,0.4 -1.5,20.6 -1.7,37.4 z"
   id="path783" />
						<path
   class="st7"
   d="m 426.3,121.3 c 1,2 2.9,27.3 3.3,44.9 0.4,13.9 0.7,41.3 0.7,41.3 0,0 -8.3,1.6 -16.2,0 0,0 -1,-17.2 -0.7,-38.5 0.2,-21.3 0.2,-54.4 0.2,-54.4 0,0 11.8,4.7 12.7,6.7 z"
   id="path785" />
						<path
   class="st14"
   d="m 414.2,208.2 c -0.3,0 -0.6,-0.2 -0.6,-0.5 0,-0.2 -0.9,-17.5 -0.7,-38.6 0.1,-4.5 0.1,-9.6 0.1,-14.7 0,-0.3 0.3,-0.6 0.6,-0.6 0.3,0 0.6,0.3 0.6,0.6 0,5.2 -0.1,10.2 -0.1,14.7 -0.2,21 0.7,38.3 0.7,38.5 0,0.3 -0.3,0.6 -0.6,0.6 0,0 0,0 0,0 z"
   id="path787" />
						<path
   class="st14"
   d="m 430.9,201.8 c 0,5 -0.1,8.3 -0.1,8.3 0,0 -8.8,1.7 -17.1,0 0,0 -0.2,-3.1 -0.4,-8.4 7.3,1.2 14.7,0.5 17.6,0.1 z"
   id="path789" />
						<path
   class="st14"
   d="m 404.4,110.4 c 0,0 -0.5,28.7 -0.2,44.2 1.7,0 7.9,-26.6 10.4,-40.6 -3.1,-1.4 -6.5,-2.8 -10.2,-3.6 z"
   id="path791" />
						<g
   id="g799">
							<path
   class="st8"
   d="m 407.6,159.2 c -0.9,0 -1.6,0.7 -1.6,1.6 0,0.7 0.4,1.7 1.6,1.7 1.1,0 1.7,-0.7 1.7,-1.7 0,-1 -0.8,-1.7 -1.7,-1.6 z"
   id="path793" />
							<path
   class="st8"
   d="m 408,185.9 c -0.9,0 -1.6,0.7 -1.6,1.6 0,0.7 0.4,1.7 1.6,1.7 1.1,0 1.7,-0.7 1.7,-1.7 0,-1 -0.8,-1.6 -1.7,-1.6 z"
   id="path795" />
							<path
   class="st8"
   d="m 408.3,212.7 c -0.9,0 -1.6,0.7 -1.6,1.6 0,0.7 0.4,1.7 1.6,1.7 1.1,0 1.7,-0.7 1.7,-1.7 0,-1 -0.7,-1.6 -1.7,-1.6 z"
   id="path797" />
						</g>
						<path
   class="st13"
   d="m 373.1,180.9 c 0,-11.7 -1,-27.7 -1.7,-27.9 -0.8,-0.2 -11.1,48.6 -11.1,48.6 0,2.5 0,4.7 0,6.3 0,2.4 0.1,4.8 0.1,7.3 2.1,-0.1 9.6,-0.3 12.4,-1.3 -0.1,0 0.3,-21.3 0.3,-33 z"
   id="path801" />
						<path
   class="st7"
   d="m 357.4,120.7 c -1,2 -2.1,25.6 -2.6,41.7 -0.4,13.9 -0.2,45.4 -0.2,45.4 0,0 8.3,1.6 16.2,0 0,0 1,-17.2 0.7,-38.5 -0.2,-21.3 -0.2,-54.4 -0.2,-54.4 0,0 -13,3.8 -13.9,5.8 z"
   id="path803" />
						<path
   class="st14"
   d="m 354.5,208.4 c -0.3,0 -0.6,-0.3 -0.6,-0.6 0,-0.3 -0.2,-31.7 0.2,-45.4 0.4,-12.1 1.5,-39.5 2.7,-42 1,-2.1 12,-5.5 14.1,-6.1 0.3,-0.1 0.6,0.1 0.7,0.4 0.1,0.3 -0.1,0.6 -0.4,0.7 -6.2,1.8 -12.9,4.4 -13.4,5.5 -0.8,1.8 -2,23.3 -2.6,41.5 -0.4,13.7 -0.2,45 -0.2,45.4 0.1,0.3 -0.2,0.6 -0.5,0.6 0,0 0,0 0,0 z"
   id="path805" />
						<path
   class="st14"
   d="m 378.3,110.6 c 0,0 2.4,37.6 1.4,45.2 -1.4,-0.1 -8.1,-15.8 -10.9,-40.8 3.2,-2 6.4,-3.4 9.5,-4.4 z"
   id="path807" />
						<path
   class="st14"
   d="m 354,202 c 0,5 0.1,8.3 0.1,8.3 0,0 8.8,1.7 17.1,0 0,0 0.2,-3.1 0.4,-8.4 -7.4,1.2 -14.7,0.5 -17.6,0.1 z"
   id="path809" />
						<path
   class="st7"
   d="m 357.1,204.9 c -0.8,0 -1.4,0.6 -1.4,1.4 0,0.6 0.4,1.5 1.4,1.5 1,0 1.5,-0.6 1.5,-1.5 -0.1,-0.8 -0.7,-1.4 -1.5,-1.4 z"
   id="path811" />
						<path
   class="st7"
   d="m 427.2,204.9 c -0.8,0 -1.4,0.6 -1.4,1.4 0,0.6 0.4,1.5 1.4,1.5 1,0 1.5,-0.6 1.5,-1.5 0,-0.8 -0.7,-1.4 -1.5,-1.4 z"
   id="path813" />
						<path
   class="st13"
   d="m 427.6,199.1 c -0.3,0 -0.6,-0.2 -0.6,-0.5 -0.1,-1.9 -0.1,-4 -0.2,-6.3 -0.1,-4.1 -0.2,-8.7 -0.5,-13.5 0,-0.3 0.2,-0.6 0.5,-0.6 0.3,0 0.6,0.2 0.6,0.5 0.3,4.9 0.4,9.5 0.5,13.6 0,2.3 0.1,4.4 0.2,6.2 0.1,0.3 -0.2,0.6 -0.5,0.6 0,0 0,0 0,0 z"
   id="path815" />
						<path
   class="st13"
   d="m 423.3,122.4 c -0.1,0 -0.2,0 -0.3,-0.1 -2.2,-1.4 -4,-2.4 -6.5,-3.3 -0.3,-0.1 -0.4,-0.4 -0.3,-0.7 0.1,-0.3 0.4,-0.4 0.7,-0.3 2.5,1 4.5,2 6.7,3.4 0.3,0.2 0.3,0.5 0.2,0.8 -0.1,0.1 -0.3,0.2 -0.5,0.2 z"
   id="path817" />
						<path
   class="st13"
   d="m 358.9,122.8 c -0.2,0 -0.4,-0.1 -0.5,-0.3 -0.2,-0.3 -0.1,-0.6 0.2,-0.8 2.3,-1.3 4.3,-2.1 6.9,-2.9 0.3,-0.1 0.6,0.1 0.7,0.4 0.1,0.3 -0.1,0.6 -0.4,0.7 -2.5,0.8 -4.5,1.6 -6.7,2.9 0,0 -0.1,0 -0.2,0 z"
   id="path819" />
						<g
   id="g825">
							<path
   class="st13"
   d="m 364,231.9 c -0.3,0 -0.6,-0.3 -0.6,-0.6 0,-3.2 0,-6.7 -0.1,-9.2 0,-0.3 0.2,-0.6 0.6,-0.6 0.3,0 0.6,0.2 0.6,0.6 0,2.5 0.1,6 0.1,9.2 -0.1,0.3 -0.3,0.6 -0.6,0.6 0,0 0,0 0,0 z"
   id="path821" />
							<path
   class="st13"
   d="m 364,239.8 c -0.3,0 -0.6,-0.3 -0.6,-0.6 v -4.8 c 0,-0.3 0.3,-0.6 0.6,-0.6 0,0 0,0 0,0 0.3,0 0.6,0.3 0.6,0.6 v 4.8 c 0,0.4 -0.3,0.6 -0.6,0.6 z"
   id="path823" />
						</g>
					</g>
				</g>
				<path
   class="st7"
   d="m 390.1,100.7 h -6 c -1.3,0 -2.4,-1.1 -2.4,-2.4 0,-1.3 1.1,-2.4 2.4,-2.4 h 6 c 1.3,0 2.4,1.1 2.4,2.4 0,1.3 -1.1,2.4 -2.4,2.4 z"
   id="path831" />
			</g>
			<g
   id="g919">
				<g
   id="g915">
					<path
   class="st15"
   d="m 354.5,107 c 1.9,-0.6 10.5,-3.3 19,0.1 l 2,11.9 -13.1,4.5 -8.7,-8.6 z"
   id="path835" />
					<g
   id="g841">
						<path
   class="st9"
   d="m 364.1,109.8 v 0 c -0.4,0 -0.8,-0.3 -0.8,-0.8 v -5.5 c 0,-0.3 0.2,-0.6 0.5,-0.7 3.5,-1.4 4.4,-4 4,-5.9 -0.4,-1.9 -1.8,-3.1 -3.7,-3.1 0,0 0,0 0,0 -1.7,0 -3,1.1 -3.6,2.1 -0.4,0.8 -0.5,1.6 -0.1,2.2 0.2,0.3 0.1,0.8 -0.2,1.1 -0.3,0.2 -0.8,0.1 -1.1,-0.2 -0.7,-1.1 -0.7,-2.5 0,-3.8 1,-1.8 2.9,-2.9 4.9,-2.9 0,0 0,0 0,0 2.6,0 4.7,1.7 5.2,4.3 0.4,2.3 -0.5,5.6 -4.5,7.4 v 5 c 0.1,0.4 -0.2,0.8 -0.6,0.8 z"
   id="path837" />
						<path
   class="st9"
   d="m 367.4,123.9 c -1,0 -2.1,0 -3.1,0 -32.4,-0.1 -32.4,-1.8 -32.4,-2.7 0,-0.6 0,-2.5 32.1,-13 0.1,0 0.2,0 0.2,0 h 0.2 c 0.1,0 0.2,0 0.2,0 32.1,10.8 32,12.6 32,13.2 0.1,0.9 0.1,2.5 -29.2,2.5 z M 333.9,121 c 7,1.7 53.8,1.9 60.8,0.2 -3.2,-1.9 -17.4,-7.2 -30.3,-11.5 -13.1,4.3 -27.3,9.4 -30.5,11.3 z"
   id="path839" />
					</g>
					<g
   id="g913">
						<path
   class="st16"
   d="m 354.5,110.6 c -3.2,1.4 -21.3,6.1 -23.4,10.7 -2.1,4.6 -1.5,26.1 -1,47.6 0.6,21.5 -0.3,36.3 -0.2,42.1 0,0 15.5,3.8 33.2,3.9 17.7,0.1 35.2,-5.1 35.2,-5.1 0,0 -0.5,-26.5 -0.8,-41.3 -0.2,-14.8 1.4,-44.9 -0.2,-47.6 -0.9,-1.6 -23.3,-10.2 -23.3,-10.2 0,0 -4.9,9.3 -10.1,9.2 -5.1,0 -9.4,-9.3 -9.4,-9.3 z"
   id="path843" />
						<path
   class="st15"
   d="m 365,183.8 c -0.1,-22 -0.2,-46.9 -0.5,-63.4 0,-0.3 -0.2,-0.4 -0.4,-0.5 0,0 -0.1,0 -0.1,0 0,0 -0.1,0 -0.1,0 -0.2,0.1 -0.4,0.3 -0.4,0.5 0.4,16.5 0.5,41.4 0.5,63.4 0,12.1 0.1,23 0.2,31 0.3,0 0.7,0 1,0 -0.1,-8 -0.1,-18.9 -0.2,-31 z"
   id="path845" />
						<path
   class="st15"
   d="m 371.3,130.5 c 5,-4.9 8.5,-9.5 9.3,-17.3 -3.7,-1.5 -6.5,-2.5 -6.5,-2.5 0,0 -4.9,9.3 -10.1,9.2 l 0.4,2.2 z"
   id="path847" />
						<path
   class="st17"
   d="m 373.5,107.1 c 0,0 -4,8.8 -9.6,12.9 l 6.9,8.3 c 4.4,-5.7 8.1,-9.4 8.6,-16.5 0.1,0 -3.7,-3.8 -5.9,-4.7 z"
   id="path849" />
						<g
   id="g871">
							<g
   id="g859">
								<path
   class="st15"
   d="m 370.6,137.8 c -0.7,-0.5 -1.5,-0.5 -2.1,0.2 -0.4,0.5 -0.6,1.5 0.3,2.3 0.8,0.7 1.7,0.5 2.2,-0.3 0.6,-0.7 0.4,-1.7 -0.4,-2.2 z"
   id="path851" />
								<path
   class="st15"
   d="m 371.2,202.7 c -0.7,-0.5 -1.5,-0.5 -2.1,0.2 -0.4,0.5 -0.6,1.5 0.3,2.3 0.8,0.7 1.7,0.5 2.2,-0.3 0.5,-0.7 0.3,-1.7 -0.4,-2.2 z"
   id="path853" />
								<path
   class="st15"
   d="m 370.8,179.9 c -0.7,-0.5 -1.5,-0.5 -2.1,0.2 -0.4,0.5 -0.6,1.5 0.3,2.3 0.8,0.7 1.7,0.5 2.2,-0.3 0.5,-0.8 0.3,-1.7 -0.4,-2.2 z"
   id="path855" />
								<path
   class="st15"
   d="m 370.6,158.7 c -0.7,-0.5 -1.5,-0.5 -2.1,0.2 -0.4,0.5 -0.6,1.5 0.3,2.3 0.8,0.7 1.7,0.5 2.2,-0.3 0.5,-0.7 0.3,-1.6 -0.4,-2.2 z"
   id="path857" />
							</g>
							<g
   id="g869">
								<path
   class="st17"
   d="m 370,137.1 c -0.7,-0.5 -1.5,-0.5 -2.1,0.2 -0.4,0.5 -0.6,1.5 0.3,2.3 0.8,0.7 1.7,0.5 2.2,-0.3 0.6,-0.7 0.3,-1.6 -0.4,-2.2 z"
   id="path861" />
								<path
   class="st17"
   d="m 370.6,202 c -0.7,-0.5 -1.5,-0.5 -2.1,0.2 -0.4,0.5 -0.6,1.5 0.3,2.3 0.8,0.7 1.7,0.5 2.2,-0.3 0.5,-0.7 0.3,-1.6 -0.4,-2.2 z"
   id="path863" />
								<path
   class="st17"
   d="m 370.2,179.2 c -0.7,-0.5 -1.5,-0.5 -2.1,0.2 -0.4,0.5 -0.6,1.5 0.3,2.3 0.8,0.7 1.7,0.5 2.2,-0.3 0.5,-0.7 0.3,-1.7 -0.4,-2.2 z"
   id="path865" />
								<path
   class="st17"
   d="m 370,158.1 c -0.7,-0.5 -1.5,-0.5 -2.1,0.2 -0.4,0.5 -0.6,1.5 0.3,2.3 0.8,0.7 1.7,0.5 2.2,-0.3 0.5,-0.7 0.3,-1.7 -0.4,-2.2 z"
   id="path867" />
							</g>
						</g>
						<path
   class="st15"
   d="m 330.1,163.5 c 4.5,1.2 12.8,1.7 13.5,0.6 0.7,-1.3 1.1,-23.6 -0.8,-23.5 -1.9,0.1 -1.5,16 -1.5,16 l -11.3,1.3 c 0,1.8 0,3.7 0.1,5.6 z"
   id="path873" />
						<path
   class="st15"
   d="m 357.6,130.7 7.4,-9 c -1.1,-0.9 -1.7,-1.4 -2.3,-2 -4.6,-1.3 -8.2,-9.1 -8.2,-9.1 -1,0.4 -3.4,1.2 -6.4,2.1 1,7.1 4,12.1 9.5,18 z"
   id="path875" />
						<path
   class="st15"
   d="m 397.6,168.5 c -0.1,-3.7 0,-8.4 0.1,-13.3 L 386,141.6 c -2.1,-0.2 -1.5,7.8 -1.7,13.9 -0.2,7.6 0.6,10.6 2.8,10.8 2.2,0.2 6.7,0.5 6.7,0.5 0,0 0.6,6.8 0.9,25 0.2,7.5 0.4,13.8 0.7,18.7 1.8,-0.5 2.9,-0.8 2.9,-0.8 0,0 -0.5,-26.4 -0.7,-41.2 z"
   id="path877" />
						<path
   class="st16"
   d="m 332.9,119.8 c -6.4,3.4 -7.1,19.8 -9,35.3 0,0 -0.8,2.1 4.8,2.8 7.6,1 12.8,0.4 12.8,0.4 0,0 1.8,-30.3 1.8,-35.5 z"
   id="path879" />
						<path
   class="st18"
   d="m 323.9,155.7 c 0,0 -0.1,0 0,0 -0.4,0 -0.6,-0.3 -0.5,-0.6 0.3,-2.7 0.6,-5.4 0.8,-8.1 1.2,-11.7 2.2,-22.7 7,-26.7 2.5,-3.4 12.9,-6.8 19.1,-8.8 1.9,-0.6 3.4,-1.1 4,-1.4 0.3,-0.1 0.6,0 0.7,0.3 0.1,0.3 0,0.6 -0.3,0.7 -0.7,0.3 -2.2,0.8 -4.1,1.4 -5.7,1.8 -16.2,5.3 -18.6,8.5 -4.5,3.8 -5.6,14.6 -6.7,26.1 -0.3,2.7 -0.5,5.4 -0.9,8.1 0,0.3 -0.2,0.5 -0.5,0.5 z"
   id="path881" />
						<path
   class="st17"
   d="m 331.1,155.3 c -6.3,-0.9 -8.2,-1.9 -8.2,-1.9 l -0.7,5.2 c 0,0 2.1,1.2 7.2,1.9 8.4,1.2 12.8,0 12.8,0 0.2,-0.3 0.4,-2.6 0.3,-5.1 -1.8,0.2 -4.7,0.8 -11.4,-0.1 z"
   id="path883" />
						<path
   class="st16"
   d="m 396.3,120.1 c 6.5,2.4 8.2,19.1 8.7,34.8 0,0 0.7,3.1 -5,4.2 -7.8,1.5 -13.3,1 -13.3,1 0,0 -1.2,-31.4 -1.2,-36.7 z"
   id="path885" />
						<path
   class="st15"
   d="m 399.6,127.9 c -0.2,0 -0.4,-0.1 -0.5,-0.3 -1.1,-2.8 -2.1,-4.4 -4.7,-5.6 -0.3,-0.1 -0.4,-0.4 -0.3,-0.7 0.1,-0.3 0.4,-0.4 0.7,-0.3 2.9,1.3 4.1,3.2 5.3,6.2 0.1,0.3 0,0.6 -0.3,0.7 -0.1,0 -0.2,0 -0.2,0 z"
   id="path887" />
						<path
   class="st15"
   d="m 390.6,155.3 c -0.1,0 -0.2,0 -0.3,0 -0.3,0 -0.5,-0.2 -0.5,-0.5 0,-0.3 0.2,-0.5 0.5,-0.5 0,0 0,0 0,0 3,0.1 6,-0.5 8.3,-1 0.3,-0.1 0.6,0.1 0.6,0.4 0.1,0.3 -0.1,0.6 -0.4,0.6 -2.2,0.4 -5.2,1 -8.2,1 z"
   id="path889" />
						<path
   class="st17"
   d="m 354.5,107 c 0,0 3.9,8.8 9.5,13 l -7,8.3 c -4.7,-5.7 -7.7,-9.7 -8.5,-16.6 0,-0.1 4,-3.9 6,-4.7 z"
   id="path891" />
						<path
   class="st18"
   d="m 386.6,160.7 c -0.3,0 -0.5,-0.2 -0.5,-0.5 l -0.7,-18.6 c 0,-0.3 0.2,-0.5 0.5,-0.5 0.3,-0.1 0.5,0.2 0.5,0.5 l 0.7,18.6 c 0.1,0.2 -0.1,0.5 -0.5,0.5 0.1,0 0.1,0 0,0 z"
   id="path893" />
						<path
   class="st17"
   d="m 397.5,156.6 c 4.4,-1 8,-3.5 8,-3.5 l 0.3,5.1 c 0,0 -2.4,2.4 -7.7,3.7 -6.6,1.6 -12.2,0.6 -12.2,0.6 -0.2,-0.3 -0.4,-2.6 -0.2,-5.2 1.8,0.1 5.2,0.8 11.8,-0.7 z"
   id="path895" />
						<g
   id="g901">
							<path
   class="st15"
   d="m 369.7,169.4 c -0.1,0 -0.1,0 -0.2,0 -4.2,-1.5 -8.1,-3.8 -11.4,-6.9 -0.2,-0.2 -0.2,-0.5 0,-0.7 0.2,-0.2 0.5,-0.2 0.7,0 3.2,3 7,5.3 11,6.7 0.3,0.1 0.4,0.4 0.3,0.7 0.1,0 -0.1,0.2 -0.4,0.2 z"
   id="path897" />
							<path
   class="st15"
   d="m 367.4,173.1 c -0.1,0 -0.1,0 -0.2,0 -2.4,-0.7 -4.6,-2.3 -6.2,-4.3 -0.2,-0.2 -0.1,-0.6 0.1,-0.7 0.2,-0.2 0.6,-0.1 0.7,0.1 1.5,1.9 3.5,3.3 5.7,3.9 0.3,0.1 0.4,0.4 0.3,0.7 0,0.1 -0.2,0.3 -0.4,0.3 z"
   id="path899" />
						</g>
						<path
   class="st15"
   d="m 363.5,215.4 c -0.1,0 -0.2,0 -0.3,0 -17.5,-0.1 -33.1,-3.8 -33.3,-3.9 -0.3,-0.1 -0.5,-0.4 -0.4,-0.6 0.1,-0.3 0.4,-0.5 0.6,-0.4 0.2,0 15.7,3.8 33,3.9 0.1,0 0.2,0 0.3,0 17.3,0 34.5,-5 34.7,-5.1 0.3,-0.1 0.6,0.1 0.7,0.4 0.1,0.3 -0.1,0.6 -0.4,0.7 -0.1,-0.1 -17.5,5 -34.9,5 z"
   id="path903" />
						<path
   class="st15"
   d="m 336.5,153.9 c -1.9,0 -3.8,-0.2 -5.7,-0.6 -0.3,-0.1 -0.5,-0.3 -0.4,-0.6 0.1,-0.3 0.3,-0.5 0.6,-0.4 2.2,0.5 4.5,0.7 6.8,0.5 0.3,0 0.5,0.2 0.6,0.5 0,0.3 -0.2,0.5 -0.5,0.6 -0.4,0 -0.9,0 -1.4,0 z"
   id="path905" />
						<g
   id="g911">
							<path
   class="st15"
   d="m 333.4,207.8 c 0,0 0,0 0,0 -0.3,0 -0.5,-0.2 -0.5,-0.5 l 0.2,-16.6 c 0,-0.3 0.2,-0.5 0.5,-0.5 0,0 0,0 0,0 0.3,0 0.5,0.2 0.5,0.5 l -0.2,16.6 c 0.1,0.3 -0.2,0.5 -0.5,0.5 z"
   id="path907" />
							<path
   class="st15"
   d="m 336.1,209.2 c 0,0 0,0 0,0 -0.3,0 -0.5,-0.2 -0.5,-0.5 l 0.1,-6.5 c 0,-0.3 0.2,-0.5 0.5,-0.5 0,0 0,0 0,0 0.3,0 0.5,0.2 0.5,0.5 l -0.1,6.5 c 0,0.2 -0.2,0.5 -0.5,0.5 z"
   id="path909" />
						</g>
					</g>
				</g>
				<path
   class="st7"
   d="m 362.5,100.7 h -6 c -1.3,0 -2.4,-1.1 -2.4,-2.4 0,-1.3 1.1,-2.4 2.4,-2.4 h 6 c 1.3,0 2.4,1.1 2.4,2.4 0,1.3 -1.1,2.4 -2.4,2.4 z"
   id="path917" />
			</g>
			<g
   id="g995">
				<g
   id="g991">
					<g
   id="g925">
						<path
   class="st19"
   d="m 345.5,138.9 c -0.5,0 -0.9,-0.4 -0.9,-0.9 -0.1,-10.1 0.1,-22.3 1.4,-23.5 0.2,-0.2 0.5,-0.3 0.8,-0.3 0.5,0 0.8,0.5 0.8,0.9 0,0.3 -0.2,0.5 -0.4,0.6 -0.6,1.7 -1,12.4 -0.9,22.2 0.1,0.6 -0.3,1 -0.8,1 0,0 0,0 0,0 z m 1.2,-22.9 c 0,0 0,0 0,0 0,0 0,0 0,0 z"
   id="path921" />
						<path
   class="st19"
   d="m 303.9,138.9 c 0,0 0,0 0,0 -0.5,0 -0.9,-0.4 -0.9,-0.9 0.1,-9.7 -0.3,-20.5 -0.9,-22.2 -0.2,-0.1 -0.3,-0.4 -0.4,-0.6 0,-0.5 0.3,-0.9 0.8,-0.9 0.3,0 0.6,0.1 0.8,0.3 1.3,1.2 1.5,13.4 1.4,23.5 0.1,0.4 -0.3,0.8 -0.8,0.8 z M 302.7,116 Z"
   id="path923" />
					</g>
					<g
   id="g931">
						<path
   class="st9"
   d="m 324.1,109.8 c -0.4,0 -0.8,-0.3 -0.8,-0.8 v -5.5 c 0,-0.3 0.2,-0.6 0.5,-0.7 3.5,-1.4 4.4,-4 4,-5.9 -0.4,-1.9 -1.8,-3.1 -3.7,-3.1 -1.7,0 -3,1.1 -3.6,2.1 -0.4,0.8 -0.4,1.6 0,2.2 0.2,0.3 0.1,0.8 -0.2,1.1 -0.3,0.2 -0.8,0.1 -1.1,-0.2 -0.7,-1.1 -0.7,-2.5 0,-3.8 0.9,-1.8 2.9,-2.9 4.9,-2.9 2.6,0 4.7,1.7 5.2,4.3 0.4,2.3 -0.5,5.6 -4.5,7.4 v 5 c 0,0.4 -0.3,0.8 -0.7,0.8 z"
   id="path927" />
						<path
   class="st9"
   d="m 324.3,123.9 c -8.3,0 -16.1,-0.2 -21.8,-0.4 -10.6,-0.5 -10.6,-1.3 -10.6,-2.1 0,-0.6 0,-2.5 32.1,-13.1 0.1,0 0.2,0 0.2,0 h 0.2 c 0.1,0 0.2,0 0.2,0 32.1,10.6 32.1,12.5 32.1,13.1 0.1,0.8 0.1,2.5 -32.4,2.5 z M 294,121.2 c 7,1.7 53.8,1.7 60.8,0 -3.2,-1.9 -17.4,-7.1 -30.4,-11.4 -13.1,4.3 -27.3,9.4 -30.4,11.4 z"
   id="path929" />
					</g>
					<g
   id="g989">
						<path
   class="st19"
   d="m 343.9,267.4 c 0,0 6.6,-1.8 10,-3.8 2.8,-1.6 -2.9,-43.4 -2.9,-43.4 l -10,2.6 z"
   id="path933" />
						<path
   class="st20"
   d="m 300.6,137.9 c 0,0 0,0 0,0 -0.5,0 -0.9,-0.4 -0.9,-0.9 0.1,-6.8 0.7,-20.3 2.2,-22.4 0.3,-0.4 0.8,-0.5 1.2,-0.2 0.4,0.3 0.5,0.8 0.2,1.2 -0.8,1.1 -1.7,9.9 -1.9,21.4 0,0.5 -0.4,0.9 -0.8,0.9 z"
   id="path935" />
						<path
   class="st20"
   d="m 348.9,137.9 c -0.5,0 -0.8,-0.4 -0.9,-0.8 -0.2,-11.5 -1.1,-20.3 -1.9,-21.4 -0.3,-0.4 -0.2,-0.9 0.2,-1.2 0.4,-0.3 0.9,-0.2 1.2,0.2 1.5,2.1 2.1,15.6 2.2,22.4 0,0.4 -0.3,0.8 -0.8,0.8 0,0 0,0 0,0 z"
   id="path937" />
						<path
   class="st21"
   d="m 298.5,135.9 c 0,0 13.1,1 25.8,6.8 0,0 10.8,-5.6 27.2,-7.6 0,0 0.4,6 0,19.4 -0.3,10.2 3.9,40.6 4.6,65.4 0.7,24.8 0.8,35.4 1,44.2 0,0 -2.9,3.6 -5.2,3.2 0,0 -0.4,-38.5 -1.8,-38.4 -1.4,0.1 -1,39.3 -1,39.3 -3.4,2.9 -14.1,-0.4 -14.1,-0.4 -4.4,0.7 -14.4,6.7 -25.7,-0.6 0,0 -11.1,3.3 -15.2,-2.4 -2.4,-3.4 -0.2,-31.4 0.8,-50.2 1.2,-23.4 3.4,-50.4 3.6,-58.3 0.1,-4.5 -0.4,-17.8 0,-20.4 z"
   id="path939" />
						<path
   class="st22"
   d="m 324.7,163 c 15.9,-0.2 24.6,-2.6 26.9,-3.4 -0.1,-1.4 -0.1,-2.6 -0.1,-3.7 -2.8,0.4 -15.6,2.4 -27.2,2.5 -15.6,0.2 -25.8,-2.2 -25.8,-2.2 0,1 -0.1,2.4 -0.1,4 2.2,0.8 10.5,3 26.3,2.8 z"
   id="path941" />
						<g
   id="g959">
							<path
   class="st20"
   d="m 301.6,177.3 c 0,0 0,0 0,0 -0.4,0 -0.6,-0.3 -0.6,-0.6 0.5,-6.4 1.1,-11.7 1.1,-11.8 0,-0.3 0.3,-0.5 0.6,-0.5 0.3,0 0.5,0.3 0.5,0.6 0,0.1 -0.6,5.3 -1.1,11.7 0.1,0.4 -0.2,0.6 -0.5,0.6 z"
   id="path943" />
							<path
   class="st20"
   d="m 327,178.4 c 0,0 0,0 0,0 -0.3,0 -0.6,-0.3 -0.6,-0.6 0.1,-3.5 -0.5,-7.4 -0.9,-9.8 -0.3,1.2 -0.6,2.6 -0.6,3.5 0,0.3 -0.3,0.6 -0.6,0.6 -0.3,0 -0.6,-0.3 -0.6,-0.6 0,-2 1.2,-5.9 1.3,-6 0.1,-0.2 0.3,-0.4 0.6,-0.4 0.3,0 0.5,0.2 0.5,0.4 0.1,0.3 1.6,6.8 1.4,12.4 0,0.2 -0.2,0.5 -0.5,0.5 z"
   id="path945" />
							<path
   class="st20"
   d="m 320.3,170 c -0.3,0 -0.6,-0.3 -0.6,-0.6 0,-1.1 0.2,-2.3 0.5,-3.4 0.1,-0.3 0.4,-0.5 0.7,-0.4 0.3,0.1 0.5,0.4 0.4,0.7 -0.3,1 -0.5,2 -0.5,3 0.1,0.4 -0.2,0.7 -0.5,0.7 0,0 0,0 0,0 z"
   id="path947" />
							<path
   class="st20"
   d="m 335.3,174.4 c -0.3,0 -0.5,-0.2 -0.6,-0.5 l -1.3,-7.9 c -0.1,-0.3 0.2,-0.6 0.5,-0.7 0.3,0 0.6,0.2 0.7,0.5 l 1.3,7.9 c 0,0.4 -0.2,0.7 -0.6,0.7 0.1,0 0.1,0 0,0 z"
   id="path949" />
							<path
   class="st20"
   d="m 343.3,170.6 c -0.3,0 -0.5,-0.2 -0.6,-0.5 -0.2,-1.7 -0.6,-3.5 -1.2,-5.1 -0.1,-0.3 0,-0.6 0.3,-0.7 0.3,-0.1 0.6,0 0.7,0.3 0.7,1.7 1.1,3.5 1.3,5.4 0.1,0.3 -0.1,0.6 -0.5,0.6 0.1,0 0,0 0,0 z"
   id="path951" />
							<path
   class="st20"
   d="m 349.7,177.5 c -0.3,0 -0.5,-0.2 -0.6,-0.5 -0.3,-4.2 -0.9,-8.4 -1.7,-12.6 -0.1,-0.3 0.1,-0.6 0.4,-0.7 0.3,-0.1 0.6,0.1 0.7,0.4 0.9,4.2 1.4,8.5 1.8,12.7 0,0.4 -0.3,0.7 -0.6,0.7 0,0 0,0 0,0 z"
   id="path953" />
							<path
   class="st20"
   d="m 313.3,174.7 c 0,0 0,0 0,0 -0.3,0 -0.6,-0.3 -0.6,-0.6 0.1,-2.7 0.4,-5.4 0.9,-8 0.1,-0.3 0.4,-0.5 0.7,-0.5 0.3,0.1 0.5,0.4 0.5,0.7 -0.5,2.6 -0.8,5.2 -0.9,7.8 -0.1,0.4 -0.3,0.6 -0.6,0.6 z"
   id="path955" />
							<path
   class="st20"
   d="m 310.5,169.8 c 0,0 0,0 0,0 -0.3,0 -0.6,-0.3 -0.6,-0.6 0,-1.1 0.2,-2.3 0.4,-3.4 0.1,-0.3 0.4,-0.5 0.7,-0.4 0.3,0.1 0.5,0.4 0.4,0.7 -0.2,1.1 -0.3,2.1 -0.4,3.2 0,0.3 -0.2,0.5 -0.5,0.5 z"
   id="path957" />
						</g>
						<g
   id="g971">
							<path
   class="st20"
   d="m 334.9,267.9 c 0,0 0,0 0,0 -0.3,0 -0.6,-0.3 -0.6,-0.6 0.2,-12.4 0,-29.6 -0.8,-40.2 0,-0.3 0.2,-0.6 0.5,-0.6 0.3,0 0.6,0.2 0.6,0.5 0.8,10.6 1,27.9 0.8,40.3 0.1,0.4 -0.2,0.6 -0.5,0.6 z"
   id="path961" />
							<path
   class="st20"
   d="m 309.2,267.6 c 0,0 0,0 0,0 -0.3,0 -0.6,-0.3 -0.6,-0.6 0,-0.3 0.5,-30.3 1.6,-47.9 0,-0.3 0.3,-0.6 0.6,-0.5 0.3,0 0.6,0.3 0.5,0.6 -1.1,17.5 -1.6,47.5 -1.6,47.8 0.1,0.3 -0.2,0.6 -0.5,0.6 z"
   id="path963" />
							<path
   class="st20"
   d="m 331.7,265.9 c 0,0 0,0 0,0 -0.4,0 -0.6,-0.3 -0.6,-0.6 0,-0.1 0.6,-8.4 0,-15 0,-0.3 0.2,-0.6 0.5,-0.6 0.3,0 0.6,0.2 0.6,0.5 0.6,6.6 0,15.1 0,15.2 0.1,0.3 -0.2,0.5 -0.5,0.5 z"
   id="path965" />
							<path
   class="st20"
   d="m 306.2,263.5 c -0.3,0 -0.6,-0.3 -0.6,-0.6 v -8.4 c 0,-0.3 0.3,-0.6 0.6,-0.6 0.3,0 0.6,0.3 0.6,0.6 v 8.4 c 0,0.3 -0.3,0.6 -0.6,0.6 z"
   id="path967" />
							<path
   class="st20"
   d="m 338.2,266.8 c 0,0 0,0 0,0 -0.4,0 -0.6,-0.3 -0.6,-0.6 0,0 0.3,-3.8 0.2,-7.2 0,-0.3 0.2,-0.6 0.5,-0.6 0.3,0 0.6,0.2 0.6,0.5 0.2,3.5 -0.2,7.3 -0.2,7.4 0.1,0.3 -0.2,0.5 -0.5,0.5 z"
   id="path969" />
						</g>
						<path
   class="st22"
   d="m 294,265.4 c -0.2,0 -0.4,-0.1 -0.5,-0.2 -1.9,-2.7 -1.2,-17.8 0,-38.8 0.2,-4.1 0.5,-8.1 0.7,-11.8 0.6,-12.3 1.6,-25.7 2.3,-36.5 0.7,-10.1 1.2,-18 1.3,-21.8 0,-1.7 0,-4.8 -0.1,-8.1 -0.1,-5.3 -0.2,-10.7 0.1,-12.4 0,-0.3 0.3,-0.5 0.6,-0.5 0.3,0 0.5,0.3 0.5,0.6 -0.2,1.5 -0.1,7.2 -0.1,12.2 0.1,3.3 0.1,6.4 0.1,8.1 -0.1,3.8 -0.6,11.8 -1.3,21.8 -0.7,10.8 -1.7,24.2 -2.3,36.5 -0.2,3.7 -0.4,7.7 -0.7,11.8 -0.9,15.8 -2.1,35.5 -0.2,38.1 0.2,0.3 0.1,0.6 -0.1,0.8 0,0.1 -0.2,0.2 -0.3,0.2 z"
   id="path973" />
						<g
   id="g983">
							<path
   class="st20"
   d="m 333.2,151.5 c -0.2,0 -0.4,-0.1 -0.5,-0.3 -3.1,-5.4 -8.7,-8 -8.7,-8 -13.2,-6.1 -25.3,-6.7 -25.4,-6.7 -0.3,0 -0.6,-0.3 -0.5,-0.6 0,-0.3 0.3,-0.6 0.6,-0.5 0.1,0 12.4,0.7 25.8,6.8 0.2,0.1 6,2.8 9.2,8.5 0.2,0.3 0.1,0.6 -0.2,0.8 -0.1,-0.1 -0.2,0 -0.3,0 z"
   id="path975" />
							<path
   class="st20"
   d="m 324.3,143.2 c -0.2,0 -0.4,-0.1 -0.5,-0.3 -0.1,-0.3 0,-0.6 0.2,-0.8 0.1,-0.1 11.7,-6.1 27.1,-7.7 0.3,0 0.6,0.2 0.6,0.5 0,0.3 -0.2,0.6 -0.5,0.6 -15.2,1.6 -26.6,7.5 -26.7,7.5 -0.1,0.2 -0.1,0.2 -0.2,0.2 z"
   id="path977" />
							<path
   class="st20"
   d="m 307.3,155.4 c 0,0 0,0 0,0 -2.8,-0.1 -5.4,-1.7 -6.7,-4.2 -0.1,-0.3 0,-0.6 0.2,-0.8 0.3,-0.1 0.6,0 0.8,0.2 1.1,2.1 3.4,3.5 5.7,3.6 0.3,0 0.6,0.3 0.6,0.6 0,0.3 -0.3,0.6 -0.6,0.6 z"
   id="path979" />
							<path
   class="st20"
   d="m 343,154.3 c -0.3,0 -0.5,-0.2 -0.6,-0.5 0,-0.3 0.2,-0.6 0.5,-0.6 1.9,-0.2 3.6,-1.5 4.4,-3.2 0.1,-0.3 0.5,-0.4 0.8,-0.3 0.3,0.1 0.4,0.5 0.3,0.8 -1,2 -3.1,3.5 -5.4,3.8 0,0 0,0 0,0 z"
   id="path981" />
						</g>
						<path
   class="st20"
   d="m 321,271.3 c -3.6,0 -7.7,-0.9 -11.9,-3.5 -1.8,0.5 -11.6,2.9 -15.6,-2.7 -0.2,-0.3 -0.1,-0.6 0.1,-0.8 0.3,-0.2 0.6,-0.1 0.8,0.1 3.8,5.3 14.5,2.2 14.6,2.2 0.2,0 0.3,0 0.5,0.1 8.7,5.6 16.6,3.1 21.8,1.5 1.4,-0.4 2.5,-0.8 3.5,-0.9 0.1,0 0.2,0 0.2,0 2.9,0.9 11,2.7 13.6,0.5 0.2,-0.2 0.6,-0.2 0.8,0.1 0.2,0.2 0.2,0.6 -0.1,0.8 -3.4,2.9 -13.3,0.2 -14.6,-0.2 -0.8,0.1 -1.9,0.5 -3.2,0.9 -2.5,0.8 -6.2,1.9 -10.5,1.9 z"
   id="path985" />
						<path
   class="st20"
   d="m 352.1,267.8 c -0.1,0 -0.3,0 -0.4,0 -0.3,0 -0.5,-0.3 -0.5,-0.6 0,-0.3 0.3,-0.5 0.6,-0.5 1.7,0.2 4,-2.1 4.7,-3 0.2,-0.2 0.6,-0.3 0.8,-0.1 0.2,0.2 0.3,0.6 0.1,0.8 -0.2,0.3 -2.8,3.4 -5.3,3.4 z"
   id="path987" />
					</g>
				</g>
				<path
   class="st7"
   d="m 323.2,100.7 h -6 c -1.3,0 -2.4,-1.1 -2.4,-2.4 0,-1.3 1.1,-2.4 2.4,-2.4 h 6 c 1.3,0 2.4,1.1 2.4,2.4 0,1.3 -1,2.4 -2.4,2.4 z"
   id="path993" />
			</g>
		</g>
		<path
   class="st7"
   d="m 287.4,302.7 c -1.3,0 -2.4,-1.1 -2.4,-2.4 v -202 c 0,-1.3 1.1,-2.4 2.4,-2.4 1.3,0 2.4,1.1 2.4,2.4 v 202 c 0.1,1.3 -1,2.4 -2.4,2.4 z"
   id="path999" />
		<path
   class="st8"
   d="m 287.7,100.7 v 199.5 c 0,1 -0.6,1.8 -1.4,2.2 0.3,0.2 0.7,0.3 1.1,0.3 1.3,0 2.4,-1.1 2.4,-2.4 V 100.7 Z"
   id="path1001" />
		<path
   class="st7"
   d="M 442.6,302.9 H 277.1 c -1.7,0 -3.1,-1.4 -3.1,-3.1 0,-1.7 1.4,-3.1 3.1,-3.1 h 165.4 c 1.7,0 3.1,1.4 3.1,3.1 0.1,1.7 -1.3,3.1 -3,3.1 z"
   id="path1003" />
		<path
   class="st8"
   d="M 442.6,300.8 H 277.1 c -1.3,0 -2.4,-0.8 -2.9,-2 -0.1,0.3 -0.2,0.7 -0.2,1.1 0,1.7 1.4,3.1 3.1,3.1 h 165.4 c 1.7,0 3.1,-1.4 3.1,-3.1 0,-0.4 -0.1,-0.7 -0.2,-1.1 -0.4,1.1 -1.5,2 -2.8,2 z"
   id="path1005" />
		<g
   id="g1011">
			<path
   class="st14"
   d="m 286.2,285.6 c -0.3,0 -0.6,-0.3 -0.6,-0.6 v -37.8 c 0,-0.3 0.3,-0.6 0.6,-0.6 0.3,0 0.6,0.3 0.6,0.6 V 285 c 0,0.4 -0.2,0.6 -0.6,0.6 z"
   id="path1007" />
			<path
   class="st14"
   d="m 286.2,232.4 c -0.3,0 -0.6,-0.3 -0.6,-0.6 V 101 c 0,-0.3 0.3,-0.6 0.6,-0.6 0.3,0 0.6,0.3 0.6,0.6 v 130.8 c 0,0.3 -0.2,0.6 -0.6,0.6 z"
   id="path1009" />
		</g>
		<g
   id="g1017">
			<path
   class="st14"
   d="m 416.7,299.5 h -27.8 c -0.5,0 -0.9,-0.4 -0.9,-0.9 0,-0.5 0.4,-0.9 0.9,-0.9 h 27.8 c 0.5,0 0.9,0.4 0.9,0.9 0,0.5 -0.4,0.9 -0.9,0.9 z"
   id="path1013" />
			<path
   class="st14"
   d="m 377.5,299.5 h -96.2 c -0.5,0 -0.9,-0.4 -0.9,-0.9 0,-0.5 0.4,-0.9 0.9,-0.9 h 96.2 c 0.5,0 0.9,0.4 0.9,0.9 0,0.5 -0.4,0.9 -0.9,0.9 z"
   id="path1015" />
		</g>
	</g><g
   id="g1137"
   transform="matrix(0.63654865,0,0,0.59803033,25.600386,-51.298152)">
		<rect
   x="227.39999"
   y="140.39999"
   class="st27"
   width="134.3"
   height="178.5"
   id="rect1057" />
		<path
   class="st28"
   d="m 355.2,306.6 v -76.2 c -32.5,15.1 -62.5,45.2 -78,76.2 z"
   id="path1059" />
		<path
   class="st28"
   d="m 231.2,288.3 v -111 h 124.6 c -32.7,51.2 -74.1,88.5 -124.6,111 z"
   id="path1061" />
		<rect
   x="227.39999"
   y="165.7"
   class="st29"
   width="134.3"
   height="1.3"
   id="rect1063" />
		<rect
   x="227.39999"
   y="293.39999"
   class="st29"
   width="134.3"
   height="1.3"
   id="rect1065" />
		<g
   id="g1071">
			<path
   class="st30"
   d="m 302.7,173.2 h -17.5 c -0.7,0 -1.3,-0.6 -1.3,-1.3 0,-0.7 0.6,-1.3 1.3,-1.3 h 17.5 c 0.7,0 1.3,0.6 1.3,1.3 0,0.7 -0.6,1.3 -1.3,1.3 z"
   id="path1067" />
			<path
   class="st30"
   d="m 277.7,173.2 h -46.5 c -0.7,0 -1.3,-0.6 -1.3,-1.3 0,-0.7 0.6,-1.3 1.3,-1.3 h 46.5 c 0.7,0 1.3,0.6 1.3,1.3 0,0.7 -0.6,1.3 -1.3,1.3 z"
   id="path1069" />
		</g>
		<g
   id="g1077">
			<path
   class="st30"
   d="m 302.7,314.9 h -17.5 c -0.7,0 -1.3,-0.6 -1.3,-1.3 0,-0.7 0.6,-1.3 1.3,-1.3 h 17.5 c 0.7,0 1.3,0.6 1.3,1.3 0,0.7 -0.6,1.3 -1.3,1.3 z"
   id="path1073" />
			<path
   class="st30"
   d="m 277.7,314.9 h -46.5 c -0.7,0 -1.3,-0.6 -1.3,-1.3 0,-0.7 0.6,-1.3 1.3,-1.3 h 46.5 c 0.7,0 1.3,0.6 1.3,1.3 0,0.7 -0.6,1.3 -1.3,1.3 z"
   id="path1075" />
		</g>
		<path
   class="st29"
   d="m 265.5,162.7 h -35.2 c -0.4,0 -0.7,-0.3 -0.7,-0.7 v -18.2 c 0,-0.4 0.3,-0.7 0.7,-0.7 h 13.2 c 0.3,0 0.5,0.2 0.6,0.4 0.5,1.5 2,2.5 3.8,2.5 1.8,0 3.2,-1 3.8,-2.5 0.1,-0.3 0.3,-0.4 0.6,-0.4 h 13.2 c 0.4,0 0.7,0.3 0.7,0.7 V 162 c 0,0.4 -0.3,0.7 -0.7,0.7 z M 231,161.3 h 33.8 v -16.9 h -12.1 c -0.8,1.8 -2.7,3 -4.8,3 -2.1,0 -4,-1.2 -4.8,-3 H 231 Z"
   id="path1079" />
		<g
   id="g1085">
			<path
   class="st31"
   d="m 294.5,148.4 c -3,0.1 -5.1,2.1 -5.3,5.3 -0.1,2.3 1.4,5.5 5.3,5.6 3.6,0.1 5.6,-2.4 5.5,-5.6 -0.1,-3.3 -2.5,-5.4 -5.5,-5.3 z"
   id="path1081" />
			<path
   class="st32"
   d="m 294.5,150.2 c -2,0.1 -3.4,1.4 -3.5,3.5 -0.1,1.5 0.9,3.6 3.5,3.7 2.4,0.1 3.7,-1.6 3.7,-3.7 -0.1,-2.1 -1.7,-3.6 -3.7,-3.5 z"
   id="path1083" />
		</g>
		<g
   id="g1097">
			<rect
   x="323.29999"
   y="149.3"
   class="st9"
   width="30.799999"
   height="9.1999998"
   id="rect1087" />
			<g
   id="g1095">
				<rect
   x="326.20001"
   y="151.7"
   class="st20"
   width="5"
   height="4.4000001"
   id="rect1089" />
				<rect
   x="333.29999"
   y="151.7"
   class="st23"
   width="5"
   height="4.4000001"
   id="rect1091" />
				<rect
   x="340.39999"
   y="151.7"
   class="st17"
   width="5"
   height="4.4000001"
   id="rect1093" />
			</g>
		</g>
		<g
   id="g1105">
			<path
   class="st31"
   d="m 287,146.6 c -1,0 -1.6,0.7 -1.7,1.7 0,0.7 0.4,1.7 1.7,1.8 1.2,0 1.8,-0.8 1.7,-1.8 0,-1.1 -0.7,-1.7 -1.7,-1.7 z"
   id="path1099" />
			<path
   class="st31"
   d="m 287,157.6 c -1,0 -1.6,0.7 -1.7,1.7 0,0.7 0.4,1.7 1.7,1.8 1.2,0 1.8,-0.8 1.7,-1.8 0,-1.1 -0.7,-1.8 -1.7,-1.7 z"
   id="path1101" />
			<path
   class="st31"
   d="m 284.9,152.1 c -1,0 -1.6,0.7 -1.7,1.7 0,0.7 0.4,1.7 1.7,1.8 1.2,0 1.8,-0.8 1.7,-1.8 0,-1 -0.8,-1.7 -1.7,-1.7 z"
   id="path1103" />
		</g>
		<g
   id="g1113">
			<path
   class="st31"
   d="m 300.3,148.3 c 0,1 0.6,1.8 1.7,1.8 1.2,0 1.7,-1 1.7,-1.8 -0.1,-1 -0.7,-1.6 -1.7,-1.7 -1,0 -1.7,0.6 -1.7,1.7 z"
   id="path1107" />
			<path
   class="st31"
   d="m 300.3,159.2 c 0,1 0.6,1.8 1.7,1.8 1.2,0 1.7,-1 1.7,-1.8 -0.1,-1 -0.7,-1.6 -1.7,-1.7 -1,0 -1.7,0.7 -1.7,1.7 z"
   id="path1109" />
			<path
   class="st31"
   d="m 302.4,153.8 c 0,1 0.6,1.8 1.7,1.8 1.2,0 1.7,-1 1.7,-1.8 -0.1,-1 -0.7,-1.6 -1.7,-1.7 -0.9,0 -1.7,0.7 -1.7,1.7 z"
   id="path1111" />
		</g>
		<path
   class="st28"
   d="m 234.4,148.3 v 10.5 c 11.3,0 20.5,-3.2 27.1,-10.5 z"
   id="path1115" />
		<g
   id="g1131">
			<path
   class="st31"
   d="m 293.8,191.7 c -24.9,1.1 -42.2,17.6 -43.5,43.9 -1,19.2 11.4,45.2 43.5,46.4 29.9,1.1 45.7,-20.2 45.2,-46.4 -0.6,-27.5 -20.6,-45 -45.2,-43.9 z"
   id="path1117" />
			<path
   class="st33"
   d="m 293.3,194 c -23.3,1.1 -39.6,16.3 -40.8,40.8 -0.9,17.9 10.7,42.1 40.8,43.1 28,1 42.8,-18.7 42.3,-43.1 C 335.1,209.3 316.4,193 293.3,194 Z"
   id="path1119" />
			<path
   class="st34"
   d="m 332.3,241 c -1.8,-17.3 -15.2,-28 -31.4,-27.1 -17.2,0.9 -29.1,12.4 -29.9,30.4 -0.3,6.8 1.9,14.8 7.1,21.1 5.1,3.5 11.6,5.9 19.8,6.1 21.1,0.5 32.9,-13 34.4,-30.5 z"
   id="path1121" />
			<path
   class="st9"
   d="m 328.2,255.7 -11.9,-2 c 0,0 -2.9,-6.6 -2.9,-17.4 0,-10.8 2.9,-18.1 2.9,-18.1 l 11.9,-2 z"
   id="path1123" />
			<path
   class="st9"
   d="M 335.6,234.8 C 335.1,209.3 316.3,193 293.3,194 c -23.3,1.1 -39.6,16.3 -40.8,40.8 -0.9,17.9 10.7,42.1 40.8,43.1 28,1 42.8,-18.7 42.3,-43.1 z m -42.1,33.4 c -23.1,-0.8 -32,-19.4 -31.3,-33.1 0.9,-18.8 13.4,-30.5 31.3,-31.3 17.7,-0.8 32.1,11.7 32.5,31.3 0.4,18.7 -11,33.9 -32.5,33.1 z"
   id="path1125" />
			<path
   class="st35"
   d="m 310.7,215.7 c -4.6,-3.9 -10.6,-5.9 -17.3,-5.6 -14.3,0.6 -24.3,10 -25,25 -0.3,6 1.7,13.2 6.6,18.5 22.2,-1.6 34.6,-17.7 35.7,-37.9 z"
   id="path1127" />
			<path
   class="st35"
   d="m 298.3,275.2 c -0.5,0 -1,-0.4 -1,-0.9 0,-0.5 0.4,-1 0.9,-1.1 15.5,-1 26.8,-9.9 31.1,-24.4 0.2,-0.5 0.7,-0.8 1.2,-0.7 0.5,0.2 0.8,0.7 0.7,1.2 -4.5,15.4 -16.5,24.9 -32.9,25.9 0,0 0,0 0,0 z m -37.7,-19.4 c -0.4,0 -0.7,-0.2 -0.9,-0.5 -2,-3.8 -3.4,-7.9 -4.1,-12.2 -0.1,-0.5 0.3,-1.1 0.8,-1.1 0.5,-0.1 1.1,0.3 1.1,0.8 0.7,4.1 2,8 3.9,11.6 0.3,0.5 0.1,1.1 -0.4,1.3 -0.1,0.1 -0.2,0.1 -0.4,0.1 z m -4.4,-19.9 c -0.1,0 -0.1,0 0,0 -0.6,0 -1,-0.5 -1,-1 1,-20.3 13.7,-34.7 33,-37.7 0.5,-0.1 1.1,0.3 1.1,0.8 0.1,0.5 -0.3,1.1 -0.8,1.1 -18.6,2.8 -30.3,16.2 -31.3,35.8 -0.1,0.6 -0.5,1 -1,1 z"
   id="path1129" />
		</g>
		<path
   class="st29"
   d="M 361.7,319.6 H 227.4 v -1.3 H 361.1 V 140.4 h 1.3 v 178.5 c 0,0.4 -0.3,0.7 -0.7,0.7 z"
   id="path1133" />
		<path
   class="st30"
   d="m 324.4,300.3 h -93.2 c -0.7,0 -1.3,-0.6 -1.3,-1.3 0,-0.7 0.6,-1.3 1.3,-1.3 h 93.2 c 0.7,0 1.3,0.6 1.3,1.3 0,0.7 -0.6,1.3 -1.3,1.3 z"
   id="path1135" />
	</g><g
   id="g1215"
   transform="matrix(0.63076688,0,0,0.67587393,-32.552122,-68.531418)">
		<path
   class="st20"
   d="m 516,269.9 c -4.6,-7.9 -17.5,-14.1 -17.5,-14.1 h -17.9 c 0,0 -5.7,7.7 -5.7,13.8 v 44.6 c 0,2.3 1.8,4.1 4.1,4.1 h 36.2 c 2.2,0 4,-1.7 4.1,-3.9 0.5,-10.6 -0.4,-39.6 -3.3,-44.5 z m -4.8,16.8 c -1.1,0.9 -9.3,-7 -10.5,-9.1 -1.3,-2.1 -1.4,-11.6 -0.4,-12 1.6,-0.5 8.4,5.7 9.8,8.2 1.4,2.5 2.2,12 1.1,12.9 z"
   id="path1179" />
		<polygon
   class="st32"
   points="482.4,310.4 482.4,283.4 493.9,283.4 509.5,297.6 509.5,310.4 "
   id="polygon1181" />
		<path
   class="st19"
   d="M 515.2,319.1 H 479 c -0.4,0 -0.8,-0.4 -0.8,-0.8 0,-0.4 0.4,-0.8 0.8,-0.8 h 36.2 c 1.8,0 3.2,-1.4 3.3,-3.1 0.5,-10.4 -0.4,-39.4 -3.2,-44.1 -4.5,-7.6 -17,-13.7 -17.2,-13.8 -0.4,-0.2 -0.6,-0.7 -0.4,-1.1 0.2,-0.4 0.7,-0.6 1.1,-0.4 0.5,0.3 13.1,6.4 17.8,14.4 3.1,5.2 3.9,34.5 3.4,45 0,2.6 -2.1,4.7 -4.8,4.7 z"
   id="path1183" />
		<polygon
   class="st37"
   points="482.3,250.1 483.4,241.8 496,241.8 497,250.1 "
   id="polygon1185" />
		<polygon
   class="st7"
   points="491.7,250.1 491.4,241.8 496,241.8 497,250.1 "
   id="polygon1187" />
		<rect
   x="479"
   y="249.10001"
   class="st37"
   width="21.299999"
   height="7"
   id="rect1189" />
		<rect
   x="490"
   y="249.10001"
   class="st7"
   width="10.3"
   height="7"
   id="rect1191" />
		<g
   id="g1197">
			<path
   class="st21"
   d="m 478,269.9 c -0.1,0 -0.1,0 0,0 -0.5,0 -0.8,-0.4 -0.8,-0.9 0.6,-5.4 4.1,-10.1 4.2,-10.3 0.3,-0.3 0.8,-0.4 1.1,-0.2 0.3,0.3 0.4,0.8 0.2,1.1 0,0 -3.4,4.6 -3.9,9.5 -0.1,0.5 -0.4,0.8 -0.8,0.8 z"
   id="path1193" />
			<path
   class="st21"
   d="m 477.7,279.8 c -0.4,0 -0.8,-0.4 -0.8,-0.8 v -5.4 c 0,-0.4 0.4,-0.8 0.8,-0.8 0.4,0 0.8,0.4 0.8,0.8 v 5.4 c 0,0.4 -0.4,0.8 -0.8,0.8 z"
   id="path1195" />
		</g>
		<path
   class="st21"
   d="m 477.7,314.9 c -0.4,0 -0.8,-0.4 -0.8,-0.8 v -10.7 c 0,-0.4 0.4,-0.8 0.8,-0.8 0.4,0 0.8,0.4 0.8,0.8 v 10.7 c 0,0.4 -0.4,0.8 -0.8,0.8 z"
   id="path1199" />
		<g
   id="g1205">
			<path
   class="st3"
   d="m 486.8,251.8 h -5.6 c -0.4,0 -0.8,-0.4 -0.8,-0.8 0,-0.4 0.4,-0.8 0.8,-0.8 h 5.6 c 0.4,0 0.8,0.4 0.8,0.8 0,0.5 -0.3,0.8 -0.8,0.8 z"
   id="path1201" />
			<path
   class="st3"
   d="m 485.4,248.5 c -0.1,0 -0.1,0 0,0 -0.5,-0.1 -0.8,-0.5 -0.8,-0.9 l 0.5,-4.3 c 0.1,-0.4 0.5,-0.7 0.9,-0.7 0.4,0.1 0.7,0.4 0.7,0.9 l -0.5,4.3 c -0.1,0.4 -0.4,0.7 -0.8,0.7 z"
   id="path1203" />
		</g>
		<g
   id="g1213">
			<polygon
   class="st21"
   points="493.1,287.4 485.6,287.4 485.6,296 502.5,296 "
   id="polygon1207" />
			<rect
   x="485.60001"
   y="298.70001"
   class="st21"
   width="20.1"
   height="2.9000001"
   id="rect1209" />
			<rect
   x="485.60001"
   y="304.20001"
   class="st21"
   width="20.1"
   height="2.9000001"
   id="rect1211" />
		</g>
	</g></svg>
