<?xml version="1.0" encoding="UTF-8" standalone="no"?>
<!-- Created with Inkscape (http://www.inkscape.org/) -->

<svg
   width="300"
   height="150"
   viewBox="0 0 79.374998 39.687501"
   version="1.1"
   id="svg1868"
   inkscape:version="1.1 (c68e22c387, 2021-05-23)"
   sodipodi:docname="dessin.svg"
   xmlns:inkscape="http://www.inkscape.org/namespaces/inkscape"
   xmlns:sodipodi="http://sodipodi.sourceforge.net/DTD/sodipodi-0.dtd"
   xmlns:xlink="http://www.w3.org/1999/xlink"
   xmlns="http://www.w3.org/2000/svg"
   xmlns:svg="http://www.w3.org/2000/svg">
  <sodipodi:namedview
     id="namedview1870"
     pagecolor="#505050"
     bordercolor="#eeeeee"
     borderopacity="1"
     inkscape:pageshadow="0"
     inkscape:pageopacity="0"
     inkscape:pagecheckerboard="0"
     inkscape:document-units="mm"
     showgrid="false"
     units="px"
     inkscape:zoom="2.5941639"
     inkscape:cx="78.445315"
     inkscape:cy="68.808298"
     inkscape:window-width="1920"
     inkscape:window-height="1001"
     inkscape:window-x="-9"
     inkscape:window-y="-9"
     inkscape:window-maximized="1"
     inkscape:current-layer="layer1" />
  <defs
     id="defs1865">
    <linearGradient
       inkscape:collect="always"
       id="linearGradient21047">
      <stop
         style="stop-color:#00ffff;stop-opacity:1"
         offset="0"
         id="stop21043" />
      <stop
         style="stop-color:#ececec;stop-opacity:1"
         offset="1"
         id="stop21045" />
    </linearGradient>
    <inkscape:path-effect
       effect="spiro"
       id="path-effect15651"
       is_visible="true"
       lpeversion="1" />
    <linearGradient
       inkscape:collect="always"
       xlink:href="#linearGradient21047"
       id="linearGradient21049"
       x1="34.801815"
       y1="-13.008603"
       x2="34.927036"
       y2="17.854794"
       gradientUnits="userSpaceOnUse" />
  </defs>
  <g
     inkscape:label="Calque 1"
     inkscape:groupmode="layer"
     id="layer1">
    <rect
       style="opacity:0.990228;fill:url(#linearGradient21049);fill-opacity:1;stroke:none;stroke-width:0;stroke-linecap:round;stroke-linejoin:round;stroke-miterlimit:4;stroke-dasharray:none;stroke-opacity:1;paint-order:stroke fill markers"
       id="rect20865"
       width="80.629112"
       height="39.95396"
       x="-0.79330969"
       y="-0.14423813" />
    <path
       style="fill:#178066;fill-opacity:1;stroke:#178066;stroke-width:0.93837;stroke-linecap:butt;stroke-linejoin:miter;stroke-miterlimit:4;stroke-dasharray:none;stroke-opacity:1"
       d="m 52.051561,29.939066 4.65796,6.239215"
       id="path15649"
       inkscape:path-effect="#path-effect15651"
       inkscape:original-d="m 52.051561,29.939066 c 1.552975,2.080123 3.105632,4.159861 4.65796,6.239215" />
    <path
       d="m 28.127522,28.413838 h 24.517699 v 2.094348 c 0,0.469911 -0.153587,0.920668 -0.426649,1.253084 -0.273355,0.332053 -0.644049,0.518797 -1.030487,0.518797 H 28.127522 Z"
       fill="#ea474f"
       id="path19-5"
       style="fill:#ff7f2a;fill-opacity:1;stroke-width:0.32136" />
    <path
       d="M 28.313189,28.413838 H 3.6622838 v 4.078849 H 28.796102 Z"
       fill="#ea474f"
       id="path21-7"
       style="fill:#ff7f2a;fill-opacity:1;stroke-width:0.32136"
       sodipodi:nodetypes="ccccc" />
    <path
       d="M 51.989504,30.352274 H 5.5303259 v 2.601111 H 51.989504 Z"
       fill="#434343"
       id="path23-38"
       style="fill:#178066;fill-opacity:1;stroke-width:0.32136" />
    <path
       d="M 5.5682177,29.863235 H 3.4612042 c -0.1698982,0 -0.3331028,0.0821 -0.4534522,0.228356 -0.1200729,0.146218 -0.1876919,0.344665 -0.1876919,0.551275 v 1.530895 c 0,0.206602 0.067631,0.405026 0.1876919,0.55141 0.1203494,0.146003 0.283554,0.228214 0.4534522,0.228214 h 2.1070135 c 0.1701867,0 0.3330933,-0.08224 0.4534564,-0.228214 0.1200737,-0.146384 0.1876828,-0.344808 0.1876828,-0.55141 v -1.530895 c 0,-0.20661 -0.06763,-0.405057 -0.1876828,-0.551275 C 5.901311,29.945375 5.7384044,29.863235 5.5682177,29.863235 Z"
       fill="#c9e3fc"
       id="path25-9"
       style="stroke-width:0.32136" />
    <path
       d="m 5.5303259,29.969508 h -2.063293 c -0.1256131,0 -0.2273204,0.12376 -0.2273204,0.276413 v 0.02839 c 0,0.15278 0.1016671,0.27646 0.2273204,0.27646 h 2.063293 c 0.1256042,0 0.2273094,-0.123624 0.2273094,-0.27646 v -0.02839 c 0,-0.15263 -0.101665,-0.276413 -0.2273094,-0.276413 z"
       fill="#ffffff"
       id="path27-1"
       style="stroke-width:0.32136" />
    <path
       d="m 26.772394,33.888935 h -9.908491 c -0.142218,0 -0.278613,-0.06872 -0.379155,-0.191015 -0.100562,-0.12228 -0.157074,-0.288117 -0.157074,-0.46103 v -0.70876 c 0,-0.172938 0.05651,-0.338782 0.157074,-0.461038 0.100563,-0.122287 0.236937,-0.191007 0.379155,-0.191007 h 9.908491 c 0.14222,0 0.278602,0.06872 0.379141,0.191007 0.100563,0.122288 0.157079,0.2881 0.157079,0.461038 v 0.70876 c 0,0.172913 -0.05651,0.338766 -0.157079,0.46103 -0.100561,0.122287 -0.236921,0.191015 -0.379141,0.191015 z"
       fill="#c9e3fc"
       id="path29-8"
       style="stroke-width:0.32136" />
    <path
       d="m 22.963448,31.964662 h -5.924686 c -0.140186,0 -0.253547,0.137857 -0.253547,0.308321 v 0.03543 c 0,0.1701 0.113361,0.308297 0.253547,0.308297 h 5.924686 c 0.139881,0 0.253542,-0.138197 0.253542,-0.308297 v -0.03543 c 0,-0.170464 -0.113661,-0.308321 -0.253542,-0.308321 z"
       fill="#ffffff"
       id="path31-6"
       style="stroke-width:0.32136" />
    <path
       d="m 23.948474,32.616714 h 0.44879 c 0.140178,0 0.253545,-0.13785 0.253545,-0.308297 v -0.03558 c 0,-0.17009 -0.113367,-0.308289 -0.253545,-0.308289 h -0.44879 c -0.139881,0 -0.253542,0.138199 -0.253542,0.308289 v 0.03558 c 0,0.170447 0.113661,0.308297 0.253542,0.308297 z"
       fill="#ffffff"
       id="path33-3"
       style="stroke-width:0.32136" />
    <path
       d="M 27.830274,24.767321 H 3.6622838 v 3.642973 H 27.830274 Z"
       fill="#ff6a6c"
       id="path35-8"
       style="fill:#178066;fill-opacity:1;stroke-width:0.32136" />
    <path
       d="M 27.836099,24.767321 H 3.6622838 c -2.364e-4,-0.499458 0.080186,-0.994124 0.2372241,-1.455663 0.157073,-0.461529 0.3873034,-0.880904 0.6778563,-1.234114 0.290266,-0.353167 0.6353033,-0.633233 1.0147476,-0.824168 0.3797235,-0.190902 0.7865599,-0.288953 1.1971804,-0.288479 H 27.836099 Z"
       fill="#ff6a6c"
       id="path37-2"
       style="fill:#178066;fill-opacity:1;stroke-width:0.32136" />
    <path
       d="m 15.453392,32.290703 c -0.02882,-1.321114 -0.480563,-2.57669 -1.259247,-3.498852 -0.778694,-0.922194 -1.822588,-1.438216 -2.909597,-1.438216 -1.087031,0 -2.1309208,0.516022 -2.9096037,1.438216 -0.7786962,0.922162 -1.2304018,2.177738 -1.2592597,3.498852 v 0.326011 h 8.3114824 c 0.02036,-0.106345 0.02618,-0.216154 0.02618,-0.326011 z"
       fill="#d83f4e"
       id="path39-0"
       style="fill:#ff7f2a;fill-opacity:1;stroke-width:0.32136" />
    <path
       d="m 11.286002,37.003891 c 2.140518,0 3.875968,-2.110314 3.875968,-4.713188 0,-0.898441 -0.206739,-1.738164 -0.565516,-2.452674 -0.09256,-0.184334 -0.195239,-0.360335 -0.307098,-0.52686 -0.710785,-1.058146 -1.79223,-1.733692 -3.003354,-1.733692 -2.140526,0 -3.8759731,2.110164 -3.8759731,4.713226 0,2.602874 1.7354471,4.713188 3.8759731,4.713188 z"
       fill="#434343"
       id="path41-1"
       style="stroke-width:0.32136"
       sodipodi:nodetypes="sssssss" />
    <path
       d="m 11.286002,36.568001 c 1.94264,0 3.517512,-1.915045 3.517512,-4.277298 0,-2.362259 -1.574872,-4.277305 -3.517512,-4.277305 -1.9426496,0 -3.517518,1.915046 -3.517518,4.277305 0,2.362253 1.5748684,4.277298 3.517518,4.277298 z"
       fill="#666666"
       id="path43-9"
       style="stroke-width:0.32136" />
    <path
       d="m 11.286002,35.14341 c 1.295685,0 2.345982,-1.277155 2.345982,-2.852707 0,-1.57556 -1.050297,-2.852755 -2.345982,-2.852755 -1.2956886,0 -2.3459906,1.277195 -2.3459906,2.852755 0,1.575552 1.050302,2.852707 2.3459906,2.852707 z"
       fill="#434343"
       id="path45-44"
       style="stroke-width:0.32136" />
    <path
       d="m 11.286002,34.668549 c 1.080026,0 1.955464,-1.064544 1.955464,-2.377846 0,-1.313318 -0.875438,-2.37787 -1.955464,-2.37787 -1.080034,0 -1.9554723,1.064552 -1.9554723,2.37787 0,1.313302 0.8754383,2.377846 1.9554723,2.377846 z"
       fill="#c9e3fc"
       id="path47-9"
       style="stroke-width:0.32136" />
    <path
       d="m 11.286002,33.240416 c 0.431304,0 0.781019,-0.425247 0.781019,-0.949713 0,-0.524482 -0.349715,-0.949737 -0.781019,-0.949737 -0.43131,0 -0.781018,0.425255 -0.781018,0.949737 0,0.524466 0.349708,0.949713 0.781018,0.949713 z"
       fill="#26272b"
       id="path49-3"
       style="stroke-width:0.32136" />
    <path
       d="m 26.530504,12.013373 h -7.556682 c -0.634136,-7.19e-4 -1.259541,0.182829 -1.823453,0.536134 -0.563613,0.353285 -1.049717,0.86575 -1.417209,1.494437 l -4.024589,6.920953 h 16.127528 v -7.367463 c 0,-0.208302 -0.03381,-0.41458 -0.09935,-0.607011 -0.06553,-0.192432 -0.162024,-0.367198 -0.283263,-0.514325 -0.121233,-0.147149 -0.265196,-0.26374 -0.423444,-0.343154 -0.15853,-0.07943 -0.328141,-0.120008 -0.499505,-0.11961 z"
       fill="#ff6a6c"
       id="path51-7"
       style="fill:#178066;fill-opacity:1;stroke-width:0.32136" />
    <path
       d="m 24.184527,20.649487 v -7.052053 c -10e-4,-0.08344 -0.02832,-0.163051 -0.077,-0.222016 -0.04835,-0.05888 -0.113942,-0.09241 -0.182432,-0.09335 h -4.95425 c -0.467445,3.66e-4 -0.928194,0.137289 -1.343477,0.398707 -0.415278,0.261388 -0.772861,0.639892 -1.043296,1.103834 l -3.642841,5.864911 z"
       fill="#558a89"
       id="path53-4"
       style="fill:#c9e3fc;fill-opacity:1;stroke-width:0.32136" />
    <path
       d="m 25.909768,20.649487 c -0.198746,0 -0.389055,-0.09589 -0.529521,-0.26674 -0.140469,-0.170808 -0.219446,-0.402457 -0.219446,-0.64399 V 14.19279 c 0,-0.241544 0.07898,-0.473152 0.219446,-0.643966 0.140466,-0.17082 0.330775,-0.26678 0.529521,-0.26678 0.09935,-0.0015 0.197876,0.02036 0.290267,0.06521 0.09208,0.04482 0.176022,0.111696 0.246835,0.196451 0.07082,0.08479 0.127063,0.185802 0.165527,0.297224 0.03822,0.111434 0.05793,0.231048 0.05793,0.351823 v 5.545973 c 0,0.241534 -0.07898,0.473185 -0.219442,0.643993 -0.14047,0.170812 -0.330766,0.266744 -0.529512,0.266744 z"
       fill="#ea474f"
       id="path55-8"
       style="fill:#176947;fill-opacity:1;stroke-width:0.32136" />
    <path
       d="m 13.017078,18.193675 h -0.04371 c -0.212451,0 -0.384685,0.209401 -0.384685,0.467771 v 3.182287 c 0,0.258333 0.172234,0.467765 0.384685,0.467765 h 0.04371 c 0.212447,0 0.384678,-0.209432 0.384678,-0.467765 v -3.182287 c 0,-0.25837 -0.172231,-0.467771 -0.384678,-0.467771 z"
       fill="#434343"
       id="path57-2"
       style="stroke-width:0.32136" />
    <path
       d="m 12.428393,20.252594 h -0.0379 c -0.178649,0 -0.323486,0.176128 -0.323486,0.393356 v 0.322478 c 0,0.217271 0.144837,0.393354 0.323486,0.393354 h 0.0379 c 0.178647,0 0.323472,-0.176083 0.323472,-0.393354 V 20.64595 c 0,-0.217228 -0.144825,-0.393356 -0.323472,-0.393356 z"
       fill="#434343"
       id="path59-9"
       style="stroke-width:0.32136" />
    <path
       d="m 6.6260902,24.675153 c 0,-0.146599 -0.047785,-0.287231 -0.133177,-0.390878 C 6.4077725,24.18061 6.2921149,24.122332 6.1714636,24.122332 H 5.3234205 v 2.431009 C 5.6876923,26.477271 6.0184722,26.247117 6.2568589,25.903447 6.495239,25.55978 6.625799,25.124749 6.6260902,24.675153 Z"
       fill="#ffb942"
       id="path61-2"
       style="stroke-width:0.32136" />
    <path
       d="m 3.7089112,24.129441 v 2.459367 h 1.3522212 c 0.088884,-3.08e-4 0.1774757,-0.0094 0.2651953,-0.02839 V 24.1294 Z"
       fill="#ffffff"
       id="path63-0"
       style="stroke-width:0.32136" />
    <path
       d="m 23.190763,22.867883 h -1.85639 c -0.17048,0 -0.308901,0.16818 -0.308901,0.375631 v 0.04249 c 0,0.207435 0.138421,0.37562 0.308901,0.37562 h 1.85639 c 0.170485,0 0.308915,-0.168185 0.308915,-0.37562 v -0.04249 c 0,-0.207451 -0.13843,-0.375631 -0.308915,-0.375631 z"
       fill="#666666"
       id="path65-2"
       style="stroke-width:0.32136" />
    <g
       id="g20841"
       transform="matrix(0.88604514,0,0,0.63402416,-0.29136194,15.704628)">
      <path
         class="st9"
         d="m 40.893641,0.03283029 c 0,0.11758842 -0.0819,0.20158018 -0.196571,0.20158018 h -4.078855 c -0.114666,0 -0.196571,-0.0839918 -0.196571,-0.20158018 V -5.2754478 c 0,-0.1175884 0.0819,-0.2015802 0.196571,-0.2015802 h 4.078855 c 0.114666,0 0.196571,0.083992 0.196571,0.2015802 z"
         id="path68"
         style="fill:#4d5256;stroke-width:0.165883" />
      <path
         class="st9"
         d="m 46.807161,0.03283029 c 0,0.11758842 -0.0819,0.20158018 -0.196571,0.20158018 h -4.078855 c -0.114666,0 -0.196571,-0.0839918 -0.196571,-0.20158018 V -5.2754478 c 0,-0.1175884 0.0819,-0.2015802 0.196571,-0.2015802 h 4.078855 c 0.114666,0 0.196571,0.083992 0.196571,0.2015802 z"
         id="path70"
         style="fill:#4d5256;stroke-width:0.165883" />
      <path
         class="st0"
         d="m 36.749263,11.5229 h -0.622476 c -0.163809,0 -0.294857,0.134387 -0.294857,0.302371 v 0.70553 c 0,0.167984 0.131048,0.302371 0.294857,0.302371 h 0.622476 c 0.163809,0 0.294857,-0.134387 0.294857,-0.302371 v -0.70553 c 0,-0.167984 -0.131048,-0.302371 -0.294857,-0.302371 z"
         id="path74"
         style="fill:#4c5155;stroke-width:0.165883" />
      <path
         class="st0"
         d="m 47.331352,11.5229 h -0.622476 c -0.16381,0 -0.294857,0.134387 -0.294857,0.302371 v 0.70553 c 0,0.167984 0.131047,0.302371 0.294857,0.302371 h 0.622476 c 0.163809,0 0.294857,-0.134387 0.294857,-0.302371 v -0.70553 c 0,-0.167984 -0.131048,-0.302371 -0.294857,-0.302371 z"
         id="path76"
         style="fill:#4c5155;stroke-width:0.165883" />
      <path
         class="st1"
         d="m 48.461637,11.556497 c 0,0.335967 -0.262096,0.604741 -0.589714,0.604741 H 35.569835 c -0.327619,0 -0.589714,-0.268774 -0.589714,-0.604741 V -4.4691271 c 0,-0.3359669 0.262095,-0.6047405 0.589714,-0.6047405 h 12.302088 c 0.327618,0 0.589714,0.2687736 0.589714,0.6047405 z"
         id="path80"
         style="fill:#b8c7d8;stroke-width:0.165883" />
      <path
         class="st2"
         d="m 34.980121,11.556497 c 0,0.335967 0.262095,0.604741 0.589714,0.604741 h 12.302088 c 0.327618,0 0.589714,-0.268774 0.589714,-0.604741 V -4.4691271 Z"
         id="path82"
         style="fill:#a3b5c6;stroke-width:0.165883" />
      <path
         class="st5"
         d="m 48.019351,7.9448522 c 0,0.3359672 -0.262095,0.6047406 -0.589714,0.6047406 H 36.028501 c -0.327619,0 -0.589714,-0.2687734 -0.589714,-0.6047406 v -8.76873768 c 0,-0.33596702 0.262095,-0.60474052 0.589714,-0.60474052 h 11.401136 c 0.327619,0 0.589714,0.2687735 0.589714,0.60474052 z"
         id="path86"
         style="fill:#3a4245;stroke-width:0.165883" />
      <rect
         x="36.88031"
         y="0.60397297"
         class="st9"
         width="9.6975174"
         height="5.7954302"
         id="rect88"
         style="fill:#4d5256;stroke-width:0.165883" />
      <rect
         x="36.88031"
         y="4.3836017"
         class="st10"
         width="9.6975174"
         height="0.26877359"
         id="rect90"
         style="fill:#6a6f73;stroke-width:0.165883" />
      <polygon
         class="st11"
         points="196.9,271.3 196.9,226.4 185,226.4 125.4,271.3 "
         id="polygon92"
         style="opacity:0.2;fill:#ffffff"
         transform="matrix(0.16380943,0,0,0.16798348,15.339371,-37.511478)" />
      <path
         class="st12"
         d="m 46.676113,-0.37033008 v 0 c 0,0.21837851 -0.212952,0.40316037 -0.491428,0.40316037 h -8.927613 c -0.278476,0 -0.491428,-0.18478186 -0.491428,-0.40316037 v 0 H 35.83193 v 0.31916861 c 0,0.26877355 0.262095,0.47035373 0.589714,0.47035373 h 10.614851 c 0.327618,0 0.589714,-0.21837851 0.589714,-0.47035373 v -0.31916861 z"
         id="path94"
         style="fill:#212628;stroke-width:0.165883" />
      <path
         class="st1"
         d="m 47.626209,-0.37033008 c 0,0.15118514 -0.114667,0.26877356 -0.262096,0.26877356 H 36.077644 c -0.147429,0 -0.262095,-0.11758842 -0.262095,-0.26877356 v 0 c 0,-0.15118513 0.114666,-0.26877361 0.262095,-0.26877361 h 11.286469 c 0.147429,0 0.262096,0.11758848 0.262096,0.26877361 z"
         id="path96"
         style="fill:#b8c7d8;stroke-width:0.165883" />
      <path
         class="st8"
         d="m 44.956114,-0.37033008 c 0,0.0839917 -0.06552,0.15118514 -0.147428,0.15118514 H 38.61669 c -0.0819,0 -0.147428,-0.0671934 -0.147428,-0.15118514 v 0 c 0,-0.0839918 0.06552,-0.15118513 0.147428,-0.15118513 h 6.208377 c 0.08191,0 0.131047,0.0671934 0.131047,0.15118513 z"
         id="path98"
         style="fill:#ffffff;stroke-width:0.165883" />
      <path
         class="st5"
         d="m 37.912309,-3.2428477 c 0,0.335967 -0.262095,0.6215389 -0.606094,0.6215389 -0.327619,0 -0.606095,-0.2687736 -0.606095,-0.6215389 0,-0.3359669 0.262095,-0.6215388 0.606095,-0.6215388 0.343999,0 0.606094,0.2687735 0.606094,0.6215388 z"
         id="path100"
         style="fill:#3a4245;stroke-width:0.165883" />
      <path
         class="st5"
         d="m 40.123737,-3.2428477 c 0,0.335967 -0.262095,0.6215389 -0.606095,0.6215389 -0.327619,0 -0.606095,-0.2687736 -0.606095,-0.6215389 0,-0.3359669 0.278476,-0.6215388 0.606095,-0.6215388 0.327619,0 0.606095,0.2687735 0.606095,0.6215388 z"
         id="path102"
         style="fill:#3a4245;stroke-width:0.165883" />
      <path
         class="st5"
         d="m 42.335164,-3.2428477 c 0,0.335967 -0.262095,0.6215389 -0.606095,0.6215389 -0.327619,0 -0.606094,-0.2687736 -0.606094,-0.6215389 0,-0.3359669 0.278475,-0.6215388 0.606094,-0.6215388 0.327619,0 0.606095,0.2687735 0.606095,0.6215388 z"
         id="path104"
         style="fill:#3a4245;stroke-width:0.165883" />
      <path
         class="st5"
         d="m 44.53021,-3.2428477 c 0,0.335967 -0.278476,0.6215389 -0.606095,0.6215389 -0.327618,0 -0.606095,-0.2687736 -0.606095,-0.6215389 0,-0.3359669 0.278477,-0.6215388 0.606095,-0.6215388 0.344,0 0.606095,0.2687735 0.606095,0.6215388 z"
         id="path106"
         style="fill:#3a4245;stroke-width:0.165883" />
      <path
         class="st5"
         d="m 46.741638,-3.2428477 c 0,0.335967 -0.262096,0.6215389 -0.606096,0.6215389 -0.327618,0 -0.606094,-0.2687736 -0.606094,-0.6215389 0,-0.3359669 0.278476,-0.6215388 0.606094,-0.6215388 0.344,0 0.606096,0.2687735 0.606096,0.6215388 z"
         id="path108"
         style="fill:#3a4245;stroke-width:0.165883" />
      <path
         class="st9"
         d="m 37.470024,-2.822889 c 0,0.083992 -0.06552,0.1679835 -0.163809,0.1679835 v 0 c -0.0819,0 -0.16381,-0.067193 -0.16381,-0.1679835 v -0.8567157 c 0,-0.083992 0.06552,-0.1679835 0.16381,-0.1679835 v 0 c 0.0819,0 0.163809,0.067193 0.163809,0.1679835 z"
         id="path110"
         style="fill:#4d5256;stroke-width:0.165883" />
      <path
         class="st9"
         d="m 39.681451,-2.822889 c 0,0.083992 -0.06552,0.1679835 -0.163809,0.1679835 v 0 c -0.09829,0 -0.163809,-0.067193 -0.163809,-0.1679835 v -0.8567157 c 0,-0.083992 0.06552,-0.1679835 0.163809,-0.1679835 v 0 c 0.0819,0 0.163809,0.067193 0.163809,0.1679835 z"
         id="path112"
         style="fill:#4d5256;stroke-width:0.165883" />
      <path
         class="st9"
         d="m 41.892878,-2.822889 c 0,0.083992 -0.06552,0.1679835 -0.163809,0.1679835 v 0 c -0.08191,0 -0.163809,-0.067193 -0.163809,-0.1679835 v -0.8567157 c 0,-0.083992 0.06552,-0.1679835 0.163809,-0.1679835 v 0 c 0.0819,0 0.163809,0.067193 0.163809,0.1679835 z"
         id="path114"
         style="fill:#4d5256;stroke-width:0.165883" />
      <path
         class="st9"
         d="m 44.087925,-2.822889 c 0,0.083992 -0.06552,0.1679835 -0.16381,0.1679835 v 0 c -0.0819,0 -0.163809,-0.067193 -0.163809,-0.1679835 v -0.8567157 c 0,-0.083992 0.06552,-0.1679835 0.163809,-0.1679835 v 0 c 0.0819,0 0.16381,0.067193 0.16381,0.1679835 z"
         id="path116"
         style="fill:#4d5256;stroke-width:0.165883" />
      <path
         class="st9"
         d="m 46.299352,-2.822889 c 0,0.083992 -0.06552,0.1679835 -0.16381,0.1679835 v 0 c -0.0819,0 -0.163809,-0.067193 -0.163809,-0.1679835 v -0.8567157 c 0,-0.083992 0.06552,-0.1679835 0.163809,-0.1679835 v 0 c 0.0819,0 0.16381,0.067193 0.16381,0.1679835 z"
         id="path118"
         style="fill:#4d5256;stroke-width:0.165883" />
    </g>
    <path
       d="M 52.642302,22.311498 H 27.641699 l -0.294339,6.098796 h 25.294942 z"
       fill="#ff6a6c"
       id="path67-3"
       style="fill:#178066;fill-opacity:1;stroke-width:0.32136"
       sodipodi:nodetypes="ccccc" />
    <path
       d="M 52.782187,23.65813 H 27.161694 v -1.346632 h 25.620493 c 0.14688,0 0.28764,0.07084 0.391678,0.197221 0.103745,0.126301 0.162033,0.297495 0.162033,0.476103 0,0.178564 -0.0583,0.349809 -0.162033,0.476103 -0.10404,0.1263 -0.244798,0.197205 -0.391678,0.197205 z"
       fill="#ff6a6c"
       id="path69-3"
       style="fill:#178066;fill-opacity:1;stroke-width:0.32136"
       sodipodi:nodetypes="sccscscs" />
    <path
       d="M 52.782187,23.65813 H 28.124614 v 0.687488 h 24.657573 z"
       fill="#ea474f"
       id="path71-6"
       style="fill:#ff7f2a;fill-opacity:1;stroke-width:0.32136" />
    <path
       d="m 46.723432,32.290703 c 0.01485,-0.676867 -0.08217,-1.350872 -0.285011,-1.981431 -0.202833,-0.630678 -0.50766,-1.205565 -0.896133,-1.690707 -0.388771,-0.485172 -0.853295,-0.870777 -1.36621,-1.13407 -0.5132,-0.263301 -1.064576,-0.398912 -1.621496,-0.398912 -0.556916,0 -1.108292,0.135611 -1.621205,0.398912 -0.513201,0.263293 -0.977738,0.648898 -1.366211,1.13407 -0.38876,0.485142 -0.693299,1.060029 -0.896418,1.690707 -0.202833,0.630559 -0.299595,1.304564 -0.285022,1.981431 v 0.326011 h 8.31148 c 0.02037,-0.106345 0.02622,-0.216154 0.02622,-0.326011 z"
       fill="#434343"
       id="path73-4"
       style="fill:#ff7f2a;fill-opacity:1;stroke-width:0.32136" />
    <path
       d="m 42.556037,37.003891 c 2.140534,0 3.875971,-2.110314 3.875971,-4.713188 0,-2.603062 -1.735437,-4.713226 -3.875971,-4.713226 -2.14052,0 -3.875971,2.110164 -3.875971,4.713226 0,2.602874 1.735451,4.713188 3.875971,4.713188 z"
       fill="#434343"
       id="path75-6"
       style="stroke-width:0.32136" />
    <path
       d="m 42.556037,36.568001 c 1.942646,0 3.517515,-1.915045 3.517515,-4.277298 0,-2.362259 -1.574869,-4.277305 -3.517515,-4.277305 -1.942643,0 -3.517514,1.915046 -3.517514,4.277305 0,2.362253 1.574871,4.277298 3.517514,4.277298 z"
       fill="#666666"
       id="path77-2"
       style="stroke-width:0.32136" />
    <path
       d="m 42.556037,35.14341 c 1.295686,0 2.345986,-1.277155 2.345986,-2.852707 0,-1.57556 -1.0503,-2.852755 -2.345986,-2.852755 -1.295683,0 -2.345976,1.277195 -2.345976,2.852755 0,1.575552 1.050293,2.852707 2.345976,2.852707 z"
       fill="#434343"
       id="path79-9"
       style="stroke-width:0.32136" />
    <path
       d="m 42.556037,34.668549 c 1.08003,0 1.95548,-1.064544 1.95548,-2.377846 0,-1.313318 -0.87545,-2.37787 -1.95548,-2.37787 -1.08002,0 -1.955464,1.064552 -1.955464,2.37787 0,1.313302 0.875444,2.377846 1.955464,2.377846 z"
       fill="#c9e3fc"
       id="path81-4"
       style="stroke-width:0.32136" />
    <path
       d="m 42.556037,33.240416 c 0.431308,0 0.781019,-0.425247 0.781019,-0.949713 0,-0.524482 -0.349711,-0.949737 -0.781019,-0.949737 -0.431306,0 -0.781016,0.425255 -0.781016,0.949737 0,0.524466 0.34971,0.949713 0.781016,0.949713 z"
       fill="#26272b"
       id="path83-6"
       style="stroke-width:0.32136" />
    <path
       d="m 52.473275,29.863235 h -2.914261 c -0.169899,0 -0.333101,0.0821 -0.453457,0.228356 -0.120067,0.146218 -0.187676,0.344665 -0.187676,0.551275 v 1.530895 c 0,0.206602 0.06763,0.405026 0.187676,0.55141 0.120356,0.146003 0.283558,0.228214 0.453457,0.228214 h 2.914261 c 0.170194,0 0.333102,-0.08224 0.453455,-0.228214 0.120073,-0.146384 0.187682,-0.344808 0.187682,-0.55141 v -1.530895 c 0,-0.20661 -0.06761,-0.405057 -0.187682,-0.551275 -0.120353,-0.146216 -0.283261,-0.228356 -0.453455,-0.228356 z"
       fill="#c9e3fc"
       id="path85-3"
       style="stroke-width:0.32136" />
    <path
       d="m 52.327562,29.969508 h -2.675288 c -0.125609,0 -0.227317,0.12376 -0.227317,0.276413 v 0.02839 c 0,0.15278 0.101664,0.27646 0.227317,0.27646 h 2.675288 c 0.125611,0 0.227318,-0.123624 0.227318,-0.27646 v -0.02839 c 0,-0.15263 -0.101664,-0.276413 -0.227318,-0.276413 z"
       fill="#ffffff"
       id="path87-7"
       style="stroke-width:0.32136" />
    <path
       d="m 51.150197,26.560466 h 1.477534 v -1.793145 h -1.477534 c -0.19554,0 -0.383218,0.09443 -0.521363,0.262593 -0.138132,0.168156 -0.215939,0.396181 -0.215939,0.633972 0,0.237798 0.07777,0.465822 0.215939,0.633983 0.138145,0.168145 0.325823,0.262597 0.521363,0.262597 z"
       fill="#ffb942"
       id="path89-3"
       style="stroke-width:0.32136" />
    <g
       id="g20742"
       transform="matrix(0.58803571,0,0,0.68577064,28.56977,0.8978224)">
      <path
         class="st0"
         d="m 58.388989,46.465908 h -1.031875 c -0.264583,0 -0.502708,0.211667 -0.502708,0.502708 v 1.137708 c 0,0.264584 0.211666,0.502709 0.502708,0.502709 h 1.031875 c 0.264583,0 0.502708,-0.211667 0.502708,-0.502709 v -1.137708 c -0.02646,-0.291041 -0.238125,-0.502708 -0.502708,-0.502708 z"
         id="path424"
         style="fill:#4c5155;stroke-width:0.264583" />
      <path
         class="st0"
         d="m 76.089614,46.465908 h -1.031875 c -0.264583,0 -0.502708,0.211667 -0.502708,0.502708 v 1.137708 c 0,0.264584 0.211666,0.502709 0.502708,0.502709 h 1.031875 c 0.264583,0 0.502708,-0.211667 0.502708,-0.502709 v -1.137708 c 0,-0.291041 -0.211666,-0.502708 -0.502708,-0.502708 z"
         id="path426"
         style="fill:#4c5155;stroke-width:0.264583" />
      <path
         class="st0"
         d="m 58.388989,46.465908 h -1.031875 c -0.264583,0 -0.502708,0.211667 -0.502708,0.502708 v 1.137708 c 0,0.264584 0.211666,0.502709 0.502708,0.502709 h 1.031875 c 0.264583,0 0.502708,-0.211667 0.502708,-0.502709 v -1.137708 c -0.02646,-0.291041 -0.238125,-0.502708 -0.502708,-0.502708 z"
         id="path430"
         style="fill:#4c5155;stroke-width:0.264583" />
      <path
         class="st0"
         d="m 76.089614,46.465908 h -1.031875 c -0.264583,0 -0.502708,0.211667 -0.502708,0.502708 v 1.137708 c 0,0.264584 0.211666,0.502709 0.502708,0.502709 h 1.031875 c 0.264583,0 0.502708,-0.211667 0.502708,-0.502709 v -1.137708 c 0,-0.291041 -0.211666,-0.502708 -0.502708,-0.502708 z"
         id="path432"
         style="fill:#4c5155;stroke-width:0.264583" />
      <path
         class="st1"
         d="m 77.994614,46.545283 c 0,0.555625 -0.449792,0.978958 -0.978958,0.978958 H 56.431073 c -0.555625,0 -0.978959,-0.449791 -0.978959,-0.978958 V 7.7573667 c 0,-0.555625 0.449792,-0.9789583 0.978959,-0.9789583 h 20.584583 c 0.555625,0 0.978958,0.4497916 0.978958,0.9789583 z"
         id="path436"
         style="fill:#b8c7d8;stroke-width:0.264583" />
      <path
         class="st2"
         d="m 55.425656,46.545283 c 0,0.555625 0.449792,0.978958 0.978958,0.978958 h 20.584583 c 0.555625,0 0.978959,-0.449791 0.978959,-0.978958 V 7.7573667 Z"
         id="path438"
         style="fill:#a3b5c6;stroke-width:0.264583" />
      <rect
         x="55.425655"
         y="8.6834087"
         class="st0"
         width="22.568958"
         height="0.13229166"
         id="rect440"
         style="fill:#4c5155;stroke-width:0.264583" />
      <rect
         x="55.425655"
         y="45.301743"
         class="st0"
         width="22.568958"
         height="0.13229166"
         id="rect442"
         style="fill:#4c5155;stroke-width:0.264583" />
      <path
         class="st7"
         d="m 67.173156,7.7309083 c 0,0.238125 -0.211667,0.4497917 -0.449792,0.4497917 -0.238125,0 -0.449792,-0.2116667 -0.449792,-0.4497917 0,-0.238125 0.211667,-0.4497916 0.449792,-0.4497916 0.238125,0 0.449792,0.2116666 0.449792,0.4497916 z"
         id="path444"
         style="fill:#589eb7;stroke-width:0.264583" />
      <path
         class="st0"
         d="m 69.951281,7.7309083 c 0,0.1322917 -0.105834,0.238125 -0.238125,0.238125 -0.132292,0 -0.238125,-0.1058333 -0.238125,-0.238125 0,-0.1322916 0.105833,-0.238125 0.238125,-0.238125 0.132291,0 0.238125,0.1058334 0.238125,0.238125 z"
         id="path446"
         style="fill:#4c5155;stroke-width:0.264583" />
      <path
         class="st0"
         d="m 63.945239,7.7309083 c 0,0.1322917 -0.105833,0.238125 -0.238125,0.238125 -0.132292,0 -0.238125,-0.1058333 -0.238125,-0.238125 0,-0.1322916 0.105833,-0.238125 0.238125,-0.238125 0.132292,0 0.238125,0.1058334 0.238125,0.238125 z"
         id="path448"
         style="fill:#4c5155;stroke-width:0.264583" />
      <rect
         x="55.425655"
         y="26.992575"
         class="st0"
         width="22.568958"
         height="0.13229166"
         id="rect452"
         style="fill:#4c5155;stroke-width:0.264583" />
      <path
         class="st0"
         d="m 60.770239,26.992575 c 0,0.449791 -0.343958,0.79375 -0.79375,0.79375 h -2.328333 c -0.423334,0 -0.79375,-0.343959 -0.79375,-0.79375 v 0 c 0,-0.449792 0.343958,-0.79375 0.79375,-0.79375 h 2.328333 c 0.423333,0 0.79375,0.343958 0.79375,0.79375 z"
         id="path454"
         style="fill:#4c5155;stroke-width:0.264583" />
      <rect
         x="46.867001"
         y="39.685356"
         transform="rotate(-25.163308)"
         class="st2"
         width="3.7041686"
         height="2.5664594"
         id="rect462"
         style="fill:#a3b5c6;stroke-width:0.264583" />
      <rect
         x="47.033119"
         y="39.328636"
         transform="rotate(-25.163308)"
         class="st15"
         width="3.7041686"
         height="2.5664594"
         id="rect464"
         style="fill:#ff3912;stroke-width:0.264583" />
      <path
         class="st8"
         d="m 62.807531,14.636533 c 0,0.555625 -0.449792,1.031875 -1.031875,1.031875 -0.555625,0 -1.031875,-0.449791 -1.031875,-1.031875 0,-0.555625 0.449791,-1.031875 1.031875,-1.031875 0.582083,0 1.031875,0.449792 1.031875,1.031875 z"
         id="path466"
         style="fill:#ffffff;stroke-width:0.264583" />
      <path
         d="m 61.299406,14.477783 c 0,0.07937 -0.05292,0.15875 -0.105834,0.15875 -0.05292,0 -0.105833,-0.07938 -0.105833,-0.15875 0,-0.07938 0.05292,-0.15875 0.105833,-0.15875 0.07937,0 0.105834,0.07938 0.105834,0.15875 z"
         id="path468"
         style="stroke-width:0.264583" />
      <path
         d="m 62.119614,14.477783 c 0,0.07937 -0.05292,0.15875 -0.105833,0.15875 -0.05292,0 -0.105834,-0.07938 -0.105834,-0.15875 0,-0.07938 0.05292,-0.15875 0.105834,-0.15875 0.07937,0 0.105833,0.07938 0.105833,0.15875 z"
         id="path470"
         style="stroke-width:0.264583" />
      <polygon
         class="st15"
         points="169.2,44.5 162.9,45 169.2,45.6 "
         id="polygon472"
         style="fill:#ff3912"
         transform="matrix(0.26458333,0,0,0.26458333,16.822948,2.9684084)" />
    </g>
  </g>
</svg>
