<?xml version="1.0" encoding="UTF-8" standalone="no"?>
<!-- Generator: Adobe Illustrator 25.1.0, SVG Export Plug-In . SVG Version: 6.00 Build 0)  -->

<svg
   version="1.1"
   id="_x31_"
   x="0px"
   y="0px"
   viewBox="0 0 350 150"
   xml:space="preserve"
   sodipodi:docname="maintenance.svg"
   inkscape:version="1.1 (c68e22c387, 2021-05-23)"
   width="350"
   height="150"
   xmlns:inkscape="http://www.inkscape.org/namespaces/inkscape"
   xmlns:sodipodi="http://sodipodi.sourceforge.net/DTD/sodipodi-0.dtd"
   xmlns="http://www.w3.org/2000/svg"
   xmlns:svg="http://www.w3.org/2000/svg"><defs
   id="defs1480"><inkscape:path-effect
   effect="spiro"
   id="path-effect44254"
   is_visible="true"
   lpeversion="1" /><inkscape:path-effect
   effect="spiro"
   id="path-effect43878"
   is_visible="true"
   lpeversion="1" />
	
	
	
	

		
		
		
		
		
		
		
		
		
		
		
		
		
		
		
		
		
		
		
		
		
	
			
			
		
				
				
			
				
				
			
					
					
				
					
					
					
					
					
					
					
					
					
					
					
					
					
					
					
					<linearGradient
   id="SVGID_1_"
   gradientUnits="userSpaceOnUse"
   x1="106.1937"
   y1="252.1644"
   x2="25.456499"
   y2="145.0226"
   gradientTransform="matrix(-0.81985479,0,0,0.73247559,186.326,-96.226272)">
						<stop
   offset="0"
   style="stop-color:#C6C6C6"
   id="stop242" />
						<stop
   offset="1"
   style="stop-color:#1D1D1B"
   id="stop244" />
					</linearGradient>
					
				
					
				
		
		
	
			
			
			
			
			
			
			
			
			
			
			
			
			
			
			
			
			
			
			
			
			
			
			
			
			
			
			
			
			
			
			
			
			
			
			
			
			
			
			
			
			
			
			
			
			
			
			
			
			
			
			
			
			
			
			
			
			
			
			
		
				
				
				
			
				
			
				
				
				
				
				
			
				
			
				
				
				
				
				
				
			
				
				
			
				
				
			
				
			
				
				
			
				
				
				
				
				
				
				
				
				
				
			
				
				
				
			
				
			
				
				
			
				
			
				
				
			
				
				
			
				
			
				
				
			</defs><sodipodi:namedview
   id="namedview1478"
   pagecolor="#505050"
   bordercolor="#eeeeee"
   borderopacity="1"
   inkscape:pageshadow="0"
   inkscape:pageopacity="0"
   inkscape:pagecheckerboard="0"
   showgrid="false"
   inkscape:zoom="2.2878833"
   inkscape:cx="189.47645"
   inkscape:cy="62.284646"
   inkscape:window-width="1920"
   inkscape:window-height="1001"
   inkscape:window-x="-9"
   inkscape:window-y="-9"
   inkscape:window-maximized="1"
   inkscape:current-layer="_x31_"
   width="350px" />
<style
   type="text/css"
   id="style2">
	.st0{fill-rule:evenodd;clip-rule:evenodd;fill:#57D9F7;}
	.st1{fill-rule:evenodd;clip-rule:evenodd;fill:#14C5E2;}
	.st2{fill:#FFFFFF;}
	.st3{fill-rule:evenodd;clip-rule:evenodd;fill:#FCC39A;}
	.st4{opacity:0.5;fill-rule:evenodd;clip-rule:evenodd;fill:#0092A5;}
	.st5{fill-rule:evenodd;clip-rule:evenodd;fill:#1C5396;}
	.st6{fill-rule:evenodd;clip-rule:evenodd;fill:#2F76CC;}
	.st7{fill-rule:evenodd;clip-rule:evenodd;fill:#878DA1;}
	.st8{fill-rule:evenodd;clip-rule:evenodd;fill:#2B374A;}
	.st9{fill-rule:evenodd;clip-rule:evenodd;fill:#B30000;}
	.st10{fill-rule:evenodd;clip-rule:evenodd;fill:#CC0202;}
	.st11{fill-rule:evenodd;clip-rule:evenodd;fill:#EDA070;}
	.st12{fill-rule:evenodd;clip-rule:evenodd;fill:#221F1F;}
	.st13{fill-rule:evenodd;clip-rule:evenodd;fill:#4F2B0C;}
	.st14{fill-rule:evenodd;clip-rule:evenodd;fill:#FF0000;}
	.st15{fill-rule:evenodd;clip-rule:evenodd;fill:#565D71;}
	.st16{fill-rule:evenodd;clip-rule:evenodd;fill:#393B4E;}
	.st17{fill-rule:evenodd;clip-rule:evenodd;fill:#BCC5E0;}
	.st18{fill-rule:evenodd;clip-rule:evenodd;fill:#8590B1;}
	.st19{fill-rule:evenodd;clip-rule:evenodd;fill:#393939;}
	.st20{fill-rule:evenodd;clip-rule:evenodd;fill:#191919;}
	.st21{fill-rule:evenodd;clip-rule:evenodd;fill:#4C4C4C;}
	.st22{fill:#8590B1;}
	.st23{fill-rule:evenodd;clip-rule:evenodd;fill:#D9D9D9;}
	.st24{fill-rule:evenodd;clip-rule:evenodd;fill:#999999;}
	.st25{fill-rule:evenodd;clip-rule:evenodd;fill:#EBEBEB;}
	.st26{fill-rule:evenodd;clip-rule:evenodd;fill:#F7F7F7;}
	.st27{fill-rule:evenodd;clip-rule:evenodd;fill:#CCCCCC;}
	.st28{fill-rule:evenodd;clip-rule:evenodd;fill:#00CCFF;}
	.st29{fill-rule:evenodd;clip-rule:evenodd;fill:#666666;}
	.st30{fill-rule:evenodd;clip-rule:evenodd;fill:url(#SVGID_1_);}
	.st31{fill:#666666;}
	.st32{fill-rule:evenodd;clip-rule:evenodd;fill:#EBF2FF;}
	.st33{fill-rule:evenodd;clip-rule:evenodd;fill:#9DA9CC;}
	.st34{fill-rule:evenodd;clip-rule:evenodd;fill:#333333;}
	.st35{fill-rule:evenodd;clip-rule:evenodd;fill:#7F7F7F;}
	.st36{fill-rule:evenodd;clip-rule:evenodd;fill:#D48D00;}
	.st37{fill-rule:evenodd;clip-rule:evenodd;fill:#0C7850;}
	.st38{fill-rule:evenodd;clip-rule:evenodd;fill:#28946D;}
	.st39{fill:#333333;}
	.st40{fill-rule:evenodd;clip-rule:evenodd;fill:#B2B2B2;}
	.st41{fill-rule:evenodd;clip-rule:evenodd;fill:#E5E5E5;}
	.st42{fill-rule:evenodd;clip-rule:evenodd;fill:#929190;}
	.st43{fill-rule:evenodd;clip-rule:evenodd;fill:#342F2D;}
	.st44{fill:#FFCC00;}
	.st45{fill:#6699FF;}
	.st46{fill:#FF0000;}
</style>
<rect
   style="opacity:0.990228;fill:#ffccaa;fill-opacity:1;stroke:none;stroke-width:6.30803;stroke-linecap:round;stroke-linejoin:round;paint-order:stroke fill markers"
   id="rect44806"
   width="350.54236"
   height="84.357452"
   x="0"
   y="67.748215" /><path
   style="fill:#b3b3b3;fill-opacity:1;stroke:none;stroke-width:0.971269px;stroke-linecap:butt;stroke-linejoin:miter;stroke-opacity:1"
   d="M 64.245369,0.84751895 350.10326,0.43708524 350.54236,67.748215 62.928051,84.165563 Z"
   id="path44630" /><path
   style="fill:#999999;fill-opacity:1;stroke:none;stroke-width:0.968986px;stroke-linecap:butt;stroke-linejoin:miter;stroke-opacity:1"
   d="M 64.23918,0.847519 62.928051,84.165563 0.86793927,139.98455 0.43089624,0.4370852 Z"
   id="path44628" /><g
   id="g152"
   transform="matrix(-0.81985483,0,0,0.73247565,186.81794,-94.446032)">
						<g
   id="g98">
							<path
   class="st15"
   d="m 103.7,327.4 5.9,-10.8 -3.1,-1.7 v 0 c -0.1,-0.1 -0.2,-0.1 -0.2,-0.1 -1.9,-1 -4.6,0.7 -6.2,3.7 -1.5,3 -1.3,6.2 0.6,7.2 v 0 z"
   id="path90" />
							<path
   class="st16"
   d="m 110.1,323.8 c 1.5,-3 1.3,-6.2 -0.6,-7.2 -1.9,-1 -4.6,0.7 -6.2,3.7 -1.5,3 -1.3,6.2 0.6,7.2 1.9,1 4.7,-0.7 6.2,-3.7 z"
   id="path92" />
							<path
   class="st17"
   d="m 109.5,323.5 c 1.2,-2.4 1,-5 -0.5,-5.8 -1.5,-0.8 -3.7,0.6 -5,3 -1.2,2.4 -1,5 0.5,5.8 1.5,0.7 3.7,-0.6 5,-3 z"
   id="path94" />
							<path
   class="st18"
   d="m 108.4,322.9 c 1,-1.9 0.9,-4 -0.1,-4.9 -1.3,-0.4 -3.1,0.8 -4.1,2.8 -1,1.9 -0.9,4 0.1,4.9 1.3,0.4 3.1,-0.8 4.1,-2.8 z"
   id="path96" />
						</g>
						<g
   id="g108">
							<path
   class="st15"
   d="m 143.5,304.4 5.9,-10.8 -3.1,-1.7 v 0 c -0.1,-0.1 -0.2,-0.1 -0.2,-0.1 -1.9,-1 -4.6,0.7 -6.2,3.7 -1.5,3 -1.3,6.2 0.6,7.2 v 0 z"
   id="path100" />
							<path
   class="st16"
   d="m 149.9,300.8 c 1.5,-3 1.3,-6.2 -0.6,-7.2 -1.9,-1 -4.6,0.7 -6.2,3.7 -1.5,3 -1.3,6.2 0.6,7.2 1.9,1 4.7,-0.7 6.2,-3.7 z"
   id="path102" />
							<path
   class="st17"
   d="m 149.2,300.5 c 1.2,-2.4 1,-5 -0.5,-5.8 -1.5,-0.8 -3.7,0.6 -5,3 -1.2,2.4 -1,5 0.5,5.8 1.6,0.7 3.8,-0.6 5,-3 z"
   id="path104" />
							<path
   class="st18"
   d="m 148.2,299.9 c 1,-1.9 0.9,-4 -0.1,-4.9 -1.3,-0.4 -3.1,0.8 -4.1,2.8 -1,1.9 -0.9,4 0.1,4.9 1.3,0.4 3.1,-0.8 4.1,-2.8 z"
   id="path106" />
						</g>
						<g
   id="g118">
							<path
   class="st15"
   d="m 50.5,296.8 5.9,-10.8 -3.1,-1.7 v 0 c -0.1,-0.1 -0.2,-0.1 -0.2,-0.1 -1.9,-1 -4.6,0.7 -6.2,3.7 -1.5,3 -1.3,6.2 0.6,7.2 v 0 z"
   id="path110" />
							<path
   class="st16"
   d="m 56.9,293.2 c 1.5,-3 1.3,-6.2 -0.6,-7.2 -1.9,-1 -4.6,0.7 -6.2,3.7 -1.5,3 -1.3,6.2 0.6,7.2 1.9,1 4.7,-0.7 6.2,-3.7 z"
   id="path112" />
							<path
   class="st17"
   d="m 56.3,292.9 c 1.2,-2.4 1,-5 -0.5,-5.8 -1.5,-0.8 -3.7,0.6 -5,3 -1.2,2.4 -1,5 0.5,5.8 1.5,0.7 3.7,-0.6 5,-3 z"
   id="path114" />
							<path
   class="st18"
   d="m 55.2,292.3 c 1,-1.9 0.9,-4 -0.1,-4.9 -1.3,-0.4 -3.1,0.8 -4.1,2.8 -1,1.9 -0.9,4 0.1,4.9 1.4,0.4 3.1,-0.8 4.1,-2.8 z"
   id="path116" />
						</g>
						<g
   id="g126">
							<polygon
   class="st19"
   points="106.9,317.7 106.9,320.9 45.4,285.5 45.3,282.2 "
   id="polygon120" />
							<polygon
   class="st20"
   points="106.8,317.7 106.8,320.9 153.5,294 153.5,290.7 "
   id="polygon122" />
							<polygon
   class="st21"
   points="106.8,317.7 153.5,290.7 92.1,255.2 45.3,282.3 "
   id="polygon124" />
						</g>
						<g
   id="g130">
							<path
   class="st22"
   d="m 106.7,315.1 c -0.6,0 -1,-0.4 -1,-1 v -64.2 c 0,-0.6 0.4,-1 1,-1 0.6,0 1,0.4 1,1 v 64.2 c 0,0.5 -0.5,1 -1,1 z"
   id="path128" />
						</g>
						<g
   id="g134">
							<path
   class="st22"
   d="m 149.2,290.5 c -0.6,0 -1,-0.4 -1,-1 v -63.1 c 0,-0.6 0.4,-1 1,-1 0.6,0 1,0.4 1,1 v 63.1 c 0,0.5 -0.4,1 -1,1 z"
   id="path132" />
						</g>
						<g
   id="g138">
							<path
   class="st22"
   d="m 50.6,282.8 c -0.6,0 -1,-0.4 -1,-1 v -65.5 c 0,-0.6 0.4,-1 1,-1 0.6,0 1,0.4 1,1 v 65.5 c 0,0.5 -0.5,1 -1,1 z"
   id="path136" />
						</g>
						<g
   id="g142">
							<path
   class="st22"
   d="m 93.2,258.2 c -0.6,0 -1,-0.4 -1,-1 v -63.8 c 0,-0.6 0.4,-1 1,-1 0.6,0 1,0.4 1,1 v 63.8 c 0,0.5 -0.5,1 -1,1 z"
   id="path140" />
						</g>
						<g
   id="g150">
							<polygon
   class="st19"
   points="106.9,253.5 106.9,256.7 45.4,221.3 45.3,218.1 "
   id="polygon144" />
							<polygon
   class="st20"
   points="106.8,253.5 106.8,256.8 153.5,229.8 153.5,226.5 "
   id="polygon146" />
							<polygon
   class="st21"
   points="106.8,253.5 153.5,226.5 92.1,191 45.3,218.1 "
   id="polygon148" />
						</g>
					</g><polygon
   class="st20"
   points="141.2,228.4 91.7,200.5 58.3,219.1 107.8,247.4 "
   id="polygon162"
   transform="matrix(-0.81985483,0,0,0.73247565,186.81794,-96.446032)" /><polygon
   class="st23"
   points="64.8,186.5 110.4,212.6 110.4,244.1 64.4,217.5 "
   id="polygon164"
   transform="matrix(-0.81985483,0,0,0.73247565,186.81794,-96.446032)" /><polygon
   class="st24"
   points="137.8,197 110.4,212.6 110.4,244.1 137.8,228.2 "
   id="polygon166"
   transform="matrix(-0.81985483,0,0,0.73247565,186.81794,-96.446032)" /><polygon
   class="st25"
   points="64.8,186.5 110.4,212.6 137.8,197 92.2,171.3 "
   id="polygon168"
   transform="matrix(-0.81985483,0,0,0.73247565,186.81794,-96.446032)" /><path
   class="st26"
   d="m 133.93728,40.380419 c -11.8879,6.006302 -27.21917,13.917038 -37.303396,19.117615 l 1.885674,0.952219 37.221412,-19.117615 z"
   id="path170"
   style="stroke-width:0.774935" /><polygon
   class="st27"
   points="107.7,245.7 97.5,239.7 107.7,214.2 110,212.9 110.1,244.2 "
   id="polygon172"
   transform="matrix(-0.81985483,0,0,0.73247565,186.81794,-96.446032)" /><path
   class="st25"
   d="m 135.82295,41.332638 v 22.85324 L 98.519558,83.449987 V 60.450253 C 108.76775,55.249675 124.42697,47.192443 135.82295,41.332638 Z"
   id="path174"
   style="stroke-width:0.774935" /><path
   class="st20"
   d="m 135.82295,41.332638 v 22.85324 L 108.60377,78.249411 V 55.249675 c 8.36253,-4.248358 17.79085,-9.082699 27.21918,-13.917037 z"
   id="path176"
   style="stroke-width:0.774935" /><polygon
   class="st20"
   points="96.1,209.1 96.1,213.8 106.5,219.7 106.5,215.1 "
   id="polygon178"
   transform="matrix(-0.81985483,0,0,0.73247565,186.81794,-96.446032)" /><polygon
   class="st28"
   points="96.5,209.9 96.5,213.5 106,218.9 106,215.2 "
   id="polygon180"
   transform="matrix(-0.81985483,0,0,0.73247565,186.81794,-96.446032)" /><g
   id="g206"
   transform="matrix(-0.81985483,0,0,0.73247565,186.81794,-96.446032)">
						<g
   id="g188">
							<polygon
   class="st27"
   points="96.2,215 96.2,216.4 99.3,218.1 99.3,216.7 "
   id="polygon182" />
							<polygon
   class="st27"
   points="99.7,216.9 99.7,218.3 102.8,220.1 102.8,218.7 "
   id="polygon184" />
							<polygon
   class="st27"
   points="103.1,218.9 103.1,220.3 106.2,222.1 106.2,220.7 "
   id="polygon186" />
						</g>
						<g
   id="g196">
							<polygon
   class="st27"
   points="96.2,217.1 96.2,218.5 99.3,220.3 99.3,218.9 "
   id="polygon190" />
							<polygon
   class="st27"
   points="99.7,219.1 99.7,220.5 102.8,222.3 102.8,220.9 "
   id="polygon192" />
							<polygon
   class="st27"
   points="103.1,221.1 103.1,222.5 106.2,224.3 106.2,222.9 "
   id="polygon194" />
						</g>
						<g
   id="g204">
							<polygon
   class="st27"
   points="96.2,219.3 96.2,220.7 99.3,222.5 99.3,221.1 "
   id="polygon198" />
							<polygon
   class="st27"
   points="99.7,221.3 99.7,222.7 102.8,224.5 102.8,223.1 "
   id="polygon200" />
							<polygon
   class="st27"
   points="103.1,223.3 103.1,224.7 106.2,226.5 106.2,225.1 "
   id="polygon202" />
						</g>
					</g><polygon
   class="st24"
   points="95.9,232.5 95.9,237.3 106.7,243.5 106.7,238.7 "
   id="polygon208"
   transform="matrix(-0.81985483,0,0,0.73247565,186.81794,-96.446032)" /><polygon
   class="st25"
   points="106.3,243.6 106.5,243.4 106.5,238.8 96.2,232.8 95.9,233 "
   id="polygon210"
   transform="matrix(-0.81985483,0,0,0.73247565,186.81794,-96.446032)" /><polygon
   class="st27"
   points="95.9,233 95.9,237.6 106.3,243.6 106.3,238.9 "
   id="polygon212"
   transform="matrix(-0.81985483,0,0,0.73247565,186.81794,-96.446032)" /><path
   class="st29"
   d="m 133.93728,40.380419 c -11.8879,6.006302 -17.13496,8.716459 -27.21917,13.917038 l 1.88566,0.952218 27.21918,-13.917037 z"
   id="path214"
   style="stroke-width:0.774935" /><g
   id="g240"
   transform="matrix(-0.81985483,0,0,0.73247565,186.81794,-96.446032)">
						<g
   id="g222">
							<polygon
   class="st26"
   points="96.1,215 96.1,216.4 99.2,218.2 99.2,216.8 "
   id="polygon216" />
							<polygon
   class="st26"
   points="99.5,217 99.5,218.4 102.7,220.2 102.7,218.8 "
   id="polygon218" />
							<polygon
   class="st26"
   points="103,219 103,220.4 106.1,222.2 106.1,220.8 "
   id="polygon220" />
						</g>
						<g
   id="g230">
							<polygon
   class="st26"
   points="96.1,217.2 96.1,218.6 99.2,220.4 99.2,219 "
   id="polygon224" />
							<polygon
   class="st26"
   points="99.5,219.2 99.5,220.6 102.7,222.4 102.7,221 "
   id="polygon226" />
							<polygon
   class="st26"
   points="103,221.2 103,222.6 106.1,224.4 106.1,223 "
   id="polygon228" />
						</g>
						<g
   id="g238">
							<polygon
   class="st26"
   points="96.1,219.4 96.1,220.8 99.2,222.6 99.2,221.2 "
   id="polygon232" />
							<polygon
   class="st26"
   points="99.5,221.4 99.5,222.8 102.7,224.6 102.7,223.2 "
   id="polygon234" />
							<polygon
   class="st26"
   points="103,223.4 103,224.8 106.1,226.6 106.1,225.2 "
   id="polygon236" />
						</g>
					</g><path
   class="st30"
   d="m 122.37732,63.819641 -3.68934,9.229192 3.68934,-1.904436 z m 0,-8.276977 -7.8706,19.630348 -5.90295,3.076399 11.55995,-28.932789 2.13161,-1.098714 v 7.324756 z m 7.78863,-11.35337 -7.87062,19.630347 v 7.324756 l 6.47687,-3.369389 6.47685,-16.187711 V 41.552381 Z m -7.78863,4.028614 3.68936,-1.904436 -3.68936,9.229192 z"
   id="path247"
   style="fill:url(#SVGID_1_);stroke-width:0.774935" /><g
   id="g1201"
   transform="matrix(0.77142668,0,0,0.69823035,-6.3141846,-121.86482)">
					<path
   class="st36"
   d="m 385.6,238.2 -7.8,1.5 1.5,92 c 0,1.6 4.8,1.6 4.8,0 z"
   id="path1197" />
					<path
   class="st36"
   d="m 320.2,200.2 -7.8,1.5 1.5,92 c 0,1.6 4.8,1.6 4.8,0 z"
   id="path1199" />
				</g><g
   id="g1207"
   transform="matrix(0.77142668,0,0,0.69823035,-6.3141846,-121.86482)">
					<path
   class="st36"
   d="m 296,289 -7.8,1.5 1.5,92 c 0,1.6 4.8,1.6 4.8,0 z"
   id="path1203" />
					<path
   class="st36"
   d="m 230.6,251 -7.8,1.5 1.5,92 c 0,1.6 4.8,1.6 4.8,0 z"
   id="path1205" />
				</g><polygon
   class="st20"
   points="282.9,301 213.5,260.5 213.5,256.3 393.4,233.8 393.4,238 "
   id="polygon1209"
   transform="matrix(0.77142668,0,0,0.69823035,-6.3141846,-121.86482)" /><polygon
   class="st21"
   points="282.9,296.8 213.5,256.3 324.1,193.4 393.4,233.8 "
   id="polygon1211"
   transform="matrix(0.77142668,0,0,0.69823035,-6.3141846,-121.86482)" /><polygon
   class="st19"
   points="282.9,296.8 282.9,301 213.3,260.8 213.5,256.3 "
   id="polygon1213"
   transform="matrix(0.77142668,0,0,0.69823035,-6.3141846,-121.86482)" /><path
   class="st11"
   d="m 255.50804,47.874967 c -2.16,-1.117168 -1.15714,-2.932568 -3.24,-3.840267 -0.46286,-0.279291 -3.70286,-1.536107 -4.78285,-1.466283 -0.77142,-0.209469 -1.46571,4.119558 -1.00285,4.678143 1.15713,0.837877 4.78284,2.094691 5.63141,2.164514 0.46285,0.06982 1.85143,-0.06982 3.39429,-1.536107 z"
   id="path1217"
   style="fill:#a05a2c;fill-opacity:1;stroke-width:0.733917" /><path
   class="st11"
   d="m 246.71377,46.129392 -3.00857,-0.06982 c -0.77142,0 -0.69428,0.768054 0.0771,0.837875 l 2.93143,0.279293 c 0.69428,0.20947 0.84856,-1.047345 0,-1.047345 z"
   id="path1219"
   style="fill:#a05a2c;fill-opacity:1;stroke-width:0.733917" /><path
   class="st11"
   d="m 247.40805,45.780277 v 0 c 0,-0.349115 -0.23143,-0.628408 -0.61714,-0.69823 l -3.47143,-0.279293 c -0.9257,-0.06982 -1.00284,0.837876 -0.0771,0.977523 l 3.47143,0.558583 c 0.30857,0.06982 0.61714,-0.209468 0.69428,-0.558583 z"
   id="path1221"
   style="fill:#a05a2c;fill-opacity:1;stroke-width:0.733917" /><path
   class="st11"
   d="m 247.63947,44.593284 v 0 c 0,-0.349115 -0.23142,-0.628406 -0.69428,-0.69823 l -3.85713,-0.139645 c -1.00285,0 -1.07999,0.977523 -0.0771,1.047345 l 3.85713,0.349115 c 0.38572,0.06982 0.69428,-0.20947 0.77142,-0.558585 z"
   id="path1223"
   style="fill:#a05a2c;fill-opacity:1;stroke-width:0.733917" /><path
   class="st11"
   d="m 247.25377,42.498593 -3.54857,-0.139645 c -0.92571,0 -1.00285,0.977522 -0.0771,1.047345 l 3.47142,0.279292 c 1.00285,0.139646 1.07999,-1.117168 0.15429,-1.186992 z"
   id="path1225"
   style="fill:#a05a2c;fill-opacity:1;stroke-width:0.733917" /><path
   class="st3"
   d="m 253.96518,45.989745 c 0.0771,-0.558583 -0.23143,-1.326637 -0.92571,-2.024867 -0.61716,-0.698231 -1.54286,-1.396461 -1.77429,-1.60593 -0.77143,-0.698231 -0.84857,-0.488762 -1.62,-1.186992 -0.46285,0.349115 -0.9257,0.977522 0.54,2.094691 0.15428,0.349115 0.30857,0.628407 0.92572,0.977522 -0.30857,2.51363 2.69999,2.723099 2.85428,1.745576 z"
   id="path1227"
   style="fill:#a05a2c;fill-opacity:1;stroke-width:0.733917" /><path
   class="st7"
   d="m 249.72233,108.41154 c -2.00571,1.32665 -0.77143,5.23672 1.31142,5.86513 4.85999,1.46629 8.56285,3.35151 11.72569,4.25922 1.15715,0.3491 3.85713,0.6284 5.01427,-1.25683 0.30857,-0.76804 -1.4657,-3.42133 -1.4657,-3.42133 -5.70856,0.48877 -14.03997,-6.77283 -16.58568,-5.44619 z"
   id="path1231"
   style="stroke-width:0.733917" /><path
   class="st8"
   d="m 256.3566,108.69083 c -2.54571,0.55859 -4.62857,-1.04734 -5.47712,-0.90769 -0.6943,0.0698 -1.62001,0.69822 -1.77429,1.67575 -0.30857,1.60593 0.61714,3.21186 2.23714,3.91008 1.69714,0.76806 3.6257,0.41894 6.47999,1.46629 1.54286,0.55858 5.39998,2.58345 6.86569,2.58345 1.46571,0 2.69999,-0.83788 2.85427,-1.8154 -0.23143,-5.86512 -6.32569,-8.02964 -11.18568,-6.91248 z"
   id="path1233"
   style="fill:#333333;fill-opacity:1;stroke-width:0.733917" /><path
   class="st5"
   d="m 267.07943,113.57844 c -3.47143,2.93258 -7.09712,1.95505 -9.25711,-2.23433 -0.0771,-6.70302 -4.01143,-20.667623 -6.55714,-29.255853 -1.46571,-5.30655 7.9457,-8.099472 11.18569,-1.18699 4.01142,7.61071 4.24285,29.604963 4.62856,32.677173 z"
   id="path1237"
   style="fill:#2b374a;fill-opacity:1;stroke-width:0.733917" /><g
   id="g1247"
   transform="matrix(0.77142668,0,0,0.69823035,-6.3141846,-121.86482)">
					<path
   class="st15"
   d="m 380.4,360.8 5,-9.2 -2.6,-1.4 v 0 c -0.1,0 -0.1,-0.1 -0.2,-0.1 -1.6,-0.8 -4,0.6 -5.3,3.2 -1.3,2.6 -1.1,5.3 0.5,6.1 v 0 z"
   id="path1239" />
					<path
   class="st16"
   d="m 385.9,357.7 c 1.3,-2.6 1.1,-5.3 -0.5,-6.2 -1.6,-0.8 -4,0.6 -5.3,3.2 -1.3,2.6 -1.1,5.3 0.5,6.2 1.6,0.8 4,-0.7 5.3,-3.2 z"
   id="path1241" />
					<path
   class="st17"
   d="m 385.3,357.4 c 1.1,-2.1 0.9,-4.3 -0.4,-4.9 -1.3,-0.7 -3.2,0.5 -4.2,2.6 -1.1,2.1 -0.9,4.3 0.4,4.9 1.3,0.6 3.2,-0.6 4.2,-2.6 z"
   id="path1243" />
					<path
   class="st18"
   d="m 384.5,356.9 c 0.9,-1.7 0.8,-3.4 -0.1,-4.2 -1.1,-0.3 -2.6,0.7 -3.5,2.4 -0.9,1.7 -0.8,3.4 0.1,4.2 1.1,0.3 2.6,-0.7 3.5,-2.4 z"
   id="path1245" />
				</g><g
   id="g1257"
   transform="matrix(0.77142668,0,0,0.69823035,-6.3141846,-121.86482)">
					<path
   class="st15"
   d="m 345.5,381.1 5,-9.2 -2.6,-1.4 v 0 c -0.1,0 -0.1,-0.1 -0.2,-0.1 -1.6,-0.8 -4,0.6 -5.3,3.2 -1.3,2.6 -1.1,5.3 0.5,6.1 v 0 z"
   id="path1249" />
					<path
   class="st16"
   d="m 351,378 c 1.3,-2.6 1.1,-5.3 -0.5,-6.2 -1.6,-0.8 -4,0.6 -5.3,3.2 -1.3,2.6 -1.1,5.3 0.5,6.2 1.6,0.8 4,-0.6 5.3,-3.2 z"
   id="path1251" />
					<path
   class="st17"
   d="m 350.4,377.7 c 1.1,-2.1 0.9,-4.3 -0.4,-4.9 -1.3,-0.7 -3.2,0.5 -4.2,2.6 -1.1,2.1 -0.9,4.3 0.4,4.9 1.3,0.6 3.2,-0.5 4.2,-2.6 z"
   id="path1253" />
					<path
   class="st18"
   d="m 349.5,377.2 c 0.9,-1.7 0.8,-3.4 -0.1,-4.2 -1.1,-0.3 -2.6,0.7 -3.5,2.4 -0.9,1.7 -0.8,3.4 0.1,4.2 1.2,0.3 2.7,-0.7 3.5,-2.4 z"
   id="path1255" />
				</g><polygon
   class="st32"
   points="344.8,368.5 367.2,356.3 383.9,345.8 383.2,345.4 362.7,353.8 344.1,368.1 344.1,372.4 344.8,372.8 "
   id="polygon1259"
   transform="matrix(0.77142668,0,0,0.69823035,-6.3141846,-121.86482)" /><polygon
   class="st17"
   points="344.8,372.8 367.2,361 383.9,350.2 383.9,345.8 367.2,356.3 344.8,368.5 "
   id="polygon1261"
   transform="matrix(0.77142668,0,0,0.69823035,-6.3141846,-121.86482)" /><g
   id="g1271"
   transform="matrix(0.77142668,0,0,0.69823035,-6.3141846,-121.86482)">
					<path
   class="st15"
   d="m 347.9,360.8 -5,-9.2 2.6,-1.4 v 0 c 0.1,0 0.1,-0.1 0.2,-0.1 1.6,-0.8 4,0.6 5.3,3.2 1.3,2.6 1.1,5.3 -0.5,6.1 v 0 z"
   id="path1263" />
					<path
   class="st16"
   d="m 342.4,357.7 c -1.3,-2.6 -1.1,-5.3 0.5,-6.2 1.6,-0.8 4,0.6 5.3,3.2 1.3,2.6 1.1,5.3 -0.5,6.2 -1.6,0.8 -4,-0.7 -5.3,-3.2 z"
   id="path1265" />
					<path
   class="st17"
   d="m 343,357.4 c -1.1,-2.1 -0.9,-4.3 0.4,-4.9 1.3,-0.7 3.2,0.5 4.2,2.6 1.1,2.1 0.9,4.3 -0.4,4.9 -1.3,0.6 -3.2,-0.6 -4.2,-2.6 z"
   id="path1267" />
					<path
   class="st18"
   d="m 343.9,356.9 c -0.9,-1.7 -0.8,-3.4 0.1,-4.2 1.1,-0.3 2.6,0.7 3.5,2.4 0.9,1.7 0.8,3.4 -0.1,4.2 -1.2,0.3 -2.7,-0.7 -3.5,-2.4 z"
   id="path1269" />
				</g><g
   id="g1281"
   transform="matrix(0.77142668,0,0,0.69823035,-6.3141846,-121.86482)">
					<path
   class="st15"
   d="m 382.8,381.1 -5,-9.2 2.6,-1.4 v 0 c 0.1,0 0.1,-0.1 0.2,-0.1 1.6,-0.8 4,0.6 5.3,3.2 1.3,2.6 1.1,5.3 -0.5,6.1 v 0 z"
   id="path1273" />
					<path
   class="st16"
   d="m 377.3,378 c -1.3,-2.6 -1.1,-5.3 0.5,-6.2 1.6,-0.8 4,0.6 5.3,3.2 1.3,2.6 1.1,5.3 -0.5,6.2 -1.6,0.8 -4,-0.6 -5.3,-3.2 z"
   id="path1275" />
					<path
   class="st17"
   d="m 377.9,377.7 c -1.1,-2.1 -0.9,-4.3 0.4,-4.9 1.3,-0.7 3.2,0.5 4.2,2.6 1.1,2.1 0.9,4.3 -0.4,4.9 -1.2,0.6 -3.1,-0.5 -4.2,-2.6 z"
   id="path1277" />
					<path
   class="st18"
   d="m 378.8,377.2 c -0.9,-1.7 -0.8,-3.4 0.1,-4.2 1.1,-0.3 2.6,0.7 3.5,2.4 0.9,1.7 0.8,3.4 -0.1,4.2 -1.1,0.3 -2.6,-0.7 -3.5,-2.4 z"
   id="path1279" />
				</g><polygon
   class="st32"
   points="344.4,345.8 345.1,345.4 365.6,353.8 384.2,368.1 384.2,372.4 383.5,372.8 383.5,368.5 364.2,357.9 361.1,357.5 359.4,356.3 360.3,355.7 "
   id="polygon1283"
   transform="matrix(0.77142668,0,0,0.69823035,-6.3141846,-121.86482)" /><path
   class="st33"
   d="m 259.36518,119.58323 12.26566,6.91248 -2.5457,1.8154 -9.64283,-5.65567 v -3.07221 z m 15.27424,8.44858 14.96567,7.33142 v 3.00239 l -14.96567,-7.12195 z"
   id="path1285"
   style="stroke-width:0.733917" /><path
   class="st18"
   d="m 274.63942,94.86587 v 0 c -1.00287,0 -1.77429,0.768055 -1.77429,1.74558 v 29.04639 c 0,1.46627 3.54856,1.46627 3.54856,0 V 96.68128 c 0,-0.977525 -0.84856,-1.81541 -1.77427,-1.81541 z"
   id="path1287"
   style="stroke-width:0.733917" /><g
   id="g1295"
   transform="matrix(0.77142668,0,0,0.69823035,-6.3141846,-121.86482)">
					<path
   class="st34"
   d="m 336.9,315.4 v -9.2 h 54.4 l 0.1,9.5 c 0,22.5 -54.5,22.2 -54.5,-0.3 z"
   id="path1289" />
					<path
   class="st35"
   d="m 364.1,323 c -15,0 -27.2,-7.6 -27.2,-16.9 0,-9.3 12.2,-16.9 27.2,-16.9 15,0 27.2,7.6 27.2,16.9 0,9.3 -12.2,16.9 -27.2,16.9 z"
   id="path1291" />
					<path
   class="st21"
   d="m 364.1,319.1 c -11.5,0 -20.9,-5.8 -20.9,-13 0,-7.1 9.4,-13 20.9,-13 11.5,0 20.9,5.8 20.9,13 0,7.2 -9.4,13 -20.9,13 z"
   id="path1293" />
				</g><path
   class="st5"
   d="m 253.11661,76.292945 c 4.62857,-3.142035 20.36565,1.326638 35.63991,5.306551 1.92857,3.142037 3.70284,8.588238 -1.92857,12.847436 -12.26568,9.286458 -20.21138,-11.10186 -31.62849,-9.705399 -4.70571,-0.977522 -5.32285,-6.21425 -2.08285,-8.448588 z"
   id="path1299"
   style="fill:#2b374a;fill-opacity:1;stroke-width:0.733917" /><path
   class="st6"
   d="m 231.5938,93.53924 c 11.49426,-6.703016 26.15138,-10.194168 41.27133,-11.450983 2.16,3.072215 6.63428,-2.024867 10.79998,0.279292 0.30857,2.792923 4.62855,9.775226 -3.70285,15.081776 -9.48855,6.004775 -27.53995,-1.326632 -41.96561,5.306545 -2.93143,-0.83787 -9.5657,-7.401233 -6.40285,-9.21663 z"
   id="path1301"
   style="fill:#2b374a;fill-opacity:1;stroke-width:0.733917" /><path
   class="st7"
   d="m 223.49383,123.00456 c -2.00572,1.32663 -0.77143,5.23672 1.31142,5.86513 4.85999,1.46628 8.56284,3.35151 11.72569,4.25921 1.15714,0.34911 3.85714,0.6284 5.01427,-1.25682 0.30856,-0.76806 -1.46571,-3.42133 -1.46571,-3.42133 -5.70856,0.55859 -14.03997,-6.70301 -16.58567,-5.44619 z"
   id="path1303"
   style="stroke-width:0.733917" /><path
   class="st8"
   d="m 230.20523,123.35367 c -2.5457,0.55859 -4.62855,-1.04735 -5.47712,-0.9077 -0.69429,0.0698 -1.62,0.69824 -1.77429,1.67575 -0.30856,1.60593 0.61714,3.21187 2.23714,3.91009 1.69715,0.76806 3.6257,0.41894 6.47999,1.46629 1.54285,0.55858 5.39998,2.58345 6.8657,2.58345 1.46571,0 2.69998,-0.83788 2.85427,-1.8154 -0.30856,-5.93496 -5.55426,-8.09946 -11.18569,-6.91248 z"
   id="path1305"
   style="fill:#333333;stroke-width:0.733917" /><path
   class="st6"
   d="m 240.77378,127.54305 c -2.62284,2.58345 -7.71426,-0.0699 -9.02568,-4.46867 0.46285,-6.07461 -0.1543,-17.24629 -1.46573,-25.904354 -0.84856,-5.725483 10.18284,-6.772831 12.11141,0.418938 1.07999,6.633196 -1.46571,26.881876 -1.62,29.954086 z"
   id="path1309"
   style="fill:#2b374a;fill-opacity:1;stroke-width:0.733917" /><path
   class="st11"
   d="m 277.95655,52.203995 c -5.32284,4.11956 -18.51424,-0.698229 -25.30281,-2.862744 -1.38856,-0.418938 0.6943,-3.072213 1.46573,-3.072213 5.32284,0.20947 16.43139,0.139646 20.82852,-0.837876 2.77713,-0.628408 6.94283,3.770443 3.00856,6.772833 z"
   id="path1311"
   style="fill:#a05a2c;fill-opacity:1;stroke-width:0.733917" /><path
   class="st9"
   d="m 270.24227,63.375681 c -2.15999,0.628407 -6.55712,-4.189381 -5.32283,-7.401241 3.00855,-5.166905 2.00571,-9.216641 3.77999,-11.381156 4.55141,-6.004781 7.4057,-6.353896 11.5714,-4.957435 2.85428,0.977523 6.3257,4.81779 4.31999,8.588234 -3.78,7.261596 -14.34855,15.151598 -14.34855,15.151598 z"
   id="path1313"
   style="fill:#ff7f2a;fill-opacity:1;stroke-width:0.733917" /><path
   class="st10"
   d="m 256.43375,60.722406 c 1.38857,4.81779 2.85427,6.91248 4.08856,10.682928 0.84856,2.583451 0.53999,9.635578 2.31428,11.660446 -1.15714,6.214252 19.82566,4.608318 27.53992,-0.279292 2.7,-3.002391 -0.3857,-8.448588 -0.77142,-14.802487 -0.38572,-5.585843 -1.15714,-12.079385 -1.77428,-16.687705 -0.77143,-5.446197 -5.63141,-12.847438 -13.88569,-11.73027 -3.62569,0.558585 -8.25426,1.60593 -16.50852,9.076994 -3.62571,3.281683 -2.7,6.284074 -1.00285,12.079386 z"
   id="path1315"
   style="fill:#178066;fill-opacity:1;stroke-width:0.733917" /><path
   class="st9"
   d="m 290.83937,84.811356 c -4.47427,3.281682 -23.52852,9.984694 -28.46564,0.698231 0.0771,-0.768054 0.38571,-1.745576 0.46286,-2.443807 6.24855,6.912485 21.13709,3.002391 27.53992,-0.279292 0.15429,0.69823 0.30858,1.326638 0.46286,2.024868 z"
   id="path1317"
   style="fill:#2b374a;fill-opacity:1;stroke-width:0.733917" /><path
   class="st36"
   d="m 217.78527,70.637277 0.0771,0.139646 c 0.15428,0.209469 0.38572,0.279292 0.61715,0.139646 l 8.8714,-4.468674 c 0.92571,-0.488762 0,-1.885222 -0.84858,-1.326638 l -8.56284,4.887612 c -0.23142,0.139647 -0.30856,0.418939 -0.15427,0.628408 z"
   id="path1319"
   style="stroke-width:0.733917" /><path
   class="st24"
   d="m 205.21102,77.130822 0.30856,0.488761 12.6514,-6.772836 c 0.23143,-0.139648 -0.0771,-0.628408 -0.30857,-0.488763 z"
   id="path1321"
   style="stroke-width:0.733917" /><path
   class="st41"
   d="m 205.21102,77.130822 0.30856,0.488761 1.38856,-0.837876 c 0.15429,-0.139646 -0.0771,-0.418939 -0.23143,-0.349115 z"
   id="path1323"
   style="stroke-width:0.733917" /><path
   class="st36"
   d="m 216.16528,74.198255 0.0771,0.06982 c 0.0771,0.139646 0.30856,0.20947 0.46285,0.06982 l 6.24855,-3.142039 c 0.69428,-0.349115 0,-1.326637 -0.61714,-0.977522 l -6.01712,3.491154 c -0.15428,0.139646 -0.23143,0.279292 -0.15428,0.48876 z"
   id="path1327"
   style="stroke-width:0.733917" /><path
   class="st24"
   d="m 207.37101,78.806575 0.23142,0.349116 8.87142,-4.817791 c 0.15428,-0.06982 -0.0771,-0.48876 -0.23143,-0.349115 z"
   id="path1329"
   style="stroke-width:0.733917" /><path
   class="st41"
   d="m 207.37101,78.806575 0.23142,0.349116 1.00286,-0.628408 c 0.15428,-0.06982 0,-0.279293 -0.15429,-0.20947 z"
   id="path1331"
   style="stroke-width:0.733917" /><polygon
   class="st27"
   points="328.5,247.7 328.5,191.2 291,212.7 291,269.3 "
   id="polygon1335"
   transform="matrix(0.77142668,0,0,0.69823035,-6.3141846,-121.86482)" /><polygon
   class="st29"
   points="270.2,257.5 270.2,200.9 291,212.7 291,269.3 "
   id="polygon1337"
   transform="matrix(0.77142668,0,0,0.69823035,-6.3141846,-121.86482)" /><polygon
   class="st25"
   points="307.7,179.7 328.5,191.2 291,212.7 270.1,200.9 "
   id="polygon1339"
   transform="matrix(0.77142668,0,0,0.69823035,-6.3141846,-121.86482)" /><polygon
   class="st42"
   points="294.4,218.6 325.8,200.5 325.9,243.7 294.4,261.8 "
   id="polygon1341"
   transform="matrix(0.77142668,0,0,0.69823035,-6.3141846,-121.86482)" /><polygon
   class="st43"
   points="294.4,218.6 325,201 325,243.2 294.4,260.8 "
   id="polygon1343"
   transform="matrix(0.77142668,0,0,0.69823035,-6.3141846,-121.86482)" /><polygon
   class="st29"
   points="325,242.8 325,243.2 294.4,260.8 294.4,239.8 307.6,232.6 "
   id="polygon1345"
   transform="matrix(0.77142668,0,0,0.69823035,-6.3141846,-121.86482)" /><polygon
   class="st24"
   points="325,215.9 325,220.3 294.4,237.5 294.4,219 311.8,209 "
   id="polygon1347"
   transform="matrix(0.77142668,0,0,0.69823035,-6.3141846,-121.86482)" /><polygon
   class="st29"
   points="325,215.8 325,219 294.4,236.1 294.4,218.6 312.3,208.3 "
   id="polygon1349"
   transform="matrix(0.77142668,0,0,0.69823035,-6.3141846,-121.86482)" /><polygon
   class="st24"
   points="272.2,211.6 272.2,207.5 289,217.1 289,221.2 "
   id="polygon1351"
   transform="matrix(0.77142668,0,0,0.69823035,-6.3141846,-121.86482)" /><polygon
   class="st24"
   points="272.2,217.2 272.2,213.1 289,222.7 289,226.8 "
   id="polygon1353"
   transform="matrix(0.77142668,0,0,0.69823035,-6.3141846,-121.86482)" /><polygon
   class="st24"
   points="272.2,222.8 272.2,218.7 289,228.3 289,232.4 "
   id="polygon1355"
   transform="matrix(0.77142668,0,0,0.69823035,-6.3141846,-121.86482)" /><polygon
   class="st24"
   points="272.2,253.7 272.2,225.4 289,234.9 289,263.2 "
   id="polygon1357"
   transform="matrix(0.77142668,0,0,0.69823035,-6.3141846,-121.86482)" /><polygon
   class="st29"
   points="273.2,230.9 273.2,227.9 287.7,236.1 287.7,239.2 "
   id="polygon1359"
   transform="matrix(0.77142668,0,0,0.69823035,-6.3141846,-121.86482)" /><polygon
   class="st43"
   points="285.5,237.9 285.5,234.9 287.7,236.1 287.7,239.2 "
   id="polygon1361"
   transform="matrix(0.77142668,0,0,0.69823035,-6.3141846,-121.86482)" /><polygon
   class="st43"
   points="273.2,230.9 273.2,227.9 275.4,229.1 275.4,232.2 "
   id="polygon1363"
   transform="matrix(0.77142668,0,0,0.69823035,-6.3141846,-121.86482)" /><polygon
   class="st29"
   points="275.9,257.6 275.9,241.7 285.3,247 285.3,263 "
   id="polygon1365"
   transform="matrix(0.77142668,0,0,0.69823035,-6.3141846,-121.86482)" /><path
   class="st44"
   d="m 235.9138,49.620543 c -0.0771,-0.418938 -0.15429,-0.837875 -0.15429,-1.256814 -0.46286,-3.002391 -0.69429,-4.398851 2.77714,-6.703012 3.23999,-2.234336 3.39426,-5.934957 3.47142,-9.845048 0.0771,-3.142037 0.23143,-6.423719 2.08284,-9.007171 l 0.30858,0.139646 c -1.85143,2.443806 -1.92856,5.725488 -2.00571,8.797703 -0.15428,3.979913 -0.23143,7.750356 -3.6257,10.054517 -3.31713,2.234336 -3.08571,3.491151 -2.62285,6.423719 0.0771,0.418937 0.15428,0.768053 0.15428,1.256815 z"
   id="path1367"
   style="stroke-width:0.733917" /><path
   class="st45"
   d="m 234.13951,49.131783 h -0.30856 c 0,-3.142038 1.85142,-4.259206 3.70284,-5.446198 1.92857,-1.186992 3.77999,-2.30416 3.16285,-5.795312 -0.69428,-4.259205 -0.30856,-13.196553 3.62571,-15.500713 l 0.15429,0.279291 c -3.85714,2.304161 -4.16571,11.032041 -3.47143,15.221422 0.61714,3.630798 -1.38857,4.887614 -3.31713,6.074605 -1.77428,1.047345 -3.54857,2.164514 -3.54857,5.166905 z"
   id="path1371"
   style="stroke-width:0.733917" /><path
   class="st46"
   d="m 237.91951,48.15426 h -0.30857 c 0,-0.768054 -0.30858,-1.536107 -0.61715,-2.373983 -0.46285,-1.186993 -1.00285,-2.373984 -0.61714,-3.840268 0.23143,-1.047346 0.92571,-2.024868 1.54286,-2.932567 0.77142,-1.047345 1.4657,-2.024868 1.4657,-3.00239 v -0.06982 c 0,-6.353896 0,-9.00717 4.86,-13.894783 l 0.23143,0.209469 c -4.78286,4.81779 -4.78286,7.401241 -4.78286,13.685314 v 0.06982 c 0,1.117168 -0.69428,2.094691 -1.4657,3.211859 -0.61714,0.9077 -1.31144,1.815399 -1.54286,2.862745 -0.30857,1.396461 0.15429,2.513628 0.61714,3.700621 0.30858,0.698231 0.61715,1.466283 0.61715,2.373983 z"
   id="path1375"
   style="stroke-width:0.733917" /><g
   id="g1381"
   transform="matrix(0.77142668,0,0,0.69823035,-6.3141846,-121.86482)">
					<path
   class="st45"
   d="m 312.4,216.3 c -1,0 -2,-0.3 -2.7,-0.9 l -0.4,-0.3 0.6,-0.1 c 4,-0.4 8.8,-3 9.6,-7.7 0.2,-1.4 0.8,-2.8 1.7,-4.3 l 0.4,0.2 c -0.9,1.4 -1.4,2.8 -1.6,4.1 -0.8,4.7 -5.3,7.4 -9.4,8 1.3,0.7 2.8,0.5 3.8,0.2 2.7,-0.8 5.3,-3.2 6.1,-5.4 0.2,-0.6 0.4,-1.5 0.7,-2.5 0.5,-1.7 1,-3.9 1.8,-5.7 l 0.4,0.2 c -0.8,1.8 -1.3,3.9 -1.8,5.6 -0.3,1 -0.5,1.8 -0.7,2.5 -0.8,2.3 -3.6,4.8 -6.4,5.7 -0.8,0.3 -1.5,0.4 -2.1,0.4 z"
   id="path1379" />
				</g><g
   id="g1385"
   transform="matrix(0.77142668,0,0,0.69823035,-6.3141846,-121.86482)">
					<path
   class="st46"
   d="m 311.3,213.6 v -0.4 c 5.9,0 9.2,-5.1 9.9,-10.2 l 0.4,0.1 c -0.6,5.2 -4.1,10.5 -10.3,10.5 z"
   id="path1383" />
				</g><polygon
   class="st24"
   points="294.4,227.8 294.4,234.2 314.5,222.5 314.6,216.2 "
   id="polygon1389"
   transform="matrix(0.77142668,0,0,0.69823035,-6.3141846,-121.86482)" /><polygon
   class="st29"
   points="294.4,227.8 294.4,218.6 306.4,211.7 314.6,216.2 "
   id="polygon1391"
   transform="matrix(0.77142668,0,0,0.69823035,-6.3141846,-121.86482)" /><polygon
   class="st24"
   points="294.4,220.3 294.4,226.7 314.5,215 314.6,208.8 "
   id="polygon1395"
   transform="matrix(0.77142668,0,0,0.69823035,-6.3141846,-121.86482)" /><polygon
   class="st29"
   points="294.4,220.3 294.4,218.6 313,207.9 314.6,208.8 "
   id="polygon1397"
   transform="matrix(0.77142668,0,0,0.69823035,-6.3141846,-121.86482)" /><g
   id="g1413"
   transform="matrix(0.77142668,0,0,0.69823035,-6.3141846,-121.86482)">
					<path
   class="st11"
   d="m 296.5,245.2 c 0.8,-0.2 1.7,-1 2.3,-2.2 0.6,-1.2 1.1,-2.5 1.3,-3 0.5,-1.3 0.2,-1.2 0.8,-2.5 -0.7,-0.3 -1.8,-0.5 -2.5,1.8 -0.4,0.4 -0.8,0.3 -1.1,2.1 -3.6,0.9 -2.2,4.2 -0.8,3.8 z"
   id="path1401"
   style="fill:#a05a2c;fill-opacity:1" />
					<path
   class="st3"
   d="m 294.2,246.4 c 0.4,-3.2 3.2,1.6 3.4,-1.4 0.8,-3 0.9,-8.1 0.2,-9.4 -0.1,-1 -6.1,0.7 -6.6,1.6 -0.7,1.8 -0.6,6.7 -0.3,7.8 0.3,0.6 1.2,2.9 3.3,1.4 z"
   id="path1403"
   style="fill:#a05a2c;fill-opacity:1" />
					<path
   class="st3"
   d="m 292.5,236.6 -1.4,-3.6 c -0.4,-0.9 -1.4,-0.4 -1.1,0.6 l 1,3.7 c 0.3,0.8 1.9,0.2 1.5,-0.7 z"
   id="path1405"
   style="fill:#a05a2c;fill-opacity:1" />
					<path
   class="st3"
   d="m 293.6,237.2 v 0 c 0.5,-0.1 0.7,-0.6 0.6,-1.1 l -1.3,-4.4 c -0.3,-1.1 -1.6,-0.7 -1.3,0.4 l 1,4.5 c 0,0.5 0.5,0.8 1,0.6 z"
   id="path1407"
   style="fill:#a05a2c;fill-opacity:1" />
					<path
   class="st3"
   d="m 295.2,236.9 v 0 c 0.5,-0.2 0.7,-0.7 0.6,-1.2 L 294,231 c -0.4,-1.2 -1.8,-0.8 -1.4,0.4 l 1.5,4.8 c 0.1,0.5 0.6,0.8 1.1,0.7 z"
   id="path1409"
   style="fill:#a05a2c;fill-opacity:1" />
					<path
   class="st3"
   d="m 297.8,235.3 -1.6,-4.3 c -0.4,-1.1 -1.8,-0.6 -1.4,0.5 l 1.3,4.4 c 0.4,1.1 2.1,0.5 1.7,-0.6 z"
   id="path1411"
   style="fill:#a05a2c;fill-opacity:1" />
				</g><path
   class="st11"
   d="m 235.14237,67.495241 c -6.63428,-1.955045 -14.34854,-11.590625 -16.43139,-17.804875 -0.38571,-1.186992 3.31713,-1.885221 4.62856,-0.558583 3.62571,3.770442 13.42283,9.635578 16.66282,12.498322 2.00571,1.8154 0,7.331418 -4.85999,5.865136 z"
   id="path1415"
   style="fill:#a05a2c;stroke-width:0.733917" /><path
   class="st10"
   d="m 238.22808,59.67506 c -4.16571,0.418938 -5.16856,5.306551 -4.16571,8.239119 0.38572,1.256814 4.16571,3.281683 6.17142,2.443805 5.09141,-2.094691 5.63141,-6.353896 3.47141,-9.426109 -0.84857,-1.256815 -3.70284,-1.466284 -5.47712,-1.256815 z"
   id="path1419"
   style="fill:#ff6600;stroke-width:0.733917" /><path
   class="st14"
   d="m 241.62235,67.914179 c -2.31428,-0.139646 -4.31999,-6.144427 -1.85143,-8.658057 4.93714,-3.770443 6.55714,-4.747966 9.17998,-6.144427 6.78857,-3.979912 8.63999,-5.725489 11.95711,-3.630797 2.46857,1.60593 3.85714,6.633188 0.38572,9.426108 -6.55713,5.376375 -19.67138,9.007173 -19.67138,9.007173 z"
   id="path1421"
   style="fill:#ff7f2a;fill-opacity:1;stroke-width:0.733917" /><path
   class="st3"
   d="m 259.75088,24.554074 c -0.46286,1.047345 -1.00286,2.164515 -1.31142,3.211859 -0.23143,0.768053 -0.30858,0.977523 0,1.745576 0.46285,1.047346 0.77142,1.326637 -0.0771,2.164514 -0.84856,0.837877 0.15429,3.560975 0.54,4.817789 0.30857,0.977523 0.46287,2.164515 1.46571,2.792922 2.46857,1.536107 5.2457,0.69823 7.71427,-0.06982 2.46857,-0.768053 7.48284,-6.353896 8.25426,-8.169295 0.61715,-3.770443 -0.38571,-7.12195 -7.32855,-9.565756 -3.00856,-1.047346 -8.09999,0.418938 -9.25712,3.072214 z"
   id="path1423"
   style="fill:#a05a2c;fill-opacity:1;stroke-width:0.733917" /><path
   class="st11"
   d="m 262.52801,35.167175 c 0,0 -1.00286,5.795312 1.23429,10.333809 2.54571,-2.30416 8.56282,0.558585 11.87997,-3.002391 -0.61714,-1.256814 -2.54571,-4.747965 -1.85143,-9.984693 0.15428,-1.536107 -10.87712,-1.955045 -11.26283,2.653275 z"
   id="path1425"
   style="fill:#a05a2c;fill-opacity:1;stroke-width:0.733917" /><path
   class="st13"
   d="m 260.98516,30.139916 c 0.15428,0.488761 0.69429,0.69823 -0.38571,2.164515 3.00855,-0.418939 2.31427,0 3.00855,-0.418939 1.15715,-0.69823 1.31144,1.8154 2.54572,3.979913 1.92856,3.351506 7.09712,2.024868 7.48283,1.815399 2.16001,-4.189382 5.78571,-9.775225 2.54572,-13.475845 -2.70001,-3.072215 -8.56284,-4.887613 -12.80569,-3.142037 -1.92856,0.768053 -6.71141,3.072213 -3.54855,5.30655 1.31141,0.837877 0.69428,2.164514 1.15713,3.770444 z"
   id="path1427"
   style="fill:#454837;fill-opacity:1;stroke-width:0.733917" /><path
   class="st3"
   d="m 264.99658,33.142306 c -0.23143,1.326639 -1.31143,3.211861 -1.92857,3.072215 -1.61999,-0.558585 -0.77143,-1.536108 -0.54,-2.862745 0.23143,-1.326638 -0.15428,-2.164514 0.54,-2.30416 1.08001,-0.139646 2.15999,0.768053 1.92857,2.09469 z"
   id="path1429"
   style="fill:#a05a2c;fill-opacity:1;stroke-width:0.733917" /><path
   class="st14"
   d="m 260.29088,22.808498 c 2.46856,0.279291 6.55712,0.977522 8.02284,1.885222 -3.85714,-0.279292 -4.55142,2.09469 -6.71143,2.583452 -2.69998,0.558584 -8.94855,-0.558583 -8.71712,-1.675753 0.6943,-2.792921 4.78286,-3.072214 7.40571,-2.792921 z"
   id="path1431"
   style="fill:#ff7f2a;fill-opacity:1;stroke-width:0.733917" /><path
   class="st5"
   d="m 276.79942,31.6062 c -4.08857,1.60593 -13.49998,-1.39646 -18.74568,-5.236728 2.62285,-7.61071 7.7914,-7.959825 13.26854,-6.074603 6.01713,2.094691 8.17713,6.772835 5.47714,11.311331 z"
   id="path1433"
   style="fill:#178066;fill-opacity:1;stroke-width:0.733917" /><polygon
   class="st24"
   points="230.2,260 230.2,247.2 248.8,257.8 248.8,270.7 "
   id="polygon1437"
   transform="matrix(0.77142668,0,0,0.69823035,-6.3141846,-121.86482)" /><polygon
   class="st27"
   points="262.4,263 262.4,250.1 248.8,257.8 248.8,270.7 "
   id="polygon1439"
   transform="matrix(0.77142668,0,0,0.69823035,-6.3141846,-121.86482)" /><polygon
   class="st25"
   points="243.7,239.6 230.2,247.2 248.8,257.8 262.4,250.1 "
   id="polygon1441"
   transform="matrix(0.77142668,0,0,0.69823035,-6.3141846,-121.86482)" /><path
   class="st29"
   d="m 183.53392,48.64302 c 3.31713,0 6.01713,1.326639 6.01713,2.862746 0,1.605929 -2.7,2.862744 -6.01713,2.862744 -3.31714,0 -6.01712,-1.326638 -6.01712,-2.862744 0,-1.536107 2.69998,-2.862746 6.01712,-2.862746 z"
   id="path1443"
   style="stroke-width:0.733917" /><path
   class="st29"
   d="m 188.85677,64.49285 c 0.38571,-0.69823 0.30857,-1.466284 -0.15429,-1.675753 -0.46285,-0.20947 -1.23429,0.139645 -1.62,0.907699 -0.38571,0.698231 -0.30857,1.466285 0.15428,1.675753 0.46286,0.209469 1.23429,-0.209468 1.62001,-0.907699 z"
   id="path1445"
   style="stroke-width:0.733917" /><path
   class="st34"
   d="m 183.53392,48.992136 c 3.16285,0 5.7857,1.186991 6.01713,2.723098 -0.15428,1.536107 -2.77714,2.723099 -6.01713,2.723099 -3.16285,0 -5.78569,-1.186992 -6.01712,-2.723099 0.15428,-1.536107 2.77713,-2.723098 6.01712,-2.723098 z"
   id="path1447"
   style="stroke-width:0.733917" /><polygon
   class="st25"
   points="252,244.8 239.6,251.8 240.1,252.1 252.5,245 "
   id="polygon1449"
   transform="matrix(0.77142668,0,0,0.69823035,-6.3141846,-121.86482)" /><polygon
   class="st25"
   points="240.1,244.8 252.5,251.8 252,252.1 239.6,245 "
   id="polygon1451"
   transform="matrix(0.77142668,0,0,0.69823035,-6.3141846,-121.86482)" /><path
   class="st25"
   d="m 183.53392,50.807535 c 0.84857,0 1.54285,0.349115 1.54285,0.768053 0,0.418938 -0.69428,0.768053 -1.54285,0.768053 -0.84857,0 -1.54285,-0.349115 -1.54285,-0.768053 0,-0.418938 0.69428,-0.768053 1.54285,-0.768053 z"
   id="path1453"
   style="stroke-width:0.733917" /><path
   class="st34"
   d="m 188.62533,64.423027 c 0.30859,-0.558584 0.23144,-1.117169 -0.15428,-1.256815 -0.38571,-0.139646 -0.9257,0.139646 -1.23429,0.628408 -0.30856,0.558583 -0.23143,1.117167 0.15429,1.256814 0.38572,0.139647 0.92572,-0.139647 1.23428,-0.628407 z"
   id="path1455"
   style="stroke-width:0.733917" /><path
   class="st44"
   d="m 214.54528,77.968698 c 0,0 0,0 0,0 -0.54,-0.06982 -1.00286,-0.139646 -1.38857,-0.139646 -3.31714,-0.349115 -4.86,-0.488761 -6.48,-4.119558 -1.54284,-3.421332 -5.47712,-4.468677 -9.64282,-5.585846 -3.39428,-0.9077 -6.86569,-1.8154 -9.10284,-4.11956 -0.0771,-0.06982 -0.0771,-0.139645 0,-0.209468 0.0771,-0.06982 0.15429,-0.06982 0.23143,0 2.16001,2.234337 5.63142,3.142036 8.94855,4.049736 4.24285,1.117167 8.25426,2.164513 9.87426,5.72549 1.54285,3.42133 2.93142,3.560976 6.17142,3.979915 0.46287,0.06982 0.92572,0.06982 1.38857,0.139645 0.0771,0 0.15428,0.06982 0.15428,0.139646 0,0.06982 0,0.139646 -0.15428,0.139646 z"
   id="path1457"
   style="stroke-width:0.733917" /><path
   class="st45"
   d="m 213.46528,79.714275 c 0,0 0,0 0,0 -3.39428,-0.768054 -4.16571,-2.723099 -4.85999,-4.608321 -0.77143,-2.024868 -1.54286,-3.910092 -5.32285,-4.259207 -4.24284,-0.418939 -14.03996,-2.792923 -15.58282,-6.982304 0,-0.06982 0,-0.139647 0.0771,-0.20947 0.0771,0 0.15428,0 0.23142,0.06982 1.54286,4.049737 11.18569,6.353897 15.3514,6.772834 4.01142,0.418939 4.85998,2.44381 5.6314,4.468677 0.69429,1.8154 1.46573,3.700621 4.62857,4.398852 0.0771,0 0.15428,0.06982 0.15428,0.209469 -0.15428,0.139646 -0.23142,0.139646 -0.30856,0.139646 z"
   id="path1461"
   style="stroke-width:0.733917" /><path
   class="st46"
   d="m 208.99099,76.223123 c -0.84856,0 -1.69712,-0.139647 -2.62284,-0.488762 -1.08,-0.488761 -1.92857,-1.326637 -2.69999,-2.164515 -0.92572,-0.907699 -1.77429,-1.745575 -2.85427,-2.024866 -0.54001,-0.139646 -1.08001,-0.279296 -1.62001,-0.349118 -5.47713,-1.256816 -8.02284,-1.885223 -11.64853,-6.912481 -0.0772,-0.06982 0,-0.139646 0.0771,-0.209469 0.0771,-0.06982 0.15428,0 0.23142,0.06982 3.62571,4.957436 5.86284,5.51602 11.49426,6.772835 0.53999,0.139646 1.00284,0.209469 1.62,0.349115 1.15713,0.279296 2.08285,1.186994 3.00855,2.094694 0.77143,0.768054 1.62,1.605929 2.62286,2.094692 1.38857,0.628406 2.77714,0.48876 4.08857,0.418938 1.00285,-0.06982 1.92856,-0.139647 2.85427,0.06982 0.0771,0 0.15429,0.06982 0.15429,0.209469 0,0.06982 -0.0771,0.139646 -0.23143,0.139646 -0.84857,-0.209469 -1.77428,-0.139646 -2.69999,-0.06982 -0.69429,-0.06982 -1.23429,0 -1.7743,0 z"
   id="path1465"
   style="stroke-width:0.733917" />
</svg>
