<?xml version="1.0" encoding="UTF-8" standalone="no"?>
<!-- Generator: Adobe Illustrator 25.1.0, SVG Export Plug-In . SVG Version: 6.00 Build 0)  -->

<svg
   version="1.1"
   id="Layer_1"
   x="0px"
   y="0px"
   viewBox="0 0 500 350"
   xml:space="preserve"
   sodipodi:docname="renovation_GF.svg"
   inkscape:version="1.1 (c68e22c387, 2021-05-23)"
   width="500"
   height="350"
   xmlns:inkscape="http://www.inkscape.org/namespaces/inkscape"
   xmlns:sodipodi="http://sodipodi.sourceforge.net/DTD/sodipodi-0.dtd"
   xmlns="http://www.w3.org/2000/svg"
   xmlns:svg="http://www.w3.org/2000/svg"><defs
   id="defs1305"><inkscape:path-effect
   effect="spiro"
   id="path-effect113904"
   is_visible="true"
   lpeversion="1" /><inkscape:path-effect
   effect="spiro"
   id="path-effect113574"
   is_visible="true"
   lpeversion="1" /><inkscape:path-effect
   effect="spiro"
   id="path-effect113539"
   is_visible="true"
   lpeversion="1" /><inkscape:path-effect
   effect="spiro"
   id="path-effect113520"
   is_visible="true"
   lpeversion="1" /><inkscape:path-effect
   effect="spiro"
   id="path-effect113489"
   is_visible="true"
   lpeversion="1" /><inkscape:path-effect
   effect="bspline"
   id="path-effect112529"
   is_visible="true"
   lpeversion="1"
   weight="33.333333"
   steps="2"
   helper_size="0"
   apply_no_weight="true"
   apply_with_weight="true"
   only_selected="false" /><inkscape:path-effect
   effect="spiro"
   id="path-effect108708"
   is_visible="true"
   lpeversion="1" /><inkscape:path-effect
   effect="spiro"
   id="path-effect59484"
   is_visible="true"
   lpeversion="1" /><inkscape:path-effect
   effect="spiro"
   id="path-effect51864"
   is_visible="true"
   lpeversion="1" /><inkscape:path-effect
   effect="spiro"
   id="path-effect51860"
   is_visible="true"
   lpeversion="1" /><inkscape:path-effect
   effect="spiro"
   id="path-effect51823"
   is_visible="true"
   lpeversion="1" /><inkscape:path-effect
   effect="spiro"
   id="path-effect51819"
   is_visible="true"
   lpeversion="1" /><inkscape:path-effect
   effect="spiro"
   id="path-effect51815"
   is_visible="true"
   lpeversion="1" /><inkscape:path-effect
   effect="spiro"
   id="path-effect42876"
   is_visible="true"
   lpeversion="1" />
		
		
	
	
	
	
	
	
	
	
	
	
	
	
	
	
	
	
	
	
	
	
	
	
	
	
	
	
	
	
	
	
	

	
	
	
	
	
	
	
	
	
	
	
	
	
	
	
	
	
	
	
	
	
	
	
	
	
	
	
	
	
	
	
	
</defs><sodipodi:namedview
   id="namedview1303"
   pagecolor="#505050"
   bordercolor="#eeeeee"
   borderopacity="1"
   inkscape:pageshadow="0"
   inkscape:pageopacity="0"
   inkscape:pagecheckerboard="0"
   showgrid="false"
   inkscape:zoom="0.40354767"
   inkscape:cx="-1302.2006"
   inkscape:cy="278.77747"
   inkscape:window-width="1920"
   inkscape:window-height="1001"
   inkscape:window-x="-9"
   inkscape:window-y="-9"
   inkscape:window-maximized="1"
   inkscape:current-layer="Layer_1"
   borderlayer="true"
   width="500px" />
<style
   type="text/css"
   id="style2">
	.st0{fill:#CE9167;}
	.st1{fill:#D1AD99;}
	.st2{fill:#E0C1AD;}
	.st3{fill:#80A8E8;}
	.st4{fill:#D3BCC5;}
	.st5{fill:#F2E7EB;}
	.st6{fill:#E5D6DC;}
	.st7{fill:#9CBAF7;}
	.st8{fill:#F9CC95;}
	.st9{fill:#E5B177;}
	.st10{fill:#D39C66;}
	.st11{fill:#FFFFFF;}
	.st12{fill:#373951;}
	.st13{fill:#474864;}
	.st14{fill:#DDCAD2;}
	.st15{fill:#F7F0F3;}
	.st16{fill:#CCBAC2;}
	.st17{fill:#BAA6AF;}
	.st18{opacity:0.4;fill:#5E8DD1;}
	.st19{opacity:0.5;fill:#FFFFFF;}
	.st20{fill:#D8C7CE;}
	.st21{fill:#C4A9B4;}
	.st22{fill:#C9B8C0;}
	.st23{opacity:0.5;fill:#E0C1AD;}
	.st24{fill:#E2D5DA;}
	.st25{fill:#F4EEF0;}
	.st26{fill:#C1A7B1;}
	.st27{fill:#4B4B7F;}
	.st28{fill:#D6C9D4;}
	.st29{fill:#FFC9B6;}
	.st30{fill:#3C89CE;}
	.st31{fill:#6D3215;}
	.st32{fill:#45A0D8;}
	.st33{fill:#F7F4F9;}
	.st34{fill:#FCE265;}
	.st35{fill:#FFED9F;}
	.st36{fill:#F7CA11;}
	.st37{fill:#E0D1D1;}
	.st38{fill:#5B2710;}
	.st39{fill:#F9EFEF;}
	.st40{fill:#F9F2F5;}
	.st41{fill:#F4D4C3;}
	.st42{fill:#FCD535;}
	.st43{fill:#90969E;}
	.st44{fill:#A9AEB7;}
	.st45{fill:#BEC4CC;}
	.st46{fill:#E2AC71;}
	.st47{fill:#C9905D;}
	.st48{fill:#EFB881;}
	.st49{fill:#2F3856;}
	.st50{fill:#F77D2B;}
	.st51{fill:#F9B5A0;}
	.st52{fill:#FF8D40;}
	.st53{fill:#38386D;}
	.st54{fill:#7D7DBC;}
	.st55{fill:#FFF4F0;}
	.st56{fill:#FFE5D9;}
	.st57{fill:#B77D4E;}
	.st58{fill:#EAB37D;}
	.st59{fill:#23263A;}
	.st60{opacity:0.5;fill:#23263A;}
</style>
<g
   id="g626"
   transform="translate(220.54396,49.56044)">
		
		
		
		
		
		
		
		
		
		
		
		
		
		
		
		
		
		
		
		
		
		
	</g>

<rect
   style="opacity:0.990228;fill:#ff5555;stroke:none;stroke-width:2.513;stroke-linecap:round;stroke-linejoin:round;stroke-miterlimit:4;stroke-dasharray:none;stroke-dashoffset:0;stroke-opacity:1;paint-order:stroke fill markers"
   id="rect4442"
   width="1.2390109"
   height="7.4340658"
   x="452.85852"
   y="274.44095" /><g
   id="g129731"
   transform="matrix(1.1713775,0,0,1.428813,-11.82979,3.2853722)"><rect
     style="opacity:0.990228;fill:#9cbaf7;fill-opacity:1;stroke:none;stroke-width:4.89846;stroke-linecap:round;stroke-linejoin:round;stroke-miterlimit:4;stroke-dasharray:none;stroke-dashoffset:0;stroke-opacity:1;paint-order:stroke fill markers"
     id="rect4589"
     width="452.60507"
     height="248.08215"
     x="0.3453624"
     y="-0.032017812" /><g
     id="g376"
     transform="matrix(-1,0,0,1,403.49972,-119.95175)">
		<polygon
   class="st6"
   points="373.5,268.8 380.8,273 380.8,282.7 373.5,278.5 "
   id="polygon358" />
		<polygon
   class="st6"
   points="372.4,269.4 379.7,273.6 379.7,283.3 372.4,279.1 "
   id="polygon360" />
		<polygon
   class="st16"
   points="380.8,282.7 379.7,283.3 379.7,273.6 380.8,273 "
   id="polygon362" />
		<polygon
   class="st15"
   points="379.7,273.6 380.8,273 373.5,268.8 372.4,269.4 "
   id="polygon364" />
		<g
   id="g370">
			<path
   class="st17"
   d="m 376.5,279.9 c -1.4,-0.8 -2.6,-3 -2.6,-4.9 0,-1 0.3,-1.7 0.8,-2 -0.7,0.2 -1.2,1 -1.2,2.2 0,1.9 1.2,4.1 2.6,4.9 0.7,0.4 1.3,0.4 1.7,0.1 -0.4,0 -0.8,0 -1.3,-0.3 z"
   id="path366" />
			<path
   class="st16"
   d="m 378.6,278.1 c 0,-1.9 -1.2,-4.1 -2.6,-4.9 -0.5,-0.3 -0.9,-0.4 -1.3,-0.3 -0.5,0.3 -0.8,1 -0.8,2 0,1.9 1.2,4.1 2.6,4.9 0.5,0.3 0.9,0.4 1.3,0.3 0.5,-0.3 0.8,-1 0.8,-2 z"
   id="path368" />
		</g>
		<path
   class="st13"
   d="m 374.5,275.6 c 0,0.4 0.2,0.8 0.5,1 0.3,0.2 0.5,0 0.5,-0.4 0,-0.4 -0.2,-0.8 -0.5,-1 -0.2,-0.2 -0.5,0 -0.5,0.4 z"
   id="path372" />
		<path
   class="st13"
   d="m 376.5,276.8 c 0,0.4 0.2,0.8 0.5,1 0.3,0.2 0.5,0 0.5,-0.4 0,-0.4 -0.2,-0.8 -0.5,-1 -0.2,-0.1 -0.5,0 -0.5,0.4 z"
   id="path374" />
	</g><path
     style="fill:#ac9d93;stroke:none;stroke-width:1.08894px;stroke-linecap:butt;stroke-linejoin:miter;stroke-opacity:1"
     d="m 0.3453624,248.05013 52.2214216,-56.61942 400.383676,3.11667 -2e-5,53.50275 z"
     id="path59679" /><rect
     style="opacity:0.990228;fill:#ffffff;fill-opacity:1;stroke:none;stroke-width:4.09874;stroke-linecap:round;stroke-linejoin:round;stroke-miterlimit:4;stroke-dasharray:none;stroke-dashoffset:0;stroke-opacity:1;paint-order:stroke fill markers"
     id="rect53450-6"
     width="59.919453"
     height="86.577271"
     x="172.64238"
     y="34.582684" /><rect
     style="opacity:0.990228;fill:#ac9393;fill-opacity:1;stroke:none;stroke-width:3.95285;stroke-linecap:round;stroke-linejoin:round;stroke-miterlimit:4;stroke-dasharray:none;stroke-dashoffset:0;stroke-opacity:1;paint-order:stroke fill markers"
     id="rect59867-5"
     width="4.3805652"
     height="86.735191"
     x="232.071"
     y="35.005867" /><path
     style="fill:#ffdd55;fill-opacity:1;stroke:none;stroke-width:1px;stroke-linecap:butt;stroke-linejoin:miter;stroke-opacity:1"
     d="m 315.83877,-0.43805654 -1.75224,31.54007054 0.0815,6.774389 c 0.0927,7.70628 19.42969,9.049659 24.98149,10.725621 5.55181,1.675962 3.44292,1.622042 8.66734,3.088648 5.22441,1.466605 2.48332,21.31975 0,26.721448 -2.48332,5.401697 -6.27781,15.332979 -5.25668,22.34088 1.02113,7.00791 -4.72381,30.27265 6.1328,35.04452 7.93545,3.48792 21.35258,-6.2653 21.90281,-14.01781 3.91878,-55.212874 14.16484,-15.623 28.91174,-11.38946 14.74691,4.23354 25.99236,-22.999687 34.60647,1.31416 2.89148,8.16138 12.85066,2.19129 17.96032,1.75223 5.10966,-0.43905 3.50445,-43.805651 3.50445,-43.805651 L 452.95044,0.87612021 Z"
     id="path50465"
     sodipodi:nodetypes="ccsssssassssccc" /><g
     id="g59040"
     transform="matrix(0.94984831,0,0,1.0810545,20.613476,-17.225514)"><g
       id="g50430"
       transform="translate(-49.062332,-3.9425088)"><g
         id="g50081"
         transform="matrix(0.08380624,0.0128538,-0.01678794,0.10945672,360.4081,29.485747)"><g
           id="g15917"
           transform="translate(-1804.6574,4339.4973)"
           style="fill:#ff0000"><g
             id="g15915"
             style="fill:#ff0000"><g
               id="g15913"
               style="fill:#ff0000"><g
                 id="g15911"
                 style="fill:#ff0000"><polygon
                   class="st1047"
                   points="2092.6,-4014.4 2092,-4062.4 2072.8,-4062.2 2072.7,-4066.8 2096.9,-4067.1 2097.6,-4010.4 1986.2,-3993.4 1986.4,-3976.8 1981.5,-3976.7 1981.2,-3997.3 "
                   id="polygon15909"
                   style="fill:#ff0000" /></g></g></g></g><g
           id="g15925"
           transform="translate(-1804.6574,4339.4973)"
           style="fill:#d4aa00"><g
             id="g15923"
             style="fill:#d4aa00"><g
               id="g15921"
               style="fill:#d4aa00"><polygon
                 class="st1060"
                 points="2074.5,-4091.2 2075.2,-4038 1894.4,-4036 1893.7,-4089.2 "
                 id="polygon15919"
                 style="fill:#d4aa00" /></g></g></g><g
           id="g15931"
           transform="translate(-1892.1759,4478.0115)"
           style="fill:#483e37"><rect
             x="1847.6249"
             y="-4079.6812"
             class="st1061"
             width="31.202473"
             height="157.05194"
             id="rect15929"
             style="fill:#483e37;stroke-width:1.12582"
             transform="matrix(0.99971046,-0.02406216,-0.05126332,0.99868517,0,0)" /></g></g><g
         id="g49916"
         transform="translate(-186.17403,-148.50116)"><path
           class="st29"
           d="m 532.84396,232.76044 c -0.7,-1.2 -2,-0.8 -3.5,-0.4 0.2,-2.3 0.5,-4.2 0.6,-6.3 -3.3,0.6 -3.2,3.1 -4.7,4.9 -0.9,1 -1.2,1.9 -2.8,2.2 -1.6,0.3 -2.9,0.5 -4.3,0.3 0.1,0.1 -0.2,3.4 -0.7,4.8 1.5,0.3 5.2,-0.6 6.5,-0.8 1.3,-0.1 1.9,-0.4 3.1,-0.9 1.3,-0.6 2.1,-1.9 3.4,-2.6 0.9,-0.3 3.1,0 2.4,-1.2 z"
           id="path582"
           style="fill:#a05a2c;fill-opacity:1" /><path
           class="st37"
           d="m 507.94396,224.26044 c -2.6,-0.6 -7.2,0.2 -9.6,5.1 -2.1,4.4 -2,10.2 -0.2,13 1.8,2.8 11,7 14,8.4 3.1,1.3 4,1.9 4.5,2.2 0.5,0.3 7,-2.2 8.7,-3.7 1.8,-1.5 3.1,-4.3 4,-5.9 0,-1.8 -1.9,-4.5 -3.8,-5.8 -3.1,0.9 -7.8,5.9 -7.8,5.9 0,0 -4.4,-5.2 -4.2,-8.2 0.1,-2.9 -2.3,-10.2 -5.6,-11 z"
           id="path586"
           style="fill:#ff7f2a;fill-opacity:1" /><path
           class="st31"
           d="m 510.84396,352.86044 c -0.4,1.2 -1.4,4.3 -2.7,6.4 -1.6,2.7 0.2,4.7 2.3,5.4 2.2,0.7 5.4,0.3 10.6,-2.5 5.2,-2.8 7.5,-5.5 7.7,-7.3 0.2,-1.8 -2.4,-4.4 -7,-3 -4.5,1.4 -6.8,2.5 -6.8,2.5 z"
           id="path588"
           style="fill:#1a1a1a" /><path
           class="st31"
           d="m 485.14396,343.76044 c 0,0 -3.4,3.1 -5.4,5.6 0,0.7 0.9,2.9 3.4,7.4 2.5,4.5 7.1,6.9 10.8,4.5 3.7,-2.4 6.2,-6.3 3.1,-7.4 -3.1,-1 -5.8,0 -5.8,0 0,0 -1,-2.5 -2.2,-5.2 -1.1,-2.6 -3.9,-4.9 -3.9,-4.9 z"
           id="path590"
           style="fill:#1a1a1a" /><path
           class="st38"
           d="m 479.74396,349.36044 c 0,0 4.1,0.3 5.3,4.5 1.2,4.2 3.6,7.4 4.6,8.2 -3.7,-0.4 -4.8,-1.7 -7.1,-6 -1.9,-3.6 -3.8,-6 -2.8,-6.7 z"
           id="path592"
           style="fill:#333333" /><path
           class="st30"
           d="m 513.24396,276.96044 c -1.6,-1.4 -4.2,-2 -6.1,-2.9 -2.6,-1.2 -5.2,-2.4 -8,-3.1 l 0.2,-0.2 c 0.3,-0.4 -1.9,-1.2 -2.3,-0.9 -6.4,4.6 -4.9581,10.76219 -4.79389,19.73901 0.16421,8.97682 1.49389,23.16099 4.29389,27.56099 0,0 -4.01587,6.34265 -5.71587,10.44265 l -7.68413,18.05735 c -0.361,0.84834 2.7,-0.4 4.5,1.8 1,1.3 1.8,1.9 2.4,3.5 4.2,-1.6 8.7,-11.7 13.1,-18.4 l 4.4,-10.7 1.8,-4.3 c 3.2,-6.1 3.7,-20.3 4.5,-27.2 0.4,-3.4 2.6,-10.7 -0.6,-13.4 z"
           id="path594"
           style="fill:#178066;fill-opacity:1"
           sodipodi:nodetypes="ccccczccsccccccc" /><path
           class="st32"
           d="m 529.34396,314.06044 c -0.39208,-7.84585 -2.2,-19.3 -2.8,-23.4 -0.5,-3.4 -1.7,-11.5 -3.1,-14.6 0.8,-0.4 -7.5,2.4 -10.3,1.9 -2.4,-0.5 -9.5,-8 -9.5,-7.7 -6.3,7.6 -6.7,18 0,22.8 0.1,0 3.8,17.1 14.3,26.9 -1.3,3.3 -3.12562,7.84265 -4.92562,13.64265 -2,6.6 -4.87438,13.65735 -3.67438,18.45735 -0.8,1 -1.1,2.3 -1.2,3.2 -0.7,3.8 6.8,3.4 9.4,2.9 1.4,-0.3 3.1,-2.5 1.8,-4.4 3,-6.4 4.24148,-12.94512 6.34148,-19.54512 1.3,-4 3.55852,-10.42388 3.55852,-14.95488 0,-2.08087 0.18653,-3.46851 0.1,-5.2 z"
           id="path596"
           style="fill:#178066;fill-opacity:1"
           sodipodi:nodetypes="accccccccccccsa" /><path
           class="st29"
           d="m 523.94396,209.76044 c -2.5,-2.1 -5.9,-2.1 -8.9,-0.7 -2.8,1.4 -4.1,3.3 -4.5,5.5 -0.1,0.7 -0.2,3.9 0,4.8 0.8,2.8 3.3,6 4.5,7.8 1.5,2.2 4,3.5 6.9,2.6 4,-1.2 4.1,-6.4 4.7,-9.9 0.9,-4 0.6,-7.4 -2.7,-10.1 z"
           id="path598"
           style="fill:#a05a2c;fill-opacity:1" /><path
           class="st39"
           d="m 517.14396,230.96044 c -7.7,-3.8 -10.1,-7.7 -15.5,-3 -3.3,2.9 -3.9,14.8 -3.4,19.8 0.4,5 -0.3,13.9 -1.4,16.2 -1.2,2.6 -2.8,3.8 -1.7,5.7 -1.7,0.7 27.3,9.2 27.5,3 0.1,-2.5 5.6,-19.7 6,-27.4 0.4,-7.8 -2.5,-9.9 -11.5,-14.3 z"
           id="path600"
           style="fill:#ff7f2a;fill-opacity:1" /><path
           class="st29"
           d="m 512.34396,217.16044 c 0,0 -0.4,4.4 -1.1,6.4 -0.9,2.9 -3.3,4.9 -3.3,4.9 0,0 -2.6,3.9 1.7,5.8 4.3,1.8 9.4,-1.9 9.4,-1.9 0,0 0,-2.4 1.7,-6.4 1.3,-3.1 -8.4,-8.8 -8.4,-8.8 z"
           id="path602"
           style="fill:#a05a2c;fill-opacity:1" /><path
           class="st31"
           d="m 523.24396,207.06044 c -4,-2.8 -9.7,-2.5 -13.3,1.1 -1.9,1.9 -2.9,4.5 -2.8,7.1 0.2,4 2,7.6 3.3,12.9 3.2,-0.1 6.2,-2.5 8,-4.2 0.3,-0.3 2.3,-1.5 4,-3.6 3,0 4.7,-1.8 5.2,-3.5 2.6,-1.5 3.9,-3.9 4.6,-6.7 -3.2,-2.6 -4.5,-5 -9,-3.1 z"
           id="path604"
           style="fill:#454837;fill-opacity:1" /><path
           class="st29"
           d="m 519.14396,220.46044 c -1.3,3.3 2.1,4.6 2.1,4.6 l 2.3,-3.5 c 0,0 -3,-4.8 -4.4,-1.1 z"
           id="path606"
           style="fill:#a05a2c;fill-opacity:1" /><path
           class="st32"
           d="m 505.44396,270.26044 c 0,0 5.2,5.3 10,5.7 4.9,0.4 6.7,0 6.7,0 0,0 -3.2,-2.4 -6.9,-3.1 -3.5,-0.8 -9.8,-2.6 -9.8,-2.6 z"
           id="path608" /><path
           class="st30"
           d="m 498.24396,275.06044 c 0,0 2.7,4.4 11.7,5.5 9,1.1 14.3,-2.2 14.3,-2.2 l -0.4,-3 c 0,0 -10.8,2.5 -16.9,0.1 -6.1,-2.5 -8.1,-3 -8.1,-3 z"
           id="path610"
           style="fill:#005544;fill-opacity:1" /><path
           class="st32"
           d="m 496.74396,244.66044 -2.4,8 c 0,0 -0.1,8.7 0.4,11.6 -0.5,1.1 -1.2,1.4 -0.4,2.7 -1.8,0.1 -1.2,1.8 -0.3,3.2 1.7,2.9 4.2,4.4 7.1,5.9 2.8,1.5 12.2,3.8 15.7,2.9 3.6,-0.9 8,-1.9 7.7,-3.6 -0.3,-1.7 -0.3,-2.3 -0.3,-2.3 l 0.46216,-7.97802 c 0,0 -3.93654,2.33173 -8.63654,0.13173 -2.8,-1.4 -7.22562,-3.15371 -5.82562,-13.75371 -5.4,-1.7 -13.5,-6.8 -13.5,-6.8 z"
           id="path612"
           style="fill:#178066;fill-opacity:1"
           sodipodi:nodetypes="cccccccsccccc" /><path
           class="st32"
           d="m 507.24396,252.46044 c 0.3,-0.2 1.9,-7.9 4.7,-13.2 2.2,-4.3 6.3,-7.2 7.9,-7 2.2,0.4 2.8,1.5 2.8,1.5 0,0 -4.1,0.9 -6.6,4 -2.5,3.1 -5.9,13.6 -5.9,15.6 -0.1,2 -2.9,-0.9 -2.9,-0.9 z"
           id="path614"
           style="fill:#178066;fill-opacity:1" /><path
           class="st32"
           d="m 506.74396,228.36044 c -0.7,0.6 -2.2,1.5 -4.3,6.2 -1.3,3 -4,12.5 -4,12.5 l -2,-1.4 c 0,0 1.7,-6.9 3.7,-11.5 2,-4.6 3.6,-6.2 4.9,-7 2.1,-1.3 3.4,0 3.8,0.3 -0.1,0.6 -2.1,0.9 -2.1,0.9 z"
           id="path616"
           style="fill:#178066;fill-opacity:1" /><path
           class="st30"
           d="m 508.44396,275.16044 c 0,0 3,1.6 5.7,1.5 2.7,-0.1 5.3,-1.4 5.3,-1.4 0,0 -3.4,-0.5 -4.9,-0.2 -1.6,0.2 -6.1,0.1 -6.1,0.1 z"
           id="path618"
           style="fill:#005544;fill-opacity:1" /><path
           class="st37"
           d="m 507.54396,227.26044 c -1.6,0.6 -3.7,3.9 0.2,7 3.9,3.1 8,0.5 9.6,-0.3 1.6,-0.8 3.7,-1.1 3.7,-1.1 0,0 -0.7,-2.4 -4.6,-2.4 -2.3,0 -5.8,-0.7 -6.8,-2.1 -1.2,-1.5 -1.2,-1.5 -2.1,-1.1 z"
           id="path620"
           style="fill:#ff6600;fill-opacity:1" /><path
           class="st29"
           d="m 552.54396,229.26044 c -0.4,-0.6 0.41437,-1.70233 0.51437,-2.60233 0,-0.5 -1.5711,0.0656 -2.07631,0.57612 -0.58157,0.5877 -0.63806,0.79695 -0.63806,2.39695 v 6.02926 c -0.1,0.2 -0.50975,2.26463 -3.00975,5.46463 -2.6,3.3 -3.4,7.00975 -3.4,7.00975 0,0 -3.59025,-0.67438 -6.99025,-1.47438 -2.5,-0.6 -7.1,-1.9 -9.1,-2.4 -4.6,-1.2 -1.3,8.9 -1.3,8.9 0,0 7.3,2 12.2,2.8 4.8,0.8 8.9,-0.6 8.9,-0.6 l 2.75488,-1.79025 c 3.16503,-4.70553 3.81563,-10.94554 3.54512,-16.60975 1.3,-1.3 2.50007,-2 3.40007,-3.4 1,-1.6 1.4,-2 1.3,-4 0,-1.2 -0.7,-3.8 -1.8,-5.4 -0.8,-1.1 -2.60007,7.3 -4.30007,5.1 z"
           id="path622"
           style="fill:#a05a2c;fill-opacity:1"
           sodipodi:nodetypes="ccascccccccscccccc" /><path
           class="st37"
           d="m 538.24396,245.86044 c -1.8,-2.1 -5.9,-3 -7.7,-4 -1.2,-3 -2.4,-4.6 -2.9,-5 -5.5,-4.4 -7.1,-1.5 -8.9,1.6 -1.7,2.8 -1.8,10.5 1.1,14.5 3.1,4.3 4.7,3.3 7.3,3.5 1.9,0.7 5,0.5 8,0.5 2.2,-5.2 3.9,-9.8 3.1,-11.1 z"
           id="path624"
           style="fill:#ff7f2a;fill-opacity:1" /><path
           style="fill:#217867;fill-opacity:1;stroke:none;stroke-width:1.28046px;stroke-linecap:butt;stroke-linejoin:miter;stroke-opacity:1"
           d="m 505.64396,293.06044 10.37539,10.9585 -7.97724,13.63295 1.77056,-13.80951 z"
           id="path43071" /><g
           id="g634"
           transform="translate(220.54396,49.56044)">
		<path
   class="st30"
   d="m 297.9,165.6 c 0,0 4.4,3.9 11.3,-0.6 6.9,-4.5 0.8,-9.4 -4,-8.7 -4.8,0.6 -7.3,2.9 -7.3,2.9 z"
   id="path628"
   style="fill:#178066;fill-opacity:1" />
		<path
   class="st32"
   d="m 305.1,160.8 c -0.6,-6.1 -9.3,-9.6 -16,-4.9 -3.7,2.6 -5.7,8.1 -2.1,14 0.7,2.3 16.6,1.6 18.1,-9.1 z"
   id="path630"
   style="fill:#178066;fill-opacity:1" />
		<path
   class="st30"
   d="m 293,155.2 c 0.2,0.5 -0.3,1.2 -1.2,1.6 -0.9,0.4 -1.8,0.4 -2,-0.1 -0.2,-0.5 0.3,-1.2 1.2,-1.6 0.8,-0.4 1.7,-0.4 2,0.1 z"
   id="path632"
   style="fill:#005544;fill-opacity:1" />
	</g></g></g><path
       style="fill:#ffdd55;fill-opacity:1;stroke:none;stroke-width:0.119891px;stroke-linecap:butt;stroke-linejoin:miter;stroke-opacity:1"
       d="m 284.87122,118.61679 c -0.28021,0.34421 -0.54604,0.70013 -0.79658,1.0665 -0.3418,0.49983 -0.65863,1.02703 -0.82615,1.60892 -0.16752,0.58188 -0.17401,1.22881 0.0896,1.77394 0.13179,0.27257 0.3299,0.51484 0.57962,0.68601 0.24973,0.17116 0.55153,0.26916 0.85422,0.26266 0.30269,-0.007 0.6044,-0.12016 0.82662,-0.32579 0.22222,-0.20562 0.36008,-0.5035 0.35893,-0.80626 -9.5e-4,-0.24808 -0.0907,-0.48661 -0.18799,-0.7148 -0.0973,-0.2282 -0.20462,-0.45599 -0.24417,-0.7009 -0.0198,-0.12245 -0.0221,-0.24856 0.003,-0.37007 0.0249,-0.12152 0.0779,-0.23839 0.16015,-0.33121 0.0823,-0.0928 0.19478,-0.16042 0.3172,-0.18041 0.12242,-0.02 0.25397,0.01 0.35023,0.0882 0.058,0.0471 0.10212,0.11013 0.13113,0.17896 0.029,0.0688 0.0432,0.1434 0.0464,0.21802 0.007,0.14926 -0.03,0.29676 -0.0689,0.44098 -0.092,0.34033 -0.19977,0.67697 -0.26765,1.02292 -0.0679,0.34595 -0.0951,0.70496 -0.0248,1.05044 0.0703,0.34547 0.24536,0.67774 0.52572,0.8915 0.14018,0.10687 0.30498,0.18256 0.4787,0.21247 0.17372,0.0299 0.35615,0.0132 0.51909,-0.054 0.22187,-0.0916 0.40061,-0.27506 0.50346,-0.49194 0.10285,-0.21688 0.13236,-0.46489 0.10221,-0.70301 -0.0603,-0.47625 -0.34721,-0.89492 -0.67807,-1.24275 -0.26249,-0.27595 -0.56415,-0.52959 -0.72709,-0.87383 -0.0815,-0.17212 -0.12485,-0.36581 -0.0995,-0.55454 0.0254,-0.18872 0.12452,-0.37115 0.28343,-0.47608 0.13419,-0.0886 0.30007,-0.11727 0.46088,-0.11694 0.16082,3.3e-4 0.32024,0.0274 0.4805,0.0407 0.49774,0.0414 1.01379,-0.056 1.43762,-0.3202 0.42383,-0.26424 0.74635,-0.70309 0.82447,-1.1964 0.0391,-0.24665 0.0173,-0.5035 -0.0688,-0.73792 -0.0861,-0.23441 -0.23703,-0.44556 -0.43496,-0.59784 -0.19793,-0.15228 -0.44265,-0.24442 -0.69219,-0.25411 -0.24954,-0.01 -0.50259,0.0642 -0.70407,0.2117 -0.28124,0.20595 -0.44363,0.53207 -0.66195,0.80382 -0.10916,0.13587 -0.23596,0.26111 -0.38968,0.34325 -0.15372,0.0822 -0.33724,0.11801 -0.50529,0.0718 -0.1104,-0.0304 -0.21,-0.0949 -0.28907,-0.17772 -0.0791,-0.0828 -0.13816,-0.18345 -0.17996,-0.29004 -0.0836,-0.21319 -0.0985,-0.4462 -0.11029,-0.6749 -0.0429,-0.83426 -0.0662,-1.7068 -0.47069,-2.43771 -0.0858,-0.15507 -0.19034,-0.30388 -0.33267,-0.4095 -0.0712,-0.0528 -0.15133,-0.0942 -0.23696,-0.11698 -0.0856,-0.0228 -0.17679,-0.0267 -0.26313,-0.007 -0.15007,0.0347 -0.27874,0.14174 -0.35345,0.27644 -0.0747,0.1347 -0.0979,0.29462 -0.0797,0.44757 0.0182,0.15295 0.0761,0.29934 0.15416,0.43214 0.0781,0.1328 0.176,0.25284 0.27896,0.36741 0.17689,0.19684 0.37185,0.38203 0.50308,0.61184 0.0656,0.11491 0.11446,0.24064 0.13165,0.37184 0.0172,0.1312 0.002,0.26816 -0.0555,0.38753 -0.0435,0.0911 -0.10976,0.16962 -0.18299,0.23907 -0.0732,0.0694 -0.15383,0.13057 -0.23205,0.19435 -0.0782,0.0638 -0.15465,0.13081 -0.21737,0.20989 -0.0627,0.0791 -0.11151,0.17124 -0.12792,0.27082 -0.0222,0.13459 0.0188,0.27824 0.10861,0.38089 z"
       id="path51813"
       inkscape:path-effect="#path-effect51815"
       inkscape:original-d="m 284.87122,118.61679 c 0.0363,0.12679 -0.53095,0.71117 -0.79658,1.0665 -0.26559,0.35532 1.25529,2.13316 1.88282,3.19948 0.62749,1.06632 0.26558,-1.47261 0.39826,-2.20917 0.13268,-0.73656 0.0727,0.55882 0.10863,0.83796 0.0365,0.27915 0.82079,2.08238 1.23106,3.12331 0.41026,1.04093 -0.0484,-1.62496 -0.0724,-2.4377 -0.0242,-0.81275 -0.36201,-1.26947 -0.54313,-1.90445 -0.18111,-0.635 0.62768,-0.0506 0.94138,-0.0762 0.31374,-0.0256 0.24148,-1.92968 0.36208,-2.89477 0.12063,-0.9651 -1.03784,0.81273 -1.55692,1.21884 -0.51906,0.40612 -0.38613,-0.76161 -0.57932,-1.14266 -0.1932,-0.38107 -0.31372,-1.62497 -0.47069,-2.43771 -0.15697,-0.81274 -0.55509,-0.35532 -0.83276,-0.53324 -0.2777,-0.17792 7e-5,1.01588 0,1.52356 -9e-5,0.50768 0.38627,0.91431 0.57928,1.37121 0.19304,0.45689 -0.50679,0.60959 -0.76033,0.91413 -0.25355,0.30454 0.0727,0.2541 0.10861,0.38089 z" /><path
       style="fill:#ffdd55;fill-opacity:1;stroke:none;stroke-width:0.269155px;stroke-linecap:butt;stroke-linejoin:miter;stroke-opacity:1"
       d="m 286.74745,172.11825 c 0.0252,0.17956 -0.006,0.36503 -0.0767,0.5318 -0.0711,0.16678 -0.18173,0.31526 -0.31321,0.44012 -0.26297,0.24971 -0.60241,0.40234 -0.94337,0.52583 -0.34096,0.1235 -0.69237,0.22335 -1.01502,0.3889 -0.32265,0.16555 -0.6212,0.40733 -0.77288,0.73673 -0.1229,0.26691 -0.1397,0.58004 -0.0508,0.86012 0.0889,0.28008 0.28169,0.52499 0.53042,0.68143 0.24874,0.15645 0.55115,0.22413 0.84342,0.19368 0.29226,-0.0305 0.57281,-0.15803 0.79132,-0.35449 0.21911,-0.197 0.37235,-0.45533 0.56472,-0.67851 0.0962,-0.11159 0.20334,-0.21532 0.32821,-0.2935 0.12487,-0.0782 0.26864,-0.13006 0.41594,-0.13258 0.15531,-0.003 0.30964,0.0504 0.43597,0.14075 0.12632,0.0904 0.22504,0.21693 0.29039,0.35784 0.13071,0.28183 0.12678,0.61054 0.0564,0.91314 -0.0703,0.30259 -0.20265,0.58647 -0.32367,0.87259 -0.12101,0.28612 -0.23265,0.58171 -0.25776,0.89136 -0.0225,0.27719 0.027,0.56114 0.15059,0.81029 0.12356,0.24914 0.32192,0.46212 0.56631,0.59484 0.24439,0.13273 0.53424,0.18309 0.80749,0.1314 0.27326,-0.0517 0.52727,-0.20687 0.69063,-0.43194 0.19938,-0.2747 0.25492,-0.63438 0.2135,-0.97128 -0.0414,-0.3369 -0.17171,-0.65619 -0.31626,-0.96331 -0.14455,-0.30711 -0.30517,-0.60812 -0.41354,-0.92979 -0.10837,-0.32167 -0.16272,-0.6706 -0.0878,-1.00166 0.0507,-0.22386 0.15942,-0.43282 0.30386,-0.61119 0.14445,-0.17837 0.32398,-0.32675 0.51981,-0.44645 0.39168,-0.2394 0.84225,-0.36294 1.29066,-0.46117 0.33349,-0.073 0.67043,-0.13394 0.99616,-0.23618 0.32572,-0.10225 0.64296,-0.24845 0.90009,-0.47302 0.25712,-0.22458 0.45048,-0.53406 0.48926,-0.87324 0.0194,-0.16959 -3.2e-4,-0.34432 -0.0633,-0.50299 -0.0629,-0.15867 -0.1697,-0.30066 -0.30859,-0.39989 -0.14642,-0.10461 -0.32536,-0.15972 -0.50507,-0.16897 -0.17971,-0.009 -0.36014,0.0261 -0.52842,0.0898 -0.33656,0.12748 -0.61955,0.36308 -0.88953,0.60106 -0.26997,0.23799 -0.53864,0.48582 -0.86097,0.64591 -0.16117,0.08 -0.33504,0.13709 -0.51414,0.15451 -0.17911,0.0174 -0.36369,-0.006 -0.52781,-0.0797 -0.15442,-0.0694 -0.28689,-0.18141 -0.39792,-0.30924 -0.11103,-0.12782 -0.20192,-0.27168 -0.28896,-0.4169 -0.1741,-0.29044 -0.344,-0.59932 -0.622,-0.79266 -0.10638,-0.074 -0.22669,-0.12881 -0.35355,-0.15524 -0.12685,-0.0264 -0.26026,-0.0241 -0.3847,0.0121 -0.12444,0.0361 -0.23949,0.10656 -0.32435,0.20448 -0.0849,0.0979 -0.13858,0.22349 -0.14558,0.35288 -0.005,0.0937 0.0138,0.18713 0.0369,0.27812 0.0231,0.091 0.0507,0.1812 0.0638,0.27418 z"
       id="path51817"
       inkscape:path-effect="#path-effect51819"
       inkscape:original-d="m 286.74745,172.11825 c 0.0333,0.18378 -2.08054,1.74924 -3.12116,2.62338 -1.04062,0.87415 1.40979,0.92081 2.11434,1.38074 0.70454,0.45992 0.87281,-0.73608 1.30887,-1.10459 0.43606,-0.36851 0.13447,2.11743 0.20136,3.17568 0.0669,1.05824 1.47691,0.73671 2.21502,1.10459 0.73811,0.36788 -0.4025,-2.57705 -0.6041,-3.86604 -0.20159,-1.289 1.40979,-1.01223 2.11433,-1.51881 0.70455,-0.50659 1.34267,-1.65656 2.01366,-2.48532 0.67098,-0.82875 -2.55039,0.82876 -3.82594,1.24266 -1.27554,0.4139 -0.87235,-1.01222 -1.30888,-1.5188 -0.43651,-0.50659 -0.80523,0.27646 -1.20818,0.41421 -0.40296,0.13776 0.0673,0.36852 0.10068,0.5523 z" /><ellipse
       style="opacity:0.990228;fill:#ffdd55;fill-opacity:1;stroke:none;stroke-width:1.9645;stroke-linecap:round;stroke-linejoin:round;stroke-miterlimit:4;stroke-dasharray:none;stroke-dashoffset:0;stroke-opacity:1;paint-order:stroke fill markers"
       id="path52780"
       cx="288.46024"
       cy="200.84894"
       rx="2.4093108"
       ry="1.0951414" /><ellipse
       style="opacity:0.990228;fill:#ffdd55;fill-opacity:1;stroke:none;stroke-width:1.45088;stroke-linecap:round;stroke-linejoin:round;stroke-miterlimit:4;stroke-dasharray:none;stroke-dashoffset:0;stroke-opacity:1;paint-order:stroke fill markers"
       id="path52782"
       cx="271.15701"
       cy="166.02344"
       rx="0.43805656"
       ry="3.5044522" /><ellipse
       style="opacity:0.990228;fill:#ffdd55;fill-opacity:1;stroke:none;stroke-width:1.77696;stroke-linecap:round;stroke-linejoin:round;stroke-miterlimit:4;stroke-dasharray:none;stroke-dashoffset:0;stroke-opacity:1;paint-order:stroke fill markers"
       id="path52784"
       cx="319.71805"
       cy="36.071304"
       rx="0.65708482"
       ry="8.1040459"
       inkscape:transform-center-x="5.4535627"
       inkscape:transform-center-y="3.848319"
       transform="rotate(28.372843)" /><ellipse
       style="opacity:0.990228;fill:#ffdd55;fill-opacity:1;stroke:none;stroke-width:1.99237;stroke-linecap:round;stroke-linejoin:round;stroke-miterlimit:4;stroke-dasharray:none;stroke-dashoffset:0;stroke-opacity:1;paint-order:stroke fill markers"
       id="path52914"
       cx="289.11731"
       cy="144.33963"
       rx="0.4380565"
       ry="2.4093111" /></g><rect
     style="opacity:0.990228;fill:#ffffff;fill-opacity:1;stroke:none;stroke-width:4.10568;stroke-linecap:round;stroke-linejoin:round;stroke-miterlimit:4;stroke-dasharray:none;stroke-dashoffset:0;stroke-opacity:1;paint-order:stroke fill markers"
     id="rect53450"
     width="56.941322"
     height="86.505737"
     x="112.1485"
     y="34.760628" /><g
     id="g111442"
     transform="matrix(0.98412935,0,0,0.92249511,123.71458,140.99489)"><path
       class="st989"
       d="m 109.09187,-101.74693 h -6.48912 v -12.23886 c -0.0953,-0.0465 -0.20406,-0.093 -0.29929,-0.1511 h -1.93177 v -0.0116 H 89.107561 v 0.0116 h -0.0136 v 1.83641 h 0.0136 v 1.2669 h -0.0136 v 1.8364 h 0.0136 v 1.2669 h -0.0136 v 1.8364 h 0.0136 v 0.0116 l -1.19715,-0.0116 v -9.60047 h -12.63812 v 1.2204 h -0.0137 v 1.83641 h 0.0137 v 1.61557 h -0.0137 v 1.83642 h 0.0137 v 1.26689 h -0.0137 v 1.83641 h 0.0137 v 1.17391 h -0.0137 v 1.83641 h 0.0137 v 1.1739 h -0.0137 v 1.83641 h 0.0137 v 1.104174 h -0.0137 v 1.162284 h 0.0137 v 0.127852 h -14.24341 v 10.507059 h -5.31917 v 2.650011 h -5.74089 v -4.556158 h -10.32545 v -12.378342 h -1.61888 v -1.23202 h -0.23127 v 1.23202 h -1.33319 v 0 h -6.69318 v -1.23202 h -0.23127 v 1.23202 h -1.7413 v 6.229853 l -8.66576,-0.03489 v 3.847164 h -7.34618 V -115.1597 h -23.53494 v 25.44242 73.32857 H 110.37064 Z"
       id="path22301"
       style="fill:#dceafb;stroke-width:0.125744" /><rect
       style="opacity:0.990228;fill:#ffffff;fill-opacity:0.831373;stroke:none;stroke-width:2.9796;stroke-linecap:round;stroke-linejoin:round;stroke-miterlimit:4;stroke-dasharray:none;stroke-dashoffset:0;stroke-opacity:1;paint-order:stroke fill markers"
       id="rect111059"
       width="8.6730785"
       height="16.107143"
       x="3.1092606"
       y="-91.402611" /><rect
       style="opacity:0.990228;fill:#ffffff;fill-opacity:0.831373;stroke:none;stroke-width:2.9796;stroke-linecap:round;stroke-linejoin:round;stroke-miterlimit:4;stroke-dasharray:none;stroke-dashoffset:0;stroke-opacity:1;paint-order:stroke fill markers"
       id="rect111059-7"
       width="8.6730785"
       height="16.107143"
       x="68.145607"
       y="73.101646"
       transform="rotate(-90)" /><rect
       style="opacity:0.990228;fill:#ffffff;fill-opacity:0.831373;stroke:none;stroke-width:2.9796;stroke-linecap:round;stroke-linejoin:round;stroke-miterlimit:4;stroke-dasharray:none;stroke-dashoffset:0;stroke-opacity:1;paint-order:stroke fill markers"
       id="rect111059-8"
       width="8.6730785"
       height="16.107143"
       x="41.295742"
       y="-84.510239" /><rect
       style="opacity:0.990228;fill:#ffffff;fill-opacity:0.831373;stroke:none;stroke-width:2.9796;stroke-linecap:round;stroke-linejoin:round;stroke-miterlimit:4;stroke-dasharray:none;stroke-dashoffset:0;stroke-opacity:1;paint-order:stroke fill markers"
       id="rect111059-3"
       width="8.6730785"
       height="16.107143"
       x="-56.994507"
       y="1.8585155"
       transform="matrix(0,1,1,0,0,0)" /><rect
       style="opacity:0.990228;fill:#ffffff;fill-opacity:0.831373;stroke:none;stroke-width:2.9796;stroke-linecap:round;stroke-linejoin:round;stroke-miterlimit:4;stroke-dasharray:none;stroke-dashoffset:0;stroke-opacity:1;paint-order:stroke fill markers"
       id="rect111059-6"
       width="8.6730785"
       height="16.107143"
       x="-42.745876"
       y="-56.994503"
       transform="rotate(90)" /><rect
       style="opacity:0.990228;fill:#ffffff;fill-opacity:0.831373;stroke:none;stroke-width:2.9796;stroke-linecap:round;stroke-linejoin:round;stroke-miterlimit:4;stroke-dasharray:none;stroke-dashoffset:0;stroke-opacity:1;paint-order:stroke fill markers"
       id="rect111059-2"
       width="8.6730785"
       height="16.107143"
       x="91.929672"
       y="-101.74693" /></g><g
     id="g109314"
     transform="translate(10.513357,6.1327915)"><rect
       style="opacity:0.990228;fill:#c87137;fill-opacity:1;stroke:none;stroke-width:6.11756;stroke-linecap:round;stroke-linejoin:round;stroke-miterlimit:4;stroke-dasharray:none;stroke-dashoffset:0;stroke-opacity:1;paint-order:stroke fill markers"
       id="rect54133"
       width="160.76675"
       height="8.522254"
       x="81.040459"
       y="0.23887751" /><rect
       style="opacity:0.990228;fill:#784421;fill-opacity:1;stroke:none;stroke-width:4.33013;stroke-linecap:round;stroke-linejoin:round;stroke-miterlimit:4;stroke-dasharray:none;stroke-dashoffset:0;stroke-opacity:1;paint-order:stroke fill markers"
       id="rect54281"
       width="7.8850179"
       height="13.579753"
       x="81.040459"
       y="0.23887751" /><rect
       style="opacity:0.990228;fill:#784421;fill-opacity:1;stroke:none;stroke-width:4.20813;stroke-linecap:round;stroke-linejoin:round;stroke-miterlimit:4;stroke-dasharray:none;stroke-dashoffset:0;stroke-opacity:1;paint-order:stroke fill markers"
       id="rect54281-0"
       width="7.4469614"
       height="13.579753"
       x="234.36026"
       y="0.23887753" /></g><rect
     style="opacity:0.990228;fill:#ac9393;fill-opacity:1;stroke:none;stroke-width:4.96885;stroke-linecap:round;stroke-linejoin:round;stroke-miterlimit:4;stroke-dasharray:none;stroke-dashoffset:0;stroke-opacity:1;paint-order:stroke fill markers"
     id="rect59993"
     width="137.91609"
     height="9.8824863"
     x="103.368"
     y="121.49582" /><rect
     style="opacity:0.990228;fill:#ac9393;fill-opacity:1;stroke:none;stroke-width:4.96786;stroke-linecap:round;stroke-linejoin:round;stroke-miterlimit:4;stroke-dasharray:none;stroke-dashoffset:0;stroke-opacity:1;paint-order:stroke fill markers"
     id="rect59867-7"
     width="6.768609"
     height="88.663116"
     x="168.32121"
     y="34.603249" /><rect
     style="opacity:0.990228;fill:#ac9393;fill-opacity:1;stroke:none;stroke-width:3.95285;stroke-linecap:round;stroke-linejoin:round;stroke-miterlimit:4;stroke-dasharray:none;stroke-dashoffset:0;stroke-opacity:1;paint-order:stroke fill markers"
     id="rect59867"
     width="4.3805652"
     height="86.735191"
     x="108.168"
     y="34.760628" /><rect
     style="opacity:0.990228;fill:#c8beb7;fill-opacity:1;stroke:none;stroke-width:5.46372;stroke-linecap:round;stroke-linejoin:round;stroke-miterlimit:4;stroke-dasharray:none;stroke-dashoffset:0;stroke-opacity:1;paint-order:stroke fill markers"
     id="rect60119"
     width="119.785"
     height="4.3805652"
     x="112.54856"
     y="121.49582" /><g
     id="g107945"
     transform="translate(-0.10015798,-2.2004406)"><g
       id="g644"
       transform="matrix(-1,0,0,1,276.36939,-211.55175)">
		<path
   class="st6"
   d="m 245.26967,370.7 c 0.9,1.6 2.8,2.2 4.2,1.4 1.4,-0.8 1.8,-2.7 0.9,-4.3 -0.9,-1.6 -2.8,-2.2 -4.2,-1.4 -1.4,0.8 -1.8,2.7 -0.9,4.3 z"
   id="path636" />
		<path
   class="st11"
   d="m 244.66967,371.1 c 0.9,1.6 2.8,2.2 4.2,1.4 1.4,-0.8 1.8,-2.7 0.9,-4.3 -0.9,-1.6 -2.8,-2.2 -4.2,-1.4 -1.5,0.8 -1.9,2.7 -0.9,4.3 z"
   id="path638" />
		
		
	<ellipse
   style="opacity:0.990228;fill:#373951;fill-opacity:0.831373;stroke:none;stroke-width:7.88811;stroke-linecap:round;stroke-linejoin:round;stroke-miterlimit:4;stroke-dasharray:none;stroke-dashoffset:0;stroke-opacity:1;paint-order:stroke fill markers"
   id="path106804"
   cx="-247.38599"
   cy="369.61029"
   transform="scale(-1,1)"
   rx="1.5331978"
   ry="1.5331979"
   inkscape:transform-center-x="15.750118"
   inkscape:transform-center-y="-3.2124134" /></g></g><g
     id="g1208"
     transform="translate(55.786962,-524.62899)">
		<path
   style="fill:none;stroke:#660080;stroke-width:1px;stroke-linecap:butt;stroke-linejoin:miter;stroke-opacity:1"
   d="m -26.787242,680.27724 c 3.50702,8.27776 5.562488,17.16814 6.044803,26.14521 0.487139,9.06684 -0.606065,18.28496 1.31417,27.15951 1.231387,5.69098 3.724168,11.14459 7.480765,15.59336 3.756597,4.44876 8.8004943,7.85879 14.422061,9.37586 7.3746493,1.99017 15.171732,0.69038 22.77894,0 11.931798,-1.08285 23.941298,-0.62701 35.920641,-0.43806 7.589293,0.11971 15.209861,0.13004 22.730287,-0.89703 7.520427,-1.02707 14.97826,-3.1275 21.513425,-6.98798 3.2622,-1.92706 6.32983,-4.34325 8.36364,-7.54 1.0169,-1.59837 1.76137,-3.38037 2.08826,-5.24639 0.32689,-1.86602 0.22839,-3.81675 -0.3766,-5.61199 -0.73864,-2.19181 -2.23539,-4.11594 -4.16426,-5.39228 -1.92888,-1.27634 -4.27636,-1.90111 -6.58599,-1.77779 -2.30963,0.12333 -4.5701,0.99011 -6.385945,2.4227 -1.815848,1.43258 -3.18161,3.42188 -3.890527,5.62348 -0.75734,2.35198 -0.763965,4.93003 -0.08078,7.30461 0.683184,2.37459 2.046029,4.54069 3.84683,6.23258 1.800804,1.6919 4.031334,2.91127 6.410724,3.57754 2.37938,0.66627 4.90343,0.78398 7.34549,0.40754 5.19753,-0.80119 10.03917,-3.97438 12.6068,-8.56388 1.28382,-2.29475 2.0013,-4.90877 2.03083,-7.53807 0.0295,-2.62929 -0.63298,-5.26806 -1.93399,-7.55311 -2.10052,-3.68928 -5.69286,-6.26467 -9.31172,-8.48432 -3.61886,-2.21964 -7.43408,-4.24903 -10.40082,-7.28571 -3.45085,-3.53221 -5.50034,-8.16541 -7.446962,-12.70364 -3.528206,-8.22543 -6.988929,-16.62591 -8.05912,-25.51189 -0.03609,-0.29968 -0.06943,-0.5997 -0.1,-0.9"
   id="path108706"
   inkscape:path-effect="#path-effect108708"
   inkscape:original-d="m -26.787242,680.27724 c 2.015934,8.71607 4.030869,17.43114 6.044803,26.14521 2.013934,8.71407 0.877113,18.10734 1.31417,27.15951 0.437056,9.05217 14.602884,16.64715 21.902826,24.96922 7.299943,8.32207 15.18696,10e-4 22.77894,0 7.59198,-0.001 23.948091,-0.29104 35.920641,-0.43806 11.97254,-0.14702 29.4968,-5.25567 44.243712,-7.88501 14.7469,-2.62934 6.71786,-12.26459 10.0753,-18.39838 3.35743,-6.13379 -14.01681,0.58508 -21.026722,0.87611 -7.0099,0.29104 11.682512,11.68251 17.522262,17.52227 5.83976,5.83975 8.4701,-15.76904 12.70364,-23.65506 4.23355,-7.88601 -13.14069,-10.51235 -19.71254,-15.77003 -6.571852,-5.25768 -4.96364,-8.4681 -7.446962,-12.70364 -2.48332,-4.23555 -5.37175,-17.00693 -8.05912,-25.51189 -2.68737,-8.50496 -0.0657,-0.599 -0.1,-0.9" /><path
   class="st31"
   d="m 62.07371,715.58749 c 0,0 -6.3,1.2 -7.8,3.2 -1.5,2 -0.6,4.3 -0.9,6.7 -0.3,2.5 0.8,4.8 3.4,4.7 2.3,-0.1 2.2,-2.1 2.6,-3.5 0,0 6.5,-0.7 9.8,-3 3.5,-2.3 -1.6,-8.8 -7.1,-8.1 z"
   id="path1106"
   style="fill:#1a1a1a;fill-opacity:1" />
		<path
   class="st30"
   d="m 82.77371,685.18749 c -5.2,-1.2 -11.7,0.8 -17.2,3.4 -0.1,0 -0.3,0 -0.4,0.1 -6.6,3.2 -22,3.1 -22,3.3 -0.8,1.6 -2.3,8.2 -1.1,12.6 1,4 4.5,7.8 9.2,7.2 3.5,2.1 7.5,2.4 11.1,1 -0.1,0.1 -0.6,0.9 -1.4,2 2.2,-0.2 4.4,1 5.7,2.6 0.7,0.9 1.4,2.1 1.9,3.5 2.1,-1.5 4.1,-3.2 5.6,-4.3 2.7,-2 12,-12.1 12,-20.6 3.4,-3.2 2.7,-9.5 -3.4,-10.8 z"
   id="path1108"
   style="fill:#21715f;fill-opacity:1" />
		<path
   class="st32"
   d="m 83.87371,721.88749 c -0.3,-3.7 -2.5,-8.9 -4.1,-11.2 -4.1,-6.2 -7.5,-15.3 -11.9,-18.1 -5.4,-3.4 -17.4,-0.7 -17.8,-1 0.1,2.9 -1,9.9 -0.6,13.1 0.3,2.4 0.9,5.1 1.9,7 1.3,2.5 4.8,4.8 10,4.9 2.1,3.6 5.4,6.2 6.3,6.7 -1.6,1.3 -3.5,2.2 -6.2,4.8 -3.9,3.7 -8.8,7.9 -13.6,11.1 1.2,0.7 2.4,1.8 2.9,2.4 0.7,1 1.2,1.8 1.5,3.4 8.9,-2 16,-6.7 23.3,-11.9 2.6,-1.9 4.1,-3.8 6,-6.1 3.6,-0.5 3.5,-4 2.3,-5.1 z"
   id="path1110"
   style="fill:#178066;fill-opacity:1" />
		<path
   class="st28"
   d="m 62.27371,669.28749 c 1.3,-6.2 2.1,-14.7 2.1,-14.7 0,0 -6.5,-7.1 -13,1 -2,2.5 -1.8,5.9 -2.4,7.3 -0.3,0.5 -1.3,2.2 -1.3,4.1 3.7,4.2 10,4 14.6,2.3 z"
   id="path1112"
   style="fill:#ff7f2a;fill-opacity:1" />
		<g
   id="g1120"
   transform="translate(-79.72629,-127.91251)">
			<path
   class="st29"
   d="m 154.9,785.9 -5.2,4.3 c -2.8,-1 -5,-4.3 -6.2,-7.6 1,-0.8 4.7,-2.9 5,-4 -1.1,-3.1 0.6,-5.6 3.4,-8.4 3,-2.9 8.3,-2.8 11.5,-0.3 0.5,0.2 2.9,1.9 2.5,4.8 -0.4,3.2 -2.2,11 -5,12.5 -1.9,1 -4.1,-0.6 -6,-1.3 z"
   id="path1114"
   style="fill:#a05a2c;fill-opacity:1" />
			<path
   class="st31"
   d="m 147.3,770.2 c 0.3,-2.5 1.6,-4.7 4.3,-5.9 3,-1.4 8.3,-1.6 10.7,1.1 0,-0.1 0.1,-0.2 0.1,-0.3 0.7,-1 2,-0.8 2.8,-0.1 0.7,0.5 1.2,1.3 1.5,2.1 0.5,-0.2 1.1,-0.2 1.6,0 1.7,0.7 1.7,3.2 1.1,4.6 -1.3,3 -6,6.3 -9.5,5.4 0.2,1.7 -0.7,2.7 -2.1,3.8 -2.2,1.8 -5.3,1.9 -7.8,0.7 -2.8,-1.4 -5.3,-4.6 -5.1,-7.8 0.3,-1.4 1.2,-2.9 2.4,-3.6 z"
   id="path1116"
   style="fill:#454837;fill-opacity:1" />
			<path
   class="st29"
   d="m 161.3,778 c 0,0 -0.6,-2 -2.5,-0.8 -1.9,1.3 0.4,5.1 0.4,5.1 z"
   id="path1118"
   style="fill:#a05a2c;fill-opacity:1" />
		</g>
		<path
   class="st33"
   d="m 72.07371,660.58749 c -6.7,-5.1 -6.5,-5.7 -9.7,-7.1 -2.8,-1.2 -11,6.3 -13.5,14.2 -1.7,5.3 -4.3,16.9 -5.6,26.1 6.4,5.9 16.5,4.7 24.3,1.1 1,-1.1 4.5,-5.2 7.3,-11.9 2.6,-6.2 3.1,-7.8 3.7,-11 0.5,-3.3 0.2,-6.3 -6.5,-11.4 z"
   id="path1122"
   style="fill:#ff7f2a;fill-opacity:1" />
		<path
   class="st31"
   d="m 52.57371,735.88749 c 0,0 -4.9,-0.3 -6.8,0 -2,0.3 -2.3,3.9 -4,5.6 -1.7,1.7 -6.8,2.6 -8.1,6 -1.3,3.5 1.1,8.9 4.3,7.5 5.2,-2.2 15.6,-10.9 15.6,-10.9 0,0 2.3,-3.6 -1,-8.2 z"
   id="path1124"
   style="fill:#1a1a1a;fill-opacity:1" />
		
		<g
   id="g1182"
   transform="translate(-79.72629,-127.91251)">
			<polygon
   class="st49"
   points="174.6,804.6 178.5,806.9 171.9,810.6 167.9,808.4 "
   id="polygon1130" />
			<polygon
   class="st13"
   points="174.6,801.8 178.5,804.1 171.9,807.9 167.9,805.6 "
   id="polygon1132" />
			<polygon
   class="st12"
   points="171.8,806.2 169.5,804.9 167.9,805.6 171.9,807.9 "
   id="polygon1134" />
			<polygon
   class="st12"
   points="178.5,804.1 174.6,801.8 176.4,803.5 178.3,804.1 "
   id="polygon1136" />
			<g
   id="g1146">
				<path
   class="st50"
   d="m 173.5,796.8 v 5 l 3,-1.8 c 0.4,-0.2 0.7,-0.7 0.7,-1.1 v -4.2 z"
   id="path1138" />
				<polygon
   class="st43"
   points="174.1,796.1 176.4,797.4 171.8,800 169.5,798.7 "
   id="polygon1140" />
				<polygon
   class="st43"
   points="176.4,797.4 171.8,800 171.8,806.2 176.4,803.5 "
   id="polygon1142" />
				<polygon
   class="st44"
   points="171.8,800 169.5,798.7 169.5,804.9 171.8,806.2 "
   id="polygon1144" />
			</g>
			<path
   class="st12"
   d="m 195,781.9 -9.3,5.4 c -0.3,0.1 -0.6,0.1 -0.7,-0.2 -0.1,-0.3 -0.1,-0.6 0.2,-0.7 l 9.3,-5.4 c 0.3,-0.1 0.6,-0.1 0.7,0.2 0.2,0.2 0.1,0.6 -0.2,0.7 z"
   id="path1148" />
			<path
   class="st51"
   d="m 169.1,799.6 c 0,0.1 -4.7,2.7 -6.2,3.4 -1.5,0.6 -0.5,3.6 1,4 1.5,0.4 5.2,-1.7 6.1,-2.6 0.9,-0.9 2.6,-2 1.8,-2.4 -0.8,-0.5 -1,-0.2 -1.6,0.3 -0.6,0.4 -1.4,0.5 -1.4,0.5 z"
   id="path1150" />
			<path
   class="st13"
   d="m 188.6,785.2 v 0 c -1.1,-1.9 -3.5,-2.6 -5.4,-1.5 l -3.1,1.8 c 1.3,2.3 2.4,4.7 3.8,6.9 l 3.3,-1.9 c 1.8,-1 2.5,-3.4 1.4,-5.3 z"
   id="path1152"
   style="fill:#ff6600;fill-opacity:1" />
			<g
   id="g1158">
				<path
   class="st11"
   d="m 185.6,789.9 c 0,-1.9 -1.2,-4.1 -2.6,-5 -0.6,-0.4 -1.2,-0.4 -1.7,-0.1 v 0 l -3,1.7 3.4,7.2 3,-1.8 c 0.6,-0.2 0.9,-1 0.9,-2 z"
   id="path1154" />
				<path
   class="st33"
   d="m 182.6,791.6 c 0,1.9 -1.2,2.8 -2.6,2 -1.4,-0.8 -2.6,-3 -2.6,-5 0,-1.9 1.2,-2.8 2.6,-2 1.4,0.9 2.6,3.1 2.6,5 z"
   id="path1156" />
			</g>
			<path
   class="st13"
   d="m 183.9,791.9 c 0,-2.6 -1.6,-5.5 -3.5,-6.6 -0.9,-0.5 -1.7,-0.5 -2.3,-0.2 v 0 l -14.8,8.7 4.6,9.6 14.8,-8.7 c 0.7,-0.5 1.2,-1.4 1.2,-2.8 z"
   id="path1160"
   style="fill:#ff6600" />
			<path
   class="st33"
   d="m 170.7,799.6 c 0,-2.6 -1.6,-5.5 -3.5,-6.6 -0.9,-0.5 -1.7,-0.5 -2.3,-0.2 l -1.6,1 4.6,9.6 1.6,-1 c 0.8,-0.4 1.2,-1.4 1.2,-2.8 z"
   id="path1162" />
			<path
   class="st12"
   d="m 169.2,800.5 c 0,2.6 -1.6,3.7 -3.5,2.6 -1.9,-1.1 -3.5,-4.1 -3.5,-6.6 0,-2.6 1.6,-3.7 3.5,-2.6 1.9,1.1 3.5,4.1 3.5,6.6 z"
   id="path1164" />
			<g
   id="g1170">
				<path
   class="st11"
   d="m 167.9,800.3 c 0,-1.9 -1.2,-4.1 -2.6,-5 -0.6,-0.4 -1.2,-0.4 -1.7,-0.1 v 0 l -1.3,0.8 3.4,7.2 1.3,-0.8 c 0.5,-0.4 0.9,-1.1 0.9,-2.1 z"
   id="path1166" />
				<path
   class="st33"
   d="m 166.5,801.1 c 0,1.9 -1.2,2.8 -2.6,2 -1.4,-0.8 -2.6,-3 -2.6,-5 0,-1.9 1.2,-2.8 2.6,-2 1.5,0.8 2.6,3.1 2.6,5 z"
   id="path1168" />
			</g>
			<path
   class="st50"
   d="m 177.8,787.3 c 0,0 0,0 0,0 v -0.8 l -0.7,0.2 c 0,0 -0.8,-0.1 -1.1,0.1 l -2.2,0.9 -0.8,0.3 v 0.8 c 0,0.2 0.1,0.3 0.3,0.4 0.4,0.2 1,0.3 1.4,0.1 l 2.9,-1.7 c 0.1,0 0.2,-0.1 0.2,-0.3 z"
   id="path1172" />
			<path
   class="st52"
   d="m 174.7,788.5 2.9,-1.7 c 0.4,-0.2 0.3,-0.6 -0.1,-0.8 -0.4,-0.2 -1,-0.3 -1.4,-0.1 l -2.9,1.7 c -0.4,0.2 -0.3,0.6 0.1,0.8 0.4,0.3 1.1,0.3 1.4,0.1 z"
   id="path1174"
   style="fill:#440055" />
			<polygon
   class="st53"
   points="171.9,807.9 167.9,805.6 167.9,808.4 171.9,810.6 "
   id="polygon1176" />
			<polygon
   class="st12"
   points="178.5,804.1 171.9,807.9 171.9,810.6 178.5,806.9 "
   id="polygon1178" />
			<path
   class="st54"
   d="m 181.3,794.6 -7,4.1 c -0.3,0.2 -0.5,0 -0.5,-0.4 v -2.5 c 0,-0.4 0.2,-0.8 0.5,-0.9 l 7,-4.1 c 0.3,-0.2 0.5,0 0.5,0.4 v 2.5 c 0,0.3 -0.2,0.8 -0.5,0.9 z"
   id="path1180"
   style="fill:#8800aa" />
		</g>
		<path
   class="st29"
   d="m 101.57371,671.18749 c 0,-2 -0.5,-3.3 -0.5,-3.3 l -2.6,1.6 c -1.4,1 -2.5,-1.8 -3.6,-2.2 -1.6,-0.5 -0.9,1.4 -0.5,2.2 0.5,0.8 1.7,2.4 1.1,3.4 -0.4,0.6 -2.7,1.9 -5.1,3.3 -2.1,1.1 -3.5,1.8 -4.4,2.5 -0.5,-1.2 -3.8,-6.7 -7.8,-8.7 0,0 -7.8,4.8 -7,7.2 1.8,5.3 8.9,8.2 10.6,8.9 1.7,0.6 2.9,1.4 5.3,0.7 1.2,-0.4 3.3,-2 5.6,-4 0,0 0,0 0,0 0,0 0,0 0,0 1.6,-1.4 3.3,-3 4.9,-4.5 3.7,-3.6 4,-5.1 4,-7.1 z"
   id="path1184"
   style="fill:#a05a2c;fill-opacity:1" />
		<path
   class="st28"
   d="m 74.97371,683.88749 c 4.5,-1.7 8.2,-4.6 9.8,-8.8 -0.6,-0.6 -1.9,-2.7 -2.6,-3.3 -2.5,-6.6 -6.1,-9.3 -8.9,-9.4 -4,-0.2 -6.7,3.1 -6.1,7.2 1.4,8.1 3.8,11.1 7.8,14.3 z"
   id="path1186"
   style="fill:#ff7f2a;fill-opacity:1" />
		<path
   class="st32"
   d="m 62.07371,653.78749 c -1.3,0.9 -4.5,2.3 -6.4,4.8 -5,6.5 -5.9,11.7 -5.9,11.7 h -2.2 c 0,0 2.9,-8.8 6.3,-12.8 3.8,-4.3 7.6,-5 7.6,-5 0,0 0.7,0.6 0.6,1.3 z"
   id="path1188"
   style="fill:#178066;fill-opacity:1" />
		<path
   class="st28"
   d="m 60.57371,652.78749 c 0,0 3.2,-1.9 4.8,-1.1 1.5,0.8 6.4,4.1 7.3,5.9 0.9,1.7 1.5,4.7 1.5,4.7 0,0 -5.4,-1.9 -9.5,-5.4 -4.1,-3.4 -4.1,-4.1 -4.1,-4.1 z"
   id="path1190"
   style="fill:#ff6600;fill-opacity:1" />
		<path
   class="st32"
   d="m 69.37371,692.58749 c 0,0 -2.6,2.8 -6.2,-0.5 -3.7,-3.3 -6.6,-8.3 -3.9,-15.5 -3.1,-2.4 -7.4,-6 -10.4,-8.9 -2,3.3 -2.8,9.8 -4.6,13.9 -1.8,4.1 -2.4,9.2 -1.8,12.2 1.5,1.6 3.4,4.8 10.4,6.9 9.7,2.8 18.4,-3.6 18,-4.8 -0.5,-1.3 -1.5,-3.3 -1.5,-3.3 z"
   id="path1192"
   style="fill:#178066;fill-opacity:1" />
		<path
   class="st32"
   d="m 67.87371,666.88749 c -6,4.3 -9.2,11.5 -9.2,11.5 l -1.8,-1.8 c 0,0 5.5,-9 10.3,-12.4 2.1,-1.4 3.9,-2.2 5.3,-2.6 1.8,-0.5 2.7,1.3 2.7,1.3 0,0 -2.1,0.3 -7.3,4 z"
   id="path1194"
   style="fill:#178066;fill-opacity:1" />
		<path
   class="st30"
   d="m 42.17371,692.38749 v 3.6 c 0,0 3.3,4 11.2,5.7 7.9,1.7 14.9,0.1 17.5,-1.3 2.5,-1.4 5.3,-3.9 5.3,-3.9 l -1.9,-1.6 c 0,0 -1.2,1.4 -6.3,2.9 -5.2,1.5 -11.6,1.3 -15.5,0.3 -4.1,-1 -10.3,-5.7 -10.3,-5.7 z"
   id="path1196"
   style="fill:#005544;fill-opacity:1" />
		<path
   class="st30"
   d="m 69.57371,724.18749 c 0,0 1.1,1.3 2.3,1.5 1.2,0.2 3.7,-0.7 3.7,-0.7 0,0 -1.3,-0.4 -2.5,-0.7 -1,-0.4 -2.5,0.1 -3.5,-0.1 z"
   id="path1198"
   style="fill:#005544;fill-opacity:1" />
		<g
   id="g1206"
   transform="translate(-79.72629,-127.91251)">
			<path
   class="st30"
   d="m 148.8,771.4 c 0,0 -2.9,4 -7,6.7 -3.8,2.5 0.8,6.8 4.2,6.7 4.5,-0.2 7.2,-2.5 8.9,-5.2 1.7,-2.7 3.5,-3.9 3.5,-3.9 z"
   id="path1200"
   style="fill:#178066;fill-opacity:1" />
			<path
   class="st32"
   d="m 164.4,768.3 c -0.6,-6.2 -9.4,-9.6 -16.1,-4.9 -3.7,2.6 -5.7,8.1 -2.1,14 0.8,2.4 16.8,1.6 18.2,-9.1 z"
   id="path1202"
   style="fill:#178066;fill-opacity:1" />
			<path
   class="st30"
   d="m 152.3,762.7 c 0.2,0.5 -0.3,1.2 -1.2,1.6 -0.9,0.4 -1.8,0.4 -2,-0.1 -0.2,-0.5 0.3,-1.2 1.2,-1.6 0.9,-0.4 1.8,-0.4 2,0.1 z"
   id="path1204"
   style="fill:#005544;fill-opacity:1" />
		</g>
	</g><g
     id="g1298"
     transform="matrix(0.74398553,0,0,0.51776872,-68.8827,-250.78833)">
		<path
   class="st12"
   d="m 218.5,879.6 h -15.4 l -7.7,-4.9 -7.7,-4.4 c -1.7,-1 -4.6,-0.8 -6.6,0.3 l -13.8,8 H 153 v 9.3 0 c -0.1,0.7 0.3,1.3 1.1,1.8 l 29.6,17.1 c 1.7,1 4.6,0.8 6.6,-0.3 l 26.4,-15.3 c 1.1,-0.6 1.6,-1.5 1.6,-2.3 v 0 -9.3 z"
   id="path1264" />
		<g
   id="g1268">
			<path
   class="st59"
   d="m 216.9,886.3 -26.4,15.3 c -1.9,1.1 -4.9,1.2 -6.6,0.3 l -29.6,-17.1 c -0.8,-0.5 -1.2,-1.1 -1.1,-1.8 v 0 1.3 0 c -0.1,0.7 0.3,1.3 1.1,1.8 l 29.6,17.1 c 1.7,1 4.6,0.8 6.6,-0.3 l 26.4,-15.3 c 1.1,-0.6 1.6,-1.5 1.6,-2.3 v 0 -1.3 0 c 0,0.8 -0.5,1.6 -1.6,2.3 z"
   id="path1266" />
		</g>
		<path
   class="st12"
   d="m 195.4,865.4 v 9.6 c 0,0 -7.2,-0.8 -8.1,-3.7 -0.8,-2.9 1.9,-4.4 3.3,-5 1.4,-0.6 4.8,-0.9 4.8,-0.9 z"
   id="path1270" />
		<g
   id="g1274">
			<path
   class="st13"
   d="m 217.3,878 -7.7,-4.4 -5.2,3 c -1.3,0.7 -3.3,0.8 -4.4,0.2 l -10.2,-5.9 c -1.1,-0.6 -1,-1.8 0.3,-2.5 l 5.2,-3 -7.7,-4.4 c -1.7,-1 -4.6,-0.8 -6.6,0.3 l -26.4,15.3 c -1.9,1.1 -2.1,2.8 -0.5,3.8 l 29.6,17.1 c 1.7,1 4.6,0.8 6.6,-0.3 l 26.4,-15.3 c 2.1,-1.2 2.3,-2.9 0.6,-3.9 z"
   id="path1272" />
		</g>
		<path
   class="st12"
   d="m 186.7,890.1 -21.1,-12.2 c -0.9,-0.5 -0.8,-1.5 0.3,-2.1 l 11.6,-6.7 c 1.1,-0.6 2.7,-0.7 3.6,-0.2 l 21.1,12.2 c 0.9,0.5 0.8,1.5 -0.3,2.1 l -11.6,6.7 c -1,0.7 -2.6,0.8 -3.6,0.2 z"
   id="path1276" />
		<path
   class="st60"
   d="m 186.3,889 -17.8,-10.3 c -0.8,-0.5 -0.7,-1.2 0.2,-1.8 l 9.7,-5.6 c 0.9,-0.5 2.3,-0.6 3,-0.1 l 17.8,10.3 c 0.8,0.5 0.7,1.2 -0.2,1.8 l -9.7,5.6 c -0.9,0.5 -2.2,0.6 -3,0.1 z"
   id="path1278" />
		<polygon
   class="st52"
   points="178.7,875 180.9,873.7 193.5,881 191.3,882.3 "
   id="polygon1280" />
		<path
   class="st12"
   d="m 184.6,861.9 c -1.8,0 -3.3,0.7 -3.3,1.7 0,1 1.5,1.7 3.3,1.7 1.8,0 3.3,-0.7 3.3,-1.7 0,-1 -1.5,-1.7 -3.3,-1.7 z"
   id="path1282" />
		<path
   class="st60"
   d="m 184.6,863 c -1,0 -1.8,0.4 -1.8,0.9 0,0.5 0.8,0.9 1.8,0.9 1,0 1.8,-0.4 1.8,-0.9 0,-0.5 -0.8,-0.9 -1.8,-0.9 z"
   id="path1284" />
		<ellipse
   class="st12"
   cx="212.2"
   cy="879.59998"
   rx="3.3"
   ry="1.7"
   id="ellipse1286" />
		<path
   class="st60"
   d="m 212.2,879 c -1,0 -1.8,0.4 -1.8,0.9 0,0.5 0.8,0.9 1.8,0.9 1,0 1.8,-0.4 1.8,-0.9 0,-0.5 -0.8,-0.9 -1.8,-0.9 z"
   id="path1288" />
		<path
   class="st12"
   d="m 186.9,892.4 c -1.8,0 -3.3,0.7 -3.3,1.7 0,1 1.5,1.7 3.3,1.7 1.8,0 3.3,-0.7 3.3,-1.7 0,-1 -1.5,-1.7 -3.3,-1.7 z"
   id="path1290" />
		<path
   class="st60"
   d="m 186.9,893.5 c -1,0 -1.8,0.4 -1.8,0.9 0,0.5 0.8,0.9 1.8,0.9 1,0 1.8,-0.4 1.8,-0.9 0,-0.5 -0.8,-0.9 -1.8,-0.9 z"
   id="path1292" />
		<path
   class="st12"
   d="m 159.2,876.3 c -1.8,0 -3.3,0.7 -3.3,1.7 0,0.9 1.5,1.7 3.3,1.7 1.8,0 3.3,-0.7 3.3,-1.7 0,-0.9 -1.5,-1.7 -3.3,-1.7 z"
   id="path1294" />
		<path
   class="st60"
   d="m 159.2,877.4 c -1,0 -1.8,0.4 -1.8,0.9 0,0.5 0.8,0.9 1.8,0.9 1,0 1.8,-0.4 1.8,-0.9 0,-0.5 -0.8,-0.9 -1.8,-0.9 z"
   id="path1296" />
	</g><g
     id="g1104"
     transform="matrix(0.85700702,0,0,0.99524946,313.05337,-600.08461)">
		<g
   id="g1036">
			<path
   class="st12"
   d="m 92.9,805.4 v 2.2 c 0,1.2 1,2.1 2.1,2.1 1.2,0 2.1,-1 2.1,-2.1 v -2.2 z"
   id="path1028" />
			<path
   class="st13"
   d="m 97.2,805.4 c 0,0.7 -1,1.2 -2.1,1.2 -1.2,0 -2.1,-0.5 -2.1,-1.2 0,-0.7 1,-1.2 2.1,-1.2 1.1,0 2.1,0.5 2.1,1.2 z"
   id="path1030" />
			<path
   class="st24"
   d="m 96.4,805.2 c 0,0.4 -0.6,0.8 -1.3,0.8 -0.7,0 -1.3,-0.3 -1.3,-0.8 0,-0.4 0.6,-0.8 1.3,-0.8 0.7,0 1.3,0.4 1.3,0.8 z"
   id="path1032" />
			<path
   class="st11"
   d="m 96.4,805.2 v -69.1 c 0,-0.7 -0.6,-1.3 -1.3,-1.3 -0.7,0 -1.3,0.6 -1.3,1.3 v 69.1 z"
   id="path1034" />
		</g>
		<g
   id="g1044">
			<path
   class="st12"
   d="m 65.9,823.5 -0.5,2.1 c -0.3,1.1 0.4,2.3 1.6,2.6 1.1,0.3 2.3,-0.4 2.6,-1.6 l 0.5,-2.1 z"
   id="path1038" />
			<path
   class="st13"
   d="m 70.1,824.5 c -0.2,0.7 -1.2,0.9 -2.4,0.7 -1.1,-0.3 -1.9,-1 -1.8,-1.7 0.2,-0.7 1.2,-0.9 2.4,-0.7 1.1,0.3 1.9,1.1 1.8,1.7 z"
   id="path1040" />
			<path
   class="st25"
   d="m 69.1,824.3 c -0.1,0.3 -0.7,0.5 -1.3,0.4 -0.6,-0.2 -1,-0.6 -1,-0.9 0.1,-0.3 0.7,-0.5 1.3,-0.4 0.7,0.1 1.1,0.5 1,0.9 z"
   id="path1042" />
		</g>
		<g
   id="g1048">
			<path
   class="st25"
   d="m 108.4,710.6 c 2.3,-0.9 5.1,-0.5 8.1,1.3 l 6.9,3.8 c 6.3,3.6 8.3,10.1 5.9,18.8 l -0.2,0.7 c 0.9,-0.2 1.7,-0.4 2.6,-0.6 2.5,-9.4 0,-16.8 -7.1,-20.9 l -6.9,-3.8 c -3.6,-2.1 -7.1,-2.6 -10.1,-1.4 -3.3,1.3 -5.8,4.5 -7.3,9.4 L 66.9,823.7 c 0.7,0.3 1.2,0 2.2,0.6 l 33.3,-105.8 c 1.4,-4.2 3.4,-6.9 6,-7.9 z"
   id="path1046" />
		</g>
		<g
   id="g1056">
			<polygon
   class="st6"
   points="69.1,800.1 80.6,793.4 109.5,810.1 98,816.8 "
   id="polygon1050" />
			<polygon
   class="st4"
   points="69.1,802.7 98,819.4 98,816.8 69.1,800.1 "
   id="polygon1052" />
			<polygon
   class="st26"
   points="109.5,812.7 98,819.4 98,816.8 109.5,810.1 "
   id="polygon1054" />
		</g>
		<g
   id="g1064">
			<polygon
   class="st6"
   points="74.8,781.8 86.3,775.2 115.3,791.9 103.8,798.5 "
   id="polygon1058" />
			<polygon
   class="st4"
   points="74.8,784.4 103.8,801.1 103.8,798.5 74.8,781.8 "
   id="polygon1060" />
			<polygon
   class="st26"
   points="115.3,794.5 103.8,801.1 103.8,798.5 115.3,791.9 "
   id="polygon1062" />
		</g>
		<g
   id="g1072">
			<polygon
   class="st6"
   points="80.6,762.6 92.1,756 121,772.6 109.5,779.3 "
   id="polygon1066" />
			<polygon
   class="st4"
   points="80.6,765.2 109.5,781.9 109.5,779.3 80.6,762.6 "
   id="polygon1068" />
			<polygon
   class="st26"
   points="121,775.2 109.5,781.9 109.5,779.3 121,772.6 "
   id="polygon1070" />
		</g>
		<g
   id="g1080">
			<polygon
   class="st6"
   points="84.2,745.6 105.6,733.3 134.6,750 113.1,762.3 "
   id="polygon1074" />
			<polygon
   class="st4"
   points="84.2,748.2 113.1,764.9 113.1,762.3 84.2,745.6 "
   id="polygon1076" />
			<polygon
   class="st26"
   points="134.6,752.6 113.1,764.9 113.1,762.3 134.6,750 "
   id="polygon1078" />
		</g>
		<g
   id="g1088">
			<path
   class="st12"
   d="m 94.7,840.1 -0.5,2.1 c -0.3,1.1 0.4,2.3 1.6,2.6 1.1,0.3 2.3,-0.4 2.6,-1.6 l 0.5,-2.1 z"
   id="path1082" />
			<path
   class="st13"
   d="m 98.9,841.1 c -0.2,0.7 -1.2,0.9 -2.4,0.7 -1.1,-0.3 -1.9,-1 -1.8,-1.7 0.2,-0.7 1.2,-0.9 2.4,-0.7 1.1,0.3 1.9,1.1 1.8,1.7 z"
   id="path1084" />
			<path
   class="st25"
   d="m 97.9,840.9 c -0.1,0.3 -0.7,0.5 -1.3,0.4 -0.6,-0.2 -1,-0.6 -1,-0.9 0.1,-0.3 0.7,-0.5 1.3,-0.4 0.7,0.1 1.1,0.5 1,0.9 z"
   id="path1086" />
		</g>
		<path
   class="st25"
   d="m 125.7,714.3 c -0.5,0.6 -1,1.2 -1.5,1.8 5.6,3.7 7.4,10 5.1,18.3 L 95.8,840.2 c 0.7,0.3 1.5,0.3 2.1,0.7 L 131.5,735 c 2.6,-9.1 0.6,-16.4 -5.8,-20.7 z"
   id="path1090" />
		<g
   id="g1100">
			<path
   class="st12"
   d="m 123,823.7 v 2.2 c 0,1.2 1,2.1 2.1,2.1 1.2,0 2.1,-1 2.1,-2.1 v -2.2 z"
   id="path1092" />
			<ellipse
   class="st13"
   cx="125.2"
   cy="823.70001"
   rx="2.0999999"
   ry="1.2"
   id="ellipse1094" />
			<path
   class="st11"
   d="m 126.5,823.5 c 0,0.4 -0.6,0.8 -1.3,0.8 -0.7,0 -1.3,-0.3 -1.3,-0.8 0,-0.4 0.6,-0.8 1.3,-0.8 0.7,0.1 1.3,0.4 1.3,0.8 z"
   id="path1096" />
			<path
   class="st11"
   d="m 126.5,823.5 v -69.1 c 0,-0.7 -0.6,-1.3 -1.3,-1.3 -0.7,0 -1.3,0.6 -1.3,1.3 v 69.1 z"
   id="path1098" />
		</g>
		<path
   class="st27"
   d="m 126.2,757 c 0,0.5 -0.3,1.1 -0.7,1.3 -0.4,0.2 -0.7,0 -0.7,-0.5 0,-0.5 0.3,-1.1 0.7,-1.3 0.4,-0.2 0.7,0 0.7,0.5 z"
   id="path1102" />
	</g><g
     id="g128498"
     transform="matrix(0.43186179,0,0,0.41863609,276.1532,52.718607)"><path
       style="fill:#6c6753;stroke:none;stroke-width:1px;stroke-linecap:butt;stroke-linejoin:miter;stroke-opacity:1"
       d="m 125.14011,282.35302 13.1511,79.43819 52.51648,0.6195 14.86813,-78.48214 z"
       id="path112279"
       sodipodi:nodetypes="ccccc" /><rect
       style="opacity:0.990228;fill:#483e37;fill-opacity:1;stroke:none;stroke-width:1.99348;stroke-linecap:round;stroke-linejoin:round;stroke-miterlimit:4;stroke-dasharray:none;stroke-dashoffset:0;stroke-opacity:1;paint-order:stroke fill markers"
       id="rect127256"
       width="80.69059"
       height="3.7170329"
       x="125.14011"
       y="280.63599" /><path
       style="fill:#ffdd55;fill-opacity:1;stroke:none;stroke-width:0.351646px;stroke-linecap:butt;stroke-linejoin:miter;stroke-opacity:1"
       d="m 141.26785,293.68473 c -0.76454,1.07758 -1.50836,2.16987 -2.2309,3.27605 -0.97845,1.49798 -1.92728,3.04147 -2.47002,4.74638 -0.54275,1.70492 -0.64949,3.6069 0.0454,5.25568 0.34743,0.82439 0.89303,1.57071 1.60268,2.11544 0.70965,0.54472 1.58527,0.88155 2.47953,0.90681 0.89426,0.0253 1.80184,-0.2698 2.48182,-0.85114 0.67998,-0.58134 1.11688,-1.45065 1.1336,-2.34511 0.0142,-0.75826 -0.25934,-1.49074 -0.56432,-2.18511 -0.30499,-0.69436 -0.64879,-1.38262 -0.78958,-2.12782 -0.0704,-0.37261 -0.0884,-0.75772 -0.0227,-1.13118 0.0657,-0.37345 0.21765,-0.73523 0.46196,-1.02523 0.2443,-0.29001 0.58381,-0.50466 0.95688,-0.57252 0.37308,-0.0679 0.77725,0.0186 1.07311,0.25581 0.17931,0.14376 0.31548,0.33778 0.40386,0.54993 0.0884,0.21215 0.13007,0.44209 0.1372,0.6718 0.0143,0.45943 -0.10693,0.91138 -0.23684,1.35229 -0.30288,1.02793 -0.65923,2.04142 -0.89812,3.08607 -0.2389,1.04465 -0.35843,2.13231 -0.18017,3.189 0.17826,1.05668 0.67687,2.08443 1.50911,2.75952 0.41612,0.33755 0.91055,0.5819 1.43604,0.68656 0.52548,0.10467 1.08146,0.0671 1.58084,-0.12706 0.6889,-0.26787 1.24707,-0.82816 1.56733,-1.49432 0.32026,-0.66616 0.41112,-1.43066 0.3169,-2.16378 -0.18842,-1.46623 -1.07719,-2.7504 -2.08708,-3.82996 -0.79691,-0.85189 -1.70621,-1.64757 -2.17824,-2.71433 -0.23601,-0.53338 -0.35195,-1.13059 -0.2567,-1.70602 0.0952,-0.57544 0.41687,-1.12437 0.91385,-1.42967 0.38281,-0.23517 0.84279,-0.31563 1.29202,-0.32174 0.44924,-0.006 0.89617,0.0572 1.34441,0.0876 1.57461,0.1068 3.20125,-0.21146 4.53503,-1.05515 1.33379,-0.84369 2.34489,-2.23989 2.56832,-3.80222 0.11171,-0.78116 0.0272,-1.59236 -0.26383,-2.32586 -0.29101,-0.73349 -0.79019,-1.3863 -1.43467,-1.84166 -0.64447,-0.45535 -1.43341,-0.70869 -2.22235,-0.69202 -0.78894,0.0167 -1.57293,0.30713 -2.16846,0.82486 -0.76942,0.6689 -1.1807,1.64948 -1.78356,2.47167 -0.30143,0.4111 -0.66031,0.79052 -1.10395,1.04161 -0.44363,0.25109 -0.98073,0.36385 -1.4728,0.23071 -0.33546,-0.0908 -0.63628,-0.2916 -0.86959,-0.54916 -0.23331,-0.25757 -0.40121,-0.57016 -0.51379,-0.89894 -0.22515,-0.65758 -0.2316,-1.36688 -0.23904,-2.06189 -0.0274,-2.5595 -0.12576,-5.22318 -1.31823,-7.48809 -0.23694,-0.45003 -0.52149,-0.88611 -0.9162,-1.20685 -0.19735,-0.16037 -0.42114,-0.29007 -0.66303,-0.36852 -0.24189,-0.0785 -0.50219,-0.10472 -0.75298,-0.0626 -0.23566,0.0396 -0.46019,0.13915 -0.65189,0.28181 -0.19169,0.14266 -0.3507,0.32783 -0.46883,0.53554 -0.23627,0.41542 -0.30479,0.91396 -0.24194,1.38772 0.0629,0.47377 0.25094,0.92452 0.4977,1.3338 0.24676,0.40928 0.55168,0.78024 0.86496,1.14115 0.52363,0.60324 1.08071,1.19273 1.44451,1.90389 0.18189,0.35558 0.31311,0.74019 0.35445,1.13745 0.0414,0.39725 -0.01,0.80782 -0.17662,1.17072 -0.24914,0.54198 -0.72811,0.93539 -1.16594,1.34052 -0.21891,0.20257 -0.43208,0.41383 -0.60643,0.65582 -0.17435,0.24198 -0.30943,0.51722 -0.35702,0.81165 -0.0662,0.40943 0.047,0.84463 0.30417,1.16999 z"
       id="path51813-4"
       inkscape:path-effect="#path-effect113574"
       inkscape:original-d="m 141.26785,293.68473 c 0.10172,0.38948 -1.48697,2.18457 -2.2309,3.27605 -0.74381,1.09146 3.51554,6.55257 5.273,9.82806 1.75735,3.27549 0.74378,-4.52351 1.11538,-6.78605 0.37159,-2.26254 0.20374,1.71655 0.30422,2.57402 0.10231,0.85749 2.29871,6.3966 3.4477,9.59409 1.14899,3.19749 -0.13563,-4.9915 -0.20285,-7.48806 -0.0678,-2.49659 -1.01383,-3.89953 -1.52109,-5.85002 -0.50722,-1.95057 1.75788,-0.15543 2.63643,-0.23414 0.87867,-0.0787 0.67629,-5.92753 1.01404,-8.89205 0.33783,-2.96457 -2.90657,2.49651 -4.36031,3.74399 -1.45365,1.24751 -1.08138,-2.33948 -1.62242,-3.50999 -0.54108,-1.17057 -0.87862,-4.99153 -1.31823,-7.48809 -0.43959,-2.49653 -1.55458,-1.09146 -2.33221,-1.63799 -0.77774,-0.54652 1.8e-4,3.12055 0,4.68002 -2.6e-4,1.55948 1.08179,2.80855 1.62234,4.21206 0.5406,1.40346 -1.41934,1.87252 -2.12939,2.80799 -0.7101,0.93546 0.20374,0.78054 0.30417,1.16999 z" /><path
       style="fill:none;stroke:#1a1a1a;stroke-width:2;stroke-linecap:butt;stroke-linejoin:miter;stroke-miterlimit:4;stroke-dasharray:none;stroke-opacity:1"
       d="m 126.67548,285.90178 c 2.77424,7.23864 5.54801,14.47605 12.35493,19.3492 6.80691,4.87315 17.64579,7.3829 26.76025,7.47744 9.11445,0.0945 16.50431,-2.22567 22.63416,-6.9398 6.12986,-4.71413 11.00004,-11.82226 15.87051,-18.93079"
       id="path112527"
       inkscape:path-effect="#path-effect112529"
       inkscape:original-d="m 126.67548,285.90178 c 2.77478,7.23843 5.54855,14.47584 8.32131,21.71222 10.84036,2.51086 21.67924,5.02061 32.51757,7.52946 7.39113,-2.3193 14.78098,-4.63952 22.17011,-6.96082 4.87135,-7.10737 9.74154,-14.21549 14.61086,-21.32481"
       sodipodi:nodetypes="ccccc" /><rect
       style="opacity:0.990228;fill:#ff0000;fill-opacity:0.831373;stroke:none;stroke-width:4.42333;stroke-linecap:round;stroke-linejoin:round;stroke-miterlimit:4;stroke-dasharray:none;stroke-dashoffset:0;stroke-opacity:1;paint-order:stroke fill markers"
       id="rect112669"
       width="16.969595"
       height="4.3365383"
       x="157.11145"
       y="310.37225" /><path
       style="fill:#ffdd55;fill-opacity:1;stroke:none;stroke-width:0.272743px;stroke-linecap:butt;stroke-linejoin:miter;stroke-opacity:1"
       d="m 182.38157,346.51139 c -0.77208,-0.0738 -1.57088,0.20343 -2.13133,0.73956 -0.56045,0.53614 -0.87276,1.32187 -0.8333,2.09646 0.0129,0.25373 0.0622,0.50686 0.15977,0.74141 0.0976,0.23455 0.24467,0.45025 0.43763,0.61551 0.19297,0.16526 0.43272,0.27855 0.68509,0.30781 0.25237,0.0293 0.51641,-0.0282 0.72581,-0.17208 0.24178,-0.16611 0.39468,-0.42906 0.5657,-0.66738 0.0855,-0.11917 0.17797,-0.23467 0.28958,-0.32984 0.1116,-0.0952 0.24383,-0.16965 0.38795,-0.1969 0.17083,-0.0323 0.35185,0.004 0.50238,0.0915 0.15052,0.087 0.27085,0.22219 0.3501,0.37693 0.0792,0.15474 0.11841,0.3284 0.12488,0.50213 0.006,0.17374 -0.0191,0.34771 -0.0641,0.51566 -0.0899,0.33589 -0.25523,0.64565 -0.40541,0.95926 -0.15017,0.3136 -0.28812,0.64108 -0.31663,0.98762 -0.0216,0.26304 0.0221,0.53224 0.13366,0.77145 0.11153,0.2392 0.29145,0.44732 0.51647,0.58524 0.22503,0.13791 0.49482,0.20393 0.7574,0.17731 0.26258,-0.0266 0.51599,-0.14724 0.6964,-0.33988 0.12626,-0.13482 0.21574,-0.30218 0.26759,-0.47947 0.0519,-0.17728 0.0668,-0.36433 0.054,-0.5486 -0.0256,-0.36853 -0.15983,-0.7208 -0.3156,-1.05578 -0.15577,-0.33497 -0.33497,-0.6601 -0.45986,-1.00777 -0.1249,-0.34767 -0.19391,-0.72585 -0.11988,-1.08778 0.0912,-0.44601 0.39462,-0.82813 0.76521,-1.09253 0.3706,-0.2644 0.80571,-0.42305 1.24308,-0.54938 0.34418,-0.0994 0.69408,-0.18097 1.03045,-0.30425 0.33637,-0.12327 0.66245,-0.2914 0.91939,-0.54104 0.25695,-0.24964 0.43995,-0.58836 0.45088,-0.94643 0.005,-0.17904 -0.0325,-0.36017 -0.11601,-0.51862 -0.0836,-0.15844 -0.21335,-0.29334 -0.37204,-0.37643 -0.15347,-0.0804 -0.33059,-0.11099 -0.50346,-0.0998 -0.17288,0.0112 -0.34167,0.0632 -0.49725,0.13937 -0.31117,0.15239 -0.56597,0.39689 -0.81561,0.63715 -0.24964,0.24027 -0.5052,0.48416 -0.81716,0.63492 -0.15598,0.0754 -0.32516,0.1262 -0.49812,0.13607 -0.17296,0.01 -0.34984,-0.0224 -0.50246,-0.10438 -0.15388,-0.0827 -0.27831,-0.21258 -0.37716,-0.35659 -0.0988,-0.14401 -0.17399,-0.30269 -0.24829,-0.46077 -0.0743,-0.15809 -0.14859,-0.31708 -0.24597,-0.46209 -0.0974,-0.14501 -0.21965,-0.27668 -0.37182,-0.36245 -0.20602,-0.11612 -0.46366,-0.13929 -0.68478,-0.0554 -0.22111,0.0839 -0.40012,0.27514 -0.4628,0.50317 -0.0551,0.20038 -0.0193,0.4239 0.0956,0.59707 z"
       id="path51817-0"
       inkscape:path-effect="#path-effect113489"
       inkscape:original-d="m 182.38157,346.51139 c 0.0316,0.19867 -1.9762,1.89102 -2.96463,2.83602 -0.98843,0.945 1.33908,0.99544 2.0083,1.49265 0.66921,0.4972 0.82904,-0.79574 1.24323,-1.19412 0.41419,-0.39838 0.12772,2.28906 0.19126,3.43308 0.0635,1.14402 1.40284,0.79643 2.10393,1.19412 0.70109,0.3977 -0.38231,-2.78593 -0.5738,-4.1794 -0.19148,-1.39348 1.33909,-1.09427 2.00829,-1.64191 0.66922,-0.54765 1.27533,-1.79083 1.91267,-2.68677 0.63733,-0.89592 -2.42248,0.89594 -3.63406,1.34338 -1.21157,0.44745 -0.8286,-1.09426 -1.24324,-1.6419 -0.41462,-0.54765 -0.76484,0.29887 -1.14758,0.44778 -0.38276,0.14893 0.0639,0.39839 0.0956,0.59707 z" /><path
       style="fill:#ffdd55;fill-opacity:1;stroke:none;stroke-width:0.529041px;stroke-linecap:butt;stroke-linejoin:miter;stroke-opacity:1"
       d="m 148.93332,342.32518 c -0.7403,-0.43702 -1.60823,-0.65482 -2.46716,-0.61913 -0.85893,0.0357 -1.70579,0.32475 -2.40729,0.82168 -0.70149,0.49693 -1.25511,1.19995 -1.57371,1.9984 -0.3186,0.79845 -0.40104,1.68948 -0.23435,2.53284 0.19718,0.9976 0.76686,1.94334 1.63591,2.47139 0.43453,0.26403 0.93699,0.41968 1.44535,0.42928 0.50836,0.01 1.02119,-0.12923 1.44562,-0.40919 0.49299,-0.32519 0.84566,-0.81814 1.26011,-1.23888 0.20722,-0.21037 0.43363,-0.40547 0.69303,-0.54657 0.2594,-0.1411 0.5545,-0.22633 0.84921,-0.20774 0.27584,0.0174 0.54306,0.12617 0.76194,0.29494 0.21888,0.16877 0.3901,0.39587 0.5059,0.64683 0.2316,0.50193 0.23928,1.08335 0.13254,1.62573 -0.21349,1.08475 -0.85773,2.06297 -0.96926,3.16289 -0.0612,0.60351 0.0468,1.22628 0.32729,1.76416 0.28047,0.53787 0.73517,0.9869 1.28593,1.24113 0.55076,0.25422 1.19537,0.30797 1.77466,0.128 0.57929,-0.17998 1.0853,-0.59654 1.35457,-1.14011 0.27052,-0.54611 0.29639,-1.18867 0.17976,-1.78684 -0.11664,-0.59817 -0.36684,-1.16122 -0.63022,-1.71081 -0.26337,-0.54959 -0.54312,-1.09483 -0.72498,-1.6765 -0.18187,-0.58167 -0.26223,-1.20984 -0.11796,-1.80196 0.11133,-0.45693 0.35402,-0.87717 0.67225,-1.22344 0.31823,-0.34628 0.71037,-0.62035 1.13204,-0.82859 0.84336,-0.4165 1.78957,-0.56933 2.72257,-0.68859 0.64758,-0.0828 1.29879,-0.15222 1.93368,-0.30429 0.63489,-0.15207 1.25811,-0.39096 1.78043,-0.78262 0.52232,-0.39165 0.93848,-0.94728 1.08015,-1.58457 0.0708,-0.31865 0.072,-0.65394 -0.008,-0.97036 -0.0802,-0.31642 -0.24278,-0.61314 -0.47472,-0.84283 -0.27168,-0.26904 -0.63265,-0.44035 -1.00881,-0.50888 -0.37616,-0.0685 -0.76678,-0.0374 -1.13598,0.062 -0.73841,0.19882 -1.37706,0.65779 -1.97262,1.13747 -0.59555,0.47969 -1.17445,0.99439 -1.85811,1.33701 -0.34182,0.17131 -0.70875,0.29779 -1.08825,0.34437 -0.37951,0.0466 -0.77228,0.0112 -1.12772,-0.12968 -0.61377,-0.24331 -1.06369,-0.7716 -1.46142,-1.29859 -0.39773,-0.52699 -0.7845,-1.08667 -1.34096,-1.44201 -0.44413,-0.28361 -0.99749,-0.41845 -1.50992,-0.29554 -0.25621,0.0614 -0.49821,0.18649 -0.68978,0.36738 -0.19158,0.18089 -0.33133,0.41806 -0.38706,0.67558 -0.0741,0.34246 0.007,0.71536 0.21549,0.99661 z"
       id="path51817-6"
       inkscape:path-effect="#path-effect113520"
       inkscape:original-d="m 148.93332,342.32518 c 0.0712,0.33161 -4.4545,3.15643 -6.68251,4.73379 -2.22803,1.57736 3.0184,1.66155 4.52688,2.49148 1.50844,0.82991 1.86873,-1.32822 2.80235,-1.99319 0.93363,-0.66496 0.2879,3.82083 0.43112,5.73039 0.14314,1.90956 3.16213,1.32937 4.74245,1.99318 1.58032,0.66383 -0.86176,-4.65018 -1.2934,-6.97611 -0.43161,-2.32595 3.01841,-1.82652 4.52686,-2.74062 1.50849,-0.91412 2.87471,-2.9892 4.31133,-4.48467 1.4366,-1.49544 -5.46048,1.49547 -8.19149,2.24232 -2.73099,0.74687 -1.86774,-1.8265 -2.80238,-2.7406 -0.93459,-0.91412 -1.72401,0.49886 -2.58676,0.74742 -0.86276,0.24859 0.14403,0.66498 0.21549,0.99661 z"
       inkscape:transform-center-x="-1.239011"
       inkscape:transform-center-y="-8.0535714" /><path
       style="fill:#ffdd55;fill-opacity:1;stroke:none;stroke-width:0.476922px;stroke-linecap:butt;stroke-linejoin:miter;stroke-opacity:1"
       d="m 175.22305,295.14106 c 0.0154,-1.35011 -0.66896,-2.68935 -1.77211,-3.46786 -1.10316,-0.77852 -2.59429,-0.97457 -3.86119,-0.50766 -0.4469,0.1647 -0.86697,0.40761 -1.21863,0.72882 -0.35166,0.32122 -0.63369,0.72179 -0.79793,1.16887 -0.16424,0.44707 -0.20821,0.94063 -0.1052,1.40564 0.103,0.46502 0.35563,0.8989 0.72257,1.20255 0.37979,0.31428 0.8578,0.47784 1.3016,0.69243 0.2219,0.10729 0.43847,0.22944 0.62727,0.38789 0.18879,0.15846 0.34962,0.3553 0.44084,0.58428 0.10239,0.25699 0.11255,0.5472 0.0431,0.81498 -0.0694,0.26778 -0.21627,0.51299 -0.40865,0.71178 -0.38474,0.3976 -0.9352,0.60045 -1.48424,0.66879 -1.09807,0.13668 -2.22201,-0.2151 -3.31102,-0.0189 -0.52272,0.0942 -1.0249,0.31717 -1.42961,0.66114 -0.40472,0.34396 -0.70869,0.81043 -0.8363,1.32601 -0.12761,0.51558 -0.0738,1.07825 0.17085,1.5497 0.24463,0.47145 0.68249,0.84394 1.19391,0.98732 0.58133,0.16298 1.21551,0.0275 1.74941,-0.25443 0.53391,-0.28188 0.98245,-0.69974 1.40707,-1.12893 0.42463,-0.42919 0.83519,-0.87729 1.31889,-1.2386 0.48369,-0.36132 1.05442,-0.63518 1.65773,-0.65828 0.38953,-0.0149 0.77982,0.076 1.13348,0.23991 0.35365,0.16396 0.67156,0.39959 0.94897,0.67344 0.55483,0.54771 0.9437,1.23823 1.30703,1.92802 0.26309,0.49949 0.51766,1.00542 0.83478,1.47248 0.31712,0.46706 0.70161,0.89766 1.17873,1.19943 0.47712,0.30178 1.05425,0.46701 1.61287,0.38542 0.27931,-0.0408 0.55063,-0.143 0.78174,-0.30506 0.23112,-0.16206 0.42104,-0.38458 0.53564,-0.64254 0.12741,-0.28678 0.15943,-0.61165 0.11273,-0.92197 -0.0467,-0.31032 -0.16987,-0.60641 -0.33799,-0.87139 -0.33622,-0.52996 -0.8406,-0.92861 -1.34858,-1.29721 -0.50797,-0.36861 -1.03568,-0.72348 -1.44719,-1.19736 -0.20575,-0.23695 -0.38075,-0.50306 -0.49537,-0.79518 -0.11463,-0.29213 -0.16748,-0.61117 -0.13033,-0.92277 0.0373,-0.31279 0.16362,-0.60996 0.33008,-0.87739 0.16646,-0.26743 0.37266,-0.50767 0.58278,-0.74236 0.42022,-0.46938 0.87404,-0.94591 1.05,-1.55084 0.12083,-0.4154 0.0936,-0.88221 -0.12251,-1.25698 -0.10805,-0.18739 -0.26166,-0.34928 -0.44686,-0.46103 -0.1852,-0.11176 -0.40199,-0.17241 -0.6182,-0.166 -0.34689,0.0103 -0.68345,0.20128 -0.87018,0.4938 z"
       id="path51817-4"
       inkscape:path-effect="#path-effect113539"
       inkscape:original-d="m 175.22305,295.14106 c -0.2897,0.1639 -3.75596,-2.64977 -5.6333,-3.97552 -1.87736,-1.32577 -0.93323,3.00451 -1.39919,4.50588 -0.46595,1.50137 1.57939,1.11031 2.36971,1.6646 0.79034,0.55427 -3.44096,1.45166 -5.16079,2.17663 -1.71986,0.72491 -0.60122,3.0167 -0.90115,4.52417 -0.29996,1.50748 4.0883,-2.18623 6.1331,-3.28024 2.04482,-1.094 2.25924,1.89486 3.38948,2.84137 1.13026,0.94654 3.2954,1.40708 4.94376,2.10973 1.64833,0.70265 -2.43159,-4.0033 -3.64673,-6.00588 -1.21514,-2.00253 1.30815,-2.1131 1.96286,-3.17059 0.65479,-1.05736 -0.79215,-1.25542 -1.18757,-1.88401 -0.39544,-0.62865 -0.58057,0.32969 -0.87018,0.4938 z" /><path
       style="fill:#0088aa;fill-opacity:1;stroke:none;stroke-width:0.860668px;stroke-linecap:butt;stroke-linejoin:miter;stroke-opacity:1"
       d="m 135.61838,317.20162 1.97231,13.17966 54.30311,1.43972 3.03798,-13.89655 z"
       id="path114099"
       sodipodi:nodetypes="ccccc" /><text
       xml:space="preserve"
       style="font-size:12.1723px;line-height:0.65;font-family:sans-serif;stroke-width:0.676239"
       x="154.60103"
       y="302.39746"
       id="text116531"
       transform="scale(0.9199246,1.0870456)"><tspan
         sodipodi:role="line"
         id="tspan116529"
         x="154.60103"
         y="302.39746"
         style="fill:#ffffff;stroke-width:0.676239">Peinture</tspan></text></g></g></svg>
