<?xml version="1.0" encoding="UTF-8" standalone="no"?>
<!-- Generator: Adobe Illustrator 25.1.0, SVG Export Plug-In . SVG Version: 6.00 Build 0)  -->

<svg
   version="1.1"
   id="Capa_1"
   x="0px"
   y="0px"
   viewBox="0 0 299.99999 150"
   xml:space="preserve"
   sodipodi:docname="repassage.svg"
   width="300"
   height="150"
   inkscape:version="1.1 (c68e22c387, 2021-05-23)"
   inkscape:export-filename="C:\Users\Elvis Caleb\Desktop\sous_menage\repassage.png"
   inkscape:export-xdpi="274.28601"
   inkscape:export-ydpi="274.28601"
   xmlns:inkscape="http://www.inkscape.org/namespaces/inkscape"
   xmlns:sodipodi="http://sodipodi.sourceforge.net/DTD/sodipodi-0.dtd"
   xmlns="http://www.w3.org/2000/svg"
   xmlns:svg="http://www.w3.org/2000/svg"><defs
   id="defs281">
	
	
	
	
</defs><sodipodi:namedview
   id="namedview279"
   pagecolor="#505050"
   bordercolor="#eeeeee"
   borderopacity="1"
   inkscape:pageshadow="0"
   inkscape:pageopacity="0"
   inkscape:pagecheckerboard="0"
   showgrid="false"
   width="300px"
   inkscape:zoom="2.4213251"
   inkscape:cx="269.27404"
   inkscape:cy="110.0637"
   inkscape:window-width="1920"
   inkscape:window-height="1001"
   inkscape:window-x="-32000"
   inkscape:window-y="-32000"
   inkscape:window-maximized="0"
   inkscape:current-layer="Capa_1" />
<style
   type="text/css"
   id="style2">
	.st0{fill:#BBD1BC;}
	.st1{fill:#A1D2D9;}
	.st2{fill:#72BCC6;}
	.st3{fill:#D2D2D2;}
	.st4{fill:#EDEDED;}
	.st5{fill:#C6C6C6;}
	.st6{fill:#B5D9DB;}
	.st7{fill:#B36F20;}
	.st8{fill:none;stroke:#683C11;stroke-width:2.7231;stroke-miterlimit:10;}
	.st9{fill:none;}
	.st10{fill:none;stroke:#E74645;stroke-width:5.4461;stroke-linecap:round;stroke-linejoin:round;stroke-miterlimit:10;}
	.st11{fill:#F0C839;}
	.st12{fill:#DADADA;}
	.st13{fill:#FFFFFF;}
	.st14{fill:#737E26;}
	.st15{fill:#ADC350;}
	.st16{fill:#B7B5C2;}
	.st17{fill:#8A81AC;}
	.st18{fill:#F190AE;}
	.st19{fill:#5F5E5E;}
	.st20{fill:#AB8698;}
	.st21{fill:#E74645;}
	.st22{fill:#00B0B1;}
	.st23{fill:#F5B94E;}
	.st24{fill:#9C599F;}
	.st25{fill:#E93C88;}
	.st26{fill:#95C11F;}
	.st27{fill:#008390;}
	.st28{fill:#00B1C3;}
	.st29{fill:#F28C00;}
	.st30{fill:#F9B233;}
	.st31{fill:#0094BE;}
	.st32{fill:#007798;}
	.st33{fill:#009FC0;}
	.st34{fill:#9A6289;}
	.st35{fill:#509D9A;}
	.st36{fill:#DBC4D0;}
	.st37{fill:#464E5A;}
	.st38{fill:none;stroke:#683C11;stroke-width:1.8154;stroke-miterlimit:10;}
</style>
<rect
   x="-2.7812839"
   class="st0"
   width="305.68726"
   height="161.33179"
   id="rect4"
   y="-10.397934"
   style="stroke-width:0.535877" /><rect
   x="-2.7812839"
   y="114.90482"
   class="st1"
   width="305.68726"
   height="36.029034"
   id="rect6"
   style="stroke-width:0.535877" /><rect
   x="-2.7812839"
   y="108.6337"
   class="st2"
   width="305.68726"
   height="6.2711291"
   id="rect8"
   style="stroke-width:0.535877" /><g
   id="g26"
   transform="matrix(0.54231522,0,0,0.35113123,45.290752,-4.4075229)">
		<rect
   x="199.7"
   y="52.200001"
   class="st3"
   width="182.39999"
   height="153.89999"
   id="rect10" />
		<rect
   x="199.7"
   y="52.200001"
   class="st4"
   width="177.39999"
   height="148.2"
   id="rect12"
   style="fill:#a05a2c" />
		<rect
   x="210.10001"
   y="60.799999"
   class="st5"
   width="156.7"
   height="130.89999"
   id="rect14" />
		<rect
   x="214.89999"
   y="65.099998"
   class="st1"
   width="151.89999"
   height="126.6"
   id="rect16" />
		<path
   class="st6"
   d="m 247.9,155.6 c 7.4,-18.8 13.8,-37.8 18.5,-57.4 2.6,-10.9 4.8,-22 6.6,-33 h -58.1 v 126.6 h 13.3 c 9,-10.4 14.8,-23.7 19.7,-36.2 z"
   id="path18" />
		<path
   class="st6"
   d="m 292.4,65.1 c -1.5,9.5 -3.3,18.9 -5.3,28.2 -5.5,24.8 -12.1,50.8 -23.4,73.7 -4.3,8.6 -8.9,17 -14.5,24.7 h 6.2 c 8.4,-3.7 16.4,-9 23.7,-15.4 15.3,-13.5 29.4,-31.1 39.3,-50.2 9.6,-18.5 16,-39.4 19.3,-60.9 h -45.3 z"
   id="path20" /><rect
   x="206.89999"
   y="119.1"
   class="st4"
   width="163.10001"
   height="11.922018"
   id="rect24"
   style="fill:#c87137;stroke-width:0.9099" />
		<rect
   x="282.20001"
   y="57.099998"
   class="st4"
   width="12.5"
   height="138.3"
   id="rect22"
   style="fill:#c87137" />
		
	</g>
<g
   id="g58"
   transform="matrix(0.58924069,0,0,0.39943497,36.471061,-13.351431)">
			<path
   class="st7"
   d="m 94.8,86.1 c 0,0 -18.9,-5.2 -40.4,-0.7 0,0 2.4,10.2 18.9,11.8 0,0 15.4,1.1 21.5,-11.1 z"
   id="path30" />
			<g
   id="g38">
				<path
   class="st8"
   d="m 79.6,67.8 c 0,-7.3 -11.7,-7.8 -12.5,-0.5 -0.4,3.5 2.3,6.4 5.8,7.2 0,0 1.2,0.1 1.4,1.7 v 2.9"
   id="path32" />
				<path
   class="st9"
   d="m 29.4,99.9 c 0,-3.9 3.8,-3.5 3.8,-3.5 4.5,0 9.2,-0.1 13.7,-0.9 4.7,-0.8 9.9,-1.7 13.9,-4.6 3.7,-2.7 5.4,-7.7 9.6,-9.7 1.3,-0.6 2.8,-1 4.2,-1 5.7,0.4 7.6,4.4 11,8.2 4,4.5 11,6.1 16.7,7 4.5,0.8 9.2,0.9 13.7,0.9 0,0 3.8,-0.4 3.8,3.5 0,0 0.5,3 -3.5,3 H 74.6 32.8 c -3.9,0.1 -3.4,-2.9 -3.4,-2.9 z"
   id="path34" />
				<path
   class="st10"
   d="m 33.2,96.4 c 4.5,0 9.2,-0.1 13.7,-0.9 4.7,-0.8 9.9,-1.7 13.9,-4.6 3.7,-2.7 5.4,-7.7 9.6,-9.7 1.3,-0.6 2.8,-1 4.2,-1 5.7,0.4 7.6,4.4 11,8.2 4,4.5 11,6.1 16.7,7 4.5,0.8 9.2,0.9 13.7,0.9"
   id="path36" />
			</g>
			<path
   class="st11"
   d="m 24,104 c 3,-6.7 7,-8.2 7,-8.2 L 54.3,85.5 c 2.2,6.8 10.4,11.9 20.3,11.9 9.5,0 17.6,-4.7 20.1,-11.2 l 23.5,9.7 c 0,0 4,1.5 7,8.2 l 14,30.5 -24.6,12.1 -5.6,-11.8 v 76.7 H 74.6 40.3 V 134.9 L 34.7,146.7 10,134.5 Z"
   id="path40" />
			<path
   class="st12"
   d="m 20.4,134.7 c -3.2,-1.4 -6.5,-3.3 -7.2,-7 0,-0.1 0,-0.1 0,-0.2 l -3.2,6.9 24.6,12.1 5.6,-11.2 c 0.1,0 -4.6,6.4 -19.8,-0.6 z"
   id="path42" />
			<path
   class="st12"
   d="m 44,205.2 c 6.8,0.7 13.4,1.2 20.2,1 7.6,-0.2 15.2,0.5 22.8,0.1 4.9,-0.2 13.1,-0.5 15.6,-5.7 2,-4.4 1.5,-9.9 1.4,-14.6 -0.1,-6 0.6,-11.8 0.7,-17.8 0.1,-5.8 -0.3,-11.5 0.2,-17.3 0.4,-5.4 1.4,-10.7 3.3,-15.7 0.1,0 0.2,0 0.3,0 0.2,0.5 0.3,1 0.4,1.5 v 74.7 H 40.3 v -6.7 c 1.2,0.3 2.5,0.4 3.7,0.5 z"
   id="path44" />
			<path
   class="st12"
   d="m 54.3,85.4 c 2.2,6.8 10.4,11.9 20.3,11.9 9.5,0 17.6,-4.7 20.1,-11.2 l 23.5,9.7 c 0,0 4,1.5 7,8.2 l 14,30.5 -24.6,12.1 -5,-10.6 c -0.1,-0.3 -0.2,-0.6 -0.3,-1 1.1,0 2.9,1.7 3.4,2.2 0.6,0.7 1.2,1.5 2,1.9 1.8,1.1 4.2,0.5 5.9,-0.5 1.7,-0.9 3.1,-2.1 4.7,-3.1 1.3,-0.9 2.6,-1.6 3.9,-2.6 1.4,-1 2.5,-2.3 2.4,-4.1 -0.3,-4.7 -3.2,-8.7 -5.2,-12.7 -2,-4.1 -3.7,-8.4 -6.4,-12.1 -2.4,-3.3 -5.5,-5.4 -9.3,-6.7 -3.9,-1.4 -8.7,-2.7 -12.8,-2.2 -3.7,0.5 -6.4,3.2 -9.3,5.4 -4.3,3.2 -9.7,4.8 -15.1,4.1 -5.3,-0.7 -11,-2.8 -15,-6.5 -2,-1.9 -4.2,-4.3 -5.1,-6.9 -0.5,-1.6 -0.7,-3.2 -1.1,-4.8 z"
   id="path46" />
			<path
   class="st9"
   d="m 24,104 c 3,-6.7 7,-8.2 7,-8.2 L 54.3,85.5 c 2.2,6.8 10.4,11.9 20.3,11.9 9.5,0 17.6,-4.7 20.1,-11.2 l 23.5,9.7 c 0,0 4,1.5 7,8.2 l 14,30.5 -24.6,12.1 -5.6,-11.8 v 76.7 H 74.6 40.3 V 134.9 L 34.7,146.7 10,134.5 Z"
   id="path48" />
			<g
   id="g52">
				<rect
   x="45.900002"
   y="139.5"
   class="st13"
   width="2.3"
   height="59.900002"
   id="rect50" />
			</g>
			<g
   id="g56">
				<path
   class="st13"
   d="m 18.7,128 10.1,-20.7 c 3.1,-5.6 7,-6.7 7.2,-6.8 l -0.6,-2.2 c -0.2,0.1 -5.1,1.3 -8.7,7.9 L 16.6,127 Z"
   id="path54" />
			</g>
		</g><g
   id="g88"
   transform="matrix(0.66943639,0,0,0.39943497,26.728166,-17.351431)">
			<path
   class="st14"
   d="m 123.5,86.1 c 0,0 -18.9,-5.2 -40.4,-0.7 0,0 2.4,10.2 18.9,11.8 0,0 15.4,1.1 21.5,-11.1 z"
   id="path60" />
			<g
   id="g68">
				<path
   class="st8"
   d="m 108.3,67.8 c 0,-7.3 -11.7,-7.8 -12.5,-0.5 -0.4,3.5 2.3,6.4 5.8,7.2 0,0 1.2,0.1 1.4,1.7 v 2.9"
   id="path62" />
				<path
   class="st9"
   d="m 58.1,99.9 c 0,-3.9 3.8,-3.5 3.8,-3.5 4.5,0 9.2,-0.1 13.7,-0.9 4.7,-0.8 9.9,-1.7 13.9,-4.6 3.7,-2.7 5.4,-7.7 9.6,-9.7 1.3,-0.6 2.8,-1 4.2,-1 5.7,0.4 7.6,4.4 11,8.2 4,4.5 11,6.1 16.7,7 4.5,0.8 9.2,0.9 13.7,0.9 0,0 3.8,-0.4 3.8,3.5 0,0 0.5,3 -3.5,3 H 103.2 61.6 c -4,0.1 -3.5,-2.9 -3.5,-2.9 z"
   id="path64" />
				<path
   class="st10"
   d="m 61.9,96.4 c 4.5,0 9.2,-0.1 13.7,-0.9 4.7,-0.8 9.9,-1.7 13.9,-4.6 3.7,-2.7 5.4,-7.7 9.6,-9.7 1.3,-0.6 2.8,-1 4.2,-1 5.7,0.4 7.6,4.4 11,8.2 4,4.5 11,6.1 16.7,7 4.5,0.8 9.2,0.9 13.7,0.9"
   id="path66" />
			</g>
			<path
   class="st15"
   d="m 52.7,104 c 3,-6.7 7,-8.2 7,-8.2 L 83,85.4 c 2.2,6.8 10.4,11.9 20.3,11.9 9.5,0 17.6,-4.7 20.1,-11.2 l 23.5,9.7 c 0,0 4,1.5 7,8.2 l 14,30.5 -24.6,12.1 -5.6,-11.8 v 76.7 H 103.4 69 v -76.7 l -5.6,11.8 -24.6,-12.1 z"
   id="path70" />
			<path
   class="st12"
   d="m 49.1,134.7 c -3.2,-1.4 -6.5,-3.3 -7.2,-7 0,-0.1 0,-0.1 0,-0.2 l -3.2,6.9 24.6,12.1 5.6,-11.2 c 0.1,0 -4.6,6.4 -19.8,-0.6 z"
   id="path72" />
			<path
   class="st12"
   d="m 72.7,205.2 c 6.8,0.7 13.4,1.2 20.2,1 7.6,-0.2 15.2,0.5 22.9,0.1 4.9,-0.2 13.1,-0.5 15.6,-5.7 2,-4.4 1.5,-9.9 1.4,-14.6 -0.1,-6 0.6,-11.8 0.7,-17.8 0.1,-5.8 -0.3,-11.5 0.2,-17.3 0.4,-5.4 1.4,-10.7 3.3,-15.7 0.1,0 0.2,0 0.3,0 0.2,0.5 0.3,1 0.4,1.5 v 74.7 H 69 v -6.7 c 1.2,0.3 2.5,0.4 3.7,0.5 z"
   id="path74" />
			<path
   class="st12"
   d="m 83,85.4 c 2.2,6.8 10.4,11.9 20.3,11.9 9.5,0 17.6,-4.7 20.1,-11.2 l 23.5,9.7 c 0,0 4,1.5 7,8.2 l 14,30.5 -24.6,12.1 -5,-10.6 c -0.1,-0.3 -0.2,-0.6 -0.3,-1 1.1,0 2.9,1.7 3.4,2.2 0.6,0.7 1.2,1.5 2,1.9 1.8,1.1 4.2,0.5 5.9,-0.5 1.7,-0.9 3.1,-2.1 4.7,-3.1 1.3,-0.9 2.6,-1.6 3.9,-2.6 1.4,-1 2.5,-2.3 2.4,-4.1 -0.3,-4.7 -3.2,-8.7 -5.2,-12.7 -2,-4.1 -3.7,-8.4 -6.4,-12.1 -2.4,-3.3 -5.5,-5.4 -9.3,-6.7 -3.9,-1.4 -8.7,-2.7 -12.8,-2.2 -3.7,0.5 -6.4,3.2 -9.3,5.4 -4.3,3.2 -9.7,4.8 -15.1,4.1 -5.3,-0.7 -11,-2.8 -15,-6.5 C 85.2,96.2 83,93.8 82.1,91.2 81.6,89.6 81.4,88 81,86.4 Z"
   id="path76" />
			<path
   class="st9"
   d="m 52.7,104 c 3,-6.7 7,-8.2 7,-8.2 L 83,85.4 c 2.2,6.8 10.4,11.9 20.3,11.9 9.5,0 17.6,-4.7 20.1,-11.2 l 23.5,9.7 c 0,0 4,1.5 7,8.2 l 14,30.5 -24.6,12.1 -5.6,-11.8 v 76.7 H 103.4 69 v -76.7 l -5.6,11.8 -24.6,-12.1 z"
   id="path78" />
			<g
   id="g82">
				<rect
   x="74.599998"
   y="139.5"
   class="st13"
   width="2.3"
   height="59.900002"
   id="rect80" />
			</g>
			<g
   id="g86">
				<path
   class="st13"
   d="m 47.4,128 10.1,-20.7 c 3.1,-5.6 7,-6.7 7.2,-6.8 l -0.6,-2.2 c -0.2,0.1 -5.1,1.3 -8.7,7.9 l -10,20.8 z"
   id="path84" />
			</g>
		</g><g
   id="g124"
   transform="matrix(0.56690235,0,0,0.39943497,56.051277,-1.3718475)">
			<path
   class="st16"
   d="m 215.6,375.3 c -1.1,1 -2.7,0.9 -3.7,-0.2 L 91.3,241.8 c -1,-1.1 -0.9,-2.7 0.2,-3.7 v 0 c 1.1,-1 2.7,-0.9 3.7,0.2 l 120.6,133.3 c 0.9,1 0.8,2.7 -0.2,3.7 z"
   id="path90" />
			<path
   class="st17"
   d="m 212.4,367.8 3.4,3.7 c 1,1.1 0.9,2.7 -0.2,3.7 -1.1,1 -2.7,0.9 -3.7,-0.2 l -3.4,-3.8 z"
   id="path92" />
			<path
   class="st9"
   d="m 215.6,375.3 c -1.1,1 -2.7,0.9 -3.7,-0.2 L 91.3,241.8 c -1,-1.1 -0.9,-2.7 0.2,-3.7 v 0 c 1.1,-1 2.7,-0.9 3.7,0.2 l 120.6,133.3 c 0.9,1 0.8,2.7 -0.2,3.7 z"
   id="path94" />
			<path
   class="st18"
   d="m 28.6,228.1 c 0,2.6 2.1,4.8 4.8,4.8 H 276 c 2.6,0 29.7,-2.1 29.7,-4.8 v 0 c 0,-2.6 -27.1,-4.8 -29.7,-4.8 H 33.4 c -2.6,0 -4.8,2.2 -4.8,4.8 z"
   id="path96" />
			<rect
   x="43.400002"
   y="232.89999"
   class="st12"
   width="222.5"
   height="4.5"
   id="rect98" />
			<path
   class="st12"
   d="m 91.5,375.3 c 1.1,1 2.7,0.9 3.7,-0.2 L 215.8,241.8 c 1,-1.1 0.9,-2.7 -0.2,-3.7 v 0 c -1.1,-1 -2.7,-0.9 -3.7,0.2 L 91.3,371.6 c -1,1 -0.9,2.7 0.2,3.7 z"
   id="path100" />
			<path
   class="st17"
   d="m 94.6,367.8 -3.4,3.7 c -1,1.1 -0.9,2.7 0.2,3.7 1.1,1 2.7,0.9 3.7,-0.2 l 3.4,-3.8 z"
   id="path102" />
			<path
   class="st19"
   d="m 152.1,307 c 0,0.8 0.6,1.4 1.4,1.4 0.8,0 1.4,-0.6 1.4,-1.4 0,-0.8 -0.6,-1.4 -1.4,-1.4 -0.8,0.1 -1.4,0.7 -1.4,1.4 z"
   id="path104" />
			<path
   class="st9"
   d="m 91.5,375.3 c 1.1,1 2.7,0.9 3.7,-0.2 L 215.8,241.8 c 1,-1.1 0.9,-2.7 -0.2,-3.7 v 0 c -1.1,-1 -2.7,-0.9 -3.7,0.2 L 91.3,371.6 c -1,1 -0.9,2.7 0.2,3.7 z"
   id="path106" />
			<rect
   x="204.5"
   y="237.39999"
   class="st20"
   width="16.299999"
   height="6"
   id="rect108" />
			<rect
   x="87"
   y="237.39999"
   class="st20"
   width="16.299999"
   height="6"
   id="rect110" />
			<g
   id="g116">
				<path
   class="st12"
   d="m 215,240.3 c 0,0.6 0.5,1 1,1 0.6,0 1,-0.5 1,-1 0,-0.6 -0.5,-1 -1,-1 -0.6,-0.1 -1,0.4 -1,1 z"
   id="path112" />
				<path
   class="st12"
   d="m 208.4,240.3 c 0,0.6 0.5,1 1,1 0.6,0 1,-0.5 1,-1 0,-0.6 -0.5,-1 -1,-1 -0.6,-0.1 -1,0.4 -1,1 z"
   id="path114" />
			</g>
			<g
   id="g122">
				<path
   class="st12"
   d="m 97.5,240.4 c 0,0.6 0.5,1 1,1 0.6,0 1,-0.5 1,-1 0,-0.5 -0.5,-1 -1,-1 -0.6,0 -1,0.4 -1,1 z"
   id="path118" />
				<path
   class="st12"
   d="m 90.8,240.4 c 0,0.6 0.5,1 1,1 0.6,0 1,-0.5 1,-1 0,-0.5 -0.5,-1 -1,-1 -0.5,0 -1,0.4 -1,1 z"
   id="path120" />
			</g>
		</g><g
   id="g156"
   transform="matrix(0.59011952,0,0,0.3726138,53.735717,4.7765805)">
			<g
   id="g134">
				<path
   class="st21"
   d="m 217,183.5 c 0,3.1 2.2,5.5 4.8,5.5 h 54.7 c 2.7,0 4.8,-2.5 4.8,-5.5 v 0 c 0,-3.1 -2.2,-5.5 -4.8,-5.5 h -54.7 c -2.6,-0.1 -4.8,2.4 -4.8,5.5 z"
   id="path126" />
				<path
   class="st21"
   d="m 220.4,178.2 c -0.2,0.6 -0.4,1.4 -0.4,2.1 0,3.1 2.2,5.5 4.8,5.5 h 54.7 c 0.5,0 1,-0.1 1.5,-0.3 -0.7,2 -2.4,3.4 -4.5,3.4 h -54.7 c -2.7,0 -4.8,-2.5 -4.8,-5.5 0,-2.4 1.4,-4.5 3.4,-5.2 z"
   id="path128" />
				<path
   class="st9"
   d="m 217,183.5 c 0,3.1 2.2,5.5 4.8,5.5 h 54.7 c 2.7,0 4.8,-2.5 4.8,-5.5 v 0 c 0,-3.1 -2.2,-5.5 -4.8,-5.5 h -54.7 c -2.6,-0.1 -4.8,2.4 -4.8,5.5 z"
   id="path130" />
				<line
   class="st12"
   x1="281.39999"
   y1="183.5"
   x2="228.60001"
   y2="183.5"
   id="line132" />
			</g>
			<g
   id="g144">
				<path
   class="st22"
   d="m 217,172.4 c 0,3.1 2.2,5.5 4.8,5.5 h 54.7 c 2.7,0 4.8,-2.5 4.8,-5.5 v 0 c 0,-3.1 -2.2,-5.5 -4.8,-5.5 h -54.7 c -2.6,0 -4.8,2.4 -4.8,5.5 z"
   id="path136" />
				<path
   class="st12"
   d="m 220.4,167.1 c -0.2,0.6 -0.4,1.4 -0.4,2.1 0,3.1 2.2,5.5 4.8,5.5 h 54.7 c 0.5,0 1,-0.1 1.5,-0.3 -0.7,2 -2.4,3.4 -4.5,3.4 h -54.7 c -2.7,0 -4.8,-2.5 -4.8,-5.5 0,-2.4 1.4,-4.5 3.4,-5.2 z"
   id="path138" />
				<path
   class="st9"
   d="m 217,172.4 c 0,3.1 2.2,5.5 4.8,5.5 h 54.7 c 2.7,0 4.8,-2.5 4.8,-5.5 v 0 c 0,-3.1 -2.2,-5.5 -4.8,-5.5 h -54.7 c -2.6,0 -4.8,2.4 -4.8,5.5 z"
   id="path140" />
				<line
   class="st12"
   x1="281.39999"
   y1="172.39999"
   x2="228.60001"
   y2="172.39999"
   id="line142" />
			</g>
			<g
   id="g154">
				<path
   class="st23"
   d="m 217,161.3 c 0,3.1 2.2,5.5 4.8,5.5 h 54.7 c 2.7,0 4.8,-2.5 4.8,-5.5 v 0 c 0,-3.1 -2.2,-5.5 -4.8,-5.5 h -54.7 c -2.6,0 -4.8,2.5 -4.8,5.5 z"
   id="path146" />
				<path
   class="st12"
   d="m 220.4,156 c -0.2,0.6 -0.4,1.4 -0.4,2.1 0,3.1 2.2,5.5 4.8,5.5 h 54.7 c 0.5,0 1,-0.1 1.5,-0.3 -0.7,2 -2.4,3.4 -4.5,3.4 h -54.7 c -2.7,0 -4.8,-2.5 -4.8,-5.5 0,-2.4 1.4,-4.5 3.4,-5.2 z"
   id="path148" />
				<path
   class="st9"
   d="m 217,161.3 c 0,3.1 2.2,5.5 4.8,5.5 h 54.7 c 2.7,0 4.8,-2.5 4.8,-5.5 v 0 c 0,-3.1 -2.2,-5.5 -4.8,-5.5 h -54.7 c -2.6,0 -4.8,2.5 -4.8,5.5 z"
   id="path150" />
				<line
   class="st12"
   x1="281.39999"
   y1="161.3"
   x2="228.60001"
   y2="161.3"
   id="line152" />
			</g>
		</g><g
   id="g188"
   transform="matrix(0.63555681,0,0,0.39943497,42.468358,-0.7327581)">
			<g
   id="g166">
				<path
   class="st24"
   d="m 217,217.8 c 0,3.1 2.2,5.5 4.8,5.5 h 54.7 c 2.7,0 4.8,-2.5 4.8,-5.5 v 0 c 0,-3.1 -2.2,-5.5 -4.8,-5.5 h -54.7 c -2.6,0 -4.8,2.5 -4.8,5.5 z"
   id="path158" />
				<path
   class="st21"
   d="m 220.4,212.5 c -0.2,0.6 -0.4,1.4 -0.4,2.1 0,3.1 2.2,5.5 4.8,5.5 h 54.7 c 0.5,0 1,-0.1 1.5,-0.3 -0.7,2 -2.4,3.4 -4.5,3.4 h -54.7 c -2.7,0 -4.8,-2.5 -4.8,-5.5 0,-2.4 1.4,-4.5 3.4,-5.2 z"
   id="path160" />
				<path
   class="st9"
   d="m 217,217.8 c 0,3.1 2.2,5.5 4.8,5.5 h 54.7 c 2.7,0 4.8,-2.5 4.8,-5.5 v 0 c 0,-3.1 -2.2,-5.5 -4.8,-5.5 h -54.7 c -2.6,0 -4.8,2.5 -4.8,5.5 z"
   id="path162" />
				<line
   class="st12"
   x1="281.39999"
   y1="217.8"
   x2="228.60001"
   y2="217.8"
   id="line164" />
			</g>
			<g
   id="g176">
				<path
   class="st25"
   d="m 217,206.7 c 0,3.1 2.2,5.5 4.8,5.5 h 54.7 c 2.7,0 4.8,-2.5 4.8,-5.5 v 0 c 0,-3.1 -2.2,-5.5 -4.8,-5.5 h -54.7 c -2.6,0 -4.8,2.5 -4.8,5.5 z"
   id="path168" />
				<path
   class="st12"
   d="m 220.4,201.5 c -0.2,0.6 -0.4,1.4 -0.4,2.1 0,3.1 2.2,5.5 4.8,5.5 h 54.7 c 0.5,0 1,-0.1 1.5,-0.3 -0.7,2 -2.4,3.4 -4.5,3.4 h -54.7 c -2.7,0 -4.8,-2.5 -4.8,-5.5 0,-2.4 1.4,-4.5 3.4,-5.2 z"
   id="path170" />
				<path
   class="st9"
   d="m 217,206.7 c 0,3.1 2.2,5.5 4.8,5.5 h 54.7 c 2.7,0 4.8,-2.5 4.8,-5.5 v 0 c 0,-3.1 -2.2,-5.5 -4.8,-5.5 h -54.7 c -2.6,0 -4.8,2.5 -4.8,5.5 z"
   id="path172" />
				<line
   class="st12"
   x1="281.39999"
   y1="206.7"
   x2="228.60001"
   y2="206.7"
   id="line174" />
			</g>
			<g
   id="g186">
				<path
   class="st26"
   d="m 217,195.7 c 0,3.1 2.2,5.5 4.8,5.5 h 54.7 c 2.7,0 4.8,-2.5 4.8,-5.5 v 0 c 0,-3.1 -2.2,-5.5 -4.8,-5.5 h -54.7 c -2.6,-0.1 -4.8,2.4 -4.8,5.5 z"
   id="path178" />
				<path
   class="st12"
   d="m 220.4,190.4 c -0.2,0.6 -0.4,1.4 -0.4,2.1 0,3.1 2.2,5.5 4.8,5.5 h 54.7 c 0.5,0 1,-0.1 1.5,-0.3 -0.7,2 -2.4,3.4 -4.5,3.4 h -54.7 c -2.7,0 -4.8,-2.5 -4.8,-5.5 0,-2.4 1.4,-4.5 3.4,-5.2 z"
   id="path180" />
				<path
   class="st9"
   d="m 217,195.7 c 0,3.1 2.2,5.5 4.8,5.5 h 54.7 c 2.7,0 4.8,-2.5 4.8,-5.5 v 0 c 0,-3.1 -2.2,-5.5 -4.8,-5.5 h -54.7 c -2.6,-0.1 -4.8,2.4 -4.8,5.5 z"
   id="path182" />
				<line
   class="st12"
   x1="281.39999"
   y1="195.7"
   x2="228.60001"
   y2="195.7"
   id="line184" />
			</g>
		</g><g
   id="g218"
   transform="matrix(0.55098023,0,0,0.39943497,31.520097,-17.351431)">
			<path
   class="st27"
   d="m 150.9,86.1 c 0,0 -18.9,-5.2 -40.4,-0.7 0,0 2.4,10.2 18.9,11.8 0,0 15.3,1.1 21.5,-11.1 z"
   id="path190" />
			<g
   id="g198">
				<path
   class="st8"
   d="m 135.7,67.8 c 0,-7.3 -11.7,-7.8 -12.5,-0.5 -0.4,3.5 2.3,6.4 5.8,7.2 0,0 1.2,0.1 1.4,1.7 v 2.9"
   id="path192" />
				<path
   class="st9"
   d="m 85.5,99.9 c 0,-3.9 3.8,-3.5 3.8,-3.5 4.5,0 9.2,-0.1 13.7,-0.9 4.7,-0.8 9.9,-1.7 13.9,-4.6 3.7,-2.7 5.4,-7.7 9.6,-9.7 1.3,-0.6 2.8,-1 4.2,-1 5.7,0.4 7.6,4.4 11,8.2 4,4.5 11,6.1 16.7,7 4.5,0.8 9.2,0.9 13.7,0.9 0,0 3.8,-0.4 3.8,3.5 0,0 0.5,3 -3.5,3 H 130.6 88.9 c -3.9,0.1 -3.4,-2.9 -3.4,-2.9 z"
   id="path194" />
				<path
   class="st10"
   d="m 89.2,96.4 c 4.5,0 9.2,-0.1 13.7,-0.9 4.7,-0.8 9.9,-1.7 13.9,-4.6 3.7,-2.7 5.4,-7.7 9.6,-9.7 1.3,-0.6 2.8,-1 4.2,-1 5.7,0.4 7.6,4.4 11,8.2 4,4.5 11,6.1 16.7,7 4.5,0.8 9.2,0.9 13.7,0.9"
   id="path196" />
			</g>
			<path
   class="st28"
   d="m 80.1,104 c 3,-6.7 7,-8.2 7,-8.2 l 23.3,-10.3 c 2.2,6.8 10.4,11.9 20.3,11.9 9.5,0 17.6,-4.7 20.1,-11.2 l 23.5,9.7 c 0,0 4,1.5 7,8.2 l 14,30.5 -24.6,12.1 -5.6,-11.8 v 76.7 H 130.8 96.4 v -76.7 l -5.6,11.8 -24.6,-12.1 z"
   id="path200" />
			<path
   class="st12"
   d="m 76.5,134.7 c -3.2,-1.4 -6.5,-3.3 -7.2,-7 0,-0.1 0,-0.1 0,-0.2 l -3.2,6.9 24.6,12.1 5.6,-11.2 c 0.1,0 -4.6,6.4 -19.8,-0.6 z"
   id="path202" />
			<path
   class="st12"
   d="m 100.1,205.2 c 6.8,0.7 13.4,1.2 20.2,1 7.6,-0.2 15.2,0.5 22.9,0.1 4.9,-0.2 13.1,-0.5 15.6,-5.7 2,-4.4 1.5,-9.9 1.3,-14.6 -0.1,-6 0.6,-11.8 0.7,-17.8 0.1,-5.8 -0.3,-11.5 0.2,-17.3 0.4,-5.4 1.4,-10.7 3.3,-15.7 0.1,0 0.2,0 0.3,0 0.2,0.5 0.3,1 0.4,1.5 v 74.7 H 96.4 v -6.7 c 1.2,0.3 2.4,0.4 3.7,0.5 z"
   id="path204" />
			<path
   class="st12"
   d="m 110.4,85.4 c 2.2,6.8 10.4,11.9 20.3,11.9 9.5,0 17.6,-4.7 20.1,-11.2 l 23.5,9.7 c 0,0 4,1.5 7,8.2 l 14,30.5 -24.6,12.1 -5,-10.6 c -0.1,-0.3 -0.2,-0.6 -0.3,-1 1.1,0 2.9,1.7 3.4,2.2 0.6,0.7 1.2,1.5 2,1.9 1.8,1.1 4.2,0.5 5.9,-0.5 1.7,-0.9 3.1,-2.1 4.7,-3.1 1.3,-0.9 2.6,-1.6 3.9,-2.6 1.4,-1 2.5,-2.3 2.4,-4.1 -0.3,-4.7 -3.2,-8.7 -5.2,-12.7 -2,-4.1 -3.7,-8.4 -6.4,-12.1 -2.4,-3.3 -5.5,-5.4 -9.3,-6.7 -3.9,-1.4 -8.7,-2.7 -12.8,-2.2 -3.7,0.5 -6.4,3.2 -9.3,5.4 -4.3,3.2 -9.7,4.8 -15.1,4.1 -5.3,-0.7 -11,-2.8 -15,-6.5 -2,-1.9 -4.2,-4.3 -5.1,-6.9 -0.5,-1.6 -0.7,-3.2 -1.1,-4.8 z"
   id="path206" />
			<path
   class="st9"
   d="m 80.1,104 c 3,-6.7 7,-8.2 7,-8.2 l 23.3,-10.3 c 2.2,6.8 10.4,11.9 20.3,11.9 9.5,0 17.6,-4.7 20.1,-11.2 l 23.5,9.7 c 0,0 4,1.5 7,8.2 l 14,30.5 -24.6,12.1 -5.6,-11.8 v 76.7 H 130.8 96.4 v -76.7 l -5.6,11.8 -24.6,-12.1 z"
   id="path208" />
			<g
   id="g212">
				<rect
   x="101.9"
   y="139.5"
   class="st13"
   width="2.3"
   height="59.900002"
   id="rect210" />
			</g>
			<g
   id="g216">
				<path
   class="st13"
   d="m 74.8,128 10.1,-20.7 c 3.1,-5.6 7,-6.7 7.2,-6.8 l -0.6,-2.2 c -0.2,0.1 -5.1,1.3 -8.7,7.9 L 72.7,127 Z"
   id="path214" />
			</g>
		</g><g
   id="g252"
   transform="matrix(0.51246689,0,0,0.39943497,-88.30195,-5.2988086)">
			<path
   class="st29"
   d="m 252.4,310.9 c 0.3,3.4 3.1,8.1 0,10.8 -2.6,2.2 -8.8,2 -10.8,-0.9 -1.3,-1.8 -1.4,-3.6 -2,-5.7 -0.5,-1.7 -1.5,-3.1 -2,-4.8 -0.5,-1.8 -1.7,-3.3 -3.4,-4.1 -1.6,-0.7 -3.3,-0.3 -5.1,-0.2 -2.7,0.1 -3.4,1.2 -4.7,3.7 -0.8,1.5 -1.3,4.8 -2.8,5.8 -1,0.7 -4.7,0.7 -5.8,0.6 -1.9,-0.3 -4.1,-1 -5.7,-2.1 -0.6,-0.4 -1.1,-1.1 -1.7,-1.5 -0.6,-0.4 -1.4,-0.9 -2,-1.3 -1.3,-1 -1,-2.6 -1.1,-4.3 -0.1,-1.6 -0.5,-3.4 -0.2,-4.9 0.5,-2.7 1.7,-5.4 1.8,-8.2 0,-2.2 0.4,-4.4 0.3,-6.6 -0.1,-1.7 -0.4,-3.4 -0.4,-5.1 -0.1,-4.9 5.2,-6.7 9.5,-6.5 2.2,0.1 3.3,1 4.1,3.2 0.7,2 1.3,3.9 3.2,5.2 1.2,0.8 3.6,0.7 5,0.6 1,-0.1 2.1,-0.1 3.1,-0.2 1.6,-0.2 1.9,-0.8 3.2,-1.7 1.5,-1.1 3.3,-1.7 4.7,-3 1.9,-1.7 2.3,-1.8 4.8,-2 2.1,-0.2 3.2,0.3 5,1.3 2.4,1.2 2.8,2.5 4.2,4.6 1.2,1.9 2.1,2.5 2.2,4.8 0.1,1.5 0.6,3.5 0.2,4.9 -0.2,0.8 -1.2,1.7 -1.5,2.6 -0.5,1 -0.6,2.1 -1,3.2 -0.6,2 -1.5,4 -1.4,6.1 0,2.7 0.4,5.5 0.6,8.2"
   id="path220" />
			<path
   class="st28"
   d="m 264.6,358.5 c 0.3,3.4 3.1,8.1 0,10.8 -2.6,2.2 -8.8,2 -10.8,-0.9 -1.3,-1.8 -1.4,-3.6 -2,-5.7 -0.5,-1.7 -1.5,-3.1 -2,-4.8 -0.5,-1.8 -1.7,-3.3 -3.4,-4.1 -1.6,-0.7 -3.3,-0.3 -5.1,-0.2 -2.7,0.1 -3.4,1.2 -4.7,3.7 -0.8,1.5 -1.3,4.8 -2.8,5.8 -1,0.7 -4.7,0.7 -5.8,0.6 -1.9,-0.3 -4.1,-1 -5.7,-2.1 -0.6,-0.4 -1.1,-1.1 -1.7,-1.5 -0.6,-0.4 -1.4,-0.9 -2,-1.3 -1.3,-1 -1,-2.6 -1.1,-4.3 -0.1,-1.6 -0.5,-3.4 -0.2,-4.9 0.5,-2.7 1.7,-5.4 1.8,-8.2 0,-2.2 0.4,-4.4 0.3,-6.6 -0.1,-1.7 -0.4,-3.4 -0.4,-5.1 -0.1,-4.9 5.2,-6.7 9.5,-6.5 2.2,0.1 3.3,1 4.1,3.2 0.7,2 1.3,3.9 3.2,5.2 1.2,0.8 3.6,0.7 5,0.6 1,-0.1 2.1,-0.1 3.1,-0.2 1.6,-0.2 1.9,-0.8 3.2,-1.7 1.5,-1.1 3.3,-1.7 4.7,-3 1.9,-1.7 2.3,-1.8 4.8,-2 2.1,-0.2 3.2,0.3 5,1.3 2.4,1.2 2.8,2.5 4.2,4.6 1.2,1.9 2.1,2.5 2.2,4.8 0.1,1.5 0.6,3.5 0.2,4.9 -0.2,0.8 -1.2,1.7 -1.5,2.6 -0.5,1 -0.6,2.1 -1,3.2 -0.6,2 -1.5,4 -1.4,6.1 0,2.7 0.4,5.5 0.6,8.2"
   id="path222" />
			<path
   class="st26"
   d="m 241.3,296.1 c -2.5,-2.3 -7.7,-4 -7.1,-8.1 0.5,-3.4 5.3,-7.3 8.7,-6.5 2.2,0.5 3.4,1.8 5.3,2.9 1.5,0.9 3.2,1.3 4.7,2.2 1.6,1 3.5,1.4 5.3,0.8 1.7,-0.6 2.6,-1.9 4,-3.3 1.9,-1.9 1.8,-3.2 1.1,-5.9 -0.4,-1.7 -2.2,-4.5 -1.8,-6.2 0.3,-1.1 3.1,-3.7 4,-4.3 1.6,-1.1 3.7,-2 5.7,-2.2 0.7,-0.1 1.5,0 2.3,0 0.7,-0.1 1.7,-0.3 2.3,-0.4 1.7,-0.1 2.5,1.3 3.6,2.5 1.1,1.1 2.6,2.2 3.4,3.6 1.4,2.4 2.3,5.1 4.1,7.3 1.4,1.7 2.6,3.6 4.1,5.2 1.2,1.2 2.5,2.3 3.7,3.6 3.3,3.6 0.5,8.5 -2.8,11.1 -1.8,1.4 -3.1,1.5 -5.2,0.3 -1.9,-1 -3.5,-2 -5.9,-1.8 -1.5,0.2 -3.2,1.9 -4.1,2.9 -0.7,0.8 -1.5,1.4 -2.2,2.2 -1.1,1.2 -0.9,1.8 -1.2,3.4 -0.4,1.8 -1.3,3.5 -1.6,5.4 -0.3,2.5 -0.5,2.9 -2.3,4.7 -1.5,1.5 -2.6,1.9 -4.6,2.4 -2.6,0.6 -3.7,0 -6.2,-0.7 -2.1,-0.6 -3.2,-0.5 -4.8,-2.1 -1.1,-1.1 -2.8,-2.2 -3.4,-3.6 -0.4,-0.8 -0.3,-2.1 -0.5,-2.9 -0.3,-1.1 -0.9,-2 -1.4,-3.1 -0.8,-1.9 -1.6,-4 -2.9,-5.5 -1.8,-2 -3.9,-3.8 -5.9,-5.7"
   id="path224" />
			<path
   class="st28"
   d="m 303.1,286.9 c 3.4,-0.1 8.3,-2.5 10.8,0.8 2,2.7 1.3,8.9 -1.7,10.7 -1.9,1.1 -3.7,1.1 -5.8,1.6 -1.7,0.4 -3.2,1.3 -4.9,1.6 -1.9,0.4 -3.5,1.4 -4.4,3.1 -0.8,1.6 -0.5,3.2 -0.6,5.1 -0.1,2.7 0.9,3.5 3.3,5 1.5,0.9 4.7,1.7 5.6,3.2 0.6,1 0.4,4.8 0.2,5.8 -0.4,1.9 -1.3,4.1 -2.5,5.5 -0.5,0.5 -1.1,1.1 -1.6,1.6 -0.5,0.5 -1,1.4 -1.4,1.9 -1.1,1.2 -2.7,0.8 -4.3,0.8 -1.6,0 -3.4,0.3 -4.9,-0.2 -2.7,-0.7 -5.2,-2.1 -8.1,-2.3 -2.2,-0.2 -4.4,-0.7 -6.6,-0.8 -1.7,-0.1 -3.4,0.1 -5.1,0 -4.9,-0.2 -6.3,-5.7 -5.8,-9.9 0.3,-2.2 1.2,-3.2 3.5,-3.9 2.1,-0.6 3.9,-1 5.4,-2.8 0.9,-1.1 1,-3.5 1,-4.9 0,-1 0.1,-2.1 0,-3.1 -0.1,-1.6 -0.6,-1.9 -1.5,-3.3 -1,-1.6 -1.5,-3.4 -2.6,-4.9 -1.5,-2 -1.6,-2.4 -1.7,-4.9 0,-2.1 0.5,-3.1 1.6,-4.9 1.4,-2.3 2.7,-2.6 4.9,-3.9 1.9,-1.1 2.6,-1.9 4.9,-1.9 1.5,0 3.5,-0.4 4.9,0.1 0.8,0.3 1.6,1.3 2.4,1.7 1,0.5 2.1,0.8 3.1,1.2 1.9,0.8 3.9,1.8 5.9,1.9 2.7,0.1 5.5,0 8.2,0"
   id="path226" />
			<path
   class="st21"
   d="m 232.9,294.2 c 0.7,-3.3 -0.7,-8.6 3.1,-10.3 3.1,-1.4 9,0.6 10.1,3.9 0.7,2.1 0.3,3.9 0.3,6 0,1.8 0.6,3.4 0.6,5.1 0,1.9 0.6,3.7 2.1,4.9 1.4,1.1 3.1,1.2 4.9,1.7 2.6,0.6 3.6,-0.2 5.6,-2.2 1.2,-1.2 2.6,-4.3 4.3,-4.8 1.1,-0.4 4.7,0.6 5.7,1.1 1.8,0.8 3.7,2.1 4.9,3.6 0.4,0.6 0.8,1.3 1.2,1.9 0.4,0.6 1.1,1.2 1.5,1.8 1,1.4 0.2,2.8 -0.2,4.4 -0.3,1.6 -0.5,3.4 -1.2,4.8 -1.3,2.4 -3.1,4.7 -4,7.4 -0.7,2.1 -1.6,4.1 -2.2,6.3 -0.4,1.7 -0.6,3.4 -1.1,5 -1.3,4.7 -6.9,5 -10.9,3.5 -2.1,-0.8 -2.9,-1.9 -3.1,-4.2 -0.1,-2.1 -0.1,-4.1 -1.6,-5.9 -0.9,-1.1 -3.3,-1.7 -4.6,-2 -1,-0.2 -2,-0.5 -3.1,-0.7 -1.6,-0.3 -2,0.2 -3.5,0.8 -1.8,0.6 -3.7,0.7 -5.4,1.5 -2.3,1.1 -2.7,1.1 -5.2,0.6 -2.1,-0.4 -3,-1.2 -4.5,-2.7 -1.9,-1.9 -2,-3.2 -2.8,-5.6 -0.7,-2.1 -1.3,-3 -0.8,-5.2 0.4,-1.5 0.4,-3.5 1.2,-4.8 0.5,-0.7 1.6,-1.3 2.2,-2 0.7,-0.9 1.2,-1.9 1.9,-2.8 1.2,-1.7 2.5,-3.4 3.1,-5.4 0.7,-2.6 1.2,-5.4 1.7,-8"
   id="path228" />
			<path
   class="st30"
   d="m 249.8,345.1 c -2.5,-2.3 -7.7,-4 -7.1,-8.1 0.5,-3.4 5.3,-7.3 8.7,-6.5 2.2,0.5 3.4,1.8 5.3,2.9 1.5,0.9 3.2,1.3 4.7,2.2 1.6,1 3.5,1.4 5.3,0.8 1.7,-0.6 2.6,-1.9 4,-3.3 2,-1.9 1.8,-3.2 1.1,-5.9 -0.4,-1.7 -2.2,-4.5 -1.8,-6.2 0.3,-1.2 3.1,-3.7 4,-4.3 1.6,-1.1 3.7,-2 5.7,-2.2 0.7,-0.1 1.5,0 2.3,0 0.7,-0.1 1.7,-0.3 2.3,-0.4 1.7,-0.1 2.5,1.3 3.6,2.5 1.1,1.1 2.6,2.2 3.4,3.6 1.4,2.4 2.3,5.1 4.1,7.3 1.4,1.7 2.6,3.6 4.1,5.2 1.2,1.2 2.5,2.3 3.7,3.6 3.3,3.6 0.5,8.5 -2.8,11.1 -1.8,1.4 -3.1,1.5 -5.2,0.3 -1.9,-1 -3.5,-2 -5.9,-1.8 -1.5,0.2 -3.2,1.8 -4.1,2.9 -0.7,0.7 -1.5,1.4 -2.2,2.2 -1.1,1.2 -0.9,1.8 -1.2,3.4 -0.4,1.8 -1.3,3.5 -1.6,5.4 -0.3,2.5 -0.5,2.9 -2.3,4.7 -1.5,1.5 -2.6,1.9 -4.6,2.4 -2.6,0.6 -3.7,0 -6.2,-0.7 -2.1,-0.6 -3.2,-0.5 -4.8,-2.1 -1.1,-1.1 -2.8,-2.2 -3.4,-3.6 -0.4,-0.8 -0.3,-2.1 -0.5,-2.9 -0.3,-1.1 -0.9,-2 -1.4,-3.1 -0.8,-1.9 -1.6,-4 -2.9,-5.5 -1.8,-2 -3.9,-3.8 -5.9,-5.7"
   id="path230" />
			<g
   id="g250">
				<path
   class="st31"
   d="m 207.3,314.2 6.4,51.3 c 0,0 0.4,9.9 11.7,10.5 h 25.4 21.8 25.4 c 11.3,-0.5 11.7,-10.5 11.7,-10.5 l 6.5,-51.3 h -43.5 -21.8 z m 89.2,35.8 c 0,-1.6 1.3,-2.9 2.9,-2.9 1.6,0 2.9,1.3 2.9,2.9 v 16.1 c 0,1.6 -1.3,2.9 -2.9,2.9 -1.6,0 -2.9,-1.3 -2.9,-2.9 z m 0,-25.9 c 0,-1.6 1.3,-2.9 2.9,-2.9 1.6,0 2.9,1.3 2.9,2.9 v 16.1 c 0,1.6 -1.3,2.9 -2.9,2.9 -1.6,0 -2.9,-1.3 -2.9,-2.9 z M 283.9,350 c 0,-1.6 1.3,-2.9 2.9,-2.9 1.6,0 2.9,1.3 2.9,2.9 v 16.1 c 0,1.6 -1.3,2.9 -2.9,2.9 -1.6,0 -2.9,-1.3 -2.9,-2.9 z m 0,-25.9 c 0,-1.6 1.3,-2.9 2.9,-2.9 1.6,0 2.9,1.3 2.9,2.9 v 16.1 c 0,1.6 -1.3,2.9 -2.9,2.9 -1.6,0 -2.9,-1.3 -2.9,-2.9 z M 271.4,350 c 0,-1.6 1.3,-2.9 2.9,-2.9 1.6,0 2.9,1.3 2.9,2.9 v 16.1 c 0,1.6 -1.3,2.9 -2.9,2.9 -1.6,0 -2.9,-1.3 -2.9,-2.9 z m 0,-25.9 c 0,-1.6 1.3,-2.9 2.9,-2.9 1.6,0 2.9,1.3 2.9,2.9 v 16.1 c 0,1.6 -1.3,2.9 -2.9,2.9 -1.6,0 -2.9,-1.3 -2.9,-2.9 z M 258.8,350 c 0,-1.6 1.3,-2.9 2.9,-2.9 1.6,0 2.9,1.3 2.9,2.9 v 16.1 c 0,1.6 -1.3,2.9 -2.9,2.9 -1.6,0 -2.9,-1.3 -2.9,-2.9 z m 0,-25.9 c 0,-1.6 1.3,-2.9 2.9,-2.9 1.6,0 2.9,1.3 2.9,2.9 v 16.1 c 0,1.6 -1.3,2.9 -2.9,2.9 -1.6,0 -2.9,-1.3 -2.9,-2.9 z M 246.2,350 c 0,-1.6 1.3,-2.9 2.9,-2.9 1.6,0 2.9,1.3 2.9,2.9 v 16.1 c 0,1.6 -1.3,2.9 -2.9,2.9 -1.6,0 -2.9,-1.3 -2.9,-2.9 z m 0,-25.9 c 0,-1.6 1.3,-2.9 2.9,-2.9 1.6,0 2.9,1.3 2.9,2.9 v 16.1 c 0,1.6 -1.3,2.9 -2.9,2.9 -1.6,0 -2.9,-1.3 -2.9,-2.9 z M 233.7,350 c 0,-1.6 1.3,-2.9 2.9,-2.9 1.6,0 2.9,1.3 2.9,2.9 v 16.1 c 0,1.6 -1.3,2.9 -2.9,2.9 -1.6,0 -2.9,-1.3 -2.9,-2.9 z m 0,-25.9 c 0,-1.6 1.3,-2.9 2.9,-2.9 1.6,0 2.9,1.3 2.9,2.9 v 16.1 c 0,1.6 -1.3,2.9 -2.9,2.9 -1.6,0 -2.9,-1.3 -2.9,-2.9 z M 221.1,350 c 0,-1.6 1.3,-2.9 2.9,-2.9 1.6,0 2.9,1.3 2.9,2.9 v 16.1 c 0,1.6 -1.3,2.9 -2.9,2.9 -1.6,0 -2.9,-1.3 -2.9,-2.9 z m 0,-25.9 c 0,-1.6 1.3,-2.9 2.9,-2.9 1.6,0 2.9,1.3 2.9,2.9 v 16.1 c 0,1.6 -1.3,2.9 -2.9,2.9 -1.6,0 -2.9,-1.3 -2.9,-2.9 z"
   id="path232" />
				<path
   class="st32"
   d="m 203.1,312.8 c 0,0.8 0.6,1.4 1.4,1.4 H 319 c 0.8,0 1.4,-0.6 1.4,-1.4 v 0 c 0,-0.8 -0.6,-1.4 -1.4,-1.4 H 204.5 c -0.8,0 -1.4,0.6 -1.4,1.4 z"
   id="path234" />
				<path
   class="st33"
   d="m 202.1,307.7 c 0,2.1 1.7,3.7 3.7,3.7 h 111.8 c 2.1,0 3.7,-1.7 3.7,-3.7 v 0 c 0,-2.1 -1.7,-3.7 -3.7,-3.7 H 205.8 c -2,-0.1 -3.7,1.6 -3.7,3.7 z"
   id="path236" />
				<path
   class="st12"
   d="m 221.2,373.2 h 25.4 21.8 25.4 c 11.3,-0.5 11.7,-10.5 11.7,-10.5 l 6.1,-48.5 h 4.6 l -6.5,51.3 c 0,0 -0.4,9.9 -11.7,10.5 h -25.4 -21.8 -25.4 c -4.3,-0.2 -7,-1.8 -8.8,-3.7 1.4,0.5 2.8,0.8 4.6,0.9 z"
   id="path238" />
				<path
   class="st9"
   d="m 207.3,314.2 6.4,51.3 c 0,0 0.4,9.9 11.7,10.5 h 25.4 21.8 25.4 c 11.3,-0.5 11.7,-10.5 11.7,-10.5 l 6.5,-51.3 h -43.5 -21.8 z m 89.2,35.8 c 0,-1.6 1.3,-2.9 2.9,-2.9 1.6,0 2.9,1.3 2.9,2.9 v 16.1 c 0,1.6 -1.3,2.9 -2.9,2.9 -1.6,0 -2.9,-1.3 -2.9,-2.9 z m 0,-25.9 c 0,-1.6 1.3,-2.9 2.9,-2.9 1.6,0 2.9,1.3 2.9,2.9 v 16.1 c 0,1.6 -1.3,2.9 -2.9,2.9 -1.6,0 -2.9,-1.3 -2.9,-2.9 z M 283.9,350 c 0,-1.6 1.3,-2.9 2.9,-2.9 1.6,0 2.9,1.3 2.9,2.9 v 16.1 c 0,1.6 -1.3,2.9 -2.9,2.9 -1.6,0 -2.9,-1.3 -2.9,-2.9 z m 0,-25.9 c 0,-1.6 1.3,-2.9 2.9,-2.9 1.6,0 2.9,1.3 2.9,2.9 v 16.1 c 0,1.6 -1.3,2.9 -2.9,2.9 -1.6,0 -2.9,-1.3 -2.9,-2.9 z M 271.4,350 c 0,-1.6 1.3,-2.9 2.9,-2.9 1.6,0 2.9,1.3 2.9,2.9 v 16.1 c 0,1.6 -1.3,2.9 -2.9,2.9 -1.6,0 -2.9,-1.3 -2.9,-2.9 z m 0,-25.9 c 0,-1.6 1.3,-2.9 2.9,-2.9 1.6,0 2.9,1.3 2.9,2.9 v 16.1 c 0,1.6 -1.3,2.9 -2.9,2.9 -1.6,0 -2.9,-1.3 -2.9,-2.9 z M 258.8,350 c 0,-1.6 1.3,-2.9 2.9,-2.9 1.6,0 2.9,1.3 2.9,2.9 v 16.1 c 0,1.6 -1.3,2.9 -2.9,2.9 -1.6,0 -2.9,-1.3 -2.9,-2.9 z m 0,-25.9 c 0,-1.6 1.3,-2.9 2.9,-2.9 1.6,0 2.9,1.3 2.9,2.9 v 16.1 c 0,1.6 -1.3,2.9 -2.9,2.9 -1.6,0 -2.9,-1.3 -2.9,-2.9 z M 246.2,350 c 0,-1.6 1.3,-2.9 2.9,-2.9 1.6,0 2.9,1.3 2.9,2.9 v 16.1 c 0,1.6 -1.3,2.9 -2.9,2.9 -1.6,0 -2.9,-1.3 -2.9,-2.9 z m 0,-25.9 c 0,-1.6 1.3,-2.9 2.9,-2.9 1.6,0 2.9,1.3 2.9,2.9 v 16.1 c 0,1.6 -1.3,2.9 -2.9,2.9 -1.6,0 -2.9,-1.3 -2.9,-2.9 z M 233.7,350 c 0,-1.6 1.3,-2.9 2.9,-2.9 1.6,0 2.9,1.3 2.9,2.9 v 16.1 c 0,1.6 -1.3,2.9 -2.9,2.9 -1.6,0 -2.9,-1.3 -2.9,-2.9 z m 0,-25.9 c 0,-1.6 1.3,-2.9 2.9,-2.9 1.6,0 2.9,1.3 2.9,2.9 v 16.1 c 0,1.6 -1.3,2.9 -2.9,2.9 -1.6,0 -2.9,-1.3 -2.9,-2.9 z M 221.1,350 c 0,-1.6 1.3,-2.9 2.9,-2.9 1.6,0 2.9,1.3 2.9,2.9 v 16.1 c 0,1.6 -1.3,2.9 -2.9,2.9 -1.6,0 -2.9,-1.3 -2.9,-2.9 z m 0,-25.9 c 0,-1.6 1.3,-2.9 2.9,-2.9 1.6,0 2.9,1.3 2.9,2.9 v 16.1 c 0,1.6 -1.3,2.9 -2.9,2.9 -1.6,0 -2.9,-1.3 -2.9,-2.9 z"
   id="path240" />
				<path
   class="st9"
   d="m 203.1,312.8 c 0,0.8 0.6,1.4 1.4,1.4 H 319 c 0.8,0 1.4,-0.6 1.4,-1.4 v 0 c 0,-0.8 -0.6,-1.4 -1.4,-1.4 H 204.5 c -0.8,0 -1.4,0.6 -1.4,1.4 z"
   id="path242" />
				<path
   class="st9"
   d="m 202.1,307.7 c 0,2.1 1.7,3.7 3.7,3.7 h 111.8 c 2.1,0 3.7,-1.7 3.7,-3.7 v 0 c 0,-2.1 -1.7,-3.7 -3.7,-3.7 H 205.8 c -2,-0.1 -3.7,1.6 -3.7,3.7 z"
   id="path244" />
				<g
   id="g248">
					
						<rect
   x="214.3"
   y="320.5"
   transform="matrix(0.9939,-0.11,0.11,0.9939,-36.4792,25.7692)"
   class="st13"
   width="2.2"
   height="46.099998"
   id="rect246" />
				</g>
			</g>
		</g><g
   id="g274"
   transform="matrix(-0.1307513,-0.38254799,0.43526855,-0.11491444,9.6319559,135.15793)">
		<path
   class="st34"
   d="m 59.7,208.5 c 0,0 4.1,2.9 5,10.7 h 60 c -1.2,0 -4.5,-36.3 -56.7,-33.2 z m 10.1,-1.1 c 2.1,-6.8 4.3,-11.8 4.3,-11.8 22.2,-2.4 28.3,11.8 28.3,11.8 z"
   id="path256" />
		<rect
   x="64.5"
   y="219.39999"
   class="st35"
   width="60.099998"
   height="3.5"
   id="rect258" />
		<path
   class="st36"
   d="m 66.9,214.3 h 48.9 c -0.9,0 -3.2,-26.2 -43.8,-24.1 l -5.7,0.1 1.8,-4.4 c 52.2,-3.1 55.5,33.2 56.7,33.2 h -60 c -1,-7.8 -5,-10.7 -5,-10.7 l 1.2,-3.3 c -0.1,0.1 4.4,3.2 5.9,9.2 z"
   id="path260" />
		<rect
   x="84.699997"
   y="205.2"
   class="st24"
   width="11.6"
   height="2.4000001"
   id="rect262" />
		
			<rect
   x="62.299999"
   y="186.2"
   transform="matrix(0.3058,-0.9521,0.9521,0.3058,-135.5386,191.9649)"
   class="st37"
   width="3.0999999"
   height="5.4000001"
   id="rect264" />
		<path
   class="st38"
   d="m 65.939762,194.42996 c -9.363639,-0.66651 -18.324671,-6.18811 -11.580509,-11.59792 2.809699,-2.45764 6.684192,-3.81995 6.694508,-7.58431 0.03293,-3.89839 -4.350623,-7.54252 -9.830178,-9.01097 -5.001973,-1.2131 -10.60934,-0.68959 -13.974047,1.35441"
   id="path266" />
		<path
   class="st21"
   d="m 115.4,213.7 c 0,0.9 0.7,1.6 1.6,1.6 0.9,0 1.6,-0.7 1.6,-1.6 0,-0.9 -0.7,-1.6 -1.6,-1.6 -0.9,0 -1.6,0.7 -1.6,1.6 z"
   id="path268" />
		<path
   class="st9"
   d="m 59.7,208.5 c 0,0 4.1,2.9 5,10.7 h 60 c -1.2,0 -4.5,-36.3 -56.7,-33.2 z m 10.1,-1.1 c 2.1,-6.8 4.3,-11.8 4.3,-11.8 22.2,-2.4 28.3,11.8 28.3,11.8 z"
   id="path270" />
		
			<rect
   x="60.400002"
   y="197.60001"
   transform="matrix(0.3467,-0.938,0.938,0.3467,-142.4976,192.2447)"
   class="st13"
   width="12.8"
   height="1.6"
   id="rect272" />
	</g>
</svg>
