<?xml version="1.0" encoding="UTF-8" standalone="no"?>
<!-- Created with Inkscape (http://www.inkscape.org/) -->

<svg
   width="300"
   height="150"
   viewBox="0 0 79.374998 39.687501"
   version="1.1"
   id="svg2542"
   inkscape:version="1.1 (c68e22c387, 2021-05-23)"
   sodipodi:docname="tondre_la_pelouse.svg"
   xmlns:inkscape="http://www.inkscape.org/namespaces/inkscape"
   xmlns:sodipodi="http://sodipodi.sourceforge.net/DTD/sodipodi-0.dtd"
   xmlns="http://www.w3.org/2000/svg"
   xmlns:svg="http://www.w3.org/2000/svg">
  <sodipodi:namedview
     id="namedview2544"
     pagecolor="#505050"
     bordercolor="#eeeeee"
     borderopacity="1"
     inkscape:pageshadow="0"
     inkscape:pageopacity="0"
     inkscape:pagecheckerboard="0"
     inkscape:document-units="mm"
     showgrid="false"
     units="px"
     inkscape:zoom="2.2078534"
     inkscape:cx="134.06687"
     inkscape:cy="80.394831"
     inkscape:window-width="1920"
     inkscape:window-height="1001"
     inkscape:window-x="-9"
     inkscape:window-y="-9"
     inkscape:window-maximized="1"
     inkscape:current-layer="layer1" />
  <defs
     id="defs2539">
    <inkscape:path-effect
       effect="spiro"
       id="path-effect960"
       is_visible="true"
       lpeversion="1" />
    <inkscape:path-effect
       effect="spiro"
       id="path-effect956"
       is_visible="true"
       lpeversion="1" />
    <inkscape:path-effect
       effect="spiro"
       id="path-effect1096"
       is_visible="true"
       lpeversion="1" />
    <inkscape:path-effect
       effect="spiro"
       id="path-effect899"
       is_visible="true"
       lpeversion="1" />
  </defs>
  <g
     inkscape:label="Calque 1"
     inkscape:groupmode="layer"
     id="layer1">
    <rect
       style="fill:#d5e5ff;fill-opacity:1;stroke:none;stroke-width:0.1;stroke-linecap:round;stroke-linejoin:round"
       id="rect885"
       width="108.934"
       height="58.385525"
       x="-8.6206818"
       y="-7.8369832"
       ry="1.4973141" />
    <path
       style="fill:#e9c6af;fill-opacity:1;stroke:none;stroke-width:0.264583px;stroke-linecap:butt;stroke-linejoin:miter;stroke-opacity:1"
       d="m 121.99444,91.076397 0.008,38.564803 H 230.9365 l 0.11033,-23.22562 c -0.59501,-1.60082 -1.84602,-2.94655 -3.39925,-3.6566 -1.55322,-0.71004 -3.38945,-0.77563 -4.98937,-0.1782 -1.95559,0.73024 -3.43945,2.34548 -4.69019,4.01677 -1.25074,1.6713 -2.36789,3.47569 -3.9381,4.8512 -0.57028,0.49957 -1.20406,0.94156 -1.9174,1.19837 -1.08186,0.38948 -2.29804,0.32547 -3.3813,-0.0601 -1.08327,-0.38554 -2.04014,-1.07679 -2.84429,-1.89865 -1.60829,-1.64373 -2.60919,-3.76877 -3.84074,-5.71087 -3.16813,-4.995995 -8.05322,-8.902627 -13.66146,-10.785361 -5.70646,-1.915707 -12.04243,-1.714205 -17.73593,0.239675 -3.3539,1.150983 -6.51426,2.890427 -9.97563,3.660055 -1.73068,0.384814 -3.53604,0.518709 -5.27927,0.195449 -1.74323,-0.323261 -3.42381,-1.125621 -4.63811,-2.417456 -1.14769,-1.220975 -1.82937,-2.812152 -2.26881,-4.429207 -0.43943,-1.617055 -0.65774,-3.285079 -1.01139,-4.923037 -0.35364,-1.637958 -0.85625,-3.274665 -1.79739,-4.661112 -0.47056,-0.693223 -1.04914,-1.317582 -1.73158,-1.80366 -0.68244,-0.486078 -1.47057,-0.831459 -2.29847,-0.960215 -0.9142,-0.142178 -1.85912,-0.01779 -2.73307,0.28582 -0.87396,0.303606 -1.68007,0.782101 -2.41454,1.344706 -1.46894,1.125212 -2.65019,2.574997 -3.96002,3.881993 -2.94627,2.939897 -6.59021,5.175952 -10.54569,6.471217 z"
       id="path1094"
       inkscape:path-effect="#path-effect1096"
       inkscape:original-d="m 121.99444,91.076397 0.008,38.564803 h 108.93406 l 0.11033,-23.22562 c 0,0 -5.59215,-2.55627 -8.38862,-3.8348 -2.79647,-1.27853 -5.75193,5.91225 -8.62829,8.86797 -2.87636,2.95572 -1.278,0.79918 -1.9174,1.19837 -0.63939,0.3992 -6.71062,-5.11279 -10.06633,-7.66959 -3.35571,-2.55679 -9.10738,-7.189976 -13.66146,-10.785361 -4.55409,-3.595386 -11.82369,0.160047 -17.73593,0.239675 -5.91224,0.07963 -13.26174,0.958963 -19.89301,1.438048 -6.63126,0.479085 -6.07149,-11.184556 -9.10764,-16.777231 -3.03614,-5.592675 -6.07149,3.675277 -9.10763,5.512519 -3.03615,1.837241 -7.0302,4.314409 -10.54569,6.471217 z" />
    <rect
       style="fill:#e6e6e6;fill-opacity:1;stroke:#000000;stroke-width:0;stroke-linecap:round;stroke-linejoin:round;stroke-miterlimit:4.6;stroke-dasharray:none;stroke-opacity:0.0987654;paint-order:stroke fill markers"
       id="rect40112"
       width="28.196037"
       height="3.2179289"
       x="69.087914"
       y="37.848602" />
    <path
       d="m -14.71022,27.1799 c 0.16628,-0.120462 0.28895,0.57584 0.37346,1.647171 0.0327,0.415141 0.0627,0.892788 0.0845,1.388272 0.06,1.267752 0.0927,2.722975 0.11177,3.968398 v 0.732091 1.624844 0.482108 c 0,0 0,-0.111524 0.0273,-0.308002 0.12678,-1.417742 0.3006,-2.822981 0.52067,-4.209454 0.0807,-0.627633 0.23527,-1.223572 0.45523,-1.754324 0.031,-0.06029 0.0702,-0.107592 0.11449,-0.138345 0.1363,-0.08031 0.21536,0.254456 0.25625,0.82137 0.0508,1.245865 0.0426,2.49665 -0.0246,3.740727 -0.06,1.477568 -0.14719,2.736384 -0.14719,2.736384 0,0 0.16354,-0.767788 0.41435,-1.85252 0.0818,-0.361571 0.17445,-0.754408 0.27259,-1.165081 0.37141,-1.637807 0.80665,-3.234531 1.30303,-4.780832 0.0436,-0.125011 0.0872,-0.241063 0.12811,-0.343722 0.14448,-0.36604 0.27259,-0.602624 0.37619,-0.656193 0.18536,-0.09377 0.18536,0.50442 0.0873,1.432917 -0.0327,0.321406 -0.079,0.67851 -0.13357,1.057942 -0.36528,2.606899 -1.10948,6.311957 -1.10948,6.311957 0.45407,-1.503006 0.97239,-2.951091 1.55109,-4.334454 0.1935398,-0.410673 0.3652798,-0.67851 0.4797798,-0.674054 0.21535,0 0.49067,0.986524 0.16628,2.102503 0.31893,-0.981173 0.5923,-2.000272 0.81779,-3.048849 0.25352,-1.089182 0.47977,-2.008744 0.766,-2.406036 0.0616,-0.08972 0.13549,-0.154037 0.21535,-0.18747 0.31622,-0.116052 0.33803,0.491027 0.199,1.446298 v 0.0759 c -0.10251,0.640143 -0.22623,1.270433 -0.37073,1.888236 -0.12539,0.553533 -0.2726,1.129372 -0.41162,1.70073 -0.13903,0.571394 -0.32167,1.223119 -0.4716,1.785577 -0.38708,1.406137 -0.70875,2.468523 -0.70875,2.468523 0,0 0.38163,-1.178461 0.83688,-2.365864 0.17445,-0.446382 0.35982,-0.915081 0.54519,-1.312374 0.28896,-0.6428 0.56428,-1.115979 0.74419,-1.142764 0.35165,-0.0535 0.12267,1.51326 -0.11721,2.781017 -0.0436,0.236584 -0.0899,0.446382 -0.13085,0.665117 -0.10903,0.531205 -0.19627,0.892777 -0.19627,0.892777 0,0 0.20172,-0.303534 0.45796,-0.616016 l 0.1772,-0.205342 0.0982,-0.107116 c 0.15562,-0.208464 0.34521,-0.337015 0.5452,-0.370496 h 0.0327 c 0.0464,0.01192 0.0884,0.05135 0.11721,0.111524 0.0596,-0.68297 0.0705,-1.375325 0.0327,-2.062318 0,-0.397281 -0.0273,-0.794573 -0.0327,-1.174005 0,-0.946335 0.0464,-1.785553 0.368,-2.307834 0.32168,-0.52228 0.8178,2.298897 0.8178,3.405953 0.47705,1.682898 0.95137,3.816642 0.95137,3.816642 0,0 -0.61334,-4.664785 -0.83142,-7.610951 -0.10629,-1.415057 -0.11992,-2.437301 0.0681,-2.352467 0.18808,0.08484 0.3789,0.861524 0.61061,1.964099 0.61335,2.906 1.32755,7.99485 1.32755,7.99485 0,0 -0.50976,-4.910292 -0.38981,-6.865479 0.0436,-0.71423 0.16901,-1.044561 0.43343,-0.620471 0.25521,0.463337 0.45328,1.002584 0.58336,1.589134 0.10509,0.438352 0.19608,0.885187 0.2726,1.339159 0.16416,0.949932 0.29613,1.914139 0.39526,2.888156 0.0164,-0.033 0.0366,-0.06029 0.0595,-0.08031 0.023,-0.01954 0.0481,-0.03205 0.074,-0.03574 0.41981,-0.08924 1.58380996,1.785564 1.58380996,1.785564 0,0 -0.567,-1.673969 -0.89412,-2.990827 -0.11674,-0.409327 -0.19311996,-0.846356 -0.22625996,-1.294526 0,-0.183025 0.0381,-0.285685 0.12811996,-0.272304 0.58064,0.08924 2.33071004,4.557657 2.33071004,4.557657 0,0 -3.22484,-9.521491 -2.06084004,-9.079589 0.27259,0.107116 0.60244,0.647281 0.935,1.406133 0.23594,0.551746 0.45345,1.12401 0.65152,1.714146 0.25079004,0.732079 0.49068004,1.51326 0.70603004,2.231947 -0.27259,-1.111511 -0.43343,-2.08911 -0.21808,-2.093578 0.079,0 0.19082,0.125023 0.31895,0.334798 0.6924,1.120436 1.9327103,4.669241 1.9327103,4.669241 0,0 -1.3302803,-9.155451 -0.6651303,-8.802804 0.0872,0.06827 0.16012,0.176758 0.2099,0.312482 0.2654103,0.712884 0.4794503,1.473964 0.6378803,2.267644 l 0.03,0.13396 c 0.57245,2.589062 1.12855,6.088742 1.12855,6.088742 0,0 -0.0818,-6.9101 0.4089,-7.294 0.0129,-0.0095 0.0268,-0.01346 0.0409,-0.01346 0.0141,0 0.028,0.0048 0.0409,0.01346 0.11994,0.07137 0.2208,0.3839 0.30804,0.83475 l 0.03,0.169622 c 0.31622,1.812349 0.42253,5.40132 0.42253,5.40132 0,0 0,-2.111432 0.03,-4.383544 0,-0.687446 0.03,-1.388272 0.0545,-2.048921 0.016,-1.022245 0.0945,-2.039115 0.23443,-3.035454 0.0573,-0.294626 0.12539,-0.446384 0.20718,-0.379437 0.25352,0.191944 0.35437,2.388178 0.38708,4.816555 v 1.080259 c 0.10324,0.186576 0.19459,0.390131 0.27261,0.607079 0.52725,1.632445 0.99158,3.317131 1.39025,5.044205 0,0 -1.45841,-10.226786 -0.87504,-9.963417 0.06,0.02681 0.12811,0.151844 0.20172,0.352647 0.22279,0.701291 0.4053,1.435145 0.5452,2.191781 0.61607,2.95509 1.2921099,7.418989 1.2921099,7.418989 0,0 -0.1662699,-1.450754 -0.3025899,-3.089007 -0.10231,-1.103933 -0.1606,-2.218126 -0.17445,-3.334534 0,-1.004372 0.11993,-1.571286 0.43615,-1.066866 0.6869499,1.089183 1.1176499,4.0175 1.3220999,5.803057 0.0159,-0.033 0.0356,-0.06029 0.0581,-0.07995 0.0225,-0.02014 0.0473,-0.03253 0.0727,-0.0361 0.41709,-0.08924 1.60561,1.785564 1.60561,1.785564 0,0 -1.63559,-4.646924 -1.04133,-4.557657 0.0442,0.0095 0.0867,0.03479 0.1254,0.07137 0.2726,0.236595 0.70876,1.035624 1.12038,1.89716 0.58881,1.232036 1.13674,2.589055 1.13674,2.589055 0,0 -0.34893,-0.995448 -0.77964,-2.325699 -0.35982,-1.107043 -0.7769,-2.45067 -1.09039,-3.642536 -0.48794,-1.812337 -0.76055,-3.289888 -0.27261,-3.124723 0.27261,0.107116 0.62426,0.669585 0.97318,1.459702 0.16357,0.370496 0.32985,0.790106 0.49342,1.236488 0.31076,0.848143 0.61606,1.785553 0.88321,2.678341 -0.2726,-1.111511 -0.45797,-2.089099 -0.24262,-2.093555 h 0.0436 c 0.13805,0.10092 0.25951,0.253539 0.35437,0.446383 0.71694,1.232031 1.90819,4.548709 1.90819,4.548709 0,0 -0.13902,-0.892776 -0.30803,-2.089115 -0.0436,-0.31247 -0.0899,-0.647257 -0.13629,-0.995448 -0.35166,-2.624771 -0.72512,-5.936977 -0.31623,-5.72271 0.66787,0.352647 2.10174,8.802817 2.10174,8.802817 0,0 -0.0573,-2.477472 0,-4.544253 0.009,-0.750393 0.0609,-1.49764 0.15538,-2.231959 0.0627,-0.37942 0.14448,-0.589231 0.25351,-0.522269 0.17447,0.102707 0.31622,0.709763 0.43344,1.508792 0.1996,1.620399 0.33347,3.260876 0.40072,4.910293 0,0 -0.0326,-2.044458 -0.019,-4.267493 0,-1.214182 0.03,-2.481911 0.0818,-3.504155 0.0654,-1.307918 0.17447,-2.209627 0.35712,-2.071232 0.18264,0.138346 0.2944,1.272203 0.368,2.785475 0.0464,0.941878 0.0736,2.026592 0.0927,3.124711 0.31894,0.540117 0.8178,2.231959 1.19398,3.638072 0.29713,1.102587 0.52066,2.013213 0.52066,2.013213 0,0 -1.57017,-10.226774 -0.9868,-9.963418 0.58337,0.26338 2.15898,9.963418 2.15898,9.963418 0,0 -0.64061,-5.057598 -0.5452,-6.963671 0,-0.08483 0,-0.160613 0.0191,-0.232115 0.0464,-0.446394 0.15813,-0.624952 0.35985,-0.343723 l 0.0354,0.04909 c 0.35983,0.557966 0.65697,1.606995 0.8914,2.736355 0.2024,1.008399 0.36805,2.035088 0.49612,3.075626 0.0157,-0.03312 0.0354,-0.06077 0.058,-0.08031 0.0225,-0.02014 0.0473,-0.03205 0.0728,-0.03574 0.41707,-0.08924 1.63559,1.785541 1.63559,1.785541 0,0 -1.67649,-4.6469 -1.09039,-4.557621 0.21262,0.03122 0.58881,0.6428 0.98681,1.401664 l 0.0164,0.03574 c 0.6924,1.339175 1.43115,3.12474 1.43115,3.12474 0,0 -0.77418,-2.142668 -1.46113,-4.347835 l -0.1145,-0.36604 c -0.71148,-2.321237 -1.27577,-4.584425 -0.68967,-4.365702 0.0461,0.01871 0.091,0.04552 0.13357,0.08031 0.25368,0.242827 0.47519,0.56602 0.65152,0.950802 0.62937,1.354803 1.17713,2.806463 1.63559,4.334438 -0.28896,-1.1115 -0.47978,-2.089099 -0.27261,-2.093555 0.49886,0 2.36343,5.004028 2.36343,5.004028 0,0 -0.25896,-1.544506 -0.51521,-3.339007 L 29.061,34.433625 c -0.35165,-2.468543 -0.68967,-5.356671 -0.3571,-5.320973 h 0.0328 c 0.67332,0.352647 2.20259,8.802816 2.20259,8.802816 0,0 4.22901,-0.674756 6.35233,-0.630504 1.49601,0.03122 2.96688,0.690496 4.46237,0.630504 0.95535,-0.03837 1.87042,-0.616325 2.82617,-0.630504 1.10263,-0.01632 2.16971,0.629289 3.2724,0.630504 1.11537,0.0012 2.19553,-0.613013 3.31081,-0.630504 1.33562,-0.02097 3.97773,0.630504 3.97773,0.630504 0,0 1.77052,-0.61567 2.67742,-0.630504 1.0536,-0.01728 2.07001,0.621449 3.12366,0.630504 1.15175,0.0095 2.26951,-0.652308 3.42115,-0.630504 0.95571,0.01811 1.87077,0.594473 2.82617,0.630504 1.44632,0.05457 2.86752,-0.693725 4.31363,-0.630504 0.90646,0.03968 1.7705,0.643372 2.67742,0.630504 0.80954,-0.01191 1.57368,-0.53491 2.37993,-0.630504 0.99139,-0.117601 2.08737,0.427664 3.25536,0.369185 1.22753,-0.06148 2.53458,-0.72381 3.88334,-0.732377 1.36116,-0.0083 2.76479,0.636926 4.17201,0.669204 1.248,0.0286 2.49882,-0.559694 3.72535,-0.508519 1.37709,0.05743 2.723554,0.756767 4.001014,0.830509 1.5632,0.0902 3.02306,-0.442641 4.30926,-0.349382 0.886466,0.06422 1.690446,0.756969 2.388896,0.813244 1.8034,0.145279 2.90329,-0.379433 2.90329,-0.379433 l -0.0189,2.300768 -120.25,-0.04361 0.0899,-1.526641 c 0,0 -0.33803,-11.106188 0.26988,-11.5481 z"
       fill="#77b590"
       id="path103-1"
       style="fill:#77b574;fill-opacity:1;stroke-width:0.348835"
       sodipodi:nodetypes="cccccccccccccccccccccccccccccccsccccccccccccccccccccccccccccccccccccccccccccccccscccccccccccccccccccccccccccccccccccccccccccccccccccccccccccccccccccccccccccccccccaaaaacaaaaaasssssssscccccc" />
    <ellipse
       style="fill:#ff2a2a;fill-opacity:1;stroke:#808080;stroke-width:0.0200726;stroke-linecap:round;stroke-linejoin:round;stroke-miterlimit:4.6;stroke-dasharray:none;stroke-opacity:1;paint-order:normal"
       id="path29703"
       cx="53.751949"
       cy="26.568167"
       rx="1.0887632"
       ry="0.97327101" />
    <path
       d="m 65.91948,26.837266 -0.37073,-2.54956 c -0.0436,-0.297919 -0.14047,-0.581687 -0.28367,-0.831031 -0.14294,-0.249387 -0.32879,-0.458139 -0.54383,-0.611373 -0.21504,-0.153254 -0.45417,-0.247121 -0.70035,-0.274927 -0.24619,-0.02782 -0.49311,0.01108 -0.72311,0.114038 l -12.8086,5.752649 4.02136,3.433987 z"
       fill="#066d76"
       id="path29-18"
       style="fill:#333333;stroke-width:0.3083" />
    <path
       d="m 55.27695,26.243245 v 4.152265 0.112668 1.458077 H 44.03143 V 26.24323 Z"
       fill="#066d76"
       id="path35-7"
       style="fill:#ff2a2a;fill-opacity:1;stroke-width:0.3083" />
    <path
       d="m 54.15487,31.766098 c 0.0976,-0.493559 0.28991,-0.94838 0.56221,-1.327601 0.27211,-0.378793 0.61628,-0.671916 1.0045,-0.854526 l 9.89362,-4.658916 0.54358,2.179585 c 0.12001,0.481218 0.0857,0.993747 -0.0962,1.432671 -0.18157,0.438838 -0.49693,0.770779 -0.88155,0.928391 l -10.52765,4.299447 z"
       fill="#0f515d"
       id="path45-3"
       style="fill:#333333;stroke-width:0.3083" />
    <path
       d="m 54.53899,29.104697 3.46205,-4.675172 6.51065,-8.796417 3.75431,-5.06812 v -0.01423 c 0.2091,-0.28169 0.95046,0.262756 0.73898,0.544451 l -3.46204,4.675168 -6.51302,8.796425 -3.73768,5.06575 v 0.01421 c -0.2091,0.281691 -0.95046,-0.262756 -0.73898,-0.544448 z"
       fill="#e5f1fe"
       id="path47-08"
       style="fill:#b3b3b3;stroke-width:0.237166" />
    <path
       d="m 66.89972,12.338004 1.10966,-1.711473 V 9.2796072 c 0,-0.1883315 0.0751,-0.3689754 0.20886,-0.5021478 0.13355,-0.1331819 0.31484,-0.2080055 0.50398,-0.2080055 h 0.22098 c 0.16586,0 0.32458,0.06558 0.44197,0.1823466 0.11714,0.1167428 0.18297,0.275113 0.18297,0.4402174 v 1.3634951 l -2.06013,2.77433 C 66.971,14.22463 65.56432,13.007911 66.89972,12.338004 Z"
       fill="#a8a8a8"
       id="path59-2"
       style="fill:#ff2a2a;fill-opacity:1;stroke-width:0.237166" />
    <path
       d="m 56.33786,30.39551 c 0,0 -13.53587,-1.377573 -20.14203,0 -0.69344,0.144604 -1.77966,0.608505 -1.97952,0.853678 -0.20013,0.24517 -1.01554,0.81828 -1.23868,1.443551 -0.41339,1.158403 0,3.756161 0,3.756161 0,0.294347 0.0952,-0.412649 0.26499,-0.204696 0.16952,0.2083 0.39972,0.325089 0.63966,0.325089 h 21.59474 z"
       fill="#ffb942"
       id="path31-8"
       style="fill:#006700;fill-opacity:1;stroke-width:0.3083"
       sodipodi:nodetypes="cacascscc" />
    <path
       d="m 37.10284,29.050123 h 0.91579 c 0.22853,-0.817813 0.6597,-1.527631 1.23311,-2.030279 0.57342,-0.502608 1.26039,-0.772948 1.96519,-0.773195 h 3.01736 v 5.719622 h -7.13145 c -0.31509,0 -0.61767,-0.153658 -0.84035,-0.427178 -0.22295,-0.273175 -0.34822,-0.644355 -0.34822,-1.030899 0,-0.386532 0.12527,-0.757719 0.34822,-1.030887 0.22268,-0.273516 0.52526,-0.427184 0.84035,-0.427184 z"
       fill="#0f515d"
       id="path33-0"
       style="fill:#ff2a2a;fill-opacity:1;stroke-width:0.3083" />
    <path
       d="m 50.93984,23.665135 h -6.4606 c -0.28281,0 -0.55393,0.137787 -0.75379,0.383063 -0.19986,0.245256 -0.31231,0.577904 -0.31231,0.92478 v 1.270267 h 8.59002 v -1.270267 c 0,-0.346256 -0.1119,-0.678404 -0.31121,-0.923578 -0.1993,-0.245174 -0.46986,-0.383372 -0.75211,-0.384265 z"
       fill="#0f515d"
       id="path37-4"
       style="fill:#1a1a1a;stroke-width:0.3083" />
    <path
       d="m 34.21631,31.249188 c 0.53082,-7.71e-4 1.05024,0.191913 1.49171,0.553178 0.44174,0.361627 0.78606,0.875538 0.98954,1.477198 0.20348,0.601678 0.25692,1.263791 0.15338,1.902673 -0.10331,0.638898 -0.35909,1.225874 -0.73458,1.686522 -0.37522,0.460311 -0.85372,0.774116 -1.37451,0.900796 -0.52081,0.127001 -1.06053,0.06148 -1.55099,-0.18815 -0.49047,-0.249618 -0.90939,-0.672016 -1.20417,-1.213924 -0.2945,-0.541571 -0.45149,-1.178751 -0.45093,-1.829931 0,-0.431964 0.0693,-0.859487 0.20404,-1.258318 0.13471,-0.399185 0.33207,-0.761476 0.5812,-1.066754 0.24884,-0.305614 0.54418,-0.547718 0.86957,-0.712993 0.32512,-0.16527 0.67363,-0.250297 1.02574,-0.250297 z m -0.40361,4.9479 c 0.26165,-0.320988 0.14753,-1.341973 0.14753,-1.341973 0,0 -0.83506,-0.140008 -1.09393,0.180977 -0.0568,0.07369 -0.1,0.161519 -0.12722,0.257124 -0.0272,0.09589 -0.0379,0.197706 -0.0312,0.298785 0.007,0.101062 0.0309,0.199424 0.0707,0.288207 0.0398,0.08918 0.0944,0.166638 0.16006,0.228097 0.25887,0.324392 0.60959,0.416591 0.87125,0.09563 z m -0.87404,-3.226891 c -0.0657,0.06143 -0.12024,0.138986 -0.16005,0.228101 -0.0398,0.08879 -0.0637,0.187123 -0.0707,0.288201 -0.006,0.101051 0.004,0.202833 0.0311,0.298788 0.0272,0.09563 0.0704,0.183366 0.12721,0.257124 0.26164,0.320985 1.09393,0.180981 1.09393,0.180981 0,0 0.11412,-1.024408 -0.14753,-1.341973 -0.26165,-0.317565 -0.61516,-0.228787 -0.87682,0.09215 z m 1.67014,3.226891 c 0.26165,0.320981 0.61237,0.232197 0.87403,-0.0888 0.0657,-0.06143 0.12024,-0.138971 0.16004,-0.228102 0.0398,-0.08879 0.0638,-0.187118 0.0707,-0.2882 0.006,-0.101051 -0.004,-0.202829 -0.0311,-0.298787 -0.0273,-0.09563 -0.0704,-0.183366 -0.1272,-0.257121 -0.26165,-0.320988 -1.09393,-0.180985 -1.09393,-0.180985 0,0 -0.103,1.024417 0.15866,1.345397 z m 0.87403,-3.226891 c -0.0501,-0.08053 -0.1133,-0.147515 -0.18595,-0.19635 -0.0724,-0.04878 -0.15253,-0.07821 -0.23493,-0.08673 -0.0824,-0.0077 -0.16533,0.0051 -0.24356,0.03819 -0.078,0.03345 -0.14947,0.08635 -0.20959,0.156063 -0.26166,0.320984 -0.14753,1.341973 -0.14753,1.341973 0,0 0.83506,0.140003 1.09392,-0.180982 0.25887,-0.320984 0.20042,-0.744401 -0.0612,-1.068793 z"
       fill="#0f515d"
       id="path39-08"
       style="fill:#333333;stroke-width:0.3083" />
    <path
       d="m 34.21631,31.990183 c 0.41168,0 0.81447,0.149905 1.15684,0.430596 0.34237,0.280677 0.60904,0.679524 0.76687,1.146309 0.15754,0.466444 0.19874,0.980026 0.1183,1.475495 -0.0802,0.49547 -0.27864,0.950653 -0.56979,1.307822 -0.29116,0.357181 -0.66221,0.600639 -1.0661,0.698985 -0.40389,0.09877 -0.82254,0.04814 -1.20277,-0.145124 -0.38051,-0.193606 -0.70563,-0.520745 -0.93443,-0.940743 -0.22882,-0.420009 -0.35101,-0.914114 -0.35101,-1.41915 0,-0.33532 0.0538,-0.66757 0.15839,-0.977285 0.10467,-0.310057 0.25803,-0.591767 0.45148,-0.828748 0.19318,-0.237324 0.42283,-0.425469 0.67557,-0.55387 0.25246,-0.128414 0.5233,-0.194287 0.79665,-0.194287 z m 1.27764,0.986841 c -0.0501,-0.08053 -0.11328,-0.147515 -0.18593,-0.196334 -0.0724,-0.04879 -0.15254,-0.07821 -0.23494,-0.08673 -0.0824,-0.0077 -0.16534,0.0051 -0.24355,0.03819 -0.078,0.03345 -0.14948,0.08634 -0.20961,0.156047 -0.26165,0.320981 -0.14752,1.341974 -0.14752,1.341974 0,0 0.83506,0.140003 1.09392,-0.180982 0.25888,-0.320985 0.18929,-0.751228 -0.0724,-1.07562 z m -0.87403,3.226886 c 0.26166,0.320986 0.61238,0.232206 0.87403,-0.08879 0.0657,-0.06143 0.12025,-0.138973 0.16006,-0.2281 0.0398,-0.08879 0.0637,-0.187127 0.0707,-0.288204 0.006,-0.101051 -0.003,-0.20283 -0.0311,-0.298784 -0.0273,-0.09563 -0.0704,-0.183367 -0.12721,-0.257125 -0.26164,-0.320984 -1.09393,-0.18098 -1.09393,-0.18098 0,0 -0.11412,1.017584 0.14753,1.338565 z M 33.8127,32.884823 c -0.26166,-0.320969 -0.61238,-0.232191 -0.87404,0.0888 -0.0657,0.06143 -0.12024,0.138966 -0.16005,0.228097 -0.0398,0.08879 -0.0637,0.187122 -0.0707,0.288204 -0.006,0.10105 0.004,0.202829 0.0311,0.298784 0.0272,0.09563 0.0704,0.183367 0.12721,0.257124 0.26164,0.320984 1.09393,0.180981 1.09393,0.180981 0,0 0.11412,-1.021004 -0.15032,-1.341989 z m -0.87404,3.226898 c 0.26166,0.320976 0.61238,0.409766 0.87404,0.0888 0.26165,-0.320985 0.14753,-1.341973 0.14753,-1.341973 0,0 -0.83506,-0.140004 -1.09393,0.180964 -0.0568,0.07383 -0.10047,0.161182 -0.12805,0.256788 -0.0273,0.09563 -0.0381,0.197374 -0.0318,0.298456 0.006,0.101051 0.0303,0.199069 0.0698,0.2882 0.0396,0.08918 0.0938,0.166979 0.1595,0.228786 z"
       fill="#e5f1fe"
       id="path41-4"
       style="fill:#808080;fill-opacity:1;stroke-width:0.3083" />
    <path
       d="m 34.21631,35.428782 c -0.39805,0 -0.72094,-0.396113 -0.72094,-0.884409 0,-0.488308 0.32289,-0.884405 0.72094,-0.884405 0.39805,0 0.72094,0.396097 0.72094,0.884405 0,0.488296 -0.32289,0.884409 -0.72094,0.884409 z"
       fill="#0f515d"
       id="path43-7"
       style="fill:#cccccc;stroke-width:0.3083" />
    <path
       d="m 54.53896,29.104767 h -1.71187 c -0.22157,0 -0.43396,0.10789 -0.5904,0.30015 -0.15671,0.191901 -0.24467,0.452444 -0.24467,0.724257 v 1.850766 h 3.485 v -1.707359 c 0.002,-0.152639 -0.0211,-0.303908 -0.0673,-0.445615 -0.0462,-0.141706 -0.11524,-0.270441 -0.20236,-0.37903 -0.0874,-0.108927 -0.19152,-0.194973 -0.30619,-0.254055 -0.11468,-0.05873 -0.23772,-0.08918 -0.36214,-0.08918 z"
       fill="#a8a8a8"
       id="path51-5"
       style="fill:#006400;fill-opacity:1;stroke-width:0.3083" />
    <path
       d="m 54.79505,29.692087 c 0.65052,0.0024 1.28572,0.240399 1.82572,0.685332 0.53973,0.444599 0.96032,1.075633 1.20806,1.813208 0.24774,0.737907 0.31176,1.548908 0.18372,2.331212 -0.12777,0.782309 -0.44176,1.500421 -0.90243,2.064178 -0.46039,0.563423 -1.04661,0.946561 -1.6846,1.101586 -0.63798,0.155026 -1.29908,0.07447 -1.89977,-0.231519 -0.60069,-0.305607 -1.11425,-0.822931 -1.47527,-1.486415 -0.36131,-0.66348 -0.55393,-1.443737 -0.55393,-2.241416 0,-0.530973 0.0854,-1.056507 0.25136,-1.546855 0.1659,-0.490347 0.4089,-0.935966 0.71537,-1.310893 0.30619,-0.374947 0.67,-0.672016 1.06999,-0.874171 0.40026,-0.202152 0.82893,-0.305618 1.26178,-0.304247 z m -0.49547,6.071329 c 0.32289,-0.392686 0.18093,-1.6493 0.18093,-1.6493 0,0 -1.02156,-0.170731 -1.34446,0.221956 -0.32288,0.392689 -0.23103,0.921975 0.0891,1.318072 0.32011,0.39611 0.75156,0.501966 1.07167,0.10932 z m -1.07445,-3.96105 c -0.32011,0.392698 -0.41196,0.921972 -0.0891,1.318081 0.3229,0.396098 1.34445,0.221956 1.34445,0.221956 0,0 0.14197,-1.253203 -0.18093,-1.649301 -0.32289,-0.396109 -0.75155,-0.283429 -1.07444,0.109308 z m 2.06539,3.96105 c 0.32289,0.396113 0.75156,0.28343 1.07445,-0.109307 0.32289,-0.392687 0.41196,-0.921965 0.0891,-1.31807 -0.3229,-0.396101 -1.34446,-0.221959 -1.34446,-0.221959 0,0 -0.14196,1.253191 0.18093,1.649304 z m 1.07445,-3.96105 c -0.32011,-0.392693 -0.75156,-0.505373 -1.07445,-0.10932 -0.32289,0.396094 -0.18093,1.649304 -0.18093,1.649304 0,0 1.02156,0.174135 1.34446,-0.221959 0.32288,-0.396108 0.23103,-0.925383 -0.0891,-1.318084 z"
       fill="#0f515d"
       id="path53-6"
       style="fill:#333333;stroke-width:0.3083" />
    <path
       d="m 54.79505,30.593566 c 0.50549,0 0.99957,0.183719 1.4196,0.528251 0.42033,0.34454 0.74767,0.834219 0.94112,1.406856 0.19346,0.572648 0.24412,1.203 0.14558,1.811155 -0.0988,0.608166 -0.34209,1.166463 -0.6995,1.604922 -0.3574,0.438439 -0.81252,0.736885 -1.30827,0.858096 -0.49574,0.120937 -1.0096,0.05874 -1.47639,-0.17857 -0.4668,-0.23733 -0.86596,-0.6389 -1.14681,-1.154521 -0.28087,-0.515615 -0.43063,-1.121385 -0.43063,-1.741502 0,-0.831476 0.26918,-1.628806 0.7485,-2.21648 0.47905,-0.588007 1.12901,-0.918207 1.8068,-0.918207 z m 1.56992,1.2088 c -0.32011,-0.392693 -0.75156,-0.505373 -1.07445,-0.10932 -0.32289,0.396094 -0.18093,1.649304 -0.18093,1.649304 0,0 1.02156,0.174135 1.34446,-0.221959 0.32288,-0.396108 0.23103,-0.925383 -0.0891,-1.318084 z m -1.07445,3.96105 c 0.32289,0.396113 0.75156,0.28343 1.07445,-0.109307 0.32289,-0.392687 0.41196,-0.921965 0.0891,-1.31807 -0.3229,-0.396101 -1.34446,-0.221959 -1.34446,-0.221959 0,0 -0.14196,1.253191 0.18093,1.649304 z m -0.99094,-4.070314 c -0.32011,-0.392686 -0.75155,-0.283429 -1.07445,0.109308 -0.32289,0.392707 -0.41196,0.92198 -0.0891,1.31809 0.3229,0.396092 1.34445,0.221954 1.34445,0.221954 0,0 0.13918,-1.256613 -0.1837,-1.652722 z m -1.07445,3.961042 c 0.3229,0.392702 0.75155,0.505385 1.07445,0.10932 0.32289,-0.396109 0.18093,-1.649304 0.18093,-1.649304 0,0 -1.02156,-0.170734 -1.34446,0.221954 -0.32288,0.39269 -0.23103,0.921977 0.0891,1.318074 z"
       fill="#e5f1fe"
       id="path55-9"
       style="fill:#808080;stroke-width:0.3083" />
    <path
       d="m 54.79505,34.810714 c -0.4874,0 -0.88238,-0.48454 -0.88238,-1.082461 0,-0.597908 0.39498,-1.082448 0.88238,-1.082448 0.4874,0 0.88238,0.48454 0.88238,1.082448 0,0.597921 -0.39498,1.082461 -0.88238,1.082461 z"
       fill="#0f515d"
       id="path57-6"
       style="fill:#cccccc;stroke-width:0.3083" />
    <rect
       style="fill:#1a1a1a;fill-opacity:1;stroke:none;stroke-width:0.0156916;stroke-linecap:round;stroke-linejoin:round;stroke-miterlimit:4.6;stroke-dasharray:none;stroke-opacity:1;paint-order:normal"
       id="rect22364"
       width="3.2153952"
       height="0.30476329"
       x="39.503201"
       y="27.777561" />
    <rect
       style="fill:#1a1a1a;fill-opacity:1;stroke:none;stroke-width:0.0156916;stroke-linecap:round;stroke-linejoin:round;stroke-miterlimit:4.6;stroke-dasharray:none;stroke-opacity:1;paint-order:normal"
       id="rect22364-8"
       width="3.2153952"
       height="0.30476329"
       x="39.503201"
       y="29.228462" />
    <rect
       style="fill:#1a1a1a;fill-opacity:1;stroke:none;stroke-width:0.0156916;stroke-linecap:round;stroke-linejoin:round;stroke-miterlimit:4.6;stroke-dasharray:none;stroke-opacity:1;paint-order:normal"
       id="rect22364-6"
       width="3.2153952"
       height="0.30476329"
       x="39.503201"
       y="28.549444" />
    <rect
       style="fill:#008000;fill-opacity:1;stroke:#808080;stroke-width:0.0282232;stroke-linecap:round;stroke-linejoin:round;stroke-miterlimit:4.6;stroke-dasharray:none;stroke-opacity:1;paint-order:normal"
       id="rect25050"
       width="14.044015"
       height="3.4253793"
       x="37.299755"
       y="32.887489"
       ry="1.5469455" />
    <ellipse
       id="path32098"
       style="fill:#006400;stroke:#808080;stroke-width:0.27639"
       cx="17.431892"
       cy="37.234562"
       rx="0.0012086899"
       ry="0.0015724584" />
    <path
       d="m 68.49671,37.498227 h -0.0598 v 0.71547 z"
       fill="#3c6448"
       id="path39-61"
       style="stroke-width:1.10939" />
    <g
       fill="#49a56e"
       id="g97"
       transform="matrix(0.21382234,0,0,0.28319543,10.13625,2.3550328)"
       style="fill:#4fb35a;fill-opacity:1">
      <path
         d="m 55.51,126.58 c 0,0 2.62,-11.41 4.87,-17.91 -1.3002,0.612 -2.4687,1.471 -3.44,2.53 0.44,4.41 -1.43,15.38 -1.43,15.38 z"
         id="path63-95"
         style="fill:#4fb35a;fill-opacity:1" />
      <path
         d="m 26.3001,124.77 c 0,0 2,-7.84 4.14,-13.64 v -0.29 c -0.23,-7.5 -0.94,-16.49 -3.09,-15.74 -1.77,0.62 -2.38,5.47 -2.54,13.32 1.79,0.87 1.49,16.35 1.49,16.35 z"
         id="path65-49"
         style="fill:#4fb35a;fill-opacity:1" />
      <path
         d="m 47.08,106.24 c 4.26,-1 -7.56,20.34 -7.56,20.34 0,0 6.42,-10 8.55,-10.21 0.33,0 0.47,0.2 0.47,0.61 0.29,-1.05 0.6,-2.18 0.91,-3.35 2,-7.54 3.95,-16.71 1.48,-16.1 -1.93,0.48 -4.78,6 -7.29,11.87 1.24,-1.72 2.42,-2.93 3.44,-3.16 z"
         id="path67-41"
         style="fill:#4fb35a;fill-opacity:1" />
      <path
         d="m 33.66,105.05 c 2.44,-0.79 -2.44,19.72 -2.44,19.72 0,0 4.55,-8 7.09,-10.46 0,-0.307 0,-0.613 0,-0.92 -0.24,-5.85 -1,-12.06 -2.92,-11.51 -1,0.28 -1.81,1.8 -2.46,3.86 0.1733,-0.294 0.4264,-0.533 0.73,-0.69 z"
         id="path69-5"
         style="fill:#4fb35a;fill-opacity:1" />
      <path
         d="m 15.45,104.26 c 2.14,-0.59 -3.21,22.32 -3.21,22.32 1.4625,-3.869 3.1658,-7.643 5.1,-11.3 0.34,-1.23 0.67,-2.5 1,-3.78 0.12,-5.44 0.49,-10.36 1.42,-10.79 0.3,-0.14 0.55,0.19 0.76,0.85 0.49,-3.17 0.47,-5.28 -0.53,-5.07 -1.28,0.27 -3.25,3.93 -5.28,8.56 0.29,-0.45 0.52,-0.73 0.74,-0.79 z"
         id="path71-2"
         style="fill:#4fb35a;fill-opacity:1" />
      <path
         d="m 96.81,108.11 c 0,-0.06 0,-0.1 0,-0.16 l -2.29,4.7 c 0.8073,3.106 1.4449,6.254 1.91,9.43 l 0.1,-0.39 c 0,-0.84 0,-2.12 0,-3.64 -0.29,-0.88 -0.33,-1.5 0,-1.64 0.07,-2.78 0.19,-6.05 0.41,-8.89 l -0.19,0.38 z"
         id="path73-92"
         style="fill:#4fb35a;fill-opacity:1" />
      <path
         d="m 87.17,124.77 c 0,0 -2.73,-8.3 -4.07,-14.14 -0.6151,1.448 -1.1558,2.927 -1.62,4.43 2.1229,3.099 4.0243,6.343 5.69,9.71 z"
         id="path75-5"
         style="fill:#4fb35a;fill-opacity:1" />
      <path
         d="m 72.8899,125.53 c 0,0 -0.32,-0.84 -0.72,-2 l -1,0.65 c 0.98,0.67 1.72,1.35 1.72,1.35 z"
         id="path77-68"
         style="fill:#4fb35a;fill-opacity:1" />
      <path
         d="m 78.9999,126.58 c 0,0 -1.18,-2.38 -2.6,-5.53 l -0.47,0.22 c 1.7,2.67 3.07,5.31 3.07,5.31 z"
         id="path79-3"
         style="fill:#4fb35a;fill-opacity:1" />
      <path
         d="m 67.56,118.21 c -0.1387,1.539 -0.0984,3.09 0.12,4.62 0.106,-0.135 0.2599,-0.225 0.43,-0.25 h 0.06 c 0.7336,0.075 1.4292,0.363 2,0.83 l 0.36,0.24 c 0.34,-0.49 0.72,-1.06 1.13,-1.67 -0.88,-2.84 -1.72,-6.35 -0.43,-6.23 0.67,0.06 1.67,1.12 2.73,2.56 0.25,-0.43 0.49,-0.85 0.71,-1.26 -0.53,-1.28 -1.05,-2.57 -1.51,-3.81 -2.0105,1.487 -3.8845,3.15 -5.6,4.97 z"
         id="path81-8"
         style="fill:#4fb35a;fill-opacity:1" />
      <path
         d="m 59.8201,126.58 c 0,0 1.74,-4.78 3.49,-8.55 0,-2.49 1.82,-8.79 3,-7.63 1.18,1.16 1.39,3.05 1.35,5.17 1.39,-2.15 2.8,-4.43 4,-6.58 l 0.08,-0.13 c -0.51,-2.14 -0.43,-3.51 0.73,-3.24 0.293,0.075 0.5638,0.219 0.79,0.42 2.17,-4.27 3,-7.43 0.46,-7 -3.14,0.56 -7.25,5.28 -10.9,10.47 -0.75,6.62 -3,17.07 -3,17.07 z"
         id="path83-63"
         style="fill:#4fb35a;fill-opacity:1" />
      <path
         d="m 7.92993,126.58 c 0,0 2.47997,-10 4.73997,-16.62 -0.31,0.79 -0.63,1.59 -0.93,2.38 -1,2.61 -1.92997,5.16 -2.68997,7.32 -0.51,3.67 -1.12,6.92 -1.12,6.92 z"
         id="path85-7"
         style="fill:#4fb35a;fill-opacity:1" />
      <path
         d="m 47.7199,119.88 c -1.2,3 -3.28,6.7 -3.28,6.7 0,0 4.28,-4.21 5.81,-4 0.095,0.008 0.1873,0.036 0.2715,0.08 0.0842,0.045 0.1585,0.106 0.2185,0.18 0.3638,-2.182 0.8478,-4.342 1.45,-6.47 -3,3.48 -5.47,6.82 -5.47,6.82 0,0 0.41,-1.31 1,-3.31 z"
         id="path87-8"
         style="fill:#4fb35a;fill-opacity:1" />
      <path
         d="m 0.679986,116.37 c 2.140004,-0.2 -3.819996,10.21 -3.819996,10.21 0,0 4.35,-4.21 5.89,-4 0.09348,0.008 0.18427,0.036 0.2668,0.081 0.08253,0.044 0.15508,0.105 0.2132,0.179 0.75,-4 2.33,-10.59 4.85,-13 1.17,-1.13 1.58,0.14 1.6,2.39 v -0.32 c 0.75001,-5.62 0.67001,-10.36 -2.31,-8.18 -2,1.49 -3.72,4.19 -5.07,7.17 -0.81984,1.844 -1.531052,3.733 -2.130004,5.66 0.154824,-0.098 0.328573,-0.163 0.51,-0.19 z"
         id="path89-4"
         style="fill:#4fb35a;fill-opacity:1" />
      <path
         d="m 92.09,124.77 c 0,0 -0.31,-2.83 -0.54,-6.13 l -1,2 c 0.93,2.36 1.54,4.13 1.54,4.13 z"
         id="path91-1"
         style="fill:#4fb35a;fill-opacity:1" />
      <path
         d="m 21.7,122.77 c 0,0 0.39,-8 1.55,-12.1 -0.53,0.66 -1.09,1.44 -1.67,2.29 0.16,5.04 0.12,9.81 0.12,9.81 z"
         id="path93-7"
         style="fill:#4fb35a;fill-opacity:1" />
      <path
         d="m 89.57,118 c 0.5506,-3.115 0.9113,-6.261 1.08,-9.42 0.13,-4 -0.48,-6.63 -2.8,-4.89 -0.6682,0.517 -1.2695,1.115 -1.79,1.78 -0.4599,0.581 -0.8809,1.193 -1.26,1.83 1.8171,3.461 3.4104,7.035 4.77,10.7 z"
         id="path95-70"
         style="fill:#4fb35a;fill-opacity:1" />
    </g>
    <path
       style="fill:#afc6e9;stroke:none;stroke-width:0.264583px;stroke-linecap:butt;stroke-linejoin:miter;stroke-opacity:1;fill-opacity:1"
       d="M 2.9959342,6.4712177 C 2.5201803,5.8231681 2.1749334,5.047822 2.1878282,4.2439913 2.1942756,3.842076 2.2920916,3.4392016 2.4907544,3.0897583 2.6894172,2.740315 2.9909899,2.4464657 3.3554461,2.2769099 3.8202213,2.0606827 4.3649326,2.0556381 4.859221,2.1914662 5.3535093,2.3272943 5.8025263,2.5953637 6.2100021,2.906384 7.0249538,3.5284247 7.7096149,4.3383939 8.6282902,4.7934946 9.5084113,5.229496 10.549417,5.2969402 11.501798,5.0567713 12.454179,4.8166024 13.318842,4.2819429 14.020972,3.595121 c 0.743921,-0.7277019 1.308452,-1.6163897 1.990857,-2.4020682 0.341203,-0.39283926 0.71419,-0.76175495 1.140823,-1.05962383 0.426634,-0.29786888 0.909508,-0.52360947 1.422139,-0.61277843 0.528013,-0.0918446 1.08012,-0.0353729 1.581116,0.15498515 0.500997,0.19035805 0.949962,0.5134349 1.294981,0.92355112 0.58932,0.70051059 0.853943,1.60854889 1.23978,2.43869499 0.192918,0.4150731 0.421387,0.8185509 0.729504,1.157028 0.308118,0.3384772 0.701733,0.6102716 1.146488,0.7184222 0.383762,0.093319 0.790764,0.061563 1.170991,-0.045251 0.380227,-0.1068137 0.736348,-0.286269 1.075942,-0.4879058 0.679189,-0.4032737 1.314585,-0.9048183 2.067212,-1.1445663 0.697074,-0.2220517 1.468628,-0.1999071 2.153405,0.05758 0.684777,0.2574869 1.278783,0.747968 1.66499,1.3693079 0.386207,0.6213399 0.563036,1.3695534 0.500317,2.0984467 -0.06272,0.7288932 -0.36392,1.4346523 -0.843428,1.987184 -0.532075,0.6131039 -1.265869,1.0273278 -2.038107,1.2776246 -0.772238,0.250296 -1.585904,0.345834 -2.395876,0.400099 C 23.487533,10.722952 19.063159,9.822805 14.620158,9.7068263 12.529731,9.6522584 10.421403,9.7703181 8.3607044,9.4148108 7.3303551,9.2370571 6.3149296,8.9392192 5.3858007,8.4597033 4.4566717,7.9801873 3.6146838,7.3140493 2.9959342,6.4712177 Z"
       id="path954"
       inkscape:path-effect="#path-effect956"
       inkscape:original-d="M 2.9959342,6.4712177 C -0.87907192,5.3924168 3.2358734,3.675277 3.3554461,2.2769099 3.4750189,0.87854276 6.8709402,3.9548977 8.6282902,4.7934946 10.38564,5.6320914 12.223676,3.9948434 14.020972,3.595121 c 1.797295,-0.3997225 3.036144,-2.71604908 4.553819,-4.07447046 1.517676,-1.35842134 1.917663,0.71928877 2.876097,1.07853627 0.958434,0.35924752 2.077445,2.87636129 3.115772,4.31414519 1.038325,1.4377837 2.87636,-1.1182175 4.314145,-1.6777231 1.437783,-0.5595057 2.31712,3.675277 3.475284,5.5125185 1.158163,1.8372416 -2.955724,1.1187467 -4.433983,1.6777236 C 26.443847,10.984827 19.054405,9.9467658 14.620158,9.7068263 10.185911,9.4668871 6.8709402,7.5500184 2.9959342,6.4712177 Z" />
    <path
       style="fill:#afc6e9;stroke:none;stroke-width:0.264583px;stroke-linecap:butt;stroke-linejoin:miter;stroke-opacity:1"
       d="m 41.703402,-1.0785363 c 0.356407,-0.337547 0.805406,-0.5704627 1.279039,-0.6994418 0.473634,-0.128979 0.971564,-0.1564343 1.460567,-0.1135337 0.978004,0.085801 1.908347,0.4458519 2.821042,0.8075738 0.912696,0.36172187 1.837122,0.73244397 2.812815,0.84143822 0.487846,0.0544971 0.985871,0.0418621 1.463796,-0.0701716 0.477925,-0.11203376 0.93559,-0.32577782 1.307617,-0.64602753 0.503716,-0.43361124 0.825987,-1.03441074 1.211813,-1.57560084 0.192914,-0.270595 0.405362,-0.5302085 0.660849,-0.7427264 0.255486,-0.2125179 0.556901,-0.3770441 0.883596,-0.4379321 0.366006,-0.068214 0.748347,-0.0032 1.09321,0.1370932 0.344862,0.1402973 0.655752,0.3530171 0.946606,0.5854346 0.581706,0.4648352 1.109535,1.0238174 1.794982,1.3147074 0.668301,0.2836136 1.432248,0.2819818 2.138198,0.1125765 0.705949,-0.1694052 1.363378,-0.4971693 1.9966,-0.8522653 0.633221,-0.355096 1.251035,-0.7409899 1.912336,-1.0405617 0.661301,-0.2995719 1.375984,-0.5123956 2.101804,-0.4966594 1.039682,0.022541 2.008795,0.5062238 2.915044,1.0162839 0.906248,0.5100601 1.815415,1.0669579 2.837149,1.260626 0.888854,0.1684809 1.805118,0.049941 2.697877,-0.096443 0.892759,-0.1463841 1.791981,-0.3209759 2.694806,-0.2630693 1.495395,0.095914 2.866633,0.8159469 4.278953,1.31670242 0.706161,0.25037775 1.438125,0.4489665 2.186528,0.4842334 0.748404,0.0352669 1.518095,-0.10102604 2.16281,-0.48272492 0.673534,-0.3987612 1.169264,-1.0345191 1.622702,-1.6725259 0.453438,-0.6380069 0.890338,-1.3033828 1.493068,-1.8027577 0.715881,-0.5931225 1.643274,-0.9173121 2.572848,-0.9303878 0.929575,-0.013076 1.85643,0.2798191 2.627676,0.7989143 0.771246,0.5190952 1.386823,1.2593331 1.78553,2.0991617 0.398708,0.8398285 0.582803,1.77649887 0.563701,2.70596902 -0.02107,1.02500598 -0.29018,2.04802548 -0.805086,2.93456508 -0.514906,0.8865396 -1.277701,1.6325139 -2.19085,2.0986041 -1.172013,0.59822 -2.529449,0.7184813 -3.845082,0.6941518 C 89.870313,6.1823409 88.554575,6.0246341 87.241601,6.1117056 84.813238,6.2727455 82.484632,7.2646495 80.051359,7.3100792 78.298652,7.3428026 76.577978,6.882379 74.890531,6.4074321 73.203084,5.9324852 71.497832,5.4356467 69.745346,5.3926813 67.725195,5.3431536 65.746549,5.8981835 63.753478,6.2315428 58.572879,7.0980452 53.273577,6.4667069 48.054784,5.8720308 47.067158,5.7594918 46.0755,5.6476139 45.11319,5.3985555 44.15088,5.1494971 43.212015,4.7565667 42.437954,4.1329493 41.663892,3.509332 41.063693,2.6391977 40.883205,1.661704 c -0.09024,-0.4887468 -0.07437,-0.99872749 0.06267,-1.47646931 0.137041,-0.47774183 0.396671,-0.92201026 0.757527,-1.26377099 z"
       id="path958"
       inkscape:path-effect="#path-effect960"
       inkscape:original-d="m 41.703402,-1.0785363 c 1.230717,0.72718897 11.42476,1.83777084 11.144876,0.11983734 -0.279887,-1.71793344 1.677985,-3.43507334 2.756258,-2.75625934 1.078272,0.6788137 3.675278,2.95625284 3.834798,2.0372352 0.159517,-0.9190177 6.671211,-2.7959406 8.148938,-2.2769099 1.477729,0.5190306 4.194902,4.84478386 5.752193,2.2769099 24.081979,-39.7096559 3.435603,-1.597567 5.392683,-0.359512 1.957079,1.23805397 6.591319,2.31712019 8.628291,1.3182109 2.036969,-0.9989093 1.198636,-1.7573501 3.11577,-3.4752836 1.917134,-1.7179334 5.952188,2.6366866 7.549755,4.67365722 C 99.624529,2.5163201 96.680352,6.814542 95.031028,5.5125186 68.401078,-15.509923 90.237798,6.3516449 87.241601,6.1117056 84.245401,5.871766 82.44837,7.3502895 80.051359,7.3100792 77.654347,7.2698688 73.180947,6.0320784 69.745346,5.3926813 66.309742,4.7532842 65.751032,5.952187 63.753478,6.2315428 61.755924,6.5108989 49.772716,4.4342488 48.054784,5.8720308 46.336849,7.3098148 -25.379519,-40.715574 41.703402,-1.0785363 Z"
       sodipodi:nodetypes="sssssssssssssssss" />
  </g>
</svg>
