<?xml version="1.0" encoding="UTF-8" standalone="no"?>
<!-- Generator: Adobe Illustrator 25.1.0, SVG Export Plug-In . SVG Version: 6.00 Build 0)  -->

<svg
   version="1.1"
   x="0px"
   y="0px"
   viewBox="0 0 30 30"
   xml:space="preserve"
   id="svg94"
   sodipodi:docname="assurance.svg"
   width="30"
   height="30"
   inkscape:version="1.1 (c68e22c387, 2021-05-23)"
   inkscape:export-filename="C:\Users\Elvis Caleb\Documents\GitHub\IMAGE-JAMOH\Assets\Logo\assurance.png"
   inkscape:export-xdpi="274.28601"
   inkscape:export-ydpi="274.28601"
   xmlns:inkscape="http://www.inkscape.org/namespaces/inkscape"
   xmlns:sodipodi="http://sodipodi.sourceforge.net/DTD/sodipodi-0.dtd"
   xmlns="http://www.w3.org/2000/svg"
   xmlns:svg="http://www.w3.org/2000/svg"><defs
   id="defs98">
	
	
	
	
	
	
	
	
	
	
</defs><sodipodi:namedview
   id="namedview96"
   pagecolor="#505050"
   bordercolor="#eeeeee"
   borderopacity="1"
   inkscape:pageshadow="0"
   inkscape:pageopacity="0"
   inkscape:pagecheckerboard="0"
   showgrid="false"
   width="30px"
   inkscape:zoom="5.1907308"
   inkscape:cx="8.6692995"
   inkscape:cy="30.149897"
   inkscape:window-width="1920"
   inkscape:window-height="1001"
   inkscape:window-x="-9"
   inkscape:window-y="-9"
   inkscape:window-maximized="1"
   inkscape:current-layer="svg94" />
<style
   type="text/css"
   id="style2">
	.st0{fill:#FFFFFF;}
	.st1{fill:#EFF2F2;}
	.st2{fill:#709DC1;}
	.st3{fill:#296795;}
	.st4{fill:#83B191;}
	.st5{fill:#B05369;}
	.st6{opacity:0.26;fill:#B05369;}
	.st7{fill:#99599E;}
	.st8{fill:#EAC03B;}
	.st9{fill:#AF5454;}
	.st10{fill:#D1836B;}
</style>

<path
   class="st2"
   d="m 263.1,191.2 c 0,0.1 0,0.1 0,0.2 z"
   id="path27" /><g
   id="g33"
   style="fill:#37c871;fill-opacity:1"
   transform="matrix(0.15150774,0,0,0.14430944,-14.22716,-66.091379)">
		<g
   id="g31"
   style="fill:#37c871;fill-opacity:1">
			<path
   class="st3"
   d="m 279.8,480.8 c -0.1,-2.1 -2.1,-3.6 -4.1,-3.2 -1.1,0.2 -2.2,0.4 -3.4,0.6 -6.8,1.1 -13.6,1.7 -20.5,1.6 -5.7,-0.1 -11.5,-0.6 -17.2,-1.6 -4.7,-0.9 -9.4,-2.1 -13.9,-3.8 -3.7,-1.3 -7.2,-2.9 -10.7,-4.8 -2.6,-1.4 -5.1,-3 -7.5,-4.7 -0.9,-0.6 -1.7,-1.3 -2.6,-2 -0.8,-0.7 -1.6,-1.5 -2.7,-1.6 -1,0 -2,0.6 -2.7,1.2 -1.4,1.1 -2.7,2.2 -4.2,3.2 -2.6,1.8 -5.2,3.4 -8,4.8 -3.6,1.8 -7.3,3.4 -11.1,4.7 -4.7,1.6 -9.5,2.7 -14.3,3.5 -5.8,0.9 -11.7,1.3 -17.6,1.2 -7,-0.1 -14,-0.9 -20.9,-2.2 -2,-0.4 -4,1.1 -4.1,3.2 -1.1,18.1 -4,94 22.7,127.4 28.1,35.1 52.3,49.1 58.5,52.1 1,0.5 2.1,0.5 3,0 6.2,-3 30.6,-16.8 58.5,-52.1 26.6,-33.6 23.9,-109.3 22.8,-127.5 z m -38.5,60.6 -49.4,54.8 c -2,2.2 -4.7,3.3 -7.5,3.3 -2.1,0 -4.2,-0.7 -6,-2 l -18.9,-14 c -4.4,-3.3 -5.4,-9.6 -2.1,-14 3.3,-4.4 9.6,-5.4 14,-2.1 l 11.6,8.6 43.3,-48.1 c 3.7,-4.1 10,-4.4 14.2,-0.7 4.2,3.8 4.5,10.1 0.8,14.2 z"
   id="path29"
   style="fill:#37c871;fill-opacity:1" />
		</g>
	</g>
</svg>
