<?xml version="1.0" encoding="UTF-8" standalone="no"?>
<!-- Generator: Adobe Illustrator 25.1.0, SVG Export Plug-In . SVG Version: 6.00 Build 0)  -->

<svg
   version="1.1"
   id="_x2018_лой_x5F_1"
   x="0px"
   y="0px"
   viewBox="0 0 30 30"
   xml:space="preserve"
   sodipodi:docname="budget.svg"
   width="30"
   height="30"
   inkscape:version="1.1 (c68e22c387, 2021-05-23)"
   inkscape:export-filename="C:\Users\Elvis Caleb\Documents\GitHub\IMAGE-JAMOH\Assets\Logo\budget.png"
   inkscape:export-xdpi="274.28601"
   inkscape:export-ydpi="274.28601"
   xmlns:inkscape="http://www.inkscape.org/namespaces/inkscape"
   xmlns:sodipodi="http://sodipodi.sourceforge.net/DTD/sodipodi-0.dtd"
   xmlns="http://www.w3.org/2000/svg"
   xmlns:svg="http://www.w3.org/2000/svg"><defs
   id="defs569">
	
	
</defs><sodipodi:namedview
   id="namedview567"
   pagecolor="#505050"
   bordercolor="#eeeeee"
   borderopacity="1"
   inkscape:pageshadow="0"
   inkscape:pageopacity="0"
   inkscape:pagecheckerboard="0"
   showgrid="false"
   width="30px"
   inkscape:zoom="11.648"
   inkscape:cx="46.917926"
   inkscape:cy="9.9158654"
   inkscape:window-width="1920"
   inkscape:window-height="1001"
   inkscape:window-x="-9"
   inkscape:window-y="-9"
   inkscape:window-maximized="1"
   inkscape:current-layer="g498" />
<style
   type="text/css"
   id="style2">
	.st0{fill:#FFFFFF;}
	.st1{fill:#EBF3FA;}
	.st2{fill:#FFB27D;}
	.st3{fill:#163560;}
	.st4{fill:#8C9DF4;}
	.st5{fill:#6F84DD;}
	.st6{fill:#2B478B;}
	.st7{fill:#233862;}
	.st8{fill:#E8945B;}
	.st9{fill:#ED7D2B;}
	.st10{fill:#F99746;}
	.st11{opacity:0.5;fill:#AEC3FF;}
	.st12{fill:#FFEDDC;}
	.st13{fill:#DB6A1D;}
	.st14{fill:#E5C1A1;}
	.st15{fill:#F9DDBF;}
	.st16{fill:#FFB93E;}
	.st17{fill:#FFA412;}
	.st18{fill:#E2810E;}
	.st19{fill:#CCD8FF;}
	.st20{fill:#A9BAFF;}
</style>






<g
   id="g498"
   transform="translate(1453.0656,-2066.9275)">
		
			<ellipse
   transform="matrix(0.99923146,-0.03919806,0.03552414,0.99936882,0,0)"
   class="st18"
   cx="-1510.4843"
   cy="2023.5537"
   id="ellipse486"
   style="fill:#2ca05a;fill-opacity:1;stroke-width:0.0937036"
   rx="13.191264"
   ry="13.497318" />
		<path
   class="st16"
   d="m -1432.1022,2093.8299 c -0.171,0.097 -0.3324,0.1852 -0.5121,0.2726 -0.056,0.026 -0.1139,0.061 -0.1707,0.088 -0.1323,0.06 -0.265,0.1311 -0.3973,0.192 -6.4075,2.8897 -13.9586,0.1424 -17.1069,-6.3286 -3.0028,-6.1803 -0.9385,-13.5894 4.5669,-17.2951 0.4389,-0.2947 0.8955,-0.5695 1.3787,-0.815 0.1706,-0.088 0.3503,-0.1749 0.5205,-0.2532 0.1701,-0.078 0.34,-0.1469 0.5101,-0.2251 0.5282,-0.215 1.0549,-0.3921 1.5984,-0.5305 0.7971,-0.2131 1.5997,-0.3406 2.4084,-0.3919 2.4914,-0.1607 4.9704,0.4087 7.1356,1.6101 2.301,1.2736 4.2476,3.2627 5.5018,5.8397 3.1655,6.5003 0.7205,14.3581 -5.4334,17.8374 z"
   id="path488"
   style="fill:#37c871;stroke-width:0.0937074" />
		<g
   id="g492"
   transform="matrix(0.09254341,0.00389967,-0.00399131,0.09471828,-1361.0535,1791.6025)">
			<path
   class="st17"
   d="m -702.1,3224.2 c -11.9,0 -23.9,-1.7 -35.6,-5.1 -32.7,-9.5 -59.8,-31.1 -76.3,-61 -16.5,-29.8 -20.3,-64.3 -10.8,-97 9.5,-32.7 31.1,-59.8 61,-76.3 61.6,-34 139.4,-11.5 173.3,50.1 34,61.6 11.5,139.4 -50.1,173.3 -19.2,10.7 -40.2,16 -61.5,16 z m -0.4,-251.7 c -20.2,0 -40.8,5 -59.7,15.4 -29,16 -50.1,42.4 -59.3,74.2 -9.2,31.9 -5.5,65.4 10.5,94.4 16,29 42.4,50.1 74.2,59.3 31.9,9.2 65.4,5.5 94.4,-10.5 59.9,-33 81.8,-108.7 48.8,-168.6 -22.5,-41 -65.1,-64.2 -108.9,-64.2 z"
   id="path490"
   style="fill:#2ca05a" />
		</g>
		<g
   id="g496"
   transform="matrix(0.09254341,0.00389967,-0.00399131,0.09471828,-1361.0535,1791.6025)">
			<path
   class="st17"
   d="m -639.5,3109 c -0.3,-0.7 -0.6,-1.4 -0.9,-2 -2.3,-5.1 -5.2,-9.2 -8.6,-12.3 -3.9,-3.6 -8.4,-6.2 -13.6,-8 -5.2,-1.8 -10.9,-2.9 -17.3,-3.2 -6.4,-0.4 -13.3,-0.5 -20.7,-0.3 -4.6,0.1 -8.6,0.1 -11.8,-0.2 -3.3,-0.3 -6.1,-0.9 -8.3,-1.8 -2.3,-0.9 -4.1,-2.2 -5.6,-3.8 -1.4,-1.6 -2.6,-3.5 -3.5,-5.8 -0.9,-2.3 -1.5,-4.6 -1.6,-6.8 -0.1,-2.3 0.2,-4.4 1,-6.4 0.8,-2 2.1,-3.9 4,-5.6 1.8,-1.7 4.3,-3.2 7.3,-4.4 5.6,-2.3 10.7,-2.2 15.6,0.1 4.8,2.4 8.7,7.3 11.8,14.7 l 29,-11.8 c -2.5,-6.2 -5.7,-11.5 -9.5,-15.7 -3.8,-4.3 -8.1,-7.6 -12.9,-9.9 -4.8,-2.3 -10,-3.7 -15.6,-4.1 -5.6,-0.4 -11.5,0.2 -17.5,1.8 l -8.2,-20.2 -16.1,6.5 8.1,20 c -5.8,3 -10.7,6.5 -14.7,10.5 -4,4 -7.1,8.3 -9.3,13 -2.2,4.6 -3.3,9.5 -3.4,14.6 -0.1,5.1 0.9,10.3 3.1,15.6 2.5,6.1 5.7,10.9 9.6,14.5 3.9,3.6 8.4,6.2 13.6,8 5.2,1.7 10.9,2.8 17.3,3.1 6.4,0.3 13.3,0.3 20.8,0 4.3,-0.2 8.1,-0.2 11.3,0.1 3.2,0.3 6,0.9 8.3,1.8 2.3,0.9 4.3,2.3 5.8,3.9 1.5,1.7 2.8,3.8 3.9,6.4 0.9,2.3 1.4,4.6 1.4,6.9 0,2.3 -0.5,4.5 -1.5,6.5 -1,2.1 -2.6,4 -4.6,5.8 -2,1.8 -4.6,3.3 -7.8,4.6 -2.7,1.1 -5.6,1.8 -8.5,2.2 -2.9,0.4 -5.8,0.1 -8.6,-0.9 -2.8,-1 -5.4,-2.6 -7.8,-5.1 -2.4,-2.4 -4.6,-5.9 -6.3,-10.3 l -29,11.8 c 3,7.5 6.8,13.4 11.4,17.7 4.6,4.4 9.6,7.5 15,9.4 5.4,1.9 11.1,2.7 17.1,2.5 5.9,-0.2 11.8,-1.2 17.6,-2.9 l 7.5,18.5 16,-6.5 -7.5,-18.5 c 5.8,-3 10.8,-6.5 14.9,-10.4 3.8,-3.6 6.8,-7.5 9,-11.7 0.2,-0.3 0.3,-0.7 0.5,-1 2.2,-4.6 3.4,-9.4 3.5,-14.6 -0.4,-5.6 -1.5,-10.9 -3.7,-16.3 z"
   id="path494"
   style="fill:#2ca05a;fill-opacity:1" />
		</g>
	</g>


</svg>
