<?xml version="1.0" encoding="UTF-8" standalone="no"?>
<!-- Generator: Adobe Illustrator 25.1.0, SVG Export Plug-In . SVG Version: 6.00 Build 0)  -->

<svg
   version="1.1"
   x="0px"
   y="0px"
   viewBox="0 0 30 30"
   xml:space="preserve"
   id="svg34"
   sodipodi:docname="satifaction.svg"
   width="30"
   height="30"
   inkscape:version="1.1 (c68e22c387, 2021-05-23)"
   xmlns:inkscape="http://www.inkscape.org/namespaces/inkscape"
   xmlns:sodipodi="http://sodipodi.sourceforge.net/DTD/sodipodi-0.dtd"
   xmlns="http://www.w3.org/2000/svg"
   xmlns:svg="http://www.w3.org/2000/svg"><defs
   id="defs38">
	

		
		
		
		
		
		
		
		
		
		
		
		
	</defs><sodipodi:namedview
   id="namedview36"
   pagecolor="#505050"
   bordercolor="#eeeeee"
   borderopacity="1"
   inkscape:pageshadow="0"
   inkscape:pageopacity="0"
   inkscape:pagecheckerboard="0"
   showgrid="false"
   width="30px"
   inkscape:zoom="20.762923"
   inkscape:cx="31.329885"
   inkscape:cy="17.170029"
   inkscape:window-width="1920"
   inkscape:window-height="1001"
   inkscape:window-x="-9"
   inkscape:window-y="-9"
   inkscape:window-maximized="1"
   inkscape:current-layer="svg34" />
<style
   type="text/css"
   id="style2">
	.st0{fill:#FFFFFF;}
	.st1{fill:none;}
	.st2{fill:#82BFAB;}
	.st3{fill:#AAD4C8;}
	.st4{fill:#616E7D;}
</style>

<path
   class="st1"
   d="m 14.795354,6.139771 -0.0049,0.029066 c -0.02271,0.1695392 0.02718,0.3390769 0.127206,0.4698608 C 15.067579,6.44494 15.099381,6.168837 14.96768,5.9460171 l -0.05002,-0.058131 -0.05002,0.058131 C 14.83127,6.0089851 14.80855,6.07196 14.79492,6.1397736 Z"
   id="path7"
   style="stroke-width:0.0469101" /><polygon
   class="st1"
   points="296.4,577.9 296.7,577.7 296.4,577.8 "
   id="polygon9"
   transform="matrix(0.04542954,0,0,0.04843921,-10.567959,-13.376389)" /><polygon
   class="st1"
   points="547.7,691.5 531.8,701.4 547.7,711.2 "
   id="polygon11"
   transform="matrix(0.04542954,0,0,0.04843921,-10.567959,-13.376389)" /><path
   class="st2"
   d="m 2.8973592,14.611788 0.013654,-0.0097 -0.013654,0.0097 c -0.068145,0.03391 -0.1272052,0.0775 -0.1908075,0.125943 z"
   id="path13"
   style="stroke-width:0.0469101" /><path
   class="st3"
   d="m 12.242216,18.307702 c -0.367986,-0.319698 -0.717789,-0.67815 -1.040344,-1.065661 l -3.761561,2.484932 1.3265423,0.876749 0.3634427,-0.242197 c 0.081802,-0.06781 0.168092,-0.130789 0.2634841,-0.174384 z"
   id="path15"
   style="fill:#00aa88;fill-opacity:1;stroke-width:0.0469101" /><path
   class="st3"
   d="M 9.8299109,14.970241 C 9.6300178,14.50038 9.4664683,14.020832 9.3483495,13.536441 l -5.1017325,3.366522 -0.1544636,0.101732 -0.040837,0.02907 0.04543,-0.02424 c 0.2907543,0.392356 0.6223838,0.760494 0.9949128,1.094724 L 5.2915408,17.968615 5.66407,17.721572 Z"
   id="path17"
   style="fill:#00aa88;fill-opacity:1;stroke-width:0.0469101" /><path
   class="st3"
   d="M 9.0848656,10.533207 13.046321,7.9174915 v 0.00484 l 1.708144,-1.1237886 0.06354,-0.043596 0.104508,-0.1162508 C 14.818019,6.5079538 14.76807,6.338416 14.795328,6.1688769 l 0.0049,-0.029066 c 0.01365,-0.067816 0.03637,-0.1356286 0.06815,-0.1986025 l 0.05002,-0.058131 c 0.177213,-0.2276647 0.477041,-0.2954795 0.722365,-0.1404721 l 0.01813,0.00964 4.874592,3.2454261 0.976741,0.6539295 c 0.277152,0.203447 0.626967,0.2906349 0.98131,0.203447 0.663273,-0.1646951 1.07669,-0.8719086 0.922226,-1.5791221 C 23.336552,7.912635 23.123006,7.6220008 22.845894,7.447619 l -0.03637,-0.024207 -6.105733,-4.0640492 -0.0049,0.00489 -0.01365,-0.00964 C 16.117292,2.9767838 15.517623,2.6909927 14.913398,2.473015 13.414233,1.9304971 11.828737,1.8433044 10.32956,2.1872249 9.979757,2.2647255 9.6344864,2.3712908 9.2937716,2.4972348 8.9893883,2.6086498 8.6941026,2.7442745 8.3988052,2.8944349 7.7855075,3.0252224 7.1313224,2.9235006 6.5589117,2.5456734 L 5.1960251,1.6447021 -0.13286,10.838469 l 1.2356816,0.813778 0.7677612,0.508611 c 0.3952444,0.382668 0.6632713,0.876748 0.7768472,1.409579 l 0.022715,0.125944 c 0.031777,0.193757 0.0818,0.382668 0.127205,0.571582 0.031777,0.116251 0.063553,0.227665 0.099923,0.339073 l 0.013654,-0.0097 z"
   id="path19"
   style="fill:#00aa88;stroke-width:0.0469101" /><path
   class="st4"
   d="M 24.630847,1.6397671 23.267972,2.5407386 C 22.695549,2.918562 22.036821,3.0202862 21.428066,2.8894987 21.137325,2.7393396 20.837483,2.6085521 20.533112,2.4922986 20.196927,2.3663558 19.851669,2.2646341 19.501856,2.1822889 18.002677,1.8383683 16.421736,1.925561 14.918016,2.4680801 c 0.608754,0.2179763 1.20388,0.5086111 1.771747,0.8815924 l 0.01365,0.00964 0.0049,-0.00489 6.105733,4.0640497 0.03637,0.024231 c 0.277127,0.1743831 0.486094,0.4650172 0.567869,0.828311 0.154463,0.7072114 -0.258942,1.414425 -0.922211,1.5791201 -0.354357,0.087179 -0.70416,0 -0.981285,-0.2034448 l -0.985748,-0.644242 -4.874592,-3.245424 -0.01812,-0.00964 c -0.245325,-0.155007 -0.545165,-0.087197 -0.722344,0.1404726 l 0.05002,0.058131 c 0.131748,0.2276644 0.09546,0.4989229 -0.05002,0.6926805 l -0.104509,0.1162505 -0.06354,0.043596 -1.708158,1.1237885 v -0.00484 l -3.9614587,2.6157164 -6.1693348,4.073738 -0.013654,0.0097 -0.1908076,0.125944 c -0.3043927,0.247037 -0.5088171,0.639393 -0.5088171,1.080192 0,0.750807 0.5724105,1.361144 1.2765691,1.361144 0.2044368,0 0.399775,-0.05813 0.5724106,-0.150164 l 0.040837,-0.02906 0.1544634,-0.101732 5.1017335,-3.366525 c 0.1226366,0.484392 0.2816683,0.963941 0.4815494,1.433801 l -4.1567987,2.751264 -0.372529,0.24704 c -0.2680395,0.251883 -0.4406625,0.610334 -0.4406625,1.017224 0,0.750808 0.5724105,1.361139 1.2765691,1.361139 0.3361724,0 0.6405559,-0.140476 0.8676956,-0.36814 l 0.018123,0.02425 0.4224901,-0.276103 3.7615756,-2.484933 c 0.322542,0.392356 0.667801,0.745964 1.04033,1.065663 l -2.8438935,1.879442 c -0.095461,0.0436 -0.1862521,0.106565 -0.2634834,0.174381 -0.2952973,0.24704 -0.4861056,0.624862 -0.4861056,1.055973 0,0.745963 0.5678678,1.351454 1.2674964,1.351454 0.3679741,0 0.6950601,-0.169535 0.9267541,-0.435951 l 0.03637,0.05328 0.304382,-0.198602 2.407763,-1.588806 0.722329,-0.474704 v -0.04834 -0.634555 l -0.0049,-0.130786 0.0049,-0.130786 c 0.06354,-0.687834 0.604212,-1.22551 1.267483,-1.22551 0.695073,0 1.26294,0.600647 1.267482,1.341765 v 0.01452 0.01452 1.675998 2.388052 l 1.399228,-0.925187 v -0.179222 -0.01452 -0.01454 -1.443485 -2.068356 -1.065665 -0.363292 l -0.0049,-0.06297 0.0049,-0.06297 c 0.01365,-0.334232 0.145379,-0.639398 0.349815,-0.867064 0.231683,-0.256727 0.554239,-0.416578 0.917669,-0.421422 0.3589,0 0.685986,0.15985 0.91768,0.421422 0.218055,0.242197 0.349804,0.571582 0.349804,0.934879 l -0.0049,0.06296 h 0.0049 v 1.34661 2.136171 l 1.399231,-0.92519 v -1.545211 -1.918195 -0.0048 -0.04843 l 0.0086,-0.125941 v -0.164694 h 0.02271 c 0.08627,-0.411732 0.345271,-0.750809 0.695072,-0.925189 0.163549,-0.08236 0.345271,-0.13563 0.540611,-0.13563 0.608766,0 1.113029,0.45533 1.235692,1.060819 h 0.02271 v 0.208289 l 0.0049,0.05328 0.0049,0.02906 -0.0049,0.06298 v 1.714744 c 0.949483,-0.847685 1.658183,-1.913348 2.08976,-3.085577 0.159006,-0.435952 0.281668,-0.886435 0.36343,-1.346609 l 0.02271,-0.125943 c 0.113582,-0.532831 0.377059,-1.031755 0.776847,-1.40958 l 0.767761,-0.508611 1.235681,-0.81378 z"
   id="path21"
   style="fill:#916f6f;stroke-width:0.0469101" /><path
   class="st3"
   d="m 20.782968,17.314698 h -0.0049 l 0.0049,-0.06297 c 0,-0.363297 -0.131749,-0.687838 -0.349803,-0.934879 -0.231694,-0.256728 -0.554237,-0.416578 -0.917681,-0.421421 -0.36343,0 -0.685986,0.159849 -0.917682,0.421421 -0.204423,0.227666 -0.331629,0.532832 -0.349801,0.867064 l -0.0049,0.06296 0.0049,0.06297 v 0.363293 1.065666 2.068355 1.443484 0.01452 0.01454 0.179222 l 0.01365,-0.0097 c 0.08627,0.658774 0.608755,1.167386 1.249311,1.167386 0.645099,0 1.17208,-0.5183 1.249311,-1.181918 h 0.0086 V 22.32328 l 0.0049,-0.05813 -0.0049,-0.05813 v -1.404735 l 0.0086,-0.0048 v -2.136171 -1.34661 z"
   id="path23"
   style="fill:#00aa88;fill-opacity:1;stroke-width:0.0469101" /><path
   class="st3"
   d="m 16.848769,19.320082 v -0.01452 -0.01452 c -0.0086,-0.74112 -0.57241,-1.341765 -1.267484,-1.341765 -0.658726,0 -1.203878,0.537675 -1.267481,1.225509 l -0.0049,0.130789 0.0049,0.130784 v 0.634554 0.04844 0.954252 l -0.722331,-0.474705 -2.407759,1.588805 1.326541,0.876753 0.363431,-0.242196 0.02731,-0.01937 1.408316,-0.930035 v 0.954254 0.634553 1.588806 0.0049 l 0.06815,-0.0436 c 0.163548,0.547366 0.636011,0.944566 1.199336,0.944566 0.645099,0 1.172092,-0.5183 1.249311,-1.181916 h 0.0086 v -0.111375 l 0.0049,-0.05813 -0.0049,-0.05813 v -1.157694 l 0.0049,-0.0048 v -2.388056 z"
   id="path25"
   style="fill:#00aa88;fill-opacity:1;stroke-width:0.0469101" /><path
   class="st3"
   d="m 24.717164,16.3556 -0.0049,-0.02906 -0.0049,-0.05328 v -0.20829 h -0.02271 c -0.122636,-0.60549 -0.63147,-1.060818 -1.23568,-1.060818 -0.190809,0 -0.377062,0.04843 -0.54061,0.135628 -0.349814,0.174383 -0.608756,0.518303 -0.695073,0.92519 h -0.02731 v 0.164686 l -0.0086,0.12594 v 0.04843 0.0048 1.918195 1.54521 l 0.0086,-0.0048 v 0.217977 l -0.0049,0.05812 0.0049,0.05813 v 0.111411 h 0.0086 c 0.0772,0.663614 0.604212,1.181914 1.249311,1.181914 0.645099,0 1.172079,-0.5183 1.249311,-1.181914 h 0.0086 v -0.111445 l 0.0049,-0.05813 -0.0049,-0.05812 v -1.947261 l 0.0049,-0.0048 v -1.714745 z"
   id="path27"
   style="fill:#00aa88;fill-opacity:1;stroke-width:0.0469101" /><path
   class="st4"
   d="m 14.313804,22.827083 v -0.954254 l -1.408318,0.930033 -0.02731,0.01937 c -0.331641,0.242196 -0.549694,0.653927 -0.549694,1.114101 0,0.74596 0.567867,1.351445 1.267483,1.351445 0.268026,0 0.513351,-0.0872 0.722329,-0.237351 V 23.46163 22.827081 Z"
   id="path29"
   style="fill:#916f6f;stroke-width:0.0469101" />
</svg>
