<?xml version="1.0" encoding="UTF-8" standalone="no"?>
<!-- Created with Inkscape (http://www.inkscape.org/) -->

<svg
   width="60"
   height="60.000011"
   viewBox="0 0 15.874999 15.875003"
   version="1.1"
   id="svg5"
   inkscape:version="1.1 (c68e22c387, 2021-05-23)"
   sodipodi:docname="logo.svg"
   inkscape:export-filename="C:\Users\Elvis Caleb\Desktop\image_service  jamoh\logo200.png"
   inkscape:export-xdpi="96.019295"
   inkscape:export-ydpi="96.019295"
   xmlns:inkscape="http://www.inkscape.org/namespaces/inkscape"
   xmlns:sodipodi="http://sodipodi.sourceforge.net/DTD/sodipodi-0.dtd"
   xmlns="http://www.w3.org/2000/svg"
   xmlns:svg="http://www.w3.org/2000/svg">
  <sodipodi:namedview
     id="namedview7"
     pagecolor="#505050"
     bordercolor="#eeeeee"
     borderopacity="1"
     inkscape:pageshadow="0"
     inkscape:pageopacity="0"
     inkscape:pagecheckerboard="0"
     inkscape:document-units="mm"
     showgrid="false"
     inkscape:zoom="2.5293854"
     inkscape:cx="83.221798"
     inkscape:cy="83.617151"
     inkscape:window-width="1920"
     inkscape:window-height="1001"
     inkscape:window-x="-9"
     inkscape:window-y="-9"
     inkscape:window-maximized="1"
     inkscape:current-layer="layer1"
     units="px"
     fit-margin-top="0"
     fit-margin-left="0"
     fit-margin-right="0"
     fit-margin-bottom="0"
     width="50px" />
  <defs
     id="defs2">
    <inkscape:path-effect
       effect="spiro"
       id="path-effect56"
       is_visible="true"
       lpeversion="1" />
  </defs>
  <g
     inkscape:label="Calque 1"
     inkscape:groupmode="layer"
     id="layer1"
     transform="translate(180.08624,-19.295036)">
    <path
       style="fill:#178066;fill-opacity:1;stroke:none;stroke-width:0.0341851px;stroke-linecap:butt;stroke-linejoin:miter;stroke-opacity:1"
       d="m -171.10882,21.578295 -5.80724,4.96136 h 1.38729 l -0.0112,6.560402 7.36872,0.234951 1.54645,-2.677538 v -4.083598 l 1.45182,-0.03423 -2.22612,-1.881897 -0.0323,-1.950325 -1.70991,-0.03423 v 0.444812 l 0.0645,0.273727 z"
       id="path58"
       sodipodi:nodetypes="cccccccccccccc" />
    <rect
       style="fill:#ff7f2a;fill-opacity:1;stroke:none;stroke-width:0.0833902;stroke-linecap:round;stroke-linejoin:round;stroke-miterlimit:4;stroke-dasharray:none"
       id="rect2562-5"
       width="1.9475408"
       height="1.840976"
       x="-170.82607"
       y="27.539501" />
    <rect
       style="fill:#ff7f2a;fill-opacity:1;stroke:none;stroke-width:0.0833902;stroke-linecap:round;stroke-linejoin:round;stroke-miterlimit:4;stroke-dasharray:none"
       id="rect2562-7"
       width="1.9475408"
       height="1.840976"
       x="-170.85695"
       y="25.348543" />
    <rect
       style="fill:#ff7f2a;fill-opacity:1;stroke:none;stroke-width:0.0833902;stroke-linecap:round;stroke-linejoin:round;stroke-miterlimit:4;stroke-dasharray:none"
       id="rect2562-3"
       width="1.9475408"
       height="1.840976"
       x="-173.32275"
       y="27.506622" />
    <path
       style="fill:#178066;fill-opacity:1;stroke:#ececec;stroke-width:0.150691;stroke-linecap:butt;stroke-linejoin:miter;stroke-miterlimit:4;stroke-dasharray:none;stroke-opacity:1"
       d="m -164.78268,24.878941 c -0.0698,-0.24682 -0.15938,-0.488037 -0.26763,-0.72057 -0.21701,-0.466149 -0.50765,-0.894799 -0.8252,-1.299211 -0.531,-0.676249 -1.1453,-1.294153 -1.86231,-1.768677 -1.17494,-0.77759 -2.59464,-1.14331 -4.00337,-1.168201 -0.92305,-0.01631 -1.85342,0.110077 -2.72096,0.425792 -0.56934,0.207197 -1.10849,0.494605 -1.6058,0.84067 -1.3485,0.938376 -2.38604,2.326425 -2.86594,3.897636 -0.41896,1.371706 -0.40992,2.872092 0.0335,4.23609 0.50713,1.559987 1.57835,2.922769 2.95171,3.819772 1.37336,0.897004 3.03716,1.329287 4.67591,1.256983 1.27641,-0.05632 2.54458,-0.41633 3.63424,-1.083434 0.87624,-0.536446 1.64931,-1.294015 2.03055,-2.248077 0.0593,-0.148429 0.1093,-0.302902 0.11831,-0.462488 0.009,-0.159586 -0.0262,-0.326022 -0.12331,-0.453008 -0.0778,-0.101788 -0.19358,-0.173841 -0.31927,-0.198705 -0.12569,-0.02486 -0.26018,-0.0023 -0.37088,0.06218 -0.11071,0.0645 -0.19665,0.170365 -0.23701,0.291965 -0.0404,0.121599 -0.0348,0.257848 0.0154,0.375741 -0.34998,0.391387 -0.74244,0.744757 -1.16827,1.051898 -0.64162,0.462786 -1.36635,0.822424 -2.14107,0.982594 -0.66709,0.137917 -1.36218,0.125528 -2.02957,-0.0109 -0.30986,-0.06334 -0.61515,-0.153439 -0.90328,-0.283863 -0.11242,-0.05089 -0.22336,-0.108704 -0.31579,-0.190458 -0.0924,-0.08175 -0.16574,-0.190034 -0.18602,-0.311754 -0.023,-0.138255 0.0252,-0.282559 0.11149,-0.39304 0.078,-0.0999 0.18521,-0.174723 0.3015,-0.225098 0.11629,-0.05038 0.24167,-0.0772 0.36759,-0.09152 0.36965,-0.04204 0.74374,0.02151 1.11515,0 0.31433,-0.01821 0.62365,-0.09757 0.91442,-0.218352 0.32185,-0.133693 0.62457,-0.320099 0.86981,-0.567725 0.13511,-0.136427 0.25219,-0.290844 0.3457,-0.458546 0.0417,-0.0747 0.0791,-0.153539 0.0915,-0.238169 0.006,-0.04231 0.006,-0.08578 -0.003,-0.127559 -0.009,-0.04177 -0.0274,-0.08183 -0.0548,-0.114653 -0.034,-0.04077 -0.0814,-0.06932 -0.13222,-0.08486 -0.0508,-0.01554 -0.10486,-0.01853 -0.15772,-0.0134 -0.12073,0.0117 -0.23304,0.06419 -0.34569,0.109172 -0.30678,0.122486 -0.63206,0.193204 -0.95903,0.240193 -0.17368,0.02496 -0.34866,0.04339 -0.52412,0.04365 -0.52227,7.69e-4 -1.02933,-0.158428 -1.5389,-0.272942 -0.15499,-0.03483 -0.31099,-0.06563 -0.46835,-0.08734 -0.56362,-0.07775 -1.14723,-0.03612 -1.68389,0.152845 -0.12439,0.0438 -0.24795,0.0958 -0.37914,0.109184 -0.16782,0.01712 -0.33618,-0.03053 -0.49067,-0.09827 -0.32432,-0.142206 -0.60575,-0.374444 -0.82436,-0.653042 -0.21861,-0.278598 -0.37574,-0.602627 -0.48035,-0.940953 -0.23732,-0.767558 -0.20414,-1.601224 -0.007,-2.380072 0.24205,-0.956278 0.72746,-1.846421 1.3785,-2.587504 0.6894,-0.784758 1.56982,-1.406902 2.5537,-1.757759 0.72371,-0.258077 1.49542,-0.368414 2.26376,-0.371207 0.74275,-0.0027 1.488,0.09465 2.19682,0.316618 0.69189,0.216663 1.34618,0.551606 1.92919,0.982599 0.51885,0.383568 0.98276,0.844642 1.34934,1.375636 0.21901,0.317241 0.40224,0.657412 0.59104,0.993513 0.028,0.0499 0.0563,0.09989 0.078,0.15285 0.0215,0.05247 0.0365,0.10762 0.0445,0.163768 l 0.0339,-2e-5 z"
       id="path54"
       sodipodi:nodetypes="cssaaaaaassssccssssssssssssssssssssaaaaaaassacc"
       inkscape:original-d="m -164.78268,24.878941 c -0.0112,-0.01458 -0.17839,-0.480347 -0.26763,-0.72057 -0.0893,-0.240221 -0.55011,-0.866114 -0.8252,-1.299211 -0.27512,-0.433103 -1.11607,-1.340677 -1.86231,-1.768677 -1.20148,-0.689112 -2.61389,-1.078855 -4.00337,-1.168201 -0.91653,-0.05894 -1.85047,0.13885 -2.72096,0.425792 -0.57526,0.189624 -1.14905,0.44929 -1.6058,0.84067 -1.23044,1.054299 -2.37007,2.372175 -2.86594,3.897636 -0.43737,1.345578 -0.64626,2.990663 0.0335,4.23609 1.44891,2.654776 5.0851,3.384534 7.62762,5.076755 2.54248,1.692219 2.66038,-0.806823 3.63424,-1.083434 0.97385,-0.276615 1.04183,-1.287281 2.03055,-2.248077 0.98874,-0.960792 -0.10169,-0.73714 -0.005,-0.915496 0.0965,-0.178353 -0.92288,0.553048 -0.91178,0.531179 -0.37961,0.711788 -0.56985,0.552361 -1.16827,1.051898 -0.40148,0.334779 -1.42735,0.655096 -2.14107,0.982594 -0.71372,0.327502 -1.35303,-0.0073 -2.02957,-0.0109 -0.67657,-0.0038 -0.60215,-0.189206 -0.90328,-0.283863 -0.30112,-0.09466 -0.33451,-0.334776 -0.50181,-0.502212 -0.1673,-0.167439 0.0743,-0.261997 0.11149,-0.39304 0.0372,-0.131047 0.44609,-0.211046 0.66909,-0.316618 0.223,-0.105573 0.74347,3.3e-5 1.11515,0 0.37167,-2.9e-5 0.60965,-0.145535 0.91442,-0.218352 0.30477,-0.07281 0.57991,-0.378453 0.86981,-0.567725 0.28992,-0.189273 0.2305,-0.305667 0.3457,-0.458546 0.11519,-0.152884 0.0223,-0.320221 0.0335,-0.480381 0.0112,-0.160161 -0.19326,-0.06548 -0.28994,-0.09826 -0.0966,-0.03281 -0.23043,0.07281 -0.34569,0.109172 -0.11532,0.03636 -0.63932,0.16016 -0.95903,0.240193 -0.3197,0.08003 -0.34939,0.02916 -0.52412,0.04365 -0.17474,0.01453 -1.0259,-0.18193 -1.5389,-0.272942 -0.51299,-0.09101 -0.3122,-0.05819 -0.46835,-0.08734 -0.15617,-0.02916 -1.12255,0.101929 -1.68389,0.152845 -0.56131,0.05092 -0.25272,0.07282 -0.37914,0.109184 -0.12641,0.03636 -0.32707,-0.06547 -0.49067,-0.09827 -0.16359,-0.03281 -1.07331,-0.9519 -1.30471,-1.593995 -0.26964,-0.748153 -0.19872,-1.609253 -0.007,-2.380072 0.23519,-0.945133 0.72379,-1.855776 1.3785,-2.587504 0.68566,-0.766303 1.59103,-1.371047 2.5537,-1.757759 0.70783,-0.284342 1.49869,-0.363793 2.26376,-0.371207 0.74011,-0.0073 1.49259,0.09354 2.19682,0.316618 0.68968,0.218475 1.34893,0.557255 1.92919,0.982599 0.51982,0.381021 0.8996,0.917124 1.34934,1.375636 0.44974,0.458513 0.39406,0.662374 0.59104,0.993513 0.19697,0.331144 0.0574,0.09929 0.078,0.15285 0.0203,0.05262 0.0298,0.109209 0.0445,0.163768 0.007,0.0087 0.0226,-1.2e-5 0.0339,-2e-5 z"
       inkscape:path-effect="#path-effect56" />
    <rect
       style="fill:#ff7f2a;fill-opacity:1;stroke:none;stroke-width:0.0833902;stroke-linecap:round;stroke-linejoin:round;stroke-miterlimit:4;stroke-dasharray:none"
       id="rect2562"
       width="1.9475408"
       height="1.840976"
       x="-173.32275"
       y="25.348543" />
  </g>
</svg>
